M48
; DRILL file {KiCad (5.1.9)-1} date 02/17/21 21:12:09
; FORMAT={-:-/ absolute / inch / decimal}
; #@! TF.CreationDate,2021-02-17T21:12:09+00:00
; #@! TF.GenerationSoftware,Kicad,Pcbnew,(5.1.9)-1
; #@! TF.FileFunction,Plated,1,2,PTH
FMAT,2
INCH
T1C0.0157
T2C0.0256
T3C0.0276
T4C0.0374
T5C0.0394
T6C0.0591
T7C0.0650
T8C0.1260
%
G90
G05
T1
X4.25Y-2.75
X4.25Y-4.2
X5.0Y-2.54
X5.1Y-2.625
X5.3Y-2.475
X5.325Y-4.975
X5.375Y-2.4
X5.5Y-3.125
X5.5Y-4.0
X5.5Y-4.875
X5.525Y-2.6
X5.575Y-3.15
X5.575Y-4.025
X5.575Y-4.9
X5.65Y-2.675
X5.7765Y-2.4235
X5.7797Y-2.4953
X5.8287Y-3.15
X5.8287Y-4.025
X5.8287Y-4.9
X5.85Y-3.075
X5.85Y-3.95
X5.85Y-4.825
X5.85Y-5.475
X5.875Y-2.925
X5.903Y-2.422
X5.975Y-2.925
X5.975Y-3.8
X5.975Y-4.675
X6.125Y-3.19
X6.125Y-4.065
X6.125Y-4.94
T2
X4.4Y-3.255
X4.4Y-3.305
X4.4Y-3.87
X4.4Y-3.92
X4.4Y-4.485
X4.4Y-4.535
X4.45Y-3.255
X4.45Y-3.305
X4.45Y-3.87
X4.45Y-3.92
X4.45Y-4.485
X4.45Y-4.535
X4.5Y-3.255
X4.5Y-3.305
X4.5Y-3.87
X4.5Y-3.92
X4.5Y-4.485
X4.5Y-4.535
X4.55Y-3.255
X4.55Y-3.305
X4.55Y-3.87
X4.55Y-3.92
X4.55Y-4.485
X4.55Y-4.535
T3
X4.57Y-5.165
X4.6Y-3.15
X4.825Y-3.8
X4.825Y-4.675
X4.95Y-2.9
X5.05Y-3.475
X5.05Y-4.35
X5.775Y-3.8
X5.775Y-4.675
X6.0203Y-2.9795
X6.0203Y-3.8547
X6.025Y-3.4
X6.025Y-4.275
X6.025Y-4.725
X6.025Y-5.15
X6.1Y-2.875
X6.2004Y-3.0248
X6.2004Y-3.9
X6.2004Y-4.775
X6.325Y-3.85
X6.325Y-4.725
X6.6Y-2.58
X7.02Y-3.78
X7.075Y-2.65
X7.26Y-4.7
T4
X4.5Y-2.8731
X4.5Y-2.9716
X4.5Y-3.07
X4.5Y-3.49
X4.5Y-3.5884
X4.5Y-3.6869
X4.5Y-4.105
X4.5Y-4.2034
X4.5Y-4.3019
X4.775Y-2.65
X4.825Y-3.05
X4.825Y-3.1484
X4.825Y-3.2469
X4.825Y-3.3453
X4.825Y-3.4437
X4.825Y-3.5421
X4.825Y-3.6406
X4.825Y-3.925
X4.825Y-4.0234
X4.825Y-4.1219
X4.825Y-4.2203
X4.825Y-4.3187
X4.825Y-4.4171
X4.825Y-4.5156
X4.825Y-4.8
X4.825Y-4.8984
X4.825Y-4.9969
X4.825Y-5.0953
X4.825Y-5.1937
X4.825Y-5.2921
X4.825Y-5.3906
X4.8734Y-2.65
X4.9719Y-2.65
X5.5Y-3.275
X5.5Y-4.15
X5.5Y-5.025
X5.5984Y-3.275
X5.5984Y-4.15
X5.5984Y-5.025
X5.6969Y-3.275
X5.6969Y-4.15
X5.6969Y-5.025
X7.125Y-3.2531
X7.125Y-3.3516
X7.125Y-3.45
X7.125Y-3.5484
T5
X4.425Y-4.725
X4.425Y-5.0
X4.5234Y-4.725
X4.5234Y-5.0
X5.05Y-3.625
X5.05Y-4.5
X5.05Y-5.275
X5.05Y-5.375
X5.15Y-3.625
X5.15Y-4.5
X5.15Y-5.275
X5.15Y-5.375
X5.225Y-2.65
X5.25Y-3.625
X5.25Y-4.5
X5.25Y-5.275
X5.25Y-5.375
X5.325Y-2.65
X5.425Y-2.65
X5.6Y-2.45
X5.6Y-3.55
X5.6Y-4.425
X5.6Y-5.3
X5.6984Y-3.55
X5.6984Y-4.425
X5.6984Y-5.3
X6.525Y-3.125
X6.525Y-3.225
X6.525Y-4.0
X6.525Y-4.1
X6.525Y-4.875
X6.525Y-4.975
X6.55Y-2.45
X6.65Y-3.125
X6.65Y-3.225
X6.65Y-4.0
X6.65Y-4.1
X6.65Y-4.875
X6.65Y-4.975
T6
X6.15Y-2.725
X6.175Y-2.35
X6.31Y-2.35
X6.6Y-2.95
T7
X6.0Y-3.525
X6.0Y-4.4
X6.0Y-5.275
X6.2Y-3.525
X6.2Y-4.4
X6.2Y-5.275
X6.45Y-3.525
X6.45Y-4.4
X6.45Y-5.275
X6.65Y-3.525
X6.65Y-4.4
X6.65Y-5.275
T8
X4.4Y-2.35
X4.4Y-5.35
X7.15Y-2.35
X7.15Y-5.35
T0
M30
