%TF.GenerationSoftware,KiCad,Pcbnew,(5.1.9)-1*%
%TF.CreationDate,2021-02-17T21:12:08+00:00*%
%TF.ProjectId,switcherv0,73776974-6368-4657-9276-302e6b696361,rev?*%
%TF.SameCoordinates,Original*%
%TF.FileFunction,Soldermask,Bot*%
%TF.FilePolarity,Negative*%
%FSLAX46Y46*%
G04 Gerber Fmt 4.6, Leading zero omitted, Abs format (unit mm)*
G04 Created by KiCad (PCBNEW (5.1.9)-1) date 2021-02-17 21:12:08*
%MOMM*%
%LPD*%
G01*
G04 APERTURE LIST*
%ADD10C,1.000000*%
%ADD11C,0.100000*%
%ADD12C,3.600000*%
%ADD13C,5.600000*%
%ADD14O,1.700000X2.000000*%
%ADD15O,1.700000X1.700000*%
%ADD16R,1.700000X1.700000*%
%ADD17O,1.950000X1.700000*%
%ADD18C,2.475000*%
%ADD19R,2.475000X2.475000*%
%ADD20O,1.000000X1.000000*%
%ADD21R,1.000000X1.000000*%
%ADD22O,1.700000X1.950000*%
G04 APERTURE END LIST*
D10*
X166870000Y-62230000D02*
G75*
G03*
X166870000Y-62230000I-500000J0D01*
G01*
X142740000Y-62230000D02*
G75*
G03*
X142740000Y-62230000I-500000J0D01*
G01*
D11*
G36*
X170307000Y-83439000D02*
G01*
X164084000Y-83439000D01*
X164084000Y-77851000D01*
X170307000Y-77851000D01*
X170307000Y-83439000D01*
G37*
X170307000Y-83439000D02*
X164084000Y-83439000D01*
X164084000Y-77851000D01*
X170307000Y-77851000D01*
X170307000Y-83439000D01*
G36*
X170307000Y-105664000D02*
G01*
X164084000Y-105664000D01*
X164084000Y-100076000D01*
X170307000Y-100076000D01*
X170307000Y-105664000D01*
G37*
X170307000Y-105664000D02*
X164084000Y-105664000D01*
X164084000Y-100076000D01*
X170307000Y-100076000D01*
X170307000Y-105664000D01*
G36*
X170307000Y-127889000D02*
G01*
X164084000Y-127889000D01*
X164084000Y-122301000D01*
X170307000Y-122301000D01*
X170307000Y-127889000D01*
G37*
X170307000Y-127889000D02*
X164084000Y-127889000D01*
X164084000Y-122301000D01*
X170307000Y-122301000D01*
X170307000Y-127889000D01*
D12*
%TO.C,H4*%
X111760000Y-135890000D03*
D13*
X111760000Y-135890000D03*
%TD*%
D12*
%TO.C,H3*%
X181610000Y-135890000D03*
D13*
X181610000Y-135890000D03*
%TD*%
D12*
%TO.C,H2*%
X181610000Y-59690000D03*
D13*
X181610000Y-59690000D03*
%TD*%
D12*
%TO.C,H1*%
X111760000Y-59690000D03*
D13*
X111760000Y-59690000D03*
%TD*%
%TO.C,R26*%
G36*
G01*
X135020000Y-89345001D02*
X135020000Y-88444999D01*
G75*
G02*
X135269999Y-88195000I249999J0D01*
G01*
X135970001Y-88195000D01*
G75*
G02*
X136220000Y-88444999I0J-249999D01*
G01*
X136220000Y-89345001D01*
G75*
G02*
X135970001Y-89595000I-249999J0D01*
G01*
X135269999Y-89595000D01*
G75*
G02*
X135020000Y-89345001I0J249999D01*
G01*
G37*
G36*
G01*
X133020000Y-89345001D02*
X133020000Y-88444999D01*
G75*
G02*
X133269999Y-88195000I249999J0D01*
G01*
X133970001Y-88195000D01*
G75*
G02*
X134220000Y-88444999I0J-249999D01*
G01*
X134220000Y-89345001D01*
G75*
G02*
X133970001Y-89595000I-249999J0D01*
G01*
X133269999Y-89595000D01*
G75*
G02*
X133020000Y-89345001I0J249999D01*
G01*
G37*
%TD*%
%TO.C,R25*%
G36*
G01*
X135020000Y-111575001D02*
X135020000Y-110674999D01*
G75*
G02*
X135269999Y-110425000I249999J0D01*
G01*
X135970001Y-110425000D01*
G75*
G02*
X136220000Y-110674999I0J-249999D01*
G01*
X136220000Y-111575001D01*
G75*
G02*
X135970001Y-111825000I-249999J0D01*
G01*
X135269999Y-111825000D01*
G75*
G02*
X135020000Y-111575001I0J249999D01*
G01*
G37*
G36*
G01*
X133020000Y-111575001D02*
X133020000Y-110674999D01*
G75*
G02*
X133269999Y-110425000I249999J0D01*
G01*
X133970001Y-110425000D01*
G75*
G02*
X134220000Y-110674999I0J-249999D01*
G01*
X134220000Y-111575001D01*
G75*
G02*
X133970001Y-111825000I-249999J0D01*
G01*
X133269999Y-111825000D01*
G75*
G02*
X133020000Y-111575001I0J249999D01*
G01*
G37*
%TD*%
%TO.C,R24*%
G36*
G01*
X147555000Y-130994999D02*
X147555000Y-131895001D01*
G75*
G02*
X147305001Y-132145000I-249999J0D01*
G01*
X146604999Y-132145000D01*
G75*
G02*
X146355000Y-131895001I0J249999D01*
G01*
X146355000Y-130994999D01*
G75*
G02*
X146604999Y-130745000I249999J0D01*
G01*
X147305001Y-130745000D01*
G75*
G02*
X147555000Y-130994999I0J-249999D01*
G01*
G37*
G36*
G01*
X149555000Y-130994999D02*
X149555000Y-131895001D01*
G75*
G02*
X149305001Y-132145000I-249999J0D01*
G01*
X148604999Y-132145000D01*
G75*
G02*
X148355000Y-131895001I0J249999D01*
G01*
X148355000Y-130994999D01*
G75*
G02*
X148604999Y-130745000I249999J0D01*
G01*
X149305001Y-130745000D01*
G75*
G02*
X149555000Y-130994999I0J-249999D01*
G01*
G37*
%TD*%
%TO.C,R23*%
G36*
G01*
X158350000Y-81464999D02*
X158350000Y-82365001D01*
G75*
G02*
X158100001Y-82615000I-249999J0D01*
G01*
X157399999Y-82615000D01*
G75*
G02*
X157150000Y-82365001I0J249999D01*
G01*
X157150000Y-81464999D01*
G75*
G02*
X157399999Y-81215000I249999J0D01*
G01*
X158100001Y-81215000D01*
G75*
G02*
X158350000Y-81464999I0J-249999D01*
G01*
G37*
G36*
G01*
X160350000Y-81464999D02*
X160350000Y-82365001D01*
G75*
G02*
X160100001Y-82615000I-249999J0D01*
G01*
X159399999Y-82615000D01*
G75*
G02*
X159150000Y-82365001I0J249999D01*
G01*
X159150000Y-81464999D01*
G75*
G02*
X159399999Y-81215000I249999J0D01*
G01*
X160100001Y-81215000D01*
G75*
G02*
X160350000Y-81464999I0J-249999D01*
G01*
G37*
%TD*%
%TO.C,R22*%
G36*
G01*
X158350000Y-103694999D02*
X158350000Y-104595001D01*
G75*
G02*
X158100001Y-104845000I-249999J0D01*
G01*
X157399999Y-104845000D01*
G75*
G02*
X157150000Y-104595001I0J249999D01*
G01*
X157150000Y-103694999D01*
G75*
G02*
X157399999Y-103445000I249999J0D01*
G01*
X158100001Y-103445000D01*
G75*
G02*
X158350000Y-103694999I0J-249999D01*
G01*
G37*
G36*
G01*
X160350000Y-103694999D02*
X160350000Y-104595001D01*
G75*
G02*
X160100001Y-104845000I-249999J0D01*
G01*
X159399999Y-104845000D01*
G75*
G02*
X159150000Y-104595001I0J249999D01*
G01*
X159150000Y-103694999D01*
G75*
G02*
X159399999Y-103445000I249999J0D01*
G01*
X160100001Y-103445000D01*
G75*
G02*
X160350000Y-103694999I0J-249999D01*
G01*
G37*
%TD*%
%TO.C,R21*%
G36*
G01*
X160350000Y-125924999D02*
X160350000Y-126825001D01*
G75*
G02*
X160100001Y-127075000I-249999J0D01*
G01*
X159399999Y-127075000D01*
G75*
G02*
X159150000Y-126825001I0J249999D01*
G01*
X159150000Y-125924999D01*
G75*
G02*
X159399999Y-125675000I249999J0D01*
G01*
X160100001Y-125675000D01*
G75*
G02*
X160350000Y-125924999I0J-249999D01*
G01*
G37*
G36*
G01*
X158350000Y-125924999D02*
X158350000Y-126825001D01*
G75*
G02*
X158100001Y-127075000I-249999J0D01*
G01*
X157399999Y-127075000D01*
G75*
G02*
X157150000Y-126825001I0J249999D01*
G01*
X157150000Y-125924999D01*
G75*
G02*
X157399999Y-125675000I249999J0D01*
G01*
X158100001Y-125675000D01*
G75*
G02*
X158350000Y-125924999I0J-249999D01*
G01*
G37*
%TD*%
D14*
%TO.C,J9*%
X144740000Y-134620000D03*
G36*
G01*
X141390000Y-135370000D02*
X141390000Y-133870000D01*
G75*
G02*
X141640000Y-133620000I250000J0D01*
G01*
X142840000Y-133620000D01*
G75*
G02*
X143090000Y-133870000I0J-250000D01*
G01*
X143090000Y-135370000D01*
G75*
G02*
X142840000Y-135620000I-250000J0D01*
G01*
X141640000Y-135620000D01*
G75*
G02*
X141390000Y-135370000I0J250000D01*
G01*
G37*
%TD*%
D15*
%TO.C,JP3*%
X137795000Y-67310000D03*
X135255000Y-67310000D03*
D16*
X132715000Y-67310000D03*
%TD*%
D17*
%TO.C,J14*%
X122555000Y-136920000D03*
X122555000Y-134420000D03*
X122555000Y-131920000D03*
X122555000Y-129420000D03*
X122555000Y-126920000D03*
X122555000Y-124420000D03*
G36*
G01*
X121830000Y-121070000D02*
X123280000Y-121070000D01*
G75*
G02*
X123530000Y-121320000I0J-250000D01*
G01*
X123530000Y-122520000D01*
G75*
G02*
X123280000Y-122770000I-250000J0D01*
G01*
X121830000Y-122770000D01*
G75*
G02*
X121580000Y-122520000I0J250000D01*
G01*
X121580000Y-121320000D01*
G75*
G02*
X121830000Y-121070000I250000J0D01*
G01*
G37*
%TD*%
D18*
%TO.C,J2*%
X152400000Y-133985000D03*
D19*
X157480000Y-133985000D03*
%TD*%
D17*
%TO.C,J20*%
X114300000Y-77978000D03*
X114300000Y-75478000D03*
G36*
G01*
X113575000Y-72128000D02*
X115025000Y-72128000D01*
G75*
G02*
X115275000Y-72378000I0J-250000D01*
G01*
X115275000Y-73578000D01*
G75*
G02*
X115025000Y-73828000I-250000J0D01*
G01*
X113575000Y-73828000D01*
G75*
G02*
X113325000Y-73578000I0J250000D01*
G01*
X113325000Y-72378000D01*
G75*
G02*
X113575000Y-72128000I250000J0D01*
G01*
G37*
%TD*%
D14*
%TO.C,J17*%
X114895000Y-120015000D03*
G36*
G01*
X111545000Y-120765000D02*
X111545000Y-119265000D01*
G75*
G02*
X111795000Y-119015000I250000J0D01*
G01*
X112995000Y-119015000D01*
G75*
G02*
X113245000Y-119265000I0J-250000D01*
G01*
X113245000Y-120765000D01*
G75*
G02*
X112995000Y-121015000I-250000J0D01*
G01*
X111795000Y-121015000D01*
G75*
G02*
X111545000Y-120765000I0J250000D01*
G01*
G37*
%TD*%
D17*
%TO.C,J21*%
X114300000Y-93646000D03*
X114300000Y-91146000D03*
G36*
G01*
X113575000Y-87796000D02*
X115025000Y-87796000D01*
G75*
G02*
X115275000Y-88046000I0J-250000D01*
G01*
X115275000Y-89246000D01*
G75*
G02*
X115025000Y-89496000I-250000J0D01*
G01*
X113575000Y-89496000D01*
G75*
G02*
X113325000Y-89246000I0J250000D01*
G01*
X113325000Y-88046000D01*
G75*
G02*
X113575000Y-87796000I250000J0D01*
G01*
G37*
%TD*%
%TO.C,J22*%
X114300000Y-109267000D03*
X114300000Y-106767000D03*
G36*
G01*
X113575000Y-103417000D02*
X115025000Y-103417000D01*
G75*
G02*
X115275000Y-103667000I0J-250000D01*
G01*
X115275000Y-104867000D01*
G75*
G02*
X115025000Y-105117000I-250000J0D01*
G01*
X113575000Y-105117000D01*
G75*
G02*
X113325000Y-104867000I0J250000D01*
G01*
X113325000Y-103667000D01*
G75*
G02*
X113575000Y-103417000I250000J0D01*
G01*
G37*
%TD*%
D20*
%TO.C,JP6*%
X115570000Y-113919000D03*
X115570000Y-115189000D03*
X114300000Y-113919000D03*
X114300000Y-115189000D03*
X113030000Y-113919000D03*
X113030000Y-115189000D03*
X111760000Y-113919000D03*
D21*
X111760000Y-115189000D03*
%TD*%
D20*
%TO.C,JP5*%
X115570000Y-98298000D03*
X115570000Y-99568000D03*
X114300000Y-98298000D03*
X114300000Y-99568000D03*
X113030000Y-98298000D03*
X113030000Y-99568000D03*
X111760000Y-98298000D03*
D21*
X111760000Y-99568000D03*
%TD*%
D20*
%TO.C,JP4*%
X115570000Y-82677000D03*
X115570000Y-83947000D03*
X114300000Y-82677000D03*
X114300000Y-83947000D03*
X113030000Y-82677000D03*
X113030000Y-83947000D03*
X111760000Y-82677000D03*
D21*
X111760000Y-83947000D03*
%TD*%
D22*
%TO.C,J19*%
X126285000Y-67310000D03*
X123785000Y-67310000D03*
G36*
G01*
X120435000Y-68035000D02*
X120435000Y-66585000D01*
G75*
G02*
X120685000Y-66335000I250000J0D01*
G01*
X121885000Y-66335000D01*
G75*
G02*
X122135000Y-66585000I0J-250000D01*
G01*
X122135000Y-68035000D01*
G75*
G02*
X121885000Y-68285000I-250000J0D01*
G01*
X120685000Y-68285000D01*
G75*
G02*
X120435000Y-68035000I0J250000D01*
G01*
G37*
%TD*%
D14*
%TO.C,J18*%
X114895000Y-127000000D03*
G36*
G01*
X111545000Y-127750000D02*
X111545000Y-126250000D01*
G75*
G02*
X111795000Y-126000000I250000J0D01*
G01*
X112995000Y-126000000D01*
G75*
G02*
X113245000Y-126250000I0J-250000D01*
G01*
X113245000Y-127750000D01*
G75*
G02*
X112995000Y-128000000I-250000J0D01*
G01*
X111795000Y-128000000D01*
G75*
G02*
X111545000Y-127750000I0J250000D01*
G01*
G37*
%TD*%
%TO.C,J16*%
G36*
G01*
X121830000Y-76620000D02*
X123280000Y-76620000D01*
G75*
G02*
X123530000Y-76870000I0J-250000D01*
G01*
X123530000Y-78070000D01*
G75*
G02*
X123280000Y-78320000I-250000J0D01*
G01*
X121830000Y-78320000D01*
G75*
G02*
X121580000Y-78070000I0J250000D01*
G01*
X121580000Y-76870000D01*
G75*
G02*
X121830000Y-76620000I250000J0D01*
G01*
G37*
D17*
X122555000Y-79970000D03*
X122555000Y-82470000D03*
X122555000Y-84970000D03*
X122555000Y-87470000D03*
X122555000Y-89970000D03*
X122555000Y-92470000D03*
%TD*%
%TO.C,J15*%
X122555000Y-114695000D03*
X122555000Y-112195000D03*
X122555000Y-109695000D03*
X122555000Y-107195000D03*
X122555000Y-104695000D03*
X122555000Y-102195000D03*
G36*
G01*
X121830000Y-98845000D02*
X123280000Y-98845000D01*
G75*
G02*
X123530000Y-99095000I0J-250000D01*
G01*
X123530000Y-100295000D01*
G75*
G02*
X123280000Y-100545000I-250000J0D01*
G01*
X121830000Y-100545000D01*
G75*
G02*
X121580000Y-100295000I0J250000D01*
G01*
X121580000Y-99095000D01*
G75*
G02*
X121830000Y-98845000I250000J0D01*
G01*
G37*
%TD*%
%TO.C,J13*%
G36*
G01*
X141390000Y-90920000D02*
X141390000Y-89420000D01*
G75*
G02*
X141640000Y-89170000I250000J0D01*
G01*
X142840000Y-89170000D01*
G75*
G02*
X143090000Y-89420000I0J-250000D01*
G01*
X143090000Y-90920000D01*
G75*
G02*
X142840000Y-91170000I-250000J0D01*
G01*
X141640000Y-91170000D01*
G75*
G02*
X141390000Y-90920000I0J250000D01*
G01*
G37*
D14*
X144740000Y-90170000D03*
%TD*%
%TO.C,J12*%
G36*
G01*
X138850000Y-83910000D02*
X138850000Y-82460000D01*
G75*
G02*
X139100000Y-82210000I250000J0D01*
G01*
X140300000Y-82210000D01*
G75*
G02*
X140550000Y-82460000I0J-250000D01*
G01*
X140550000Y-83910000D01*
G75*
G02*
X140300000Y-84160000I-250000J0D01*
G01*
X139100000Y-84160000D01*
G75*
G02*
X138850000Y-83910000I0J250000D01*
G01*
G37*
D22*
X142200000Y-83185000D03*
X144700000Y-83185000D03*
%TD*%
D14*
%TO.C,J11*%
X144740000Y-112395000D03*
G36*
G01*
X141390000Y-113145000D02*
X141390000Y-111645000D01*
G75*
G02*
X141640000Y-111395000I250000J0D01*
G01*
X142840000Y-111395000D01*
G75*
G02*
X143090000Y-111645000I0J-250000D01*
G01*
X143090000Y-113145000D01*
G75*
G02*
X142840000Y-113395000I-250000J0D01*
G01*
X141640000Y-113395000D01*
G75*
G02*
X141390000Y-113145000I0J250000D01*
G01*
G37*
%TD*%
D22*
%TO.C,J10*%
X144700000Y-105410000D03*
X142200000Y-105410000D03*
G36*
G01*
X138850000Y-106135000D02*
X138850000Y-104685000D01*
G75*
G02*
X139100000Y-104435000I250000J0D01*
G01*
X140300000Y-104435000D01*
G75*
G02*
X140550000Y-104685000I0J-250000D01*
G01*
X140550000Y-106135000D01*
G75*
G02*
X140300000Y-106385000I-250000J0D01*
G01*
X139100000Y-106385000D01*
G75*
G02*
X138850000Y-106135000I0J250000D01*
G01*
G37*
%TD*%
%TO.C,J8*%
X144700000Y-127635000D03*
X142200000Y-127635000D03*
G36*
G01*
X138850000Y-128360000D02*
X138850000Y-126910000D01*
G75*
G02*
X139100000Y-126660000I250000J0D01*
G01*
X140300000Y-126660000D01*
G75*
G02*
X140550000Y-126910000I0J-250000D01*
G01*
X140550000Y-128360000D01*
G75*
G02*
X140300000Y-128610000I-250000J0D01*
G01*
X139100000Y-128610000D01*
G75*
G02*
X138850000Y-128360000I0J250000D01*
G01*
G37*
%TD*%
D17*
%TO.C,J1*%
X180975000Y-82630000D03*
X180975000Y-85130000D03*
X180975000Y-87630000D03*
G36*
G01*
X181700000Y-90980000D02*
X180250000Y-90980000D01*
G75*
G02*
X180000000Y-90730000I0J250000D01*
G01*
X180000000Y-89530000D01*
G75*
G02*
X180250000Y-89280000I250000J0D01*
G01*
X181700000Y-89280000D01*
G75*
G02*
X181950000Y-89530000I0J-250000D01*
G01*
X181950000Y-90730000D01*
G75*
G02*
X181700000Y-90980000I-250000J0D01*
G01*
G37*
%TD*%
D19*
%TO.C,J7*%
X168910000Y-89535000D03*
D18*
X163830000Y-89535000D03*
%TD*%
D19*
%TO.C,J6*%
X157480000Y-89535000D03*
D18*
X152400000Y-89535000D03*
%TD*%
%TO.C,J5*%
X163830000Y-111760000D03*
D19*
X168910000Y-111760000D03*
%TD*%
D18*
%TO.C,J4*%
X152400000Y-111760000D03*
D19*
X157480000Y-111760000D03*
%TD*%
D18*
%TO.C,J3*%
X163830000Y-133985000D03*
D19*
X168910000Y-133985000D03*
%TD*%
D15*
%TO.C,JP0*%
X133350000Y-133985000D03*
X133350000Y-136525000D03*
X130810000Y-133985000D03*
X130810000Y-136525000D03*
X128270000Y-133985000D03*
D16*
X128270000Y-136525000D03*
%TD*%
D15*
%TO.C,JP1*%
X133350000Y-114300000D03*
X130810000Y-114300000D03*
D16*
X128270000Y-114300000D03*
%TD*%
%TO.C,JP2*%
X128270000Y-92075000D03*
D15*
X130810000Y-92075000D03*
X133350000Y-92075000D03*
%TD*%
M02*
