%TF.GenerationSoftware,KiCad,Pcbnew,(5.1.9)-1*%
%TF.CreationDate,2021-02-17T21:12:08+00:00*%
%TF.ProjectId,switcherv0,73776974-6368-4657-9276-302e6b696361,rev?*%
%TF.SameCoordinates,Original*%
%TF.FileFunction,Legend,Top*%
%TF.FilePolarity,Positive*%
%FSLAX46Y46*%
G04 Gerber Fmt 4.6, Leading zero omitted, Abs format (unit mm)*
G04 Created by KiCad (PCBNEW (5.1.9)-1) date 2021-02-17 21:12:08*
%MOMM*%
%LPD*%
G01*
G04 APERTURE LIST*
%ADD10C,0.400000*%
%ADD11C,0.150000*%
%ADD12C,0.500000*%
%ADD13C,0.300000*%
%ADD14C,0.120000*%
%ADD15C,0.250000*%
%ADD16C,0.200000*%
%ADD17C,0.100000*%
%ADD18C,0.254000*%
%ADD19C,3.600000*%
%ADD20C,5.600000*%
%ADD21R,2.200000X2.500000*%
%ADD22R,0.600000X1.800000*%
%ADD23O,1.700000X2.000000*%
%ADD24O,1.700000X1.700000*%
%ADD25R,1.700000X1.700000*%
%ADD26R,1.550000X2.200000*%
%ADD27R,2.200000X1.550000*%
%ADD28R,0.650000X1.200000*%
%ADD29O,1.950000X1.700000*%
%ADD30R,6.200000X5.600000*%
%ADD31R,2.100000X1.000000*%
%ADD32C,2.475000*%
%ADD33R,2.475000X2.475000*%
%ADD34O,1.000000X1.000000*%
%ADD35R,1.000000X1.000000*%
%ADD36O,1.700000X1.950000*%
G04 APERTURE END LIST*
D10*
X126228095Y-74830952D02*
X127656666Y-74830952D01*
X126942380Y-77330952D02*
X126942380Y-74830952D01*
X128966190Y-74830952D02*
X129442380Y-74830952D01*
X129680476Y-74950000D01*
X129918571Y-75188095D01*
X130037619Y-75664285D01*
X130037619Y-76497619D01*
X129918571Y-76973809D01*
X129680476Y-77211904D01*
X129442380Y-77330952D01*
X128966190Y-77330952D01*
X128728095Y-77211904D01*
X128490000Y-76973809D01*
X128370952Y-76497619D01*
X128370952Y-75664285D01*
X128490000Y-75188095D01*
X128728095Y-74950000D01*
X128966190Y-74830952D01*
X131585238Y-74830952D02*
X132061428Y-74830952D01*
X132299523Y-74950000D01*
X132537619Y-75188095D01*
X132656666Y-75664285D01*
X132656666Y-76497619D01*
X132537619Y-76973809D01*
X132299523Y-77211904D01*
X132061428Y-77330952D01*
X131585238Y-77330952D01*
X131347142Y-77211904D01*
X131109047Y-76973809D01*
X130990000Y-76497619D01*
X130990000Y-75664285D01*
X131109047Y-75188095D01*
X131347142Y-74950000D01*
X131585238Y-74830952D01*
X134918571Y-77330952D02*
X133728095Y-77330952D01*
X133728095Y-74830952D01*
X137537619Y-75069047D02*
X137656666Y-74950000D01*
X137894761Y-74830952D01*
X138490000Y-74830952D01*
X138728095Y-74950000D01*
X138847142Y-75069047D01*
X138966190Y-75307142D01*
X138966190Y-75545238D01*
X138847142Y-75902380D01*
X137418571Y-77330952D01*
X138966190Y-77330952D01*
D11*
X116227142Y-64152214D02*
X115027142Y-64552214D01*
X116227142Y-64952214D01*
X115027142Y-65352214D02*
X116227142Y-65352214D01*
X116227142Y-65637928D01*
X116170000Y-65809357D01*
X116055714Y-65923642D01*
X115941428Y-65980785D01*
X115712857Y-66037928D01*
X115541428Y-66037928D01*
X115312857Y-65980785D01*
X115198571Y-65923642D01*
X115084285Y-65809357D01*
X115027142Y-65637928D01*
X115027142Y-65352214D01*
X115141428Y-67237928D02*
X115084285Y-67180785D01*
X115027142Y-67009357D01*
X115027142Y-66895071D01*
X115084285Y-66723642D01*
X115198571Y-66609357D01*
X115312857Y-66552214D01*
X115541428Y-66495071D01*
X115712857Y-66495071D01*
X115941428Y-66552214D01*
X116055714Y-66609357D01*
X116170000Y-66723642D01*
X116227142Y-66895071D01*
X116227142Y-67009357D01*
X116170000Y-67180785D01*
X116112857Y-67237928D01*
X114322142Y-66152214D02*
X114322142Y-65580785D01*
X113750714Y-65523642D01*
X113807857Y-65580785D01*
X113865000Y-65695071D01*
X113865000Y-65980785D01*
X113807857Y-66095071D01*
X113750714Y-66152214D01*
X113636428Y-66209357D01*
X113350714Y-66209357D01*
X113236428Y-66152214D01*
X113179285Y-66095071D01*
X113122142Y-65980785D01*
X113122142Y-65695071D01*
X113179285Y-65580785D01*
X113236428Y-65523642D01*
X114322142Y-66552214D02*
X113122142Y-66952214D01*
X114322142Y-67352214D01*
X112302857Y-64380785D02*
X112360000Y-64437928D01*
X112417142Y-64552214D01*
X112417142Y-64837928D01*
X112360000Y-64952214D01*
X112302857Y-65009357D01*
X112188571Y-65066500D01*
X112074285Y-65066500D01*
X111902857Y-65009357D01*
X111217142Y-64323642D01*
X111217142Y-65066500D01*
X112017142Y-66095071D02*
X111217142Y-66095071D01*
X112474285Y-65809357D02*
X111617142Y-65523642D01*
X111617142Y-66266500D01*
X112417142Y-66552214D02*
X111217142Y-66952214D01*
X112417142Y-67352214D01*
X110385142Y-64666500D02*
X110385142Y-64895071D01*
X110328000Y-65009357D01*
X110213714Y-65123642D01*
X109985142Y-65180785D01*
X109585142Y-65180785D01*
X109356571Y-65123642D01*
X109242285Y-65009357D01*
X109185142Y-64895071D01*
X109185142Y-64666500D01*
X109242285Y-64552214D01*
X109356571Y-64437928D01*
X109585142Y-64380785D01*
X109985142Y-64380785D01*
X110213714Y-64437928D01*
X110328000Y-64552214D01*
X110385142Y-64666500D01*
X109813714Y-66095071D02*
X109813714Y-65695071D01*
X109185142Y-65695071D02*
X110385142Y-65695071D01*
X110385142Y-66266500D01*
X109813714Y-67123642D02*
X109813714Y-66723642D01*
X109185142Y-66723642D02*
X110385142Y-66723642D01*
X110385142Y-67295071D01*
X107750000Y-62840000D02*
X107750000Y-63411428D01*
X107407142Y-62725714D02*
X108607142Y-63125714D01*
X107407142Y-63525714D01*
X108607142Y-63925714D02*
X107635714Y-63925714D01*
X107521428Y-63982857D01*
X107464285Y-64040000D01*
X107407142Y-64154285D01*
X107407142Y-64382857D01*
X107464285Y-64497142D01*
X107521428Y-64554285D01*
X107635714Y-64611428D01*
X108607142Y-64611428D01*
X108607142Y-65068571D02*
X107407142Y-65868571D01*
X108607142Y-65868571D02*
X107407142Y-65068571D01*
X108607142Y-67068571D02*
X107407142Y-67468571D01*
X108607142Y-67868571D01*
X107864285Y-68268571D02*
X107864285Y-69182857D01*
X107407142Y-68725714D02*
X108321428Y-68725714D01*
X116587857Y-89108595D02*
X117587857Y-89108595D01*
X117587857Y-89346690D01*
X117540238Y-89489547D01*
X117444999Y-89584785D01*
X117349761Y-89632404D01*
X117159285Y-89680023D01*
X117016428Y-89680023D01*
X116825952Y-89632404D01*
X116730714Y-89584785D01*
X116635476Y-89489547D01*
X116587857Y-89346690D01*
X116587857Y-89108595D01*
X117587857Y-90299071D02*
X117587857Y-90489547D01*
X117540238Y-90584785D01*
X117444999Y-90680023D01*
X117254523Y-90727642D01*
X116921190Y-90727642D01*
X116730714Y-90680023D01*
X116635476Y-90584785D01*
X116587857Y-90489547D01*
X116587857Y-90299071D01*
X116635476Y-90203833D01*
X116730714Y-90108595D01*
X116921190Y-90060976D01*
X117254523Y-90060976D01*
X117444999Y-90108595D01*
X117540238Y-90203833D01*
X117587857Y-90299071D01*
X116683095Y-91727642D02*
X116635476Y-91680023D01*
X116587857Y-91537166D01*
X116587857Y-91441928D01*
X116635476Y-91299071D01*
X116730714Y-91203833D01*
X116825952Y-91156214D01*
X117016428Y-91108595D01*
X117159285Y-91108595D01*
X117349761Y-91156214D01*
X117444999Y-91203833D01*
X117540238Y-91299071D01*
X117587857Y-91441928D01*
X117587857Y-91537166D01*
X117540238Y-91680023D01*
X117492618Y-91727642D01*
X116587857Y-92156214D02*
X117587857Y-92156214D01*
X116587857Y-92727642D02*
X117159285Y-92299071D01*
X117587857Y-92727642D02*
X117016428Y-92156214D01*
X116683095Y-94489547D02*
X116635476Y-94441928D01*
X116587857Y-94299071D01*
X116587857Y-94203833D01*
X116635476Y-94060976D01*
X116730714Y-93965738D01*
X116825952Y-93918119D01*
X117016428Y-93870500D01*
X117159285Y-93870500D01*
X117349761Y-93918119D01*
X117444999Y-93965738D01*
X117540238Y-94060976D01*
X117587857Y-94203833D01*
X117587857Y-94299071D01*
X117540238Y-94441928D01*
X117492618Y-94489547D01*
X117587857Y-95108595D02*
X117587857Y-95299071D01*
X117540238Y-95394309D01*
X117444999Y-95489547D01*
X117254523Y-95537166D01*
X116921190Y-95537166D01*
X116730714Y-95489547D01*
X116635476Y-95394309D01*
X116587857Y-95299071D01*
X116587857Y-95108595D01*
X116635476Y-95013357D01*
X116730714Y-94918119D01*
X116921190Y-94870500D01*
X117254523Y-94870500D01*
X117444999Y-94918119D01*
X117540238Y-95013357D01*
X117587857Y-95108595D01*
X116587857Y-95965738D02*
X117587857Y-95965738D01*
X116587857Y-96537166D01*
X117587857Y-96537166D01*
D12*
X113919000Y-69215000D02*
G75*
G03*
X113919000Y-69215000I-254000J0D01*
G01*
D11*
X118110000Y-73660000D02*
X172085000Y-73660000D01*
D13*
X131893571Y-88697142D02*
X131893571Y-88411428D01*
X131965000Y-88268571D01*
X132107857Y-88125714D01*
X132393571Y-88054285D01*
X132893571Y-88054285D01*
X133179285Y-88125714D01*
X133322142Y-88268571D01*
X133393571Y-88411428D01*
X133393571Y-88697142D01*
X133322142Y-88840000D01*
X133179285Y-88982857D01*
X132893571Y-89054285D01*
X132393571Y-89054285D01*
X132107857Y-88982857D01*
X131965000Y-88840000D01*
X131893571Y-88697142D01*
X132607857Y-86911428D02*
X132607857Y-87411428D01*
X133393571Y-87411428D02*
X131893571Y-87411428D01*
X131893571Y-86697142D01*
X132607857Y-85625714D02*
X132607857Y-86125714D01*
X133393571Y-86125714D02*
X131893571Y-86125714D01*
X131893571Y-85411428D01*
X130142142Y-89054285D02*
X130213571Y-88840000D01*
X130213571Y-88482857D01*
X130142142Y-88340000D01*
X130070714Y-88268571D01*
X129927857Y-88197142D01*
X129785000Y-88197142D01*
X129642142Y-88268571D01*
X129570714Y-88340000D01*
X129499285Y-88482857D01*
X129427857Y-88768571D01*
X129356428Y-88911428D01*
X129285000Y-88982857D01*
X129142142Y-89054285D01*
X128999285Y-89054285D01*
X128856428Y-88982857D01*
X128785000Y-88911428D01*
X128713571Y-88768571D01*
X128713571Y-88411428D01*
X128785000Y-88197142D01*
X128713571Y-87697142D02*
X130213571Y-87340000D01*
X129142142Y-87054285D01*
X130213571Y-86768571D01*
X128713571Y-86411428D01*
D11*
X118110000Y-95885000D02*
X172085000Y-95885000D01*
D14*
X109855000Y-101727000D02*
X107950000Y-101727000D01*
X107950000Y-101727000D02*
X107950000Y-116332000D01*
X107950000Y-116332000D02*
X109855000Y-116332000D01*
X107950000Y-86106000D02*
X107950000Y-100711000D01*
X109855000Y-86106000D02*
X107950000Y-86106000D01*
X107950000Y-100711000D02*
X109855000Y-100711000D01*
X107950000Y-85090000D02*
X109855000Y-85090000D01*
X107950000Y-70485000D02*
X107950000Y-85090000D01*
X109855000Y-70485000D02*
X107950000Y-70485000D01*
D13*
X115570000Y-67945000D02*
X115570000Y-69469000D01*
X113665000Y-67945000D02*
X113665000Y-69469000D01*
X111760000Y-67945000D02*
X111760000Y-69469000D01*
X109855000Y-67945000D02*
X109855000Y-69469000D01*
D12*
X112014000Y-69215000D02*
G75*
G03*
X112014000Y-69215000I-254000J0D01*
G01*
X110109000Y-69215000D02*
G75*
G03*
X110109000Y-69215000I-254000J0D01*
G01*
X115824000Y-69215000D02*
G75*
G03*
X115824000Y-69215000I-254000J0D01*
G01*
X115824000Y-67945000D02*
G75*
G03*
X115824000Y-67945000I-254000J0D01*
G01*
X113919000Y-67945000D02*
G75*
G03*
X113919000Y-67945000I-254000J0D01*
G01*
X112014000Y-67945000D02*
G75*
G03*
X112014000Y-67945000I-254000J0D01*
G01*
X110109000Y-67945000D02*
G75*
G03*
X110109000Y-67945000I-254000J0D01*
G01*
D13*
X134040714Y-69737857D02*
X133540714Y-69737857D01*
X133540714Y-70523571D02*
X133540714Y-69023571D01*
X134255000Y-69023571D01*
X134755000Y-70095000D02*
X135469285Y-70095000D01*
X134612142Y-70523571D02*
X135112142Y-69023571D01*
X135612142Y-70523571D01*
X136112142Y-70523571D02*
X136112142Y-69023571D01*
X136969285Y-70523571D01*
X136969285Y-69023571D01*
X131469285Y-72287857D02*
X131969285Y-72287857D01*
X132183571Y-73073571D02*
X131469285Y-73073571D01*
X131469285Y-71573571D01*
X132183571Y-71573571D01*
X132826428Y-73073571D02*
X132826428Y-71573571D01*
X133683571Y-73073571D01*
X133683571Y-71573571D01*
X134326428Y-72645000D02*
X135040714Y-72645000D01*
X134183571Y-73073571D02*
X134683571Y-71573571D01*
X135183571Y-73073571D01*
X136183571Y-72287857D02*
X136397857Y-72359285D01*
X136469285Y-72430714D01*
X136540714Y-72573571D01*
X136540714Y-72787857D01*
X136469285Y-72930714D01*
X136397857Y-73002142D01*
X136255000Y-73073571D01*
X135683571Y-73073571D01*
X135683571Y-71573571D01*
X136183571Y-71573571D01*
X136326428Y-71645000D01*
X136397857Y-71716428D01*
X136469285Y-71859285D01*
X136469285Y-72002142D01*
X136397857Y-72145000D01*
X136326428Y-72216428D01*
X136183571Y-72287857D01*
X135683571Y-72287857D01*
X137897857Y-73073571D02*
X137183571Y-73073571D01*
X137183571Y-71573571D01*
X138397857Y-72287857D02*
X138897857Y-72287857D01*
X139112142Y-73073571D02*
X138397857Y-73073571D01*
X138397857Y-71573571D01*
X139112142Y-71573571D01*
D10*
X126228095Y-119280952D02*
X127656666Y-119280952D01*
X126942380Y-121780952D02*
X126942380Y-119280952D01*
X128966190Y-119280952D02*
X129442380Y-119280952D01*
X129680476Y-119400000D01*
X129918571Y-119638095D01*
X130037619Y-120114285D01*
X130037619Y-120947619D01*
X129918571Y-121423809D01*
X129680476Y-121661904D01*
X129442380Y-121780952D01*
X128966190Y-121780952D01*
X128728095Y-121661904D01*
X128490000Y-121423809D01*
X128370952Y-120947619D01*
X128370952Y-120114285D01*
X128490000Y-119638095D01*
X128728095Y-119400000D01*
X128966190Y-119280952D01*
X131585238Y-119280952D02*
X132061428Y-119280952D01*
X132299523Y-119400000D01*
X132537619Y-119638095D01*
X132656666Y-120114285D01*
X132656666Y-120947619D01*
X132537619Y-121423809D01*
X132299523Y-121661904D01*
X132061428Y-121780952D01*
X131585238Y-121780952D01*
X131347142Y-121661904D01*
X131109047Y-121423809D01*
X130990000Y-120947619D01*
X130990000Y-120114285D01*
X131109047Y-119638095D01*
X131347142Y-119400000D01*
X131585238Y-119280952D01*
X134918571Y-121780952D02*
X133728095Y-121780952D01*
X133728095Y-119280952D01*
X138132857Y-119280952D02*
X138370952Y-119280952D01*
X138609047Y-119400000D01*
X138728095Y-119519047D01*
X138847142Y-119757142D01*
X138966190Y-120233333D01*
X138966190Y-120828571D01*
X138847142Y-121304761D01*
X138728095Y-121542857D01*
X138609047Y-121661904D01*
X138370952Y-121780952D01*
X138132857Y-121780952D01*
X137894761Y-121661904D01*
X137775714Y-121542857D01*
X137656666Y-121304761D01*
X137537619Y-120828571D01*
X137537619Y-120233333D01*
X137656666Y-119757142D01*
X137775714Y-119519047D01*
X137894761Y-119400000D01*
X138132857Y-119280952D01*
D14*
X118110000Y-95885000D02*
X118110000Y-73660000D01*
X118110000Y-118110000D02*
X118110000Y-95885000D01*
X118110000Y-118110000D02*
X118110000Y-140335000D01*
D13*
X132655571Y-64567142D02*
X132655571Y-64281428D01*
X132727000Y-64138571D01*
X132869857Y-63995714D01*
X133155571Y-63924285D01*
X133655571Y-63924285D01*
X133941285Y-63995714D01*
X134084142Y-64138571D01*
X134155571Y-64281428D01*
X134155571Y-64567142D01*
X134084142Y-64710000D01*
X133941285Y-64852857D01*
X133655571Y-64924285D01*
X133155571Y-64924285D01*
X132869857Y-64852857D01*
X132727000Y-64710000D01*
X132655571Y-64567142D01*
X134155571Y-63281428D02*
X132655571Y-63281428D01*
X134155571Y-62424285D01*
X132655571Y-62424285D01*
X136465571Y-64567142D02*
X136465571Y-64281428D01*
X136537000Y-64138571D01*
X136679857Y-63995714D01*
X136965571Y-63924285D01*
X137465571Y-63924285D01*
X137751285Y-63995714D01*
X137894142Y-64138571D01*
X137965571Y-64281428D01*
X137965571Y-64567142D01*
X137894142Y-64710000D01*
X137751285Y-64852857D01*
X137465571Y-64924285D01*
X136965571Y-64924285D01*
X136679857Y-64852857D01*
X136537000Y-64710000D01*
X136465571Y-64567142D01*
X137179857Y-62781428D02*
X137179857Y-63281428D01*
X137965571Y-63281428D02*
X136465571Y-63281428D01*
X136465571Y-62567142D01*
X137179857Y-61495714D02*
X137179857Y-61995714D01*
X137965571Y-61995714D02*
X136465571Y-61995714D01*
X136465571Y-61281428D01*
D11*
X119727500Y-60175714D02*
X119898928Y-60232857D01*
X120184642Y-60232857D01*
X120298928Y-60175714D01*
X120356071Y-60118571D01*
X120413214Y-60004285D01*
X120413214Y-59890000D01*
X120356071Y-59775714D01*
X120298928Y-59718571D01*
X120184642Y-59661428D01*
X119956071Y-59604285D01*
X119841785Y-59547142D01*
X119784642Y-59490000D01*
X119727500Y-59375714D01*
X119727500Y-59261428D01*
X119784642Y-59147142D01*
X119841785Y-59090000D01*
X119956071Y-59032857D01*
X120241785Y-59032857D01*
X120413214Y-59090000D01*
X121784642Y-58975714D02*
X120756071Y-60518571D01*
X122184642Y-60232857D02*
X122184642Y-59032857D01*
X122870357Y-60232857D01*
X122870357Y-59032857D01*
X123441785Y-60118571D02*
X123498928Y-60175714D01*
X123441785Y-60232857D01*
X123384642Y-60175714D01*
X123441785Y-60118571D01*
X123441785Y-60232857D01*
X123441785Y-59490000D02*
X123498928Y-59547142D01*
X123441785Y-59604285D01*
X123384642Y-59547142D01*
X123441785Y-59490000D01*
X123441785Y-59604285D01*
X118110000Y-118110000D02*
X172085000Y-118110000D01*
X118110000Y-140335000D02*
X172720000Y-140312000D01*
D13*
X179499761Y-118359523D02*
X179499761Y-117216666D01*
X181499761Y-117788095D02*
X179499761Y-117788095D01*
X179499761Y-116169047D02*
X179499761Y-115788095D01*
X179595000Y-115597619D01*
X179785476Y-115407142D01*
X180166428Y-115311904D01*
X180833095Y-115311904D01*
X181214047Y-115407142D01*
X181404523Y-115597619D01*
X181499761Y-115788095D01*
X181499761Y-116169047D01*
X181404523Y-116359523D01*
X181214047Y-116550000D01*
X180833095Y-116645238D01*
X180166428Y-116645238D01*
X179785476Y-116550000D01*
X179595000Y-116359523D01*
X179499761Y-116169047D01*
X179499761Y-114073809D02*
X179499761Y-113692857D01*
X179595000Y-113502380D01*
X179785476Y-113311904D01*
X180166428Y-113216666D01*
X180833095Y-113216666D01*
X181214047Y-113311904D01*
X181404523Y-113502380D01*
X181499761Y-113692857D01*
X181499761Y-114073809D01*
X181404523Y-114264285D01*
X181214047Y-114454761D01*
X180833095Y-114550000D01*
X180166428Y-114550000D01*
X179785476Y-114454761D01*
X179595000Y-114264285D01*
X179499761Y-114073809D01*
X181499761Y-111407142D02*
X181499761Y-112359523D01*
X179499761Y-112359523D01*
X181404523Y-109311904D02*
X181499761Y-109026190D01*
X181499761Y-108550000D01*
X181404523Y-108359523D01*
X181309285Y-108264285D01*
X181118809Y-108169047D01*
X180928333Y-108169047D01*
X180737857Y-108264285D01*
X180642619Y-108359523D01*
X180547380Y-108550000D01*
X180452142Y-108930952D01*
X180356904Y-109121428D01*
X180261666Y-109216666D01*
X180071190Y-109311904D01*
X179880714Y-109311904D01*
X179690238Y-109216666D01*
X179595000Y-109121428D01*
X179499761Y-108930952D01*
X179499761Y-108454761D01*
X179595000Y-108169047D01*
X179499761Y-107502380D02*
X181499761Y-107026190D01*
X180071190Y-106645238D01*
X181499761Y-106264285D01*
X179499761Y-105788095D01*
X181499761Y-105026190D02*
X179499761Y-105026190D01*
X179499761Y-104359523D02*
X179499761Y-103216666D01*
X181499761Y-103788095D02*
X179499761Y-103788095D01*
X181309285Y-101407142D02*
X181404523Y-101502380D01*
X181499761Y-101788095D01*
X181499761Y-101978571D01*
X181404523Y-102264285D01*
X181214047Y-102454761D01*
X181023571Y-102550000D01*
X180642619Y-102645238D01*
X180356904Y-102645238D01*
X179975952Y-102550000D01*
X179785476Y-102454761D01*
X179595000Y-102264285D01*
X179499761Y-101978571D01*
X179499761Y-101788095D01*
X179595000Y-101502380D01*
X179690238Y-101407142D01*
X181499761Y-100550000D02*
X179499761Y-100550000D01*
X180452142Y-100550000D02*
X180452142Y-99407142D01*
X181499761Y-99407142D02*
X179499761Y-99407142D01*
X180452142Y-98454761D02*
X180452142Y-97788095D01*
X181499761Y-97502380D02*
X181499761Y-98454761D01*
X179499761Y-98454761D01*
X179499761Y-97502380D01*
X181499761Y-95502380D02*
X180547380Y-96169047D01*
X181499761Y-96645238D02*
X179499761Y-96645238D01*
X179499761Y-95883333D01*
X179595000Y-95692857D01*
X179690238Y-95597619D01*
X179880714Y-95502380D01*
X180166428Y-95502380D01*
X180356904Y-95597619D01*
X180452142Y-95692857D01*
X180547380Y-95883333D01*
X180547380Y-96645238D01*
X184799761Y-118073809D02*
X182799761Y-118073809D01*
X182799761Y-117597619D01*
X182895000Y-117311904D01*
X183085476Y-117121428D01*
X183275952Y-117026190D01*
X183656904Y-116930952D01*
X183942619Y-116930952D01*
X184323571Y-117026190D01*
X184514047Y-117121428D01*
X184704523Y-117311904D01*
X184799761Y-117597619D01*
X184799761Y-118073809D01*
X184799761Y-116073809D02*
X182799761Y-116073809D01*
X184704523Y-115216666D02*
X184799761Y-114930952D01*
X184799761Y-114454761D01*
X184704523Y-114264285D01*
X184609285Y-114169047D01*
X184418809Y-114073809D01*
X184228333Y-114073809D01*
X184037857Y-114169047D01*
X183942619Y-114264285D01*
X183847380Y-114454761D01*
X183752142Y-114835714D01*
X183656904Y-115026190D01*
X183561666Y-115121428D01*
X183371190Y-115216666D01*
X183180714Y-115216666D01*
X182990238Y-115121428D01*
X182895000Y-115026190D01*
X182799761Y-114835714D01*
X182799761Y-114359523D01*
X182895000Y-114073809D01*
X182799761Y-113502380D02*
X182799761Y-112359523D01*
X184799761Y-112930952D02*
X182799761Y-112930952D01*
X184799761Y-110550000D02*
X183847380Y-111216666D01*
X184799761Y-111692857D02*
X182799761Y-111692857D01*
X182799761Y-110930952D01*
X182895000Y-110740476D01*
X182990238Y-110645238D01*
X183180714Y-110550000D01*
X183466428Y-110550000D01*
X183656904Y-110645238D01*
X183752142Y-110740476D01*
X183847380Y-110930952D01*
X183847380Y-111692857D01*
X182799761Y-109311904D02*
X182799761Y-108930952D01*
X182895000Y-108740476D01*
X183085476Y-108550000D01*
X183466428Y-108454761D01*
X184133095Y-108454761D01*
X184514047Y-108550000D01*
X184704523Y-108740476D01*
X184799761Y-108930952D01*
X184799761Y-109311904D01*
X184704523Y-109502380D01*
X184514047Y-109692857D01*
X184133095Y-109788095D01*
X183466428Y-109788095D01*
X183085476Y-109692857D01*
X182895000Y-109502380D01*
X182799761Y-109311904D01*
X183752142Y-105407142D02*
X183847380Y-105121428D01*
X183942619Y-105026190D01*
X184133095Y-104930952D01*
X184418809Y-104930952D01*
X184609285Y-105026190D01*
X184704523Y-105121428D01*
X184799761Y-105311904D01*
X184799761Y-106073809D01*
X182799761Y-106073809D01*
X182799761Y-105407142D01*
X182895000Y-105216666D01*
X182990238Y-105121428D01*
X183180714Y-105026190D01*
X183371190Y-105026190D01*
X183561666Y-105121428D01*
X183656904Y-105216666D01*
X183752142Y-105407142D01*
X183752142Y-106073809D01*
X182799761Y-103692857D02*
X182799761Y-103311904D01*
X182895000Y-103121428D01*
X183085476Y-102930952D01*
X183466428Y-102835714D01*
X184133095Y-102835714D01*
X184514047Y-102930952D01*
X184704523Y-103121428D01*
X184799761Y-103311904D01*
X184799761Y-103692857D01*
X184704523Y-103883333D01*
X184514047Y-104073809D01*
X184133095Y-104169047D01*
X183466428Y-104169047D01*
X183085476Y-104073809D01*
X182895000Y-103883333D01*
X182799761Y-103692857D01*
X184228333Y-102073809D02*
X184228333Y-101121428D01*
X184799761Y-102264285D02*
X182799761Y-101597619D01*
X184799761Y-100930952D01*
X184799761Y-99121428D02*
X183847380Y-99788095D01*
X184799761Y-100264285D02*
X182799761Y-100264285D01*
X182799761Y-99502380D01*
X182895000Y-99311904D01*
X182990238Y-99216666D01*
X183180714Y-99121428D01*
X183466428Y-99121428D01*
X183656904Y-99216666D01*
X183752142Y-99311904D01*
X183847380Y-99502380D01*
X183847380Y-100264285D01*
X184799761Y-98264285D02*
X182799761Y-98264285D01*
X182799761Y-97788095D01*
X182895000Y-97502380D01*
X183085476Y-97311904D01*
X183275952Y-97216666D01*
X183656904Y-97121428D01*
X183942619Y-97121428D01*
X184323571Y-97216666D01*
X184514047Y-97311904D01*
X184704523Y-97502380D01*
X184799761Y-97788095D01*
X184799761Y-98264285D01*
D11*
X118724642Y-57064285D02*
X118896071Y-57121428D01*
X118953214Y-57178571D01*
X119010357Y-57292857D01*
X119010357Y-57464285D01*
X118953214Y-57578571D01*
X118896071Y-57635714D01*
X118781785Y-57692857D01*
X118324642Y-57692857D01*
X118324642Y-56492857D01*
X118724642Y-56492857D01*
X118838928Y-56550000D01*
X118896071Y-56607142D01*
X118953214Y-56721428D01*
X118953214Y-56835714D01*
X118896071Y-56950000D01*
X118838928Y-57007142D01*
X118724642Y-57064285D01*
X118324642Y-57064285D01*
X119467500Y-57350000D02*
X120038928Y-57350000D01*
X119353214Y-57692857D02*
X119753214Y-56492857D01*
X120153214Y-57692857D01*
X120381785Y-56492857D02*
X121067500Y-56492857D01*
X120724642Y-57692857D02*
X120724642Y-56492857D01*
X122153214Y-57578571D02*
X122096071Y-57635714D01*
X121924642Y-57692857D01*
X121810357Y-57692857D01*
X121638928Y-57635714D01*
X121524642Y-57521428D01*
X121467500Y-57407142D01*
X121410357Y-57178571D01*
X121410357Y-57007142D01*
X121467500Y-56778571D01*
X121524642Y-56664285D01*
X121638928Y-56550000D01*
X121810357Y-56492857D01*
X121924642Y-56492857D01*
X122096071Y-56550000D01*
X122153214Y-56607142D01*
X122667500Y-57692857D02*
X122667500Y-56492857D01*
X122667500Y-57064285D02*
X123353214Y-57064285D01*
X123353214Y-57692857D02*
X123353214Y-56492857D01*
X123924642Y-57578571D02*
X123981785Y-57635714D01*
X123924642Y-57692857D01*
X123867500Y-57635714D01*
X123924642Y-57578571D01*
X123924642Y-57692857D01*
X123924642Y-56950000D02*
X123981785Y-57007142D01*
X123924642Y-57064285D01*
X123867500Y-57007142D01*
X123924642Y-56950000D01*
X123924642Y-57064285D01*
X126038928Y-57692857D02*
X125353214Y-57692857D01*
X125696071Y-57692857D02*
X125696071Y-56492857D01*
X125581785Y-56664285D01*
X125467500Y-56778571D01*
X125353214Y-56835714D01*
X174827857Y-138910500D02*
X173627857Y-138910500D01*
X173627857Y-138624785D01*
X173685000Y-138453357D01*
X173799285Y-138339071D01*
X173913571Y-138281928D01*
X174142142Y-138224785D01*
X174313571Y-138224785D01*
X174542142Y-138281928D01*
X174656428Y-138339071D01*
X174770714Y-138453357D01*
X174827857Y-138624785D01*
X174827857Y-138910500D01*
X174770714Y-137253357D02*
X174827857Y-137367642D01*
X174827857Y-137596214D01*
X174770714Y-137710500D01*
X174656428Y-137767642D01*
X174199285Y-137767642D01*
X174085000Y-137710500D01*
X174027857Y-137596214D01*
X174027857Y-137367642D01*
X174085000Y-137253357D01*
X174199285Y-137196214D01*
X174313571Y-137196214D01*
X174427857Y-137767642D01*
X174770714Y-136739071D02*
X174827857Y-136624785D01*
X174827857Y-136396214D01*
X174770714Y-136281928D01*
X174656428Y-136224785D01*
X174599285Y-136224785D01*
X174485000Y-136281928D01*
X174427857Y-136396214D01*
X174427857Y-136567642D01*
X174370714Y-136681928D01*
X174256428Y-136739071D01*
X174199285Y-136739071D01*
X174085000Y-136681928D01*
X174027857Y-136567642D01*
X174027857Y-136396214D01*
X174085000Y-136281928D01*
X174827857Y-135710500D02*
X174027857Y-135710500D01*
X173627857Y-135710500D02*
X173685000Y-135767642D01*
X173742142Y-135710500D01*
X173685000Y-135653357D01*
X173627857Y-135710500D01*
X173742142Y-135710500D01*
X174027857Y-134624785D02*
X174999285Y-134624785D01*
X175113571Y-134681928D01*
X175170714Y-134739071D01*
X175227857Y-134853357D01*
X175227857Y-135024785D01*
X175170714Y-135139071D01*
X174770714Y-134624785D02*
X174827857Y-134739071D01*
X174827857Y-134967642D01*
X174770714Y-135081928D01*
X174713571Y-135139071D01*
X174599285Y-135196214D01*
X174256428Y-135196214D01*
X174142142Y-135139071D01*
X174085000Y-135081928D01*
X174027857Y-134967642D01*
X174027857Y-134739071D01*
X174085000Y-134624785D01*
X174027857Y-134053357D02*
X174827857Y-134053357D01*
X174142142Y-134053357D02*
X174085000Y-133996214D01*
X174027857Y-133881928D01*
X174027857Y-133710500D01*
X174085000Y-133596214D01*
X174199285Y-133539071D01*
X174827857Y-133539071D01*
X174770714Y-132510500D02*
X174827857Y-132624785D01*
X174827857Y-132853357D01*
X174770714Y-132967642D01*
X174656428Y-133024785D01*
X174199285Y-133024785D01*
X174085000Y-132967642D01*
X174027857Y-132853357D01*
X174027857Y-132624785D01*
X174085000Y-132510500D01*
X174199285Y-132453357D01*
X174313571Y-132453357D01*
X174427857Y-133024785D01*
X174827857Y-131939071D02*
X174027857Y-131939071D01*
X174256428Y-131939071D02*
X174142142Y-131881928D01*
X174085000Y-131824785D01*
X174027857Y-131710500D01*
X174027857Y-131596214D01*
X174713571Y-131196214D02*
X174770714Y-131139071D01*
X174827857Y-131196214D01*
X174770714Y-131253357D01*
X174713571Y-131196214D01*
X174827857Y-131196214D01*
X174085000Y-131196214D02*
X174142142Y-131139071D01*
X174199285Y-131196214D01*
X174142142Y-131253357D01*
X174085000Y-131196214D01*
X174199285Y-131196214D01*
X176777857Y-139824785D02*
X175577857Y-139824785D01*
X175577857Y-139539071D01*
X175635000Y-139367642D01*
X175749285Y-139253357D01*
X175863571Y-139196214D01*
X176092142Y-139139071D01*
X176263571Y-139139071D01*
X176492142Y-139196214D01*
X176606428Y-139253357D01*
X176720714Y-139367642D01*
X176777857Y-139539071D01*
X176777857Y-139824785D01*
X176777857Y-138110500D02*
X176149285Y-138110500D01*
X176035000Y-138167642D01*
X175977857Y-138281928D01*
X175977857Y-138510500D01*
X176035000Y-138624785D01*
X176720714Y-138110500D02*
X176777857Y-138224785D01*
X176777857Y-138510500D01*
X176720714Y-138624785D01*
X176606428Y-138681928D01*
X176492142Y-138681928D01*
X176377857Y-138624785D01*
X176320714Y-138510500D01*
X176320714Y-138224785D01*
X176263571Y-138110500D01*
X175977857Y-137653357D02*
X176777857Y-137367642D01*
X175977857Y-137081928D01*
X176720714Y-136167642D02*
X176777857Y-136281928D01*
X176777857Y-136510500D01*
X176720714Y-136624785D01*
X176606428Y-136681928D01*
X176149285Y-136681928D01*
X176035000Y-136624785D01*
X175977857Y-136510500D01*
X175977857Y-136281928D01*
X176035000Y-136167642D01*
X176149285Y-136110500D01*
X176263571Y-136110500D01*
X176377857Y-136681928D01*
X176777857Y-134681928D02*
X175577857Y-134681928D01*
X176435000Y-134281928D01*
X175577857Y-133881928D01*
X176777857Y-133881928D01*
X176777857Y-133310500D02*
X175977857Y-133310500D01*
X175577857Y-133310500D02*
X175635000Y-133367642D01*
X175692142Y-133310500D01*
X175635000Y-133253357D01*
X175577857Y-133310500D01*
X175692142Y-133310500D01*
X176777857Y-132567642D02*
X176720714Y-132681928D01*
X176606428Y-132739071D01*
X175577857Y-132739071D01*
X176777857Y-131939071D02*
X176720714Y-132053357D01*
X176606428Y-132110500D01*
X175577857Y-132110500D01*
X176720714Y-131024785D02*
X176777857Y-131139071D01*
X176777857Y-131367642D01*
X176720714Y-131481928D01*
X176606428Y-131539071D01*
X176149285Y-131539071D01*
X176035000Y-131481928D01*
X175977857Y-131367642D01*
X175977857Y-131139071D01*
X176035000Y-131024785D01*
X176149285Y-130967642D01*
X176263571Y-130967642D01*
X176377857Y-131539071D01*
X176777857Y-130453357D02*
X175977857Y-130453357D01*
X176206428Y-130453357D02*
X176092142Y-130396214D01*
X176035000Y-130339071D01*
X175977857Y-130224785D01*
X175977857Y-130110500D01*
D10*
X126228095Y-97055952D02*
X127656666Y-97055952D01*
X126942380Y-99555952D02*
X126942380Y-97055952D01*
X128966190Y-97055952D02*
X129442380Y-97055952D01*
X129680476Y-97175000D01*
X129918571Y-97413095D01*
X130037619Y-97889285D01*
X130037619Y-98722619D01*
X129918571Y-99198809D01*
X129680476Y-99436904D01*
X129442380Y-99555952D01*
X128966190Y-99555952D01*
X128728095Y-99436904D01*
X128490000Y-99198809D01*
X128370952Y-98722619D01*
X128370952Y-97889285D01*
X128490000Y-97413095D01*
X128728095Y-97175000D01*
X128966190Y-97055952D01*
X131585238Y-97055952D02*
X132061428Y-97055952D01*
X132299523Y-97175000D01*
X132537619Y-97413095D01*
X132656666Y-97889285D01*
X132656666Y-98722619D01*
X132537619Y-99198809D01*
X132299523Y-99436904D01*
X132061428Y-99555952D01*
X131585238Y-99555952D01*
X131347142Y-99436904D01*
X131109047Y-99198809D01*
X130990000Y-98722619D01*
X130990000Y-97889285D01*
X131109047Y-97413095D01*
X131347142Y-97175000D01*
X131585238Y-97055952D01*
X134918571Y-99555952D02*
X133728095Y-99555952D01*
X133728095Y-97055952D01*
X138966190Y-99555952D02*
X137537619Y-99555952D01*
X138251904Y-99555952D02*
X138251904Y-97055952D01*
X138013809Y-97413095D01*
X137775714Y-97651190D01*
X137537619Y-97770238D01*
D13*
X130142142Y-111279285D02*
X130213571Y-111065000D01*
X130213571Y-110707857D01*
X130142142Y-110565000D01*
X130070714Y-110493571D01*
X129927857Y-110422142D01*
X129785000Y-110422142D01*
X129642142Y-110493571D01*
X129570714Y-110565000D01*
X129499285Y-110707857D01*
X129427857Y-110993571D01*
X129356428Y-111136428D01*
X129285000Y-111207857D01*
X129142142Y-111279285D01*
X128999285Y-111279285D01*
X128856428Y-111207857D01*
X128785000Y-111136428D01*
X128713571Y-110993571D01*
X128713571Y-110636428D01*
X128785000Y-110422142D01*
X128713571Y-109922142D02*
X130213571Y-109565000D01*
X129142142Y-109279285D01*
X130213571Y-108993571D01*
X128713571Y-108636428D01*
X131893571Y-110922142D02*
X131893571Y-110636428D01*
X131965000Y-110493571D01*
X132107857Y-110350714D01*
X132393571Y-110279285D01*
X132893571Y-110279285D01*
X133179285Y-110350714D01*
X133322142Y-110493571D01*
X133393571Y-110636428D01*
X133393571Y-110922142D01*
X133322142Y-111065000D01*
X133179285Y-111207857D01*
X132893571Y-111279285D01*
X132393571Y-111279285D01*
X132107857Y-111207857D01*
X131965000Y-111065000D01*
X131893571Y-110922142D01*
X132607857Y-109136428D02*
X132607857Y-109636428D01*
X133393571Y-109636428D02*
X131893571Y-109636428D01*
X131893571Y-108922142D01*
X132607857Y-107850714D02*
X132607857Y-108350714D01*
X133393571Y-108350714D02*
X131893571Y-108350714D01*
X131893571Y-107636428D01*
X127448571Y-131242142D02*
X127448571Y-130956428D01*
X127520000Y-130813571D01*
X127662857Y-130670714D01*
X127948571Y-130599285D01*
X128448571Y-130599285D01*
X128734285Y-130670714D01*
X128877142Y-130813571D01*
X128948571Y-130956428D01*
X128948571Y-131242142D01*
X128877142Y-131385000D01*
X128734285Y-131527857D01*
X128448571Y-131599285D01*
X127948571Y-131599285D01*
X127662857Y-131527857D01*
X127520000Y-131385000D01*
X127448571Y-131242142D01*
X128948571Y-129956428D02*
X127448571Y-129956428D01*
X128948571Y-129099285D01*
X127448571Y-129099285D01*
X131412142Y-131599285D02*
X131483571Y-131385000D01*
X131483571Y-131027857D01*
X131412142Y-130885000D01*
X131340714Y-130813571D01*
X131197857Y-130742142D01*
X131055000Y-130742142D01*
X130912142Y-130813571D01*
X130840714Y-130885000D01*
X130769285Y-131027857D01*
X130697857Y-131313571D01*
X130626428Y-131456428D01*
X130555000Y-131527857D01*
X130412142Y-131599285D01*
X130269285Y-131599285D01*
X130126428Y-131527857D01*
X130055000Y-131456428D01*
X129983571Y-131313571D01*
X129983571Y-130956428D01*
X130055000Y-130742142D01*
X129983571Y-130242142D02*
X131483571Y-129885000D01*
X130412142Y-129599285D01*
X131483571Y-129313571D01*
X129983571Y-128956428D01*
X132528571Y-131242142D02*
X132528571Y-130956428D01*
X132600000Y-130813571D01*
X132742857Y-130670714D01*
X133028571Y-130599285D01*
X133528571Y-130599285D01*
X133814285Y-130670714D01*
X133957142Y-130813571D01*
X134028571Y-130956428D01*
X134028571Y-131242142D01*
X133957142Y-131385000D01*
X133814285Y-131527857D01*
X133528571Y-131599285D01*
X133028571Y-131599285D01*
X132742857Y-131527857D01*
X132600000Y-131385000D01*
X132528571Y-131242142D01*
X133242857Y-129456428D02*
X133242857Y-129956428D01*
X134028571Y-129956428D02*
X132528571Y-129956428D01*
X132528571Y-129242142D01*
X133242857Y-128170714D02*
X133242857Y-128670714D01*
X134028571Y-128670714D02*
X132528571Y-128670714D01*
X132528571Y-127956428D01*
D14*
%TO.C,U1*%
X180812440Y-126217680D02*
X181836060Y-126735840D01*
D10*
X178304500Y-124715000D02*
X182114500Y-124715000D01*
D15*
X178558500Y-126747000D02*
X178050500Y-125985000D01*
X178050500Y-125985000D02*
X178558500Y-125223000D01*
D14*
X179041100Y-126632700D02*
X179638000Y-126327900D01*
D10*
X180209500Y-124715000D02*
X180209500Y-127255000D01*
X178304500Y-127255000D02*
X182114500Y-127255000D01*
X180336500Y-119635000D02*
X185416500Y-122175000D01*
X180336500Y-131065000D02*
X185416500Y-128525000D01*
X175256500Y-122175000D02*
X180336500Y-119635000D01*
D14*
X176526500Y-127890000D02*
X177680620Y-127317500D01*
D10*
X175256500Y-128525000D02*
X180336500Y-131065000D01*
D14*
X182698700Y-127166100D02*
X184146500Y-127890000D01*
X176530000Y-127889000D02*
X176530000Y-122809000D01*
X184146500Y-122810000D02*
X184146500Y-127890000D01*
X180336500Y-124207000D02*
X180336500Y-120905000D01*
X180336500Y-120905000D02*
X184146500Y-122810000D01*
X176530000Y-122809000D02*
X180340000Y-120904000D01*
X180336500Y-129795000D02*
X184146500Y-127890000D01*
X176530000Y-127889000D02*
X180340000Y-129794000D01*
%TO.C,C6*%
X180713748Y-68480000D02*
X181236252Y-68480000D01*
X180713748Y-69950000D02*
X181236252Y-69950000D01*
%TO.C,C5*%
X172947000Y-63492748D02*
X172947000Y-64015252D01*
X171477000Y-63492748D02*
X171477000Y-64015252D01*
%TO.C,C4*%
X175795000Y-89161252D02*
X175795000Y-88638748D01*
X177265000Y-89161252D02*
X177265000Y-88638748D01*
%TO.C,C3*%
X170915000Y-63492748D02*
X170915000Y-64015252D01*
X169445000Y-63492748D02*
X169445000Y-64015252D01*
%TO.C,D2*%
X133675000Y-81870000D02*
X133675000Y-79010000D01*
X131755000Y-81870000D02*
X133675000Y-81870000D01*
X131755000Y-79010000D02*
X131755000Y-81870000D01*
%TO.C,D1*%
X133675000Y-104095000D02*
X133675000Y-101235000D01*
X131755000Y-104095000D02*
X133675000Y-104095000D01*
X131755000Y-101235000D02*
X131755000Y-104095000D01*
%TO.C,D0*%
X133675000Y-126320000D02*
X133675000Y-123460000D01*
X131755000Y-126320000D02*
X133675000Y-126320000D01*
X131755000Y-123460000D02*
X131755000Y-126320000D01*
%TO.C,R20*%
X157707064Y-83920000D02*
X157252936Y-83920000D01*
X157707064Y-82450000D02*
X157252936Y-82450000D01*
%TO.C,R19*%
X153442936Y-82450000D02*
X153897064Y-82450000D01*
X153442936Y-83920000D02*
X153897064Y-83920000D01*
%TO.C,R18*%
X149632936Y-82450000D02*
X150087064Y-82450000D01*
X149632936Y-83920000D02*
X150087064Y-83920000D01*
%TO.C,R17*%
X146277064Y-78205000D02*
X145822936Y-78205000D01*
X146277064Y-76735000D02*
X145822936Y-76735000D01*
%TO.C,R16*%
X142467064Y-78205000D02*
X142012936Y-78205000D01*
X142467064Y-76735000D02*
X142012936Y-76735000D01*
%TO.C,R15*%
X136297936Y-78005000D02*
X136752064Y-78005000D01*
X136297936Y-79475000D02*
X136752064Y-79475000D01*
%TO.C,R14*%
X128170000Y-80237064D02*
X128170000Y-79782936D01*
X129640000Y-80237064D02*
X129640000Y-79782936D01*
%TO.C,R13*%
X157707064Y-106145000D02*
X157252936Y-106145000D01*
X157707064Y-104675000D02*
X157252936Y-104675000D01*
%TO.C,R12*%
X153442936Y-104675000D02*
X153897064Y-104675000D01*
X153442936Y-106145000D02*
X153897064Y-106145000D01*
%TO.C,R11*%
X149632936Y-104675000D02*
X150087064Y-104675000D01*
X149632936Y-106145000D02*
X150087064Y-106145000D01*
%TO.C,R10*%
X146277064Y-100430000D02*
X145822936Y-100430000D01*
X146277064Y-98960000D02*
X145822936Y-98960000D01*
%TO.C,R9*%
X142467064Y-100430000D02*
X142012936Y-100430000D01*
X142467064Y-98960000D02*
X142012936Y-98960000D01*
%TO.C,R8*%
X136297936Y-100230000D02*
X136752064Y-100230000D01*
X136297936Y-101700000D02*
X136752064Y-101700000D01*
%TO.C,R7*%
X128170000Y-102462064D02*
X128170000Y-102007936D01*
X129640000Y-102462064D02*
X129640000Y-102007936D01*
%TO.C,R6*%
X157707064Y-128370000D02*
X157252936Y-128370000D01*
X157707064Y-126900000D02*
X157252936Y-126900000D01*
%TO.C,R5*%
X153442936Y-126900000D02*
X153897064Y-126900000D01*
X153442936Y-128370000D02*
X153897064Y-128370000D01*
%TO.C,R4*%
X149632936Y-126900000D02*
X150087064Y-126900000D01*
X149632936Y-128370000D02*
X150087064Y-128370000D01*
%TO.C,R3*%
X146277064Y-122655000D02*
X145822936Y-122655000D01*
X146277064Y-121185000D02*
X145822936Y-121185000D01*
%TO.C,R2*%
X142467064Y-122655000D02*
X142012936Y-122655000D01*
X142467064Y-121185000D02*
X142012936Y-121185000D01*
%TO.C,R1*%
X136297936Y-122455000D02*
X136752064Y-122455000D01*
X136297936Y-123925000D02*
X136752064Y-123925000D01*
%TO.C,R0*%
X128170000Y-124687064D02*
X128170000Y-124232936D01*
X129640000Y-124687064D02*
X129640000Y-124232936D01*
D16*
%TO.C,J0*%
X163855000Y-66520000D02*
G75*
G03*
X163855000Y-66520000I-50000J0D01*
G01*
D17*
X167805000Y-58070000D02*
X167805000Y-63470000D01*
X140805000Y-58070000D02*
X167805000Y-58070000D01*
X140805000Y-63470000D02*
X140805000Y-58070000D01*
D14*
%TO.C,J9*%
X139390000Y-131870000D02*
X139390000Y-133120000D01*
X140640000Y-131870000D02*
X139390000Y-131870000D01*
X146540000Y-137370000D02*
X143490000Y-137370000D01*
X146540000Y-134420000D02*
X146540000Y-137370000D01*
X147290000Y-134420000D02*
X146540000Y-134420000D01*
X140440000Y-137370000D02*
X143490000Y-137370000D01*
X140440000Y-134420000D02*
X140440000Y-137370000D01*
X139690000Y-134420000D02*
X140440000Y-134420000D01*
X147290000Y-132170000D02*
X145490000Y-132170000D01*
X147290000Y-132920000D02*
X147290000Y-132170000D01*
X145490000Y-132920000D02*
X147290000Y-132920000D01*
X145490000Y-132170000D02*
X145490000Y-132920000D01*
X141490000Y-132170000D02*
X139690000Y-132170000D01*
X141490000Y-132920000D02*
X141490000Y-132170000D01*
X139690000Y-132920000D02*
X141490000Y-132920000D01*
X139690000Y-132170000D02*
X139690000Y-132920000D01*
X143990000Y-132170000D02*
X142990000Y-132170000D01*
X143990000Y-132920000D02*
X143990000Y-132170000D01*
X142990000Y-132920000D02*
X143990000Y-132920000D01*
X142990000Y-132170000D02*
X142990000Y-132920000D01*
X147300000Y-132160000D02*
X139680000Y-132160000D01*
X147300000Y-138130000D02*
X147300000Y-132160000D01*
X139680000Y-138130000D02*
X147300000Y-138130000D01*
X139680000Y-132160000D02*
X139680000Y-138130000D01*
%TO.C,JP3*%
X131385000Y-68640000D02*
X131385000Y-67310000D01*
X132715000Y-68640000D02*
X131385000Y-68640000D01*
X133985000Y-68640000D02*
X133985000Y-65980000D01*
X133985000Y-65980000D02*
X139125000Y-65980000D01*
X133985000Y-68640000D02*
X139125000Y-68640000D01*
X139125000Y-68640000D02*
X139125000Y-65980000D01*
D16*
%TO.C,Z3*%
X181802000Y-71108000D02*
X181802000Y-76200000D01*
X184466000Y-76212000D02*
X184466000Y-71108000D01*
D15*
X181864000Y-77216000D02*
X184404000Y-77216000D01*
D16*
%TO.C,Z2*%
X178373000Y-71108000D02*
X178373000Y-76200000D01*
X181037000Y-76212000D02*
X181037000Y-71108000D01*
D15*
X178435000Y-77216000D02*
X180975000Y-77216000D01*
D16*
%TO.C,Z1*%
X175272000Y-70042000D02*
X170180000Y-70042000D01*
X170168000Y-72706000D02*
X175272000Y-72706000D01*
D15*
X169164000Y-70104000D02*
X169164000Y-72644000D01*
D16*
%TO.C,Z0*%
X175272000Y-66613000D02*
X170180000Y-66613000D01*
X170168000Y-69277000D02*
X175272000Y-69277000D01*
D15*
X169164000Y-66675000D02*
X169164000Y-69215000D01*
D16*
%TO.C,Q6*%
X149045000Y-78205000D02*
X149045000Y-78005000D01*
X149045000Y-78005000D02*
X151945000Y-78005000D01*
X151945000Y-78005000D02*
X151945000Y-78205000D01*
X151945000Y-78205000D02*
X149045000Y-78205000D01*
X148960000Y-79755000D02*
X148960000Y-78555000D01*
%TO.C,Q3*%
X149045000Y-100430000D02*
X149045000Y-100230000D01*
X149045000Y-100230000D02*
X151945000Y-100230000D01*
X151945000Y-100230000D02*
X151945000Y-100430000D01*
X151945000Y-100430000D02*
X149045000Y-100430000D01*
X148960000Y-101980000D02*
X148960000Y-100780000D01*
%TO.C,Q0*%
X149045000Y-122655000D02*
X149045000Y-122455000D01*
X149045000Y-122455000D02*
X151945000Y-122455000D01*
X151945000Y-122455000D02*
X151945000Y-122655000D01*
X151945000Y-122655000D02*
X149045000Y-122655000D01*
X148960000Y-124205000D02*
X148960000Y-123005000D01*
D14*
%TO.C,J14*%
X125015000Y-119360000D02*
X119045000Y-119360000D01*
X119045000Y-119360000D02*
X119045000Y-139480000D01*
X119045000Y-139480000D02*
X125015000Y-139480000D01*
X125015000Y-139480000D02*
X125015000Y-119360000D01*
X125005000Y-122670000D02*
X124255000Y-122670000D01*
X124255000Y-122670000D02*
X124255000Y-136170000D01*
X124255000Y-136170000D02*
X125005000Y-136170000D01*
X125005000Y-136170000D02*
X125005000Y-122670000D01*
X125005000Y-119370000D02*
X124255000Y-119370000D01*
X124255000Y-119370000D02*
X124255000Y-121170000D01*
X124255000Y-121170000D02*
X125005000Y-121170000D01*
X125005000Y-121170000D02*
X125005000Y-119370000D01*
X125005000Y-137670000D02*
X124255000Y-137670000D01*
X124255000Y-137670000D02*
X124255000Y-139470000D01*
X124255000Y-139470000D02*
X125005000Y-139470000D01*
X125005000Y-139470000D02*
X125005000Y-137670000D01*
X122755000Y-119370000D02*
X122755000Y-120120000D01*
X122755000Y-120120000D02*
X119805000Y-120120000D01*
X119805000Y-120120000D02*
X119805000Y-129420000D01*
X122755000Y-139470000D02*
X122755000Y-138720000D01*
X122755000Y-138720000D02*
X119805000Y-138720000D01*
X119805000Y-138720000D02*
X119805000Y-129420000D01*
X125305000Y-120320000D02*
X125305000Y-119070000D01*
X125305000Y-119070000D02*
X124055000Y-119070000D01*
D16*
%TO.C,Q7*%
X154760000Y-78205000D02*
X154760000Y-78005000D01*
X154760000Y-78005000D02*
X157660000Y-78005000D01*
X157660000Y-78005000D02*
X157660000Y-78205000D01*
X157660000Y-78205000D02*
X154760000Y-78205000D01*
X154675000Y-79755000D02*
X154675000Y-78555000D01*
%TO.C,Q4*%
X154760000Y-100430000D02*
X154760000Y-100230000D01*
X154760000Y-100230000D02*
X157660000Y-100230000D01*
X157660000Y-100230000D02*
X157660000Y-100430000D01*
X157660000Y-100430000D02*
X154760000Y-100430000D01*
X154675000Y-101980000D02*
X154675000Y-100780000D01*
%TO.C,Q8*%
X165168000Y-83895000D02*
X163068000Y-83895000D01*
X163068000Y-83895000D02*
X163068000Y-77395000D01*
X163068000Y-77395000D02*
X165168000Y-77395000D01*
D15*
X160075000Y-77345000D02*
G75*
G03*
X160075000Y-77345000I-125000J0D01*
G01*
D16*
%TO.C,Q5*%
X165168000Y-106120000D02*
X163068000Y-106120000D01*
X163068000Y-106120000D02*
X163068000Y-99620000D01*
X163068000Y-99620000D02*
X165168000Y-99620000D01*
D15*
X160075000Y-99570000D02*
G75*
G03*
X160075000Y-99570000I-125000J0D01*
G01*
D16*
%TO.C,Q2*%
X165168000Y-128345000D02*
X163068000Y-128345000D01*
X163068000Y-128345000D02*
X163068000Y-121845000D01*
X163068000Y-121845000D02*
X165168000Y-121845000D01*
D15*
X160075000Y-121795000D02*
G75*
G03*
X160075000Y-121795000I-125000J0D01*
G01*
D16*
%TO.C,J2*%
X149860000Y-129921000D02*
X149860000Y-137922000D01*
X160274000Y-137935000D02*
X160274000Y-129921000D01*
X149860000Y-137935000D02*
X160270000Y-137935000D01*
X154946384Y-129918895D02*
G75*
G02*
X160274000Y-129921000I2660616J-8079305D01*
G01*
X149863513Y-129919887D02*
G75*
G02*
X154939999Y-129921001I2536487J-8002113D01*
G01*
%TO.C,Q1*%
X154675000Y-124205000D02*
X154675000Y-123005000D01*
X157660000Y-122655000D02*
X154760000Y-122655000D01*
X157660000Y-122455000D02*
X157660000Y-122655000D01*
X154760000Y-122455000D02*
X157660000Y-122455000D01*
X154760000Y-122655000D02*
X154760000Y-122455000D01*
D14*
%TO.C,J20*%
X116760000Y-70418000D02*
X110790000Y-70418000D01*
X110790000Y-70418000D02*
X110790000Y-80538000D01*
X110790000Y-80538000D02*
X116760000Y-80538000D01*
X116760000Y-80538000D02*
X116760000Y-70418000D01*
X116750000Y-73728000D02*
X116000000Y-73728000D01*
X116000000Y-73728000D02*
X116000000Y-77228000D01*
X116000000Y-77228000D02*
X116750000Y-77228000D01*
X116750000Y-77228000D02*
X116750000Y-73728000D01*
X116750000Y-70428000D02*
X116000000Y-70428000D01*
X116000000Y-70428000D02*
X116000000Y-72228000D01*
X116000000Y-72228000D02*
X116750000Y-72228000D01*
X116750000Y-72228000D02*
X116750000Y-70428000D01*
X116750000Y-78728000D02*
X116000000Y-78728000D01*
X116000000Y-78728000D02*
X116000000Y-80528000D01*
X116000000Y-80528000D02*
X116750000Y-80528000D01*
X116750000Y-80528000D02*
X116750000Y-78728000D01*
X114500000Y-70428000D02*
X114500000Y-71178000D01*
X114500000Y-71178000D02*
X111550000Y-71178000D01*
X111550000Y-71178000D02*
X111550000Y-75478000D01*
X114500000Y-80528000D02*
X114500000Y-79778000D01*
X114500000Y-79778000D02*
X111550000Y-79778000D01*
X111550000Y-79778000D02*
X111550000Y-75478000D01*
X117050000Y-71378000D02*
X117050000Y-70128000D01*
X117050000Y-70128000D02*
X115800000Y-70128000D01*
%TO.C,J17*%
X109835000Y-117555000D02*
X109835000Y-123525000D01*
X109835000Y-123525000D02*
X117455000Y-123525000D01*
X117455000Y-123525000D02*
X117455000Y-117555000D01*
X117455000Y-117555000D02*
X109835000Y-117555000D01*
X113145000Y-117565000D02*
X113145000Y-118315000D01*
X113145000Y-118315000D02*
X114145000Y-118315000D01*
X114145000Y-118315000D02*
X114145000Y-117565000D01*
X114145000Y-117565000D02*
X113145000Y-117565000D01*
X109845000Y-117565000D02*
X109845000Y-118315000D01*
X109845000Y-118315000D02*
X111645000Y-118315000D01*
X111645000Y-118315000D02*
X111645000Y-117565000D01*
X111645000Y-117565000D02*
X109845000Y-117565000D01*
X115645000Y-117565000D02*
X115645000Y-118315000D01*
X115645000Y-118315000D02*
X117445000Y-118315000D01*
X117445000Y-118315000D02*
X117445000Y-117565000D01*
X117445000Y-117565000D02*
X115645000Y-117565000D01*
X109845000Y-119815000D02*
X110595000Y-119815000D01*
X110595000Y-119815000D02*
X110595000Y-122765000D01*
X110595000Y-122765000D02*
X113645000Y-122765000D01*
X117445000Y-119815000D02*
X116695000Y-119815000D01*
X116695000Y-119815000D02*
X116695000Y-122765000D01*
X116695000Y-122765000D02*
X113645000Y-122765000D01*
X110795000Y-117265000D02*
X109545000Y-117265000D01*
X109545000Y-117265000D02*
X109545000Y-118515000D01*
%TO.C,J21*%
X116760000Y-86086000D02*
X110790000Y-86086000D01*
X110790000Y-86086000D02*
X110790000Y-96206000D01*
X110790000Y-96206000D02*
X116760000Y-96206000D01*
X116760000Y-96206000D02*
X116760000Y-86086000D01*
X116750000Y-89396000D02*
X116000000Y-89396000D01*
X116000000Y-89396000D02*
X116000000Y-92896000D01*
X116000000Y-92896000D02*
X116750000Y-92896000D01*
X116750000Y-92896000D02*
X116750000Y-89396000D01*
X116750000Y-86096000D02*
X116000000Y-86096000D01*
X116000000Y-86096000D02*
X116000000Y-87896000D01*
X116000000Y-87896000D02*
X116750000Y-87896000D01*
X116750000Y-87896000D02*
X116750000Y-86096000D01*
X116750000Y-94396000D02*
X116000000Y-94396000D01*
X116000000Y-94396000D02*
X116000000Y-96196000D01*
X116000000Y-96196000D02*
X116750000Y-96196000D01*
X116750000Y-96196000D02*
X116750000Y-94396000D01*
X114500000Y-86096000D02*
X114500000Y-86846000D01*
X114500000Y-86846000D02*
X111550000Y-86846000D01*
X111550000Y-86846000D02*
X111550000Y-91146000D01*
X114500000Y-96196000D02*
X114500000Y-95446000D01*
X114500000Y-95446000D02*
X111550000Y-95446000D01*
X111550000Y-95446000D02*
X111550000Y-91146000D01*
X117050000Y-87046000D02*
X117050000Y-85796000D01*
X117050000Y-85796000D02*
X115800000Y-85796000D01*
%TO.C,J22*%
X116760000Y-101707000D02*
X110790000Y-101707000D01*
X110790000Y-101707000D02*
X110790000Y-111827000D01*
X110790000Y-111827000D02*
X116760000Y-111827000D01*
X116760000Y-111827000D02*
X116760000Y-101707000D01*
X116750000Y-105017000D02*
X116000000Y-105017000D01*
X116000000Y-105017000D02*
X116000000Y-108517000D01*
X116000000Y-108517000D02*
X116750000Y-108517000D01*
X116750000Y-108517000D02*
X116750000Y-105017000D01*
X116750000Y-101717000D02*
X116000000Y-101717000D01*
X116000000Y-101717000D02*
X116000000Y-103517000D01*
X116000000Y-103517000D02*
X116750000Y-103517000D01*
X116750000Y-103517000D02*
X116750000Y-101717000D01*
X116750000Y-110017000D02*
X116000000Y-110017000D01*
X116000000Y-110017000D02*
X116000000Y-111817000D01*
X116000000Y-111817000D02*
X116750000Y-111817000D01*
X116750000Y-111817000D02*
X116750000Y-110017000D01*
X114500000Y-101717000D02*
X114500000Y-102467000D01*
X114500000Y-102467000D02*
X111550000Y-102467000D01*
X111550000Y-102467000D02*
X111550000Y-106767000D01*
X114500000Y-111817000D02*
X114500000Y-111067000D01*
X114500000Y-111067000D02*
X111550000Y-111067000D01*
X111550000Y-111067000D02*
X111550000Y-106767000D01*
X117050000Y-102667000D02*
X117050000Y-101417000D01*
X117050000Y-101417000D02*
X115800000Y-101417000D01*
%TO.C,JP6*%
X111000000Y-116319000D02*
X111000000Y-115189000D01*
X111760000Y-116319000D02*
X111000000Y-116319000D01*
X111065000Y-113611470D02*
X111065000Y-112789000D01*
X111065000Y-114429000D02*
X111065000Y-114226530D01*
X111196529Y-114429000D02*
X111065000Y-114429000D01*
X112466529Y-114429000D02*
X112323471Y-114429000D01*
X112520000Y-114625529D02*
X112520000Y-114482471D01*
X112520000Y-116319000D02*
X112520000Y-115752471D01*
X111065000Y-112789000D02*
X116265000Y-112789000D01*
X112520000Y-116319000D02*
X116265000Y-116319000D01*
X116265000Y-114881470D02*
X116265000Y-114226530D01*
X116265000Y-113611470D02*
X116265000Y-112789000D01*
X116265000Y-116319000D02*
X116265000Y-115496530D01*
%TO.C,JP5*%
X111000000Y-100698000D02*
X111000000Y-99568000D01*
X111760000Y-100698000D02*
X111000000Y-100698000D01*
X111065000Y-97990470D02*
X111065000Y-97168000D01*
X111065000Y-98808000D02*
X111065000Y-98605530D01*
X111196529Y-98808000D02*
X111065000Y-98808000D01*
X112466529Y-98808000D02*
X112323471Y-98808000D01*
X112520000Y-99004529D02*
X112520000Y-98861471D01*
X112520000Y-100698000D02*
X112520000Y-100131471D01*
X111065000Y-97168000D02*
X116265000Y-97168000D01*
X112520000Y-100698000D02*
X116265000Y-100698000D01*
X116265000Y-99260470D02*
X116265000Y-98605530D01*
X116265000Y-97990470D02*
X116265000Y-97168000D01*
X116265000Y-100698000D02*
X116265000Y-99875530D01*
%TO.C,JP4*%
X111000000Y-85077000D02*
X111000000Y-83947000D01*
X111760000Y-85077000D02*
X111000000Y-85077000D01*
X111065000Y-82369470D02*
X111065000Y-81547000D01*
X111065000Y-83187000D02*
X111065000Y-82984530D01*
X111196529Y-83187000D02*
X111065000Y-83187000D01*
X112466529Y-83187000D02*
X112323471Y-83187000D01*
X112520000Y-83383529D02*
X112520000Y-83240471D01*
X112520000Y-85077000D02*
X112520000Y-84510471D01*
X111065000Y-81547000D02*
X116265000Y-81547000D01*
X112520000Y-85077000D02*
X116265000Y-85077000D01*
X116265000Y-83639470D02*
X116265000Y-82984530D01*
X116265000Y-82369470D02*
X116265000Y-81547000D01*
X116265000Y-85077000D02*
X116265000Y-84254530D01*
%TO.C,J19*%
X118725000Y-64850000D02*
X118725000Y-70820000D01*
X118725000Y-70820000D02*
X128845000Y-70820000D01*
X128845000Y-70820000D02*
X128845000Y-64850000D01*
X128845000Y-64850000D02*
X118725000Y-64850000D01*
X122035000Y-64860000D02*
X122035000Y-65610000D01*
X122035000Y-65610000D02*
X125535000Y-65610000D01*
X125535000Y-65610000D02*
X125535000Y-64860000D01*
X125535000Y-64860000D02*
X122035000Y-64860000D01*
X118735000Y-64860000D02*
X118735000Y-65610000D01*
X118735000Y-65610000D02*
X120535000Y-65610000D01*
X120535000Y-65610000D02*
X120535000Y-64860000D01*
X120535000Y-64860000D02*
X118735000Y-64860000D01*
X127035000Y-64860000D02*
X127035000Y-65610000D01*
X127035000Y-65610000D02*
X128835000Y-65610000D01*
X128835000Y-65610000D02*
X128835000Y-64860000D01*
X128835000Y-64860000D02*
X127035000Y-64860000D01*
X118735000Y-67110000D02*
X119485000Y-67110000D01*
X119485000Y-67110000D02*
X119485000Y-70060000D01*
X119485000Y-70060000D02*
X123785000Y-70060000D01*
X128835000Y-67110000D02*
X128085000Y-67110000D01*
X128085000Y-67110000D02*
X128085000Y-70060000D01*
X128085000Y-70060000D02*
X123785000Y-70060000D01*
X119685000Y-64560000D02*
X118435000Y-64560000D01*
X118435000Y-64560000D02*
X118435000Y-65810000D01*
%TO.C,J18*%
X109545000Y-124250000D02*
X109545000Y-125500000D01*
X110795000Y-124250000D02*
X109545000Y-124250000D01*
X116695000Y-129750000D02*
X113645000Y-129750000D01*
X116695000Y-126800000D02*
X116695000Y-129750000D01*
X117445000Y-126800000D02*
X116695000Y-126800000D01*
X110595000Y-129750000D02*
X113645000Y-129750000D01*
X110595000Y-126800000D02*
X110595000Y-129750000D01*
X109845000Y-126800000D02*
X110595000Y-126800000D01*
X117445000Y-124550000D02*
X115645000Y-124550000D01*
X117445000Y-125300000D02*
X117445000Y-124550000D01*
X115645000Y-125300000D02*
X117445000Y-125300000D01*
X115645000Y-124550000D02*
X115645000Y-125300000D01*
X111645000Y-124550000D02*
X109845000Y-124550000D01*
X111645000Y-125300000D02*
X111645000Y-124550000D01*
X109845000Y-125300000D02*
X111645000Y-125300000D01*
X109845000Y-124550000D02*
X109845000Y-125300000D01*
X114145000Y-124550000D02*
X113145000Y-124550000D01*
X114145000Y-125300000D02*
X114145000Y-124550000D01*
X113145000Y-125300000D02*
X114145000Y-125300000D01*
X113145000Y-124550000D02*
X113145000Y-125300000D01*
X117455000Y-124540000D02*
X109835000Y-124540000D01*
X117455000Y-130510000D02*
X117455000Y-124540000D01*
X109835000Y-130510000D02*
X117455000Y-130510000D01*
X109835000Y-124540000D02*
X109835000Y-130510000D01*
%TO.C,J16*%
X125305000Y-74620000D02*
X124055000Y-74620000D01*
X125305000Y-75870000D02*
X125305000Y-74620000D01*
X119805000Y-94270000D02*
X119805000Y-84970000D01*
X122755000Y-94270000D02*
X119805000Y-94270000D01*
X122755000Y-95020000D02*
X122755000Y-94270000D01*
X119805000Y-75670000D02*
X119805000Y-84970000D01*
X122755000Y-75670000D02*
X119805000Y-75670000D01*
X122755000Y-74920000D02*
X122755000Y-75670000D01*
X125005000Y-95020000D02*
X125005000Y-93220000D01*
X124255000Y-95020000D02*
X125005000Y-95020000D01*
X124255000Y-93220000D02*
X124255000Y-95020000D01*
X125005000Y-93220000D02*
X124255000Y-93220000D01*
X125005000Y-76720000D02*
X125005000Y-74920000D01*
X124255000Y-76720000D02*
X125005000Y-76720000D01*
X124255000Y-74920000D02*
X124255000Y-76720000D01*
X125005000Y-74920000D02*
X124255000Y-74920000D01*
X125005000Y-91720000D02*
X125005000Y-78220000D01*
X124255000Y-91720000D02*
X125005000Y-91720000D01*
X124255000Y-78220000D02*
X124255000Y-91720000D01*
X125005000Y-78220000D02*
X124255000Y-78220000D01*
X125015000Y-95030000D02*
X125015000Y-74910000D01*
X119045000Y-95030000D02*
X125015000Y-95030000D01*
X119045000Y-74910000D02*
X119045000Y-95030000D01*
X125015000Y-74910000D02*
X119045000Y-74910000D01*
%TO.C,J15*%
X125015000Y-97135000D02*
X119045000Y-97135000D01*
X119045000Y-97135000D02*
X119045000Y-117255000D01*
X119045000Y-117255000D02*
X125015000Y-117255000D01*
X125015000Y-117255000D02*
X125015000Y-97135000D01*
X125005000Y-100445000D02*
X124255000Y-100445000D01*
X124255000Y-100445000D02*
X124255000Y-113945000D01*
X124255000Y-113945000D02*
X125005000Y-113945000D01*
X125005000Y-113945000D02*
X125005000Y-100445000D01*
X125005000Y-97145000D02*
X124255000Y-97145000D01*
X124255000Y-97145000D02*
X124255000Y-98945000D01*
X124255000Y-98945000D02*
X125005000Y-98945000D01*
X125005000Y-98945000D02*
X125005000Y-97145000D01*
X125005000Y-115445000D02*
X124255000Y-115445000D01*
X124255000Y-115445000D02*
X124255000Y-117245000D01*
X124255000Y-117245000D02*
X125005000Y-117245000D01*
X125005000Y-117245000D02*
X125005000Y-115445000D01*
X122755000Y-97145000D02*
X122755000Y-97895000D01*
X122755000Y-97895000D02*
X119805000Y-97895000D01*
X119805000Y-97895000D02*
X119805000Y-107195000D01*
X122755000Y-117245000D02*
X122755000Y-116495000D01*
X122755000Y-116495000D02*
X119805000Y-116495000D01*
X119805000Y-116495000D02*
X119805000Y-107195000D01*
X125305000Y-98095000D02*
X125305000Y-96845000D01*
X125305000Y-96845000D02*
X124055000Y-96845000D01*
%TO.C,J13*%
X139680000Y-87710000D02*
X139680000Y-93680000D01*
X139680000Y-93680000D02*
X147300000Y-93680000D01*
X147300000Y-93680000D02*
X147300000Y-87710000D01*
X147300000Y-87710000D02*
X139680000Y-87710000D01*
X142990000Y-87720000D02*
X142990000Y-88470000D01*
X142990000Y-88470000D02*
X143990000Y-88470000D01*
X143990000Y-88470000D02*
X143990000Y-87720000D01*
X143990000Y-87720000D02*
X142990000Y-87720000D01*
X139690000Y-87720000D02*
X139690000Y-88470000D01*
X139690000Y-88470000D02*
X141490000Y-88470000D01*
X141490000Y-88470000D02*
X141490000Y-87720000D01*
X141490000Y-87720000D02*
X139690000Y-87720000D01*
X145490000Y-87720000D02*
X145490000Y-88470000D01*
X145490000Y-88470000D02*
X147290000Y-88470000D01*
X147290000Y-88470000D02*
X147290000Y-87720000D01*
X147290000Y-87720000D02*
X145490000Y-87720000D01*
X139690000Y-89970000D02*
X140440000Y-89970000D01*
X140440000Y-89970000D02*
X140440000Y-92920000D01*
X140440000Y-92920000D02*
X143490000Y-92920000D01*
X147290000Y-89970000D02*
X146540000Y-89970000D01*
X146540000Y-89970000D02*
X146540000Y-92920000D01*
X146540000Y-92920000D02*
X143490000Y-92920000D01*
X140640000Y-87420000D02*
X139390000Y-87420000D01*
X139390000Y-87420000D02*
X139390000Y-88670000D01*
%TO.C,J12*%
X136850000Y-80435000D02*
X136850000Y-81685000D01*
X138100000Y-80435000D02*
X136850000Y-80435000D01*
X146500000Y-85935000D02*
X142200000Y-85935000D01*
X146500000Y-82985000D02*
X146500000Y-85935000D01*
X147250000Y-82985000D02*
X146500000Y-82985000D01*
X137900000Y-85935000D02*
X142200000Y-85935000D01*
X137900000Y-82985000D02*
X137900000Y-85935000D01*
X137150000Y-82985000D02*
X137900000Y-82985000D01*
X147250000Y-80735000D02*
X145450000Y-80735000D01*
X147250000Y-81485000D02*
X147250000Y-80735000D01*
X145450000Y-81485000D02*
X147250000Y-81485000D01*
X145450000Y-80735000D02*
X145450000Y-81485000D01*
X138950000Y-80735000D02*
X137150000Y-80735000D01*
X138950000Y-81485000D02*
X138950000Y-80735000D01*
X137150000Y-81485000D02*
X138950000Y-81485000D01*
X137150000Y-80735000D02*
X137150000Y-81485000D01*
X143950000Y-80735000D02*
X140450000Y-80735000D01*
X143950000Y-81485000D02*
X143950000Y-80735000D01*
X140450000Y-81485000D02*
X143950000Y-81485000D01*
X140450000Y-80735000D02*
X140450000Y-81485000D01*
X147260000Y-80725000D02*
X137140000Y-80725000D01*
X147260000Y-86695000D02*
X147260000Y-80725000D01*
X137140000Y-86695000D02*
X147260000Y-86695000D01*
X137140000Y-80725000D02*
X137140000Y-86695000D01*
%TO.C,J11*%
X139390000Y-109645000D02*
X139390000Y-110895000D01*
X140640000Y-109645000D02*
X139390000Y-109645000D01*
X146540000Y-115145000D02*
X143490000Y-115145000D01*
X146540000Y-112195000D02*
X146540000Y-115145000D01*
X147290000Y-112195000D02*
X146540000Y-112195000D01*
X140440000Y-115145000D02*
X143490000Y-115145000D01*
X140440000Y-112195000D02*
X140440000Y-115145000D01*
X139690000Y-112195000D02*
X140440000Y-112195000D01*
X147290000Y-109945000D02*
X145490000Y-109945000D01*
X147290000Y-110695000D02*
X147290000Y-109945000D01*
X145490000Y-110695000D02*
X147290000Y-110695000D01*
X145490000Y-109945000D02*
X145490000Y-110695000D01*
X141490000Y-109945000D02*
X139690000Y-109945000D01*
X141490000Y-110695000D02*
X141490000Y-109945000D01*
X139690000Y-110695000D02*
X141490000Y-110695000D01*
X139690000Y-109945000D02*
X139690000Y-110695000D01*
X143990000Y-109945000D02*
X142990000Y-109945000D01*
X143990000Y-110695000D02*
X143990000Y-109945000D01*
X142990000Y-110695000D02*
X143990000Y-110695000D01*
X142990000Y-109945000D02*
X142990000Y-110695000D01*
X147300000Y-109935000D02*
X139680000Y-109935000D01*
X147300000Y-115905000D02*
X147300000Y-109935000D01*
X139680000Y-115905000D02*
X147300000Y-115905000D01*
X139680000Y-109935000D02*
X139680000Y-115905000D01*
%TO.C,J10*%
X137140000Y-102950000D02*
X137140000Y-108920000D01*
X137140000Y-108920000D02*
X147260000Y-108920000D01*
X147260000Y-108920000D02*
X147260000Y-102950000D01*
X147260000Y-102950000D02*
X137140000Y-102950000D01*
X140450000Y-102960000D02*
X140450000Y-103710000D01*
X140450000Y-103710000D02*
X143950000Y-103710000D01*
X143950000Y-103710000D02*
X143950000Y-102960000D01*
X143950000Y-102960000D02*
X140450000Y-102960000D01*
X137150000Y-102960000D02*
X137150000Y-103710000D01*
X137150000Y-103710000D02*
X138950000Y-103710000D01*
X138950000Y-103710000D02*
X138950000Y-102960000D01*
X138950000Y-102960000D02*
X137150000Y-102960000D01*
X145450000Y-102960000D02*
X145450000Y-103710000D01*
X145450000Y-103710000D02*
X147250000Y-103710000D01*
X147250000Y-103710000D02*
X147250000Y-102960000D01*
X147250000Y-102960000D02*
X145450000Y-102960000D01*
X137150000Y-105210000D02*
X137900000Y-105210000D01*
X137900000Y-105210000D02*
X137900000Y-108160000D01*
X137900000Y-108160000D02*
X142200000Y-108160000D01*
X147250000Y-105210000D02*
X146500000Y-105210000D01*
X146500000Y-105210000D02*
X146500000Y-108160000D01*
X146500000Y-108160000D02*
X142200000Y-108160000D01*
X138100000Y-102660000D02*
X136850000Y-102660000D01*
X136850000Y-102660000D02*
X136850000Y-103910000D01*
%TO.C,J8*%
X137140000Y-125175000D02*
X137140000Y-131145000D01*
X137140000Y-131145000D02*
X147260000Y-131145000D01*
X147260000Y-131145000D02*
X147260000Y-125175000D01*
X147260000Y-125175000D02*
X137140000Y-125175000D01*
X140450000Y-125185000D02*
X140450000Y-125935000D01*
X140450000Y-125935000D02*
X143950000Y-125935000D01*
X143950000Y-125935000D02*
X143950000Y-125185000D01*
X143950000Y-125185000D02*
X140450000Y-125185000D01*
X137150000Y-125185000D02*
X137150000Y-125935000D01*
X137150000Y-125935000D02*
X138950000Y-125935000D01*
X138950000Y-125935000D02*
X138950000Y-125185000D01*
X138950000Y-125185000D02*
X137150000Y-125185000D01*
X145450000Y-125185000D02*
X145450000Y-125935000D01*
X145450000Y-125935000D02*
X147250000Y-125935000D01*
X147250000Y-125935000D02*
X147250000Y-125185000D01*
X147250000Y-125185000D02*
X145450000Y-125185000D01*
X137150000Y-127435000D02*
X137900000Y-127435000D01*
X137900000Y-127435000D02*
X137900000Y-130385000D01*
X137900000Y-130385000D02*
X142200000Y-130385000D01*
X147250000Y-127435000D02*
X146500000Y-127435000D01*
X146500000Y-127435000D02*
X146500000Y-130385000D01*
X146500000Y-130385000D02*
X142200000Y-130385000D01*
X138100000Y-124885000D02*
X136850000Y-124885000D01*
X136850000Y-124885000D02*
X136850000Y-126135000D01*
%TO.C,J1*%
X178515000Y-92690000D02*
X184485000Y-92690000D01*
X184485000Y-92690000D02*
X184485000Y-80070000D01*
X184485000Y-80070000D02*
X178515000Y-80070000D01*
X178515000Y-80070000D02*
X178515000Y-92690000D01*
X178525000Y-89380000D02*
X179275000Y-89380000D01*
X179275000Y-89380000D02*
X179275000Y-83380000D01*
X179275000Y-83380000D02*
X178525000Y-83380000D01*
X178525000Y-83380000D02*
X178525000Y-89380000D01*
X178525000Y-92680000D02*
X179275000Y-92680000D01*
X179275000Y-92680000D02*
X179275000Y-90880000D01*
X179275000Y-90880000D02*
X178525000Y-90880000D01*
X178525000Y-90880000D02*
X178525000Y-92680000D01*
X178525000Y-81880000D02*
X179275000Y-81880000D01*
X179275000Y-81880000D02*
X179275000Y-80080000D01*
X179275000Y-80080000D02*
X178525000Y-80080000D01*
X178525000Y-80080000D02*
X178525000Y-81880000D01*
X180775000Y-92680000D02*
X180775000Y-91930000D01*
X180775000Y-91930000D02*
X183725000Y-91930000D01*
X183725000Y-91930000D02*
X183725000Y-86380000D01*
X180775000Y-80080000D02*
X180775000Y-80830000D01*
X180775000Y-80830000D02*
X183725000Y-80830000D01*
X183725000Y-80830000D02*
X183725000Y-86380000D01*
X178225000Y-91730000D02*
X178225000Y-92980000D01*
X178225000Y-92980000D02*
X179475000Y-92980000D01*
D16*
%TO.C,J7*%
X161290000Y-93485000D02*
X171700000Y-93485000D01*
X171704000Y-93485000D02*
X171704000Y-85471000D01*
X161290000Y-85471000D02*
X161290000Y-93472000D01*
X161293513Y-85469887D02*
G75*
G02*
X166369999Y-85471001I2536487J-8002113D01*
G01*
X166376384Y-85468895D02*
G75*
G02*
X171704000Y-85471000I2660616J-8079305D01*
G01*
%TO.C,J6*%
X149860000Y-93485000D02*
X160270000Y-93485000D01*
X160274000Y-93485000D02*
X160274000Y-85471000D01*
X149860000Y-85471000D02*
X149860000Y-93472000D01*
X149863513Y-85469887D02*
G75*
G02*
X154939999Y-85471001I2536487J-8002113D01*
G01*
X154946384Y-85468895D02*
G75*
G02*
X160274000Y-85471000I2660616J-8079305D01*
G01*
%TO.C,J5*%
X161290000Y-107696000D02*
X161290000Y-115697000D01*
X171704000Y-115710000D02*
X171704000Y-107696000D01*
X161290000Y-115710000D02*
X171700000Y-115710000D01*
X166376384Y-107693895D02*
G75*
G02*
X171704000Y-107696000I2660616J-8079305D01*
G01*
X161293513Y-107694887D02*
G75*
G02*
X166369999Y-107696001I2536487J-8002113D01*
G01*
%TO.C,J4*%
X149860000Y-107696000D02*
X149860000Y-115697000D01*
X160274000Y-115710000D02*
X160274000Y-107696000D01*
X149860000Y-115710000D02*
X160270000Y-115710000D01*
X154946384Y-107693895D02*
G75*
G02*
X160274000Y-107696000I2660616J-8079305D01*
G01*
X149863513Y-107694887D02*
G75*
G02*
X154939999Y-107696001I2536487J-8002113D01*
G01*
%TO.C,J3*%
X161290000Y-129921000D02*
X161290000Y-137922000D01*
X171704000Y-137935000D02*
X171704000Y-129921000D01*
X161290000Y-137935000D02*
X171700000Y-137935000D01*
X166376384Y-129918895D02*
G75*
G02*
X171704000Y-129921000I2660616J-8079305D01*
G01*
X161293513Y-129919887D02*
G75*
G02*
X166369999Y-129921001I2536487J-8002113D01*
G01*
D14*
%TO.C,C2*%
X136425000Y-91468752D02*
X136425000Y-90946248D01*
X137895000Y-91468752D02*
X137895000Y-90946248D01*
%TO.C,C1*%
X137895000Y-113926252D02*
X137895000Y-113403748D01*
X136425000Y-113926252D02*
X136425000Y-113403748D01*
%TO.C,C0*%
X137895000Y-135918752D02*
X137895000Y-135396248D01*
X136425000Y-135918752D02*
X136425000Y-135396248D01*
%TO.C,JP0*%
X126940000Y-137855000D02*
X126940000Y-136525000D01*
X128270000Y-137855000D02*
X126940000Y-137855000D01*
X126940000Y-135255000D02*
X126940000Y-132655000D01*
X129540000Y-135255000D02*
X126940000Y-135255000D01*
X129540000Y-137855000D02*
X129540000Y-135255000D01*
X126940000Y-132655000D02*
X134680000Y-132655000D01*
X129540000Y-137855000D02*
X134680000Y-137855000D01*
X134680000Y-137855000D02*
X134680000Y-132655000D01*
%TO.C,JP1*%
X126940000Y-115630000D02*
X126940000Y-114300000D01*
X128270000Y-115630000D02*
X126940000Y-115630000D01*
X129540000Y-115630000D02*
X129540000Y-112970000D01*
X129540000Y-112970000D02*
X134680000Y-112970000D01*
X129540000Y-115630000D02*
X134680000Y-115630000D01*
X134680000Y-115630000D02*
X134680000Y-112970000D01*
%TO.C,JP2*%
X134680000Y-93405000D02*
X134680000Y-90745000D01*
X129540000Y-93405000D02*
X134680000Y-93405000D01*
X129540000Y-90745000D02*
X134680000Y-90745000D01*
X129540000Y-93405000D02*
X129540000Y-90745000D01*
X128270000Y-93405000D02*
X126940000Y-93405000D01*
X126940000Y-93405000D02*
X126940000Y-92075000D01*
%TO.C,U1*%
D15*
X181241809Y-123607979D02*
X181241809Y-123455598D01*
X181318000Y-123312741D01*
X181394190Y-123246074D01*
X181546571Y-123188931D01*
X181851333Y-123150836D01*
X182232285Y-123198455D01*
X182537047Y-123312741D01*
X182689428Y-123407979D01*
X182765619Y-123493693D01*
X182841809Y-123655598D01*
X182841809Y-123807979D01*
X182765619Y-123950836D01*
X182689428Y-124017502D01*
X182537047Y-124074645D01*
X182232285Y-124112741D01*
X181851333Y-124065122D01*
X181546571Y-123950836D01*
X181394190Y-123855598D01*
X181318000Y-123769883D01*
X181241809Y-123607979D01*
%TO.C,C6*%
D11*
X180808333Y-67892142D02*
X180760714Y-67939761D01*
X180617857Y-67987380D01*
X180522619Y-67987380D01*
X180379761Y-67939761D01*
X180284523Y-67844523D01*
X180236904Y-67749285D01*
X180189285Y-67558809D01*
X180189285Y-67415952D01*
X180236904Y-67225476D01*
X180284523Y-67130238D01*
X180379761Y-67035000D01*
X180522619Y-66987380D01*
X180617857Y-66987380D01*
X180760714Y-67035000D01*
X180808333Y-67082619D01*
X181665476Y-66987380D02*
X181475000Y-66987380D01*
X181379761Y-67035000D01*
X181332142Y-67082619D01*
X181236904Y-67225476D01*
X181189285Y-67415952D01*
X181189285Y-67796904D01*
X181236904Y-67892142D01*
X181284523Y-67939761D01*
X181379761Y-67987380D01*
X181570238Y-67987380D01*
X181665476Y-67939761D01*
X181713095Y-67892142D01*
X181760714Y-67796904D01*
X181760714Y-67558809D01*
X181713095Y-67463571D01*
X181665476Y-67415952D01*
X181570238Y-67368333D01*
X181379761Y-67368333D01*
X181284523Y-67415952D01*
X181236904Y-67463571D01*
X181189285Y-67558809D01*
%TO.C,C5*%
X172045333Y-61317142D02*
X171997714Y-61364761D01*
X171854857Y-61412380D01*
X171759619Y-61412380D01*
X171616761Y-61364761D01*
X171521523Y-61269523D01*
X171473904Y-61174285D01*
X171426285Y-60983809D01*
X171426285Y-60840952D01*
X171473904Y-60650476D01*
X171521523Y-60555238D01*
X171616761Y-60460000D01*
X171759619Y-60412380D01*
X171854857Y-60412380D01*
X171997714Y-60460000D01*
X172045333Y-60507619D01*
X172950095Y-60412380D02*
X172473904Y-60412380D01*
X172426285Y-60888571D01*
X172473904Y-60840952D01*
X172569142Y-60793333D01*
X172807238Y-60793333D01*
X172902476Y-60840952D01*
X172950095Y-60888571D01*
X172997714Y-60983809D01*
X172997714Y-61221904D01*
X172950095Y-61317142D01*
X172902476Y-61364761D01*
X172807238Y-61412380D01*
X172569142Y-61412380D01*
X172473904Y-61364761D01*
X172426285Y-61317142D01*
%TO.C,C4*%
X176363333Y-86717142D02*
X176315714Y-86764761D01*
X176172857Y-86812380D01*
X176077619Y-86812380D01*
X175934761Y-86764761D01*
X175839523Y-86669523D01*
X175791904Y-86574285D01*
X175744285Y-86383809D01*
X175744285Y-86240952D01*
X175791904Y-86050476D01*
X175839523Y-85955238D01*
X175934761Y-85860000D01*
X176077619Y-85812380D01*
X176172857Y-85812380D01*
X176315714Y-85860000D01*
X176363333Y-85907619D01*
X177220476Y-86145714D02*
X177220476Y-86812380D01*
X176982380Y-85764761D02*
X176744285Y-86479047D01*
X177363333Y-86479047D01*
%TO.C,C3*%
X170013333Y-61317142D02*
X169965714Y-61364761D01*
X169822857Y-61412380D01*
X169727619Y-61412380D01*
X169584761Y-61364761D01*
X169489523Y-61269523D01*
X169441904Y-61174285D01*
X169394285Y-60983809D01*
X169394285Y-60840952D01*
X169441904Y-60650476D01*
X169489523Y-60555238D01*
X169584761Y-60460000D01*
X169727619Y-60412380D01*
X169822857Y-60412380D01*
X169965714Y-60460000D01*
X170013333Y-60507619D01*
X170346666Y-60412380D02*
X170965714Y-60412380D01*
X170632380Y-60793333D01*
X170775238Y-60793333D01*
X170870476Y-60840952D01*
X170918095Y-60888571D01*
X170965714Y-60983809D01*
X170965714Y-61221904D01*
X170918095Y-61317142D01*
X170870476Y-61364761D01*
X170775238Y-61412380D01*
X170489523Y-61412380D01*
X170394285Y-61364761D01*
X170346666Y-61317142D01*
%TO.C,D2*%
X131517380Y-80748095D02*
X130517380Y-80748095D01*
X130517380Y-80510000D01*
X130565000Y-80367142D01*
X130660238Y-80271904D01*
X130755476Y-80224285D01*
X130945952Y-80176666D01*
X131088809Y-80176666D01*
X131279285Y-80224285D01*
X131374523Y-80271904D01*
X131469761Y-80367142D01*
X131517380Y-80510000D01*
X131517380Y-80748095D01*
X130612619Y-79795714D02*
X130565000Y-79748095D01*
X130517380Y-79652857D01*
X130517380Y-79414761D01*
X130565000Y-79319523D01*
X130612619Y-79271904D01*
X130707857Y-79224285D01*
X130803095Y-79224285D01*
X130945952Y-79271904D01*
X131517380Y-79843333D01*
X131517380Y-79224285D01*
%TO.C,D1*%
X131517380Y-102973095D02*
X130517380Y-102973095D01*
X130517380Y-102735000D01*
X130565000Y-102592142D01*
X130660238Y-102496904D01*
X130755476Y-102449285D01*
X130945952Y-102401666D01*
X131088809Y-102401666D01*
X131279285Y-102449285D01*
X131374523Y-102496904D01*
X131469761Y-102592142D01*
X131517380Y-102735000D01*
X131517380Y-102973095D01*
X131517380Y-101449285D02*
X131517380Y-102020714D01*
X131517380Y-101735000D02*
X130517380Y-101735000D01*
X130660238Y-101830238D01*
X130755476Y-101925476D01*
X130803095Y-102020714D01*
%TO.C,D0*%
X131517380Y-125198095D02*
X130517380Y-125198095D01*
X130517380Y-124960000D01*
X130565000Y-124817142D01*
X130660238Y-124721904D01*
X130755476Y-124674285D01*
X130945952Y-124626666D01*
X131088809Y-124626666D01*
X131279285Y-124674285D01*
X131374523Y-124721904D01*
X131469761Y-124817142D01*
X131517380Y-124960000D01*
X131517380Y-125198095D01*
X130517380Y-124007619D02*
X130517380Y-123912380D01*
X130565000Y-123817142D01*
X130612619Y-123769523D01*
X130707857Y-123721904D01*
X130898333Y-123674285D01*
X131136428Y-123674285D01*
X131326904Y-123721904D01*
X131422142Y-123769523D01*
X131469761Y-123817142D01*
X131517380Y-123912380D01*
X131517380Y-124007619D01*
X131469761Y-124102857D01*
X131422142Y-124150476D01*
X131326904Y-124198095D01*
X131136428Y-124245714D01*
X130898333Y-124245714D01*
X130707857Y-124198095D01*
X130612619Y-124150476D01*
X130565000Y-124102857D01*
X130517380Y-124007619D01*
%TO.C,R20*%
X156837142Y-81732380D02*
X156503809Y-81256190D01*
X156265714Y-81732380D02*
X156265714Y-80732380D01*
X156646666Y-80732380D01*
X156741904Y-80780000D01*
X156789523Y-80827619D01*
X156837142Y-80922857D01*
X156837142Y-81065714D01*
X156789523Y-81160952D01*
X156741904Y-81208571D01*
X156646666Y-81256190D01*
X156265714Y-81256190D01*
X157218095Y-80827619D02*
X157265714Y-80780000D01*
X157360952Y-80732380D01*
X157599047Y-80732380D01*
X157694285Y-80780000D01*
X157741904Y-80827619D01*
X157789523Y-80922857D01*
X157789523Y-81018095D01*
X157741904Y-81160952D01*
X157170476Y-81732380D01*
X157789523Y-81732380D01*
X158408571Y-80732380D02*
X158503809Y-80732380D01*
X158599047Y-80780000D01*
X158646666Y-80827619D01*
X158694285Y-80922857D01*
X158741904Y-81113333D01*
X158741904Y-81351428D01*
X158694285Y-81541904D01*
X158646666Y-81637142D01*
X158599047Y-81684761D01*
X158503809Y-81732380D01*
X158408571Y-81732380D01*
X158313333Y-81684761D01*
X158265714Y-81637142D01*
X158218095Y-81541904D01*
X158170476Y-81351428D01*
X158170476Y-81113333D01*
X158218095Y-80922857D01*
X158265714Y-80827619D01*
X158313333Y-80780000D01*
X158408571Y-80732380D01*
%TO.C,R19*%
X153027142Y-81732380D02*
X152693809Y-81256190D01*
X152455714Y-81732380D02*
X152455714Y-80732380D01*
X152836666Y-80732380D01*
X152931904Y-80780000D01*
X152979523Y-80827619D01*
X153027142Y-80922857D01*
X153027142Y-81065714D01*
X152979523Y-81160952D01*
X152931904Y-81208571D01*
X152836666Y-81256190D01*
X152455714Y-81256190D01*
X153979523Y-81732380D02*
X153408095Y-81732380D01*
X153693809Y-81732380D02*
X153693809Y-80732380D01*
X153598571Y-80875238D01*
X153503333Y-80970476D01*
X153408095Y-81018095D01*
X154455714Y-81732380D02*
X154646190Y-81732380D01*
X154741428Y-81684761D01*
X154789047Y-81637142D01*
X154884285Y-81494285D01*
X154931904Y-81303809D01*
X154931904Y-80922857D01*
X154884285Y-80827619D01*
X154836666Y-80780000D01*
X154741428Y-80732380D01*
X154550952Y-80732380D01*
X154455714Y-80780000D01*
X154408095Y-80827619D01*
X154360476Y-80922857D01*
X154360476Y-81160952D01*
X154408095Y-81256190D01*
X154455714Y-81303809D01*
X154550952Y-81351428D01*
X154741428Y-81351428D01*
X154836666Y-81303809D01*
X154884285Y-81256190D01*
X154931904Y-81160952D01*
%TO.C,R18*%
X149217142Y-81732380D02*
X148883809Y-81256190D01*
X148645714Y-81732380D02*
X148645714Y-80732380D01*
X149026666Y-80732380D01*
X149121904Y-80780000D01*
X149169523Y-80827619D01*
X149217142Y-80922857D01*
X149217142Y-81065714D01*
X149169523Y-81160952D01*
X149121904Y-81208571D01*
X149026666Y-81256190D01*
X148645714Y-81256190D01*
X150169523Y-81732380D02*
X149598095Y-81732380D01*
X149883809Y-81732380D02*
X149883809Y-80732380D01*
X149788571Y-80875238D01*
X149693333Y-80970476D01*
X149598095Y-81018095D01*
X150740952Y-81160952D02*
X150645714Y-81113333D01*
X150598095Y-81065714D01*
X150550476Y-80970476D01*
X150550476Y-80922857D01*
X150598095Y-80827619D01*
X150645714Y-80780000D01*
X150740952Y-80732380D01*
X150931428Y-80732380D01*
X151026666Y-80780000D01*
X151074285Y-80827619D01*
X151121904Y-80922857D01*
X151121904Y-80970476D01*
X151074285Y-81065714D01*
X151026666Y-81113333D01*
X150931428Y-81160952D01*
X150740952Y-81160952D01*
X150645714Y-81208571D01*
X150598095Y-81256190D01*
X150550476Y-81351428D01*
X150550476Y-81541904D01*
X150598095Y-81637142D01*
X150645714Y-81684761D01*
X150740952Y-81732380D01*
X150931428Y-81732380D01*
X151026666Y-81684761D01*
X151074285Y-81637142D01*
X151121904Y-81541904D01*
X151121904Y-81351428D01*
X151074285Y-81256190D01*
X151026666Y-81208571D01*
X150931428Y-81160952D01*
%TO.C,R17*%
X145407142Y-76017380D02*
X145073809Y-75541190D01*
X144835714Y-76017380D02*
X144835714Y-75017380D01*
X145216666Y-75017380D01*
X145311904Y-75065000D01*
X145359523Y-75112619D01*
X145407142Y-75207857D01*
X145407142Y-75350714D01*
X145359523Y-75445952D01*
X145311904Y-75493571D01*
X145216666Y-75541190D01*
X144835714Y-75541190D01*
X146359523Y-76017380D02*
X145788095Y-76017380D01*
X146073809Y-76017380D02*
X146073809Y-75017380D01*
X145978571Y-75160238D01*
X145883333Y-75255476D01*
X145788095Y-75303095D01*
X146692857Y-75017380D02*
X147359523Y-75017380D01*
X146930952Y-76017380D01*
%TO.C,R16*%
X141597142Y-76017380D02*
X141263809Y-75541190D01*
X141025714Y-76017380D02*
X141025714Y-75017380D01*
X141406666Y-75017380D01*
X141501904Y-75065000D01*
X141549523Y-75112619D01*
X141597142Y-75207857D01*
X141597142Y-75350714D01*
X141549523Y-75445952D01*
X141501904Y-75493571D01*
X141406666Y-75541190D01*
X141025714Y-75541190D01*
X142549523Y-76017380D02*
X141978095Y-76017380D01*
X142263809Y-76017380D02*
X142263809Y-75017380D01*
X142168571Y-75160238D01*
X142073333Y-75255476D01*
X141978095Y-75303095D01*
X143406666Y-75017380D02*
X143216190Y-75017380D01*
X143120952Y-75065000D01*
X143073333Y-75112619D01*
X142978095Y-75255476D01*
X142930476Y-75445952D01*
X142930476Y-75826904D01*
X142978095Y-75922142D01*
X143025714Y-75969761D01*
X143120952Y-76017380D01*
X143311428Y-76017380D01*
X143406666Y-75969761D01*
X143454285Y-75922142D01*
X143501904Y-75826904D01*
X143501904Y-75588809D01*
X143454285Y-75493571D01*
X143406666Y-75445952D01*
X143311428Y-75398333D01*
X143120952Y-75398333D01*
X143025714Y-75445952D01*
X142978095Y-75493571D01*
X142930476Y-75588809D01*
%TO.C,R15*%
X134612142Y-81097380D02*
X134278809Y-80621190D01*
X134040714Y-81097380D02*
X134040714Y-80097380D01*
X134421666Y-80097380D01*
X134516904Y-80145000D01*
X134564523Y-80192619D01*
X134612142Y-80287857D01*
X134612142Y-80430714D01*
X134564523Y-80525952D01*
X134516904Y-80573571D01*
X134421666Y-80621190D01*
X134040714Y-80621190D01*
X135564523Y-81097380D02*
X134993095Y-81097380D01*
X135278809Y-81097380D02*
X135278809Y-80097380D01*
X135183571Y-80240238D01*
X135088333Y-80335476D01*
X134993095Y-80383095D01*
X136469285Y-80097380D02*
X135993095Y-80097380D01*
X135945476Y-80573571D01*
X135993095Y-80525952D01*
X136088333Y-80478333D01*
X136326428Y-80478333D01*
X136421666Y-80525952D01*
X136469285Y-80573571D01*
X136516904Y-80668809D01*
X136516904Y-80906904D01*
X136469285Y-81002142D01*
X136421666Y-81049761D01*
X136326428Y-81097380D01*
X136088333Y-81097380D01*
X135993095Y-81049761D01*
X135945476Y-81002142D01*
%TO.C,R14*%
X127707380Y-80652857D02*
X127231190Y-80986190D01*
X127707380Y-81224285D02*
X126707380Y-81224285D01*
X126707380Y-80843333D01*
X126755000Y-80748095D01*
X126802619Y-80700476D01*
X126897857Y-80652857D01*
X127040714Y-80652857D01*
X127135952Y-80700476D01*
X127183571Y-80748095D01*
X127231190Y-80843333D01*
X127231190Y-81224285D01*
X127707380Y-79700476D02*
X127707380Y-80271904D01*
X127707380Y-79986190D02*
X126707380Y-79986190D01*
X126850238Y-80081428D01*
X126945476Y-80176666D01*
X126993095Y-80271904D01*
X127040714Y-78843333D02*
X127707380Y-78843333D01*
X126659761Y-79081428D02*
X127374047Y-79319523D01*
X127374047Y-78700476D01*
%TO.C,R13*%
X156837142Y-103957380D02*
X156503809Y-103481190D01*
X156265714Y-103957380D02*
X156265714Y-102957380D01*
X156646666Y-102957380D01*
X156741904Y-103005000D01*
X156789523Y-103052619D01*
X156837142Y-103147857D01*
X156837142Y-103290714D01*
X156789523Y-103385952D01*
X156741904Y-103433571D01*
X156646666Y-103481190D01*
X156265714Y-103481190D01*
X157789523Y-103957380D02*
X157218095Y-103957380D01*
X157503809Y-103957380D02*
X157503809Y-102957380D01*
X157408571Y-103100238D01*
X157313333Y-103195476D01*
X157218095Y-103243095D01*
X158122857Y-102957380D02*
X158741904Y-102957380D01*
X158408571Y-103338333D01*
X158551428Y-103338333D01*
X158646666Y-103385952D01*
X158694285Y-103433571D01*
X158741904Y-103528809D01*
X158741904Y-103766904D01*
X158694285Y-103862142D01*
X158646666Y-103909761D01*
X158551428Y-103957380D01*
X158265714Y-103957380D01*
X158170476Y-103909761D01*
X158122857Y-103862142D01*
%TO.C,R12*%
X153027142Y-103957380D02*
X152693809Y-103481190D01*
X152455714Y-103957380D02*
X152455714Y-102957380D01*
X152836666Y-102957380D01*
X152931904Y-103005000D01*
X152979523Y-103052619D01*
X153027142Y-103147857D01*
X153027142Y-103290714D01*
X152979523Y-103385952D01*
X152931904Y-103433571D01*
X152836666Y-103481190D01*
X152455714Y-103481190D01*
X153979523Y-103957380D02*
X153408095Y-103957380D01*
X153693809Y-103957380D02*
X153693809Y-102957380D01*
X153598571Y-103100238D01*
X153503333Y-103195476D01*
X153408095Y-103243095D01*
X154360476Y-103052619D02*
X154408095Y-103005000D01*
X154503333Y-102957380D01*
X154741428Y-102957380D01*
X154836666Y-103005000D01*
X154884285Y-103052619D01*
X154931904Y-103147857D01*
X154931904Y-103243095D01*
X154884285Y-103385952D01*
X154312857Y-103957380D01*
X154931904Y-103957380D01*
%TO.C,R11*%
X149217142Y-103957380D02*
X148883809Y-103481190D01*
X148645714Y-103957380D02*
X148645714Y-102957380D01*
X149026666Y-102957380D01*
X149121904Y-103005000D01*
X149169523Y-103052619D01*
X149217142Y-103147857D01*
X149217142Y-103290714D01*
X149169523Y-103385952D01*
X149121904Y-103433571D01*
X149026666Y-103481190D01*
X148645714Y-103481190D01*
X150169523Y-103957380D02*
X149598095Y-103957380D01*
X149883809Y-103957380D02*
X149883809Y-102957380D01*
X149788571Y-103100238D01*
X149693333Y-103195476D01*
X149598095Y-103243095D01*
X151121904Y-103957380D02*
X150550476Y-103957380D01*
X150836190Y-103957380D02*
X150836190Y-102957380D01*
X150740952Y-103100238D01*
X150645714Y-103195476D01*
X150550476Y-103243095D01*
%TO.C,R10*%
X145407142Y-98242380D02*
X145073809Y-97766190D01*
X144835714Y-98242380D02*
X144835714Y-97242380D01*
X145216666Y-97242380D01*
X145311904Y-97290000D01*
X145359523Y-97337619D01*
X145407142Y-97432857D01*
X145407142Y-97575714D01*
X145359523Y-97670952D01*
X145311904Y-97718571D01*
X145216666Y-97766190D01*
X144835714Y-97766190D01*
X146359523Y-98242380D02*
X145788095Y-98242380D01*
X146073809Y-98242380D02*
X146073809Y-97242380D01*
X145978571Y-97385238D01*
X145883333Y-97480476D01*
X145788095Y-97528095D01*
X146978571Y-97242380D02*
X147073809Y-97242380D01*
X147169047Y-97290000D01*
X147216666Y-97337619D01*
X147264285Y-97432857D01*
X147311904Y-97623333D01*
X147311904Y-97861428D01*
X147264285Y-98051904D01*
X147216666Y-98147142D01*
X147169047Y-98194761D01*
X147073809Y-98242380D01*
X146978571Y-98242380D01*
X146883333Y-98194761D01*
X146835714Y-98147142D01*
X146788095Y-98051904D01*
X146740476Y-97861428D01*
X146740476Y-97623333D01*
X146788095Y-97432857D01*
X146835714Y-97337619D01*
X146883333Y-97290000D01*
X146978571Y-97242380D01*
%TO.C,R9*%
X142073333Y-98242380D02*
X141740000Y-97766190D01*
X141501904Y-98242380D02*
X141501904Y-97242380D01*
X141882857Y-97242380D01*
X141978095Y-97290000D01*
X142025714Y-97337619D01*
X142073333Y-97432857D01*
X142073333Y-97575714D01*
X142025714Y-97670952D01*
X141978095Y-97718571D01*
X141882857Y-97766190D01*
X141501904Y-97766190D01*
X142549523Y-98242380D02*
X142740000Y-98242380D01*
X142835238Y-98194761D01*
X142882857Y-98147142D01*
X142978095Y-98004285D01*
X143025714Y-97813809D01*
X143025714Y-97432857D01*
X142978095Y-97337619D01*
X142930476Y-97290000D01*
X142835238Y-97242380D01*
X142644761Y-97242380D01*
X142549523Y-97290000D01*
X142501904Y-97337619D01*
X142454285Y-97432857D01*
X142454285Y-97670952D01*
X142501904Y-97766190D01*
X142549523Y-97813809D01*
X142644761Y-97861428D01*
X142835238Y-97861428D01*
X142930476Y-97813809D01*
X142978095Y-97766190D01*
X143025714Y-97670952D01*
%TO.C,R8*%
X135088333Y-103322380D02*
X134755000Y-102846190D01*
X134516904Y-103322380D02*
X134516904Y-102322380D01*
X134897857Y-102322380D01*
X134993095Y-102370000D01*
X135040714Y-102417619D01*
X135088333Y-102512857D01*
X135088333Y-102655714D01*
X135040714Y-102750952D01*
X134993095Y-102798571D01*
X134897857Y-102846190D01*
X134516904Y-102846190D01*
X135659761Y-102750952D02*
X135564523Y-102703333D01*
X135516904Y-102655714D01*
X135469285Y-102560476D01*
X135469285Y-102512857D01*
X135516904Y-102417619D01*
X135564523Y-102370000D01*
X135659761Y-102322380D01*
X135850238Y-102322380D01*
X135945476Y-102370000D01*
X135993095Y-102417619D01*
X136040714Y-102512857D01*
X136040714Y-102560476D01*
X135993095Y-102655714D01*
X135945476Y-102703333D01*
X135850238Y-102750952D01*
X135659761Y-102750952D01*
X135564523Y-102798571D01*
X135516904Y-102846190D01*
X135469285Y-102941428D01*
X135469285Y-103131904D01*
X135516904Y-103227142D01*
X135564523Y-103274761D01*
X135659761Y-103322380D01*
X135850238Y-103322380D01*
X135945476Y-103274761D01*
X135993095Y-103227142D01*
X136040714Y-103131904D01*
X136040714Y-102941428D01*
X135993095Y-102846190D01*
X135945476Y-102798571D01*
X135850238Y-102750952D01*
%TO.C,R7*%
X127707380Y-102401666D02*
X127231190Y-102735000D01*
X127707380Y-102973095D02*
X126707380Y-102973095D01*
X126707380Y-102592142D01*
X126755000Y-102496904D01*
X126802619Y-102449285D01*
X126897857Y-102401666D01*
X127040714Y-102401666D01*
X127135952Y-102449285D01*
X127183571Y-102496904D01*
X127231190Y-102592142D01*
X127231190Y-102973095D01*
X126707380Y-102068333D02*
X126707380Y-101401666D01*
X127707380Y-101830238D01*
%TO.C,R6*%
X157313333Y-126182380D02*
X156980000Y-125706190D01*
X156741904Y-126182380D02*
X156741904Y-125182380D01*
X157122857Y-125182380D01*
X157218095Y-125230000D01*
X157265714Y-125277619D01*
X157313333Y-125372857D01*
X157313333Y-125515714D01*
X157265714Y-125610952D01*
X157218095Y-125658571D01*
X157122857Y-125706190D01*
X156741904Y-125706190D01*
X158170476Y-125182380D02*
X157980000Y-125182380D01*
X157884761Y-125230000D01*
X157837142Y-125277619D01*
X157741904Y-125420476D01*
X157694285Y-125610952D01*
X157694285Y-125991904D01*
X157741904Y-126087142D01*
X157789523Y-126134761D01*
X157884761Y-126182380D01*
X158075238Y-126182380D01*
X158170476Y-126134761D01*
X158218095Y-126087142D01*
X158265714Y-125991904D01*
X158265714Y-125753809D01*
X158218095Y-125658571D01*
X158170476Y-125610952D01*
X158075238Y-125563333D01*
X157884761Y-125563333D01*
X157789523Y-125610952D01*
X157741904Y-125658571D01*
X157694285Y-125753809D01*
%TO.C,R5*%
X153503333Y-126182380D02*
X153170000Y-125706190D01*
X152931904Y-126182380D02*
X152931904Y-125182380D01*
X153312857Y-125182380D01*
X153408095Y-125230000D01*
X153455714Y-125277619D01*
X153503333Y-125372857D01*
X153503333Y-125515714D01*
X153455714Y-125610952D01*
X153408095Y-125658571D01*
X153312857Y-125706190D01*
X152931904Y-125706190D01*
X154408095Y-125182380D02*
X153931904Y-125182380D01*
X153884285Y-125658571D01*
X153931904Y-125610952D01*
X154027142Y-125563333D01*
X154265238Y-125563333D01*
X154360476Y-125610952D01*
X154408095Y-125658571D01*
X154455714Y-125753809D01*
X154455714Y-125991904D01*
X154408095Y-126087142D01*
X154360476Y-126134761D01*
X154265238Y-126182380D01*
X154027142Y-126182380D01*
X153931904Y-126134761D01*
X153884285Y-126087142D01*
%TO.C,R4*%
X149693333Y-126182380D02*
X149360000Y-125706190D01*
X149121904Y-126182380D02*
X149121904Y-125182380D01*
X149502857Y-125182380D01*
X149598095Y-125230000D01*
X149645714Y-125277619D01*
X149693333Y-125372857D01*
X149693333Y-125515714D01*
X149645714Y-125610952D01*
X149598095Y-125658571D01*
X149502857Y-125706190D01*
X149121904Y-125706190D01*
X150550476Y-125515714D02*
X150550476Y-126182380D01*
X150312380Y-125134761D02*
X150074285Y-125849047D01*
X150693333Y-125849047D01*
%TO.C,R3*%
X145883333Y-120467380D02*
X145550000Y-119991190D01*
X145311904Y-120467380D02*
X145311904Y-119467380D01*
X145692857Y-119467380D01*
X145788095Y-119515000D01*
X145835714Y-119562619D01*
X145883333Y-119657857D01*
X145883333Y-119800714D01*
X145835714Y-119895952D01*
X145788095Y-119943571D01*
X145692857Y-119991190D01*
X145311904Y-119991190D01*
X146216666Y-119467380D02*
X146835714Y-119467380D01*
X146502380Y-119848333D01*
X146645238Y-119848333D01*
X146740476Y-119895952D01*
X146788095Y-119943571D01*
X146835714Y-120038809D01*
X146835714Y-120276904D01*
X146788095Y-120372142D01*
X146740476Y-120419761D01*
X146645238Y-120467380D01*
X146359523Y-120467380D01*
X146264285Y-120419761D01*
X146216666Y-120372142D01*
%TO.C,R2*%
X142073333Y-120467380D02*
X141740000Y-119991190D01*
X141501904Y-120467380D02*
X141501904Y-119467380D01*
X141882857Y-119467380D01*
X141978095Y-119515000D01*
X142025714Y-119562619D01*
X142073333Y-119657857D01*
X142073333Y-119800714D01*
X142025714Y-119895952D01*
X141978095Y-119943571D01*
X141882857Y-119991190D01*
X141501904Y-119991190D01*
X142454285Y-119562619D02*
X142501904Y-119515000D01*
X142597142Y-119467380D01*
X142835238Y-119467380D01*
X142930476Y-119515000D01*
X142978095Y-119562619D01*
X143025714Y-119657857D01*
X143025714Y-119753095D01*
X142978095Y-119895952D01*
X142406666Y-120467380D01*
X143025714Y-120467380D01*
%TO.C,R1*%
X135088333Y-125547380D02*
X134755000Y-125071190D01*
X134516904Y-125547380D02*
X134516904Y-124547380D01*
X134897857Y-124547380D01*
X134993095Y-124595000D01*
X135040714Y-124642619D01*
X135088333Y-124737857D01*
X135088333Y-124880714D01*
X135040714Y-124975952D01*
X134993095Y-125023571D01*
X134897857Y-125071190D01*
X134516904Y-125071190D01*
X136040714Y-125547380D02*
X135469285Y-125547380D01*
X135755000Y-125547380D02*
X135755000Y-124547380D01*
X135659761Y-124690238D01*
X135564523Y-124785476D01*
X135469285Y-124833095D01*
%TO.C,R0*%
X127707380Y-124626666D02*
X127231190Y-124960000D01*
X127707380Y-125198095D02*
X126707380Y-125198095D01*
X126707380Y-124817142D01*
X126755000Y-124721904D01*
X126802619Y-124674285D01*
X126897857Y-124626666D01*
X127040714Y-124626666D01*
X127135952Y-124674285D01*
X127183571Y-124721904D01*
X127231190Y-124817142D01*
X127231190Y-125198095D01*
X126707380Y-124007619D02*
X126707380Y-123912380D01*
X126755000Y-123817142D01*
X126802619Y-123769523D01*
X126897857Y-123721904D01*
X127088333Y-123674285D01*
X127326428Y-123674285D01*
X127516904Y-123721904D01*
X127612142Y-123769523D01*
X127659761Y-123817142D01*
X127707380Y-123912380D01*
X127707380Y-124007619D01*
X127659761Y-124102857D01*
X127612142Y-124150476D01*
X127516904Y-124198095D01*
X127326428Y-124245714D01*
X127088333Y-124245714D01*
X126897857Y-124198095D01*
X126802619Y-124150476D01*
X126755000Y-124102857D01*
X126707380Y-124007619D01*
%TO.C,J0*%
X145247857Y-67738571D02*
X145190714Y-67795714D01*
X145019285Y-67852857D01*
X144905000Y-67852857D01*
X144733571Y-67795714D01*
X144619285Y-67681428D01*
X144562142Y-67567142D01*
X144505000Y-67338571D01*
X144505000Y-67167142D01*
X144562142Y-66938571D01*
X144619285Y-66824285D01*
X144733571Y-66710000D01*
X144905000Y-66652857D01*
X145019285Y-66652857D01*
X145190714Y-66710000D01*
X145247857Y-66767142D01*
X145705000Y-67510000D02*
X146276428Y-67510000D01*
X145590714Y-67852857D02*
X145990714Y-66652857D01*
X146390714Y-67852857D01*
X147476428Y-67852857D02*
X147076428Y-67281428D01*
X146790714Y-67852857D02*
X146790714Y-66652857D01*
X147247857Y-66652857D01*
X147362142Y-66710000D01*
X147419285Y-66767142D01*
X147476428Y-66881428D01*
X147476428Y-67052857D01*
X147419285Y-67167142D01*
X147362142Y-67224285D01*
X147247857Y-67281428D01*
X146790714Y-67281428D01*
X148676428Y-67852857D02*
X148276428Y-67281428D01*
X147990714Y-67852857D02*
X147990714Y-66652857D01*
X148447857Y-66652857D01*
X148562142Y-66710000D01*
X148619285Y-66767142D01*
X148676428Y-66881428D01*
X148676428Y-67052857D01*
X148619285Y-67167142D01*
X148562142Y-67224285D01*
X148447857Y-67281428D01*
X147990714Y-67281428D01*
X149190714Y-67852857D02*
X149190714Y-66652857D01*
X149705000Y-67510000D02*
X150276428Y-67510000D01*
X149590714Y-67852857D02*
X149990714Y-66652857D01*
X150390714Y-67852857D01*
X151419285Y-66710000D02*
X151305000Y-66652857D01*
X151133571Y-66652857D01*
X150962142Y-66710000D01*
X150847857Y-66824285D01*
X150790714Y-66938571D01*
X150733571Y-67167142D01*
X150733571Y-67338571D01*
X150790714Y-67567142D01*
X150847857Y-67681428D01*
X150962142Y-67795714D01*
X151133571Y-67852857D01*
X151247857Y-67852857D01*
X151419285Y-67795714D01*
X151476428Y-67738571D01*
X151476428Y-67338571D01*
X151247857Y-67338571D01*
X151990714Y-67224285D02*
X152390714Y-67224285D01*
X152562142Y-67852857D02*
X151990714Y-67852857D01*
X151990714Y-66652857D01*
X152562142Y-66652857D01*
X154676428Y-67738571D02*
X154619285Y-67795714D01*
X154447857Y-67852857D01*
X154333571Y-67852857D01*
X154162142Y-67795714D01*
X154047857Y-67681428D01*
X153990714Y-67567142D01*
X153933571Y-67338571D01*
X153933571Y-67167142D01*
X153990714Y-66938571D01*
X154047857Y-66824285D01*
X154162142Y-66710000D01*
X154333571Y-66652857D01*
X154447857Y-66652857D01*
X154619285Y-66710000D01*
X154676428Y-66767142D01*
X155419285Y-66652857D02*
X155647857Y-66652857D01*
X155762142Y-66710000D01*
X155876428Y-66824285D01*
X155933571Y-67052857D01*
X155933571Y-67452857D01*
X155876428Y-67681428D01*
X155762142Y-67795714D01*
X155647857Y-67852857D01*
X155419285Y-67852857D01*
X155305000Y-67795714D01*
X155190714Y-67681428D01*
X155133571Y-67452857D01*
X155133571Y-67052857D01*
X155190714Y-66824285D01*
X155305000Y-66710000D01*
X155419285Y-66652857D01*
X156447857Y-67852857D02*
X156447857Y-66652857D01*
X157133571Y-67852857D01*
X157133571Y-66652857D01*
X157705000Y-67852857D02*
X157705000Y-66652857D01*
X158390714Y-67852857D01*
X158390714Y-66652857D01*
X158962142Y-67224285D02*
X159362142Y-67224285D01*
X159533571Y-67852857D02*
X158962142Y-67852857D01*
X158962142Y-66652857D01*
X159533571Y-66652857D01*
X160733571Y-67738571D02*
X160676428Y-67795714D01*
X160505000Y-67852857D01*
X160390714Y-67852857D01*
X160219285Y-67795714D01*
X160105000Y-67681428D01*
X160047857Y-67567142D01*
X159990714Y-67338571D01*
X159990714Y-67167142D01*
X160047857Y-66938571D01*
X160105000Y-66824285D01*
X160219285Y-66710000D01*
X160390714Y-66652857D01*
X160505000Y-66652857D01*
X160676428Y-66710000D01*
X160733571Y-66767142D01*
X161076428Y-66652857D02*
X161762142Y-66652857D01*
X161419285Y-67852857D02*
X161419285Y-66652857D01*
X162390714Y-66652857D02*
X162619285Y-66652857D01*
X162733571Y-66710000D01*
X162847857Y-66824285D01*
X162905000Y-67052857D01*
X162905000Y-67452857D01*
X162847857Y-67681428D01*
X162733571Y-67795714D01*
X162619285Y-67852857D01*
X162390714Y-67852857D01*
X162276428Y-67795714D01*
X162162142Y-67681428D01*
X162105000Y-67452857D01*
X162105000Y-67052857D01*
X162162142Y-66824285D01*
X162276428Y-66710000D01*
X162390714Y-66652857D01*
X164105000Y-67852857D02*
X163705000Y-67281428D01*
X163419285Y-67852857D02*
X163419285Y-66652857D01*
X163876428Y-66652857D01*
X163990714Y-66710000D01*
X164047857Y-66767142D01*
X164105000Y-66881428D01*
X164105000Y-67052857D01*
X164047857Y-67167142D01*
X163990714Y-67224285D01*
X163876428Y-67281428D01*
X163419285Y-67281428D01*
X142113095Y-64317619D02*
X142160714Y-64270000D01*
X142255952Y-64222380D01*
X142494047Y-64222380D01*
X142589285Y-64270000D01*
X142636904Y-64317619D01*
X142684523Y-64412857D01*
X142684523Y-64508095D01*
X142636904Y-64650952D01*
X142065476Y-65222380D01*
X142684523Y-65222380D01*
X143303571Y-64222380D02*
X143398809Y-64222380D01*
X143494047Y-64270000D01*
X143541666Y-64317619D01*
X143589285Y-64412857D01*
X143636904Y-64603333D01*
X143636904Y-64841428D01*
X143589285Y-65031904D01*
X143541666Y-65127142D01*
X143494047Y-65174761D01*
X143398809Y-65222380D01*
X143303571Y-65222380D01*
X143208333Y-65174761D01*
X143160714Y-65127142D01*
X143113095Y-65031904D01*
X143065476Y-64841428D01*
X143065476Y-64603333D01*
X143113095Y-64412857D01*
X143160714Y-64317619D01*
X143208333Y-64270000D01*
X143303571Y-64222380D01*
X166020714Y-65222380D02*
X165449285Y-65222380D01*
X165735000Y-65222380D02*
X165735000Y-64222380D01*
X165639761Y-64365238D01*
X165544523Y-64460476D01*
X165449285Y-64508095D01*
%TO.C,J9*%
X141490000Y-139134285D02*
X141090000Y-139134285D01*
X141090000Y-139762857D02*
X141090000Y-138562857D01*
X141661428Y-138562857D01*
X142061428Y-139420000D02*
X142632857Y-139420000D01*
X141947142Y-139762857D02*
X142347142Y-138562857D01*
X142747142Y-139762857D01*
X143147142Y-139762857D02*
X143147142Y-138562857D01*
X143832857Y-139762857D01*
X143832857Y-138562857D01*
X145547142Y-138562857D02*
X145661428Y-138562857D01*
X145775714Y-138620000D01*
X145832857Y-138677142D01*
X145890000Y-138791428D01*
X145947142Y-139020000D01*
X145947142Y-139305714D01*
X145890000Y-139534285D01*
X145832857Y-139648571D01*
X145775714Y-139705714D01*
X145661428Y-139762857D01*
X145547142Y-139762857D01*
X145432857Y-139705714D01*
X145375714Y-139648571D01*
X145318571Y-139534285D01*
X145261428Y-139305714D01*
X145261428Y-139020000D01*
X145318571Y-138791428D01*
X145375714Y-138677142D01*
X145432857Y-138620000D01*
X145547142Y-138562857D01*
%TO.C,Z3*%
X182162571Y-78082857D02*
X182962571Y-78082857D01*
X182162571Y-79282857D01*
X182962571Y-79282857D01*
X183305428Y-78082857D02*
X184048285Y-78082857D01*
X183648285Y-78540000D01*
X183819714Y-78540000D01*
X183934000Y-78597142D01*
X183991142Y-78654285D01*
X184048285Y-78768571D01*
X184048285Y-79054285D01*
X183991142Y-79168571D01*
X183934000Y-79225714D01*
X183819714Y-79282857D01*
X183476857Y-79282857D01*
X183362571Y-79225714D01*
X183305428Y-79168571D01*
%TO.C,Z2*%
X178733571Y-78082857D02*
X179533571Y-78082857D01*
X178733571Y-79282857D01*
X179533571Y-79282857D01*
X179933571Y-78197142D02*
X179990714Y-78140000D01*
X180105000Y-78082857D01*
X180390714Y-78082857D01*
X180505000Y-78140000D01*
X180562142Y-78197142D01*
X180619285Y-78311428D01*
X180619285Y-78425714D01*
X180562142Y-78597142D01*
X179876428Y-79282857D01*
X180619285Y-79282857D01*
%TO.C,Z1*%
X166523571Y-70716857D02*
X167323571Y-70716857D01*
X166523571Y-71916857D01*
X167323571Y-71916857D01*
X168409285Y-71916857D02*
X167723571Y-71916857D01*
X168066428Y-71916857D02*
X168066428Y-70716857D01*
X167952142Y-70888285D01*
X167837857Y-71002571D01*
X167723571Y-71059714D01*
%TO.C,Z0*%
X166523571Y-67287857D02*
X167323571Y-67287857D01*
X166523571Y-68487857D01*
X167323571Y-68487857D01*
X168009285Y-67287857D02*
X168123571Y-67287857D01*
X168237857Y-67345000D01*
X168295000Y-67402142D01*
X168352142Y-67516428D01*
X168409285Y-67745000D01*
X168409285Y-68030714D01*
X168352142Y-68259285D01*
X168295000Y-68373571D01*
X168237857Y-68430714D01*
X168123571Y-68487857D01*
X168009285Y-68487857D01*
X167895000Y-68430714D01*
X167837857Y-68373571D01*
X167780714Y-68259285D01*
X167723571Y-68030714D01*
X167723571Y-67745000D01*
X167780714Y-67516428D01*
X167837857Y-67402142D01*
X167895000Y-67345000D01*
X168009285Y-67287857D01*
%TO.C,Q6*%
X150380714Y-76222142D02*
X150266428Y-76165000D01*
X150152142Y-76050714D01*
X149980714Y-75879285D01*
X149866428Y-75822142D01*
X149752142Y-75822142D01*
X149809285Y-76107857D02*
X149695000Y-76050714D01*
X149580714Y-75936428D01*
X149523571Y-75707857D01*
X149523571Y-75307857D01*
X149580714Y-75079285D01*
X149695000Y-74965000D01*
X149809285Y-74907857D01*
X150037857Y-74907857D01*
X150152142Y-74965000D01*
X150266428Y-75079285D01*
X150323571Y-75307857D01*
X150323571Y-75707857D01*
X150266428Y-75936428D01*
X150152142Y-76050714D01*
X150037857Y-76107857D01*
X149809285Y-76107857D01*
X151352142Y-74907857D02*
X151123571Y-74907857D01*
X151009285Y-74965000D01*
X150952142Y-75022142D01*
X150837857Y-75193571D01*
X150780714Y-75422142D01*
X150780714Y-75879285D01*
X150837857Y-75993571D01*
X150895000Y-76050714D01*
X151009285Y-76107857D01*
X151237857Y-76107857D01*
X151352142Y-76050714D01*
X151409285Y-75993571D01*
X151466428Y-75879285D01*
X151466428Y-75593571D01*
X151409285Y-75479285D01*
X151352142Y-75422142D01*
X151237857Y-75365000D01*
X151009285Y-75365000D01*
X150895000Y-75422142D01*
X150837857Y-75479285D01*
X150780714Y-75593571D01*
%TO.C,Q3*%
X150380714Y-98447142D02*
X150266428Y-98390000D01*
X150152142Y-98275714D01*
X149980714Y-98104285D01*
X149866428Y-98047142D01*
X149752142Y-98047142D01*
X149809285Y-98332857D02*
X149695000Y-98275714D01*
X149580714Y-98161428D01*
X149523571Y-97932857D01*
X149523571Y-97532857D01*
X149580714Y-97304285D01*
X149695000Y-97190000D01*
X149809285Y-97132857D01*
X150037857Y-97132857D01*
X150152142Y-97190000D01*
X150266428Y-97304285D01*
X150323571Y-97532857D01*
X150323571Y-97932857D01*
X150266428Y-98161428D01*
X150152142Y-98275714D01*
X150037857Y-98332857D01*
X149809285Y-98332857D01*
X150723571Y-97132857D02*
X151466428Y-97132857D01*
X151066428Y-97590000D01*
X151237857Y-97590000D01*
X151352142Y-97647142D01*
X151409285Y-97704285D01*
X151466428Y-97818571D01*
X151466428Y-98104285D01*
X151409285Y-98218571D01*
X151352142Y-98275714D01*
X151237857Y-98332857D01*
X150895000Y-98332857D01*
X150780714Y-98275714D01*
X150723571Y-98218571D01*
%TO.C,Q0*%
X150380714Y-120672142D02*
X150266428Y-120615000D01*
X150152142Y-120500714D01*
X149980714Y-120329285D01*
X149866428Y-120272142D01*
X149752142Y-120272142D01*
X149809285Y-120557857D02*
X149695000Y-120500714D01*
X149580714Y-120386428D01*
X149523571Y-120157857D01*
X149523571Y-119757857D01*
X149580714Y-119529285D01*
X149695000Y-119415000D01*
X149809285Y-119357857D01*
X150037857Y-119357857D01*
X150152142Y-119415000D01*
X150266428Y-119529285D01*
X150323571Y-119757857D01*
X150323571Y-120157857D01*
X150266428Y-120386428D01*
X150152142Y-120500714D01*
X150037857Y-120557857D01*
X149809285Y-120557857D01*
X151066428Y-119357857D02*
X151180714Y-119357857D01*
X151295000Y-119415000D01*
X151352142Y-119472142D01*
X151409285Y-119586428D01*
X151466428Y-119815000D01*
X151466428Y-120100714D01*
X151409285Y-120329285D01*
X151352142Y-120443571D01*
X151295000Y-120500714D01*
X151180714Y-120557857D01*
X151066428Y-120557857D01*
X150952142Y-120500714D01*
X150895000Y-120443571D01*
X150837857Y-120329285D01*
X150780714Y-120100714D01*
X150780714Y-119815000D01*
X150837857Y-119586428D01*
X150895000Y-119472142D01*
X150952142Y-119415000D01*
X151066428Y-119357857D01*
%TO.C,J14*%
X126907857Y-132711428D02*
X125707857Y-132711428D01*
X125707857Y-132425714D01*
X125765000Y-132254285D01*
X125879285Y-132140000D01*
X125993571Y-132082857D01*
X126222142Y-132025714D01*
X126393571Y-132025714D01*
X126622142Y-132082857D01*
X126736428Y-132140000D01*
X126850714Y-132254285D01*
X126907857Y-132425714D01*
X126907857Y-132711428D01*
X125707857Y-131282857D02*
X125707857Y-131054285D01*
X125765000Y-130940000D01*
X125879285Y-130825714D01*
X126107857Y-130768571D01*
X126507857Y-130768571D01*
X126736428Y-130825714D01*
X126850714Y-130940000D01*
X126907857Y-131054285D01*
X126907857Y-131282857D01*
X126850714Y-131397142D01*
X126736428Y-131511428D01*
X126507857Y-131568571D01*
X126107857Y-131568571D01*
X125879285Y-131511428D01*
X125765000Y-131397142D01*
X125707857Y-131282857D01*
X126793571Y-129568571D02*
X126850714Y-129625714D01*
X126907857Y-129797142D01*
X126907857Y-129911428D01*
X126850714Y-130082857D01*
X126736428Y-130197142D01*
X126622142Y-130254285D01*
X126393571Y-130311428D01*
X126222142Y-130311428D01*
X125993571Y-130254285D01*
X125879285Y-130197142D01*
X125765000Y-130082857D01*
X125707857Y-129911428D01*
X125707857Y-129797142D01*
X125765000Y-129625714D01*
X125822142Y-129568571D01*
X126907857Y-129054285D02*
X125707857Y-129054285D01*
X126907857Y-128368571D02*
X126222142Y-128882857D01*
X125707857Y-128368571D02*
X126393571Y-129054285D01*
X125707857Y-126711428D02*
X125707857Y-126597142D01*
X125765000Y-126482857D01*
X125822142Y-126425714D01*
X125936428Y-126368571D01*
X126165000Y-126311428D01*
X126450714Y-126311428D01*
X126679285Y-126368571D01*
X126793571Y-126425714D01*
X126850714Y-126482857D01*
X126907857Y-126597142D01*
X126907857Y-126711428D01*
X126850714Y-126825714D01*
X126793571Y-126882857D01*
X126679285Y-126940000D01*
X126450714Y-126997142D01*
X126165000Y-126997142D01*
X125936428Y-126940000D01*
X125822142Y-126882857D01*
X125765000Y-126825714D01*
X125707857Y-126711428D01*
%TO.C,Q7*%
X156095714Y-76222142D02*
X155981428Y-76165000D01*
X155867142Y-76050714D01*
X155695714Y-75879285D01*
X155581428Y-75822142D01*
X155467142Y-75822142D01*
X155524285Y-76107857D02*
X155410000Y-76050714D01*
X155295714Y-75936428D01*
X155238571Y-75707857D01*
X155238571Y-75307857D01*
X155295714Y-75079285D01*
X155410000Y-74965000D01*
X155524285Y-74907857D01*
X155752857Y-74907857D01*
X155867142Y-74965000D01*
X155981428Y-75079285D01*
X156038571Y-75307857D01*
X156038571Y-75707857D01*
X155981428Y-75936428D01*
X155867142Y-76050714D01*
X155752857Y-76107857D01*
X155524285Y-76107857D01*
X156438571Y-74907857D02*
X157238571Y-74907857D01*
X156724285Y-76107857D01*
%TO.C,Q4*%
X156095714Y-98447142D02*
X155981428Y-98390000D01*
X155867142Y-98275714D01*
X155695714Y-98104285D01*
X155581428Y-98047142D01*
X155467142Y-98047142D01*
X155524285Y-98332857D02*
X155410000Y-98275714D01*
X155295714Y-98161428D01*
X155238571Y-97932857D01*
X155238571Y-97532857D01*
X155295714Y-97304285D01*
X155410000Y-97190000D01*
X155524285Y-97132857D01*
X155752857Y-97132857D01*
X155867142Y-97190000D01*
X155981428Y-97304285D01*
X156038571Y-97532857D01*
X156038571Y-97932857D01*
X155981428Y-98161428D01*
X155867142Y-98275714D01*
X155752857Y-98332857D01*
X155524285Y-98332857D01*
X157067142Y-97532857D02*
X157067142Y-98332857D01*
X156781428Y-97075714D02*
X156495714Y-97932857D01*
X157238571Y-97932857D01*
%TO.C,Q8*%
X164350714Y-76857142D02*
X164236428Y-76800000D01*
X164122142Y-76685714D01*
X163950714Y-76514285D01*
X163836428Y-76457142D01*
X163722142Y-76457142D01*
X163779285Y-76742857D02*
X163665000Y-76685714D01*
X163550714Y-76571428D01*
X163493571Y-76342857D01*
X163493571Y-75942857D01*
X163550714Y-75714285D01*
X163665000Y-75600000D01*
X163779285Y-75542857D01*
X164007857Y-75542857D01*
X164122142Y-75600000D01*
X164236428Y-75714285D01*
X164293571Y-75942857D01*
X164293571Y-76342857D01*
X164236428Y-76571428D01*
X164122142Y-76685714D01*
X164007857Y-76742857D01*
X163779285Y-76742857D01*
X164979285Y-76057142D02*
X164865000Y-76000000D01*
X164807857Y-75942857D01*
X164750714Y-75828571D01*
X164750714Y-75771428D01*
X164807857Y-75657142D01*
X164865000Y-75600000D01*
X164979285Y-75542857D01*
X165207857Y-75542857D01*
X165322142Y-75600000D01*
X165379285Y-75657142D01*
X165436428Y-75771428D01*
X165436428Y-75828571D01*
X165379285Y-75942857D01*
X165322142Y-76000000D01*
X165207857Y-76057142D01*
X164979285Y-76057142D01*
X164865000Y-76114285D01*
X164807857Y-76171428D01*
X164750714Y-76285714D01*
X164750714Y-76514285D01*
X164807857Y-76628571D01*
X164865000Y-76685714D01*
X164979285Y-76742857D01*
X165207857Y-76742857D01*
X165322142Y-76685714D01*
X165379285Y-76628571D01*
X165436428Y-76514285D01*
X165436428Y-76285714D01*
X165379285Y-76171428D01*
X165322142Y-76114285D01*
X165207857Y-76057142D01*
%TO.C,Q5*%
X164350714Y-99082142D02*
X164236428Y-99025000D01*
X164122142Y-98910714D01*
X163950714Y-98739285D01*
X163836428Y-98682142D01*
X163722142Y-98682142D01*
X163779285Y-98967857D02*
X163665000Y-98910714D01*
X163550714Y-98796428D01*
X163493571Y-98567857D01*
X163493571Y-98167857D01*
X163550714Y-97939285D01*
X163665000Y-97825000D01*
X163779285Y-97767857D01*
X164007857Y-97767857D01*
X164122142Y-97825000D01*
X164236428Y-97939285D01*
X164293571Y-98167857D01*
X164293571Y-98567857D01*
X164236428Y-98796428D01*
X164122142Y-98910714D01*
X164007857Y-98967857D01*
X163779285Y-98967857D01*
X165379285Y-97767857D02*
X164807857Y-97767857D01*
X164750714Y-98339285D01*
X164807857Y-98282142D01*
X164922142Y-98225000D01*
X165207857Y-98225000D01*
X165322142Y-98282142D01*
X165379285Y-98339285D01*
X165436428Y-98453571D01*
X165436428Y-98739285D01*
X165379285Y-98853571D01*
X165322142Y-98910714D01*
X165207857Y-98967857D01*
X164922142Y-98967857D01*
X164807857Y-98910714D01*
X164750714Y-98853571D01*
%TO.C,Q2*%
X164350714Y-121307142D02*
X164236428Y-121250000D01*
X164122142Y-121135714D01*
X163950714Y-120964285D01*
X163836428Y-120907142D01*
X163722142Y-120907142D01*
X163779285Y-121192857D02*
X163665000Y-121135714D01*
X163550714Y-121021428D01*
X163493571Y-120792857D01*
X163493571Y-120392857D01*
X163550714Y-120164285D01*
X163665000Y-120050000D01*
X163779285Y-119992857D01*
X164007857Y-119992857D01*
X164122142Y-120050000D01*
X164236428Y-120164285D01*
X164293571Y-120392857D01*
X164293571Y-120792857D01*
X164236428Y-121021428D01*
X164122142Y-121135714D01*
X164007857Y-121192857D01*
X163779285Y-121192857D01*
X164750714Y-120107142D02*
X164807857Y-120050000D01*
X164922142Y-119992857D01*
X165207857Y-119992857D01*
X165322142Y-120050000D01*
X165379285Y-120107142D01*
X165436428Y-120221428D01*
X165436428Y-120335714D01*
X165379285Y-120507142D01*
X164693571Y-121192857D01*
X165436428Y-121192857D01*
%TO.C,J2*%
X156626428Y-139607857D02*
X156626428Y-138407857D01*
X156626428Y-138979285D02*
X157312142Y-138979285D01*
X157312142Y-139607857D02*
X157312142Y-138407857D01*
X157883571Y-138979285D02*
X158283571Y-138979285D01*
X158455000Y-139607857D02*
X157883571Y-139607857D01*
X157883571Y-138407857D01*
X158455000Y-138407857D01*
X158912142Y-139265000D02*
X159483571Y-139265000D01*
X158797857Y-139607857D02*
X159197857Y-138407857D01*
X159597857Y-139607857D01*
X159826428Y-138407857D02*
X160512142Y-138407857D01*
X160169285Y-139607857D02*
X160169285Y-138407857D01*
X160912142Y-138979285D02*
X161312142Y-138979285D01*
X161483571Y-139607857D02*
X160912142Y-139607857D01*
X160912142Y-138407857D01*
X161483571Y-138407857D01*
X162683571Y-139607857D02*
X162283571Y-139036428D01*
X161997857Y-139607857D02*
X161997857Y-138407857D01*
X162455000Y-138407857D01*
X162569285Y-138465000D01*
X162626428Y-138522142D01*
X162683571Y-138636428D01*
X162683571Y-138807857D01*
X162626428Y-138922142D01*
X162569285Y-138979285D01*
X162455000Y-139036428D01*
X161997857Y-139036428D01*
X164340714Y-138407857D02*
X164455000Y-138407857D01*
X164569285Y-138465000D01*
X164626428Y-138522142D01*
X164683571Y-138636428D01*
X164740714Y-138865000D01*
X164740714Y-139150714D01*
X164683571Y-139379285D01*
X164626428Y-139493571D01*
X164569285Y-139550714D01*
X164455000Y-139607857D01*
X164340714Y-139607857D01*
X164226428Y-139550714D01*
X164169285Y-139493571D01*
X164112142Y-139379285D01*
X164055000Y-139150714D01*
X164055000Y-138865000D01*
X164112142Y-138636428D01*
X164169285Y-138522142D01*
X164226428Y-138465000D01*
X164340714Y-138407857D01*
%TO.C,Q1*%
X156095714Y-120672142D02*
X155981428Y-120615000D01*
X155867142Y-120500714D01*
X155695714Y-120329285D01*
X155581428Y-120272142D01*
X155467142Y-120272142D01*
X155524285Y-120557857D02*
X155410000Y-120500714D01*
X155295714Y-120386428D01*
X155238571Y-120157857D01*
X155238571Y-119757857D01*
X155295714Y-119529285D01*
X155410000Y-119415000D01*
X155524285Y-119357857D01*
X155752857Y-119357857D01*
X155867142Y-119415000D01*
X155981428Y-119529285D01*
X156038571Y-119757857D01*
X156038571Y-120157857D01*
X155981428Y-120386428D01*
X155867142Y-120500714D01*
X155752857Y-120557857D01*
X155524285Y-120557857D01*
X157181428Y-120557857D02*
X156495714Y-120557857D01*
X156838571Y-120557857D02*
X156838571Y-119357857D01*
X156724285Y-119529285D01*
X156610000Y-119643571D01*
X156495714Y-119700714D01*
%TO.C,J20*%
X108870000Y-75503714D02*
X108870000Y-76075142D01*
X108527142Y-75389428D02*
X109727142Y-75789428D01*
X108527142Y-76189428D01*
X109727142Y-76589428D02*
X108755714Y-76589428D01*
X108641428Y-76646571D01*
X108584285Y-76703714D01*
X108527142Y-76818000D01*
X108527142Y-77046571D01*
X108584285Y-77160857D01*
X108641428Y-77218000D01*
X108755714Y-77275142D01*
X109727142Y-77275142D01*
X109727142Y-77732285D02*
X108527142Y-78532285D01*
X109727142Y-78532285D02*
X108527142Y-77732285D01*
X109727142Y-80132285D02*
X109727142Y-80246571D01*
X109670000Y-80360857D01*
X109612857Y-80418000D01*
X109498571Y-80475142D01*
X109270000Y-80532285D01*
X108984285Y-80532285D01*
X108755714Y-80475142D01*
X108641428Y-80418000D01*
X108584285Y-80360857D01*
X108527142Y-80246571D01*
X108527142Y-80132285D01*
X108584285Y-80018000D01*
X108641428Y-79960857D01*
X108755714Y-79903714D01*
X108984285Y-79846571D01*
X109270000Y-79846571D01*
X109498571Y-79903714D01*
X109612857Y-79960857D01*
X109670000Y-80018000D01*
X109727142Y-80132285D01*
%TO.C,J17*%
X108607142Y-119050000D02*
X108607142Y-118478571D01*
X108035714Y-118421428D01*
X108092857Y-118478571D01*
X108150000Y-118592857D01*
X108150000Y-118878571D01*
X108092857Y-118992857D01*
X108035714Y-119050000D01*
X107921428Y-119107142D01*
X107635714Y-119107142D01*
X107521428Y-119050000D01*
X107464285Y-118992857D01*
X107407142Y-118878571D01*
X107407142Y-118592857D01*
X107464285Y-118478571D01*
X107521428Y-118421428D01*
X108607142Y-119450000D02*
X107407142Y-119850000D01*
X108607142Y-120250000D01*
X107407142Y-121564285D02*
X108607142Y-121564285D01*
X107407142Y-122135714D02*
X108607142Y-122135714D01*
X107407142Y-122821428D01*
X108607142Y-122821428D01*
%TO.C,J21*%
X108870000Y-91171714D02*
X108870000Y-91743142D01*
X108527142Y-91057428D02*
X109727142Y-91457428D01*
X108527142Y-91857428D01*
X109727142Y-92257428D02*
X108755714Y-92257428D01*
X108641428Y-92314571D01*
X108584285Y-92371714D01*
X108527142Y-92486000D01*
X108527142Y-92714571D01*
X108584285Y-92828857D01*
X108641428Y-92886000D01*
X108755714Y-92943142D01*
X109727142Y-92943142D01*
X109727142Y-93400285D02*
X108527142Y-94200285D01*
X109727142Y-94200285D02*
X108527142Y-93400285D01*
X108527142Y-96200285D02*
X108527142Y-95514571D01*
X108527142Y-95857428D02*
X109727142Y-95857428D01*
X109555714Y-95743142D01*
X109441428Y-95628857D01*
X109384285Y-95514571D01*
%TO.C,J22*%
X108870000Y-106792714D02*
X108870000Y-107364142D01*
X108527142Y-106678428D02*
X109727142Y-107078428D01*
X108527142Y-107478428D01*
X109727142Y-107878428D02*
X108755714Y-107878428D01*
X108641428Y-107935571D01*
X108584285Y-107992714D01*
X108527142Y-108107000D01*
X108527142Y-108335571D01*
X108584285Y-108449857D01*
X108641428Y-108507000D01*
X108755714Y-108564142D01*
X109727142Y-108564142D01*
X109727142Y-109021285D02*
X108527142Y-109821285D01*
X109727142Y-109821285D02*
X108527142Y-109021285D01*
X109612857Y-111135571D02*
X109670000Y-111192714D01*
X109727142Y-111307000D01*
X109727142Y-111592714D01*
X109670000Y-111707000D01*
X109612857Y-111764142D01*
X109498571Y-111821285D01*
X109384285Y-111821285D01*
X109212857Y-111764142D01*
X108527142Y-111078428D01*
X108527142Y-111821285D01*
%TO.C,J19*%
X121099285Y-64296857D02*
X121099285Y-63096857D01*
X121556428Y-63096857D01*
X121670714Y-63154000D01*
X121727857Y-63211142D01*
X121785000Y-63325428D01*
X121785000Y-63496857D01*
X121727857Y-63611142D01*
X121670714Y-63668285D01*
X121556428Y-63725428D01*
X121099285Y-63725428D01*
X122985000Y-64296857D02*
X122585000Y-63725428D01*
X122299285Y-64296857D02*
X122299285Y-63096857D01*
X122756428Y-63096857D01*
X122870714Y-63154000D01*
X122927857Y-63211142D01*
X122985000Y-63325428D01*
X122985000Y-63496857D01*
X122927857Y-63611142D01*
X122870714Y-63668285D01*
X122756428Y-63725428D01*
X122299285Y-63725428D01*
X123727857Y-63096857D02*
X123956428Y-63096857D01*
X124070714Y-63154000D01*
X124185000Y-63268285D01*
X124242142Y-63496857D01*
X124242142Y-63896857D01*
X124185000Y-64125428D01*
X124070714Y-64239714D01*
X123956428Y-64296857D01*
X123727857Y-64296857D01*
X123613571Y-64239714D01*
X123499285Y-64125428D01*
X123442142Y-63896857D01*
X123442142Y-63496857D01*
X123499285Y-63268285D01*
X123613571Y-63154000D01*
X123727857Y-63096857D01*
X125156428Y-63668285D02*
X125327857Y-63725428D01*
X125385000Y-63782571D01*
X125442142Y-63896857D01*
X125442142Y-64068285D01*
X125385000Y-64182571D01*
X125327857Y-64239714D01*
X125213571Y-64296857D01*
X124756428Y-64296857D01*
X124756428Y-63096857D01*
X125156428Y-63096857D01*
X125270714Y-63154000D01*
X125327857Y-63211142D01*
X125385000Y-63325428D01*
X125385000Y-63439714D01*
X125327857Y-63554000D01*
X125270714Y-63611142D01*
X125156428Y-63668285D01*
X124756428Y-63668285D01*
X125956428Y-63668285D02*
X126356428Y-63668285D01*
X126527857Y-64296857D02*
X125956428Y-64296857D01*
X125956428Y-63096857D01*
X126527857Y-63096857D01*
%TO.C,J18*%
X108607142Y-124663571D02*
X107407142Y-125063571D01*
X108607142Y-125463571D01*
X107407142Y-125863571D02*
X108607142Y-125863571D01*
X108607142Y-126149285D01*
X108550000Y-126320714D01*
X108435714Y-126435000D01*
X108321428Y-126492142D01*
X108092857Y-126549285D01*
X107921428Y-126549285D01*
X107692857Y-126492142D01*
X107578571Y-126435000D01*
X107464285Y-126320714D01*
X107407142Y-126149285D01*
X107407142Y-125863571D01*
X107521428Y-127749285D02*
X107464285Y-127692142D01*
X107407142Y-127520714D01*
X107407142Y-127406428D01*
X107464285Y-127235000D01*
X107578571Y-127120714D01*
X107692857Y-127063571D01*
X107921428Y-127006428D01*
X108092857Y-127006428D01*
X108321428Y-127063571D01*
X108435714Y-127120714D01*
X108550000Y-127235000D01*
X108607142Y-127406428D01*
X108607142Y-127520714D01*
X108550000Y-127692142D01*
X108492857Y-127749285D01*
X107407142Y-129177857D02*
X108607142Y-129177857D01*
X107407142Y-129749285D02*
X108607142Y-129749285D01*
X107407142Y-130435000D01*
X108607142Y-130435000D01*
%TO.C,J16*%
X126907857Y-88261428D02*
X125707857Y-88261428D01*
X125707857Y-87975714D01*
X125765000Y-87804285D01*
X125879285Y-87690000D01*
X125993571Y-87632857D01*
X126222142Y-87575714D01*
X126393571Y-87575714D01*
X126622142Y-87632857D01*
X126736428Y-87690000D01*
X126850714Y-87804285D01*
X126907857Y-87975714D01*
X126907857Y-88261428D01*
X125707857Y-86832857D02*
X125707857Y-86604285D01*
X125765000Y-86490000D01*
X125879285Y-86375714D01*
X126107857Y-86318571D01*
X126507857Y-86318571D01*
X126736428Y-86375714D01*
X126850714Y-86490000D01*
X126907857Y-86604285D01*
X126907857Y-86832857D01*
X126850714Y-86947142D01*
X126736428Y-87061428D01*
X126507857Y-87118571D01*
X126107857Y-87118571D01*
X125879285Y-87061428D01*
X125765000Y-86947142D01*
X125707857Y-86832857D01*
X126793571Y-85118571D02*
X126850714Y-85175714D01*
X126907857Y-85347142D01*
X126907857Y-85461428D01*
X126850714Y-85632857D01*
X126736428Y-85747142D01*
X126622142Y-85804285D01*
X126393571Y-85861428D01*
X126222142Y-85861428D01*
X125993571Y-85804285D01*
X125879285Y-85747142D01*
X125765000Y-85632857D01*
X125707857Y-85461428D01*
X125707857Y-85347142D01*
X125765000Y-85175714D01*
X125822142Y-85118571D01*
X126907857Y-84604285D02*
X125707857Y-84604285D01*
X126907857Y-83918571D02*
X126222142Y-84432857D01*
X125707857Y-83918571D02*
X126393571Y-84604285D01*
X125822142Y-82547142D02*
X125765000Y-82490000D01*
X125707857Y-82375714D01*
X125707857Y-82090000D01*
X125765000Y-81975714D01*
X125822142Y-81918571D01*
X125936428Y-81861428D01*
X126050714Y-81861428D01*
X126222142Y-81918571D01*
X126907857Y-82604285D01*
X126907857Y-81861428D01*
%TO.C,J15*%
X126907857Y-110486428D02*
X125707857Y-110486428D01*
X125707857Y-110200714D01*
X125765000Y-110029285D01*
X125879285Y-109915000D01*
X125993571Y-109857857D01*
X126222142Y-109800714D01*
X126393571Y-109800714D01*
X126622142Y-109857857D01*
X126736428Y-109915000D01*
X126850714Y-110029285D01*
X126907857Y-110200714D01*
X126907857Y-110486428D01*
X125707857Y-109057857D02*
X125707857Y-108829285D01*
X125765000Y-108715000D01*
X125879285Y-108600714D01*
X126107857Y-108543571D01*
X126507857Y-108543571D01*
X126736428Y-108600714D01*
X126850714Y-108715000D01*
X126907857Y-108829285D01*
X126907857Y-109057857D01*
X126850714Y-109172142D01*
X126736428Y-109286428D01*
X126507857Y-109343571D01*
X126107857Y-109343571D01*
X125879285Y-109286428D01*
X125765000Y-109172142D01*
X125707857Y-109057857D01*
X126793571Y-107343571D02*
X126850714Y-107400714D01*
X126907857Y-107572142D01*
X126907857Y-107686428D01*
X126850714Y-107857857D01*
X126736428Y-107972142D01*
X126622142Y-108029285D01*
X126393571Y-108086428D01*
X126222142Y-108086428D01*
X125993571Y-108029285D01*
X125879285Y-107972142D01*
X125765000Y-107857857D01*
X125707857Y-107686428D01*
X125707857Y-107572142D01*
X125765000Y-107400714D01*
X125822142Y-107343571D01*
X126907857Y-106829285D02*
X125707857Y-106829285D01*
X126907857Y-106143571D02*
X126222142Y-106657857D01*
X125707857Y-106143571D02*
X126393571Y-106829285D01*
X126907857Y-104086428D02*
X126907857Y-104772142D01*
X126907857Y-104429285D02*
X125707857Y-104429285D01*
X125879285Y-104543571D01*
X125993571Y-104657857D01*
X126050714Y-104772142D01*
%TO.C,J13*%
X141490000Y-94684285D02*
X141090000Y-94684285D01*
X141090000Y-95312857D02*
X141090000Y-94112857D01*
X141661428Y-94112857D01*
X142061428Y-94970000D02*
X142632857Y-94970000D01*
X141947142Y-95312857D02*
X142347142Y-94112857D01*
X142747142Y-95312857D01*
X143147142Y-95312857D02*
X143147142Y-94112857D01*
X143832857Y-95312857D01*
X143832857Y-94112857D01*
X145261428Y-94227142D02*
X145318571Y-94170000D01*
X145432857Y-94112857D01*
X145718571Y-94112857D01*
X145832857Y-94170000D01*
X145890000Y-94227142D01*
X145947142Y-94341428D01*
X145947142Y-94455714D01*
X145890000Y-94627142D01*
X145204285Y-95312857D01*
X145947142Y-95312857D01*
%TO.C,J12*%
X139046428Y-78717857D02*
X139732142Y-78717857D01*
X139389285Y-79917857D02*
X139389285Y-78717857D01*
X140132142Y-79917857D02*
X140132142Y-78717857D01*
X140132142Y-79289285D02*
X140817857Y-79289285D01*
X140817857Y-79917857D02*
X140817857Y-78717857D01*
X141389285Y-79289285D02*
X141789285Y-79289285D01*
X141960714Y-79917857D02*
X141389285Y-79917857D01*
X141389285Y-78717857D01*
X141960714Y-78717857D01*
X143160714Y-79917857D02*
X142760714Y-79346428D01*
X142475000Y-79917857D02*
X142475000Y-78717857D01*
X142932142Y-78717857D01*
X143046428Y-78775000D01*
X143103571Y-78832142D01*
X143160714Y-78946428D01*
X143160714Y-79117857D01*
X143103571Y-79232142D01*
X143046428Y-79289285D01*
X142932142Y-79346428D01*
X142475000Y-79346428D01*
X143675000Y-79917857D02*
X143675000Y-78717857D01*
X144075000Y-79575000D01*
X144475000Y-78717857D01*
X144475000Y-79917857D01*
X145903571Y-78832142D02*
X145960714Y-78775000D01*
X146075000Y-78717857D01*
X146360714Y-78717857D01*
X146475000Y-78775000D01*
X146532142Y-78832142D01*
X146589285Y-78946428D01*
X146589285Y-79060714D01*
X146532142Y-79232142D01*
X145846428Y-79917857D01*
X146589285Y-79917857D01*
%TO.C,J11*%
X141490000Y-116909285D02*
X141090000Y-116909285D01*
X141090000Y-117537857D02*
X141090000Y-116337857D01*
X141661428Y-116337857D01*
X142061428Y-117195000D02*
X142632857Y-117195000D01*
X141947142Y-117537857D02*
X142347142Y-116337857D01*
X142747142Y-117537857D01*
X143147142Y-117537857D02*
X143147142Y-116337857D01*
X143832857Y-117537857D01*
X143832857Y-116337857D01*
X145947142Y-117537857D02*
X145261428Y-117537857D01*
X145604285Y-117537857D02*
X145604285Y-116337857D01*
X145490000Y-116509285D01*
X145375714Y-116623571D01*
X145261428Y-116680714D01*
%TO.C,J10*%
X139046428Y-100942857D02*
X139732142Y-100942857D01*
X139389285Y-102142857D02*
X139389285Y-100942857D01*
X140132142Y-102142857D02*
X140132142Y-100942857D01*
X140132142Y-101514285D02*
X140817857Y-101514285D01*
X140817857Y-102142857D02*
X140817857Y-100942857D01*
X141389285Y-101514285D02*
X141789285Y-101514285D01*
X141960714Y-102142857D02*
X141389285Y-102142857D01*
X141389285Y-100942857D01*
X141960714Y-100942857D01*
X143160714Y-102142857D02*
X142760714Y-101571428D01*
X142475000Y-102142857D02*
X142475000Y-100942857D01*
X142932142Y-100942857D01*
X143046428Y-101000000D01*
X143103571Y-101057142D01*
X143160714Y-101171428D01*
X143160714Y-101342857D01*
X143103571Y-101457142D01*
X143046428Y-101514285D01*
X142932142Y-101571428D01*
X142475000Y-101571428D01*
X143675000Y-102142857D02*
X143675000Y-100942857D01*
X144075000Y-101800000D01*
X144475000Y-100942857D01*
X144475000Y-102142857D01*
X146589285Y-102142857D02*
X145903571Y-102142857D01*
X146246428Y-102142857D02*
X146246428Y-100942857D01*
X146132142Y-101114285D01*
X146017857Y-101228571D01*
X145903571Y-101285714D01*
%TO.C,J8*%
X139006428Y-123167857D02*
X139692142Y-123167857D01*
X139349285Y-124367857D02*
X139349285Y-123167857D01*
X140092142Y-124367857D02*
X140092142Y-123167857D01*
X140092142Y-123739285D02*
X140777857Y-123739285D01*
X140777857Y-124367857D02*
X140777857Y-123167857D01*
X141349285Y-123739285D02*
X141749285Y-123739285D01*
X141920714Y-124367857D02*
X141349285Y-124367857D01*
X141349285Y-123167857D01*
X141920714Y-123167857D01*
X143120714Y-124367857D02*
X142720714Y-123796428D01*
X142435000Y-124367857D02*
X142435000Y-123167857D01*
X142892142Y-123167857D01*
X143006428Y-123225000D01*
X143063571Y-123282142D01*
X143120714Y-123396428D01*
X143120714Y-123567857D01*
X143063571Y-123682142D01*
X143006428Y-123739285D01*
X142892142Y-123796428D01*
X142435000Y-123796428D01*
X143635000Y-124367857D02*
X143635000Y-123167857D01*
X144035000Y-124025000D01*
X144435000Y-123167857D01*
X144435000Y-124367857D01*
X146149285Y-123167857D02*
X146263571Y-123167857D01*
X146377857Y-123225000D01*
X146435000Y-123282142D01*
X146492142Y-123396428D01*
X146549285Y-123625000D01*
X146549285Y-123910714D01*
X146492142Y-124139285D01*
X146435000Y-124253571D01*
X146377857Y-124310714D01*
X146263571Y-124367857D01*
X146149285Y-124367857D01*
X146035000Y-124310714D01*
X145977857Y-124253571D01*
X145920714Y-124139285D01*
X145863571Y-123910714D01*
X145863571Y-123625000D01*
X145920714Y-123396428D01*
X145977857Y-123282142D01*
X146035000Y-123225000D01*
X146149285Y-123167857D01*
%TO.C,J1*%
X176717857Y-93854285D02*
X177117857Y-93854285D01*
X177289285Y-94482857D02*
X176717857Y-94482857D01*
X176717857Y-93282857D01*
X177289285Y-93282857D01*
X177689285Y-93282857D02*
X178489285Y-94482857D01*
X178489285Y-93282857D02*
X177689285Y-94482857D01*
X178775000Y-93282857D02*
X179460714Y-93282857D01*
X179117857Y-94482857D02*
X179117857Y-93282857D01*
X180546428Y-94482857D02*
X180146428Y-93911428D01*
X179860714Y-94482857D02*
X179860714Y-93282857D01*
X180317857Y-93282857D01*
X180432142Y-93340000D01*
X180489285Y-93397142D01*
X180546428Y-93511428D01*
X180546428Y-93682857D01*
X180489285Y-93797142D01*
X180432142Y-93854285D01*
X180317857Y-93911428D01*
X179860714Y-93911428D01*
X181060714Y-93282857D02*
X181060714Y-94254285D01*
X181117857Y-94368571D01*
X181175000Y-94425714D01*
X181289285Y-94482857D01*
X181517857Y-94482857D01*
X181632142Y-94425714D01*
X181689285Y-94368571D01*
X181746428Y-94254285D01*
X181746428Y-93282857D01*
X182317857Y-94482857D02*
X182317857Y-93282857D01*
X182603571Y-93282857D01*
X182775000Y-93340000D01*
X182889285Y-93454285D01*
X182946428Y-93568571D01*
X183003571Y-93797142D01*
X183003571Y-93968571D01*
X182946428Y-94197142D01*
X182889285Y-94311428D01*
X182775000Y-94425714D01*
X182603571Y-94482857D01*
X182317857Y-94482857D01*
X183517857Y-93854285D02*
X183917857Y-93854285D01*
X184089285Y-94482857D02*
X183517857Y-94482857D01*
X183517857Y-93282857D01*
X184089285Y-93282857D01*
X185289285Y-94482857D02*
X184889285Y-93911428D01*
X184603571Y-94482857D02*
X184603571Y-93282857D01*
X185060714Y-93282857D01*
X185175000Y-93340000D01*
X185232142Y-93397142D01*
X185289285Y-93511428D01*
X185289285Y-93682857D01*
X185232142Y-93797142D01*
X185175000Y-93854285D01*
X185060714Y-93911428D01*
X184603571Y-93911428D01*
%TO.C,J7*%
D18*
X165946666Y-86299523D02*
X165946666Y-87206666D01*
X165886190Y-87388095D01*
X165765238Y-87509047D01*
X165583809Y-87569523D01*
X165462857Y-87569523D01*
X166430476Y-86299523D02*
X167277142Y-86299523D01*
X166732857Y-87569523D01*
%TO.C,J6*%
X154516666Y-86299523D02*
X154516666Y-87206666D01*
X154456190Y-87388095D01*
X154335238Y-87509047D01*
X154153809Y-87569523D01*
X154032857Y-87569523D01*
X155665714Y-86299523D02*
X155423809Y-86299523D01*
X155302857Y-86360000D01*
X155242380Y-86420476D01*
X155121428Y-86601904D01*
X155060952Y-86843809D01*
X155060952Y-87327619D01*
X155121428Y-87448571D01*
X155181904Y-87509047D01*
X155302857Y-87569523D01*
X155544761Y-87569523D01*
X155665714Y-87509047D01*
X155726190Y-87448571D01*
X155786666Y-87327619D01*
X155786666Y-87025238D01*
X155726190Y-86904285D01*
X155665714Y-86843809D01*
X155544761Y-86783333D01*
X155302857Y-86783333D01*
X155181904Y-86843809D01*
X155121428Y-86904285D01*
X155060952Y-87025238D01*
D11*
X156626428Y-95284857D02*
X156626428Y-94084857D01*
X156626428Y-94656285D02*
X157312142Y-94656285D01*
X157312142Y-95284857D02*
X157312142Y-94084857D01*
X157883571Y-94656285D02*
X158283571Y-94656285D01*
X158455000Y-95284857D02*
X157883571Y-95284857D01*
X157883571Y-94084857D01*
X158455000Y-94084857D01*
X158912142Y-94942000D02*
X159483571Y-94942000D01*
X158797857Y-95284857D02*
X159197857Y-94084857D01*
X159597857Y-95284857D01*
X159826428Y-94084857D02*
X160512142Y-94084857D01*
X160169285Y-95284857D02*
X160169285Y-94084857D01*
X160912142Y-94656285D02*
X161312142Y-94656285D01*
X161483571Y-95284857D02*
X160912142Y-95284857D01*
X160912142Y-94084857D01*
X161483571Y-94084857D01*
X162683571Y-95284857D02*
X162283571Y-94713428D01*
X161997857Y-95284857D02*
X161997857Y-94084857D01*
X162455000Y-94084857D01*
X162569285Y-94142000D01*
X162626428Y-94199142D01*
X162683571Y-94313428D01*
X162683571Y-94484857D01*
X162626428Y-94599142D01*
X162569285Y-94656285D01*
X162455000Y-94713428D01*
X161997857Y-94713428D01*
X164055000Y-94199142D02*
X164112142Y-94142000D01*
X164226428Y-94084857D01*
X164512142Y-94084857D01*
X164626428Y-94142000D01*
X164683571Y-94199142D01*
X164740714Y-94313428D01*
X164740714Y-94427714D01*
X164683571Y-94599142D01*
X163997857Y-95284857D01*
X164740714Y-95284857D01*
%TO.C,J4*%
X156626428Y-117382857D02*
X156626428Y-116182857D01*
X156626428Y-116754285D02*
X157312142Y-116754285D01*
X157312142Y-117382857D02*
X157312142Y-116182857D01*
X157883571Y-116754285D02*
X158283571Y-116754285D01*
X158455000Y-117382857D02*
X157883571Y-117382857D01*
X157883571Y-116182857D01*
X158455000Y-116182857D01*
X158912142Y-117040000D02*
X159483571Y-117040000D01*
X158797857Y-117382857D02*
X159197857Y-116182857D01*
X159597857Y-117382857D01*
X159826428Y-116182857D02*
X160512142Y-116182857D01*
X160169285Y-117382857D02*
X160169285Y-116182857D01*
X160912142Y-116754285D02*
X161312142Y-116754285D01*
X161483571Y-117382857D02*
X160912142Y-117382857D01*
X160912142Y-116182857D01*
X161483571Y-116182857D01*
X162683571Y-117382857D02*
X162283571Y-116811428D01*
X161997857Y-117382857D02*
X161997857Y-116182857D01*
X162455000Y-116182857D01*
X162569285Y-116240000D01*
X162626428Y-116297142D01*
X162683571Y-116411428D01*
X162683571Y-116582857D01*
X162626428Y-116697142D01*
X162569285Y-116754285D01*
X162455000Y-116811428D01*
X161997857Y-116811428D01*
X164740714Y-117382857D02*
X164055000Y-117382857D01*
X164397857Y-117382857D02*
X164397857Y-116182857D01*
X164283571Y-116354285D01*
X164169285Y-116468571D01*
X164055000Y-116525714D01*
%TO.C,C2*%
X136993333Y-94337142D02*
X136945714Y-94384761D01*
X136802857Y-94432380D01*
X136707619Y-94432380D01*
X136564761Y-94384761D01*
X136469523Y-94289523D01*
X136421904Y-94194285D01*
X136374285Y-94003809D01*
X136374285Y-93860952D01*
X136421904Y-93670476D01*
X136469523Y-93575238D01*
X136564761Y-93480000D01*
X136707619Y-93432380D01*
X136802857Y-93432380D01*
X136945714Y-93480000D01*
X136993333Y-93527619D01*
X137374285Y-93527619D02*
X137421904Y-93480000D01*
X137517142Y-93432380D01*
X137755238Y-93432380D01*
X137850476Y-93480000D01*
X137898095Y-93527619D01*
X137945714Y-93622857D01*
X137945714Y-93718095D01*
X137898095Y-93860952D01*
X137326666Y-94432380D01*
X137945714Y-94432380D01*
%TO.C,C1*%
X136993333Y-116562142D02*
X136945714Y-116609761D01*
X136802857Y-116657380D01*
X136707619Y-116657380D01*
X136564761Y-116609761D01*
X136469523Y-116514523D01*
X136421904Y-116419285D01*
X136374285Y-116228809D01*
X136374285Y-116085952D01*
X136421904Y-115895476D01*
X136469523Y-115800238D01*
X136564761Y-115705000D01*
X136707619Y-115657380D01*
X136802857Y-115657380D01*
X136945714Y-115705000D01*
X136993333Y-115752619D01*
X137945714Y-116657380D02*
X137374285Y-116657380D01*
X137660000Y-116657380D02*
X137660000Y-115657380D01*
X137564761Y-115800238D01*
X137469523Y-115895476D01*
X137374285Y-115943095D01*
%TO.C,C0*%
X136993333Y-138787142D02*
X136945714Y-138834761D01*
X136802857Y-138882380D01*
X136707619Y-138882380D01*
X136564761Y-138834761D01*
X136469523Y-138739523D01*
X136421904Y-138644285D01*
X136374285Y-138453809D01*
X136374285Y-138310952D01*
X136421904Y-138120476D01*
X136469523Y-138025238D01*
X136564761Y-137930000D01*
X136707619Y-137882380D01*
X136802857Y-137882380D01*
X136945714Y-137930000D01*
X136993333Y-137977619D01*
X137612380Y-137882380D02*
X137707619Y-137882380D01*
X137802857Y-137930000D01*
X137850476Y-137977619D01*
X137898095Y-138072857D01*
X137945714Y-138263333D01*
X137945714Y-138501428D01*
X137898095Y-138691904D01*
X137850476Y-138787142D01*
X137802857Y-138834761D01*
X137707619Y-138882380D01*
X137612380Y-138882380D01*
X137517142Y-138834761D01*
X137469523Y-138787142D01*
X137421904Y-138691904D01*
X137374285Y-138501428D01*
X137374285Y-138263333D01*
X137421904Y-138072857D01*
X137469523Y-137977619D01*
X137517142Y-137930000D01*
X137612380Y-137882380D01*
%TD*%
%LPC*%
D17*
G36*
X159639000Y-65598040D02*
G01*
X158978600Y-65598040D01*
X158978600Y-63921640D01*
X159639000Y-63921640D01*
X159639000Y-65598040D01*
G37*
X159639000Y-65598040D02*
X158978600Y-65598040D01*
X158978600Y-63921640D01*
X159639000Y-63921640D01*
X159639000Y-65598040D01*
G36*
X157581600Y-65603120D02*
G01*
X156921200Y-65603120D01*
X156921200Y-63926720D01*
X157581600Y-63926720D01*
X157581600Y-65603120D01*
G37*
X157581600Y-65603120D02*
X156921200Y-65603120D01*
X156921200Y-63926720D01*
X157581600Y-63926720D01*
X157581600Y-65603120D01*
G36*
X155625800Y-65620900D02*
G01*
X154965400Y-65620900D01*
X154965400Y-63944500D01*
X155625800Y-63944500D01*
X155625800Y-65620900D01*
G37*
X155625800Y-65620900D02*
X154965400Y-65620900D01*
X154965400Y-63944500D01*
X155625800Y-63944500D01*
X155625800Y-65620900D01*
D13*
X178006285Y-116930952D02*
X178101523Y-117026190D01*
X178196761Y-117311904D01*
X178196761Y-117502380D01*
X178101523Y-117788095D01*
X177911047Y-117978571D01*
X177720571Y-118073809D01*
X177339619Y-118169047D01*
X177053904Y-118169047D01*
X176672952Y-118073809D01*
X176482476Y-117978571D01*
X176292000Y-117788095D01*
X176196761Y-117502380D01*
X176196761Y-117311904D01*
X176292000Y-117026190D01*
X176387238Y-116930952D01*
X176196761Y-116073809D02*
X177815809Y-116073809D01*
X178006285Y-115978571D01*
X178101523Y-115883333D01*
X178196761Y-115692857D01*
X178196761Y-115311904D01*
X178101523Y-115121428D01*
X178006285Y-115026190D01*
X177815809Y-114930952D01*
X176196761Y-114930952D01*
X177149142Y-113311904D02*
X177244380Y-113026190D01*
X177339619Y-112930952D01*
X177530095Y-112835714D01*
X177815809Y-112835714D01*
X178006285Y-112930952D01*
X178101523Y-113026190D01*
X178196761Y-113216666D01*
X178196761Y-113978571D01*
X176196761Y-113978571D01*
X176196761Y-113311904D01*
X176292000Y-113121428D01*
X176387238Y-113026190D01*
X176577714Y-112930952D01*
X176768190Y-112930952D01*
X176958666Y-113026190D01*
X177053904Y-113121428D01*
X177149142Y-113311904D01*
X177149142Y-113978571D01*
X177149142Y-111978571D02*
X177149142Y-111311904D01*
X178196761Y-111026190D02*
X178196761Y-111978571D01*
X176196761Y-111978571D01*
X176196761Y-111026190D01*
X176196761Y-108835714D02*
X176196761Y-107502380D01*
X178196761Y-108835714D01*
X178196761Y-107502380D01*
X177149142Y-106740476D02*
X177149142Y-106073809D01*
X178196761Y-105788095D02*
X178196761Y-106740476D01*
X176196761Y-106740476D01*
X176196761Y-105788095D01*
X178196761Y-103788095D02*
X177244380Y-104454761D01*
X178196761Y-104930952D02*
X176196761Y-104930952D01*
X176196761Y-104169047D01*
X176292000Y-103978571D01*
X176387238Y-103883333D01*
X176577714Y-103788095D01*
X176863428Y-103788095D01*
X177053904Y-103883333D01*
X177149142Y-103978571D01*
X177244380Y-104169047D01*
X177244380Y-104930952D01*
X176196761Y-102550000D02*
X176196761Y-102359523D01*
X176292000Y-102169047D01*
X176387238Y-102073809D01*
X176577714Y-101978571D01*
X176958666Y-101883333D01*
X177434857Y-101883333D01*
X177815809Y-101978571D01*
X178006285Y-102073809D01*
X178101523Y-102169047D01*
X178196761Y-102359523D01*
X178196761Y-102550000D01*
X178101523Y-102740476D01*
X178006285Y-102835714D01*
X177815809Y-102930952D01*
X177434857Y-103026190D01*
X176958666Y-103026190D01*
X176577714Y-102930952D01*
X176387238Y-102835714D01*
X176292000Y-102740476D01*
X176196761Y-102550000D01*
D17*
%TO.C,U1*%
G36*
X180086000Y-121285000D02*
G01*
X180086000Y-124333000D01*
X178054000Y-124333000D01*
X177927000Y-124460000D01*
X177927000Y-124968000D01*
X178054000Y-125095000D01*
X178244500Y-125095000D01*
X177673000Y-125984000D01*
X178181000Y-126809500D01*
X176784000Y-127508000D01*
X176784000Y-122936000D01*
X180086000Y-121285000D01*
G37*
X180086000Y-121285000D02*
X180086000Y-124333000D01*
X178054000Y-124333000D01*
X177927000Y-124460000D01*
X177927000Y-124968000D01*
X178054000Y-125095000D01*
X178244500Y-125095000D01*
X177673000Y-125984000D01*
X178181000Y-126809500D01*
X176784000Y-127508000D01*
X176784000Y-122936000D01*
X180086000Y-121285000D01*
G36*
X178943000Y-125285500D02*
G01*
X178943000Y-125095000D01*
X179832000Y-125095000D01*
X179832000Y-125984000D01*
X178816000Y-126492000D01*
X178498500Y-125984000D01*
X178943000Y-125285500D01*
G37*
X178943000Y-125285500D02*
X178943000Y-125095000D01*
X179832000Y-125095000D01*
X179832000Y-125984000D01*
X178816000Y-126492000D01*
X178498500Y-125984000D01*
X178943000Y-125285500D01*
G36*
X177927000Y-127444500D02*
G01*
X178054000Y-127635000D01*
X180340000Y-127635000D01*
X180340000Y-129540000D01*
X177038000Y-127889000D01*
X177927000Y-127444500D01*
G37*
X177927000Y-127444500D02*
X178054000Y-127635000D01*
X180340000Y-127635000D01*
X180340000Y-129540000D01*
X177038000Y-127889000D01*
X177927000Y-127444500D01*
G36*
X179832000Y-126492000D02*
G01*
X179832000Y-126873000D01*
X179070000Y-126873000D01*
X179832000Y-126492000D01*
G37*
X179832000Y-126492000D02*
X179832000Y-126873000D01*
X179070000Y-126873000D01*
X179832000Y-126492000D01*
G36*
X182372000Y-127635000D02*
G01*
X182562500Y-127381000D01*
X183642000Y-127889000D01*
X180340000Y-129540000D01*
X180340000Y-127635000D01*
X182372000Y-127635000D01*
G37*
X182372000Y-127635000D02*
X182562500Y-127381000D01*
X183642000Y-127889000D01*
X180340000Y-129540000D01*
X180340000Y-127635000D01*
X182372000Y-127635000D01*
G36*
X181610000Y-126873000D02*
G01*
X180594000Y-126873000D01*
X180594000Y-126365000D01*
X181610000Y-126873000D01*
G37*
X181610000Y-126873000D02*
X180594000Y-126873000D01*
X180594000Y-126365000D01*
X181610000Y-126873000D01*
G36*
X179832000Y-126492000D02*
G01*
X179832000Y-126873000D01*
X179070000Y-126873000D01*
X179832000Y-126492000D01*
G37*
X179832000Y-126492000D02*
X179832000Y-126873000D01*
X179070000Y-126873000D01*
X179832000Y-126492000D01*
G36*
X181610000Y-126873000D02*
G01*
X180594000Y-126873000D01*
X180594000Y-126365000D01*
X181610000Y-126873000D01*
G37*
X181610000Y-126873000D02*
X180594000Y-126873000D01*
X180594000Y-126365000D01*
X181610000Y-126873000D01*
G36*
X177927000Y-127444500D02*
G01*
X178054000Y-127635000D01*
X180340000Y-127635000D01*
X180340000Y-129540000D01*
X177038000Y-127889000D01*
X177927000Y-127444500D01*
G37*
X177927000Y-127444500D02*
X178054000Y-127635000D01*
X180340000Y-127635000D01*
X180340000Y-129540000D01*
X177038000Y-127889000D01*
X177927000Y-127444500D01*
G36*
X182372000Y-127635000D02*
G01*
X182562500Y-127381000D01*
X183642000Y-127889000D01*
X180340000Y-129540000D01*
X180340000Y-127635000D01*
X182372000Y-127635000D01*
G37*
X182372000Y-127635000D02*
X182562500Y-127381000D01*
X183642000Y-127889000D01*
X180340000Y-129540000D01*
X180340000Y-127635000D01*
X182372000Y-127635000D01*
%TD*%
D19*
%TO.C,H4*%
X111760000Y-135890000D03*
D20*
X111760000Y-135890000D03*
%TD*%
D19*
%TO.C,H3*%
X181610000Y-135890000D03*
D20*
X181610000Y-135890000D03*
%TD*%
D19*
%TO.C,H2*%
X181610000Y-59690000D03*
D20*
X181610000Y-59690000D03*
%TD*%
D19*
%TO.C,H1*%
X111760000Y-59690000D03*
D20*
X111760000Y-59690000D03*
%TD*%
%TO.C,C6*%
G36*
G01*
X181425000Y-69690000D02*
X181425000Y-68740000D01*
G75*
G02*
X181675000Y-68490000I250000J0D01*
G01*
X182350000Y-68490000D01*
G75*
G02*
X182600000Y-68740000I0J-250000D01*
G01*
X182600000Y-69690000D01*
G75*
G02*
X182350000Y-69940000I-250000J0D01*
G01*
X181675000Y-69940000D01*
G75*
G02*
X181425000Y-69690000I0J250000D01*
G01*
G37*
G36*
G01*
X179350000Y-69690000D02*
X179350000Y-68740000D01*
G75*
G02*
X179600000Y-68490000I250000J0D01*
G01*
X180275000Y-68490000D01*
G75*
G02*
X180525000Y-68740000I0J-250000D01*
G01*
X180525000Y-69690000D01*
G75*
G02*
X180275000Y-69940000I-250000J0D01*
G01*
X179600000Y-69940000D01*
G75*
G02*
X179350000Y-69690000I0J250000D01*
G01*
G37*
%TD*%
%TO.C,C5*%
G36*
G01*
X171737000Y-64204000D02*
X172687000Y-64204000D01*
G75*
G02*
X172937000Y-64454000I0J-250000D01*
G01*
X172937000Y-65129000D01*
G75*
G02*
X172687000Y-65379000I-250000J0D01*
G01*
X171737000Y-65379000D01*
G75*
G02*
X171487000Y-65129000I0J250000D01*
G01*
X171487000Y-64454000D01*
G75*
G02*
X171737000Y-64204000I250000J0D01*
G01*
G37*
G36*
G01*
X171737000Y-62129000D02*
X172687000Y-62129000D01*
G75*
G02*
X172937000Y-62379000I0J-250000D01*
G01*
X172937000Y-63054000D01*
G75*
G02*
X172687000Y-63304000I-250000J0D01*
G01*
X171737000Y-63304000D01*
G75*
G02*
X171487000Y-63054000I0J250000D01*
G01*
X171487000Y-62379000D01*
G75*
G02*
X171737000Y-62129000I250000J0D01*
G01*
G37*
%TD*%
%TO.C,C4*%
G36*
G01*
X177005000Y-88450000D02*
X176055000Y-88450000D01*
G75*
G02*
X175805000Y-88200000I0J250000D01*
G01*
X175805000Y-87525000D01*
G75*
G02*
X176055000Y-87275000I250000J0D01*
G01*
X177005000Y-87275000D01*
G75*
G02*
X177255000Y-87525000I0J-250000D01*
G01*
X177255000Y-88200000D01*
G75*
G02*
X177005000Y-88450000I-250000J0D01*
G01*
G37*
G36*
G01*
X177005000Y-90525000D02*
X176055000Y-90525000D01*
G75*
G02*
X175805000Y-90275000I0J250000D01*
G01*
X175805000Y-89600000D01*
G75*
G02*
X176055000Y-89350000I250000J0D01*
G01*
X177005000Y-89350000D01*
G75*
G02*
X177255000Y-89600000I0J-250000D01*
G01*
X177255000Y-90275000D01*
G75*
G02*
X177005000Y-90525000I-250000J0D01*
G01*
G37*
%TD*%
%TO.C,C3*%
G36*
G01*
X169705000Y-64204000D02*
X170655000Y-64204000D01*
G75*
G02*
X170905000Y-64454000I0J-250000D01*
G01*
X170905000Y-65129000D01*
G75*
G02*
X170655000Y-65379000I-250000J0D01*
G01*
X169705000Y-65379000D01*
G75*
G02*
X169455000Y-65129000I0J250000D01*
G01*
X169455000Y-64454000D01*
G75*
G02*
X169705000Y-64204000I250000J0D01*
G01*
G37*
G36*
G01*
X169705000Y-62129000D02*
X170655000Y-62129000D01*
G75*
G02*
X170905000Y-62379000I0J-250000D01*
G01*
X170905000Y-63054000D01*
G75*
G02*
X170655000Y-63304000I-250000J0D01*
G01*
X169705000Y-63304000D01*
G75*
G02*
X169455000Y-63054000I0J250000D01*
G01*
X169455000Y-62379000D01*
G75*
G02*
X169705000Y-62129000I250000J0D01*
G01*
G37*
%TD*%
%TO.C,D2*%
G36*
G01*
X133165001Y-79560000D02*
X132264999Y-79560000D01*
G75*
G02*
X132015000Y-79310001I0J249999D01*
G01*
X132015000Y-78659999D01*
G75*
G02*
X132264999Y-78410000I249999J0D01*
G01*
X133165001Y-78410000D01*
G75*
G02*
X133415000Y-78659999I0J-249999D01*
G01*
X133415000Y-79310001D01*
G75*
G02*
X133165001Y-79560000I-249999J0D01*
G01*
G37*
G36*
G01*
X133165001Y-81610000D02*
X132264999Y-81610000D01*
G75*
G02*
X132015000Y-81360001I0J249999D01*
G01*
X132015000Y-80709999D01*
G75*
G02*
X132264999Y-80460000I249999J0D01*
G01*
X133165001Y-80460000D01*
G75*
G02*
X133415000Y-80709999I0J-249999D01*
G01*
X133415000Y-81360001D01*
G75*
G02*
X133165001Y-81610000I-249999J0D01*
G01*
G37*
%TD*%
%TO.C,D1*%
G36*
G01*
X133165001Y-101785000D02*
X132264999Y-101785000D01*
G75*
G02*
X132015000Y-101535001I0J249999D01*
G01*
X132015000Y-100884999D01*
G75*
G02*
X132264999Y-100635000I249999J0D01*
G01*
X133165001Y-100635000D01*
G75*
G02*
X133415000Y-100884999I0J-249999D01*
G01*
X133415000Y-101535001D01*
G75*
G02*
X133165001Y-101785000I-249999J0D01*
G01*
G37*
G36*
G01*
X133165001Y-103835000D02*
X132264999Y-103835000D01*
G75*
G02*
X132015000Y-103585001I0J249999D01*
G01*
X132015000Y-102934999D01*
G75*
G02*
X132264999Y-102685000I249999J0D01*
G01*
X133165001Y-102685000D01*
G75*
G02*
X133415000Y-102934999I0J-249999D01*
G01*
X133415000Y-103585001D01*
G75*
G02*
X133165001Y-103835000I-249999J0D01*
G01*
G37*
%TD*%
%TO.C,D0*%
G36*
G01*
X133165001Y-124010000D02*
X132264999Y-124010000D01*
G75*
G02*
X132015000Y-123760001I0J249999D01*
G01*
X132015000Y-123109999D01*
G75*
G02*
X132264999Y-122860000I249999J0D01*
G01*
X133165001Y-122860000D01*
G75*
G02*
X133415000Y-123109999I0J-249999D01*
G01*
X133415000Y-123760001D01*
G75*
G02*
X133165001Y-124010000I-249999J0D01*
G01*
G37*
G36*
G01*
X133165001Y-126060000D02*
X132264999Y-126060000D01*
G75*
G02*
X132015000Y-125810001I0J249999D01*
G01*
X132015000Y-125159999D01*
G75*
G02*
X132264999Y-124910000I249999J0D01*
G01*
X133165001Y-124910000D01*
G75*
G02*
X133415000Y-125159999I0J-249999D01*
G01*
X133415000Y-125810001D01*
G75*
G02*
X133165001Y-126060000I-249999J0D01*
G01*
G37*
%TD*%
%TO.C,R20*%
G36*
G01*
X157080000Y-82734999D02*
X157080000Y-83635001D01*
G75*
G02*
X156830001Y-83885000I-249999J0D01*
G01*
X156129999Y-83885000D01*
G75*
G02*
X155880000Y-83635001I0J249999D01*
G01*
X155880000Y-82734999D01*
G75*
G02*
X156129999Y-82485000I249999J0D01*
G01*
X156830001Y-82485000D01*
G75*
G02*
X157080000Y-82734999I0J-249999D01*
G01*
G37*
G36*
G01*
X159080000Y-82734999D02*
X159080000Y-83635001D01*
G75*
G02*
X158830001Y-83885000I-249999J0D01*
G01*
X158129999Y-83885000D01*
G75*
G02*
X157880000Y-83635001I0J249999D01*
G01*
X157880000Y-82734999D01*
G75*
G02*
X158129999Y-82485000I249999J0D01*
G01*
X158830001Y-82485000D01*
G75*
G02*
X159080000Y-82734999I0J-249999D01*
G01*
G37*
%TD*%
%TO.C,R19*%
G36*
G01*
X154070000Y-83635001D02*
X154070000Y-82734999D01*
G75*
G02*
X154319999Y-82485000I249999J0D01*
G01*
X155020001Y-82485000D01*
G75*
G02*
X155270000Y-82734999I0J-249999D01*
G01*
X155270000Y-83635001D01*
G75*
G02*
X155020001Y-83885000I-249999J0D01*
G01*
X154319999Y-83885000D01*
G75*
G02*
X154070000Y-83635001I0J249999D01*
G01*
G37*
G36*
G01*
X152070000Y-83635001D02*
X152070000Y-82734999D01*
G75*
G02*
X152319999Y-82485000I249999J0D01*
G01*
X153020001Y-82485000D01*
G75*
G02*
X153270000Y-82734999I0J-249999D01*
G01*
X153270000Y-83635001D01*
G75*
G02*
X153020001Y-83885000I-249999J0D01*
G01*
X152319999Y-83885000D01*
G75*
G02*
X152070000Y-83635001I0J249999D01*
G01*
G37*
%TD*%
%TO.C,R18*%
G36*
G01*
X150260000Y-83635001D02*
X150260000Y-82734999D01*
G75*
G02*
X150509999Y-82485000I249999J0D01*
G01*
X151210001Y-82485000D01*
G75*
G02*
X151460000Y-82734999I0J-249999D01*
G01*
X151460000Y-83635001D01*
G75*
G02*
X151210001Y-83885000I-249999J0D01*
G01*
X150509999Y-83885000D01*
G75*
G02*
X150260000Y-83635001I0J249999D01*
G01*
G37*
G36*
G01*
X148260000Y-83635001D02*
X148260000Y-82734999D01*
G75*
G02*
X148509999Y-82485000I249999J0D01*
G01*
X149210001Y-82485000D01*
G75*
G02*
X149460000Y-82734999I0J-249999D01*
G01*
X149460000Y-83635001D01*
G75*
G02*
X149210001Y-83885000I-249999J0D01*
G01*
X148509999Y-83885000D01*
G75*
G02*
X148260000Y-83635001I0J249999D01*
G01*
G37*
%TD*%
%TO.C,R17*%
G36*
G01*
X145650000Y-77019999D02*
X145650000Y-77920001D01*
G75*
G02*
X145400001Y-78170000I-249999J0D01*
G01*
X144699999Y-78170000D01*
G75*
G02*
X144450000Y-77920001I0J249999D01*
G01*
X144450000Y-77019999D01*
G75*
G02*
X144699999Y-76770000I249999J0D01*
G01*
X145400001Y-76770000D01*
G75*
G02*
X145650000Y-77019999I0J-249999D01*
G01*
G37*
G36*
G01*
X147650000Y-77019999D02*
X147650000Y-77920001D01*
G75*
G02*
X147400001Y-78170000I-249999J0D01*
G01*
X146699999Y-78170000D01*
G75*
G02*
X146450000Y-77920001I0J249999D01*
G01*
X146450000Y-77019999D01*
G75*
G02*
X146699999Y-76770000I249999J0D01*
G01*
X147400001Y-76770000D01*
G75*
G02*
X147650000Y-77019999I0J-249999D01*
G01*
G37*
%TD*%
%TO.C,R16*%
G36*
G01*
X141840000Y-77019999D02*
X141840000Y-77920001D01*
G75*
G02*
X141590001Y-78170000I-249999J0D01*
G01*
X140889999Y-78170000D01*
G75*
G02*
X140640000Y-77920001I0J249999D01*
G01*
X140640000Y-77019999D01*
G75*
G02*
X140889999Y-76770000I249999J0D01*
G01*
X141590001Y-76770000D01*
G75*
G02*
X141840000Y-77019999I0J-249999D01*
G01*
G37*
G36*
G01*
X143840000Y-77019999D02*
X143840000Y-77920001D01*
G75*
G02*
X143590001Y-78170000I-249999J0D01*
G01*
X142889999Y-78170000D01*
G75*
G02*
X142640000Y-77920001I0J249999D01*
G01*
X142640000Y-77019999D01*
G75*
G02*
X142889999Y-76770000I249999J0D01*
G01*
X143590001Y-76770000D01*
G75*
G02*
X143840000Y-77019999I0J-249999D01*
G01*
G37*
%TD*%
%TO.C,R15*%
G36*
G01*
X136925000Y-79190001D02*
X136925000Y-78289999D01*
G75*
G02*
X137174999Y-78040000I249999J0D01*
G01*
X137875001Y-78040000D01*
G75*
G02*
X138125000Y-78289999I0J-249999D01*
G01*
X138125000Y-79190001D01*
G75*
G02*
X137875001Y-79440000I-249999J0D01*
G01*
X137174999Y-79440000D01*
G75*
G02*
X136925000Y-79190001I0J249999D01*
G01*
G37*
G36*
G01*
X134925000Y-79190001D02*
X134925000Y-78289999D01*
G75*
G02*
X135174999Y-78040000I249999J0D01*
G01*
X135875001Y-78040000D01*
G75*
G02*
X136125000Y-78289999I0J-249999D01*
G01*
X136125000Y-79190001D01*
G75*
G02*
X135875001Y-79440000I-249999J0D01*
G01*
X135174999Y-79440000D01*
G75*
G02*
X134925000Y-79190001I0J249999D01*
G01*
G37*
%TD*%
%TO.C,R14*%
G36*
G01*
X129355001Y-79610000D02*
X128454999Y-79610000D01*
G75*
G02*
X128205000Y-79360001I0J249999D01*
G01*
X128205000Y-78659999D01*
G75*
G02*
X128454999Y-78410000I249999J0D01*
G01*
X129355001Y-78410000D01*
G75*
G02*
X129605000Y-78659999I0J-249999D01*
G01*
X129605000Y-79360001D01*
G75*
G02*
X129355001Y-79610000I-249999J0D01*
G01*
G37*
G36*
G01*
X129355001Y-81610000D02*
X128454999Y-81610000D01*
G75*
G02*
X128205000Y-81360001I0J249999D01*
G01*
X128205000Y-80659999D01*
G75*
G02*
X128454999Y-80410000I249999J0D01*
G01*
X129355001Y-80410000D01*
G75*
G02*
X129605000Y-80659999I0J-249999D01*
G01*
X129605000Y-81360001D01*
G75*
G02*
X129355001Y-81610000I-249999J0D01*
G01*
G37*
%TD*%
%TO.C,R13*%
G36*
G01*
X157080000Y-104959999D02*
X157080000Y-105860001D01*
G75*
G02*
X156830001Y-106110000I-249999J0D01*
G01*
X156129999Y-106110000D01*
G75*
G02*
X155880000Y-105860001I0J249999D01*
G01*
X155880000Y-104959999D01*
G75*
G02*
X156129999Y-104710000I249999J0D01*
G01*
X156830001Y-104710000D01*
G75*
G02*
X157080000Y-104959999I0J-249999D01*
G01*
G37*
G36*
G01*
X159080000Y-104959999D02*
X159080000Y-105860001D01*
G75*
G02*
X158830001Y-106110000I-249999J0D01*
G01*
X158129999Y-106110000D01*
G75*
G02*
X157880000Y-105860001I0J249999D01*
G01*
X157880000Y-104959999D01*
G75*
G02*
X158129999Y-104710000I249999J0D01*
G01*
X158830001Y-104710000D01*
G75*
G02*
X159080000Y-104959999I0J-249999D01*
G01*
G37*
%TD*%
%TO.C,R12*%
G36*
G01*
X154070000Y-105860001D02*
X154070000Y-104959999D01*
G75*
G02*
X154319999Y-104710000I249999J0D01*
G01*
X155020001Y-104710000D01*
G75*
G02*
X155270000Y-104959999I0J-249999D01*
G01*
X155270000Y-105860001D01*
G75*
G02*
X155020001Y-106110000I-249999J0D01*
G01*
X154319999Y-106110000D01*
G75*
G02*
X154070000Y-105860001I0J249999D01*
G01*
G37*
G36*
G01*
X152070000Y-105860001D02*
X152070000Y-104959999D01*
G75*
G02*
X152319999Y-104710000I249999J0D01*
G01*
X153020001Y-104710000D01*
G75*
G02*
X153270000Y-104959999I0J-249999D01*
G01*
X153270000Y-105860001D01*
G75*
G02*
X153020001Y-106110000I-249999J0D01*
G01*
X152319999Y-106110000D01*
G75*
G02*
X152070000Y-105860001I0J249999D01*
G01*
G37*
%TD*%
%TO.C,R11*%
G36*
G01*
X150260000Y-105860001D02*
X150260000Y-104959999D01*
G75*
G02*
X150509999Y-104710000I249999J0D01*
G01*
X151210001Y-104710000D01*
G75*
G02*
X151460000Y-104959999I0J-249999D01*
G01*
X151460000Y-105860001D01*
G75*
G02*
X151210001Y-106110000I-249999J0D01*
G01*
X150509999Y-106110000D01*
G75*
G02*
X150260000Y-105860001I0J249999D01*
G01*
G37*
G36*
G01*
X148260000Y-105860001D02*
X148260000Y-104959999D01*
G75*
G02*
X148509999Y-104710000I249999J0D01*
G01*
X149210001Y-104710000D01*
G75*
G02*
X149460000Y-104959999I0J-249999D01*
G01*
X149460000Y-105860001D01*
G75*
G02*
X149210001Y-106110000I-249999J0D01*
G01*
X148509999Y-106110000D01*
G75*
G02*
X148260000Y-105860001I0J249999D01*
G01*
G37*
%TD*%
%TO.C,R10*%
G36*
G01*
X145650000Y-99244999D02*
X145650000Y-100145001D01*
G75*
G02*
X145400001Y-100395000I-249999J0D01*
G01*
X144699999Y-100395000D01*
G75*
G02*
X144450000Y-100145001I0J249999D01*
G01*
X144450000Y-99244999D01*
G75*
G02*
X144699999Y-98995000I249999J0D01*
G01*
X145400001Y-98995000D01*
G75*
G02*
X145650000Y-99244999I0J-249999D01*
G01*
G37*
G36*
G01*
X147650000Y-99244999D02*
X147650000Y-100145001D01*
G75*
G02*
X147400001Y-100395000I-249999J0D01*
G01*
X146699999Y-100395000D01*
G75*
G02*
X146450000Y-100145001I0J249999D01*
G01*
X146450000Y-99244999D01*
G75*
G02*
X146699999Y-98995000I249999J0D01*
G01*
X147400001Y-98995000D01*
G75*
G02*
X147650000Y-99244999I0J-249999D01*
G01*
G37*
%TD*%
%TO.C,R9*%
G36*
G01*
X141840000Y-99244999D02*
X141840000Y-100145001D01*
G75*
G02*
X141590001Y-100395000I-249999J0D01*
G01*
X140889999Y-100395000D01*
G75*
G02*
X140640000Y-100145001I0J249999D01*
G01*
X140640000Y-99244999D01*
G75*
G02*
X140889999Y-98995000I249999J0D01*
G01*
X141590001Y-98995000D01*
G75*
G02*
X141840000Y-99244999I0J-249999D01*
G01*
G37*
G36*
G01*
X143840000Y-99244999D02*
X143840000Y-100145001D01*
G75*
G02*
X143590001Y-100395000I-249999J0D01*
G01*
X142889999Y-100395000D01*
G75*
G02*
X142640000Y-100145001I0J249999D01*
G01*
X142640000Y-99244999D01*
G75*
G02*
X142889999Y-98995000I249999J0D01*
G01*
X143590001Y-98995000D01*
G75*
G02*
X143840000Y-99244999I0J-249999D01*
G01*
G37*
%TD*%
%TO.C,R8*%
G36*
G01*
X136925000Y-101415001D02*
X136925000Y-100514999D01*
G75*
G02*
X137174999Y-100265000I249999J0D01*
G01*
X137875001Y-100265000D01*
G75*
G02*
X138125000Y-100514999I0J-249999D01*
G01*
X138125000Y-101415001D01*
G75*
G02*
X137875001Y-101665000I-249999J0D01*
G01*
X137174999Y-101665000D01*
G75*
G02*
X136925000Y-101415001I0J249999D01*
G01*
G37*
G36*
G01*
X134925000Y-101415001D02*
X134925000Y-100514999D01*
G75*
G02*
X135174999Y-100265000I249999J0D01*
G01*
X135875001Y-100265000D01*
G75*
G02*
X136125000Y-100514999I0J-249999D01*
G01*
X136125000Y-101415001D01*
G75*
G02*
X135875001Y-101665000I-249999J0D01*
G01*
X135174999Y-101665000D01*
G75*
G02*
X134925000Y-101415001I0J249999D01*
G01*
G37*
%TD*%
%TO.C,R7*%
G36*
G01*
X129355001Y-101835000D02*
X128454999Y-101835000D01*
G75*
G02*
X128205000Y-101585001I0J249999D01*
G01*
X128205000Y-100884999D01*
G75*
G02*
X128454999Y-100635000I249999J0D01*
G01*
X129355001Y-100635000D01*
G75*
G02*
X129605000Y-100884999I0J-249999D01*
G01*
X129605000Y-101585001D01*
G75*
G02*
X129355001Y-101835000I-249999J0D01*
G01*
G37*
G36*
G01*
X129355001Y-103835000D02*
X128454999Y-103835000D01*
G75*
G02*
X128205000Y-103585001I0J249999D01*
G01*
X128205000Y-102884999D01*
G75*
G02*
X128454999Y-102635000I249999J0D01*
G01*
X129355001Y-102635000D01*
G75*
G02*
X129605000Y-102884999I0J-249999D01*
G01*
X129605000Y-103585001D01*
G75*
G02*
X129355001Y-103835000I-249999J0D01*
G01*
G37*
%TD*%
%TO.C,R6*%
G36*
G01*
X157080000Y-127184999D02*
X157080000Y-128085001D01*
G75*
G02*
X156830001Y-128335000I-249999J0D01*
G01*
X156129999Y-128335000D01*
G75*
G02*
X155880000Y-128085001I0J249999D01*
G01*
X155880000Y-127184999D01*
G75*
G02*
X156129999Y-126935000I249999J0D01*
G01*
X156830001Y-126935000D01*
G75*
G02*
X157080000Y-127184999I0J-249999D01*
G01*
G37*
G36*
G01*
X159080000Y-127184999D02*
X159080000Y-128085001D01*
G75*
G02*
X158830001Y-128335000I-249999J0D01*
G01*
X158129999Y-128335000D01*
G75*
G02*
X157880000Y-128085001I0J249999D01*
G01*
X157880000Y-127184999D01*
G75*
G02*
X158129999Y-126935000I249999J0D01*
G01*
X158830001Y-126935000D01*
G75*
G02*
X159080000Y-127184999I0J-249999D01*
G01*
G37*
%TD*%
%TO.C,R5*%
G36*
G01*
X154070000Y-128085001D02*
X154070000Y-127184999D01*
G75*
G02*
X154319999Y-126935000I249999J0D01*
G01*
X155020001Y-126935000D01*
G75*
G02*
X155270000Y-127184999I0J-249999D01*
G01*
X155270000Y-128085001D01*
G75*
G02*
X155020001Y-128335000I-249999J0D01*
G01*
X154319999Y-128335000D01*
G75*
G02*
X154070000Y-128085001I0J249999D01*
G01*
G37*
G36*
G01*
X152070000Y-128085001D02*
X152070000Y-127184999D01*
G75*
G02*
X152319999Y-126935000I249999J0D01*
G01*
X153020001Y-126935000D01*
G75*
G02*
X153270000Y-127184999I0J-249999D01*
G01*
X153270000Y-128085001D01*
G75*
G02*
X153020001Y-128335000I-249999J0D01*
G01*
X152319999Y-128335000D01*
G75*
G02*
X152070000Y-128085001I0J249999D01*
G01*
G37*
%TD*%
%TO.C,R4*%
G36*
G01*
X150260000Y-128085001D02*
X150260000Y-127184999D01*
G75*
G02*
X150509999Y-126935000I249999J0D01*
G01*
X151210001Y-126935000D01*
G75*
G02*
X151460000Y-127184999I0J-249999D01*
G01*
X151460000Y-128085001D01*
G75*
G02*
X151210001Y-128335000I-249999J0D01*
G01*
X150509999Y-128335000D01*
G75*
G02*
X150260000Y-128085001I0J249999D01*
G01*
G37*
G36*
G01*
X148260000Y-128085001D02*
X148260000Y-127184999D01*
G75*
G02*
X148509999Y-126935000I249999J0D01*
G01*
X149210001Y-126935000D01*
G75*
G02*
X149460000Y-127184999I0J-249999D01*
G01*
X149460000Y-128085001D01*
G75*
G02*
X149210001Y-128335000I-249999J0D01*
G01*
X148509999Y-128335000D01*
G75*
G02*
X148260000Y-128085001I0J249999D01*
G01*
G37*
%TD*%
%TO.C,R3*%
G36*
G01*
X145650000Y-121469999D02*
X145650000Y-122370001D01*
G75*
G02*
X145400001Y-122620000I-249999J0D01*
G01*
X144699999Y-122620000D01*
G75*
G02*
X144450000Y-122370001I0J249999D01*
G01*
X144450000Y-121469999D01*
G75*
G02*
X144699999Y-121220000I249999J0D01*
G01*
X145400001Y-121220000D01*
G75*
G02*
X145650000Y-121469999I0J-249999D01*
G01*
G37*
G36*
G01*
X147650000Y-121469999D02*
X147650000Y-122370001D01*
G75*
G02*
X147400001Y-122620000I-249999J0D01*
G01*
X146699999Y-122620000D01*
G75*
G02*
X146450000Y-122370001I0J249999D01*
G01*
X146450000Y-121469999D01*
G75*
G02*
X146699999Y-121220000I249999J0D01*
G01*
X147400001Y-121220000D01*
G75*
G02*
X147650000Y-121469999I0J-249999D01*
G01*
G37*
%TD*%
%TO.C,R2*%
G36*
G01*
X141840000Y-121469999D02*
X141840000Y-122370001D01*
G75*
G02*
X141590001Y-122620000I-249999J0D01*
G01*
X140889999Y-122620000D01*
G75*
G02*
X140640000Y-122370001I0J249999D01*
G01*
X140640000Y-121469999D01*
G75*
G02*
X140889999Y-121220000I249999J0D01*
G01*
X141590001Y-121220000D01*
G75*
G02*
X141840000Y-121469999I0J-249999D01*
G01*
G37*
G36*
G01*
X143840000Y-121469999D02*
X143840000Y-122370001D01*
G75*
G02*
X143590001Y-122620000I-249999J0D01*
G01*
X142889999Y-122620000D01*
G75*
G02*
X142640000Y-122370001I0J249999D01*
G01*
X142640000Y-121469999D01*
G75*
G02*
X142889999Y-121220000I249999J0D01*
G01*
X143590001Y-121220000D01*
G75*
G02*
X143840000Y-121469999I0J-249999D01*
G01*
G37*
%TD*%
%TO.C,R1*%
G36*
G01*
X136925000Y-123640001D02*
X136925000Y-122739999D01*
G75*
G02*
X137174999Y-122490000I249999J0D01*
G01*
X137875001Y-122490000D01*
G75*
G02*
X138125000Y-122739999I0J-249999D01*
G01*
X138125000Y-123640001D01*
G75*
G02*
X137875001Y-123890000I-249999J0D01*
G01*
X137174999Y-123890000D01*
G75*
G02*
X136925000Y-123640001I0J249999D01*
G01*
G37*
G36*
G01*
X134925000Y-123640001D02*
X134925000Y-122739999D01*
G75*
G02*
X135174999Y-122490000I249999J0D01*
G01*
X135875001Y-122490000D01*
G75*
G02*
X136125000Y-122739999I0J-249999D01*
G01*
X136125000Y-123640001D01*
G75*
G02*
X135875001Y-123890000I-249999J0D01*
G01*
X135174999Y-123890000D01*
G75*
G02*
X134925000Y-123640001I0J249999D01*
G01*
G37*
%TD*%
%TO.C,R0*%
G36*
G01*
X129355001Y-124060000D02*
X128454999Y-124060000D01*
G75*
G02*
X128205000Y-123810001I0J249999D01*
G01*
X128205000Y-123109999D01*
G75*
G02*
X128454999Y-122860000I249999J0D01*
G01*
X129355001Y-122860000D01*
G75*
G02*
X129605000Y-123109999I0J-249999D01*
G01*
X129605000Y-123810001D01*
G75*
G02*
X129355001Y-124060000I-249999J0D01*
G01*
G37*
G36*
G01*
X129355001Y-126060000D02*
X128454999Y-126060000D01*
G75*
G02*
X128205000Y-125810001I0J249999D01*
G01*
X128205000Y-125109999D01*
G75*
G02*
X128454999Y-124860000I249999J0D01*
G01*
X129355001Y-124860000D01*
G75*
G02*
X129605000Y-125109999I0J-249999D01*
G01*
X129605000Y-125810001D01*
G75*
G02*
X129355001Y-126060000I-249999J0D01*
G01*
G37*
%TD*%
D21*
%TO.C,J0*%
X142205000Y-62230000D03*
X166405000Y-62230000D03*
D22*
X144805000Y-64770000D03*
X145805000Y-64770000D03*
X146805000Y-64770000D03*
X147805000Y-64770000D03*
X148805000Y-64770000D03*
X149805000Y-64770000D03*
X150805000Y-64770000D03*
X151805000Y-64770000D03*
X152805000Y-64770000D03*
X153805000Y-64770000D03*
X154805000Y-64770000D03*
X155805000Y-64770000D03*
X156805000Y-64770000D03*
X157805000Y-64770000D03*
X158805000Y-64770000D03*
X159805000Y-64770000D03*
X160805000Y-64770000D03*
X161805000Y-64770000D03*
X162805000Y-64770000D03*
X163805000Y-64770000D03*
%TD*%
D23*
%TO.C,J9*%
X144740000Y-134620000D03*
G36*
G01*
X141390000Y-135370000D02*
X141390000Y-133870000D01*
G75*
G02*
X141640000Y-133620000I250000J0D01*
G01*
X142840000Y-133620000D01*
G75*
G02*
X143090000Y-133870000I0J-250000D01*
G01*
X143090000Y-135370000D01*
G75*
G02*
X142840000Y-135620000I-250000J0D01*
G01*
X141640000Y-135620000D01*
G75*
G02*
X141390000Y-135370000I0J250000D01*
G01*
G37*
%TD*%
D24*
%TO.C,JP3*%
X137795000Y-67310000D03*
X135255000Y-67310000D03*
D25*
X132715000Y-67310000D03*
%TD*%
D26*
%TO.C,Z3*%
X183134000Y-75710000D03*
X183134000Y-71610000D03*
%TD*%
%TO.C,Z2*%
X179705000Y-75710000D03*
X179705000Y-71610000D03*
%TD*%
D27*
%TO.C,Z1*%
X170670000Y-71374000D03*
X174770000Y-71374000D03*
%TD*%
%TO.C,Z0*%
X170670000Y-67945000D03*
X174770000Y-67945000D03*
%TD*%
D28*
%TO.C,Q6*%
X149535000Y-79155000D03*
X151455000Y-79155000D03*
X150495000Y-77055000D03*
%TD*%
%TO.C,Q3*%
X149535000Y-101380000D03*
X151455000Y-101380000D03*
X150495000Y-99280000D03*
%TD*%
%TO.C,Q0*%
X149535000Y-123605000D03*
X151455000Y-123605000D03*
X150495000Y-121505000D03*
%TD*%
D29*
%TO.C,J14*%
X122555000Y-136920000D03*
X122555000Y-134420000D03*
X122555000Y-131920000D03*
X122555000Y-129420000D03*
X122555000Y-126920000D03*
X122555000Y-124420000D03*
G36*
G01*
X121830000Y-121070000D02*
X123280000Y-121070000D01*
G75*
G02*
X123530000Y-121320000I0J-250000D01*
G01*
X123530000Y-122520000D01*
G75*
G02*
X123280000Y-122770000I-250000J0D01*
G01*
X121830000Y-122770000D01*
G75*
G02*
X121580000Y-122520000I0J250000D01*
G01*
X121580000Y-121320000D01*
G75*
G02*
X121830000Y-121070000I250000J0D01*
G01*
G37*
%TD*%
D28*
%TO.C,Q7*%
X155250000Y-79155000D03*
X157170000Y-79155000D03*
X156210000Y-77055000D03*
%TD*%
%TO.C,Q4*%
X155250000Y-101380000D03*
X157170000Y-101380000D03*
X156210000Y-99280000D03*
%TD*%
D30*
%TO.C,Q8*%
X167200000Y-80645000D03*
D31*
X160750000Y-82925000D03*
X160750000Y-78365000D03*
%TD*%
D30*
%TO.C,Q5*%
X167200000Y-102870000D03*
D31*
X160750000Y-105150000D03*
X160750000Y-100590000D03*
%TD*%
D30*
%TO.C,Q2*%
X167200000Y-125095000D03*
D31*
X160750000Y-127375000D03*
X160750000Y-122815000D03*
%TD*%
D32*
%TO.C,J2*%
X152400000Y-133985000D03*
D33*
X157480000Y-133985000D03*
%TD*%
D28*
%TO.C,Q1*%
X155250000Y-123605000D03*
X157170000Y-123605000D03*
X156210000Y-121505000D03*
%TD*%
D29*
%TO.C,J20*%
X114300000Y-77978000D03*
X114300000Y-75478000D03*
G36*
G01*
X113575000Y-72128000D02*
X115025000Y-72128000D01*
G75*
G02*
X115275000Y-72378000I0J-250000D01*
G01*
X115275000Y-73578000D01*
G75*
G02*
X115025000Y-73828000I-250000J0D01*
G01*
X113575000Y-73828000D01*
G75*
G02*
X113325000Y-73578000I0J250000D01*
G01*
X113325000Y-72378000D01*
G75*
G02*
X113575000Y-72128000I250000J0D01*
G01*
G37*
%TD*%
D23*
%TO.C,J17*%
X114895000Y-120015000D03*
G36*
G01*
X111545000Y-120765000D02*
X111545000Y-119265000D01*
G75*
G02*
X111795000Y-119015000I250000J0D01*
G01*
X112995000Y-119015000D01*
G75*
G02*
X113245000Y-119265000I0J-250000D01*
G01*
X113245000Y-120765000D01*
G75*
G02*
X112995000Y-121015000I-250000J0D01*
G01*
X111795000Y-121015000D01*
G75*
G02*
X111545000Y-120765000I0J250000D01*
G01*
G37*
%TD*%
D29*
%TO.C,J21*%
X114300000Y-93646000D03*
X114300000Y-91146000D03*
G36*
G01*
X113575000Y-87796000D02*
X115025000Y-87796000D01*
G75*
G02*
X115275000Y-88046000I0J-250000D01*
G01*
X115275000Y-89246000D01*
G75*
G02*
X115025000Y-89496000I-250000J0D01*
G01*
X113575000Y-89496000D01*
G75*
G02*
X113325000Y-89246000I0J250000D01*
G01*
X113325000Y-88046000D01*
G75*
G02*
X113575000Y-87796000I250000J0D01*
G01*
G37*
%TD*%
%TO.C,J22*%
X114300000Y-109267000D03*
X114300000Y-106767000D03*
G36*
G01*
X113575000Y-103417000D02*
X115025000Y-103417000D01*
G75*
G02*
X115275000Y-103667000I0J-250000D01*
G01*
X115275000Y-104867000D01*
G75*
G02*
X115025000Y-105117000I-250000J0D01*
G01*
X113575000Y-105117000D01*
G75*
G02*
X113325000Y-104867000I0J250000D01*
G01*
X113325000Y-103667000D01*
G75*
G02*
X113575000Y-103417000I250000J0D01*
G01*
G37*
%TD*%
D34*
%TO.C,JP6*%
X115570000Y-113919000D03*
X115570000Y-115189000D03*
X114300000Y-113919000D03*
X114300000Y-115189000D03*
X113030000Y-113919000D03*
X113030000Y-115189000D03*
X111760000Y-113919000D03*
D35*
X111760000Y-115189000D03*
%TD*%
D34*
%TO.C,JP5*%
X115570000Y-98298000D03*
X115570000Y-99568000D03*
X114300000Y-98298000D03*
X114300000Y-99568000D03*
X113030000Y-98298000D03*
X113030000Y-99568000D03*
X111760000Y-98298000D03*
D35*
X111760000Y-99568000D03*
%TD*%
D34*
%TO.C,JP4*%
X115570000Y-82677000D03*
X115570000Y-83947000D03*
X114300000Y-82677000D03*
X114300000Y-83947000D03*
X113030000Y-82677000D03*
X113030000Y-83947000D03*
X111760000Y-82677000D03*
D35*
X111760000Y-83947000D03*
%TD*%
D36*
%TO.C,J19*%
X126285000Y-67310000D03*
X123785000Y-67310000D03*
G36*
G01*
X120435000Y-68035000D02*
X120435000Y-66585000D01*
G75*
G02*
X120685000Y-66335000I250000J0D01*
G01*
X121885000Y-66335000D01*
G75*
G02*
X122135000Y-66585000I0J-250000D01*
G01*
X122135000Y-68035000D01*
G75*
G02*
X121885000Y-68285000I-250000J0D01*
G01*
X120685000Y-68285000D01*
G75*
G02*
X120435000Y-68035000I0J250000D01*
G01*
G37*
%TD*%
D23*
%TO.C,J18*%
X114895000Y-127000000D03*
G36*
G01*
X111545000Y-127750000D02*
X111545000Y-126250000D01*
G75*
G02*
X111795000Y-126000000I250000J0D01*
G01*
X112995000Y-126000000D01*
G75*
G02*
X113245000Y-126250000I0J-250000D01*
G01*
X113245000Y-127750000D01*
G75*
G02*
X112995000Y-128000000I-250000J0D01*
G01*
X111795000Y-128000000D01*
G75*
G02*
X111545000Y-127750000I0J250000D01*
G01*
G37*
%TD*%
%TO.C,J16*%
G36*
G01*
X121830000Y-76620000D02*
X123280000Y-76620000D01*
G75*
G02*
X123530000Y-76870000I0J-250000D01*
G01*
X123530000Y-78070000D01*
G75*
G02*
X123280000Y-78320000I-250000J0D01*
G01*
X121830000Y-78320000D01*
G75*
G02*
X121580000Y-78070000I0J250000D01*
G01*
X121580000Y-76870000D01*
G75*
G02*
X121830000Y-76620000I250000J0D01*
G01*
G37*
D29*
X122555000Y-79970000D03*
X122555000Y-82470000D03*
X122555000Y-84970000D03*
X122555000Y-87470000D03*
X122555000Y-89970000D03*
X122555000Y-92470000D03*
%TD*%
%TO.C,J15*%
X122555000Y-114695000D03*
X122555000Y-112195000D03*
X122555000Y-109695000D03*
X122555000Y-107195000D03*
X122555000Y-104695000D03*
X122555000Y-102195000D03*
G36*
G01*
X121830000Y-98845000D02*
X123280000Y-98845000D01*
G75*
G02*
X123530000Y-99095000I0J-250000D01*
G01*
X123530000Y-100295000D01*
G75*
G02*
X123280000Y-100545000I-250000J0D01*
G01*
X121830000Y-100545000D01*
G75*
G02*
X121580000Y-100295000I0J250000D01*
G01*
X121580000Y-99095000D01*
G75*
G02*
X121830000Y-98845000I250000J0D01*
G01*
G37*
%TD*%
%TO.C,J13*%
G36*
G01*
X141390000Y-90920000D02*
X141390000Y-89420000D01*
G75*
G02*
X141640000Y-89170000I250000J0D01*
G01*
X142840000Y-89170000D01*
G75*
G02*
X143090000Y-89420000I0J-250000D01*
G01*
X143090000Y-90920000D01*
G75*
G02*
X142840000Y-91170000I-250000J0D01*
G01*
X141640000Y-91170000D01*
G75*
G02*
X141390000Y-90920000I0J250000D01*
G01*
G37*
D23*
X144740000Y-90170000D03*
%TD*%
%TO.C,J12*%
G36*
G01*
X138850000Y-83910000D02*
X138850000Y-82460000D01*
G75*
G02*
X139100000Y-82210000I250000J0D01*
G01*
X140300000Y-82210000D01*
G75*
G02*
X140550000Y-82460000I0J-250000D01*
G01*
X140550000Y-83910000D01*
G75*
G02*
X140300000Y-84160000I-250000J0D01*
G01*
X139100000Y-84160000D01*
G75*
G02*
X138850000Y-83910000I0J250000D01*
G01*
G37*
D36*
X142200000Y-83185000D03*
X144700000Y-83185000D03*
%TD*%
D23*
%TO.C,J11*%
X144740000Y-112395000D03*
G36*
G01*
X141390000Y-113145000D02*
X141390000Y-111645000D01*
G75*
G02*
X141640000Y-111395000I250000J0D01*
G01*
X142840000Y-111395000D01*
G75*
G02*
X143090000Y-111645000I0J-250000D01*
G01*
X143090000Y-113145000D01*
G75*
G02*
X142840000Y-113395000I-250000J0D01*
G01*
X141640000Y-113395000D01*
G75*
G02*
X141390000Y-113145000I0J250000D01*
G01*
G37*
%TD*%
D36*
%TO.C,J10*%
X144700000Y-105410000D03*
X142200000Y-105410000D03*
G36*
G01*
X138850000Y-106135000D02*
X138850000Y-104685000D01*
G75*
G02*
X139100000Y-104435000I250000J0D01*
G01*
X140300000Y-104435000D01*
G75*
G02*
X140550000Y-104685000I0J-250000D01*
G01*
X140550000Y-106135000D01*
G75*
G02*
X140300000Y-106385000I-250000J0D01*
G01*
X139100000Y-106385000D01*
G75*
G02*
X138850000Y-106135000I0J250000D01*
G01*
G37*
%TD*%
%TO.C,J8*%
X144700000Y-127635000D03*
X142200000Y-127635000D03*
G36*
G01*
X138850000Y-128360000D02*
X138850000Y-126910000D01*
G75*
G02*
X139100000Y-126660000I250000J0D01*
G01*
X140300000Y-126660000D01*
G75*
G02*
X140550000Y-126910000I0J-250000D01*
G01*
X140550000Y-128360000D01*
G75*
G02*
X140300000Y-128610000I-250000J0D01*
G01*
X139100000Y-128610000D01*
G75*
G02*
X138850000Y-128360000I0J250000D01*
G01*
G37*
%TD*%
D29*
%TO.C,J1*%
X180975000Y-82630000D03*
X180975000Y-85130000D03*
X180975000Y-87630000D03*
G36*
G01*
X181700000Y-90980000D02*
X180250000Y-90980000D01*
G75*
G02*
X180000000Y-90730000I0J250000D01*
G01*
X180000000Y-89530000D01*
G75*
G02*
X180250000Y-89280000I250000J0D01*
G01*
X181700000Y-89280000D01*
G75*
G02*
X181950000Y-89530000I0J-250000D01*
G01*
X181950000Y-90730000D01*
G75*
G02*
X181700000Y-90980000I-250000J0D01*
G01*
G37*
%TD*%
D33*
%TO.C,J7*%
X168910000Y-89535000D03*
D32*
X163830000Y-89535000D03*
%TD*%
D33*
%TO.C,J6*%
X157480000Y-89535000D03*
D32*
X152400000Y-89535000D03*
%TD*%
%TO.C,J5*%
X163830000Y-111760000D03*
D33*
X168910000Y-111760000D03*
%TD*%
D32*
%TO.C,J4*%
X152400000Y-111760000D03*
D33*
X157480000Y-111760000D03*
%TD*%
D32*
%TO.C,J3*%
X163830000Y-133985000D03*
D33*
X168910000Y-133985000D03*
%TD*%
%TO.C,C2*%
G36*
G01*
X137635000Y-92832500D02*
X136685000Y-92832500D01*
G75*
G02*
X136435000Y-92582500I0J250000D01*
G01*
X136435000Y-91907500D01*
G75*
G02*
X136685000Y-91657500I250000J0D01*
G01*
X137635000Y-91657500D01*
G75*
G02*
X137885000Y-91907500I0J-250000D01*
G01*
X137885000Y-92582500D01*
G75*
G02*
X137635000Y-92832500I-250000J0D01*
G01*
G37*
G36*
G01*
X137635000Y-90757500D02*
X136685000Y-90757500D01*
G75*
G02*
X136435000Y-90507500I0J250000D01*
G01*
X136435000Y-89832500D01*
G75*
G02*
X136685000Y-89582500I250000J0D01*
G01*
X137635000Y-89582500D01*
G75*
G02*
X137885000Y-89832500I0J-250000D01*
G01*
X137885000Y-90507500D01*
G75*
G02*
X137635000Y-90757500I-250000J0D01*
G01*
G37*
%TD*%
%TO.C,C1*%
G36*
G01*
X137635000Y-113215000D02*
X136685000Y-113215000D01*
G75*
G02*
X136435000Y-112965000I0J250000D01*
G01*
X136435000Y-112290000D01*
G75*
G02*
X136685000Y-112040000I250000J0D01*
G01*
X137635000Y-112040000D01*
G75*
G02*
X137885000Y-112290000I0J-250000D01*
G01*
X137885000Y-112965000D01*
G75*
G02*
X137635000Y-113215000I-250000J0D01*
G01*
G37*
G36*
G01*
X137635000Y-115290000D02*
X136685000Y-115290000D01*
G75*
G02*
X136435000Y-115040000I0J250000D01*
G01*
X136435000Y-114365000D01*
G75*
G02*
X136685000Y-114115000I250000J0D01*
G01*
X137635000Y-114115000D01*
G75*
G02*
X137885000Y-114365000I0J-250000D01*
G01*
X137885000Y-115040000D01*
G75*
G02*
X137635000Y-115290000I-250000J0D01*
G01*
G37*
%TD*%
%TO.C,C0*%
G36*
G01*
X137635000Y-135207500D02*
X136685000Y-135207500D01*
G75*
G02*
X136435000Y-134957500I0J250000D01*
G01*
X136435000Y-134282500D01*
G75*
G02*
X136685000Y-134032500I250000J0D01*
G01*
X137635000Y-134032500D01*
G75*
G02*
X137885000Y-134282500I0J-250000D01*
G01*
X137885000Y-134957500D01*
G75*
G02*
X137635000Y-135207500I-250000J0D01*
G01*
G37*
G36*
G01*
X137635000Y-137282500D02*
X136685000Y-137282500D01*
G75*
G02*
X136435000Y-137032500I0J250000D01*
G01*
X136435000Y-136357500D01*
G75*
G02*
X136685000Y-136107500I250000J0D01*
G01*
X137635000Y-136107500D01*
G75*
G02*
X137885000Y-136357500I0J-250000D01*
G01*
X137885000Y-137032500D01*
G75*
G02*
X137635000Y-137282500I-250000J0D01*
G01*
G37*
%TD*%
D24*
%TO.C,JP0*%
X133350000Y-133985000D03*
X133350000Y-136525000D03*
X130810000Y-133985000D03*
X130810000Y-136525000D03*
X128270000Y-133985000D03*
D25*
X128270000Y-136525000D03*
%TD*%
D24*
%TO.C,JP1*%
X133350000Y-114300000D03*
X130810000Y-114300000D03*
D25*
X128270000Y-114300000D03*
%TD*%
%TO.C,JP2*%
X128270000Y-92075000D03*
D24*
X130810000Y-92075000D03*
X133350000Y-92075000D03*
%TD*%
M02*
