%TF.GenerationSoftware,KiCad,Pcbnew,(5.1.9)-1*%
%TF.CreationDate,2021-01-06T12:08:29+00:00*%
%TF.ProjectId,switcherv0,73776974-6368-4657-9276-302e6b696361,rev?*%
%TF.SameCoordinates,Original*%
%TF.FileFunction,Soldermask,Top*%
%TF.FilePolarity,Negative*%
%FSLAX46Y46*%
G04 Gerber Fmt 4.6, Leading zero omitted, Abs format (unit mm)*
G04 Created by KiCad (PCBNEW (5.1.9)-1) date 2021-01-06 12:08:29*
%MOMM*%
%LPD*%
G01*
G04 APERTURE LIST*
%ADD10C,5.600000*%
%ADD11C,3.600000*%
%ADD12R,2.200000X2.500000*%
%ADD13R,0.600000X1.800000*%
%ADD14O,1.950000X1.700000*%
%ADD15O,1.700000X1.700000*%
%ADD16R,1.700000X1.700000*%
%ADD17C,2.475000*%
%ADD18R,2.475000X2.475000*%
%ADD19R,0.900000X1.400000*%
%ADD20R,4.600000X1.200000*%
%ADD21R,9.400000X10.800000*%
%ADD22O,1.700000X1.950000*%
%ADD23R,0.650000X1.100000*%
%ADD24O,2.000000X1.700000*%
%ADD25R,1.600000X2.250000*%
G04 APERTURE END LIST*
D10*
%TO.C,H3*%
X131347500Y-175410000D03*
D11*
X131347500Y-175410000D03*
%TD*%
D10*
%TO.C,H2*%
X131347500Y-89050000D03*
D11*
X131347500Y-89050000D03*
%TD*%
D10*
%TO.C,H1*%
X62767500Y-175410000D03*
D11*
X62767500Y-175410000D03*
%TD*%
D10*
%TO.C,H0*%
X62767500Y-89050000D03*
D11*
X62767500Y-89050000D03*
%TD*%
D12*
%TO.C,J0*%
X93212500Y-93495000D03*
X117412500Y-93495000D03*
D13*
X95812500Y-96035000D03*
X96812500Y-96035000D03*
X97812500Y-96035000D03*
X98812500Y-96035000D03*
X99812500Y-96035000D03*
X100812500Y-96035000D03*
X101812500Y-96035000D03*
X102812500Y-96035000D03*
X103812500Y-96035000D03*
X104812500Y-96035000D03*
X105812500Y-96035000D03*
X106812500Y-96035000D03*
X107812500Y-96035000D03*
X108812500Y-96035000D03*
X109812500Y-96035000D03*
X110812500Y-96035000D03*
X111812500Y-96035000D03*
X112812500Y-96035000D03*
X113812500Y-96035000D03*
X114812500Y-96035000D03*
%TD*%
D14*
%TO.C,J21*%
X65307500Y-165210000D03*
X65307500Y-162710000D03*
G36*
G01*
X64582500Y-159360000D02*
X66032500Y-159360000D01*
G75*
G02*
X66282500Y-159610000I0J-250000D01*
G01*
X66282500Y-160810000D01*
G75*
G02*
X66032500Y-161060000I-250000J0D01*
G01*
X64582500Y-161060000D01*
G75*
G02*
X64332500Y-160810000I0J250000D01*
G01*
X64332500Y-159610000D01*
G75*
G02*
X64582500Y-159360000I250000J0D01*
G01*
G37*
%TD*%
D15*
%TO.C,JP6*%
X87532500Y-98067000D03*
X84992500Y-98067000D03*
D16*
X82452500Y-98067000D03*
%TD*%
D17*
%TO.C,J3*%
X121187500Y-174140000D03*
D18*
X116107500Y-174140000D03*
%TD*%
D17*
%TO.C,J2*%
X109757500Y-174140000D03*
D18*
X104677500Y-174140000D03*
%TD*%
D17*
%TO.C,J4*%
X121187500Y-148105000D03*
D18*
X116107500Y-148105000D03*
%TD*%
D17*
%TO.C,J5*%
X109757500Y-148105000D03*
D18*
X104677500Y-148105000D03*
%TD*%
D17*
%TO.C,J6*%
X109757500Y-122070000D03*
D18*
X104677500Y-122070000D03*
%TD*%
D17*
%TO.C,J7*%
X121187500Y-122070000D03*
D18*
X116107500Y-122070000D03*
%TD*%
D19*
%TO.C,LED2*%
X73657500Y-108100000D03*
X71657500Y-108100000D03*
%TD*%
%TO.C,LED1*%
X73562500Y-134135000D03*
X71562500Y-134135000D03*
%TD*%
%TO.C,LED0*%
X73927500Y-160170000D03*
X71927500Y-160170000D03*
%TD*%
D20*
%TO.C,Q2*%
X105312500Y-111835000D03*
D21*
X114462500Y-109370000D03*
D20*
X105312500Y-106905000D03*
%TD*%
%TO.C,Q1*%
X105312500Y-137870000D03*
D21*
X114462500Y-135405000D03*
D20*
X105312500Y-132940000D03*
%TD*%
%TO.C,Q0*%
X105439500Y-163905000D03*
D21*
X114589500Y-161440000D03*
D20*
X105439500Y-158975000D03*
%TD*%
D22*
%TO.C,J19*%
X71737500Y-97940000D03*
X74237500Y-97940000D03*
G36*
G01*
X77587500Y-97215000D02*
X77587500Y-98665000D01*
G75*
G02*
X77337500Y-98915000I-250000J0D01*
G01*
X76137500Y-98915000D01*
G75*
G02*
X75887500Y-98665000I0J250000D01*
G01*
X75887500Y-97215000D01*
G75*
G02*
X76137500Y-96965000I250000J0D01*
G01*
X77337500Y-96965000D01*
G75*
G02*
X77587500Y-97215000I0J-250000D01*
G01*
G37*
%TD*%
%TO.C,J9*%
X96977500Y-166520000D03*
X94477500Y-166520000D03*
G36*
G01*
X91127500Y-167245000D02*
X91127500Y-165795000D01*
G75*
G02*
X91377500Y-165545000I250000J0D01*
G01*
X92577500Y-165545000D01*
G75*
G02*
X92827500Y-165795000I0J-250000D01*
G01*
X92827500Y-167245000D01*
G75*
G02*
X92577500Y-167495000I-250000J0D01*
G01*
X91377500Y-167495000D01*
G75*
G02*
X91127500Y-167245000I0J250000D01*
G01*
G37*
%TD*%
D14*
%TO.C,J15*%
X74197500Y-147985000D03*
X74197500Y-145485000D03*
X74197500Y-142985000D03*
G36*
G01*
X73472500Y-139635000D02*
X74922500Y-139635000D01*
G75*
G02*
X75172500Y-139885000I0J-250000D01*
G01*
X75172500Y-141085000D01*
G75*
G02*
X74922500Y-141335000I-250000J0D01*
G01*
X73472500Y-141335000D01*
G75*
G02*
X73222500Y-141085000I0J250000D01*
G01*
X73222500Y-139885000D01*
G75*
G02*
X73472500Y-139635000I250000J0D01*
G01*
G37*
%TD*%
%TO.C,J1*%
X130077500Y-119650000D03*
X130077500Y-122150000D03*
X130077500Y-124650000D03*
G36*
G01*
X130802500Y-128000000D02*
X129352500Y-128000000D01*
G75*
G02*
X129102500Y-127750000I0J250000D01*
G01*
X129102500Y-126550000D01*
G75*
G02*
X129352500Y-126300000I250000J0D01*
G01*
X130802500Y-126300000D01*
G75*
G02*
X131052500Y-126550000I0J-250000D01*
G01*
X131052500Y-127750000D01*
G75*
G02*
X130802500Y-128000000I-250000J0D01*
G01*
G37*
%TD*%
%TO.C,J14*%
X74197500Y-174020000D03*
X74197500Y-171520000D03*
X74197500Y-169020000D03*
G36*
G01*
X73472500Y-165670000D02*
X74922500Y-165670000D01*
G75*
G02*
X75172500Y-165920000I0J-250000D01*
G01*
X75172500Y-167120000D01*
G75*
G02*
X74922500Y-167370000I-250000J0D01*
G01*
X73472500Y-167370000D01*
G75*
G02*
X73222500Y-167120000I0J250000D01*
G01*
X73222500Y-165920000D01*
G75*
G02*
X73472500Y-165670000I250000J0D01*
G01*
G37*
%TD*%
%TO.C,J16*%
X74197500Y-121950000D03*
X74197500Y-119450000D03*
X74197500Y-116950000D03*
G36*
G01*
X73472500Y-113600000D02*
X74922500Y-113600000D01*
G75*
G02*
X75172500Y-113850000I0J-250000D01*
G01*
X75172500Y-115050000D01*
G75*
G02*
X74922500Y-115300000I-250000J0D01*
G01*
X73472500Y-115300000D01*
G75*
G02*
X73222500Y-115050000I0J250000D01*
G01*
X73222500Y-113850000D01*
G75*
G02*
X73472500Y-113600000I250000J0D01*
G01*
G37*
%TD*%
%TO.C,J22*%
X65307500Y-129690000D03*
X65307500Y-127190000D03*
G36*
G01*
X64582500Y-123840000D02*
X66032500Y-123840000D01*
G75*
G02*
X66282500Y-124090000I0J-250000D01*
G01*
X66282500Y-125290000D01*
G75*
G02*
X66032500Y-125540000I-250000J0D01*
G01*
X64582500Y-125540000D01*
G75*
G02*
X64332500Y-125290000I0J250000D01*
G01*
X64332500Y-124090000D01*
G75*
G02*
X64582500Y-123840000I250000J0D01*
G01*
G37*
%TD*%
%TO.C,R14*%
G36*
G01*
X100682501Y-104509000D02*
X99782499Y-104509000D01*
G75*
G02*
X99532500Y-104259001I0J249999D01*
G01*
X99532500Y-103558999D01*
G75*
G02*
X99782499Y-103309000I249999J0D01*
G01*
X100682501Y-103309000D01*
G75*
G02*
X100932500Y-103558999I0J-249999D01*
G01*
X100932500Y-104259001D01*
G75*
G02*
X100682501Y-104509000I-249999J0D01*
G01*
G37*
G36*
G01*
X100682501Y-106509000D02*
X99782499Y-106509000D01*
G75*
G02*
X99532500Y-106259001I0J249999D01*
G01*
X99532500Y-105558999D01*
G75*
G02*
X99782499Y-105309000I249999J0D01*
G01*
X100682501Y-105309000D01*
G75*
G02*
X100932500Y-105558999I0J-249999D01*
G01*
X100932500Y-106259001D01*
G75*
G02*
X100682501Y-106509000I-249999J0D01*
G01*
G37*
%TD*%
%TO.C,R13*%
G36*
G01*
X100682501Y-108716000D02*
X99782499Y-108716000D01*
G75*
G02*
X99532500Y-108466001I0J249999D01*
G01*
X99532500Y-107765999D01*
G75*
G02*
X99782499Y-107516000I249999J0D01*
G01*
X100682501Y-107516000D01*
G75*
G02*
X100932500Y-107765999I0J-249999D01*
G01*
X100932500Y-108466001D01*
G75*
G02*
X100682501Y-108716000I-249999J0D01*
G01*
G37*
G36*
G01*
X100682501Y-110716000D02*
X99782499Y-110716000D01*
G75*
G02*
X99532500Y-110466001I0J249999D01*
G01*
X99532500Y-109765999D01*
G75*
G02*
X99782499Y-109516000I249999J0D01*
G01*
X100682501Y-109516000D01*
G75*
G02*
X100932500Y-109765999I0J-249999D01*
G01*
X100932500Y-110466001D01*
G75*
G02*
X100682501Y-110716000I-249999J0D01*
G01*
G37*
%TD*%
%TO.C,R12*%
G36*
G01*
X100682501Y-130560000D02*
X99782499Y-130560000D01*
G75*
G02*
X99532500Y-130310001I0J249999D01*
G01*
X99532500Y-129609999D01*
G75*
G02*
X99782499Y-129360000I249999J0D01*
G01*
X100682501Y-129360000D01*
G75*
G02*
X100932500Y-129609999I0J-249999D01*
G01*
X100932500Y-130310001D01*
G75*
G02*
X100682501Y-130560000I-249999J0D01*
G01*
G37*
G36*
G01*
X100682501Y-132560000D02*
X99782499Y-132560000D01*
G75*
G02*
X99532500Y-132310001I0J249999D01*
G01*
X99532500Y-131609999D01*
G75*
G02*
X99782499Y-131360000I249999J0D01*
G01*
X100682501Y-131360000D01*
G75*
G02*
X100932500Y-131609999I0J-249999D01*
G01*
X100932500Y-132310001D01*
G75*
G02*
X100682501Y-132560000I-249999J0D01*
G01*
G37*
%TD*%
%TO.C,R11*%
G36*
G01*
X100682501Y-134640000D02*
X99782499Y-134640000D01*
G75*
G02*
X99532500Y-134390001I0J249999D01*
G01*
X99532500Y-133689999D01*
G75*
G02*
X99782499Y-133440000I249999J0D01*
G01*
X100682501Y-133440000D01*
G75*
G02*
X100932500Y-133689999I0J-249999D01*
G01*
X100932500Y-134390001D01*
G75*
G02*
X100682501Y-134640000I-249999J0D01*
G01*
G37*
G36*
G01*
X100682501Y-136640000D02*
X99782499Y-136640000D01*
G75*
G02*
X99532500Y-136390001I0J249999D01*
G01*
X99532500Y-135689999D01*
G75*
G02*
X99782499Y-135440000I249999J0D01*
G01*
X100682501Y-135440000D01*
G75*
G02*
X100932500Y-135689999I0J-249999D01*
G01*
X100932500Y-136390001D01*
G75*
G02*
X100682501Y-136640000I-249999J0D01*
G01*
G37*
%TD*%
%TO.C,R10*%
G36*
G01*
X100682501Y-156698500D02*
X99782499Y-156698500D01*
G75*
G02*
X99532500Y-156448501I0J249999D01*
G01*
X99532500Y-155748499D01*
G75*
G02*
X99782499Y-155498500I249999J0D01*
G01*
X100682501Y-155498500D01*
G75*
G02*
X100932500Y-155748499I0J-249999D01*
G01*
X100932500Y-156448501D01*
G75*
G02*
X100682501Y-156698500I-249999J0D01*
G01*
G37*
G36*
G01*
X100682501Y-158698500D02*
X99782499Y-158698500D01*
G75*
G02*
X99532500Y-158448501I0J249999D01*
G01*
X99532500Y-157748499D01*
G75*
G02*
X99782499Y-157498500I249999J0D01*
G01*
X100682501Y-157498500D01*
G75*
G02*
X100932500Y-157748499I0J-249999D01*
G01*
X100932500Y-158448501D01*
G75*
G02*
X100682501Y-158698500I-249999J0D01*
G01*
G37*
%TD*%
%TO.C,R9*%
G36*
G01*
X100682501Y-160770000D02*
X99782499Y-160770000D01*
G75*
G02*
X99532500Y-160520001I0J249999D01*
G01*
X99532500Y-159819999D01*
G75*
G02*
X99782499Y-159570000I249999J0D01*
G01*
X100682501Y-159570000D01*
G75*
G02*
X100932500Y-159819999I0J-249999D01*
G01*
X100932500Y-160520001D01*
G75*
G02*
X100682501Y-160770000I-249999J0D01*
G01*
G37*
G36*
G01*
X100682501Y-162770000D02*
X99782499Y-162770000D01*
G75*
G02*
X99532500Y-162520001I0J249999D01*
G01*
X99532500Y-161819999D01*
G75*
G02*
X99782499Y-161570000I249999J0D01*
G01*
X100682501Y-161570000D01*
G75*
G02*
X100932500Y-161819999I0J-249999D01*
G01*
X100932500Y-162520001D01*
G75*
G02*
X100682501Y-162770000I-249999J0D01*
G01*
G37*
%TD*%
%TO.C,R8*%
G36*
G01*
X83973500Y-107649999D02*
X83973500Y-108550001D01*
G75*
G02*
X83723501Y-108800000I-249999J0D01*
G01*
X83023499Y-108800000D01*
G75*
G02*
X82773500Y-108550001I0J249999D01*
G01*
X82773500Y-107649999D01*
G75*
G02*
X83023499Y-107400000I249999J0D01*
G01*
X83723501Y-107400000D01*
G75*
G02*
X83973500Y-107649999I0J-249999D01*
G01*
G37*
G36*
G01*
X85973500Y-107649999D02*
X85973500Y-108550001D01*
G75*
G02*
X85723501Y-108800000I-249999J0D01*
G01*
X85023499Y-108800000D01*
G75*
G02*
X84773500Y-108550001I0J249999D01*
G01*
X84773500Y-107649999D01*
G75*
G02*
X85023499Y-107400000I249999J0D01*
G01*
X85723501Y-107400000D01*
G75*
G02*
X85973500Y-107649999I0J-249999D01*
G01*
G37*
%TD*%
%TO.C,R7*%
G36*
G01*
X87783500Y-107649999D02*
X87783500Y-108550001D01*
G75*
G02*
X87533501Y-108800000I-249999J0D01*
G01*
X86833499Y-108800000D01*
G75*
G02*
X86583500Y-108550001I0J249999D01*
G01*
X86583500Y-107649999D01*
G75*
G02*
X86833499Y-107400000I249999J0D01*
G01*
X87533501Y-107400000D01*
G75*
G02*
X87783500Y-107649999I0J-249999D01*
G01*
G37*
G36*
G01*
X89783500Y-107649999D02*
X89783500Y-108550001D01*
G75*
G02*
X89533501Y-108800000I-249999J0D01*
G01*
X88833499Y-108800000D01*
G75*
G02*
X88583500Y-108550001I0J249999D01*
G01*
X88583500Y-107649999D01*
G75*
G02*
X88833499Y-107400000I249999J0D01*
G01*
X89533501Y-107400000D01*
G75*
G02*
X89783500Y-107649999I0J-249999D01*
G01*
G37*
%TD*%
%TO.C,R6*%
G36*
G01*
X83973500Y-133684999D02*
X83973500Y-134585001D01*
G75*
G02*
X83723501Y-134835000I-249999J0D01*
G01*
X83023499Y-134835000D01*
G75*
G02*
X82773500Y-134585001I0J249999D01*
G01*
X82773500Y-133684999D01*
G75*
G02*
X83023499Y-133435000I249999J0D01*
G01*
X83723501Y-133435000D01*
G75*
G02*
X83973500Y-133684999I0J-249999D01*
G01*
G37*
G36*
G01*
X85973500Y-133684999D02*
X85973500Y-134585001D01*
G75*
G02*
X85723501Y-134835000I-249999J0D01*
G01*
X85023499Y-134835000D01*
G75*
G02*
X84773500Y-134585001I0J249999D01*
G01*
X84773500Y-133684999D01*
G75*
G02*
X85023499Y-133435000I249999J0D01*
G01*
X85723501Y-133435000D01*
G75*
G02*
X85973500Y-133684999I0J-249999D01*
G01*
G37*
%TD*%
%TO.C,R5*%
G36*
G01*
X87783500Y-133684999D02*
X87783500Y-134585001D01*
G75*
G02*
X87533501Y-134835000I-249999J0D01*
G01*
X86833499Y-134835000D01*
G75*
G02*
X86583500Y-134585001I0J249999D01*
G01*
X86583500Y-133684999D01*
G75*
G02*
X86833499Y-133435000I249999J0D01*
G01*
X87533501Y-133435000D01*
G75*
G02*
X87783500Y-133684999I0J-249999D01*
G01*
G37*
G36*
G01*
X89783500Y-133684999D02*
X89783500Y-134585001D01*
G75*
G02*
X89533501Y-134835000I-249999J0D01*
G01*
X88833499Y-134835000D01*
G75*
G02*
X88583500Y-134585001I0J249999D01*
G01*
X88583500Y-133684999D01*
G75*
G02*
X88833499Y-133435000I249999J0D01*
G01*
X89533501Y-133435000D01*
G75*
G02*
X89783500Y-133684999I0J-249999D01*
G01*
G37*
%TD*%
%TO.C,R4*%
G36*
G01*
X83957500Y-159719999D02*
X83957500Y-160620001D01*
G75*
G02*
X83707501Y-160870000I-249999J0D01*
G01*
X83007499Y-160870000D01*
G75*
G02*
X82757500Y-160620001I0J249999D01*
G01*
X82757500Y-159719999D01*
G75*
G02*
X83007499Y-159470000I249999J0D01*
G01*
X83707501Y-159470000D01*
G75*
G02*
X83957500Y-159719999I0J-249999D01*
G01*
G37*
G36*
G01*
X85957500Y-159719999D02*
X85957500Y-160620001D01*
G75*
G02*
X85707501Y-160870000I-249999J0D01*
G01*
X85007499Y-160870000D01*
G75*
G02*
X84757500Y-160620001I0J249999D01*
G01*
X84757500Y-159719999D01*
G75*
G02*
X85007499Y-159470000I249999J0D01*
G01*
X85707501Y-159470000D01*
G75*
G02*
X85957500Y-159719999I0J-249999D01*
G01*
G37*
%TD*%
%TO.C,R3*%
G36*
G01*
X87767500Y-159719999D02*
X87767500Y-160620001D01*
G75*
G02*
X87517501Y-160870000I-249999J0D01*
G01*
X86817499Y-160870000D01*
G75*
G02*
X86567500Y-160620001I0J249999D01*
G01*
X86567500Y-159719999D01*
G75*
G02*
X86817499Y-159470000I249999J0D01*
G01*
X87517501Y-159470000D01*
G75*
G02*
X87767500Y-159719999I0J-249999D01*
G01*
G37*
G36*
G01*
X89767500Y-159719999D02*
X89767500Y-160620001D01*
G75*
G02*
X89517501Y-160870000I-249999J0D01*
G01*
X88817499Y-160870000D01*
G75*
G02*
X88567500Y-160620001I0J249999D01*
G01*
X88567500Y-159719999D01*
G75*
G02*
X88817499Y-159470000I249999J0D01*
G01*
X89517501Y-159470000D01*
G75*
G02*
X89767500Y-159719999I0J-249999D01*
G01*
G37*
%TD*%
%TO.C,R2*%
G36*
G01*
X80147500Y-107649999D02*
X80147500Y-108550001D01*
G75*
G02*
X79897501Y-108800000I-249999J0D01*
G01*
X79197499Y-108800000D01*
G75*
G02*
X78947500Y-108550001I0J249999D01*
G01*
X78947500Y-107649999D01*
G75*
G02*
X79197499Y-107400000I249999J0D01*
G01*
X79897501Y-107400000D01*
G75*
G02*
X80147500Y-107649999I0J-249999D01*
G01*
G37*
G36*
G01*
X82147500Y-107649999D02*
X82147500Y-108550001D01*
G75*
G02*
X81897501Y-108800000I-249999J0D01*
G01*
X81197499Y-108800000D01*
G75*
G02*
X80947500Y-108550001I0J249999D01*
G01*
X80947500Y-107649999D01*
G75*
G02*
X81197499Y-107400000I249999J0D01*
G01*
X81897501Y-107400000D01*
G75*
G02*
X82147500Y-107649999I0J-249999D01*
G01*
G37*
%TD*%
%TO.C,R1*%
G36*
G01*
X80147500Y-133684999D02*
X80147500Y-134585001D01*
G75*
G02*
X79897501Y-134835000I-249999J0D01*
G01*
X79197499Y-134835000D01*
G75*
G02*
X78947500Y-134585001I0J249999D01*
G01*
X78947500Y-133684999D01*
G75*
G02*
X79197499Y-133435000I249999J0D01*
G01*
X79897501Y-133435000D01*
G75*
G02*
X80147500Y-133684999I0J-249999D01*
G01*
G37*
G36*
G01*
X82147500Y-133684999D02*
X82147500Y-134585001D01*
G75*
G02*
X81897501Y-134835000I-249999J0D01*
G01*
X81197499Y-134835000D01*
G75*
G02*
X80947500Y-134585001I0J249999D01*
G01*
X80947500Y-133684999D01*
G75*
G02*
X81197499Y-133435000I249999J0D01*
G01*
X81897501Y-133435000D01*
G75*
G02*
X82147500Y-133684999I0J-249999D01*
G01*
G37*
%TD*%
%TO.C,R0*%
G36*
G01*
X80147500Y-159719999D02*
X80147500Y-160620001D01*
G75*
G02*
X79897501Y-160870000I-249999J0D01*
G01*
X79197499Y-160870000D01*
G75*
G02*
X78947500Y-160620001I0J249999D01*
G01*
X78947500Y-159719999D01*
G75*
G02*
X79197499Y-159470000I249999J0D01*
G01*
X79897501Y-159470000D01*
G75*
G02*
X80147500Y-159719999I0J-249999D01*
G01*
G37*
G36*
G01*
X82147500Y-159719999D02*
X82147500Y-160620001D01*
G75*
G02*
X81897501Y-160870000I-249999J0D01*
G01*
X81197499Y-160870000D01*
G75*
G02*
X80947500Y-160620001I0J249999D01*
G01*
X80947500Y-159719999D01*
G75*
G02*
X81197499Y-159470000I249999J0D01*
G01*
X81897501Y-159470000D01*
G75*
G02*
X82147500Y-159719999I0J-249999D01*
G01*
G37*
%TD*%
D23*
%TO.C,Q5*%
X94517500Y-108615000D03*
X93567500Y-106315000D03*
X95467500Y-106315000D03*
%TD*%
%TO.C,Q4*%
X94517500Y-135285000D03*
X93567500Y-132985000D03*
X95467500Y-132985000D03*
%TD*%
%TO.C,Q3*%
X94517500Y-161320000D03*
X93567500Y-159020000D03*
X95467500Y-159020000D03*
%TD*%
D15*
%TO.C,JP5*%
X65942500Y-140485000D03*
X63402500Y-140485000D03*
X65942500Y-137945000D03*
X63402500Y-137945000D03*
X65942500Y-135405000D03*
D16*
X63402500Y-135405000D03*
%TD*%
D15*
%TO.C,JP4*%
X65942500Y-154455000D03*
X63402500Y-154455000D03*
X65942500Y-151915000D03*
X63402500Y-151915000D03*
X65942500Y-149375000D03*
D16*
X63402500Y-149375000D03*
%TD*%
D22*
%TO.C,J20*%
X74357500Y-90320000D03*
X76857500Y-90320000D03*
X79357500Y-90320000D03*
X81857500Y-90320000D03*
G36*
G01*
X85207500Y-89595000D02*
X85207500Y-91045000D01*
G75*
G02*
X84957500Y-91295000I-250000J0D01*
G01*
X83757500Y-91295000D01*
G75*
G02*
X83507500Y-91045000I0J250000D01*
G01*
X83507500Y-89595000D01*
G75*
G02*
X83757500Y-89345000I250000J0D01*
G01*
X84957500Y-89345000D01*
G75*
G02*
X85207500Y-89595000I0J-250000D01*
G01*
G37*
%TD*%
D24*
%TO.C,J17*%
X65307500Y-113140000D03*
G36*
G01*
X64557500Y-109790000D02*
X66057500Y-109790000D01*
G75*
G02*
X66307500Y-110040000I0J-250000D01*
G01*
X66307500Y-111240000D01*
G75*
G02*
X66057500Y-111490000I-250000J0D01*
G01*
X64557500Y-111490000D01*
G75*
G02*
X64307500Y-111240000I0J250000D01*
G01*
X64307500Y-110040000D01*
G75*
G02*
X64557500Y-109790000I250000J0D01*
G01*
G37*
%TD*%
D22*
%TO.C,J12*%
X96977500Y-114450000D03*
X94477500Y-114450000D03*
G36*
G01*
X91127500Y-115175000D02*
X91127500Y-113725000D01*
G75*
G02*
X91377500Y-113475000I250000J0D01*
G01*
X92577500Y-113475000D01*
G75*
G02*
X92827500Y-113725000I0J-250000D01*
G01*
X92827500Y-115175000D01*
G75*
G02*
X92577500Y-115425000I-250000J0D01*
G01*
X91377500Y-115425000D01*
G75*
G02*
X91127500Y-115175000I0J250000D01*
G01*
G37*
%TD*%
%TO.C,J10*%
X96977500Y-148105000D03*
X94477500Y-148105000D03*
G36*
G01*
X91127500Y-148830000D02*
X91127500Y-147380000D01*
G75*
G02*
X91377500Y-147130000I250000J0D01*
G01*
X92577500Y-147130000D01*
G75*
G02*
X92827500Y-147380000I0J-250000D01*
G01*
X92827500Y-148830000D01*
G75*
G02*
X92577500Y-149080000I-250000J0D01*
G01*
X91377500Y-149080000D01*
G75*
G02*
X91127500Y-148830000I0J250000D01*
G01*
G37*
%TD*%
%TO.C,J8*%
X96977500Y-174140000D03*
X94477500Y-174140000D03*
G36*
G01*
X91127500Y-174865000D02*
X91127500Y-173415000D01*
G75*
G02*
X91377500Y-173165000I250000J0D01*
G01*
X92577500Y-173165000D01*
G75*
G02*
X92827500Y-173415000I0J-250000D01*
G01*
X92827500Y-174865000D01*
G75*
G02*
X92577500Y-175115000I-250000J0D01*
G01*
X91377500Y-175115000D01*
G75*
G02*
X91127500Y-174865000I0J250000D01*
G01*
G37*
%TD*%
%TO.C,C2*%
G36*
G01*
X80997500Y-112385000D02*
X80997500Y-111435000D01*
G75*
G02*
X81247500Y-111185000I250000J0D01*
G01*
X81922500Y-111185000D01*
G75*
G02*
X82172500Y-111435000I0J-250000D01*
G01*
X82172500Y-112385000D01*
G75*
G02*
X81922500Y-112635000I-250000J0D01*
G01*
X81247500Y-112635000D01*
G75*
G02*
X80997500Y-112385000I0J250000D01*
G01*
G37*
G36*
G01*
X78922500Y-112385000D02*
X78922500Y-111435000D01*
G75*
G02*
X79172500Y-111185000I250000J0D01*
G01*
X79847500Y-111185000D01*
G75*
G02*
X80097500Y-111435000I0J-250000D01*
G01*
X80097500Y-112385000D01*
G75*
G02*
X79847500Y-112635000I-250000J0D01*
G01*
X79172500Y-112635000D01*
G75*
G02*
X78922500Y-112385000I0J250000D01*
G01*
G37*
%TD*%
%TO.C,C1*%
G36*
G01*
X78922500Y-138420000D02*
X78922500Y-137470000D01*
G75*
G02*
X79172500Y-137220000I250000J0D01*
G01*
X79847500Y-137220000D01*
G75*
G02*
X80097500Y-137470000I0J-250000D01*
G01*
X80097500Y-138420000D01*
G75*
G02*
X79847500Y-138670000I-250000J0D01*
G01*
X79172500Y-138670000D01*
G75*
G02*
X78922500Y-138420000I0J250000D01*
G01*
G37*
G36*
G01*
X80997500Y-138420000D02*
X80997500Y-137470000D01*
G75*
G02*
X81247500Y-137220000I250000J0D01*
G01*
X81922500Y-137220000D01*
G75*
G02*
X82172500Y-137470000I0J-250000D01*
G01*
X82172500Y-138420000D01*
G75*
G02*
X81922500Y-138670000I-250000J0D01*
G01*
X81247500Y-138670000D01*
G75*
G02*
X80997500Y-138420000I0J250000D01*
G01*
G37*
%TD*%
%TO.C,C0*%
G36*
G01*
X80997500Y-164455000D02*
X80997500Y-163505000D01*
G75*
G02*
X81247500Y-163255000I250000J0D01*
G01*
X81922500Y-163255000D01*
G75*
G02*
X82172500Y-163505000I0J-250000D01*
G01*
X82172500Y-164455000D01*
G75*
G02*
X81922500Y-164705000I-250000J0D01*
G01*
X81247500Y-164705000D01*
G75*
G02*
X80997500Y-164455000I0J250000D01*
G01*
G37*
G36*
G01*
X78922500Y-164455000D02*
X78922500Y-163505000D01*
G75*
G02*
X79172500Y-163255000I250000J0D01*
G01*
X79847500Y-163255000D01*
G75*
G02*
X80097500Y-163505000I0J-250000D01*
G01*
X80097500Y-164455000D01*
G75*
G02*
X79847500Y-164705000I-250000J0D01*
G01*
X79172500Y-164705000D01*
G75*
G02*
X78922500Y-164455000I0J250000D01*
G01*
G37*
%TD*%
D25*
%TO.C,Z4*%
X131982500Y-109474000D03*
X131982500Y-113474000D03*
%TD*%
%TO.C,Z3*%
X128426500Y-109474000D03*
X128426500Y-113474000D03*
%TD*%
%TO.C,Z2*%
X131982500Y-98099000D03*
X131982500Y-102099000D03*
%TD*%
%TO.C,Z1*%
X128426500Y-98099000D03*
X128426500Y-102099000D03*
%TD*%
D15*
%TO.C,JP0*%
X85627500Y-171600000D03*
X85627500Y-174140000D03*
X83087500Y-171600000D03*
X83087500Y-174140000D03*
X80547500Y-171600000D03*
D16*
X80547500Y-174140000D03*
%TD*%
D22*
%TO.C,J13*%
X96977500Y-122070000D03*
X94477500Y-122070000D03*
G36*
G01*
X91127500Y-122795000D02*
X91127500Y-121345000D01*
G75*
G02*
X91377500Y-121095000I250000J0D01*
G01*
X92577500Y-121095000D01*
G75*
G02*
X92827500Y-121345000I0J-250000D01*
G01*
X92827500Y-122795000D01*
G75*
G02*
X92577500Y-123045000I-250000J0D01*
G01*
X91377500Y-123045000D01*
G75*
G02*
X91127500Y-122795000I0J250000D01*
G01*
G37*
%TD*%
%TO.C,J11*%
X96977500Y-140485000D03*
X94477500Y-140485000D03*
G36*
G01*
X91127500Y-141210000D02*
X91127500Y-139760000D01*
G75*
G02*
X91377500Y-139510000I250000J0D01*
G01*
X92577500Y-139510000D01*
G75*
G02*
X92827500Y-139760000I0J-250000D01*
G01*
X92827500Y-141210000D01*
G75*
G02*
X92577500Y-141460000I-250000J0D01*
G01*
X91377500Y-141460000D01*
G75*
G02*
X91127500Y-141210000I0J250000D01*
G01*
G37*
%TD*%
D24*
%TO.C,J18*%
X65307500Y-103615000D03*
G36*
G01*
X64557500Y-100265000D02*
X66057500Y-100265000D01*
G75*
G02*
X66307500Y-100515000I0J-250000D01*
G01*
X66307500Y-101715000D01*
G75*
G02*
X66057500Y-101965000I-250000J0D01*
G01*
X64557500Y-101965000D01*
G75*
G02*
X64307500Y-101715000I0J250000D01*
G01*
X64307500Y-100515000D01*
G75*
G02*
X64557500Y-100265000I250000J0D01*
G01*
G37*
%TD*%
D16*
%TO.C,JP1*%
X80547500Y-148105000D03*
D15*
X83087500Y-148105000D03*
X85627500Y-148105000D03*
%TD*%
%TO.C,JP2*%
X85627500Y-122070000D03*
X83087500Y-122070000D03*
D16*
X80547500Y-122070000D03*
%TD*%
M02*
