%TF.GenerationSoftware,KiCad,Pcbnew,(5.1.9)-1*%
%TF.CreationDate,2021-01-06T12:08:29+00:00*%
%TF.ProjectId,switcherv0,73776974-6368-4657-9276-302e6b696361,rev?*%
%TF.SameCoordinates,Original*%
%TF.FileFunction,Legend,Bot*%
%TF.FilePolarity,Positive*%
%FSLAX46Y46*%
G04 Gerber Fmt 4.6, Leading zero omitted, Abs format (unit mm)*
G04 Created by KiCad (PCBNEW (5.1.9)-1) date 2021-01-06 12:08:29*
%MOMM*%
%LPD*%
G01*
G04 APERTURE LIST*
%ADD10C,0.150000*%
%ADD11C,0.200000*%
%ADD12C,0.120000*%
%ADD13C,0.250000*%
%ADD14C,0.400000*%
%ADD15C,0.100000*%
G04 APERTURE END LIST*
D10*
X134418928Y-116061761D02*
X134276071Y-116109380D01*
X134037976Y-116109380D01*
X133942738Y-116061761D01*
X133895119Y-116014142D01*
X133847500Y-115918904D01*
X133847500Y-115823666D01*
X133895119Y-115728428D01*
X133942738Y-115680809D01*
X134037976Y-115633190D01*
X134228452Y-115585571D01*
X134323690Y-115537952D01*
X134371309Y-115490333D01*
X134418928Y-115395095D01*
X134418928Y-115299857D01*
X134371309Y-115204619D01*
X134323690Y-115157000D01*
X134228452Y-115109380D01*
X133990357Y-115109380D01*
X133847500Y-115157000D01*
X133561785Y-115109380D02*
X132990357Y-115109380D01*
X133276071Y-116109380D02*
X133276071Y-115109380D01*
X132657023Y-115585571D02*
X132323690Y-115585571D01*
X132180833Y-116109380D02*
X132657023Y-116109380D01*
X132657023Y-115109380D01*
X132180833Y-115109380D01*
X131752261Y-116109380D02*
X131752261Y-115109380D01*
X131371309Y-115109380D01*
X131276071Y-115157000D01*
X131228452Y-115204619D01*
X131180833Y-115299857D01*
X131180833Y-115442714D01*
X131228452Y-115537952D01*
X131276071Y-115585571D01*
X131371309Y-115633190D01*
X131752261Y-115633190D01*
X130752261Y-116109380D02*
X130752261Y-115109380D01*
X130371309Y-115109380D01*
X130276071Y-115157000D01*
X130228452Y-115204619D01*
X130180833Y-115299857D01*
X130180833Y-115442714D01*
X130228452Y-115537952D01*
X130276071Y-115585571D01*
X130371309Y-115633190D01*
X130752261Y-115633190D01*
X129752261Y-115585571D02*
X129418928Y-115585571D01*
X129276071Y-116109380D02*
X129752261Y-116109380D01*
X129752261Y-115109380D01*
X129276071Y-115109380D01*
X128276071Y-116109380D02*
X128609404Y-115633190D01*
X128847500Y-116109380D02*
X128847500Y-115109380D01*
X128466547Y-115109380D01*
X128371309Y-115157000D01*
X128323690Y-115204619D01*
X128276071Y-115299857D01*
X128276071Y-115442714D01*
X128323690Y-115537952D01*
X128371309Y-115585571D01*
X128466547Y-115633190D01*
X128847500Y-115633190D01*
X133609404Y-117759380D02*
X133609404Y-116759380D01*
X133276071Y-117473666D01*
X132942738Y-116759380D01*
X132942738Y-117759380D01*
X132276071Y-116759380D02*
X132085595Y-116759380D01*
X131990357Y-116807000D01*
X131895119Y-116902238D01*
X131847500Y-117092714D01*
X131847500Y-117426047D01*
X131895119Y-117616523D01*
X131990357Y-117711761D01*
X132085595Y-117759380D01*
X132276071Y-117759380D01*
X132371309Y-117711761D01*
X132466547Y-117616523D01*
X132514166Y-117426047D01*
X132514166Y-117092714D01*
X132466547Y-116902238D01*
X132371309Y-116807000D01*
X132276071Y-116759380D01*
X131561785Y-116759380D02*
X130990357Y-116759380D01*
X131276071Y-117759380D02*
X131276071Y-116759380D01*
X130466547Y-116759380D02*
X130276071Y-116759380D01*
X130180833Y-116807000D01*
X130085595Y-116902238D01*
X130037976Y-117092714D01*
X130037976Y-117426047D01*
X130085595Y-117616523D01*
X130180833Y-117711761D01*
X130276071Y-117759380D01*
X130466547Y-117759380D01*
X130561785Y-117711761D01*
X130657023Y-117616523D01*
X130704642Y-117426047D01*
X130704642Y-117092714D01*
X130657023Y-116902238D01*
X130561785Y-116807000D01*
X130466547Y-116759380D01*
X129037976Y-117759380D02*
X129371309Y-117283190D01*
X129609404Y-117759380D02*
X129609404Y-116759380D01*
X129228452Y-116759380D01*
X129133214Y-116807000D01*
X129085595Y-116854619D01*
X129037976Y-116949857D01*
X129037976Y-117092714D01*
X129085595Y-117187952D01*
X129133214Y-117235571D01*
X129228452Y-117283190D01*
X129609404Y-117283190D01*
X81910571Y-87962571D02*
X81767714Y-88010190D01*
X81720095Y-88057809D01*
X81672476Y-88153047D01*
X81672476Y-88295904D01*
X81720095Y-88391142D01*
X81767714Y-88438761D01*
X81862952Y-88486380D01*
X82243904Y-88486380D01*
X82243904Y-87486380D01*
X81910571Y-87486380D01*
X81815333Y-87534000D01*
X81767714Y-87581619D01*
X81720095Y-87676857D01*
X81720095Y-87772095D01*
X81767714Y-87867333D01*
X81815333Y-87914952D01*
X81910571Y-87962571D01*
X82243904Y-87962571D01*
X80767714Y-88486380D02*
X81243904Y-88486380D01*
X81243904Y-87486380D01*
X80577238Y-87486380D02*
X80005809Y-87486380D01*
X80291523Y-88486380D02*
X80291523Y-87486380D01*
X79482000Y-87486380D02*
X79291523Y-87486380D01*
X79196285Y-87534000D01*
X79101047Y-87629238D01*
X79053428Y-87819714D01*
X79053428Y-88153047D01*
X79101047Y-88343523D01*
X79196285Y-88438761D01*
X79291523Y-88486380D01*
X79482000Y-88486380D01*
X79577238Y-88438761D01*
X79672476Y-88343523D01*
X79720095Y-88153047D01*
X79720095Y-87819714D01*
X79672476Y-87629238D01*
X79577238Y-87534000D01*
X79482000Y-87486380D01*
X78624857Y-87486380D02*
X78624857Y-88295904D01*
X78577238Y-88391142D01*
X78529619Y-88438761D01*
X78434380Y-88486380D01*
X78243904Y-88486380D01*
X78148666Y-88438761D01*
X78101047Y-88391142D01*
X78053428Y-88295904D01*
X78053428Y-87486380D01*
X77005809Y-88391142D02*
X77053428Y-88438761D01*
X77196285Y-88486380D01*
X77291523Y-88486380D01*
X77434380Y-88438761D01*
X77529619Y-88343523D01*
X77577238Y-88248285D01*
X77624857Y-88057809D01*
X77624857Y-87914952D01*
X77577238Y-87724476D01*
X77529619Y-87629238D01*
X77434380Y-87534000D01*
X77291523Y-87486380D01*
X77196285Y-87486380D01*
X77053428Y-87534000D01*
X77005809Y-87581619D01*
X76577238Y-88486380D02*
X76577238Y-87486380D01*
X76577238Y-87962571D02*
X76005809Y-87962571D01*
X76005809Y-88486380D02*
X76005809Y-87486380D01*
X66289523Y-158431666D02*
X65813333Y-158431666D01*
X66384761Y-158717380D02*
X66051428Y-157717380D01*
X65718095Y-158717380D01*
X65384761Y-157717380D02*
X65384761Y-158526904D01*
X65337142Y-158622142D01*
X65289523Y-158669761D01*
X65194285Y-158717380D01*
X65003809Y-158717380D01*
X64908571Y-158669761D01*
X64860952Y-158622142D01*
X64813333Y-158526904D01*
X64813333Y-157717380D01*
X64432380Y-157717380D02*
X63765714Y-158717380D01*
X63765714Y-157717380D02*
X64432380Y-158717380D01*
X62432380Y-157717380D02*
X62337142Y-157717380D01*
X62241904Y-157765000D01*
X62194285Y-157812619D01*
X62146666Y-157907857D01*
X62099047Y-158098333D01*
X62099047Y-158336428D01*
X62146666Y-158526904D01*
X62194285Y-158622142D01*
X62241904Y-158669761D01*
X62337142Y-158717380D01*
X62432380Y-158717380D01*
X62527619Y-158669761D01*
X62575238Y-158622142D01*
X62622857Y-158526904D01*
X62670476Y-158336428D01*
X62670476Y-158098333D01*
X62622857Y-157907857D01*
X62575238Y-157812619D01*
X62527619Y-157765000D01*
X62432380Y-157717380D01*
X66289523Y-122871666D02*
X65813333Y-122871666D01*
X66384761Y-123157380D02*
X66051428Y-122157380D01*
X65718095Y-123157380D01*
X65384761Y-122157380D02*
X65384761Y-122966904D01*
X65337142Y-123062142D01*
X65289523Y-123109761D01*
X65194285Y-123157380D01*
X65003809Y-123157380D01*
X64908571Y-123109761D01*
X64860952Y-123062142D01*
X64813333Y-122966904D01*
X64813333Y-122157380D01*
X64432380Y-122157380D02*
X63765714Y-123157380D01*
X63765714Y-122157380D02*
X64432380Y-123157380D01*
X62099047Y-123157380D02*
X62670476Y-123157380D01*
X62384761Y-123157380D02*
X62384761Y-122157380D01*
X62480000Y-122300238D01*
X62575238Y-122395476D01*
X62670476Y-122443095D01*
X120694404Y-170147380D02*
X120694404Y-169147380D01*
X120694404Y-169623571D02*
X120122976Y-169623571D01*
X120122976Y-170147380D02*
X120122976Y-169147380D01*
X119646785Y-169623571D02*
X119313452Y-169623571D01*
X119170595Y-170147380D02*
X119646785Y-170147380D01*
X119646785Y-169147380D01*
X119170595Y-169147380D01*
X118789642Y-169861666D02*
X118313452Y-169861666D01*
X118884880Y-170147380D02*
X118551547Y-169147380D01*
X118218214Y-170147380D01*
X118027738Y-169147380D02*
X117456309Y-169147380D01*
X117742023Y-170147380D02*
X117742023Y-169147380D01*
X117122976Y-169623571D02*
X116789642Y-169623571D01*
X116646785Y-170147380D02*
X117122976Y-170147380D01*
X117122976Y-169147380D01*
X116646785Y-169147380D01*
X115646785Y-170147380D02*
X115980119Y-169671190D01*
X116218214Y-170147380D02*
X116218214Y-169147380D01*
X115837261Y-169147380D01*
X115742023Y-169195000D01*
X115694404Y-169242619D01*
X115646785Y-169337857D01*
X115646785Y-169480714D01*
X115694404Y-169575952D01*
X115742023Y-169623571D01*
X115837261Y-169671190D01*
X116218214Y-169671190D01*
X114599166Y-169147380D02*
X114027738Y-169147380D01*
X114313452Y-170147380D02*
X114313452Y-169147380D01*
X113694404Y-170147380D02*
X113694404Y-169147380D01*
X113694404Y-169623571D02*
X113122976Y-169623571D01*
X113122976Y-170147380D02*
X113122976Y-169147380D01*
X112075357Y-170147380D02*
X112408690Y-169671190D01*
X112646785Y-170147380D02*
X112646785Y-169147380D01*
X112265833Y-169147380D01*
X112170595Y-169195000D01*
X112122976Y-169242619D01*
X112075357Y-169337857D01*
X112075357Y-169480714D01*
X112122976Y-169575952D01*
X112170595Y-169623571D01*
X112265833Y-169671190D01*
X112646785Y-169671190D01*
X111456309Y-169147380D02*
X111265833Y-169147380D01*
X111170595Y-169195000D01*
X111075357Y-169290238D01*
X111027738Y-169480714D01*
X111027738Y-169814047D01*
X111075357Y-170004523D01*
X111170595Y-170099761D01*
X111265833Y-170147380D01*
X111456309Y-170147380D01*
X111551547Y-170099761D01*
X111646785Y-170004523D01*
X111694404Y-169814047D01*
X111694404Y-169480714D01*
X111646785Y-169290238D01*
X111551547Y-169195000D01*
X111456309Y-169147380D01*
X110599166Y-169147380D02*
X110599166Y-169956904D01*
X110551547Y-170052142D01*
X110503928Y-170099761D01*
X110408690Y-170147380D01*
X110218214Y-170147380D01*
X110122976Y-170099761D01*
X110075357Y-170052142D01*
X110027738Y-169956904D01*
X110027738Y-169147380D01*
X109027738Y-169195000D02*
X109122976Y-169147380D01*
X109265833Y-169147380D01*
X109408690Y-169195000D01*
X109503928Y-169290238D01*
X109551547Y-169385476D01*
X109599166Y-169575952D01*
X109599166Y-169718809D01*
X109551547Y-169909285D01*
X109503928Y-170004523D01*
X109408690Y-170099761D01*
X109265833Y-170147380D01*
X109170595Y-170147380D01*
X109027738Y-170099761D01*
X108980119Y-170052142D01*
X108980119Y-169718809D01*
X109170595Y-169718809D01*
X108551547Y-170147380D02*
X108551547Y-169147380D01*
X108551547Y-169623571D02*
X107980119Y-169623571D01*
X107980119Y-170147380D02*
X107980119Y-169147380D01*
X107503928Y-170147380D02*
X107503928Y-169147380D01*
X107122976Y-169147380D01*
X107027738Y-169195000D01*
X106980119Y-169242619D01*
X106932500Y-169337857D01*
X106932500Y-169480714D01*
X106980119Y-169575952D01*
X107027738Y-169623571D01*
X107122976Y-169671190D01*
X107503928Y-169671190D01*
X106503928Y-169147380D02*
X106503928Y-169956904D01*
X106456309Y-170052142D01*
X106408690Y-170099761D01*
X106313452Y-170147380D01*
X106122976Y-170147380D01*
X106027738Y-170099761D01*
X105980119Y-170052142D01*
X105932500Y-169956904D01*
X105932500Y-169147380D01*
X105599166Y-169147380D02*
X105027738Y-169147380D01*
X105313452Y-170147380D02*
X105313452Y-169147380D01*
X120694404Y-144112380D02*
X120694404Y-143112380D01*
X120694404Y-143588571D02*
X120122976Y-143588571D01*
X120122976Y-144112380D02*
X120122976Y-143112380D01*
X119646785Y-143588571D02*
X119313452Y-143588571D01*
X119170595Y-144112380D02*
X119646785Y-144112380D01*
X119646785Y-143112380D01*
X119170595Y-143112380D01*
X118789642Y-143826666D02*
X118313452Y-143826666D01*
X118884880Y-144112380D02*
X118551547Y-143112380D01*
X118218214Y-144112380D01*
X118027738Y-143112380D02*
X117456309Y-143112380D01*
X117742023Y-144112380D02*
X117742023Y-143112380D01*
X117122976Y-143588571D02*
X116789642Y-143588571D01*
X116646785Y-144112380D02*
X117122976Y-144112380D01*
X117122976Y-143112380D01*
X116646785Y-143112380D01*
X115646785Y-144112380D02*
X115980119Y-143636190D01*
X116218214Y-144112380D02*
X116218214Y-143112380D01*
X115837261Y-143112380D01*
X115742023Y-143160000D01*
X115694404Y-143207619D01*
X115646785Y-143302857D01*
X115646785Y-143445714D01*
X115694404Y-143540952D01*
X115742023Y-143588571D01*
X115837261Y-143636190D01*
X116218214Y-143636190D01*
X114599166Y-143112380D02*
X114027738Y-143112380D01*
X114313452Y-144112380D02*
X114313452Y-143112380D01*
X113694404Y-144112380D02*
X113694404Y-143112380D01*
X113694404Y-143588571D02*
X113122976Y-143588571D01*
X113122976Y-144112380D02*
X113122976Y-143112380D01*
X112075357Y-144112380D02*
X112408690Y-143636190D01*
X112646785Y-144112380D02*
X112646785Y-143112380D01*
X112265833Y-143112380D01*
X112170595Y-143160000D01*
X112122976Y-143207619D01*
X112075357Y-143302857D01*
X112075357Y-143445714D01*
X112122976Y-143540952D01*
X112170595Y-143588571D01*
X112265833Y-143636190D01*
X112646785Y-143636190D01*
X111456309Y-143112380D02*
X111265833Y-143112380D01*
X111170595Y-143160000D01*
X111075357Y-143255238D01*
X111027738Y-143445714D01*
X111027738Y-143779047D01*
X111075357Y-143969523D01*
X111170595Y-144064761D01*
X111265833Y-144112380D01*
X111456309Y-144112380D01*
X111551547Y-144064761D01*
X111646785Y-143969523D01*
X111694404Y-143779047D01*
X111694404Y-143445714D01*
X111646785Y-143255238D01*
X111551547Y-143160000D01*
X111456309Y-143112380D01*
X110599166Y-143112380D02*
X110599166Y-143921904D01*
X110551547Y-144017142D01*
X110503928Y-144064761D01*
X110408690Y-144112380D01*
X110218214Y-144112380D01*
X110122976Y-144064761D01*
X110075357Y-144017142D01*
X110027738Y-143921904D01*
X110027738Y-143112380D01*
X109027738Y-143160000D02*
X109122976Y-143112380D01*
X109265833Y-143112380D01*
X109408690Y-143160000D01*
X109503928Y-143255238D01*
X109551547Y-143350476D01*
X109599166Y-143540952D01*
X109599166Y-143683809D01*
X109551547Y-143874285D01*
X109503928Y-143969523D01*
X109408690Y-144064761D01*
X109265833Y-144112380D01*
X109170595Y-144112380D01*
X109027738Y-144064761D01*
X108980119Y-144017142D01*
X108980119Y-143683809D01*
X109170595Y-143683809D01*
X108551547Y-144112380D02*
X108551547Y-143112380D01*
X108551547Y-143588571D02*
X107980119Y-143588571D01*
X107980119Y-144112380D02*
X107980119Y-143112380D01*
X107503928Y-144112380D02*
X107503928Y-143112380D01*
X107122976Y-143112380D01*
X107027738Y-143160000D01*
X106980119Y-143207619D01*
X106932500Y-143302857D01*
X106932500Y-143445714D01*
X106980119Y-143540952D01*
X107027738Y-143588571D01*
X107122976Y-143636190D01*
X107503928Y-143636190D01*
X106503928Y-143112380D02*
X106503928Y-143921904D01*
X106456309Y-144017142D01*
X106408690Y-144064761D01*
X106313452Y-144112380D01*
X106122976Y-144112380D01*
X106027738Y-144064761D01*
X105980119Y-144017142D01*
X105932500Y-143921904D01*
X105932500Y-143112380D01*
X105599166Y-143112380D02*
X105027738Y-143112380D01*
X105313452Y-144112380D02*
X105313452Y-143112380D01*
X98134761Y-161972380D02*
X97563333Y-161972380D01*
X97849047Y-162972380D02*
X97849047Y-161972380D01*
X97230000Y-162448571D02*
X96896666Y-162448571D01*
X96753809Y-162972380D02*
X97230000Y-162972380D01*
X97230000Y-161972380D01*
X96753809Y-161972380D01*
X96325238Y-162972380D02*
X96325238Y-161972380D01*
X95991904Y-162686666D01*
X95658571Y-161972380D01*
X95658571Y-162972380D01*
X95182380Y-162972380D02*
X95182380Y-161972380D01*
X94801428Y-161972380D01*
X94706190Y-162020000D01*
X94658571Y-162067619D01*
X94610952Y-162162857D01*
X94610952Y-162305714D01*
X94658571Y-162400952D01*
X94706190Y-162448571D01*
X94801428Y-162496190D01*
X95182380Y-162496190D01*
X93468095Y-162924761D02*
X93325238Y-162972380D01*
X93087142Y-162972380D01*
X92991904Y-162924761D01*
X92944285Y-162877142D01*
X92896666Y-162781904D01*
X92896666Y-162686666D01*
X92944285Y-162591428D01*
X92991904Y-162543809D01*
X93087142Y-162496190D01*
X93277619Y-162448571D01*
X93372857Y-162400952D01*
X93420476Y-162353333D01*
X93468095Y-162258095D01*
X93468095Y-162162857D01*
X93420476Y-162067619D01*
X93372857Y-162020000D01*
X93277619Y-161972380D01*
X93039523Y-161972380D01*
X92896666Y-162020000D01*
X92468095Y-162448571D02*
X92134761Y-162448571D01*
X91991904Y-162972380D02*
X92468095Y-162972380D01*
X92468095Y-161972380D01*
X91991904Y-161972380D01*
X91563333Y-162972380D02*
X91563333Y-161972380D01*
X90991904Y-162972380D01*
X90991904Y-161972380D01*
X90563333Y-162924761D02*
X90420476Y-162972380D01*
X90182380Y-162972380D01*
X90087142Y-162924761D01*
X90039523Y-162877142D01*
X89991904Y-162781904D01*
X89991904Y-162686666D01*
X90039523Y-162591428D01*
X90087142Y-162543809D01*
X90182380Y-162496190D01*
X90372857Y-162448571D01*
X90468095Y-162400952D01*
X90515714Y-162353333D01*
X90563333Y-162258095D01*
X90563333Y-162162857D01*
X90515714Y-162067619D01*
X90468095Y-162020000D01*
X90372857Y-161972380D01*
X90134761Y-161972380D01*
X89991904Y-162020000D01*
X89563333Y-162448571D02*
X89230000Y-162448571D01*
X89087142Y-162972380D02*
X89563333Y-162972380D01*
X89563333Y-161972380D01*
X89087142Y-161972380D01*
X98134761Y-163622380D02*
X97563333Y-163622380D01*
X97849047Y-164622380D02*
X97849047Y-163622380D01*
X97230000Y-164622380D02*
X97230000Y-163622380D01*
X97230000Y-164098571D02*
X96658571Y-164098571D01*
X96658571Y-164622380D02*
X96658571Y-163622380D01*
X95610952Y-164622380D02*
X95944285Y-164146190D01*
X96182380Y-164622380D02*
X96182380Y-163622380D01*
X95801428Y-163622380D01*
X95706190Y-163670000D01*
X95658571Y-163717619D01*
X95610952Y-163812857D01*
X95610952Y-163955714D01*
X95658571Y-164050952D01*
X95706190Y-164098571D01*
X95801428Y-164146190D01*
X96182380Y-164146190D01*
X94991904Y-163622380D02*
X94801428Y-163622380D01*
X94706190Y-163670000D01*
X94610952Y-163765238D01*
X94563333Y-163955714D01*
X94563333Y-164289047D01*
X94610952Y-164479523D01*
X94706190Y-164574761D01*
X94801428Y-164622380D01*
X94991904Y-164622380D01*
X95087142Y-164574761D01*
X95182380Y-164479523D01*
X95230000Y-164289047D01*
X95230000Y-163955714D01*
X95182380Y-163765238D01*
X95087142Y-163670000D01*
X94991904Y-163622380D01*
X94134761Y-163622380D02*
X94134761Y-164431904D01*
X94087142Y-164527142D01*
X94039523Y-164574761D01*
X93944285Y-164622380D01*
X93753809Y-164622380D01*
X93658571Y-164574761D01*
X93610952Y-164527142D01*
X93563333Y-164431904D01*
X93563333Y-163622380D01*
X92563333Y-163670000D02*
X92658571Y-163622380D01*
X92801428Y-163622380D01*
X92944285Y-163670000D01*
X93039523Y-163765238D01*
X93087142Y-163860476D01*
X93134761Y-164050952D01*
X93134761Y-164193809D01*
X93087142Y-164384285D01*
X93039523Y-164479523D01*
X92944285Y-164574761D01*
X92801428Y-164622380D01*
X92706190Y-164622380D01*
X92563333Y-164574761D01*
X92515714Y-164527142D01*
X92515714Y-164193809D01*
X92706190Y-164193809D01*
X92087142Y-164622380D02*
X92087142Y-163622380D01*
X92087142Y-164098571D02*
X91515714Y-164098571D01*
X91515714Y-164622380D02*
X91515714Y-163622380D01*
X91039523Y-164622380D02*
X91039523Y-163622380D01*
X90658571Y-163622380D01*
X90563333Y-163670000D01*
X90515714Y-163717619D01*
X90468095Y-163812857D01*
X90468095Y-163955714D01*
X90515714Y-164050952D01*
X90563333Y-164098571D01*
X90658571Y-164146190D01*
X91039523Y-164146190D01*
X90039523Y-163622380D02*
X90039523Y-164431904D01*
X89991904Y-164527142D01*
X89944285Y-164574761D01*
X89849047Y-164622380D01*
X89658571Y-164622380D01*
X89563333Y-164574761D01*
X89515714Y-164527142D01*
X89468095Y-164431904D01*
X89468095Y-163622380D01*
X89134761Y-163622380D02*
X88563333Y-163622380D01*
X88849047Y-164622380D02*
X88849047Y-163622380D01*
X77671904Y-164813380D02*
X77671904Y-163813380D01*
X77433809Y-163813380D01*
X77290952Y-163861000D01*
X77195714Y-163956238D01*
X77148095Y-164051476D01*
X77100476Y-164241952D01*
X77100476Y-164384809D01*
X77148095Y-164575285D01*
X77195714Y-164670523D01*
X77290952Y-164765761D01*
X77433809Y-164813380D01*
X77671904Y-164813380D01*
X76481428Y-163813380D02*
X76290952Y-163813380D01*
X76195714Y-163861000D01*
X76100476Y-163956238D01*
X76052857Y-164146714D01*
X76052857Y-164480047D01*
X76100476Y-164670523D01*
X76195714Y-164765761D01*
X76290952Y-164813380D01*
X76481428Y-164813380D01*
X76576666Y-164765761D01*
X76671904Y-164670523D01*
X76719523Y-164480047D01*
X76719523Y-164146714D01*
X76671904Y-163956238D01*
X76576666Y-163861000D01*
X76481428Y-163813380D01*
X75052857Y-164718142D02*
X75100476Y-164765761D01*
X75243333Y-164813380D01*
X75338571Y-164813380D01*
X75481428Y-164765761D01*
X75576666Y-164670523D01*
X75624285Y-164575285D01*
X75671904Y-164384809D01*
X75671904Y-164241952D01*
X75624285Y-164051476D01*
X75576666Y-163956238D01*
X75481428Y-163861000D01*
X75338571Y-163813380D01*
X75243333Y-163813380D01*
X75100476Y-163861000D01*
X75052857Y-163908619D01*
X74624285Y-164813380D02*
X74624285Y-163813380D01*
X74052857Y-164813380D02*
X74481428Y-164241952D01*
X74052857Y-163813380D02*
X74624285Y-164384809D01*
X72290952Y-164718142D02*
X72338571Y-164765761D01*
X72481428Y-164813380D01*
X72576666Y-164813380D01*
X72719523Y-164765761D01*
X72814761Y-164670523D01*
X72862380Y-164575285D01*
X72910000Y-164384809D01*
X72910000Y-164241952D01*
X72862380Y-164051476D01*
X72814761Y-163956238D01*
X72719523Y-163861000D01*
X72576666Y-163813380D01*
X72481428Y-163813380D01*
X72338571Y-163861000D01*
X72290952Y-163908619D01*
X71671904Y-163813380D02*
X71481428Y-163813380D01*
X71386190Y-163861000D01*
X71290952Y-163956238D01*
X71243333Y-164146714D01*
X71243333Y-164480047D01*
X71290952Y-164670523D01*
X71386190Y-164765761D01*
X71481428Y-164813380D01*
X71671904Y-164813380D01*
X71767142Y-164765761D01*
X71862380Y-164670523D01*
X71910000Y-164480047D01*
X71910000Y-164146714D01*
X71862380Y-163956238D01*
X71767142Y-163861000D01*
X71671904Y-163813380D01*
X70814761Y-164813380D02*
X70814761Y-163813380D01*
X70243333Y-164813380D01*
X70243333Y-163813380D01*
X98134761Y-135937380D02*
X97563333Y-135937380D01*
X97849047Y-136937380D02*
X97849047Y-135937380D01*
X97230000Y-136413571D02*
X96896666Y-136413571D01*
X96753809Y-136937380D02*
X97230000Y-136937380D01*
X97230000Y-135937380D01*
X96753809Y-135937380D01*
X96325238Y-136937380D02*
X96325238Y-135937380D01*
X95991904Y-136651666D01*
X95658571Y-135937380D01*
X95658571Y-136937380D01*
X95182380Y-136937380D02*
X95182380Y-135937380D01*
X94801428Y-135937380D01*
X94706190Y-135985000D01*
X94658571Y-136032619D01*
X94610952Y-136127857D01*
X94610952Y-136270714D01*
X94658571Y-136365952D01*
X94706190Y-136413571D01*
X94801428Y-136461190D01*
X95182380Y-136461190D01*
X93468095Y-136889761D02*
X93325238Y-136937380D01*
X93087142Y-136937380D01*
X92991904Y-136889761D01*
X92944285Y-136842142D01*
X92896666Y-136746904D01*
X92896666Y-136651666D01*
X92944285Y-136556428D01*
X92991904Y-136508809D01*
X93087142Y-136461190D01*
X93277619Y-136413571D01*
X93372857Y-136365952D01*
X93420476Y-136318333D01*
X93468095Y-136223095D01*
X93468095Y-136127857D01*
X93420476Y-136032619D01*
X93372857Y-135985000D01*
X93277619Y-135937380D01*
X93039523Y-135937380D01*
X92896666Y-135985000D01*
X92468095Y-136413571D02*
X92134761Y-136413571D01*
X91991904Y-136937380D02*
X92468095Y-136937380D01*
X92468095Y-135937380D01*
X91991904Y-135937380D01*
X91563333Y-136937380D02*
X91563333Y-135937380D01*
X90991904Y-136937380D01*
X90991904Y-135937380D01*
X90563333Y-136889761D02*
X90420476Y-136937380D01*
X90182380Y-136937380D01*
X90087142Y-136889761D01*
X90039523Y-136842142D01*
X89991904Y-136746904D01*
X89991904Y-136651666D01*
X90039523Y-136556428D01*
X90087142Y-136508809D01*
X90182380Y-136461190D01*
X90372857Y-136413571D01*
X90468095Y-136365952D01*
X90515714Y-136318333D01*
X90563333Y-136223095D01*
X90563333Y-136127857D01*
X90515714Y-136032619D01*
X90468095Y-135985000D01*
X90372857Y-135937380D01*
X90134761Y-135937380D01*
X89991904Y-135985000D01*
X89563333Y-136413571D02*
X89230000Y-136413571D01*
X89087142Y-136937380D02*
X89563333Y-136937380D01*
X89563333Y-135937380D01*
X89087142Y-135937380D01*
X98134761Y-137587380D02*
X97563333Y-137587380D01*
X97849047Y-138587380D02*
X97849047Y-137587380D01*
X97230000Y-138587380D02*
X97230000Y-137587380D01*
X97230000Y-138063571D02*
X96658571Y-138063571D01*
X96658571Y-138587380D02*
X96658571Y-137587380D01*
X95610952Y-138587380D02*
X95944285Y-138111190D01*
X96182380Y-138587380D02*
X96182380Y-137587380D01*
X95801428Y-137587380D01*
X95706190Y-137635000D01*
X95658571Y-137682619D01*
X95610952Y-137777857D01*
X95610952Y-137920714D01*
X95658571Y-138015952D01*
X95706190Y-138063571D01*
X95801428Y-138111190D01*
X96182380Y-138111190D01*
X94991904Y-137587380D02*
X94801428Y-137587380D01*
X94706190Y-137635000D01*
X94610952Y-137730238D01*
X94563333Y-137920714D01*
X94563333Y-138254047D01*
X94610952Y-138444523D01*
X94706190Y-138539761D01*
X94801428Y-138587380D01*
X94991904Y-138587380D01*
X95087142Y-138539761D01*
X95182380Y-138444523D01*
X95230000Y-138254047D01*
X95230000Y-137920714D01*
X95182380Y-137730238D01*
X95087142Y-137635000D01*
X94991904Y-137587380D01*
X94134761Y-137587380D02*
X94134761Y-138396904D01*
X94087142Y-138492142D01*
X94039523Y-138539761D01*
X93944285Y-138587380D01*
X93753809Y-138587380D01*
X93658571Y-138539761D01*
X93610952Y-138492142D01*
X93563333Y-138396904D01*
X93563333Y-137587380D01*
X92563333Y-137635000D02*
X92658571Y-137587380D01*
X92801428Y-137587380D01*
X92944285Y-137635000D01*
X93039523Y-137730238D01*
X93087142Y-137825476D01*
X93134761Y-138015952D01*
X93134761Y-138158809D01*
X93087142Y-138349285D01*
X93039523Y-138444523D01*
X92944285Y-138539761D01*
X92801428Y-138587380D01*
X92706190Y-138587380D01*
X92563333Y-138539761D01*
X92515714Y-138492142D01*
X92515714Y-138158809D01*
X92706190Y-138158809D01*
X92087142Y-138587380D02*
X92087142Y-137587380D01*
X92087142Y-138063571D02*
X91515714Y-138063571D01*
X91515714Y-138587380D02*
X91515714Y-137587380D01*
X91039523Y-138587380D02*
X91039523Y-137587380D01*
X90658571Y-137587380D01*
X90563333Y-137635000D01*
X90515714Y-137682619D01*
X90468095Y-137777857D01*
X90468095Y-137920714D01*
X90515714Y-138015952D01*
X90563333Y-138063571D01*
X90658571Y-138111190D01*
X91039523Y-138111190D01*
X90039523Y-137587380D02*
X90039523Y-138396904D01*
X89991904Y-138492142D01*
X89944285Y-138539761D01*
X89849047Y-138587380D01*
X89658571Y-138587380D01*
X89563333Y-138539761D01*
X89515714Y-138492142D01*
X89468095Y-138396904D01*
X89468095Y-137587380D01*
X89134761Y-137587380D02*
X88563333Y-137587380D01*
X88849047Y-138587380D02*
X88849047Y-137587380D01*
X77671904Y-138778380D02*
X77671904Y-137778380D01*
X77433809Y-137778380D01*
X77290952Y-137826000D01*
X77195714Y-137921238D01*
X77148095Y-138016476D01*
X77100476Y-138206952D01*
X77100476Y-138349809D01*
X77148095Y-138540285D01*
X77195714Y-138635523D01*
X77290952Y-138730761D01*
X77433809Y-138778380D01*
X77671904Y-138778380D01*
X76481428Y-137778380D02*
X76290952Y-137778380D01*
X76195714Y-137826000D01*
X76100476Y-137921238D01*
X76052857Y-138111714D01*
X76052857Y-138445047D01*
X76100476Y-138635523D01*
X76195714Y-138730761D01*
X76290952Y-138778380D01*
X76481428Y-138778380D01*
X76576666Y-138730761D01*
X76671904Y-138635523D01*
X76719523Y-138445047D01*
X76719523Y-138111714D01*
X76671904Y-137921238D01*
X76576666Y-137826000D01*
X76481428Y-137778380D01*
X75052857Y-138683142D02*
X75100476Y-138730761D01*
X75243333Y-138778380D01*
X75338571Y-138778380D01*
X75481428Y-138730761D01*
X75576666Y-138635523D01*
X75624285Y-138540285D01*
X75671904Y-138349809D01*
X75671904Y-138206952D01*
X75624285Y-138016476D01*
X75576666Y-137921238D01*
X75481428Y-137826000D01*
X75338571Y-137778380D01*
X75243333Y-137778380D01*
X75100476Y-137826000D01*
X75052857Y-137873619D01*
X74624285Y-138778380D02*
X74624285Y-137778380D01*
X74052857Y-138778380D02*
X74481428Y-138206952D01*
X74052857Y-137778380D02*
X74624285Y-138349809D01*
X72290952Y-138683142D02*
X72338571Y-138730761D01*
X72481428Y-138778380D01*
X72576666Y-138778380D01*
X72719523Y-138730761D01*
X72814761Y-138635523D01*
X72862380Y-138540285D01*
X72910000Y-138349809D01*
X72910000Y-138206952D01*
X72862380Y-138016476D01*
X72814761Y-137921238D01*
X72719523Y-137826000D01*
X72576666Y-137778380D01*
X72481428Y-137778380D01*
X72338571Y-137826000D01*
X72290952Y-137873619D01*
X71671904Y-137778380D02*
X71481428Y-137778380D01*
X71386190Y-137826000D01*
X71290952Y-137921238D01*
X71243333Y-138111714D01*
X71243333Y-138445047D01*
X71290952Y-138635523D01*
X71386190Y-138730761D01*
X71481428Y-138778380D01*
X71671904Y-138778380D01*
X71767142Y-138730761D01*
X71862380Y-138635523D01*
X71910000Y-138445047D01*
X71910000Y-138111714D01*
X71862380Y-137921238D01*
X71767142Y-137826000D01*
X71671904Y-137778380D01*
X70814761Y-138778380D02*
X70814761Y-137778380D01*
X70243333Y-138778380D01*
X70243333Y-137778380D01*
X77671904Y-112743380D02*
X77671904Y-111743380D01*
X77433809Y-111743380D01*
X77290952Y-111791000D01*
X77195714Y-111886238D01*
X77148095Y-111981476D01*
X77100476Y-112171952D01*
X77100476Y-112314809D01*
X77148095Y-112505285D01*
X77195714Y-112600523D01*
X77290952Y-112695761D01*
X77433809Y-112743380D01*
X77671904Y-112743380D01*
X76481428Y-111743380D02*
X76290952Y-111743380D01*
X76195714Y-111791000D01*
X76100476Y-111886238D01*
X76052857Y-112076714D01*
X76052857Y-112410047D01*
X76100476Y-112600523D01*
X76195714Y-112695761D01*
X76290952Y-112743380D01*
X76481428Y-112743380D01*
X76576666Y-112695761D01*
X76671904Y-112600523D01*
X76719523Y-112410047D01*
X76719523Y-112076714D01*
X76671904Y-111886238D01*
X76576666Y-111791000D01*
X76481428Y-111743380D01*
X75052857Y-112648142D02*
X75100476Y-112695761D01*
X75243333Y-112743380D01*
X75338571Y-112743380D01*
X75481428Y-112695761D01*
X75576666Y-112600523D01*
X75624285Y-112505285D01*
X75671904Y-112314809D01*
X75671904Y-112171952D01*
X75624285Y-111981476D01*
X75576666Y-111886238D01*
X75481428Y-111791000D01*
X75338571Y-111743380D01*
X75243333Y-111743380D01*
X75100476Y-111791000D01*
X75052857Y-111838619D01*
X74624285Y-112743380D02*
X74624285Y-111743380D01*
X74052857Y-112743380D02*
X74481428Y-112171952D01*
X74052857Y-111743380D02*
X74624285Y-112314809D01*
X72290952Y-112648142D02*
X72338571Y-112695761D01*
X72481428Y-112743380D01*
X72576666Y-112743380D01*
X72719523Y-112695761D01*
X72814761Y-112600523D01*
X72862380Y-112505285D01*
X72910000Y-112314809D01*
X72910000Y-112171952D01*
X72862380Y-111981476D01*
X72814761Y-111886238D01*
X72719523Y-111791000D01*
X72576666Y-111743380D01*
X72481428Y-111743380D01*
X72338571Y-111791000D01*
X72290952Y-111838619D01*
X71671904Y-111743380D02*
X71481428Y-111743380D01*
X71386190Y-111791000D01*
X71290952Y-111886238D01*
X71243333Y-112076714D01*
X71243333Y-112410047D01*
X71290952Y-112600523D01*
X71386190Y-112695761D01*
X71481428Y-112743380D01*
X71671904Y-112743380D01*
X71767142Y-112695761D01*
X71862380Y-112600523D01*
X71910000Y-112410047D01*
X71910000Y-112076714D01*
X71862380Y-111886238D01*
X71767142Y-111791000D01*
X71671904Y-111743380D01*
X70814761Y-112743380D02*
X70814761Y-111743380D01*
X70243333Y-112743380D01*
X70243333Y-111743380D01*
X98134761Y-109902380D02*
X97563333Y-109902380D01*
X97849047Y-110902380D02*
X97849047Y-109902380D01*
X97230000Y-110378571D02*
X96896666Y-110378571D01*
X96753809Y-110902380D02*
X97230000Y-110902380D01*
X97230000Y-109902380D01*
X96753809Y-109902380D01*
X96325238Y-110902380D02*
X96325238Y-109902380D01*
X95991904Y-110616666D01*
X95658571Y-109902380D01*
X95658571Y-110902380D01*
X95182380Y-110902380D02*
X95182380Y-109902380D01*
X94801428Y-109902380D01*
X94706190Y-109950000D01*
X94658571Y-109997619D01*
X94610952Y-110092857D01*
X94610952Y-110235714D01*
X94658571Y-110330952D01*
X94706190Y-110378571D01*
X94801428Y-110426190D01*
X95182380Y-110426190D01*
X93468095Y-110854761D02*
X93325238Y-110902380D01*
X93087142Y-110902380D01*
X92991904Y-110854761D01*
X92944285Y-110807142D01*
X92896666Y-110711904D01*
X92896666Y-110616666D01*
X92944285Y-110521428D01*
X92991904Y-110473809D01*
X93087142Y-110426190D01*
X93277619Y-110378571D01*
X93372857Y-110330952D01*
X93420476Y-110283333D01*
X93468095Y-110188095D01*
X93468095Y-110092857D01*
X93420476Y-109997619D01*
X93372857Y-109950000D01*
X93277619Y-109902380D01*
X93039523Y-109902380D01*
X92896666Y-109950000D01*
X92468095Y-110378571D02*
X92134761Y-110378571D01*
X91991904Y-110902380D02*
X92468095Y-110902380D01*
X92468095Y-109902380D01*
X91991904Y-109902380D01*
X91563333Y-110902380D02*
X91563333Y-109902380D01*
X90991904Y-110902380D01*
X90991904Y-109902380D01*
X90563333Y-110854761D02*
X90420476Y-110902380D01*
X90182380Y-110902380D01*
X90087142Y-110854761D01*
X90039523Y-110807142D01*
X89991904Y-110711904D01*
X89991904Y-110616666D01*
X90039523Y-110521428D01*
X90087142Y-110473809D01*
X90182380Y-110426190D01*
X90372857Y-110378571D01*
X90468095Y-110330952D01*
X90515714Y-110283333D01*
X90563333Y-110188095D01*
X90563333Y-110092857D01*
X90515714Y-109997619D01*
X90468095Y-109950000D01*
X90372857Y-109902380D01*
X90134761Y-109902380D01*
X89991904Y-109950000D01*
X89563333Y-110378571D02*
X89230000Y-110378571D01*
X89087142Y-110902380D02*
X89563333Y-110902380D01*
X89563333Y-109902380D01*
X89087142Y-109902380D01*
X98134761Y-111552380D02*
X97563333Y-111552380D01*
X97849047Y-112552380D02*
X97849047Y-111552380D01*
X97230000Y-112552380D02*
X97230000Y-111552380D01*
X97230000Y-112028571D02*
X96658571Y-112028571D01*
X96658571Y-112552380D02*
X96658571Y-111552380D01*
X95610952Y-112552380D02*
X95944285Y-112076190D01*
X96182380Y-112552380D02*
X96182380Y-111552380D01*
X95801428Y-111552380D01*
X95706190Y-111600000D01*
X95658571Y-111647619D01*
X95610952Y-111742857D01*
X95610952Y-111885714D01*
X95658571Y-111980952D01*
X95706190Y-112028571D01*
X95801428Y-112076190D01*
X96182380Y-112076190D01*
X94991904Y-111552380D02*
X94801428Y-111552380D01*
X94706190Y-111600000D01*
X94610952Y-111695238D01*
X94563333Y-111885714D01*
X94563333Y-112219047D01*
X94610952Y-112409523D01*
X94706190Y-112504761D01*
X94801428Y-112552380D01*
X94991904Y-112552380D01*
X95087142Y-112504761D01*
X95182380Y-112409523D01*
X95230000Y-112219047D01*
X95230000Y-111885714D01*
X95182380Y-111695238D01*
X95087142Y-111600000D01*
X94991904Y-111552380D01*
X94134761Y-111552380D02*
X94134761Y-112361904D01*
X94087142Y-112457142D01*
X94039523Y-112504761D01*
X93944285Y-112552380D01*
X93753809Y-112552380D01*
X93658571Y-112504761D01*
X93610952Y-112457142D01*
X93563333Y-112361904D01*
X93563333Y-111552380D01*
X92563333Y-111600000D02*
X92658571Y-111552380D01*
X92801428Y-111552380D01*
X92944285Y-111600000D01*
X93039523Y-111695238D01*
X93087142Y-111790476D01*
X93134761Y-111980952D01*
X93134761Y-112123809D01*
X93087142Y-112314285D01*
X93039523Y-112409523D01*
X92944285Y-112504761D01*
X92801428Y-112552380D01*
X92706190Y-112552380D01*
X92563333Y-112504761D01*
X92515714Y-112457142D01*
X92515714Y-112123809D01*
X92706190Y-112123809D01*
X92087142Y-112552380D02*
X92087142Y-111552380D01*
X92087142Y-112028571D02*
X91515714Y-112028571D01*
X91515714Y-112552380D02*
X91515714Y-111552380D01*
X91039523Y-112552380D02*
X91039523Y-111552380D01*
X90658571Y-111552380D01*
X90563333Y-111600000D01*
X90515714Y-111647619D01*
X90468095Y-111742857D01*
X90468095Y-111885714D01*
X90515714Y-111980952D01*
X90563333Y-112028571D01*
X90658571Y-112076190D01*
X91039523Y-112076190D01*
X90039523Y-111552380D02*
X90039523Y-112361904D01*
X89991904Y-112457142D01*
X89944285Y-112504761D01*
X89849047Y-112552380D01*
X89658571Y-112552380D01*
X89563333Y-112504761D01*
X89515714Y-112457142D01*
X89468095Y-112361904D01*
X89468095Y-111552380D01*
X89134761Y-111552380D02*
X88563333Y-111552380D01*
X88849047Y-112552380D02*
X88849047Y-111552380D01*
D11*
X100315357Y-177763571D02*
X99458214Y-177763571D01*
X99886785Y-179263571D02*
X99886785Y-177763571D01*
X98672500Y-177763571D02*
X98386785Y-177763571D01*
X98243928Y-177835000D01*
X98101071Y-177977857D01*
X98029642Y-178263571D01*
X98029642Y-178763571D01*
X98101071Y-179049285D01*
X98243928Y-179192142D01*
X98386785Y-179263571D01*
X98672500Y-179263571D01*
X98815357Y-179192142D01*
X98958214Y-179049285D01*
X99029642Y-178763571D01*
X99029642Y-178263571D01*
X98958214Y-177977857D01*
X98815357Y-177835000D01*
X98672500Y-177763571D01*
X97101071Y-177763571D02*
X96815357Y-177763571D01*
X96672500Y-177835000D01*
X96529642Y-177977857D01*
X96458214Y-178263571D01*
X96458214Y-178763571D01*
X96529642Y-179049285D01*
X96672500Y-179192142D01*
X96815357Y-179263571D01*
X97101071Y-179263571D01*
X97243928Y-179192142D01*
X97386785Y-179049285D01*
X97458214Y-178763571D01*
X97458214Y-178263571D01*
X97386785Y-177977857D01*
X97243928Y-177835000D01*
X97101071Y-177763571D01*
X95101071Y-179263571D02*
X95815357Y-179263571D01*
X95815357Y-177763571D01*
X93172500Y-177763571D02*
X93029642Y-177763571D01*
X92886785Y-177835000D01*
X92815357Y-177906428D01*
X92743928Y-178049285D01*
X92672500Y-178335000D01*
X92672500Y-178692142D01*
X92743928Y-178977857D01*
X92815357Y-179120714D01*
X92886785Y-179192142D01*
X93029642Y-179263571D01*
X93172500Y-179263571D01*
X93315357Y-179192142D01*
X93386785Y-179120714D01*
X93458214Y-178977857D01*
X93529642Y-178692142D01*
X93529642Y-178335000D01*
X93458214Y-178049285D01*
X93386785Y-177906428D01*
X93315357Y-177835000D01*
X93172500Y-177763571D01*
X100315357Y-151093571D02*
X99458214Y-151093571D01*
X99886785Y-152593571D02*
X99886785Y-151093571D01*
X98672500Y-151093571D02*
X98386785Y-151093571D01*
X98243928Y-151165000D01*
X98101071Y-151307857D01*
X98029642Y-151593571D01*
X98029642Y-152093571D01*
X98101071Y-152379285D01*
X98243928Y-152522142D01*
X98386785Y-152593571D01*
X98672500Y-152593571D01*
X98815357Y-152522142D01*
X98958214Y-152379285D01*
X99029642Y-152093571D01*
X99029642Y-151593571D01*
X98958214Y-151307857D01*
X98815357Y-151165000D01*
X98672500Y-151093571D01*
X97101071Y-151093571D02*
X96815357Y-151093571D01*
X96672500Y-151165000D01*
X96529642Y-151307857D01*
X96458214Y-151593571D01*
X96458214Y-152093571D01*
X96529642Y-152379285D01*
X96672500Y-152522142D01*
X96815357Y-152593571D01*
X97101071Y-152593571D01*
X97243928Y-152522142D01*
X97386785Y-152379285D01*
X97458214Y-152093571D01*
X97458214Y-151593571D01*
X97386785Y-151307857D01*
X97243928Y-151165000D01*
X97101071Y-151093571D01*
X95101071Y-152593571D02*
X95815357Y-152593571D01*
X95815357Y-151093571D01*
X92672500Y-152593571D02*
X93529642Y-152593571D01*
X93101071Y-152593571D02*
X93101071Y-151093571D01*
X93243928Y-151307857D01*
X93386785Y-151450714D01*
X93529642Y-151522142D01*
X100315357Y-125058571D02*
X99458214Y-125058571D01*
X99886785Y-126558571D02*
X99886785Y-125058571D01*
X98672500Y-125058571D02*
X98386785Y-125058571D01*
X98243928Y-125130000D01*
X98101071Y-125272857D01*
X98029642Y-125558571D01*
X98029642Y-126058571D01*
X98101071Y-126344285D01*
X98243928Y-126487142D01*
X98386785Y-126558571D01*
X98672500Y-126558571D01*
X98815357Y-126487142D01*
X98958214Y-126344285D01*
X99029642Y-126058571D01*
X99029642Y-125558571D01*
X98958214Y-125272857D01*
X98815357Y-125130000D01*
X98672500Y-125058571D01*
X97101071Y-125058571D02*
X96815357Y-125058571D01*
X96672500Y-125130000D01*
X96529642Y-125272857D01*
X96458214Y-125558571D01*
X96458214Y-126058571D01*
X96529642Y-126344285D01*
X96672500Y-126487142D01*
X96815357Y-126558571D01*
X97101071Y-126558571D01*
X97243928Y-126487142D01*
X97386785Y-126344285D01*
X97458214Y-126058571D01*
X97458214Y-125558571D01*
X97386785Y-125272857D01*
X97243928Y-125130000D01*
X97101071Y-125058571D01*
X95101071Y-126558571D02*
X95815357Y-126558571D01*
X95815357Y-125058571D01*
X93529642Y-125201428D02*
X93458214Y-125130000D01*
X93315357Y-125058571D01*
X92958214Y-125058571D01*
X92815357Y-125130000D01*
X92743928Y-125201428D01*
X92672500Y-125344285D01*
X92672500Y-125487142D01*
X92743928Y-125701428D01*
X93601071Y-126558571D01*
X92672500Y-126558571D01*
X134061428Y-158389285D02*
X134061428Y-156589285D01*
X133375714Y-156589285D01*
X133204285Y-156675000D01*
X133118571Y-156760714D01*
X133032857Y-156932142D01*
X133032857Y-157189285D01*
X133118571Y-157360714D01*
X133204285Y-157446428D01*
X133375714Y-157532142D01*
X134061428Y-157532142D01*
X131490000Y-158389285D02*
X131490000Y-157446428D01*
X131575714Y-157275000D01*
X131747142Y-157189285D01*
X132090000Y-157189285D01*
X132261428Y-157275000D01*
X131490000Y-158303571D02*
X131661428Y-158389285D01*
X132090000Y-158389285D01*
X132261428Y-158303571D01*
X132347142Y-158132142D01*
X132347142Y-157960714D01*
X132261428Y-157789285D01*
X132090000Y-157703571D01*
X131661428Y-157703571D01*
X131490000Y-157617857D01*
X130632857Y-158389285D02*
X130632857Y-157189285D01*
X130632857Y-157532142D02*
X130547142Y-157360714D01*
X130461428Y-157275000D01*
X130290000Y-157189285D01*
X130118571Y-157189285D01*
X129775714Y-157189285D02*
X129090000Y-157189285D01*
X129518571Y-156589285D02*
X129518571Y-158132142D01*
X129432857Y-158303571D01*
X129261428Y-158389285D01*
X129090000Y-158389285D01*
X128490000Y-158389285D02*
X128490000Y-157189285D01*
X128490000Y-156589285D02*
X128575714Y-156675000D01*
X128490000Y-156760714D01*
X128404285Y-156675000D01*
X128490000Y-156589285D01*
X128490000Y-156760714D01*
X126861428Y-158389285D02*
X126861428Y-157446428D01*
X126947142Y-157275000D01*
X127118571Y-157189285D01*
X127461428Y-157189285D01*
X127632857Y-157275000D01*
X126861428Y-158303571D02*
X127032857Y-158389285D01*
X127461428Y-158389285D01*
X127632857Y-158303571D01*
X127718571Y-158132142D01*
X127718571Y-157960714D01*
X127632857Y-157789285D01*
X127461428Y-157703571D01*
X127032857Y-157703571D01*
X126861428Y-157617857D01*
X125747142Y-158389285D02*
X125918571Y-158303571D01*
X126004285Y-158132142D01*
X126004285Y-156589285D01*
X123690000Y-157189285D02*
X123690000Y-158989285D01*
X123690000Y-157275000D02*
X123518571Y-157189285D01*
X123175714Y-157189285D01*
X123004285Y-157275000D01*
X122918571Y-157360714D01*
X122832857Y-157532142D01*
X122832857Y-158046428D01*
X122918571Y-158217857D01*
X123004285Y-158303571D01*
X123175714Y-158389285D01*
X123518571Y-158389285D01*
X123690000Y-158303571D01*
X122061428Y-158389285D02*
X122061428Y-157189285D01*
X122061428Y-156589285D02*
X122147142Y-156675000D01*
X122061428Y-156760714D01*
X121975714Y-156675000D01*
X122061428Y-156589285D01*
X122061428Y-156760714D01*
X121204285Y-157189285D02*
X121204285Y-158389285D01*
X121204285Y-157360714D02*
X121118571Y-157275000D01*
X120947142Y-157189285D01*
X120690000Y-157189285D01*
X120518571Y-157275000D01*
X120432857Y-157446428D01*
X120432857Y-158389285D01*
X119318571Y-158389285D02*
X119490000Y-158303571D01*
X119575714Y-158217857D01*
X119661428Y-158046428D01*
X119661428Y-157532142D01*
X119575714Y-157360714D01*
X119490000Y-157275000D01*
X119318571Y-157189285D01*
X119061428Y-157189285D01*
X118890000Y-157275000D01*
X118804285Y-157360714D01*
X118718571Y-157532142D01*
X118718571Y-158046428D01*
X118804285Y-158217857D01*
X118890000Y-158303571D01*
X119061428Y-158389285D01*
X119318571Y-158389285D01*
X117175714Y-157189285D02*
X117175714Y-158389285D01*
X117947142Y-157189285D02*
X117947142Y-158132142D01*
X117861428Y-158303571D01*
X117690000Y-158389285D01*
X117432857Y-158389285D01*
X117261428Y-158303571D01*
X117175714Y-158217857D01*
X116575714Y-157189285D02*
X115890000Y-157189285D01*
X116318571Y-156589285D02*
X116318571Y-158132142D01*
X116232857Y-158303571D01*
X116061428Y-158389285D01*
X115890000Y-158389285D01*
X115290000Y-158217857D02*
X115204285Y-158303571D01*
X115290000Y-158389285D01*
X115375714Y-158303571D01*
X115290000Y-158217857D01*
X115290000Y-158389285D01*
X112461428Y-157446428D02*
X113061428Y-157446428D01*
X113061428Y-158389285D02*
X113061428Y-156589285D01*
X112204285Y-156589285D01*
X110747142Y-157189285D02*
X110747142Y-158389285D01*
X111518571Y-157189285D02*
X111518571Y-158132142D01*
X111432857Y-158303571D01*
X111261428Y-158389285D01*
X111004285Y-158389285D01*
X110832857Y-158303571D01*
X110747142Y-158217857D01*
X109632857Y-158389285D02*
X109804285Y-158303571D01*
X109890000Y-158132142D01*
X109890000Y-156589285D01*
X108690000Y-158389285D02*
X108861428Y-158303571D01*
X108947142Y-158132142D01*
X108947142Y-156589285D01*
X105861428Y-158389285D02*
X105861428Y-156589285D01*
X105861428Y-158303571D02*
X106032857Y-158389285D01*
X106375714Y-158389285D01*
X106547142Y-158303571D01*
X106632857Y-158217857D01*
X106718571Y-158046428D01*
X106718571Y-157532142D01*
X106632857Y-157360714D01*
X106547142Y-157275000D01*
X106375714Y-157189285D01*
X106032857Y-157189285D01*
X105861428Y-157275000D01*
X104747142Y-158389285D02*
X104918571Y-158303571D01*
X105004285Y-158217857D01*
X105090000Y-158046428D01*
X105090000Y-157532142D01*
X105004285Y-157360714D01*
X104918571Y-157275000D01*
X104747142Y-157189285D01*
X104490000Y-157189285D01*
X104318571Y-157275000D01*
X104232857Y-157360714D01*
X104147142Y-157532142D01*
X104147142Y-158046428D01*
X104232857Y-158217857D01*
X104318571Y-158303571D01*
X104490000Y-158389285D01*
X104747142Y-158389285D01*
X102604285Y-158303571D02*
X102775714Y-158389285D01*
X103118571Y-158389285D01*
X103290000Y-158303571D01*
X103375714Y-158217857D01*
X103461428Y-158046428D01*
X103461428Y-157532142D01*
X103375714Y-157360714D01*
X103290000Y-157275000D01*
X103118571Y-157189285D01*
X102775714Y-157189285D01*
X102604285Y-157275000D01*
X101061428Y-157189285D02*
X101061428Y-158389285D01*
X101832857Y-157189285D02*
X101832857Y-158132142D01*
X101747142Y-158303571D01*
X101575714Y-158389285D01*
X101318571Y-158389285D01*
X101147142Y-158303571D01*
X101061428Y-158217857D01*
X100204285Y-158389285D02*
X100204285Y-157189285D01*
X100204285Y-157360714D02*
X100118571Y-157275000D01*
X99947142Y-157189285D01*
X99690000Y-157189285D01*
X99518571Y-157275000D01*
X99432857Y-157446428D01*
X99432857Y-158389285D01*
X99432857Y-157446428D02*
X99347142Y-157275000D01*
X99175714Y-157189285D01*
X98918571Y-157189285D01*
X98747142Y-157275000D01*
X98661428Y-157446428D01*
X98661428Y-158389285D01*
X97118571Y-158303571D02*
X97290000Y-158389285D01*
X97632857Y-158389285D01*
X97804285Y-158303571D01*
X97890000Y-158132142D01*
X97890000Y-157446428D01*
X97804285Y-157275000D01*
X97632857Y-157189285D01*
X97290000Y-157189285D01*
X97118571Y-157275000D01*
X97032857Y-157446428D01*
X97032857Y-157617857D01*
X97890000Y-157789285D01*
X96261428Y-157189285D02*
X96261428Y-158389285D01*
X96261428Y-157360714D02*
X96175714Y-157275000D01*
X96004285Y-157189285D01*
X95747142Y-157189285D01*
X95575714Y-157275000D01*
X95490000Y-157446428D01*
X95490000Y-158389285D01*
X94890000Y-157189285D02*
X94204285Y-157189285D01*
X94632857Y-156589285D02*
X94632857Y-158132142D01*
X94547142Y-158303571D01*
X94375714Y-158389285D01*
X94204285Y-158389285D01*
X92832857Y-158389285D02*
X92832857Y-157446428D01*
X92918571Y-157275000D01*
X93090000Y-157189285D01*
X93432857Y-157189285D01*
X93604285Y-157275000D01*
X92832857Y-158303571D02*
X93004285Y-158389285D01*
X93432857Y-158389285D01*
X93604285Y-158303571D01*
X93690000Y-158132142D01*
X93690000Y-157960714D01*
X93604285Y-157789285D01*
X93432857Y-157703571D01*
X93004285Y-157703571D01*
X92832857Y-157617857D01*
X92232857Y-157189285D02*
X91547142Y-157189285D01*
X91975714Y-156589285D02*
X91975714Y-158132142D01*
X91890000Y-158303571D01*
X91718571Y-158389285D01*
X91547142Y-158389285D01*
X90947142Y-158389285D02*
X90947142Y-157189285D01*
X90947142Y-156589285D02*
X91032857Y-156675000D01*
X90947142Y-156760714D01*
X90861428Y-156675000D01*
X90947142Y-156589285D01*
X90947142Y-156760714D01*
X89832857Y-158389285D02*
X90004285Y-158303571D01*
X90090000Y-158217857D01*
X90175714Y-158046428D01*
X90175714Y-157532142D01*
X90090000Y-157360714D01*
X90004285Y-157275000D01*
X89832857Y-157189285D01*
X89575714Y-157189285D01*
X89404285Y-157275000D01*
X89318571Y-157360714D01*
X89232857Y-157532142D01*
X89232857Y-158046428D01*
X89318571Y-158217857D01*
X89404285Y-158303571D01*
X89575714Y-158389285D01*
X89832857Y-158389285D01*
X88461428Y-157189285D02*
X88461428Y-158389285D01*
X88461428Y-157360714D02*
X88375714Y-157275000D01*
X88204285Y-157189285D01*
X87947142Y-157189285D01*
X87775714Y-157275000D01*
X87690000Y-157446428D01*
X87690000Y-158389285D01*
X86832857Y-158217857D02*
X86747142Y-158303571D01*
X86832857Y-158389285D01*
X86918571Y-158303571D01*
X86832857Y-158217857D01*
X86832857Y-158389285D01*
X86832857Y-157275000D02*
X86747142Y-157360714D01*
X86832857Y-157446428D01*
X86918571Y-157360714D01*
X86832857Y-157275000D01*
X86832857Y-157446428D01*
X131918571Y-160089285D02*
X131918571Y-161546428D01*
X132004285Y-161717857D01*
X132090000Y-161803571D01*
X132261428Y-161889285D01*
X132518571Y-161889285D01*
X132690000Y-161803571D01*
X131918571Y-161203571D02*
X132090000Y-161289285D01*
X132432857Y-161289285D01*
X132604285Y-161203571D01*
X132690000Y-161117857D01*
X132775714Y-160946428D01*
X132775714Y-160432142D01*
X132690000Y-160260714D01*
X132604285Y-160175000D01*
X132432857Y-160089285D01*
X132090000Y-160089285D01*
X131918571Y-160175000D01*
X131061428Y-161289285D02*
X131061428Y-160089285D01*
X131061428Y-159489285D02*
X131147142Y-159575000D01*
X131061428Y-159660714D01*
X130975714Y-159575000D01*
X131061428Y-159489285D01*
X131061428Y-159660714D01*
X130461428Y-160089285D02*
X129775714Y-160089285D01*
X130204285Y-159489285D02*
X130204285Y-161032142D01*
X130118571Y-161203571D01*
X129947142Y-161289285D01*
X129775714Y-161289285D01*
X129175714Y-161289285D02*
X129175714Y-159489285D01*
X128404285Y-161289285D02*
X128404285Y-160346428D01*
X128490000Y-160175000D01*
X128661428Y-160089285D01*
X128918571Y-160089285D01*
X129090000Y-160175000D01*
X129175714Y-160260714D01*
X126775714Y-160089285D02*
X126775714Y-161289285D01*
X127547142Y-160089285D02*
X127547142Y-161032142D01*
X127461428Y-161203571D01*
X127290000Y-161289285D01*
X127032857Y-161289285D01*
X126861428Y-161203571D01*
X126775714Y-161117857D01*
X125918571Y-161289285D02*
X125918571Y-159489285D01*
X125918571Y-160175000D02*
X125747142Y-160089285D01*
X125404285Y-160089285D01*
X125232857Y-160175000D01*
X125147142Y-160260714D01*
X125061428Y-160432142D01*
X125061428Y-160946428D01*
X125147142Y-161117857D01*
X125232857Y-161203571D01*
X125404285Y-161289285D01*
X125747142Y-161289285D01*
X125918571Y-161203571D01*
X124290000Y-161117857D02*
X124204285Y-161203571D01*
X124290000Y-161289285D01*
X124375714Y-161203571D01*
X124290000Y-161117857D01*
X124290000Y-161289285D01*
X122661428Y-161203571D02*
X122832857Y-161289285D01*
X123175714Y-161289285D01*
X123347142Y-161203571D01*
X123432857Y-161117857D01*
X123518571Y-160946428D01*
X123518571Y-160432142D01*
X123432857Y-160260714D01*
X123347142Y-160175000D01*
X123175714Y-160089285D01*
X122832857Y-160089285D01*
X122661428Y-160175000D01*
X121632857Y-161289285D02*
X121804285Y-161203571D01*
X121890000Y-161117857D01*
X121975714Y-160946428D01*
X121975714Y-160432142D01*
X121890000Y-160260714D01*
X121804285Y-160175000D01*
X121632857Y-160089285D01*
X121375714Y-160089285D01*
X121204285Y-160175000D01*
X121118571Y-160260714D01*
X121032857Y-160432142D01*
X121032857Y-160946428D01*
X121118571Y-161117857D01*
X121204285Y-161203571D01*
X121375714Y-161289285D01*
X121632857Y-161289285D01*
X120261428Y-161289285D02*
X120261428Y-160089285D01*
X120261428Y-160260714D02*
X120175714Y-160175000D01*
X120004285Y-160089285D01*
X119747142Y-160089285D01*
X119575714Y-160175000D01*
X119490000Y-160346428D01*
X119490000Y-161289285D01*
X119490000Y-160346428D02*
X119404285Y-160175000D01*
X119232857Y-160089285D01*
X118975714Y-160089285D01*
X118804285Y-160175000D01*
X118718571Y-160346428D01*
X118718571Y-161289285D01*
X116575714Y-159403571D02*
X118118571Y-161717857D01*
X132690000Y-164189285D02*
X132690000Y-162989285D01*
X132690000Y-163160714D02*
X132604285Y-163075000D01*
X132432857Y-162989285D01*
X132175714Y-162989285D01*
X132004285Y-163075000D01*
X131918571Y-163246428D01*
X131918571Y-164189285D01*
X131918571Y-163246428D02*
X131832857Y-163075000D01*
X131661428Y-162989285D01*
X131404285Y-162989285D01*
X131232857Y-163075000D01*
X131147142Y-163246428D01*
X131147142Y-164189285D01*
X129518571Y-164189285D02*
X129518571Y-163246428D01*
X129604285Y-163075000D01*
X129775714Y-162989285D01*
X130118571Y-162989285D01*
X130290000Y-163075000D01*
X129518571Y-164103571D02*
X129690000Y-164189285D01*
X130118571Y-164189285D01*
X130290000Y-164103571D01*
X130375714Y-163932142D01*
X130375714Y-163760714D01*
X130290000Y-163589285D01*
X130118571Y-163503571D01*
X129690000Y-163503571D01*
X129518571Y-163417857D01*
X128661428Y-162989285D02*
X128661428Y-164189285D01*
X128661428Y-163160714D02*
X128575714Y-163075000D01*
X128404285Y-162989285D01*
X128147142Y-162989285D01*
X127975714Y-163075000D01*
X127890000Y-163246428D01*
X127890000Y-164189285D01*
X126261428Y-162989285D02*
X126261428Y-164189285D01*
X127032857Y-162989285D02*
X127032857Y-163932142D01*
X126947142Y-164103571D01*
X126775714Y-164189285D01*
X126518571Y-164189285D01*
X126347142Y-164103571D01*
X126261428Y-164017857D01*
X125661428Y-162989285D02*
X124975714Y-162989285D01*
X125404285Y-164189285D02*
X125404285Y-162646428D01*
X125318571Y-162475000D01*
X125147142Y-162389285D01*
X124975714Y-162389285D01*
X123604285Y-164189285D02*
X123604285Y-163246428D01*
X123690000Y-163075000D01*
X123861428Y-162989285D01*
X124204285Y-162989285D01*
X124375714Y-163075000D01*
X123604285Y-164103571D02*
X123775714Y-164189285D01*
X124204285Y-164189285D01*
X124375714Y-164103571D01*
X124461428Y-163932142D01*
X124461428Y-163760714D01*
X124375714Y-163589285D01*
X124204285Y-163503571D01*
X123775714Y-163503571D01*
X123604285Y-163417857D01*
X121975714Y-164103571D02*
X122147142Y-164189285D01*
X122490000Y-164189285D01*
X122661428Y-164103571D01*
X122747142Y-164017857D01*
X122832857Y-163846428D01*
X122832857Y-163332142D01*
X122747142Y-163160714D01*
X122661428Y-163075000D01*
X122490000Y-162989285D01*
X122147142Y-162989285D01*
X121975714Y-163075000D01*
X121461428Y-162989285D02*
X120775714Y-162989285D01*
X121204285Y-162389285D02*
X121204285Y-163932142D01*
X121118571Y-164103571D01*
X120947142Y-164189285D01*
X120775714Y-164189285D01*
X119918571Y-164189285D02*
X120090000Y-164103571D01*
X120175714Y-164017857D01*
X120261428Y-163846428D01*
X120261428Y-163332142D01*
X120175714Y-163160714D01*
X120090000Y-163075000D01*
X119918571Y-162989285D01*
X119661428Y-162989285D01*
X119490000Y-163075000D01*
X119404285Y-163160714D01*
X119318571Y-163332142D01*
X119318571Y-163846428D01*
X119404285Y-164017857D01*
X119490000Y-164103571D01*
X119661428Y-164189285D01*
X119918571Y-164189285D01*
X118547142Y-164189285D02*
X118547142Y-162989285D01*
X118547142Y-163332142D02*
X118461428Y-163160714D01*
X118375714Y-163075000D01*
X118204285Y-162989285D01*
X118032857Y-162989285D01*
X117604285Y-162989285D02*
X117175714Y-164189285D01*
X116747142Y-162989285D02*
X117175714Y-164189285D01*
X117347142Y-164617857D01*
X117432857Y-164703571D01*
X117604285Y-164789285D01*
X116061428Y-163503571D02*
X114690000Y-163503571D01*
X113061428Y-164189285D02*
X113061428Y-162389285D01*
X113061428Y-164103571D02*
X113232857Y-164189285D01*
X113575714Y-164189285D01*
X113747142Y-164103571D01*
X113832857Y-164017857D01*
X113918571Y-163846428D01*
X113918571Y-163332142D01*
X113832857Y-163160714D01*
X113747142Y-163075000D01*
X113575714Y-162989285D01*
X113232857Y-162989285D01*
X113061428Y-163075000D01*
X111432857Y-164189285D02*
X111432857Y-163246428D01*
X111518571Y-163075000D01*
X111690000Y-162989285D01*
X112032857Y-162989285D01*
X112204285Y-163075000D01*
X111432857Y-164103571D02*
X111604285Y-164189285D01*
X112032857Y-164189285D01*
X112204285Y-164103571D01*
X112290000Y-163932142D01*
X112290000Y-163760714D01*
X112204285Y-163589285D01*
X112032857Y-163503571D01*
X111604285Y-163503571D01*
X111432857Y-163417857D01*
X110747142Y-162989285D02*
X110318571Y-164189285D01*
X109890000Y-162989285D01*
X108518571Y-164103571D02*
X108690000Y-164189285D01*
X109032857Y-164189285D01*
X109204285Y-164103571D01*
X109290000Y-163932142D01*
X109290000Y-163246428D01*
X109204285Y-163075000D01*
X109032857Y-162989285D01*
X108690000Y-162989285D01*
X108518571Y-163075000D01*
X108432857Y-163246428D01*
X108432857Y-163417857D01*
X109290000Y-163589285D01*
X106375714Y-162303571D02*
X107918571Y-164617857D01*
X131661428Y-166917857D02*
X131747142Y-167003571D01*
X132004285Y-167089285D01*
X132175714Y-167089285D01*
X132432857Y-167003571D01*
X132604285Y-166832142D01*
X132690000Y-166660714D01*
X132775714Y-166317857D01*
X132775714Y-166060714D01*
X132690000Y-165717857D01*
X132604285Y-165546428D01*
X132432857Y-165375000D01*
X132175714Y-165289285D01*
X132004285Y-165289285D01*
X131747142Y-165375000D01*
X131661428Y-165460714D01*
X131061428Y-165289285D02*
X129861428Y-165289285D01*
X131061428Y-167089285D01*
X129861428Y-167089285D01*
X129261428Y-167003571D02*
X129004285Y-167089285D01*
X128575714Y-167089285D01*
X128404285Y-167003571D01*
X128318571Y-166917857D01*
X128232857Y-166746428D01*
X128232857Y-166575000D01*
X128318571Y-166403571D01*
X128404285Y-166317857D01*
X128575714Y-166232142D01*
X128918571Y-166146428D01*
X129090000Y-166060714D01*
X129175714Y-165975000D01*
X129261428Y-165803571D01*
X129261428Y-165632142D01*
X129175714Y-165460714D01*
X129090000Y-165375000D01*
X128918571Y-165289285D01*
X128490000Y-165289285D01*
X128232857Y-165375000D01*
X127632857Y-165889285D02*
X127290000Y-167089285D01*
X126947142Y-166232142D01*
X126604285Y-167089285D01*
X126261428Y-165889285D01*
X125575714Y-167089285D02*
X125575714Y-165889285D01*
X125575714Y-165289285D02*
X125661428Y-165375000D01*
X125575714Y-165460714D01*
X125490000Y-165375000D01*
X125575714Y-165289285D01*
X125575714Y-165460714D01*
X124975714Y-165889285D02*
X124290000Y-165889285D01*
X124718571Y-165289285D02*
X124718571Y-166832142D01*
X124632857Y-167003571D01*
X124461428Y-167089285D01*
X124290000Y-167089285D01*
X122918571Y-167003571D02*
X123090000Y-167089285D01*
X123432857Y-167089285D01*
X123604285Y-167003571D01*
X123690000Y-166917857D01*
X123775714Y-166746428D01*
X123775714Y-166232142D01*
X123690000Y-166060714D01*
X123604285Y-165975000D01*
X123432857Y-165889285D01*
X123090000Y-165889285D01*
X122918571Y-165975000D01*
X122147142Y-167089285D02*
X122147142Y-165289285D01*
X121375714Y-167089285D02*
X121375714Y-166146428D01*
X121461428Y-165975000D01*
X121632857Y-165889285D01*
X121890000Y-165889285D01*
X122061428Y-165975000D01*
X122147142Y-166060714D01*
X119832857Y-167003571D02*
X120004285Y-167089285D01*
X120347142Y-167089285D01*
X120518571Y-167003571D01*
X120604285Y-166832142D01*
X120604285Y-166146428D01*
X120518571Y-165975000D01*
X120347142Y-165889285D01*
X120004285Y-165889285D01*
X119832857Y-165975000D01*
X119747142Y-166146428D01*
X119747142Y-166317857D01*
X120604285Y-166489285D01*
X118975714Y-167089285D02*
X118975714Y-165889285D01*
X118975714Y-166232142D02*
X118890000Y-166060714D01*
X118804285Y-165975000D01*
X118632857Y-165889285D01*
X118461428Y-165889285D01*
D10*
X119973214Y-137203571D02*
X120473214Y-136489285D01*
X120830357Y-137203571D02*
X120830357Y-135703571D01*
X120258928Y-135703571D01*
X120116071Y-135775000D01*
X120044642Y-135846428D01*
X119973214Y-135989285D01*
X119973214Y-136203571D01*
X120044642Y-136346428D01*
X120116071Y-136417857D01*
X120258928Y-136489285D01*
X120830357Y-136489285D01*
X118758928Y-137132142D02*
X118901785Y-137203571D01*
X119187500Y-137203571D01*
X119330357Y-137132142D01*
X119401785Y-136989285D01*
X119401785Y-136417857D01*
X119330357Y-136275000D01*
X119187500Y-136203571D01*
X118901785Y-136203571D01*
X118758928Y-136275000D01*
X118687500Y-136417857D01*
X118687500Y-136560714D01*
X119401785Y-136703571D01*
X118187500Y-136203571D02*
X117830357Y-137203571D01*
X117473214Y-136203571D01*
X115473214Y-135703571D02*
X115330357Y-135703571D01*
X115187500Y-135775000D01*
X115116071Y-135846428D01*
X115044642Y-135989285D01*
X114973214Y-136275000D01*
X114973214Y-136632142D01*
X115044642Y-136917857D01*
X115116071Y-137060714D01*
X115187500Y-137132142D01*
X115330357Y-137203571D01*
X115473214Y-137203571D01*
X115616071Y-137132142D01*
X115687500Y-137060714D01*
X115758928Y-136917857D01*
X115830357Y-136632142D01*
X115830357Y-136275000D01*
X115758928Y-135989285D01*
X115687500Y-135846428D01*
X115616071Y-135775000D01*
X115473214Y-135703571D01*
D11*
X119535952Y-131194285D02*
X119631190Y-131289523D01*
X119916904Y-131384761D01*
X120107380Y-131384761D01*
X120393095Y-131289523D01*
X120583571Y-131099047D01*
X120678809Y-130908571D01*
X120774047Y-130527619D01*
X120774047Y-130241904D01*
X120678809Y-129860952D01*
X120583571Y-129670476D01*
X120393095Y-129480000D01*
X120107380Y-129384761D01*
X119916904Y-129384761D01*
X119631190Y-129480000D01*
X119535952Y-129575238D01*
X118678809Y-129384761D02*
X118678809Y-131003809D01*
X118583571Y-131194285D01*
X118488333Y-131289523D01*
X118297857Y-131384761D01*
X117916904Y-131384761D01*
X117726428Y-131289523D01*
X117631190Y-131194285D01*
X117535952Y-131003809D01*
X117535952Y-129384761D01*
X115916904Y-130337142D02*
X115631190Y-130432380D01*
X115535952Y-130527619D01*
X115440714Y-130718095D01*
X115440714Y-131003809D01*
X115535952Y-131194285D01*
X115631190Y-131289523D01*
X115821666Y-131384761D01*
X116583571Y-131384761D01*
X116583571Y-129384761D01*
X115916904Y-129384761D01*
X115726428Y-129480000D01*
X115631190Y-129575238D01*
X115535952Y-129765714D01*
X115535952Y-129956190D01*
X115631190Y-130146666D01*
X115726428Y-130241904D01*
X115916904Y-130337142D01*
X116583571Y-130337142D01*
X114583571Y-130337142D02*
X113916904Y-130337142D01*
X113631190Y-131384761D02*
X114583571Y-131384761D01*
X114583571Y-129384761D01*
X113631190Y-129384761D01*
X111440714Y-129384761D02*
X110107380Y-129384761D01*
X111440714Y-131384761D01*
X110107380Y-131384761D01*
X109345476Y-130337142D02*
X108678809Y-130337142D01*
X108393095Y-131384761D02*
X109345476Y-131384761D01*
X109345476Y-129384761D01*
X108393095Y-129384761D01*
X106393095Y-131384761D02*
X107059761Y-130432380D01*
X107535952Y-131384761D02*
X107535952Y-129384761D01*
X106774047Y-129384761D01*
X106583571Y-129480000D01*
X106488333Y-129575238D01*
X106393095Y-129765714D01*
X106393095Y-130051428D01*
X106488333Y-130241904D01*
X106583571Y-130337142D01*
X106774047Y-130432380D01*
X107535952Y-130432380D01*
X105155000Y-129384761D02*
X104774047Y-129384761D01*
X104583571Y-129480000D01*
X104393095Y-129670476D01*
X104297857Y-130051428D01*
X104297857Y-130718095D01*
X104393095Y-131099047D01*
X104583571Y-131289523D01*
X104774047Y-131384761D01*
X105155000Y-131384761D01*
X105345476Y-131289523D01*
X105535952Y-131099047D01*
X105631190Y-130718095D01*
X105631190Y-130051428D01*
X105535952Y-129670476D01*
X105345476Y-129480000D01*
X105155000Y-129384761D01*
X120774047Y-134489523D02*
X120488333Y-134584761D01*
X120012142Y-134584761D01*
X119821666Y-134489523D01*
X119726428Y-134394285D01*
X119631190Y-134203809D01*
X119631190Y-134013333D01*
X119726428Y-133822857D01*
X119821666Y-133727619D01*
X120012142Y-133632380D01*
X120393095Y-133537142D01*
X120583571Y-133441904D01*
X120678809Y-133346666D01*
X120774047Y-133156190D01*
X120774047Y-132965714D01*
X120678809Y-132775238D01*
X120583571Y-132680000D01*
X120393095Y-132584761D01*
X119916904Y-132584761D01*
X119631190Y-132680000D01*
X118964523Y-132584761D02*
X118488333Y-134584761D01*
X118107380Y-133156190D01*
X117726428Y-134584761D01*
X117250238Y-132584761D01*
X116488333Y-134584761D02*
X116488333Y-132584761D01*
X115821666Y-132584761D02*
X114678809Y-132584761D01*
X115250238Y-134584761D02*
X115250238Y-132584761D01*
X112869285Y-134394285D02*
X112964523Y-134489523D01*
X113250238Y-134584761D01*
X113440714Y-134584761D01*
X113726428Y-134489523D01*
X113916904Y-134299047D01*
X114012142Y-134108571D01*
X114107380Y-133727619D01*
X114107380Y-133441904D01*
X114012142Y-133060952D01*
X113916904Y-132870476D01*
X113726428Y-132680000D01*
X113440714Y-132584761D01*
X113250238Y-132584761D01*
X112964523Y-132680000D01*
X112869285Y-132775238D01*
X112012142Y-134584761D02*
X112012142Y-132584761D01*
X112012142Y-133537142D02*
X110869285Y-133537142D01*
X110869285Y-134584761D02*
X110869285Y-132584761D01*
X109916904Y-133537142D02*
X109250238Y-133537142D01*
X108964523Y-134584761D02*
X109916904Y-134584761D01*
X109916904Y-132584761D01*
X108964523Y-132584761D01*
X106964523Y-134584761D02*
X107631190Y-133632380D01*
X108107380Y-134584761D02*
X108107380Y-132584761D01*
X107345476Y-132584761D01*
X107155000Y-132680000D01*
X107059761Y-132775238D01*
X106964523Y-132965714D01*
X106964523Y-133251428D01*
X107059761Y-133441904D01*
X107155000Y-133537142D01*
X107345476Y-133632380D01*
X108107380Y-133632380D01*
X104583571Y-134584761D02*
X104583571Y-132584761D01*
X104107380Y-132584761D01*
X103821666Y-132680000D01*
X103631190Y-132870476D01*
X103535952Y-133060952D01*
X103440714Y-133441904D01*
X103440714Y-133727619D01*
X103535952Y-134108571D01*
X103631190Y-134299047D01*
X103821666Y-134489523D01*
X104107380Y-134584761D01*
X104583571Y-134584761D01*
X102583571Y-134584761D02*
X102583571Y-132584761D01*
X101726428Y-134489523D02*
X101440714Y-134584761D01*
X100964523Y-134584761D01*
X100774047Y-134489523D01*
X100678809Y-134394285D01*
X100583571Y-134203809D01*
X100583571Y-134013333D01*
X100678809Y-133822857D01*
X100774047Y-133727619D01*
X100964523Y-133632380D01*
X101345476Y-133537142D01*
X101535952Y-133441904D01*
X101631190Y-133346666D01*
X101726428Y-133156190D01*
X101726428Y-132965714D01*
X101631190Y-132775238D01*
X101535952Y-132680000D01*
X101345476Y-132584761D01*
X100869285Y-132584761D01*
X100583571Y-132680000D01*
X100012142Y-132584761D02*
X98869285Y-132584761D01*
X99440714Y-134584761D02*
X99440714Y-132584761D01*
X97059761Y-134584761D02*
X97726428Y-133632380D01*
X98202619Y-134584761D02*
X98202619Y-132584761D01*
X97440714Y-132584761D01*
X97250238Y-132680000D01*
X97155000Y-132775238D01*
X97059761Y-132965714D01*
X97059761Y-133251428D01*
X97155000Y-133441904D01*
X97250238Y-133537142D01*
X97440714Y-133632380D01*
X98202619Y-133632380D01*
X95821666Y-132584761D02*
X95440714Y-132584761D01*
X95250238Y-132680000D01*
X95059761Y-132870476D01*
X94964523Y-133251428D01*
X94964523Y-133918095D01*
X95059761Y-134299047D01*
X95250238Y-134489523D01*
X95440714Y-134584761D01*
X95821666Y-134584761D01*
X96012142Y-134489523D01*
X96202619Y-134299047D01*
X96297857Y-133918095D01*
X96297857Y-133251428D01*
X96202619Y-132870476D01*
X96012142Y-132680000D01*
X95821666Y-132584761D01*
X91916904Y-133537142D02*
X91631190Y-133632380D01*
X91535952Y-133727619D01*
X91440714Y-133918095D01*
X91440714Y-134203809D01*
X91535952Y-134394285D01*
X91631190Y-134489523D01*
X91821666Y-134584761D01*
X92583571Y-134584761D01*
X92583571Y-132584761D01*
X91916904Y-132584761D01*
X91726428Y-132680000D01*
X91631190Y-132775238D01*
X91535952Y-132965714D01*
X91535952Y-133156190D01*
X91631190Y-133346666D01*
X91726428Y-133441904D01*
X91916904Y-133537142D01*
X92583571Y-133537142D01*
X90202619Y-132584761D02*
X89821666Y-132584761D01*
X89631190Y-132680000D01*
X89440714Y-132870476D01*
X89345476Y-133251428D01*
X89345476Y-133918095D01*
X89440714Y-134299047D01*
X89631190Y-134489523D01*
X89821666Y-134584761D01*
X90202619Y-134584761D01*
X90393095Y-134489523D01*
X90583571Y-134299047D01*
X90678809Y-133918095D01*
X90678809Y-133251428D01*
X90583571Y-132870476D01*
X90393095Y-132680000D01*
X90202619Y-132584761D01*
X88583571Y-134013333D02*
X87631190Y-134013333D01*
X88774047Y-134584761D02*
X88107380Y-132584761D01*
X87440714Y-134584761D01*
X85631190Y-134584761D02*
X86297857Y-133632380D01*
X86774047Y-134584761D02*
X86774047Y-132584761D01*
X86012142Y-132584761D01*
X85821666Y-132680000D01*
X85726428Y-132775238D01*
X85631190Y-132965714D01*
X85631190Y-133251428D01*
X85726428Y-133441904D01*
X85821666Y-133537142D01*
X86012142Y-133632380D01*
X86774047Y-133632380D01*
X84774047Y-134584761D02*
X84774047Y-132584761D01*
X84297857Y-132584761D01*
X84012142Y-132680000D01*
X83821666Y-132870476D01*
X83726428Y-133060952D01*
X83631190Y-133441904D01*
X83631190Y-133727619D01*
X83726428Y-134108571D01*
X83821666Y-134299047D01*
X84012142Y-134489523D01*
X84297857Y-134584761D01*
X84774047Y-134584761D01*
D12*
X131665000Y-134071500D02*
X133570000Y-137881500D01*
X133570000Y-137881500D02*
X131665000Y-141691500D01*
X126585000Y-134071500D02*
X124680000Y-137881500D01*
X124680000Y-137881500D02*
X126585000Y-141691500D01*
X127982000Y-137881500D02*
X124680000Y-137881500D01*
X126585000Y-141691500D02*
X131665000Y-141691500D01*
X131665000Y-134071500D02*
X126585000Y-134071500D01*
D13*
X127509937Y-138838071D02*
X127367080Y-138838071D01*
X127233151Y-138909500D01*
X127170651Y-138980928D01*
X127117080Y-139123785D01*
X127081366Y-139409500D01*
X127126008Y-139766642D01*
X127233151Y-140052357D01*
X127322437Y-140195214D01*
X127402794Y-140266642D01*
X127554580Y-140338071D01*
X127697437Y-140338071D01*
X127831366Y-140266642D01*
X127893866Y-140195214D01*
X127947437Y-140052357D01*
X127983151Y-139766642D01*
X127938508Y-139409500D01*
X127831366Y-139123785D01*
X127742080Y-138980928D01*
X127661723Y-138909500D01*
X127509937Y-138838071D01*
D12*
X130941100Y-140243700D02*
X131665000Y-141691500D01*
D14*
X132300000Y-132801500D02*
X134840000Y-137881500D01*
D12*
X131665000Y-134071500D02*
X131017300Y-135354200D01*
D14*
X125950000Y-132801500D02*
X123410000Y-137881500D01*
X134840000Y-137881500D02*
X132300000Y-142961500D01*
X123410000Y-137881500D02*
X125950000Y-142961500D01*
X131030000Y-135849500D02*
X131030000Y-139659500D01*
X128490000Y-137754500D02*
X131030000Y-137754500D01*
D12*
X130407700Y-136586100D02*
X130102900Y-137183000D01*
D13*
X129760000Y-135595500D02*
X128998000Y-136103500D01*
X130522000Y-136103500D02*
X129760000Y-135595500D01*
D14*
X128490000Y-135849500D02*
X128490000Y-139659500D01*
D12*
X129925100Y-138211700D02*
X130572800Y-139507100D01*
D10*
X71734714Y-118982380D02*
X72210904Y-118982380D01*
X72258523Y-119458571D01*
X72210904Y-119410952D01*
X72115666Y-119363333D01*
X71877571Y-119363333D01*
X71782333Y-119410952D01*
X71734714Y-119458571D01*
X71687095Y-119553809D01*
X71687095Y-119791904D01*
X71734714Y-119887142D01*
X71782333Y-119934761D01*
X71877571Y-119982380D01*
X72115666Y-119982380D01*
X72210904Y-119934761D01*
X72258523Y-119887142D01*
X71401380Y-118982380D02*
X71068047Y-119982380D01*
X70734714Y-118982380D01*
X71784404Y-116490000D02*
X71879642Y-116442380D01*
X72022500Y-116442380D01*
X72165357Y-116490000D01*
X72260595Y-116585238D01*
X72308214Y-116680476D01*
X72355833Y-116870952D01*
X72355833Y-117013809D01*
X72308214Y-117204285D01*
X72260595Y-117299523D01*
X72165357Y-117394761D01*
X72022500Y-117442380D01*
X71927261Y-117442380D01*
X71784404Y-117394761D01*
X71736785Y-117347142D01*
X71736785Y-117013809D01*
X71927261Y-117013809D01*
X71308214Y-117442380D02*
X71308214Y-116442380D01*
X70736785Y-117442380D01*
X70736785Y-116442380D01*
X70260595Y-117442380D02*
X70260595Y-116442380D01*
X70022500Y-116442380D01*
X69879642Y-116490000D01*
X69784404Y-116585238D01*
X69736785Y-116680476D01*
X69689166Y-116870952D01*
X69689166Y-117013809D01*
X69736785Y-117204285D01*
X69784404Y-117299523D01*
X69879642Y-117394761D01*
X70022500Y-117442380D01*
X70260595Y-117442380D01*
X120694404Y-118077380D02*
X120694404Y-117077380D01*
X120694404Y-117553571D02*
X120122976Y-117553571D01*
X120122976Y-118077380D02*
X120122976Y-117077380D01*
X119646785Y-117553571D02*
X119313452Y-117553571D01*
X119170595Y-118077380D02*
X119646785Y-118077380D01*
X119646785Y-117077380D01*
X119170595Y-117077380D01*
X118789642Y-117791666D02*
X118313452Y-117791666D01*
X118884880Y-118077380D02*
X118551547Y-117077380D01*
X118218214Y-118077380D01*
X118027738Y-117077380D02*
X117456309Y-117077380D01*
X117742023Y-118077380D02*
X117742023Y-117077380D01*
X117122976Y-117553571D02*
X116789642Y-117553571D01*
X116646785Y-118077380D02*
X117122976Y-118077380D01*
X117122976Y-117077380D01*
X116646785Y-117077380D01*
X115646785Y-118077380D02*
X115980119Y-117601190D01*
X116218214Y-118077380D02*
X116218214Y-117077380D01*
X115837261Y-117077380D01*
X115742023Y-117125000D01*
X115694404Y-117172619D01*
X115646785Y-117267857D01*
X115646785Y-117410714D01*
X115694404Y-117505952D01*
X115742023Y-117553571D01*
X115837261Y-117601190D01*
X116218214Y-117601190D01*
X114599166Y-117077380D02*
X114027738Y-117077380D01*
X114313452Y-118077380D02*
X114313452Y-117077380D01*
X113694404Y-118077380D02*
X113694404Y-117077380D01*
X113694404Y-117553571D02*
X113122976Y-117553571D01*
X113122976Y-118077380D02*
X113122976Y-117077380D01*
X112075357Y-118077380D02*
X112408690Y-117601190D01*
X112646785Y-118077380D02*
X112646785Y-117077380D01*
X112265833Y-117077380D01*
X112170595Y-117125000D01*
X112122976Y-117172619D01*
X112075357Y-117267857D01*
X112075357Y-117410714D01*
X112122976Y-117505952D01*
X112170595Y-117553571D01*
X112265833Y-117601190D01*
X112646785Y-117601190D01*
X111456309Y-117077380D02*
X111265833Y-117077380D01*
X111170595Y-117125000D01*
X111075357Y-117220238D01*
X111027738Y-117410714D01*
X111027738Y-117744047D01*
X111075357Y-117934523D01*
X111170595Y-118029761D01*
X111265833Y-118077380D01*
X111456309Y-118077380D01*
X111551547Y-118029761D01*
X111646785Y-117934523D01*
X111694404Y-117744047D01*
X111694404Y-117410714D01*
X111646785Y-117220238D01*
X111551547Y-117125000D01*
X111456309Y-117077380D01*
X110599166Y-117077380D02*
X110599166Y-117886904D01*
X110551547Y-117982142D01*
X110503928Y-118029761D01*
X110408690Y-118077380D01*
X110218214Y-118077380D01*
X110122976Y-118029761D01*
X110075357Y-117982142D01*
X110027738Y-117886904D01*
X110027738Y-117077380D01*
X109027738Y-117125000D02*
X109122976Y-117077380D01*
X109265833Y-117077380D01*
X109408690Y-117125000D01*
X109503928Y-117220238D01*
X109551547Y-117315476D01*
X109599166Y-117505952D01*
X109599166Y-117648809D01*
X109551547Y-117839285D01*
X109503928Y-117934523D01*
X109408690Y-118029761D01*
X109265833Y-118077380D01*
X109170595Y-118077380D01*
X109027738Y-118029761D01*
X108980119Y-117982142D01*
X108980119Y-117648809D01*
X109170595Y-117648809D01*
X108551547Y-118077380D02*
X108551547Y-117077380D01*
X108551547Y-117553571D02*
X107980119Y-117553571D01*
X107980119Y-118077380D02*
X107980119Y-117077380D01*
X107503928Y-118077380D02*
X107503928Y-117077380D01*
X107122976Y-117077380D01*
X107027738Y-117125000D01*
X106980119Y-117172619D01*
X106932500Y-117267857D01*
X106932500Y-117410714D01*
X106980119Y-117505952D01*
X107027738Y-117553571D01*
X107122976Y-117601190D01*
X107503928Y-117601190D01*
X106503928Y-117077380D02*
X106503928Y-117886904D01*
X106456309Y-117982142D01*
X106408690Y-118029761D01*
X106313452Y-118077380D01*
X106122976Y-118077380D01*
X106027738Y-118029761D01*
X105980119Y-117982142D01*
X105932500Y-117886904D01*
X105932500Y-117077380D01*
X105599166Y-117077380D02*
X105027738Y-117077380D01*
X105313452Y-118077380D02*
X105313452Y-117077380D01*
X94922261Y-117236190D02*
X94969880Y-117379047D01*
X94969880Y-117617142D01*
X94922261Y-117712380D01*
X94874642Y-117760000D01*
X94779404Y-117807619D01*
X94684166Y-117807619D01*
X94588928Y-117760000D01*
X94541309Y-117712380D01*
X94493690Y-117617142D01*
X94446071Y-117426666D01*
X94398452Y-117331428D01*
X94350833Y-117283809D01*
X94255595Y-117236190D01*
X94160357Y-117236190D01*
X94065119Y-117283809D01*
X94017500Y-117331428D01*
X93969880Y-117426666D01*
X93969880Y-117664761D01*
X94017500Y-117807619D01*
X94969880Y-118236190D02*
X93969880Y-118236190D01*
X94017500Y-119236190D02*
X93969880Y-119140952D01*
X93969880Y-118998095D01*
X94017500Y-118855238D01*
X94112738Y-118760000D01*
X94207976Y-118712380D01*
X94398452Y-118664761D01*
X94541309Y-118664761D01*
X94731785Y-118712380D01*
X94827023Y-118760000D01*
X94922261Y-118855238D01*
X94969880Y-118998095D01*
X94969880Y-119093333D01*
X94922261Y-119236190D01*
X94874642Y-119283809D01*
X94541309Y-119283809D01*
X94541309Y-119093333D01*
X72258523Y-114854761D02*
X72115666Y-114902380D01*
X71877571Y-114902380D01*
X71782333Y-114854761D01*
X71734714Y-114807142D01*
X71687095Y-114711904D01*
X71687095Y-114616666D01*
X71734714Y-114521428D01*
X71782333Y-114473809D01*
X71877571Y-114426190D01*
X72068047Y-114378571D01*
X72163285Y-114330952D01*
X72210904Y-114283333D01*
X72258523Y-114188095D01*
X72258523Y-114092857D01*
X72210904Y-113997619D01*
X72163285Y-113950000D01*
X72068047Y-113902380D01*
X71829952Y-113902380D01*
X71687095Y-113950000D01*
X71258523Y-114902380D02*
X71258523Y-113902380D01*
X70258523Y-113950000D02*
X70353761Y-113902380D01*
X70496619Y-113902380D01*
X70639476Y-113950000D01*
X70734714Y-114045238D01*
X70782333Y-114140476D01*
X70829952Y-114330952D01*
X70829952Y-114473809D01*
X70782333Y-114664285D01*
X70734714Y-114759523D01*
X70639476Y-114854761D01*
X70496619Y-114902380D01*
X70401380Y-114902380D01*
X70258523Y-114854761D01*
X70210904Y-114807142D01*
X70210904Y-114473809D01*
X70401380Y-114473809D01*
X96509880Y-117021904D02*
X96509880Y-117640952D01*
X96890833Y-117307619D01*
X96890833Y-117450476D01*
X96938452Y-117545714D01*
X96986071Y-117593333D01*
X97081309Y-117640952D01*
X97319404Y-117640952D01*
X97414642Y-117593333D01*
X97462261Y-117545714D01*
X97509880Y-117450476D01*
X97509880Y-117164761D01*
X97462261Y-117069523D01*
X97414642Y-117021904D01*
X96509880Y-117926666D02*
X97509880Y-118260000D01*
X96509880Y-118593333D01*
X96509880Y-118831428D02*
X96509880Y-119450476D01*
X96890833Y-119117142D01*
X96890833Y-119260000D01*
X96938452Y-119355238D01*
X96986071Y-119402857D01*
X97081309Y-119450476D01*
X97319404Y-119450476D01*
X97414642Y-119402857D01*
X97462261Y-119355238D01*
X97509880Y-119260000D01*
X97509880Y-118974285D01*
X97462261Y-118879047D01*
X97414642Y-118831428D01*
X72258523Y-121617619D02*
X72210904Y-121570000D01*
X72115666Y-121522380D01*
X71877571Y-121522380D01*
X71782333Y-121570000D01*
X71734714Y-121617619D01*
X71687095Y-121712857D01*
X71687095Y-121808095D01*
X71734714Y-121950952D01*
X72306142Y-122522380D01*
X71687095Y-122522380D01*
X70829952Y-121855714D02*
X70829952Y-122522380D01*
X71068047Y-121474761D02*
X71306142Y-122189047D01*
X70687095Y-122189047D01*
X70449000Y-121522380D02*
X70115666Y-122522380D01*
X69782333Y-121522380D01*
X91477500Y-117498095D02*
X91429880Y-117402857D01*
X91429880Y-117260000D01*
X91477500Y-117117142D01*
X91572738Y-117021904D01*
X91667976Y-116974285D01*
X91858452Y-116926666D01*
X92001309Y-116926666D01*
X92191785Y-116974285D01*
X92287023Y-117021904D01*
X92382261Y-117117142D01*
X92429880Y-117260000D01*
X92429880Y-117355238D01*
X92382261Y-117498095D01*
X92334642Y-117545714D01*
X92001309Y-117545714D01*
X92001309Y-117355238D01*
X92429880Y-117974285D02*
X91429880Y-117974285D01*
X92429880Y-118545714D01*
X91429880Y-118545714D01*
X92429880Y-119021904D02*
X91429880Y-119021904D01*
X91429880Y-119260000D01*
X91477500Y-119402857D01*
X91572738Y-119498095D01*
X91667976Y-119545714D01*
X91858452Y-119593333D01*
X92001309Y-119593333D01*
X92191785Y-119545714D01*
X92287023Y-119498095D01*
X92382261Y-119402857D01*
X92429880Y-119260000D01*
X92429880Y-119021904D01*
X116662976Y-126062619D02*
X116615357Y-126015000D01*
X116520119Y-125967380D01*
X116282023Y-125967380D01*
X116186785Y-126015000D01*
X116139166Y-126062619D01*
X116091547Y-126157857D01*
X116091547Y-126253095D01*
X116139166Y-126395952D01*
X116710595Y-126967380D01*
X116091547Y-126967380D01*
X115234404Y-126300714D02*
X115234404Y-126967380D01*
X115472500Y-125919761D02*
X115710595Y-126634047D01*
X115091547Y-126634047D01*
X114853452Y-125967380D02*
X114520119Y-126967380D01*
X114186785Y-125967380D01*
D12*
X111027500Y-125245000D02*
X119917500Y-125245000D01*
X116107500Y-120165000D02*
X114837500Y-118895000D01*
X109757500Y-123975000D02*
X111027500Y-125245000D01*
X105947500Y-118895000D02*
X104677500Y-120165000D01*
X114837500Y-118895000D02*
X105947500Y-118895000D01*
X119917500Y-125245000D02*
X121187500Y-123975000D01*
D10*
X94922261Y-143271190D02*
X94969880Y-143414047D01*
X94969880Y-143652142D01*
X94922261Y-143747380D01*
X94874642Y-143795000D01*
X94779404Y-143842619D01*
X94684166Y-143842619D01*
X94588928Y-143795000D01*
X94541309Y-143747380D01*
X94493690Y-143652142D01*
X94446071Y-143461666D01*
X94398452Y-143366428D01*
X94350833Y-143318809D01*
X94255595Y-143271190D01*
X94160357Y-143271190D01*
X94065119Y-143318809D01*
X94017500Y-143366428D01*
X93969880Y-143461666D01*
X93969880Y-143699761D01*
X94017500Y-143842619D01*
X94969880Y-144271190D02*
X93969880Y-144271190D01*
X94017500Y-145271190D02*
X93969880Y-145175952D01*
X93969880Y-145033095D01*
X94017500Y-144890238D01*
X94112738Y-144795000D01*
X94207976Y-144747380D01*
X94398452Y-144699761D01*
X94541309Y-144699761D01*
X94731785Y-144747380D01*
X94827023Y-144795000D01*
X94922261Y-144890238D01*
X94969880Y-145033095D01*
X94969880Y-145128333D01*
X94922261Y-145271190D01*
X94874642Y-145318809D01*
X94541309Y-145318809D01*
X94541309Y-145128333D01*
X96509880Y-143056904D02*
X96509880Y-143675952D01*
X96890833Y-143342619D01*
X96890833Y-143485476D01*
X96938452Y-143580714D01*
X96986071Y-143628333D01*
X97081309Y-143675952D01*
X97319404Y-143675952D01*
X97414642Y-143628333D01*
X97462261Y-143580714D01*
X97509880Y-143485476D01*
X97509880Y-143199761D01*
X97462261Y-143104523D01*
X97414642Y-143056904D01*
X96509880Y-143961666D02*
X97509880Y-144295000D01*
X96509880Y-144628333D01*
X96509880Y-144866428D02*
X96509880Y-145485476D01*
X96890833Y-145152142D01*
X96890833Y-145295000D01*
X96938452Y-145390238D01*
X96986071Y-145437857D01*
X97081309Y-145485476D01*
X97319404Y-145485476D01*
X97414642Y-145437857D01*
X97462261Y-145390238D01*
X97509880Y-145295000D01*
X97509880Y-145009285D01*
X97462261Y-144914047D01*
X97414642Y-144866428D01*
X72258523Y-147652619D02*
X72210904Y-147605000D01*
X72115666Y-147557380D01*
X71877571Y-147557380D01*
X71782333Y-147605000D01*
X71734714Y-147652619D01*
X71687095Y-147747857D01*
X71687095Y-147843095D01*
X71734714Y-147985952D01*
X72306142Y-148557380D01*
X71687095Y-148557380D01*
X70829952Y-147890714D02*
X70829952Y-148557380D01*
X71068047Y-147509761D02*
X71306142Y-148224047D01*
X70687095Y-148224047D01*
X70449000Y-147557380D02*
X70115666Y-148557380D01*
X69782333Y-147557380D01*
X91477500Y-143533095D02*
X91429880Y-143437857D01*
X91429880Y-143295000D01*
X91477500Y-143152142D01*
X91572738Y-143056904D01*
X91667976Y-143009285D01*
X91858452Y-142961666D01*
X92001309Y-142961666D01*
X92191785Y-143009285D01*
X92287023Y-143056904D01*
X92382261Y-143152142D01*
X92429880Y-143295000D01*
X92429880Y-143390238D01*
X92382261Y-143533095D01*
X92334642Y-143580714D01*
X92001309Y-143580714D01*
X92001309Y-143390238D01*
X92429880Y-144009285D02*
X91429880Y-144009285D01*
X92429880Y-144580714D01*
X91429880Y-144580714D01*
X92429880Y-145056904D02*
X91429880Y-145056904D01*
X91429880Y-145295000D01*
X91477500Y-145437857D01*
X91572738Y-145533095D01*
X91667976Y-145580714D01*
X91858452Y-145628333D01*
X92001309Y-145628333D01*
X92191785Y-145580714D01*
X92287023Y-145533095D01*
X92382261Y-145437857D01*
X92429880Y-145295000D01*
X92429880Y-145056904D01*
X71734714Y-145017380D02*
X72210904Y-145017380D01*
X72258523Y-145493571D01*
X72210904Y-145445952D01*
X72115666Y-145398333D01*
X71877571Y-145398333D01*
X71782333Y-145445952D01*
X71734714Y-145493571D01*
X71687095Y-145588809D01*
X71687095Y-145826904D01*
X71734714Y-145922142D01*
X71782333Y-145969761D01*
X71877571Y-146017380D01*
X72115666Y-146017380D01*
X72210904Y-145969761D01*
X72258523Y-145922142D01*
X71401380Y-145017380D02*
X71068047Y-146017380D01*
X70734714Y-145017380D01*
X71784404Y-142525000D02*
X71879642Y-142477380D01*
X72022500Y-142477380D01*
X72165357Y-142525000D01*
X72260595Y-142620238D01*
X72308214Y-142715476D01*
X72355833Y-142905952D01*
X72355833Y-143048809D01*
X72308214Y-143239285D01*
X72260595Y-143334523D01*
X72165357Y-143429761D01*
X72022500Y-143477380D01*
X71927261Y-143477380D01*
X71784404Y-143429761D01*
X71736785Y-143382142D01*
X71736785Y-143048809D01*
X71927261Y-143048809D01*
X71308214Y-143477380D02*
X71308214Y-142477380D01*
X70736785Y-143477380D01*
X70736785Y-142477380D01*
X70260595Y-143477380D02*
X70260595Y-142477380D01*
X70022500Y-142477380D01*
X69879642Y-142525000D01*
X69784404Y-142620238D01*
X69736785Y-142715476D01*
X69689166Y-142905952D01*
X69689166Y-143048809D01*
X69736785Y-143239285D01*
X69784404Y-143334523D01*
X69879642Y-143429761D01*
X70022500Y-143477380D01*
X70260595Y-143477380D01*
X116662976Y-152097619D02*
X116615357Y-152050000D01*
X116520119Y-152002380D01*
X116282023Y-152002380D01*
X116186785Y-152050000D01*
X116139166Y-152097619D01*
X116091547Y-152192857D01*
X116091547Y-152288095D01*
X116139166Y-152430952D01*
X116710595Y-153002380D01*
X116091547Y-153002380D01*
X115234404Y-152335714D02*
X115234404Y-153002380D01*
X115472500Y-151954761D02*
X115710595Y-152669047D01*
X115091547Y-152669047D01*
X114853452Y-152002380D02*
X114520119Y-153002380D01*
X114186785Y-152002380D01*
X72258523Y-140889761D02*
X72115666Y-140937380D01*
X71877571Y-140937380D01*
X71782333Y-140889761D01*
X71734714Y-140842142D01*
X71687095Y-140746904D01*
X71687095Y-140651666D01*
X71734714Y-140556428D01*
X71782333Y-140508809D01*
X71877571Y-140461190D01*
X72068047Y-140413571D01*
X72163285Y-140365952D01*
X72210904Y-140318333D01*
X72258523Y-140223095D01*
X72258523Y-140127857D01*
X72210904Y-140032619D01*
X72163285Y-139985000D01*
X72068047Y-139937380D01*
X71829952Y-139937380D01*
X71687095Y-139985000D01*
X71258523Y-140937380D02*
X71258523Y-139937380D01*
X70258523Y-139985000D02*
X70353761Y-139937380D01*
X70496619Y-139937380D01*
X70639476Y-139985000D01*
X70734714Y-140080238D01*
X70782333Y-140175476D01*
X70829952Y-140365952D01*
X70829952Y-140508809D01*
X70782333Y-140699285D01*
X70734714Y-140794523D01*
X70639476Y-140889761D01*
X70496619Y-140937380D01*
X70401380Y-140937380D01*
X70258523Y-140889761D01*
X70210904Y-140842142D01*
X70210904Y-140508809D01*
X70401380Y-140508809D01*
D12*
X111027500Y-151280000D02*
X119917500Y-151280000D01*
X116107500Y-146200000D02*
X114837500Y-144930000D01*
X109757500Y-150010000D02*
X111027500Y-151280000D01*
X114837500Y-144930000D02*
X105947500Y-144930000D01*
X105947500Y-144930000D02*
X104677500Y-146200000D01*
X119917500Y-151280000D02*
X121187500Y-150010000D01*
D10*
X116662976Y-178132619D02*
X116615357Y-178085000D01*
X116520119Y-178037380D01*
X116282023Y-178037380D01*
X116186785Y-178085000D01*
X116139166Y-178132619D01*
X116091547Y-178227857D01*
X116091547Y-178323095D01*
X116139166Y-178465952D01*
X116710595Y-179037380D01*
X116091547Y-179037380D01*
X115234404Y-178370714D02*
X115234404Y-179037380D01*
X115472500Y-177989761D02*
X115710595Y-178704047D01*
X115091547Y-178704047D01*
X114853452Y-178037380D02*
X114520119Y-179037380D01*
X114186785Y-178037380D01*
D12*
X119917500Y-177315000D02*
X121187500Y-176045000D01*
X111027500Y-177315000D02*
X119917500Y-177315000D01*
X109757500Y-176045000D02*
X111027500Y-177315000D01*
X105947500Y-170965000D02*
X104677500Y-172235000D01*
X114837500Y-170965000D02*
X105947500Y-170965000D01*
X116107500Y-172235000D02*
X114837500Y-170965000D01*
D10*
X69117500Y-180490000D02*
X69117500Y-165631000D01*
X72258523Y-166924761D02*
X72115666Y-166972380D01*
X71877571Y-166972380D01*
X71782333Y-166924761D01*
X71734714Y-166877142D01*
X71687095Y-166781904D01*
X71687095Y-166686666D01*
X71734714Y-166591428D01*
X71782333Y-166543809D01*
X71877571Y-166496190D01*
X72068047Y-166448571D01*
X72163285Y-166400952D01*
X72210904Y-166353333D01*
X72258523Y-166258095D01*
X72258523Y-166162857D01*
X72210904Y-166067619D01*
X72163285Y-166020000D01*
X72068047Y-165972380D01*
X71829952Y-165972380D01*
X71687095Y-166020000D01*
X71258523Y-166972380D02*
X71258523Y-165972380D01*
X70258523Y-166020000D02*
X70353761Y-165972380D01*
X70496619Y-165972380D01*
X70639476Y-166020000D01*
X70734714Y-166115238D01*
X70782333Y-166210476D01*
X70829952Y-166400952D01*
X70829952Y-166543809D01*
X70782333Y-166734285D01*
X70734714Y-166829523D01*
X70639476Y-166924761D01*
X70496619Y-166972380D01*
X70401380Y-166972380D01*
X70258523Y-166924761D01*
X70210904Y-166877142D01*
X70210904Y-166543809D01*
X70401380Y-166543809D01*
X96509880Y-169091904D02*
X96509880Y-169710952D01*
X96890833Y-169377619D01*
X96890833Y-169520476D01*
X96938452Y-169615714D01*
X96986071Y-169663333D01*
X97081309Y-169710952D01*
X97319404Y-169710952D01*
X97414642Y-169663333D01*
X97462261Y-169615714D01*
X97509880Y-169520476D01*
X97509880Y-169234761D01*
X97462261Y-169139523D01*
X97414642Y-169091904D01*
X96509880Y-169996666D02*
X97509880Y-170330000D01*
X96509880Y-170663333D01*
X96509880Y-170901428D02*
X96509880Y-171520476D01*
X96890833Y-171187142D01*
X96890833Y-171330000D01*
X96938452Y-171425238D01*
X96986071Y-171472857D01*
X97081309Y-171520476D01*
X97319404Y-171520476D01*
X97414642Y-171472857D01*
X97462261Y-171425238D01*
X97509880Y-171330000D01*
X97509880Y-171044285D01*
X97462261Y-170949047D01*
X97414642Y-170901428D01*
X94922261Y-169306190D02*
X94969880Y-169449047D01*
X94969880Y-169687142D01*
X94922261Y-169782380D01*
X94874642Y-169830000D01*
X94779404Y-169877619D01*
X94684166Y-169877619D01*
X94588928Y-169830000D01*
X94541309Y-169782380D01*
X94493690Y-169687142D01*
X94446071Y-169496666D01*
X94398452Y-169401428D01*
X94350833Y-169353809D01*
X94255595Y-169306190D01*
X94160357Y-169306190D01*
X94065119Y-169353809D01*
X94017500Y-169401428D01*
X93969880Y-169496666D01*
X93969880Y-169734761D01*
X94017500Y-169877619D01*
X94969880Y-170306190D02*
X93969880Y-170306190D01*
X94017500Y-171306190D02*
X93969880Y-171210952D01*
X93969880Y-171068095D01*
X94017500Y-170925238D01*
X94112738Y-170830000D01*
X94207976Y-170782380D01*
X94398452Y-170734761D01*
X94541309Y-170734761D01*
X94731785Y-170782380D01*
X94827023Y-170830000D01*
X94922261Y-170925238D01*
X94969880Y-171068095D01*
X94969880Y-171163333D01*
X94922261Y-171306190D01*
X94874642Y-171353809D01*
X94541309Y-171353809D01*
X94541309Y-171163333D01*
X63463761Y-164702380D02*
X63130428Y-165702380D01*
X62797095Y-164702380D01*
X62463761Y-165321428D02*
X61701857Y-165321428D01*
X62082809Y-165702380D02*
X62082809Y-164940476D01*
X63368523Y-163114761D02*
X63225666Y-163162380D01*
X62987571Y-163162380D01*
X62892333Y-163114761D01*
X62844714Y-163067142D01*
X62797095Y-162971904D01*
X62797095Y-162876666D01*
X62844714Y-162781428D01*
X62892333Y-162733809D01*
X62987571Y-162686190D01*
X63178047Y-162638571D01*
X63273285Y-162590952D01*
X63320904Y-162543333D01*
X63368523Y-162448095D01*
X63368523Y-162352857D01*
X63320904Y-162257619D01*
X63273285Y-162210000D01*
X63178047Y-162162380D01*
X62939952Y-162162380D01*
X62797095Y-162210000D01*
X62368523Y-163162380D02*
X62368523Y-162162380D01*
X61368523Y-162210000D02*
X61463761Y-162162380D01*
X61606619Y-162162380D01*
X61749476Y-162210000D01*
X61844714Y-162305238D01*
X61892333Y-162400476D01*
X61939952Y-162590952D01*
X61939952Y-162733809D01*
X61892333Y-162924285D01*
X61844714Y-163019523D01*
X61749476Y-163114761D01*
X61606619Y-163162380D01*
X61511380Y-163162380D01*
X61368523Y-163114761D01*
X61320904Y-163067142D01*
X61320904Y-162733809D01*
X61511380Y-162733809D01*
X63463761Y-129142380D02*
X63130428Y-130142380D01*
X62797095Y-129142380D01*
X62463761Y-129761428D02*
X61701857Y-129761428D01*
X62082809Y-130142380D02*
X62082809Y-129380476D01*
X63368523Y-127554761D02*
X63225666Y-127602380D01*
X62987571Y-127602380D01*
X62892333Y-127554761D01*
X62844714Y-127507142D01*
X62797095Y-127411904D01*
X62797095Y-127316666D01*
X62844714Y-127221428D01*
X62892333Y-127173809D01*
X62987571Y-127126190D01*
X63178047Y-127078571D01*
X63273285Y-127030952D01*
X63320904Y-126983333D01*
X63368523Y-126888095D01*
X63368523Y-126792857D01*
X63320904Y-126697619D01*
X63273285Y-126650000D01*
X63178047Y-126602380D01*
X62939952Y-126602380D01*
X62797095Y-126650000D01*
X62368523Y-127602380D02*
X62368523Y-126602380D01*
X61368523Y-126650000D02*
X61463761Y-126602380D01*
X61606619Y-126602380D01*
X61749476Y-126650000D01*
X61844714Y-126745238D01*
X61892333Y-126840476D01*
X61939952Y-127030952D01*
X61939952Y-127173809D01*
X61892333Y-127364285D01*
X61844714Y-127459523D01*
X61749476Y-127554761D01*
X61606619Y-127602380D01*
X61511380Y-127602380D01*
X61368523Y-127554761D01*
X61320904Y-127507142D01*
X61320904Y-127173809D01*
X61511380Y-127173809D01*
X73649880Y-99783738D02*
X74649880Y-100117071D01*
X73649880Y-100450404D01*
X74268928Y-100783738D02*
X74268928Y-101545642D01*
X74649880Y-101164690D02*
X73887976Y-101164690D01*
X77189880Y-99926595D02*
X76189880Y-99926595D01*
X76189880Y-100307547D01*
X76237500Y-100402785D01*
X76285119Y-100450404D01*
X76380357Y-100498023D01*
X76523214Y-100498023D01*
X76618452Y-100450404D01*
X76666071Y-100402785D01*
X76713690Y-100307547D01*
X76713690Y-99926595D01*
X77189880Y-101498023D02*
X76713690Y-101164690D01*
X77189880Y-100926595D02*
X76189880Y-100926595D01*
X76189880Y-101307547D01*
X76237500Y-101402785D01*
X76285119Y-101450404D01*
X76380357Y-101498023D01*
X76523214Y-101498023D01*
X76618452Y-101450404D01*
X76666071Y-101402785D01*
X76713690Y-101307547D01*
X76713690Y-100926595D01*
X76666071Y-102259928D02*
X76713690Y-102402785D01*
X76761309Y-102450404D01*
X76856547Y-102498023D01*
X76999404Y-102498023D01*
X77094642Y-102450404D01*
X77142261Y-102402785D01*
X77189880Y-102307547D01*
X77189880Y-101926595D01*
X76189880Y-101926595D01*
X76189880Y-102259928D01*
X76237500Y-102355166D01*
X76285119Y-102402785D01*
X76380357Y-102450404D01*
X76475595Y-102450404D01*
X76570833Y-102402785D01*
X76618452Y-102355166D01*
X76666071Y-102259928D01*
X76666071Y-101926595D01*
X74776880Y-92306595D02*
X73776880Y-92306595D01*
X73776880Y-92687547D01*
X73824500Y-92782785D01*
X73872119Y-92830404D01*
X73967357Y-92878023D01*
X74110214Y-92878023D01*
X74205452Y-92830404D01*
X74253071Y-92782785D01*
X74300690Y-92687547D01*
X74300690Y-92306595D01*
X74776880Y-93878023D02*
X74300690Y-93544690D01*
X74776880Y-93306595D02*
X73776880Y-93306595D01*
X73776880Y-93687547D01*
X73824500Y-93782785D01*
X73872119Y-93830404D01*
X73967357Y-93878023D01*
X74110214Y-93878023D01*
X74205452Y-93830404D01*
X74253071Y-93782785D01*
X74300690Y-93687547D01*
X74300690Y-93306595D01*
X74253071Y-94639928D02*
X74300690Y-94782785D01*
X74348309Y-94830404D01*
X74443547Y-94878023D01*
X74586404Y-94878023D01*
X74681642Y-94830404D01*
X74729261Y-94782785D01*
X74776880Y-94687547D01*
X74776880Y-94306595D01*
X73776880Y-94306595D01*
X73776880Y-94639928D01*
X73824500Y-94735166D01*
X73872119Y-94782785D01*
X73967357Y-94830404D01*
X74062595Y-94830404D01*
X74157833Y-94782785D01*
X74205452Y-94735166D01*
X74253071Y-94639928D01*
X74253071Y-94306595D01*
X79809261Y-92258976D02*
X79856880Y-92401833D01*
X79856880Y-92639928D01*
X79809261Y-92735166D01*
X79761642Y-92782785D01*
X79666404Y-92830404D01*
X79571166Y-92830404D01*
X79475928Y-92782785D01*
X79428309Y-92735166D01*
X79380690Y-92639928D01*
X79333071Y-92449452D01*
X79285452Y-92354214D01*
X79237833Y-92306595D01*
X79142595Y-92258976D01*
X79047357Y-92258976D01*
X78952119Y-92306595D01*
X78904500Y-92354214D01*
X78856880Y-92449452D01*
X78856880Y-92687547D01*
X78904500Y-92830404D01*
X79333071Y-93258976D02*
X79333071Y-93592309D01*
X79856880Y-93735166D02*
X79856880Y-93258976D01*
X78856880Y-93258976D01*
X78856880Y-93735166D01*
X79856880Y-94735166D02*
X79380690Y-94401833D01*
X79856880Y-94163738D02*
X78856880Y-94163738D01*
X78856880Y-94544690D01*
X78904500Y-94639928D01*
X78952119Y-94687547D01*
X79047357Y-94735166D01*
X79190214Y-94735166D01*
X79285452Y-94687547D01*
X79333071Y-94639928D01*
X79380690Y-94544690D01*
X79380690Y-94163738D01*
X78856880Y-95020880D02*
X79856880Y-95354214D01*
X78856880Y-95687547D01*
X81396880Y-92782785D02*
X81396880Y-92306595D01*
X81873071Y-92258976D01*
X81825452Y-92306595D01*
X81777833Y-92401833D01*
X81777833Y-92639928D01*
X81825452Y-92735166D01*
X81873071Y-92782785D01*
X81968309Y-92830404D01*
X82206404Y-92830404D01*
X82301642Y-92782785D01*
X82349261Y-92735166D01*
X82396880Y-92639928D01*
X82396880Y-92401833D01*
X82349261Y-92306595D01*
X82301642Y-92258976D01*
X81396880Y-93116119D02*
X82396880Y-93449452D01*
X81396880Y-93782785D01*
X63416142Y-100567380D02*
X62797095Y-100567380D01*
X63130428Y-100948333D01*
X62987571Y-100948333D01*
X62892333Y-100995952D01*
X62844714Y-101043571D01*
X62797095Y-101138809D01*
X62797095Y-101376904D01*
X62844714Y-101472142D01*
X62892333Y-101519761D01*
X62987571Y-101567380D01*
X63273285Y-101567380D01*
X63368523Y-101519761D01*
X63416142Y-101472142D01*
X62511380Y-100567380D02*
X62178047Y-101567380D01*
X61844714Y-100567380D01*
X61606619Y-100567380D02*
X60987571Y-100567380D01*
X61320904Y-100948333D01*
X61178047Y-100948333D01*
X61082809Y-100995952D01*
X61035190Y-101043571D01*
X60987571Y-101138809D01*
X60987571Y-101376904D01*
X61035190Y-101472142D01*
X61082809Y-101519761D01*
X61178047Y-101567380D01*
X61463761Y-101567380D01*
X61559000Y-101519761D01*
X61606619Y-101472142D01*
X62844714Y-110219380D02*
X63320904Y-110219380D01*
X63368523Y-110695571D01*
X63320904Y-110647952D01*
X63225666Y-110600333D01*
X62987571Y-110600333D01*
X62892333Y-110647952D01*
X62844714Y-110695571D01*
X62797095Y-110790809D01*
X62797095Y-111028904D01*
X62844714Y-111124142D01*
X62892333Y-111171761D01*
X62987571Y-111219380D01*
X63225666Y-111219380D01*
X63320904Y-111171761D01*
X63368523Y-111124142D01*
X62511380Y-110219380D02*
X62178047Y-111219380D01*
X61844714Y-110219380D01*
X72258523Y-173687619D02*
X72210904Y-173640000D01*
X72115666Y-173592380D01*
X71877571Y-173592380D01*
X71782333Y-173640000D01*
X71734714Y-173687619D01*
X71687095Y-173782857D01*
X71687095Y-173878095D01*
X71734714Y-174020952D01*
X72306142Y-174592380D01*
X71687095Y-174592380D01*
X70829952Y-173925714D02*
X70829952Y-174592380D01*
X71068047Y-173544761D02*
X71306142Y-174259047D01*
X70687095Y-174259047D01*
X70449000Y-173592380D02*
X70115666Y-174592380D01*
X69782333Y-173592380D01*
X71734714Y-171052380D02*
X72210904Y-171052380D01*
X72258523Y-171528571D01*
X72210904Y-171480952D01*
X72115666Y-171433333D01*
X71877571Y-171433333D01*
X71782333Y-171480952D01*
X71734714Y-171528571D01*
X71687095Y-171623809D01*
X71687095Y-171861904D01*
X71734714Y-171957142D01*
X71782333Y-172004761D01*
X71877571Y-172052380D01*
X72115666Y-172052380D01*
X72210904Y-172004761D01*
X72258523Y-171957142D01*
X71401380Y-171052380D02*
X71068047Y-172052380D01*
X70734714Y-171052380D01*
X62894404Y-103155000D02*
X62989642Y-103107380D01*
X63132500Y-103107380D01*
X63275357Y-103155000D01*
X63370595Y-103250238D01*
X63418214Y-103345476D01*
X63465833Y-103535952D01*
X63465833Y-103678809D01*
X63418214Y-103869285D01*
X63370595Y-103964523D01*
X63275357Y-104059761D01*
X63132500Y-104107380D01*
X63037261Y-104107380D01*
X62894404Y-104059761D01*
X62846785Y-104012142D01*
X62846785Y-103678809D01*
X63037261Y-103678809D01*
X62418214Y-104107380D02*
X62418214Y-103107380D01*
X61846785Y-104107380D01*
X61846785Y-103107380D01*
X61370595Y-104107380D02*
X61370595Y-103107380D01*
X61132500Y-103107380D01*
X60989642Y-103155000D01*
X60894404Y-103250238D01*
X60846785Y-103345476D01*
X60799166Y-103535952D01*
X60799166Y-103678809D01*
X60846785Y-103869285D01*
X60894404Y-103964523D01*
X60989642Y-104059761D01*
X61132500Y-104107380D01*
X61370595Y-104107380D01*
X62894404Y-112680000D02*
X62989642Y-112632380D01*
X63132500Y-112632380D01*
X63275357Y-112680000D01*
X63370595Y-112775238D01*
X63418214Y-112870476D01*
X63465833Y-113060952D01*
X63465833Y-113203809D01*
X63418214Y-113394285D01*
X63370595Y-113489523D01*
X63275357Y-113584761D01*
X63132500Y-113632380D01*
X63037261Y-113632380D01*
X62894404Y-113584761D01*
X62846785Y-113537142D01*
X62846785Y-113203809D01*
X63037261Y-113203809D01*
X62418214Y-113632380D02*
X62418214Y-112632380D01*
X61846785Y-113632380D01*
X61846785Y-112632380D01*
X61370595Y-113632380D02*
X61370595Y-112632380D01*
X61132500Y-112632380D01*
X60989642Y-112680000D01*
X60894404Y-112775238D01*
X60846785Y-112870476D01*
X60799166Y-113060952D01*
X60799166Y-113203809D01*
X60846785Y-113394285D01*
X60894404Y-113489523D01*
X60989642Y-113584761D01*
X61132500Y-113632380D01*
X61370595Y-113632380D01*
X78007500Y-101750000D02*
X97155000Y-101750000D01*
X71157500Y-100353095D02*
X71109880Y-100257857D01*
X71109880Y-100115000D01*
X71157500Y-99972142D01*
X71252738Y-99876904D01*
X71347976Y-99829285D01*
X71538452Y-99781666D01*
X71681309Y-99781666D01*
X71871785Y-99829285D01*
X71967023Y-99876904D01*
X72062261Y-99972142D01*
X72109880Y-100115000D01*
X72109880Y-100210238D01*
X72062261Y-100353095D01*
X72014642Y-100400714D01*
X71681309Y-100400714D01*
X71681309Y-100210238D01*
X72109880Y-100829285D02*
X71109880Y-100829285D01*
X72109880Y-101400714D01*
X71109880Y-101400714D01*
X72109880Y-101876904D02*
X71109880Y-101876904D01*
X71109880Y-102115000D01*
X71157500Y-102257857D01*
X71252738Y-102353095D01*
X71347976Y-102400714D01*
X71538452Y-102448333D01*
X71681309Y-102448333D01*
X71871785Y-102400714D01*
X71967023Y-102353095D01*
X72062261Y-102257857D01*
X72109880Y-102115000D01*
X72109880Y-101876904D01*
X76237500Y-92733095D02*
X76189880Y-92637857D01*
X76189880Y-92495000D01*
X76237500Y-92352142D01*
X76332738Y-92256904D01*
X76427976Y-92209285D01*
X76618452Y-92161666D01*
X76761309Y-92161666D01*
X76951785Y-92209285D01*
X77047023Y-92256904D01*
X77142261Y-92352142D01*
X77189880Y-92495000D01*
X77189880Y-92590238D01*
X77142261Y-92733095D01*
X77094642Y-92780714D01*
X76761309Y-92780714D01*
X76761309Y-92590238D01*
X77189880Y-93209285D02*
X76189880Y-93209285D01*
X77189880Y-93780714D01*
X76189880Y-93780714D01*
X77189880Y-94256904D02*
X76189880Y-94256904D01*
X76189880Y-94495000D01*
X76237500Y-94637857D01*
X76332738Y-94733095D01*
X76427976Y-94780714D01*
X76618452Y-94828333D01*
X76761309Y-94828333D01*
X76951785Y-94780714D01*
X77047023Y-94733095D01*
X77142261Y-94637857D01*
X77189880Y-94495000D01*
X77189880Y-94256904D01*
X83857500Y-92733095D02*
X83809880Y-92637857D01*
X83809880Y-92495000D01*
X83857500Y-92352142D01*
X83952738Y-92256904D01*
X84047976Y-92209285D01*
X84238452Y-92161666D01*
X84381309Y-92161666D01*
X84571785Y-92209285D01*
X84667023Y-92256904D01*
X84762261Y-92352142D01*
X84809880Y-92495000D01*
X84809880Y-92590238D01*
X84762261Y-92733095D01*
X84714642Y-92780714D01*
X84381309Y-92780714D01*
X84381309Y-92590238D01*
X84809880Y-93209285D02*
X83809880Y-93209285D01*
X84809880Y-93780714D01*
X83809880Y-93780714D01*
X84809880Y-94256904D02*
X83809880Y-94256904D01*
X83809880Y-94495000D01*
X83857500Y-94637857D01*
X83952738Y-94733095D01*
X84047976Y-94780714D01*
X84238452Y-94828333D01*
X84381309Y-94828333D01*
X84571785Y-94780714D01*
X84667023Y-94733095D01*
X84762261Y-94637857D01*
X84809880Y-94495000D01*
X84809880Y-94256904D01*
X91477500Y-169568095D02*
X91429880Y-169472857D01*
X91429880Y-169330000D01*
X91477500Y-169187142D01*
X91572738Y-169091904D01*
X91667976Y-169044285D01*
X91858452Y-168996666D01*
X92001309Y-168996666D01*
X92191785Y-169044285D01*
X92287023Y-169091904D01*
X92382261Y-169187142D01*
X92429880Y-169330000D01*
X92429880Y-169425238D01*
X92382261Y-169568095D01*
X92334642Y-169615714D01*
X92001309Y-169615714D01*
X92001309Y-169425238D01*
X92429880Y-170044285D02*
X91429880Y-170044285D01*
X92429880Y-170615714D01*
X91429880Y-170615714D01*
X92429880Y-171091904D02*
X91429880Y-171091904D01*
X91429880Y-171330000D01*
X91477500Y-171472857D01*
X91572738Y-171568095D01*
X91667976Y-171615714D01*
X91858452Y-171663333D01*
X92001309Y-171663333D01*
X92191785Y-171615714D01*
X92287023Y-171568095D01*
X92382261Y-171472857D01*
X92429880Y-171330000D01*
X92429880Y-171091904D01*
X71784404Y-168560000D02*
X71879642Y-168512380D01*
X72022500Y-168512380D01*
X72165357Y-168560000D01*
X72260595Y-168655238D01*
X72308214Y-168750476D01*
X72355833Y-168940952D01*
X72355833Y-169083809D01*
X72308214Y-169274285D01*
X72260595Y-169369523D01*
X72165357Y-169464761D01*
X72022500Y-169512380D01*
X71927261Y-169512380D01*
X71784404Y-169464761D01*
X71736785Y-169417142D01*
X71736785Y-169083809D01*
X71927261Y-169083809D01*
X71308214Y-169512380D02*
X71308214Y-168512380D01*
X70736785Y-169512380D01*
X70736785Y-168512380D01*
X70260595Y-169512380D02*
X70260595Y-168512380D01*
X70022500Y-168512380D01*
X69879642Y-168560000D01*
X69784404Y-168655238D01*
X69736785Y-168750476D01*
X69689166Y-168940952D01*
X69689166Y-169083809D01*
X69736785Y-169274285D01*
X69784404Y-169369523D01*
X69879642Y-169464761D01*
X70022500Y-169512380D01*
X70260595Y-169512380D01*
X62894404Y-159670000D02*
X62989642Y-159622380D01*
X63132500Y-159622380D01*
X63275357Y-159670000D01*
X63370595Y-159765238D01*
X63418214Y-159860476D01*
X63465833Y-160050952D01*
X63465833Y-160193809D01*
X63418214Y-160384285D01*
X63370595Y-160479523D01*
X63275357Y-160574761D01*
X63132500Y-160622380D01*
X63037261Y-160622380D01*
X62894404Y-160574761D01*
X62846785Y-160527142D01*
X62846785Y-160193809D01*
X63037261Y-160193809D01*
X62418214Y-160622380D02*
X62418214Y-159622380D01*
X61846785Y-160622380D01*
X61846785Y-159622380D01*
X61370595Y-160622380D02*
X61370595Y-159622380D01*
X61132500Y-159622380D01*
X60989642Y-159670000D01*
X60894404Y-159765238D01*
X60846785Y-159860476D01*
X60799166Y-160050952D01*
X60799166Y-160193809D01*
X60846785Y-160384285D01*
X60894404Y-160479523D01*
X60989642Y-160574761D01*
X61132500Y-160622380D01*
X61370595Y-160622380D01*
X62894404Y-124237000D02*
X62989642Y-124189380D01*
X63132500Y-124189380D01*
X63275357Y-124237000D01*
X63370595Y-124332238D01*
X63418214Y-124427476D01*
X63465833Y-124617952D01*
X63465833Y-124760809D01*
X63418214Y-124951285D01*
X63370595Y-125046523D01*
X63275357Y-125141761D01*
X63132500Y-125189380D01*
X63037261Y-125189380D01*
X62894404Y-125141761D01*
X62846785Y-125094142D01*
X62846785Y-124760809D01*
X63037261Y-124760809D01*
X62418214Y-125189380D02*
X62418214Y-124189380D01*
X61846785Y-125189380D01*
X61846785Y-124189380D01*
X61370595Y-125189380D02*
X61370595Y-124189380D01*
X61132500Y-124189380D01*
X60989642Y-124237000D01*
X60894404Y-124332238D01*
X60846785Y-124427476D01*
X60799166Y-124617952D01*
X60799166Y-124760809D01*
X60846785Y-124951285D01*
X60894404Y-125046523D01*
X60989642Y-125141761D01*
X61132500Y-125189380D01*
X61370595Y-125189380D01*
X132760357Y-127602380D02*
X133331785Y-127602380D01*
X133046071Y-127602380D02*
X133046071Y-126602380D01*
X133141309Y-126745238D01*
X133236547Y-126840476D01*
X133331785Y-126888095D01*
X132379404Y-127316666D02*
X131903214Y-127316666D01*
X132474642Y-127602380D02*
X132141309Y-126602380D01*
X131807976Y-127602380D01*
X133331785Y-124284619D02*
X133284166Y-124237000D01*
X133188928Y-124189380D01*
X132950833Y-124189380D01*
X132855595Y-124237000D01*
X132807976Y-124284619D01*
X132760357Y-124379857D01*
X132760357Y-124475095D01*
X132807976Y-124617952D01*
X133379404Y-125189380D01*
X132760357Y-125189380D01*
X132379404Y-124903666D02*
X131903214Y-124903666D01*
X132474642Y-125189380D02*
X132141309Y-124189380D01*
X131807976Y-125189380D01*
X133403214Y-121744619D02*
X133355595Y-121697000D01*
X133260357Y-121649380D01*
X133022261Y-121649380D01*
X132927023Y-121697000D01*
X132879404Y-121744619D01*
X132831785Y-121839857D01*
X132831785Y-121935095D01*
X132879404Y-122077952D01*
X133450833Y-122649380D01*
X132831785Y-122649380D01*
X132069880Y-122125571D02*
X131927023Y-122173190D01*
X131879404Y-122220809D01*
X131831785Y-122316047D01*
X131831785Y-122458904D01*
X131879404Y-122554142D01*
X131927023Y-122601761D01*
X132022261Y-122649380D01*
X132403214Y-122649380D01*
X132403214Y-121649380D01*
X132069880Y-121649380D01*
X131974642Y-121697000D01*
X131927023Y-121744619D01*
X131879404Y-121839857D01*
X131879404Y-121935095D01*
X131927023Y-122030333D01*
X131974642Y-122077952D01*
X132069880Y-122125571D01*
X132403214Y-122125571D01*
X132831785Y-120109380D02*
X133403214Y-120109380D01*
X133117500Y-120109380D02*
X133117500Y-119109380D01*
X133212738Y-119252238D01*
X133307976Y-119347476D01*
X133403214Y-119395095D01*
X132069880Y-119585571D02*
X131927023Y-119633190D01*
X131879404Y-119680809D01*
X131831785Y-119776047D01*
X131831785Y-119918904D01*
X131879404Y-120014142D01*
X131927023Y-120061761D01*
X132022261Y-120109380D01*
X132403214Y-120109380D01*
X132403214Y-119109380D01*
X132069880Y-119109380D01*
X131974642Y-119157000D01*
X131927023Y-119204619D01*
X131879404Y-119299857D01*
X131879404Y-119395095D01*
X131927023Y-119490333D01*
X131974642Y-119537952D01*
X132069880Y-119585571D01*
X132403214Y-119585571D01*
X69117500Y-127785000D02*
X121187500Y-127785000D01*
X121187500Y-180490000D02*
X69117500Y-180490000D01*
X69117500Y-153820000D02*
X69117500Y-127785000D01*
X69117500Y-101750000D02*
X70387500Y-101750000D01*
X69117500Y-127785000D02*
X69117500Y-101750000D01*
X69117500Y-153820000D02*
X121187500Y-153820000D01*
X69117500Y-165631000D02*
X69117500Y-153820000D01*
D15*
%TO.C,QR1*%
G36*
X99830000Y-112895000D02*
G01*
X99830000Y-112095000D01*
X100630000Y-112095000D01*
X100630000Y-112895000D01*
X99830000Y-112895000D01*
G37*
G36*
X103830000Y-112895000D02*
G01*
X103830000Y-112095000D01*
X104630000Y-112095000D01*
X104630000Y-112895000D01*
X103830000Y-112895000D01*
G37*
G36*
X105430000Y-112895000D02*
G01*
X105430000Y-112095000D01*
X106230000Y-112095000D01*
X106230000Y-112895000D01*
X105430000Y-112895000D01*
G37*
G36*
X107030000Y-112895000D02*
G01*
X107030000Y-112095000D01*
X107830000Y-112095000D01*
X107830000Y-112895000D01*
X107030000Y-112895000D01*
G37*
G36*
X107830000Y-112895000D02*
G01*
X107830000Y-112095000D01*
X108630000Y-112095000D01*
X108630000Y-112895000D01*
X107830000Y-112895000D01*
G37*
G36*
X108630000Y-112895000D02*
G01*
X108630000Y-112095000D01*
X109430000Y-112095000D01*
X109430000Y-112895000D01*
X108630000Y-112895000D01*
G37*
G36*
X109430000Y-112895000D02*
G01*
X109430000Y-112095000D01*
X110230000Y-112095000D01*
X110230000Y-112895000D01*
X109430000Y-112895000D01*
G37*
G36*
X111830000Y-112895000D02*
G01*
X111830000Y-112095000D01*
X112630000Y-112095000D01*
X112630000Y-112895000D01*
X111830000Y-112895000D01*
G37*
G36*
X112630000Y-112895000D02*
G01*
X112630000Y-112095000D01*
X113430000Y-112095000D01*
X113430000Y-112895000D01*
X112630000Y-112895000D01*
G37*
G36*
X113430000Y-112895000D02*
G01*
X113430000Y-112095000D01*
X114230000Y-112095000D01*
X114230000Y-112895000D01*
X113430000Y-112895000D01*
G37*
G36*
X114230000Y-112895000D02*
G01*
X114230000Y-112095000D01*
X115030000Y-112095000D01*
X115030000Y-112895000D01*
X114230000Y-112895000D01*
G37*
G36*
X115030000Y-112895000D02*
G01*
X115030000Y-112095000D01*
X115830000Y-112095000D01*
X115830000Y-112895000D01*
X115030000Y-112895000D01*
G37*
G36*
X115830000Y-112895000D02*
G01*
X115830000Y-112095000D01*
X116630000Y-112095000D01*
X116630000Y-112895000D01*
X115830000Y-112895000D01*
G37*
G36*
X118230000Y-112895000D02*
G01*
X118230000Y-112095000D01*
X119030000Y-112095000D01*
X119030000Y-112895000D01*
X118230000Y-112895000D01*
G37*
G36*
X119030000Y-112895000D02*
G01*
X119030000Y-112095000D01*
X119830000Y-112095000D01*
X119830000Y-112895000D01*
X119030000Y-112895000D01*
G37*
G36*
X120630000Y-112895000D02*
G01*
X120630000Y-112095000D01*
X121430000Y-112095000D01*
X121430000Y-112895000D01*
X120630000Y-112895000D01*
G37*
G36*
X121430000Y-112895000D02*
G01*
X121430000Y-112095000D01*
X122230000Y-112095000D01*
X122230000Y-112895000D01*
X121430000Y-112895000D01*
G37*
G36*
X122230000Y-112895000D02*
G01*
X122230000Y-112095000D01*
X123030000Y-112095000D01*
X123030000Y-112895000D01*
X122230000Y-112895000D01*
G37*
G36*
X123030000Y-112895000D02*
G01*
X123030000Y-112095000D01*
X123830000Y-112095000D01*
X123830000Y-112895000D01*
X123030000Y-112895000D01*
G37*
G36*
X123830000Y-112895000D02*
G01*
X123830000Y-112095000D01*
X124630000Y-112095000D01*
X124630000Y-112895000D01*
X123830000Y-112895000D01*
G37*
G36*
X124630000Y-112895000D02*
G01*
X124630000Y-112095000D01*
X125430000Y-112095000D01*
X125430000Y-112895000D01*
X124630000Y-112895000D01*
G37*
G36*
X125430000Y-112895000D02*
G01*
X125430000Y-112095000D01*
X126230000Y-112095000D01*
X126230000Y-112895000D01*
X125430000Y-112895000D01*
G37*
G36*
X103030000Y-112095000D02*
G01*
X103030000Y-111295000D01*
X103830000Y-111295000D01*
X103830000Y-112095000D01*
X103030000Y-112095000D01*
G37*
G36*
X104630000Y-112095000D02*
G01*
X104630000Y-111295000D01*
X105430000Y-111295000D01*
X105430000Y-112095000D01*
X104630000Y-112095000D01*
G37*
G36*
X105430000Y-112095000D02*
G01*
X105430000Y-111295000D01*
X106230000Y-111295000D01*
X106230000Y-112095000D01*
X105430000Y-112095000D01*
G37*
G36*
X107030000Y-112095000D02*
G01*
X107030000Y-111295000D01*
X107830000Y-111295000D01*
X107830000Y-112095000D01*
X107030000Y-112095000D01*
G37*
G36*
X108630000Y-112095000D02*
G01*
X108630000Y-111295000D01*
X109430000Y-111295000D01*
X109430000Y-112095000D01*
X108630000Y-112095000D01*
G37*
G36*
X109430000Y-112095000D02*
G01*
X109430000Y-111295000D01*
X110230000Y-111295000D01*
X110230000Y-112095000D01*
X109430000Y-112095000D01*
G37*
G36*
X110230000Y-112095000D02*
G01*
X110230000Y-111295000D01*
X111030000Y-111295000D01*
X111030000Y-112095000D01*
X110230000Y-112095000D01*
G37*
G36*
X111030000Y-112095000D02*
G01*
X111030000Y-111295000D01*
X111830000Y-111295000D01*
X111830000Y-112095000D01*
X111030000Y-112095000D01*
G37*
G36*
X111830000Y-112095000D02*
G01*
X111830000Y-111295000D01*
X112630000Y-111295000D01*
X112630000Y-112095000D01*
X111830000Y-112095000D01*
G37*
G36*
X114230000Y-112095000D02*
G01*
X114230000Y-111295000D01*
X115030000Y-111295000D01*
X115030000Y-112095000D01*
X114230000Y-112095000D01*
G37*
G36*
X115030000Y-112095000D02*
G01*
X115030000Y-111295000D01*
X115830000Y-111295000D01*
X115830000Y-112095000D01*
X115030000Y-112095000D01*
G37*
G36*
X116630000Y-112095000D02*
G01*
X116630000Y-111295000D01*
X117430000Y-111295000D01*
X117430000Y-112095000D01*
X116630000Y-112095000D01*
G37*
G36*
X117430000Y-112095000D02*
G01*
X117430000Y-111295000D01*
X118230000Y-111295000D01*
X118230000Y-112095000D01*
X117430000Y-112095000D01*
G37*
G36*
X120630000Y-112095000D02*
G01*
X120630000Y-111295000D01*
X121430000Y-111295000D01*
X121430000Y-112095000D01*
X120630000Y-112095000D01*
G37*
G36*
X125430000Y-112095000D02*
G01*
X125430000Y-111295000D01*
X126230000Y-111295000D01*
X126230000Y-112095000D01*
X125430000Y-112095000D01*
G37*
G36*
X102230000Y-111295000D02*
G01*
X102230000Y-110495000D01*
X103030000Y-110495000D01*
X103030000Y-111295000D01*
X102230000Y-111295000D01*
G37*
G36*
X103030000Y-111295000D02*
G01*
X103030000Y-110495000D01*
X103830000Y-110495000D01*
X103830000Y-111295000D01*
X103030000Y-111295000D01*
G37*
G36*
X104630000Y-111295000D02*
G01*
X104630000Y-110495000D01*
X105430000Y-110495000D01*
X105430000Y-111295000D01*
X104630000Y-111295000D01*
G37*
G36*
X106230000Y-111295000D02*
G01*
X106230000Y-110495000D01*
X107030000Y-110495000D01*
X107030000Y-111295000D01*
X106230000Y-111295000D01*
G37*
G36*
X107830000Y-111295000D02*
G01*
X107830000Y-110495000D01*
X108630000Y-110495000D01*
X108630000Y-111295000D01*
X107830000Y-111295000D01*
G37*
G36*
X108630000Y-111295000D02*
G01*
X108630000Y-110495000D01*
X109430000Y-110495000D01*
X109430000Y-111295000D01*
X108630000Y-111295000D01*
G37*
G36*
X110230000Y-111295000D02*
G01*
X110230000Y-110495000D01*
X111030000Y-110495000D01*
X111030000Y-111295000D01*
X110230000Y-111295000D01*
G37*
G36*
X111830000Y-111295000D02*
G01*
X111830000Y-110495000D01*
X112630000Y-110495000D01*
X112630000Y-111295000D01*
X111830000Y-111295000D01*
G37*
G36*
X112630000Y-111295000D02*
G01*
X112630000Y-110495000D01*
X113430000Y-110495000D01*
X113430000Y-111295000D01*
X112630000Y-111295000D01*
G37*
G36*
X114230000Y-111295000D02*
G01*
X114230000Y-110495000D01*
X115030000Y-110495000D01*
X115030000Y-111295000D01*
X114230000Y-111295000D01*
G37*
G36*
X115030000Y-111295000D02*
G01*
X115030000Y-110495000D01*
X115830000Y-110495000D01*
X115830000Y-111295000D01*
X115030000Y-111295000D01*
G37*
G36*
X115830000Y-111295000D02*
G01*
X115830000Y-110495000D01*
X116630000Y-110495000D01*
X116630000Y-111295000D01*
X115830000Y-111295000D01*
G37*
G36*
X120630000Y-111295000D02*
G01*
X120630000Y-110495000D01*
X121430000Y-110495000D01*
X121430000Y-111295000D01*
X120630000Y-111295000D01*
G37*
G36*
X122230000Y-111295000D02*
G01*
X122230000Y-110495000D01*
X123030000Y-110495000D01*
X123030000Y-111295000D01*
X122230000Y-111295000D01*
G37*
G36*
X123030000Y-111295000D02*
G01*
X123030000Y-110495000D01*
X123830000Y-110495000D01*
X123830000Y-111295000D01*
X123030000Y-111295000D01*
G37*
G36*
X123830000Y-111295000D02*
G01*
X123830000Y-110495000D01*
X124630000Y-110495000D01*
X124630000Y-111295000D01*
X123830000Y-111295000D01*
G37*
G36*
X125430000Y-111295000D02*
G01*
X125430000Y-110495000D01*
X126230000Y-110495000D01*
X126230000Y-111295000D01*
X125430000Y-111295000D01*
G37*
G36*
X100630000Y-110495000D02*
G01*
X100630000Y-109695000D01*
X101430000Y-109695000D01*
X101430000Y-110495000D01*
X100630000Y-110495000D01*
G37*
G36*
X103030000Y-110495000D02*
G01*
X103030000Y-109695000D01*
X103830000Y-109695000D01*
X103830000Y-110495000D01*
X103030000Y-110495000D01*
G37*
G36*
X104630000Y-110495000D02*
G01*
X104630000Y-109695000D01*
X105430000Y-109695000D01*
X105430000Y-110495000D01*
X104630000Y-110495000D01*
G37*
G36*
X106230000Y-110495000D02*
G01*
X106230000Y-109695000D01*
X107030000Y-109695000D01*
X107030000Y-110495000D01*
X106230000Y-110495000D01*
G37*
G36*
X107030000Y-110495000D02*
G01*
X107030000Y-109695000D01*
X107830000Y-109695000D01*
X107830000Y-110495000D01*
X107030000Y-110495000D01*
G37*
G36*
X107830000Y-110495000D02*
G01*
X107830000Y-109695000D01*
X108630000Y-109695000D01*
X108630000Y-110495000D01*
X107830000Y-110495000D01*
G37*
G36*
X110230000Y-110495000D02*
G01*
X110230000Y-109695000D01*
X111030000Y-109695000D01*
X111030000Y-110495000D01*
X110230000Y-110495000D01*
G37*
G36*
X112630000Y-110495000D02*
G01*
X112630000Y-109695000D01*
X113430000Y-109695000D01*
X113430000Y-110495000D01*
X112630000Y-110495000D01*
G37*
G36*
X114230000Y-110495000D02*
G01*
X114230000Y-109695000D01*
X115030000Y-109695000D01*
X115030000Y-110495000D01*
X114230000Y-110495000D01*
G37*
G36*
X115030000Y-110495000D02*
G01*
X115030000Y-109695000D01*
X115830000Y-109695000D01*
X115830000Y-110495000D01*
X115030000Y-110495000D01*
G37*
G36*
X117430000Y-110495000D02*
G01*
X117430000Y-109695000D01*
X118230000Y-109695000D01*
X118230000Y-110495000D01*
X117430000Y-110495000D01*
G37*
G36*
X120630000Y-110495000D02*
G01*
X120630000Y-109695000D01*
X121430000Y-109695000D01*
X121430000Y-110495000D01*
X120630000Y-110495000D01*
G37*
G36*
X122230000Y-110495000D02*
G01*
X122230000Y-109695000D01*
X123030000Y-109695000D01*
X123030000Y-110495000D01*
X122230000Y-110495000D01*
G37*
G36*
X123030000Y-110495000D02*
G01*
X123030000Y-109695000D01*
X123830000Y-109695000D01*
X123830000Y-110495000D01*
X123030000Y-110495000D01*
G37*
G36*
X123830000Y-110495000D02*
G01*
X123830000Y-109695000D01*
X124630000Y-109695000D01*
X124630000Y-110495000D01*
X123830000Y-110495000D01*
G37*
G36*
X125430000Y-110495000D02*
G01*
X125430000Y-109695000D01*
X126230000Y-109695000D01*
X126230000Y-110495000D01*
X125430000Y-110495000D01*
G37*
G36*
X99830000Y-109695000D02*
G01*
X99830000Y-108895000D01*
X100630000Y-108895000D01*
X100630000Y-109695000D01*
X99830000Y-109695000D01*
G37*
G36*
X100630000Y-109695000D02*
G01*
X100630000Y-108895000D01*
X101430000Y-108895000D01*
X101430000Y-109695000D01*
X100630000Y-109695000D01*
G37*
G36*
X102230000Y-109695000D02*
G01*
X102230000Y-108895000D01*
X103030000Y-108895000D01*
X103030000Y-109695000D01*
X102230000Y-109695000D01*
G37*
G36*
X103030000Y-109695000D02*
G01*
X103030000Y-108895000D01*
X103830000Y-108895000D01*
X103830000Y-109695000D01*
X103030000Y-109695000D01*
G37*
G36*
X103830000Y-109695000D02*
G01*
X103830000Y-108895000D01*
X104630000Y-108895000D01*
X104630000Y-109695000D01*
X103830000Y-109695000D01*
G37*
G36*
X104630000Y-109695000D02*
G01*
X104630000Y-108895000D01*
X105430000Y-108895000D01*
X105430000Y-109695000D01*
X104630000Y-109695000D01*
G37*
G36*
X105430000Y-109695000D02*
G01*
X105430000Y-108895000D01*
X106230000Y-108895000D01*
X106230000Y-109695000D01*
X105430000Y-109695000D01*
G37*
G36*
X106230000Y-109695000D02*
G01*
X106230000Y-108895000D01*
X107030000Y-108895000D01*
X107030000Y-109695000D01*
X106230000Y-109695000D01*
G37*
G36*
X109430000Y-109695000D02*
G01*
X109430000Y-108895000D01*
X110230000Y-108895000D01*
X110230000Y-109695000D01*
X109430000Y-109695000D01*
G37*
G36*
X110230000Y-109695000D02*
G01*
X110230000Y-108895000D01*
X111030000Y-108895000D01*
X111030000Y-109695000D01*
X110230000Y-109695000D01*
G37*
G36*
X111030000Y-109695000D02*
G01*
X111030000Y-108895000D01*
X111830000Y-108895000D01*
X111830000Y-109695000D01*
X111030000Y-109695000D01*
G37*
G36*
X115830000Y-109695000D02*
G01*
X115830000Y-108895000D01*
X116630000Y-108895000D01*
X116630000Y-109695000D01*
X115830000Y-109695000D01*
G37*
G36*
X117430000Y-109695000D02*
G01*
X117430000Y-108895000D01*
X118230000Y-108895000D01*
X118230000Y-109695000D01*
X117430000Y-109695000D01*
G37*
G36*
X119030000Y-109695000D02*
G01*
X119030000Y-108895000D01*
X119830000Y-108895000D01*
X119830000Y-109695000D01*
X119030000Y-109695000D01*
G37*
G36*
X120630000Y-109695000D02*
G01*
X120630000Y-108895000D01*
X121430000Y-108895000D01*
X121430000Y-109695000D01*
X120630000Y-109695000D01*
G37*
G36*
X122230000Y-109695000D02*
G01*
X122230000Y-108895000D01*
X123030000Y-108895000D01*
X123030000Y-109695000D01*
X122230000Y-109695000D01*
G37*
G36*
X123030000Y-109695000D02*
G01*
X123030000Y-108895000D01*
X123830000Y-108895000D01*
X123830000Y-109695000D01*
X123030000Y-109695000D01*
G37*
G36*
X123830000Y-109695000D02*
G01*
X123830000Y-108895000D01*
X124630000Y-108895000D01*
X124630000Y-109695000D01*
X123830000Y-109695000D01*
G37*
G36*
X125430000Y-109695000D02*
G01*
X125430000Y-108895000D01*
X126230000Y-108895000D01*
X126230000Y-109695000D01*
X125430000Y-109695000D01*
G37*
G36*
X99830000Y-108895000D02*
G01*
X99830000Y-108095000D01*
X100630000Y-108095000D01*
X100630000Y-108895000D01*
X99830000Y-108895000D01*
G37*
G36*
X100630000Y-108895000D02*
G01*
X100630000Y-108095000D01*
X101430000Y-108095000D01*
X101430000Y-108895000D01*
X100630000Y-108895000D01*
G37*
G36*
X103030000Y-108895000D02*
G01*
X103030000Y-108095000D01*
X103830000Y-108095000D01*
X103830000Y-108895000D01*
X103030000Y-108895000D01*
G37*
G36*
X106230000Y-108895000D02*
G01*
X106230000Y-108095000D01*
X107030000Y-108095000D01*
X107030000Y-108895000D01*
X106230000Y-108895000D01*
G37*
G36*
X107030000Y-108895000D02*
G01*
X107030000Y-108095000D01*
X107830000Y-108095000D01*
X107830000Y-108895000D01*
X107030000Y-108895000D01*
G37*
G36*
X108630000Y-108895000D02*
G01*
X108630000Y-108095000D01*
X109430000Y-108095000D01*
X109430000Y-108895000D01*
X108630000Y-108895000D01*
G37*
G36*
X110230000Y-108895000D02*
G01*
X110230000Y-108095000D01*
X111030000Y-108095000D01*
X111030000Y-108895000D01*
X110230000Y-108895000D01*
G37*
G36*
X111030000Y-108895000D02*
G01*
X111030000Y-108095000D01*
X111830000Y-108095000D01*
X111830000Y-108895000D01*
X111030000Y-108895000D01*
G37*
G36*
X111830000Y-108895000D02*
G01*
X111830000Y-108095000D01*
X112630000Y-108095000D01*
X112630000Y-108895000D01*
X111830000Y-108895000D01*
G37*
G36*
X115030000Y-108895000D02*
G01*
X115030000Y-108095000D01*
X115830000Y-108095000D01*
X115830000Y-108895000D01*
X115030000Y-108895000D01*
G37*
G36*
X117430000Y-108895000D02*
G01*
X117430000Y-108095000D01*
X118230000Y-108095000D01*
X118230000Y-108895000D01*
X117430000Y-108895000D01*
G37*
G36*
X120630000Y-108895000D02*
G01*
X120630000Y-108095000D01*
X121430000Y-108095000D01*
X121430000Y-108895000D01*
X120630000Y-108895000D01*
G37*
G36*
X125430000Y-108895000D02*
G01*
X125430000Y-108095000D01*
X126230000Y-108095000D01*
X126230000Y-108895000D01*
X125430000Y-108895000D01*
G37*
G36*
X100630000Y-108095000D02*
G01*
X100630000Y-107295000D01*
X101430000Y-107295000D01*
X101430000Y-108095000D01*
X100630000Y-108095000D01*
G37*
G36*
X102230000Y-108095000D02*
G01*
X102230000Y-107295000D01*
X103030000Y-107295000D01*
X103030000Y-108095000D01*
X102230000Y-108095000D01*
G37*
G36*
X103030000Y-108095000D02*
G01*
X103030000Y-107295000D01*
X103830000Y-107295000D01*
X103830000Y-108095000D01*
X103030000Y-108095000D01*
G37*
G36*
X104630000Y-108095000D02*
G01*
X104630000Y-107295000D01*
X105430000Y-107295000D01*
X105430000Y-108095000D01*
X104630000Y-108095000D01*
G37*
G36*
X106230000Y-108095000D02*
G01*
X106230000Y-107295000D01*
X107030000Y-107295000D01*
X107030000Y-108095000D01*
X106230000Y-108095000D01*
G37*
G36*
X107830000Y-108095000D02*
G01*
X107830000Y-107295000D01*
X108630000Y-107295000D01*
X108630000Y-108095000D01*
X107830000Y-108095000D01*
G37*
G36*
X108630000Y-108095000D02*
G01*
X108630000Y-107295000D01*
X109430000Y-107295000D01*
X109430000Y-108095000D01*
X108630000Y-108095000D01*
G37*
G36*
X109430000Y-108095000D02*
G01*
X109430000Y-107295000D01*
X110230000Y-107295000D01*
X110230000Y-108095000D01*
X109430000Y-108095000D01*
G37*
G36*
X111830000Y-108095000D02*
G01*
X111830000Y-107295000D01*
X112630000Y-107295000D01*
X112630000Y-108095000D01*
X111830000Y-108095000D01*
G37*
G36*
X112630000Y-108095000D02*
G01*
X112630000Y-107295000D01*
X113430000Y-107295000D01*
X113430000Y-108095000D01*
X112630000Y-108095000D01*
G37*
G36*
X113430000Y-108095000D02*
G01*
X113430000Y-107295000D01*
X114230000Y-107295000D01*
X114230000Y-108095000D01*
X113430000Y-108095000D01*
G37*
G36*
X114230000Y-108095000D02*
G01*
X114230000Y-107295000D01*
X115030000Y-107295000D01*
X115030000Y-108095000D01*
X114230000Y-108095000D01*
G37*
G36*
X116630000Y-108095000D02*
G01*
X116630000Y-107295000D01*
X117430000Y-107295000D01*
X117430000Y-108095000D01*
X116630000Y-108095000D01*
G37*
G36*
X119030000Y-108095000D02*
G01*
X119030000Y-107295000D01*
X119830000Y-107295000D01*
X119830000Y-108095000D01*
X119030000Y-108095000D01*
G37*
G36*
X120630000Y-108095000D02*
G01*
X120630000Y-107295000D01*
X121430000Y-107295000D01*
X121430000Y-108095000D01*
X120630000Y-108095000D01*
G37*
G36*
X121430000Y-108095000D02*
G01*
X121430000Y-107295000D01*
X122230000Y-107295000D01*
X122230000Y-108095000D01*
X121430000Y-108095000D01*
G37*
G36*
X122230000Y-108095000D02*
G01*
X122230000Y-107295000D01*
X123030000Y-107295000D01*
X123030000Y-108095000D01*
X122230000Y-108095000D01*
G37*
G36*
X123030000Y-108095000D02*
G01*
X123030000Y-107295000D01*
X123830000Y-107295000D01*
X123830000Y-108095000D01*
X123030000Y-108095000D01*
G37*
G36*
X123830000Y-108095000D02*
G01*
X123830000Y-107295000D01*
X124630000Y-107295000D01*
X124630000Y-108095000D01*
X123830000Y-108095000D01*
G37*
G36*
X124630000Y-108095000D02*
G01*
X124630000Y-107295000D01*
X125430000Y-107295000D01*
X125430000Y-108095000D01*
X124630000Y-108095000D01*
G37*
G36*
X125430000Y-108095000D02*
G01*
X125430000Y-107295000D01*
X126230000Y-107295000D01*
X126230000Y-108095000D01*
X125430000Y-108095000D01*
G37*
G36*
X103030000Y-107295000D02*
G01*
X103030000Y-106495000D01*
X103830000Y-106495000D01*
X103830000Y-107295000D01*
X103030000Y-107295000D01*
G37*
G36*
X106230000Y-107295000D02*
G01*
X106230000Y-106495000D01*
X107030000Y-106495000D01*
X107030000Y-107295000D01*
X106230000Y-107295000D01*
G37*
G36*
X111030000Y-107295000D02*
G01*
X111030000Y-106495000D01*
X111830000Y-106495000D01*
X111830000Y-107295000D01*
X111030000Y-107295000D01*
G37*
G36*
X112630000Y-107295000D02*
G01*
X112630000Y-106495000D01*
X113430000Y-106495000D01*
X113430000Y-107295000D01*
X112630000Y-107295000D01*
G37*
G36*
X113430000Y-107295000D02*
G01*
X113430000Y-106495000D01*
X114230000Y-106495000D01*
X114230000Y-107295000D01*
X113430000Y-107295000D01*
G37*
G36*
X116630000Y-107295000D02*
G01*
X116630000Y-106495000D01*
X117430000Y-106495000D01*
X117430000Y-107295000D01*
X116630000Y-107295000D01*
G37*
G36*
X118230000Y-107295000D02*
G01*
X118230000Y-106495000D01*
X119030000Y-106495000D01*
X119030000Y-107295000D01*
X118230000Y-107295000D01*
G37*
G36*
X119030000Y-107295000D02*
G01*
X119030000Y-106495000D01*
X119830000Y-106495000D01*
X119830000Y-107295000D01*
X119030000Y-107295000D01*
G37*
G36*
X99830000Y-106495000D02*
G01*
X99830000Y-105695000D01*
X100630000Y-105695000D01*
X100630000Y-106495000D01*
X99830000Y-106495000D01*
G37*
G36*
X103030000Y-106495000D02*
G01*
X103030000Y-105695000D01*
X103830000Y-105695000D01*
X103830000Y-106495000D01*
X103030000Y-106495000D01*
G37*
G36*
X103830000Y-106495000D02*
G01*
X103830000Y-105695000D01*
X104630000Y-105695000D01*
X104630000Y-106495000D01*
X103830000Y-106495000D01*
G37*
G36*
X104630000Y-106495000D02*
G01*
X104630000Y-105695000D01*
X105430000Y-105695000D01*
X105430000Y-106495000D01*
X104630000Y-106495000D01*
G37*
G36*
X105430000Y-106495000D02*
G01*
X105430000Y-105695000D01*
X106230000Y-105695000D01*
X106230000Y-106495000D01*
X105430000Y-106495000D01*
G37*
G36*
X106230000Y-106495000D02*
G01*
X106230000Y-105695000D01*
X107030000Y-105695000D01*
X107030000Y-106495000D01*
X106230000Y-106495000D01*
G37*
G36*
X107830000Y-106495000D02*
G01*
X107830000Y-105695000D01*
X108630000Y-105695000D01*
X108630000Y-106495000D01*
X107830000Y-106495000D01*
G37*
G36*
X108630000Y-106495000D02*
G01*
X108630000Y-105695000D01*
X109430000Y-105695000D01*
X109430000Y-106495000D01*
X108630000Y-106495000D01*
G37*
G36*
X110230000Y-106495000D02*
G01*
X110230000Y-105695000D01*
X111030000Y-105695000D01*
X111030000Y-106495000D01*
X110230000Y-106495000D01*
G37*
G36*
X111830000Y-106495000D02*
G01*
X111830000Y-105695000D01*
X112630000Y-105695000D01*
X112630000Y-106495000D01*
X111830000Y-106495000D01*
G37*
G36*
X114230000Y-106495000D02*
G01*
X114230000Y-105695000D01*
X115030000Y-105695000D01*
X115030000Y-106495000D01*
X114230000Y-106495000D01*
G37*
G36*
X115030000Y-106495000D02*
G01*
X115030000Y-105695000D01*
X115830000Y-105695000D01*
X115830000Y-106495000D01*
X115030000Y-106495000D01*
G37*
G36*
X115830000Y-106495000D02*
G01*
X115830000Y-105695000D01*
X116630000Y-105695000D01*
X116630000Y-106495000D01*
X115830000Y-106495000D01*
G37*
G36*
X116630000Y-106495000D02*
G01*
X116630000Y-105695000D01*
X117430000Y-105695000D01*
X117430000Y-106495000D01*
X116630000Y-106495000D01*
G37*
G36*
X117430000Y-106495000D02*
G01*
X117430000Y-105695000D01*
X118230000Y-105695000D01*
X118230000Y-106495000D01*
X117430000Y-106495000D01*
G37*
G36*
X119030000Y-106495000D02*
G01*
X119030000Y-105695000D01*
X119830000Y-105695000D01*
X119830000Y-106495000D01*
X119030000Y-106495000D01*
G37*
G36*
X120630000Y-106495000D02*
G01*
X120630000Y-105695000D01*
X121430000Y-105695000D01*
X121430000Y-106495000D01*
X120630000Y-106495000D01*
G37*
G36*
X122230000Y-106495000D02*
G01*
X122230000Y-105695000D01*
X123030000Y-105695000D01*
X123030000Y-106495000D01*
X122230000Y-106495000D01*
G37*
G36*
X123030000Y-106495000D02*
G01*
X123030000Y-105695000D01*
X123830000Y-105695000D01*
X123830000Y-106495000D01*
X123030000Y-106495000D01*
G37*
G36*
X123830000Y-106495000D02*
G01*
X123830000Y-105695000D01*
X124630000Y-105695000D01*
X124630000Y-106495000D01*
X123830000Y-106495000D01*
G37*
G36*
X124630000Y-106495000D02*
G01*
X124630000Y-105695000D01*
X125430000Y-105695000D01*
X125430000Y-106495000D01*
X124630000Y-106495000D01*
G37*
G36*
X125430000Y-106495000D02*
G01*
X125430000Y-105695000D01*
X126230000Y-105695000D01*
X126230000Y-106495000D01*
X125430000Y-106495000D01*
G37*
G36*
X99830000Y-105695000D02*
G01*
X99830000Y-104895000D01*
X100630000Y-104895000D01*
X100630000Y-105695000D01*
X99830000Y-105695000D01*
G37*
G36*
X103030000Y-105695000D02*
G01*
X103030000Y-104895000D01*
X103830000Y-104895000D01*
X103830000Y-105695000D01*
X103030000Y-105695000D01*
G37*
G36*
X104630000Y-105695000D02*
G01*
X104630000Y-104895000D01*
X105430000Y-104895000D01*
X105430000Y-105695000D01*
X104630000Y-105695000D01*
G37*
G36*
X105430000Y-105695000D02*
G01*
X105430000Y-104895000D01*
X106230000Y-104895000D01*
X106230000Y-105695000D01*
X105430000Y-105695000D01*
G37*
G36*
X107030000Y-105695000D02*
G01*
X107030000Y-104895000D01*
X107830000Y-104895000D01*
X107830000Y-105695000D01*
X107030000Y-105695000D01*
G37*
G36*
X107830000Y-105695000D02*
G01*
X107830000Y-104895000D01*
X108630000Y-104895000D01*
X108630000Y-105695000D01*
X107830000Y-105695000D01*
G37*
G36*
X108630000Y-105695000D02*
G01*
X108630000Y-104895000D01*
X109430000Y-104895000D01*
X109430000Y-105695000D01*
X108630000Y-105695000D01*
G37*
G36*
X111830000Y-105695000D02*
G01*
X111830000Y-104895000D01*
X112630000Y-104895000D01*
X112630000Y-105695000D01*
X111830000Y-105695000D01*
G37*
G36*
X112630000Y-105695000D02*
G01*
X112630000Y-104895000D01*
X113430000Y-104895000D01*
X113430000Y-105695000D01*
X112630000Y-105695000D01*
G37*
G36*
X113430000Y-105695000D02*
G01*
X113430000Y-104895000D01*
X114230000Y-104895000D01*
X114230000Y-105695000D01*
X113430000Y-105695000D01*
G37*
G36*
X114230000Y-105695000D02*
G01*
X114230000Y-104895000D01*
X115030000Y-104895000D01*
X115030000Y-105695000D01*
X114230000Y-105695000D01*
G37*
G36*
X115030000Y-105695000D02*
G01*
X115030000Y-104895000D01*
X115830000Y-104895000D01*
X115830000Y-105695000D01*
X115030000Y-105695000D01*
G37*
G36*
X115830000Y-105695000D02*
G01*
X115830000Y-104895000D01*
X116630000Y-104895000D01*
X116630000Y-105695000D01*
X115830000Y-105695000D01*
G37*
G36*
X116630000Y-105695000D02*
G01*
X116630000Y-104895000D01*
X117430000Y-104895000D01*
X117430000Y-105695000D01*
X116630000Y-105695000D01*
G37*
G36*
X117430000Y-105695000D02*
G01*
X117430000Y-104895000D01*
X118230000Y-104895000D01*
X118230000Y-105695000D01*
X117430000Y-105695000D01*
G37*
G36*
X122230000Y-105695000D02*
G01*
X122230000Y-104895000D01*
X123030000Y-104895000D01*
X123030000Y-105695000D01*
X122230000Y-105695000D01*
G37*
G36*
X123830000Y-105695000D02*
G01*
X123830000Y-104895000D01*
X124630000Y-104895000D01*
X124630000Y-105695000D01*
X123830000Y-105695000D01*
G37*
G36*
X100630000Y-104895000D02*
G01*
X100630000Y-104095000D01*
X101430000Y-104095000D01*
X101430000Y-104895000D01*
X100630000Y-104895000D01*
G37*
G36*
X101430000Y-104895000D02*
G01*
X101430000Y-104095000D01*
X102230000Y-104095000D01*
X102230000Y-104895000D01*
X101430000Y-104895000D01*
G37*
G36*
X103030000Y-104895000D02*
G01*
X103030000Y-104095000D01*
X103830000Y-104095000D01*
X103830000Y-104895000D01*
X103030000Y-104895000D01*
G37*
G36*
X104630000Y-104895000D02*
G01*
X104630000Y-104095000D01*
X105430000Y-104095000D01*
X105430000Y-104895000D01*
X104630000Y-104895000D01*
G37*
G36*
X105430000Y-104895000D02*
G01*
X105430000Y-104095000D01*
X106230000Y-104095000D01*
X106230000Y-104895000D01*
X105430000Y-104895000D01*
G37*
G36*
X106230000Y-104895000D02*
G01*
X106230000Y-104095000D01*
X107030000Y-104095000D01*
X107030000Y-104895000D01*
X106230000Y-104895000D01*
G37*
G36*
X107030000Y-104895000D02*
G01*
X107030000Y-104095000D01*
X107830000Y-104095000D01*
X107830000Y-104895000D01*
X107030000Y-104895000D01*
G37*
G36*
X109430000Y-104895000D02*
G01*
X109430000Y-104095000D01*
X110230000Y-104095000D01*
X110230000Y-104895000D01*
X109430000Y-104895000D01*
G37*
G36*
X111030000Y-104895000D02*
G01*
X111030000Y-104095000D01*
X111830000Y-104095000D01*
X111830000Y-104895000D01*
X111030000Y-104895000D01*
G37*
G36*
X111830000Y-104895000D02*
G01*
X111830000Y-104095000D01*
X112630000Y-104095000D01*
X112630000Y-104895000D01*
X111830000Y-104895000D01*
G37*
G36*
X113430000Y-104895000D02*
G01*
X113430000Y-104095000D01*
X114230000Y-104095000D01*
X114230000Y-104895000D01*
X113430000Y-104895000D01*
G37*
G36*
X114230000Y-104895000D02*
G01*
X114230000Y-104095000D01*
X115030000Y-104095000D01*
X115030000Y-104895000D01*
X114230000Y-104895000D01*
G37*
G36*
X115030000Y-104895000D02*
G01*
X115030000Y-104095000D01*
X115830000Y-104095000D01*
X115830000Y-104895000D01*
X115030000Y-104895000D01*
G37*
G36*
X120630000Y-104895000D02*
G01*
X120630000Y-104095000D01*
X121430000Y-104095000D01*
X121430000Y-104895000D01*
X120630000Y-104895000D01*
G37*
G36*
X123830000Y-104895000D02*
G01*
X123830000Y-104095000D01*
X124630000Y-104095000D01*
X124630000Y-104895000D01*
X123830000Y-104895000D01*
G37*
G36*
X100630000Y-104095000D02*
G01*
X100630000Y-103295000D01*
X101430000Y-103295000D01*
X101430000Y-104095000D01*
X100630000Y-104095000D01*
G37*
G36*
X101430000Y-104095000D02*
G01*
X101430000Y-103295000D01*
X102230000Y-103295000D01*
X102230000Y-104095000D01*
X101430000Y-104095000D01*
G37*
G36*
X103830000Y-104095000D02*
G01*
X103830000Y-103295000D01*
X104630000Y-103295000D01*
X104630000Y-104095000D01*
X103830000Y-104095000D01*
G37*
G36*
X104630000Y-104095000D02*
G01*
X104630000Y-103295000D01*
X105430000Y-103295000D01*
X105430000Y-104095000D01*
X104630000Y-104095000D01*
G37*
G36*
X106230000Y-104095000D02*
G01*
X106230000Y-103295000D01*
X107030000Y-103295000D01*
X107030000Y-104095000D01*
X106230000Y-104095000D01*
G37*
G36*
X109430000Y-104095000D02*
G01*
X109430000Y-103295000D01*
X110230000Y-103295000D01*
X110230000Y-104095000D01*
X109430000Y-104095000D01*
G37*
G36*
X110230000Y-104095000D02*
G01*
X110230000Y-103295000D01*
X111030000Y-103295000D01*
X111030000Y-104095000D01*
X110230000Y-104095000D01*
G37*
G36*
X111030000Y-104095000D02*
G01*
X111030000Y-103295000D01*
X111830000Y-103295000D01*
X111830000Y-104095000D01*
X111030000Y-104095000D01*
G37*
G36*
X114230000Y-104095000D02*
G01*
X114230000Y-103295000D01*
X115030000Y-103295000D01*
X115030000Y-104095000D01*
X114230000Y-104095000D01*
G37*
G36*
X116630000Y-104095000D02*
G01*
X116630000Y-103295000D01*
X117430000Y-103295000D01*
X117430000Y-104095000D01*
X116630000Y-104095000D01*
G37*
G36*
X119030000Y-104095000D02*
G01*
X119030000Y-103295000D01*
X119830000Y-103295000D01*
X119830000Y-104095000D01*
X119030000Y-104095000D01*
G37*
G36*
X119830000Y-104095000D02*
G01*
X119830000Y-103295000D01*
X120630000Y-103295000D01*
X120630000Y-104095000D01*
X119830000Y-104095000D01*
G37*
G36*
X121430000Y-104095000D02*
G01*
X121430000Y-103295000D01*
X122230000Y-103295000D01*
X122230000Y-104095000D01*
X121430000Y-104095000D01*
G37*
G36*
X122230000Y-104095000D02*
G01*
X122230000Y-103295000D01*
X123030000Y-103295000D01*
X123030000Y-104095000D01*
X122230000Y-104095000D01*
G37*
G36*
X123030000Y-104095000D02*
G01*
X123030000Y-103295000D01*
X123830000Y-103295000D01*
X123830000Y-104095000D01*
X123030000Y-104095000D01*
G37*
G36*
X123830000Y-104095000D02*
G01*
X123830000Y-103295000D01*
X124630000Y-103295000D01*
X124630000Y-104095000D01*
X123830000Y-104095000D01*
G37*
G36*
X124630000Y-104095000D02*
G01*
X124630000Y-103295000D01*
X125430000Y-103295000D01*
X125430000Y-104095000D01*
X124630000Y-104095000D01*
G37*
G36*
X125430000Y-104095000D02*
G01*
X125430000Y-103295000D01*
X126230000Y-103295000D01*
X126230000Y-104095000D01*
X125430000Y-104095000D01*
G37*
G36*
X99830000Y-103295000D02*
G01*
X99830000Y-102495000D01*
X100630000Y-102495000D01*
X100630000Y-103295000D01*
X99830000Y-103295000D01*
G37*
G36*
X103030000Y-103295000D02*
G01*
X103030000Y-102495000D01*
X103830000Y-102495000D01*
X103830000Y-103295000D01*
X103030000Y-103295000D01*
G37*
G36*
X103830000Y-103295000D02*
G01*
X103830000Y-102495000D01*
X104630000Y-102495000D01*
X104630000Y-103295000D01*
X103830000Y-103295000D01*
G37*
G36*
X104630000Y-103295000D02*
G01*
X104630000Y-102495000D01*
X105430000Y-102495000D01*
X105430000Y-103295000D01*
X104630000Y-103295000D01*
G37*
G36*
X105430000Y-103295000D02*
G01*
X105430000Y-102495000D01*
X106230000Y-102495000D01*
X106230000Y-103295000D01*
X105430000Y-103295000D01*
G37*
G36*
X107030000Y-103295000D02*
G01*
X107030000Y-102495000D01*
X107830000Y-102495000D01*
X107830000Y-103295000D01*
X107030000Y-103295000D01*
G37*
G36*
X107830000Y-103295000D02*
G01*
X107830000Y-102495000D01*
X108630000Y-102495000D01*
X108630000Y-103295000D01*
X107830000Y-103295000D01*
G37*
G36*
X110230000Y-103295000D02*
G01*
X110230000Y-102495000D01*
X111030000Y-102495000D01*
X111030000Y-103295000D01*
X110230000Y-103295000D01*
G37*
G36*
X112630000Y-103295000D02*
G01*
X112630000Y-102495000D01*
X113430000Y-102495000D01*
X113430000Y-103295000D01*
X112630000Y-103295000D01*
G37*
G36*
X114230000Y-103295000D02*
G01*
X114230000Y-102495000D01*
X115030000Y-102495000D01*
X115030000Y-103295000D01*
X114230000Y-103295000D01*
G37*
G36*
X115830000Y-103295000D02*
G01*
X115830000Y-102495000D01*
X116630000Y-102495000D01*
X116630000Y-103295000D01*
X115830000Y-103295000D01*
G37*
G36*
X118230000Y-103295000D02*
G01*
X118230000Y-102495000D01*
X119030000Y-102495000D01*
X119030000Y-103295000D01*
X118230000Y-103295000D01*
G37*
G36*
X119030000Y-103295000D02*
G01*
X119030000Y-102495000D01*
X119830000Y-102495000D01*
X119830000Y-103295000D01*
X119030000Y-103295000D01*
G37*
G36*
X119830000Y-103295000D02*
G01*
X119830000Y-102495000D01*
X120630000Y-102495000D01*
X120630000Y-103295000D01*
X119830000Y-103295000D01*
G37*
G36*
X120630000Y-103295000D02*
G01*
X120630000Y-102495000D01*
X121430000Y-102495000D01*
X121430000Y-103295000D01*
X120630000Y-103295000D01*
G37*
G36*
X121430000Y-103295000D02*
G01*
X121430000Y-102495000D01*
X122230000Y-102495000D01*
X122230000Y-103295000D01*
X121430000Y-103295000D01*
G37*
G36*
X123830000Y-103295000D02*
G01*
X123830000Y-102495000D01*
X124630000Y-102495000D01*
X124630000Y-103295000D01*
X123830000Y-103295000D01*
G37*
G36*
X99830000Y-102495000D02*
G01*
X99830000Y-101695000D01*
X100630000Y-101695000D01*
X100630000Y-102495000D01*
X99830000Y-102495000D01*
G37*
G36*
X100630000Y-102495000D02*
G01*
X100630000Y-101695000D01*
X101430000Y-101695000D01*
X101430000Y-102495000D01*
X100630000Y-102495000D01*
G37*
G36*
X103030000Y-102495000D02*
G01*
X103030000Y-101695000D01*
X103830000Y-101695000D01*
X103830000Y-102495000D01*
X103030000Y-102495000D01*
G37*
G36*
X103830000Y-102495000D02*
G01*
X103830000Y-101695000D01*
X104630000Y-101695000D01*
X104630000Y-102495000D01*
X103830000Y-102495000D01*
G37*
G36*
X105430000Y-102495000D02*
G01*
X105430000Y-101695000D01*
X106230000Y-101695000D01*
X106230000Y-102495000D01*
X105430000Y-102495000D01*
G37*
G36*
X106230000Y-102495000D02*
G01*
X106230000Y-101695000D01*
X107030000Y-101695000D01*
X107030000Y-102495000D01*
X106230000Y-102495000D01*
G37*
G36*
X107830000Y-102495000D02*
G01*
X107830000Y-101695000D01*
X108630000Y-101695000D01*
X108630000Y-102495000D01*
X107830000Y-102495000D01*
G37*
G36*
X109430000Y-102495000D02*
G01*
X109430000Y-101695000D01*
X110230000Y-101695000D01*
X110230000Y-102495000D01*
X109430000Y-102495000D01*
G37*
G36*
X113430000Y-102495000D02*
G01*
X113430000Y-101695000D01*
X114230000Y-101695000D01*
X114230000Y-102495000D01*
X113430000Y-102495000D01*
G37*
G36*
X115030000Y-102495000D02*
G01*
X115030000Y-101695000D01*
X115830000Y-101695000D01*
X115830000Y-102495000D01*
X115030000Y-102495000D01*
G37*
G36*
X119030000Y-102495000D02*
G01*
X119030000Y-101695000D01*
X119830000Y-101695000D01*
X119830000Y-102495000D01*
X119030000Y-102495000D01*
G37*
G36*
X119830000Y-102495000D02*
G01*
X119830000Y-101695000D01*
X120630000Y-101695000D01*
X120630000Y-102495000D01*
X119830000Y-102495000D01*
G37*
G36*
X121430000Y-102495000D02*
G01*
X121430000Y-101695000D01*
X122230000Y-101695000D01*
X122230000Y-102495000D01*
X121430000Y-102495000D01*
G37*
G36*
X122230000Y-102495000D02*
G01*
X122230000Y-101695000D01*
X123030000Y-101695000D01*
X123030000Y-102495000D01*
X122230000Y-102495000D01*
G37*
G36*
X123830000Y-102495000D02*
G01*
X123830000Y-101695000D01*
X124630000Y-101695000D01*
X124630000Y-102495000D01*
X123830000Y-102495000D01*
G37*
G36*
X100630000Y-101695000D02*
G01*
X100630000Y-100895000D01*
X101430000Y-100895000D01*
X101430000Y-101695000D01*
X100630000Y-101695000D01*
G37*
G36*
X102230000Y-101695000D02*
G01*
X102230000Y-100895000D01*
X103030000Y-100895000D01*
X103030000Y-101695000D01*
X102230000Y-101695000D01*
G37*
G36*
X103830000Y-101695000D02*
G01*
X103830000Y-100895000D01*
X104630000Y-100895000D01*
X104630000Y-101695000D01*
X103830000Y-101695000D01*
G37*
G36*
X106230000Y-101695000D02*
G01*
X106230000Y-100895000D01*
X107030000Y-100895000D01*
X107030000Y-101695000D01*
X106230000Y-101695000D01*
G37*
G36*
X107030000Y-101695000D02*
G01*
X107030000Y-100895000D01*
X107830000Y-100895000D01*
X107830000Y-101695000D01*
X107030000Y-101695000D01*
G37*
G36*
X111030000Y-101695000D02*
G01*
X111030000Y-100895000D01*
X111830000Y-100895000D01*
X111830000Y-101695000D01*
X111030000Y-101695000D01*
G37*
G36*
X113430000Y-101695000D02*
G01*
X113430000Y-100895000D01*
X114230000Y-100895000D01*
X114230000Y-101695000D01*
X113430000Y-101695000D01*
G37*
G36*
X114230000Y-101695000D02*
G01*
X114230000Y-100895000D01*
X115030000Y-100895000D01*
X115030000Y-101695000D01*
X114230000Y-101695000D01*
G37*
G36*
X115030000Y-101695000D02*
G01*
X115030000Y-100895000D01*
X115830000Y-100895000D01*
X115830000Y-101695000D01*
X115030000Y-101695000D01*
G37*
G36*
X115830000Y-101695000D02*
G01*
X115830000Y-100895000D01*
X116630000Y-100895000D01*
X116630000Y-101695000D01*
X115830000Y-101695000D01*
G37*
G36*
X118230000Y-101695000D02*
G01*
X118230000Y-100895000D01*
X119030000Y-100895000D01*
X119030000Y-101695000D01*
X118230000Y-101695000D01*
G37*
G36*
X120630000Y-101695000D02*
G01*
X120630000Y-100895000D01*
X121430000Y-100895000D01*
X121430000Y-101695000D01*
X120630000Y-101695000D01*
G37*
G36*
X122230000Y-101695000D02*
G01*
X122230000Y-100895000D01*
X123030000Y-100895000D01*
X123030000Y-101695000D01*
X122230000Y-101695000D01*
G37*
G36*
X124630000Y-101695000D02*
G01*
X124630000Y-100895000D01*
X125430000Y-100895000D01*
X125430000Y-101695000D01*
X124630000Y-101695000D01*
G37*
G36*
X100630000Y-100895000D02*
G01*
X100630000Y-100095000D01*
X101430000Y-100095000D01*
X101430000Y-100895000D01*
X100630000Y-100895000D01*
G37*
G36*
X101430000Y-100895000D02*
G01*
X101430000Y-100095000D01*
X102230000Y-100095000D01*
X102230000Y-100895000D01*
X101430000Y-100895000D01*
G37*
G36*
X102230000Y-100895000D02*
G01*
X102230000Y-100095000D01*
X103030000Y-100095000D01*
X103030000Y-100895000D01*
X102230000Y-100895000D01*
G37*
G36*
X105430000Y-100895000D02*
G01*
X105430000Y-100095000D01*
X106230000Y-100095000D01*
X106230000Y-100895000D01*
X105430000Y-100895000D01*
G37*
G36*
X107030000Y-100895000D02*
G01*
X107030000Y-100095000D01*
X107830000Y-100095000D01*
X107830000Y-100895000D01*
X107030000Y-100895000D01*
G37*
G36*
X108630000Y-100895000D02*
G01*
X108630000Y-100095000D01*
X109430000Y-100095000D01*
X109430000Y-100895000D01*
X108630000Y-100895000D01*
G37*
G36*
X111030000Y-100895000D02*
G01*
X111030000Y-100095000D01*
X111830000Y-100095000D01*
X111830000Y-100895000D01*
X111030000Y-100895000D01*
G37*
G36*
X111830000Y-100895000D02*
G01*
X111830000Y-100095000D01*
X112630000Y-100095000D01*
X112630000Y-100895000D01*
X111830000Y-100895000D01*
G37*
G36*
X113430000Y-100895000D02*
G01*
X113430000Y-100095000D01*
X114230000Y-100095000D01*
X114230000Y-100895000D01*
X113430000Y-100895000D01*
G37*
G36*
X114230000Y-100895000D02*
G01*
X114230000Y-100095000D01*
X115030000Y-100095000D01*
X115030000Y-100895000D01*
X114230000Y-100895000D01*
G37*
G36*
X116630000Y-100895000D02*
G01*
X116630000Y-100095000D01*
X117430000Y-100095000D01*
X117430000Y-100895000D01*
X116630000Y-100895000D01*
G37*
G36*
X119030000Y-100895000D02*
G01*
X119030000Y-100095000D01*
X119830000Y-100095000D01*
X119830000Y-100895000D01*
X119030000Y-100895000D01*
G37*
G36*
X119830000Y-100895000D02*
G01*
X119830000Y-100095000D01*
X120630000Y-100095000D01*
X120630000Y-100895000D01*
X119830000Y-100895000D01*
G37*
G36*
X122230000Y-100895000D02*
G01*
X122230000Y-100095000D01*
X123030000Y-100095000D01*
X123030000Y-100895000D01*
X122230000Y-100895000D01*
G37*
G36*
X123030000Y-100895000D02*
G01*
X123030000Y-100095000D01*
X123830000Y-100095000D01*
X123830000Y-100895000D01*
X123030000Y-100895000D01*
G37*
G36*
X99830000Y-100095000D02*
G01*
X99830000Y-99295000D01*
X100630000Y-99295000D01*
X100630000Y-100095000D01*
X99830000Y-100095000D01*
G37*
G36*
X103030000Y-100095000D02*
G01*
X103030000Y-99295000D01*
X103830000Y-99295000D01*
X103830000Y-100095000D01*
X103030000Y-100095000D01*
G37*
G36*
X104630000Y-100095000D02*
G01*
X104630000Y-99295000D01*
X105430000Y-99295000D01*
X105430000Y-100095000D01*
X104630000Y-100095000D01*
G37*
G36*
X106230000Y-100095000D02*
G01*
X106230000Y-99295000D01*
X107030000Y-99295000D01*
X107030000Y-100095000D01*
X106230000Y-100095000D01*
G37*
G36*
X107030000Y-100095000D02*
G01*
X107030000Y-99295000D01*
X107830000Y-99295000D01*
X107830000Y-100095000D01*
X107030000Y-100095000D01*
G37*
G36*
X107830000Y-100095000D02*
G01*
X107830000Y-99295000D01*
X108630000Y-99295000D01*
X108630000Y-100095000D01*
X107830000Y-100095000D01*
G37*
G36*
X108630000Y-100095000D02*
G01*
X108630000Y-99295000D01*
X109430000Y-99295000D01*
X109430000Y-100095000D01*
X108630000Y-100095000D01*
G37*
G36*
X109430000Y-100095000D02*
G01*
X109430000Y-99295000D01*
X110230000Y-99295000D01*
X110230000Y-100095000D01*
X109430000Y-100095000D01*
G37*
G36*
X111830000Y-100095000D02*
G01*
X111830000Y-99295000D01*
X112630000Y-99295000D01*
X112630000Y-100095000D01*
X111830000Y-100095000D01*
G37*
G36*
X113430000Y-100095000D02*
G01*
X113430000Y-99295000D01*
X114230000Y-99295000D01*
X114230000Y-100095000D01*
X113430000Y-100095000D01*
G37*
G36*
X114230000Y-100095000D02*
G01*
X114230000Y-99295000D01*
X115030000Y-99295000D01*
X115030000Y-100095000D01*
X114230000Y-100095000D01*
G37*
G36*
X115830000Y-100095000D02*
G01*
X115830000Y-99295000D01*
X116630000Y-99295000D01*
X116630000Y-100095000D01*
X115830000Y-100095000D01*
G37*
G36*
X116630000Y-100095000D02*
G01*
X116630000Y-99295000D01*
X117430000Y-99295000D01*
X117430000Y-100095000D01*
X116630000Y-100095000D01*
G37*
G36*
X117430000Y-100095000D02*
G01*
X117430000Y-99295000D01*
X118230000Y-99295000D01*
X118230000Y-100095000D01*
X117430000Y-100095000D01*
G37*
G36*
X118230000Y-100095000D02*
G01*
X118230000Y-99295000D01*
X119030000Y-99295000D01*
X119030000Y-100095000D01*
X118230000Y-100095000D01*
G37*
G36*
X119830000Y-100095000D02*
G01*
X119830000Y-99295000D01*
X120630000Y-99295000D01*
X120630000Y-100095000D01*
X119830000Y-100095000D01*
G37*
G36*
X120630000Y-100095000D02*
G01*
X120630000Y-99295000D01*
X121430000Y-99295000D01*
X121430000Y-100095000D01*
X120630000Y-100095000D01*
G37*
G36*
X121430000Y-100095000D02*
G01*
X121430000Y-99295000D01*
X122230000Y-99295000D01*
X122230000Y-100095000D01*
X121430000Y-100095000D01*
G37*
G36*
X124630000Y-100095000D02*
G01*
X124630000Y-99295000D01*
X125430000Y-99295000D01*
X125430000Y-100095000D01*
X124630000Y-100095000D01*
G37*
G36*
X125430000Y-100095000D02*
G01*
X125430000Y-99295000D01*
X126230000Y-99295000D01*
X126230000Y-100095000D01*
X125430000Y-100095000D01*
G37*
G36*
X99830000Y-99295000D02*
G01*
X99830000Y-98495000D01*
X100630000Y-98495000D01*
X100630000Y-99295000D01*
X99830000Y-99295000D01*
G37*
G36*
X100630000Y-99295000D02*
G01*
X100630000Y-98495000D01*
X101430000Y-98495000D01*
X101430000Y-99295000D01*
X100630000Y-99295000D01*
G37*
G36*
X103030000Y-99295000D02*
G01*
X103030000Y-98495000D01*
X103830000Y-98495000D01*
X103830000Y-99295000D01*
X103030000Y-99295000D01*
G37*
G36*
X103830000Y-99295000D02*
G01*
X103830000Y-98495000D01*
X104630000Y-98495000D01*
X104630000Y-99295000D01*
X103830000Y-99295000D01*
G37*
G36*
X104630000Y-99295000D02*
G01*
X104630000Y-98495000D01*
X105430000Y-98495000D01*
X105430000Y-99295000D01*
X104630000Y-99295000D01*
G37*
G36*
X105430000Y-99295000D02*
G01*
X105430000Y-98495000D01*
X106230000Y-98495000D01*
X106230000Y-99295000D01*
X105430000Y-99295000D01*
G37*
G36*
X106230000Y-99295000D02*
G01*
X106230000Y-98495000D01*
X107030000Y-98495000D01*
X107030000Y-99295000D01*
X106230000Y-99295000D01*
G37*
G36*
X108630000Y-99295000D02*
G01*
X108630000Y-98495000D01*
X109430000Y-98495000D01*
X109430000Y-99295000D01*
X108630000Y-99295000D01*
G37*
G36*
X109430000Y-99295000D02*
G01*
X109430000Y-98495000D01*
X110230000Y-98495000D01*
X110230000Y-99295000D01*
X109430000Y-99295000D01*
G37*
G36*
X110230000Y-99295000D02*
G01*
X110230000Y-98495000D01*
X111030000Y-98495000D01*
X111030000Y-99295000D01*
X110230000Y-99295000D01*
G37*
G36*
X111030000Y-99295000D02*
G01*
X111030000Y-98495000D01*
X111830000Y-98495000D01*
X111830000Y-99295000D01*
X111030000Y-99295000D01*
G37*
G36*
X111830000Y-99295000D02*
G01*
X111830000Y-98495000D01*
X112630000Y-98495000D01*
X112630000Y-99295000D01*
X111830000Y-99295000D01*
G37*
G36*
X114230000Y-99295000D02*
G01*
X114230000Y-98495000D01*
X115030000Y-98495000D01*
X115030000Y-99295000D01*
X114230000Y-99295000D01*
G37*
G36*
X115030000Y-99295000D02*
G01*
X115030000Y-98495000D01*
X115830000Y-98495000D01*
X115830000Y-99295000D01*
X115030000Y-99295000D01*
G37*
G36*
X115830000Y-99295000D02*
G01*
X115830000Y-98495000D01*
X116630000Y-98495000D01*
X116630000Y-99295000D01*
X115830000Y-99295000D01*
G37*
G36*
X119830000Y-99295000D02*
G01*
X119830000Y-98495000D01*
X120630000Y-98495000D01*
X120630000Y-99295000D01*
X119830000Y-99295000D01*
G37*
G36*
X122230000Y-99295000D02*
G01*
X122230000Y-98495000D01*
X123030000Y-98495000D01*
X123030000Y-99295000D01*
X122230000Y-99295000D01*
G37*
G36*
X123830000Y-99295000D02*
G01*
X123830000Y-98495000D01*
X124630000Y-98495000D01*
X124630000Y-99295000D01*
X123830000Y-99295000D01*
G37*
G36*
X100630000Y-98495000D02*
G01*
X100630000Y-97695000D01*
X101430000Y-97695000D01*
X101430000Y-98495000D01*
X100630000Y-98495000D01*
G37*
G36*
X102230000Y-98495000D02*
G01*
X102230000Y-97695000D01*
X103030000Y-97695000D01*
X103030000Y-98495000D01*
X102230000Y-98495000D01*
G37*
G36*
X103830000Y-98495000D02*
G01*
X103830000Y-97695000D01*
X104630000Y-97695000D01*
X104630000Y-98495000D01*
X103830000Y-98495000D01*
G37*
G36*
X108630000Y-98495000D02*
G01*
X108630000Y-97695000D01*
X109430000Y-97695000D01*
X109430000Y-98495000D01*
X108630000Y-98495000D01*
G37*
G36*
X110230000Y-98495000D02*
G01*
X110230000Y-97695000D01*
X111030000Y-97695000D01*
X111030000Y-98495000D01*
X110230000Y-98495000D01*
G37*
G36*
X111030000Y-98495000D02*
G01*
X111030000Y-97695000D01*
X111830000Y-97695000D01*
X111830000Y-98495000D01*
X111030000Y-98495000D01*
G37*
G36*
X111830000Y-98495000D02*
G01*
X111830000Y-97695000D01*
X112630000Y-97695000D01*
X112630000Y-98495000D01*
X111830000Y-98495000D01*
G37*
G36*
X112630000Y-98495000D02*
G01*
X112630000Y-97695000D01*
X113430000Y-97695000D01*
X113430000Y-98495000D01*
X112630000Y-98495000D01*
G37*
G36*
X114230000Y-98495000D02*
G01*
X114230000Y-97695000D01*
X115030000Y-97695000D01*
X115030000Y-98495000D01*
X114230000Y-98495000D01*
G37*
G36*
X118230000Y-98495000D02*
G01*
X118230000Y-97695000D01*
X119030000Y-97695000D01*
X119030000Y-98495000D01*
X118230000Y-98495000D01*
G37*
G36*
X119030000Y-98495000D02*
G01*
X119030000Y-97695000D01*
X119830000Y-97695000D01*
X119830000Y-98495000D01*
X119030000Y-98495000D01*
G37*
G36*
X120630000Y-98495000D02*
G01*
X120630000Y-97695000D01*
X121430000Y-97695000D01*
X121430000Y-98495000D01*
X120630000Y-98495000D01*
G37*
G36*
X122230000Y-98495000D02*
G01*
X122230000Y-97695000D01*
X123030000Y-97695000D01*
X123030000Y-98495000D01*
X122230000Y-98495000D01*
G37*
G36*
X100630000Y-97695000D02*
G01*
X100630000Y-96895000D01*
X101430000Y-96895000D01*
X101430000Y-97695000D01*
X100630000Y-97695000D01*
G37*
G36*
X101430000Y-97695000D02*
G01*
X101430000Y-96895000D01*
X102230000Y-96895000D01*
X102230000Y-97695000D01*
X101430000Y-97695000D01*
G37*
G36*
X102230000Y-97695000D02*
G01*
X102230000Y-96895000D01*
X103030000Y-96895000D01*
X103030000Y-97695000D01*
X102230000Y-97695000D01*
G37*
G36*
X104630000Y-97695000D02*
G01*
X104630000Y-96895000D01*
X105430000Y-96895000D01*
X105430000Y-97695000D01*
X104630000Y-97695000D01*
G37*
G36*
X105430000Y-97695000D02*
G01*
X105430000Y-96895000D01*
X106230000Y-96895000D01*
X106230000Y-97695000D01*
X105430000Y-97695000D01*
G37*
G36*
X107830000Y-97695000D02*
G01*
X107830000Y-96895000D01*
X108630000Y-96895000D01*
X108630000Y-97695000D01*
X107830000Y-97695000D01*
G37*
G36*
X110230000Y-97695000D02*
G01*
X110230000Y-96895000D01*
X111030000Y-96895000D01*
X111030000Y-97695000D01*
X110230000Y-97695000D01*
G37*
G36*
X111830000Y-97695000D02*
G01*
X111830000Y-96895000D01*
X112630000Y-96895000D01*
X112630000Y-97695000D01*
X111830000Y-97695000D01*
G37*
G36*
X112630000Y-97695000D02*
G01*
X112630000Y-96895000D01*
X113430000Y-96895000D01*
X113430000Y-97695000D01*
X112630000Y-97695000D01*
G37*
G36*
X115030000Y-97695000D02*
G01*
X115030000Y-96895000D01*
X115830000Y-96895000D01*
X115830000Y-97695000D01*
X115030000Y-97695000D01*
G37*
G36*
X118230000Y-97695000D02*
G01*
X118230000Y-96895000D01*
X119030000Y-96895000D01*
X119030000Y-97695000D01*
X118230000Y-97695000D01*
G37*
G36*
X119030000Y-97695000D02*
G01*
X119030000Y-96895000D01*
X119830000Y-96895000D01*
X119830000Y-97695000D01*
X119030000Y-97695000D01*
G37*
G36*
X124630000Y-97695000D02*
G01*
X124630000Y-96895000D01*
X125430000Y-96895000D01*
X125430000Y-97695000D01*
X124630000Y-97695000D01*
G37*
G36*
X125430000Y-97695000D02*
G01*
X125430000Y-96895000D01*
X126230000Y-96895000D01*
X126230000Y-97695000D01*
X125430000Y-97695000D01*
G37*
G36*
X100630000Y-96895000D02*
G01*
X100630000Y-96095000D01*
X101430000Y-96095000D01*
X101430000Y-96895000D01*
X100630000Y-96895000D01*
G37*
G36*
X102230000Y-96895000D02*
G01*
X102230000Y-96095000D01*
X103030000Y-96095000D01*
X103030000Y-96895000D01*
X102230000Y-96895000D01*
G37*
G36*
X106230000Y-96895000D02*
G01*
X106230000Y-96095000D01*
X107030000Y-96095000D01*
X107030000Y-96895000D01*
X106230000Y-96895000D01*
G37*
G36*
X107030000Y-96895000D02*
G01*
X107030000Y-96095000D01*
X107830000Y-96095000D01*
X107830000Y-96895000D01*
X107030000Y-96895000D01*
G37*
G36*
X109430000Y-96895000D02*
G01*
X109430000Y-96095000D01*
X110230000Y-96095000D01*
X110230000Y-96895000D01*
X109430000Y-96895000D01*
G37*
G36*
X111030000Y-96895000D02*
G01*
X111030000Y-96095000D01*
X111830000Y-96095000D01*
X111830000Y-96895000D01*
X111030000Y-96895000D01*
G37*
G36*
X113430000Y-96895000D02*
G01*
X113430000Y-96095000D01*
X114230000Y-96095000D01*
X114230000Y-96895000D01*
X113430000Y-96895000D01*
G37*
G36*
X114230000Y-96895000D02*
G01*
X114230000Y-96095000D01*
X115030000Y-96095000D01*
X115030000Y-96895000D01*
X114230000Y-96895000D01*
G37*
G36*
X115030000Y-96895000D02*
G01*
X115030000Y-96095000D01*
X115830000Y-96095000D01*
X115830000Y-96895000D01*
X115030000Y-96895000D01*
G37*
G36*
X115830000Y-96895000D02*
G01*
X115830000Y-96095000D01*
X116630000Y-96095000D01*
X116630000Y-96895000D01*
X115830000Y-96895000D01*
G37*
G36*
X117430000Y-96895000D02*
G01*
X117430000Y-96095000D01*
X118230000Y-96095000D01*
X118230000Y-96895000D01*
X117430000Y-96895000D01*
G37*
G36*
X119830000Y-96895000D02*
G01*
X119830000Y-96095000D01*
X120630000Y-96095000D01*
X120630000Y-96895000D01*
X119830000Y-96895000D01*
G37*
G36*
X120630000Y-96895000D02*
G01*
X120630000Y-96095000D01*
X121430000Y-96095000D01*
X121430000Y-96895000D01*
X120630000Y-96895000D01*
G37*
G36*
X122230000Y-96895000D02*
G01*
X122230000Y-96095000D01*
X123030000Y-96095000D01*
X123030000Y-96895000D01*
X122230000Y-96895000D01*
G37*
G36*
X123830000Y-96895000D02*
G01*
X123830000Y-96095000D01*
X124630000Y-96095000D01*
X124630000Y-96895000D01*
X123830000Y-96895000D01*
G37*
G36*
X124630000Y-96895000D02*
G01*
X124630000Y-96095000D01*
X125430000Y-96095000D01*
X125430000Y-96895000D01*
X124630000Y-96895000D01*
G37*
G36*
X125430000Y-96895000D02*
G01*
X125430000Y-96095000D01*
X126230000Y-96095000D01*
X126230000Y-96895000D01*
X125430000Y-96895000D01*
G37*
G36*
X100630000Y-96095000D02*
G01*
X100630000Y-95295000D01*
X101430000Y-95295000D01*
X101430000Y-96095000D01*
X100630000Y-96095000D01*
G37*
G36*
X104630000Y-96095000D02*
G01*
X104630000Y-95295000D01*
X105430000Y-95295000D01*
X105430000Y-96095000D01*
X104630000Y-96095000D01*
G37*
G36*
X106230000Y-96095000D02*
G01*
X106230000Y-95295000D01*
X107030000Y-95295000D01*
X107030000Y-96095000D01*
X106230000Y-96095000D01*
G37*
G36*
X107030000Y-96095000D02*
G01*
X107030000Y-95295000D01*
X107830000Y-95295000D01*
X107830000Y-96095000D01*
X107030000Y-96095000D01*
G37*
G36*
X108630000Y-96095000D02*
G01*
X108630000Y-95295000D01*
X109430000Y-95295000D01*
X109430000Y-96095000D01*
X108630000Y-96095000D01*
G37*
G36*
X109430000Y-96095000D02*
G01*
X109430000Y-95295000D01*
X110230000Y-95295000D01*
X110230000Y-96095000D01*
X109430000Y-96095000D01*
G37*
G36*
X110230000Y-96095000D02*
G01*
X110230000Y-95295000D01*
X111030000Y-95295000D01*
X111030000Y-96095000D01*
X110230000Y-96095000D01*
G37*
G36*
X111030000Y-96095000D02*
G01*
X111030000Y-95295000D01*
X111830000Y-95295000D01*
X111830000Y-96095000D01*
X111030000Y-96095000D01*
G37*
G36*
X111830000Y-96095000D02*
G01*
X111830000Y-95295000D01*
X112630000Y-95295000D01*
X112630000Y-96095000D01*
X111830000Y-96095000D01*
G37*
G36*
X114230000Y-96095000D02*
G01*
X114230000Y-95295000D01*
X115030000Y-95295000D01*
X115030000Y-96095000D01*
X114230000Y-96095000D01*
G37*
G36*
X115830000Y-96095000D02*
G01*
X115830000Y-95295000D01*
X116630000Y-95295000D01*
X116630000Y-96095000D01*
X115830000Y-96095000D01*
G37*
G36*
X117430000Y-96095000D02*
G01*
X117430000Y-95295000D01*
X118230000Y-95295000D01*
X118230000Y-96095000D01*
X117430000Y-96095000D01*
G37*
G36*
X119030000Y-96095000D02*
G01*
X119030000Y-95295000D01*
X119830000Y-95295000D01*
X119830000Y-96095000D01*
X119030000Y-96095000D01*
G37*
G36*
X119830000Y-96095000D02*
G01*
X119830000Y-95295000D01*
X120630000Y-95295000D01*
X120630000Y-96095000D01*
X119830000Y-96095000D01*
G37*
G36*
X123030000Y-96095000D02*
G01*
X123030000Y-95295000D01*
X123830000Y-95295000D01*
X123830000Y-96095000D01*
X123030000Y-96095000D01*
G37*
G36*
X100630000Y-95295000D02*
G01*
X100630000Y-94495000D01*
X101430000Y-94495000D01*
X101430000Y-95295000D01*
X100630000Y-95295000D01*
G37*
G36*
X103830000Y-95295000D02*
G01*
X103830000Y-94495000D01*
X104630000Y-94495000D01*
X104630000Y-95295000D01*
X103830000Y-95295000D01*
G37*
G36*
X104630000Y-95295000D02*
G01*
X104630000Y-94495000D01*
X105430000Y-94495000D01*
X105430000Y-95295000D01*
X104630000Y-95295000D01*
G37*
G36*
X105430000Y-95295000D02*
G01*
X105430000Y-94495000D01*
X106230000Y-94495000D01*
X106230000Y-95295000D01*
X105430000Y-95295000D01*
G37*
G36*
X106230000Y-95295000D02*
G01*
X106230000Y-94495000D01*
X107030000Y-94495000D01*
X107030000Y-95295000D01*
X106230000Y-95295000D01*
G37*
G36*
X107030000Y-95295000D02*
G01*
X107030000Y-94495000D01*
X107830000Y-94495000D01*
X107830000Y-95295000D01*
X107030000Y-95295000D01*
G37*
G36*
X107830000Y-95295000D02*
G01*
X107830000Y-94495000D01*
X108630000Y-94495000D01*
X108630000Y-95295000D01*
X107830000Y-95295000D01*
G37*
G36*
X108630000Y-95295000D02*
G01*
X108630000Y-94495000D01*
X109430000Y-94495000D01*
X109430000Y-95295000D01*
X108630000Y-95295000D01*
G37*
G36*
X109430000Y-95295000D02*
G01*
X109430000Y-94495000D01*
X110230000Y-94495000D01*
X110230000Y-95295000D01*
X109430000Y-95295000D01*
G37*
G36*
X111830000Y-95295000D02*
G01*
X111830000Y-94495000D01*
X112630000Y-94495000D01*
X112630000Y-95295000D01*
X111830000Y-95295000D01*
G37*
G36*
X113430000Y-95295000D02*
G01*
X113430000Y-94495000D01*
X114230000Y-94495000D01*
X114230000Y-95295000D01*
X113430000Y-95295000D01*
G37*
G36*
X115830000Y-95295000D02*
G01*
X115830000Y-94495000D01*
X116630000Y-94495000D01*
X116630000Y-95295000D01*
X115830000Y-95295000D01*
G37*
G36*
X117430000Y-95295000D02*
G01*
X117430000Y-94495000D01*
X118230000Y-94495000D01*
X118230000Y-95295000D01*
X117430000Y-95295000D01*
G37*
G36*
X119030000Y-95295000D02*
G01*
X119030000Y-94495000D01*
X119830000Y-94495000D01*
X119830000Y-95295000D01*
X119030000Y-95295000D01*
G37*
G36*
X120630000Y-95295000D02*
G01*
X120630000Y-94495000D01*
X121430000Y-94495000D01*
X121430000Y-95295000D01*
X120630000Y-95295000D01*
G37*
G36*
X121430000Y-95295000D02*
G01*
X121430000Y-94495000D01*
X122230000Y-94495000D01*
X122230000Y-95295000D01*
X121430000Y-95295000D01*
G37*
G36*
X122230000Y-95295000D02*
G01*
X122230000Y-94495000D01*
X123030000Y-94495000D01*
X123030000Y-95295000D01*
X122230000Y-95295000D01*
G37*
G36*
X123030000Y-95295000D02*
G01*
X123030000Y-94495000D01*
X123830000Y-94495000D01*
X123830000Y-95295000D01*
X123030000Y-95295000D01*
G37*
G36*
X124630000Y-95295000D02*
G01*
X124630000Y-94495000D01*
X125430000Y-94495000D01*
X125430000Y-95295000D01*
X124630000Y-95295000D01*
G37*
G36*
X103830000Y-94495000D02*
G01*
X103830000Y-93695000D01*
X104630000Y-93695000D01*
X104630000Y-94495000D01*
X103830000Y-94495000D01*
G37*
G36*
X105430000Y-94495000D02*
G01*
X105430000Y-93695000D01*
X106230000Y-93695000D01*
X106230000Y-94495000D01*
X105430000Y-94495000D01*
G37*
G36*
X107030000Y-94495000D02*
G01*
X107030000Y-93695000D01*
X107830000Y-93695000D01*
X107830000Y-94495000D01*
X107030000Y-94495000D01*
G37*
G36*
X107830000Y-94495000D02*
G01*
X107830000Y-93695000D01*
X108630000Y-93695000D01*
X108630000Y-94495000D01*
X107830000Y-94495000D01*
G37*
G36*
X111030000Y-94495000D02*
G01*
X111030000Y-93695000D01*
X111830000Y-93695000D01*
X111830000Y-94495000D01*
X111030000Y-94495000D01*
G37*
G36*
X112630000Y-94495000D02*
G01*
X112630000Y-93695000D01*
X113430000Y-93695000D01*
X113430000Y-94495000D01*
X112630000Y-94495000D01*
G37*
G36*
X115030000Y-94495000D02*
G01*
X115030000Y-93695000D01*
X115830000Y-93695000D01*
X115830000Y-94495000D01*
X115030000Y-94495000D01*
G37*
G36*
X115830000Y-94495000D02*
G01*
X115830000Y-93695000D01*
X116630000Y-93695000D01*
X116630000Y-94495000D01*
X115830000Y-94495000D01*
G37*
G36*
X121430000Y-94495000D02*
G01*
X121430000Y-93695000D01*
X122230000Y-93695000D01*
X122230000Y-94495000D01*
X121430000Y-94495000D01*
G37*
G36*
X122230000Y-94495000D02*
G01*
X122230000Y-93695000D01*
X123030000Y-93695000D01*
X123030000Y-94495000D01*
X122230000Y-94495000D01*
G37*
G36*
X123030000Y-94495000D02*
G01*
X123030000Y-93695000D01*
X123830000Y-93695000D01*
X123830000Y-94495000D01*
X123030000Y-94495000D01*
G37*
G36*
X124630000Y-94495000D02*
G01*
X124630000Y-93695000D01*
X125430000Y-93695000D01*
X125430000Y-94495000D01*
X124630000Y-94495000D01*
G37*
G36*
X99830000Y-93695000D02*
G01*
X99830000Y-92895000D01*
X100630000Y-92895000D01*
X100630000Y-93695000D01*
X99830000Y-93695000D01*
G37*
G36*
X102230000Y-93695000D02*
G01*
X102230000Y-92895000D01*
X103030000Y-92895000D01*
X103030000Y-93695000D01*
X102230000Y-93695000D01*
G37*
G36*
X103030000Y-93695000D02*
G01*
X103030000Y-92895000D01*
X103830000Y-92895000D01*
X103830000Y-93695000D01*
X103030000Y-93695000D01*
G37*
G36*
X103830000Y-93695000D02*
G01*
X103830000Y-92895000D01*
X104630000Y-92895000D01*
X104630000Y-93695000D01*
X103830000Y-93695000D01*
G37*
G36*
X104630000Y-93695000D02*
G01*
X104630000Y-92895000D01*
X105430000Y-92895000D01*
X105430000Y-93695000D01*
X104630000Y-93695000D01*
G37*
G36*
X105430000Y-93695000D02*
G01*
X105430000Y-92895000D01*
X106230000Y-92895000D01*
X106230000Y-93695000D01*
X105430000Y-93695000D01*
G37*
G36*
X106230000Y-93695000D02*
G01*
X106230000Y-92895000D01*
X107030000Y-92895000D01*
X107030000Y-93695000D01*
X106230000Y-93695000D01*
G37*
G36*
X107830000Y-93695000D02*
G01*
X107830000Y-92895000D01*
X108630000Y-92895000D01*
X108630000Y-93695000D01*
X107830000Y-93695000D01*
G37*
G36*
X108630000Y-93695000D02*
G01*
X108630000Y-92895000D01*
X109430000Y-92895000D01*
X109430000Y-93695000D01*
X108630000Y-93695000D01*
G37*
G36*
X110230000Y-93695000D02*
G01*
X110230000Y-92895000D01*
X111030000Y-92895000D01*
X111030000Y-93695000D01*
X110230000Y-93695000D01*
G37*
G36*
X111030000Y-93695000D02*
G01*
X111030000Y-92895000D01*
X111830000Y-92895000D01*
X111830000Y-93695000D01*
X111030000Y-93695000D01*
G37*
G36*
X111830000Y-93695000D02*
G01*
X111830000Y-92895000D01*
X112630000Y-92895000D01*
X112630000Y-93695000D01*
X111830000Y-93695000D01*
G37*
G36*
X115030000Y-93695000D02*
G01*
X115030000Y-92895000D01*
X115830000Y-92895000D01*
X115830000Y-93695000D01*
X115030000Y-93695000D01*
G37*
G36*
X119030000Y-93695000D02*
G01*
X119030000Y-92895000D01*
X119830000Y-92895000D01*
X119830000Y-93695000D01*
X119030000Y-93695000D01*
G37*
G36*
X119830000Y-93695000D02*
G01*
X119830000Y-92895000D01*
X120630000Y-92895000D01*
X120630000Y-93695000D01*
X119830000Y-93695000D01*
G37*
G36*
X120630000Y-93695000D02*
G01*
X120630000Y-92895000D01*
X121430000Y-92895000D01*
X121430000Y-93695000D01*
X120630000Y-93695000D01*
G37*
G36*
X122230000Y-93695000D02*
G01*
X122230000Y-92895000D01*
X123030000Y-92895000D01*
X123030000Y-93695000D01*
X122230000Y-93695000D01*
G37*
G36*
X125430000Y-93695000D02*
G01*
X125430000Y-92895000D01*
X126230000Y-92895000D01*
X126230000Y-93695000D01*
X125430000Y-93695000D01*
G37*
G36*
X107030000Y-92895000D02*
G01*
X107030000Y-92095000D01*
X107830000Y-92095000D01*
X107830000Y-92895000D01*
X107030000Y-92895000D01*
G37*
G36*
X107830000Y-92895000D02*
G01*
X107830000Y-92095000D01*
X108630000Y-92095000D01*
X108630000Y-92895000D01*
X107830000Y-92895000D01*
G37*
G36*
X108630000Y-92895000D02*
G01*
X108630000Y-92095000D01*
X109430000Y-92095000D01*
X109430000Y-92895000D01*
X108630000Y-92895000D01*
G37*
G36*
X111030000Y-92895000D02*
G01*
X111030000Y-92095000D01*
X111830000Y-92095000D01*
X111830000Y-92895000D01*
X111030000Y-92895000D01*
G37*
G36*
X111830000Y-92895000D02*
G01*
X111830000Y-92095000D01*
X112630000Y-92095000D01*
X112630000Y-92895000D01*
X111830000Y-92895000D01*
G37*
G36*
X112630000Y-92895000D02*
G01*
X112630000Y-92095000D01*
X113430000Y-92095000D01*
X113430000Y-92895000D01*
X112630000Y-92895000D01*
G37*
G36*
X113430000Y-92895000D02*
G01*
X113430000Y-92095000D01*
X114230000Y-92095000D01*
X114230000Y-92895000D01*
X113430000Y-92895000D01*
G37*
G36*
X116630000Y-92895000D02*
G01*
X116630000Y-92095000D01*
X117430000Y-92095000D01*
X117430000Y-92895000D01*
X116630000Y-92895000D01*
G37*
G36*
X118230000Y-92895000D02*
G01*
X118230000Y-92095000D01*
X119030000Y-92095000D01*
X119030000Y-92895000D01*
X118230000Y-92895000D01*
G37*
G36*
X119030000Y-92895000D02*
G01*
X119030000Y-92095000D01*
X119830000Y-92095000D01*
X119830000Y-92895000D01*
X119030000Y-92895000D01*
G37*
G36*
X99830000Y-92095000D02*
G01*
X99830000Y-91295000D01*
X100630000Y-91295000D01*
X100630000Y-92095000D01*
X99830000Y-92095000D01*
G37*
G36*
X100630000Y-92095000D02*
G01*
X100630000Y-91295000D01*
X101430000Y-91295000D01*
X101430000Y-92095000D01*
X100630000Y-92095000D01*
G37*
G36*
X101430000Y-92095000D02*
G01*
X101430000Y-91295000D01*
X102230000Y-91295000D01*
X102230000Y-92095000D01*
X101430000Y-92095000D01*
G37*
G36*
X102230000Y-92095000D02*
G01*
X102230000Y-91295000D01*
X103030000Y-91295000D01*
X103030000Y-92095000D01*
X102230000Y-92095000D01*
G37*
G36*
X103030000Y-92095000D02*
G01*
X103030000Y-91295000D01*
X103830000Y-91295000D01*
X103830000Y-92095000D01*
X103030000Y-92095000D01*
G37*
G36*
X103830000Y-92095000D02*
G01*
X103830000Y-91295000D01*
X104630000Y-91295000D01*
X104630000Y-92095000D01*
X103830000Y-92095000D01*
G37*
G36*
X104630000Y-92095000D02*
G01*
X104630000Y-91295000D01*
X105430000Y-91295000D01*
X105430000Y-92095000D01*
X104630000Y-92095000D01*
G37*
G36*
X106230000Y-92095000D02*
G01*
X106230000Y-91295000D01*
X107030000Y-91295000D01*
X107030000Y-92095000D01*
X106230000Y-92095000D01*
G37*
G36*
X107830000Y-92095000D02*
G01*
X107830000Y-91295000D01*
X108630000Y-91295000D01*
X108630000Y-92095000D01*
X107830000Y-92095000D01*
G37*
G36*
X109430000Y-92095000D02*
G01*
X109430000Y-91295000D01*
X110230000Y-91295000D01*
X110230000Y-92095000D01*
X109430000Y-92095000D01*
G37*
G36*
X111030000Y-92095000D02*
G01*
X111030000Y-91295000D01*
X111830000Y-91295000D01*
X111830000Y-92095000D01*
X111030000Y-92095000D01*
G37*
G36*
X112630000Y-92095000D02*
G01*
X112630000Y-91295000D01*
X113430000Y-91295000D01*
X113430000Y-92095000D01*
X112630000Y-92095000D01*
G37*
G36*
X114230000Y-92095000D02*
G01*
X114230000Y-91295000D01*
X115030000Y-91295000D01*
X115030000Y-92095000D01*
X114230000Y-92095000D01*
G37*
G36*
X115830000Y-92095000D02*
G01*
X115830000Y-91295000D01*
X116630000Y-91295000D01*
X116630000Y-92095000D01*
X115830000Y-92095000D01*
G37*
G36*
X117430000Y-92095000D02*
G01*
X117430000Y-91295000D01*
X118230000Y-91295000D01*
X118230000Y-92095000D01*
X117430000Y-92095000D01*
G37*
G36*
X119030000Y-92095000D02*
G01*
X119030000Y-91295000D01*
X119830000Y-91295000D01*
X119830000Y-92095000D01*
X119030000Y-92095000D01*
G37*
G36*
X120630000Y-92095000D02*
G01*
X120630000Y-91295000D01*
X121430000Y-91295000D01*
X121430000Y-92095000D01*
X120630000Y-92095000D01*
G37*
G36*
X121430000Y-92095000D02*
G01*
X121430000Y-91295000D01*
X122230000Y-91295000D01*
X122230000Y-92095000D01*
X121430000Y-92095000D01*
G37*
G36*
X122230000Y-92095000D02*
G01*
X122230000Y-91295000D01*
X123030000Y-91295000D01*
X123030000Y-92095000D01*
X122230000Y-92095000D01*
G37*
G36*
X123030000Y-92095000D02*
G01*
X123030000Y-91295000D01*
X123830000Y-91295000D01*
X123830000Y-92095000D01*
X123030000Y-92095000D01*
G37*
G36*
X123830000Y-92095000D02*
G01*
X123830000Y-91295000D01*
X124630000Y-91295000D01*
X124630000Y-92095000D01*
X123830000Y-92095000D01*
G37*
G36*
X124630000Y-92095000D02*
G01*
X124630000Y-91295000D01*
X125430000Y-91295000D01*
X125430000Y-92095000D01*
X124630000Y-92095000D01*
G37*
G36*
X125430000Y-92095000D02*
G01*
X125430000Y-91295000D01*
X126230000Y-91295000D01*
X126230000Y-92095000D01*
X125430000Y-92095000D01*
G37*
G36*
X99830000Y-91295000D02*
G01*
X99830000Y-90495000D01*
X100630000Y-90495000D01*
X100630000Y-91295000D01*
X99830000Y-91295000D01*
G37*
G36*
X104630000Y-91295000D02*
G01*
X104630000Y-90495000D01*
X105430000Y-90495000D01*
X105430000Y-91295000D01*
X104630000Y-91295000D01*
G37*
G36*
X107830000Y-91295000D02*
G01*
X107830000Y-90495000D01*
X108630000Y-90495000D01*
X108630000Y-91295000D01*
X107830000Y-91295000D01*
G37*
G36*
X108630000Y-91295000D02*
G01*
X108630000Y-90495000D01*
X109430000Y-90495000D01*
X109430000Y-91295000D01*
X108630000Y-91295000D01*
G37*
G36*
X110230000Y-91295000D02*
G01*
X110230000Y-90495000D01*
X111030000Y-90495000D01*
X111030000Y-91295000D01*
X110230000Y-91295000D01*
G37*
G36*
X111030000Y-91295000D02*
G01*
X111030000Y-90495000D01*
X111830000Y-90495000D01*
X111830000Y-91295000D01*
X111030000Y-91295000D01*
G37*
G36*
X112630000Y-91295000D02*
G01*
X112630000Y-90495000D01*
X113430000Y-90495000D01*
X113430000Y-91295000D01*
X112630000Y-91295000D01*
G37*
G36*
X114230000Y-91295000D02*
G01*
X114230000Y-90495000D01*
X115030000Y-90495000D01*
X115030000Y-91295000D01*
X114230000Y-91295000D01*
G37*
G36*
X115830000Y-91295000D02*
G01*
X115830000Y-90495000D01*
X116630000Y-90495000D01*
X116630000Y-91295000D01*
X115830000Y-91295000D01*
G37*
G36*
X117430000Y-91295000D02*
G01*
X117430000Y-90495000D01*
X118230000Y-90495000D01*
X118230000Y-91295000D01*
X117430000Y-91295000D01*
G37*
G36*
X118230000Y-91295000D02*
G01*
X118230000Y-90495000D01*
X119030000Y-90495000D01*
X119030000Y-91295000D01*
X118230000Y-91295000D01*
G37*
G36*
X119030000Y-91295000D02*
G01*
X119030000Y-90495000D01*
X119830000Y-90495000D01*
X119830000Y-91295000D01*
X119030000Y-91295000D01*
G37*
G36*
X120630000Y-91295000D02*
G01*
X120630000Y-90495000D01*
X121430000Y-90495000D01*
X121430000Y-91295000D01*
X120630000Y-91295000D01*
G37*
G36*
X125430000Y-91295000D02*
G01*
X125430000Y-90495000D01*
X126230000Y-90495000D01*
X126230000Y-91295000D01*
X125430000Y-91295000D01*
G37*
G36*
X99830000Y-90495000D02*
G01*
X99830000Y-89695000D01*
X100630000Y-89695000D01*
X100630000Y-90495000D01*
X99830000Y-90495000D01*
G37*
G36*
X101430000Y-90495000D02*
G01*
X101430000Y-89695000D01*
X102230000Y-89695000D01*
X102230000Y-90495000D01*
X101430000Y-90495000D01*
G37*
G36*
X102230000Y-90495000D02*
G01*
X102230000Y-89695000D01*
X103030000Y-89695000D01*
X103030000Y-90495000D01*
X102230000Y-90495000D01*
G37*
G36*
X103030000Y-90495000D02*
G01*
X103030000Y-89695000D01*
X103830000Y-89695000D01*
X103830000Y-90495000D01*
X103030000Y-90495000D01*
G37*
G36*
X104630000Y-90495000D02*
G01*
X104630000Y-89695000D01*
X105430000Y-89695000D01*
X105430000Y-90495000D01*
X104630000Y-90495000D01*
G37*
G36*
X106230000Y-90495000D02*
G01*
X106230000Y-89695000D01*
X107030000Y-89695000D01*
X107030000Y-90495000D01*
X106230000Y-90495000D01*
G37*
G36*
X108630000Y-90495000D02*
G01*
X108630000Y-89695000D01*
X109430000Y-89695000D01*
X109430000Y-90495000D01*
X108630000Y-90495000D01*
G37*
G36*
X109430000Y-90495000D02*
G01*
X109430000Y-89695000D01*
X110230000Y-89695000D01*
X110230000Y-90495000D01*
X109430000Y-90495000D01*
G37*
G36*
X110230000Y-90495000D02*
G01*
X110230000Y-89695000D01*
X111030000Y-89695000D01*
X111030000Y-90495000D01*
X110230000Y-90495000D01*
G37*
G36*
X111030000Y-90495000D02*
G01*
X111030000Y-89695000D01*
X111830000Y-89695000D01*
X111830000Y-90495000D01*
X111030000Y-90495000D01*
G37*
G36*
X111830000Y-90495000D02*
G01*
X111830000Y-89695000D01*
X112630000Y-89695000D01*
X112630000Y-90495000D01*
X111830000Y-90495000D01*
G37*
G36*
X114230000Y-90495000D02*
G01*
X114230000Y-89695000D01*
X115030000Y-89695000D01*
X115030000Y-90495000D01*
X114230000Y-90495000D01*
G37*
G36*
X115830000Y-90495000D02*
G01*
X115830000Y-89695000D01*
X116630000Y-89695000D01*
X116630000Y-90495000D01*
X115830000Y-90495000D01*
G37*
G36*
X116630000Y-90495000D02*
G01*
X116630000Y-89695000D01*
X117430000Y-89695000D01*
X117430000Y-90495000D01*
X116630000Y-90495000D01*
G37*
G36*
X117430000Y-90495000D02*
G01*
X117430000Y-89695000D01*
X118230000Y-89695000D01*
X118230000Y-90495000D01*
X117430000Y-90495000D01*
G37*
G36*
X119030000Y-90495000D02*
G01*
X119030000Y-89695000D01*
X119830000Y-89695000D01*
X119830000Y-90495000D01*
X119030000Y-90495000D01*
G37*
G36*
X120630000Y-90495000D02*
G01*
X120630000Y-89695000D01*
X121430000Y-89695000D01*
X121430000Y-90495000D01*
X120630000Y-90495000D01*
G37*
G36*
X122230000Y-90495000D02*
G01*
X122230000Y-89695000D01*
X123030000Y-89695000D01*
X123030000Y-90495000D01*
X122230000Y-90495000D01*
G37*
G36*
X123030000Y-90495000D02*
G01*
X123030000Y-89695000D01*
X123830000Y-89695000D01*
X123830000Y-90495000D01*
X123030000Y-90495000D01*
G37*
G36*
X123830000Y-90495000D02*
G01*
X123830000Y-89695000D01*
X124630000Y-89695000D01*
X124630000Y-90495000D01*
X123830000Y-90495000D01*
G37*
G36*
X125430000Y-90495000D02*
G01*
X125430000Y-89695000D01*
X126230000Y-89695000D01*
X126230000Y-90495000D01*
X125430000Y-90495000D01*
G37*
G36*
X99830000Y-89695000D02*
G01*
X99830000Y-88895000D01*
X100630000Y-88895000D01*
X100630000Y-89695000D01*
X99830000Y-89695000D01*
G37*
G36*
X101430000Y-89695000D02*
G01*
X101430000Y-88895000D01*
X102230000Y-88895000D01*
X102230000Y-89695000D01*
X101430000Y-89695000D01*
G37*
G36*
X102230000Y-89695000D02*
G01*
X102230000Y-88895000D01*
X103030000Y-88895000D01*
X103030000Y-89695000D01*
X102230000Y-89695000D01*
G37*
G36*
X103030000Y-89695000D02*
G01*
X103030000Y-88895000D01*
X103830000Y-88895000D01*
X103830000Y-89695000D01*
X103030000Y-89695000D01*
G37*
G36*
X104630000Y-89695000D02*
G01*
X104630000Y-88895000D01*
X105430000Y-88895000D01*
X105430000Y-89695000D01*
X104630000Y-89695000D01*
G37*
G36*
X106230000Y-89695000D02*
G01*
X106230000Y-88895000D01*
X107030000Y-88895000D01*
X107030000Y-89695000D01*
X106230000Y-89695000D01*
G37*
G36*
X107030000Y-89695000D02*
G01*
X107030000Y-88895000D01*
X107830000Y-88895000D01*
X107830000Y-89695000D01*
X107030000Y-89695000D01*
G37*
G36*
X108630000Y-89695000D02*
G01*
X108630000Y-88895000D01*
X109430000Y-88895000D01*
X109430000Y-89695000D01*
X108630000Y-89695000D01*
G37*
G36*
X109430000Y-89695000D02*
G01*
X109430000Y-88895000D01*
X110230000Y-88895000D01*
X110230000Y-89695000D01*
X109430000Y-89695000D01*
G37*
G36*
X111030000Y-89695000D02*
G01*
X111030000Y-88895000D01*
X111830000Y-88895000D01*
X111830000Y-89695000D01*
X111030000Y-89695000D01*
G37*
G36*
X111830000Y-89695000D02*
G01*
X111830000Y-88895000D01*
X112630000Y-88895000D01*
X112630000Y-89695000D01*
X111830000Y-89695000D01*
G37*
G36*
X113430000Y-89695000D02*
G01*
X113430000Y-88895000D01*
X114230000Y-88895000D01*
X114230000Y-89695000D01*
X113430000Y-89695000D01*
G37*
G36*
X114230000Y-89695000D02*
G01*
X114230000Y-88895000D01*
X115030000Y-88895000D01*
X115030000Y-89695000D01*
X114230000Y-89695000D01*
G37*
G36*
X115830000Y-89695000D02*
G01*
X115830000Y-88895000D01*
X116630000Y-88895000D01*
X116630000Y-89695000D01*
X115830000Y-89695000D01*
G37*
G36*
X116630000Y-89695000D02*
G01*
X116630000Y-88895000D01*
X117430000Y-88895000D01*
X117430000Y-89695000D01*
X116630000Y-89695000D01*
G37*
G36*
X117430000Y-89695000D02*
G01*
X117430000Y-88895000D01*
X118230000Y-88895000D01*
X118230000Y-89695000D01*
X117430000Y-89695000D01*
G37*
G36*
X118230000Y-89695000D02*
G01*
X118230000Y-88895000D01*
X119030000Y-88895000D01*
X119030000Y-89695000D01*
X118230000Y-89695000D01*
G37*
G36*
X119030000Y-89695000D02*
G01*
X119030000Y-88895000D01*
X119830000Y-88895000D01*
X119830000Y-89695000D01*
X119030000Y-89695000D01*
G37*
G36*
X120630000Y-89695000D02*
G01*
X120630000Y-88895000D01*
X121430000Y-88895000D01*
X121430000Y-89695000D01*
X120630000Y-89695000D01*
G37*
G36*
X122230000Y-89695000D02*
G01*
X122230000Y-88895000D01*
X123030000Y-88895000D01*
X123030000Y-89695000D01*
X122230000Y-89695000D01*
G37*
G36*
X123030000Y-89695000D02*
G01*
X123030000Y-88895000D01*
X123830000Y-88895000D01*
X123830000Y-89695000D01*
X123030000Y-89695000D01*
G37*
G36*
X123830000Y-89695000D02*
G01*
X123830000Y-88895000D01*
X124630000Y-88895000D01*
X124630000Y-89695000D01*
X123830000Y-89695000D01*
G37*
G36*
X125430000Y-89695000D02*
G01*
X125430000Y-88895000D01*
X126230000Y-88895000D01*
X126230000Y-89695000D01*
X125430000Y-89695000D01*
G37*
G36*
X99830000Y-88895000D02*
G01*
X99830000Y-88095000D01*
X100630000Y-88095000D01*
X100630000Y-88895000D01*
X99830000Y-88895000D01*
G37*
G36*
X101430000Y-88895000D02*
G01*
X101430000Y-88095000D01*
X102230000Y-88095000D01*
X102230000Y-88895000D01*
X101430000Y-88895000D01*
G37*
G36*
X102230000Y-88895000D02*
G01*
X102230000Y-88095000D01*
X103030000Y-88095000D01*
X103030000Y-88895000D01*
X102230000Y-88895000D01*
G37*
G36*
X103030000Y-88895000D02*
G01*
X103030000Y-88095000D01*
X103830000Y-88095000D01*
X103830000Y-88895000D01*
X103030000Y-88895000D01*
G37*
G36*
X104630000Y-88895000D02*
G01*
X104630000Y-88095000D01*
X105430000Y-88095000D01*
X105430000Y-88895000D01*
X104630000Y-88895000D01*
G37*
G36*
X107030000Y-88895000D02*
G01*
X107030000Y-88095000D01*
X107830000Y-88095000D01*
X107830000Y-88895000D01*
X107030000Y-88895000D01*
G37*
G36*
X107830000Y-88895000D02*
G01*
X107830000Y-88095000D01*
X108630000Y-88095000D01*
X108630000Y-88895000D01*
X107830000Y-88895000D01*
G37*
G36*
X110230000Y-88895000D02*
G01*
X110230000Y-88095000D01*
X111030000Y-88095000D01*
X111030000Y-88895000D01*
X110230000Y-88895000D01*
G37*
G36*
X112630000Y-88895000D02*
G01*
X112630000Y-88095000D01*
X113430000Y-88095000D01*
X113430000Y-88895000D01*
X112630000Y-88895000D01*
G37*
G36*
X115030000Y-88895000D02*
G01*
X115030000Y-88095000D01*
X115830000Y-88095000D01*
X115830000Y-88895000D01*
X115030000Y-88895000D01*
G37*
G36*
X115830000Y-88895000D02*
G01*
X115830000Y-88095000D01*
X116630000Y-88095000D01*
X116630000Y-88895000D01*
X115830000Y-88895000D01*
G37*
G36*
X116630000Y-88895000D02*
G01*
X116630000Y-88095000D01*
X117430000Y-88095000D01*
X117430000Y-88895000D01*
X116630000Y-88895000D01*
G37*
G36*
X118230000Y-88895000D02*
G01*
X118230000Y-88095000D01*
X119030000Y-88095000D01*
X119030000Y-88895000D01*
X118230000Y-88895000D01*
G37*
G36*
X120630000Y-88895000D02*
G01*
X120630000Y-88095000D01*
X121430000Y-88095000D01*
X121430000Y-88895000D01*
X120630000Y-88895000D01*
G37*
G36*
X122230000Y-88895000D02*
G01*
X122230000Y-88095000D01*
X123030000Y-88095000D01*
X123030000Y-88895000D01*
X122230000Y-88895000D01*
G37*
G36*
X123030000Y-88895000D02*
G01*
X123030000Y-88095000D01*
X123830000Y-88095000D01*
X123830000Y-88895000D01*
X123030000Y-88895000D01*
G37*
G36*
X123830000Y-88895000D02*
G01*
X123830000Y-88095000D01*
X124630000Y-88095000D01*
X124630000Y-88895000D01*
X123830000Y-88895000D01*
G37*
G36*
X125430000Y-88895000D02*
G01*
X125430000Y-88095000D01*
X126230000Y-88095000D01*
X126230000Y-88895000D01*
X125430000Y-88895000D01*
G37*
G36*
X99830000Y-88095000D02*
G01*
X99830000Y-87295000D01*
X100630000Y-87295000D01*
X100630000Y-88095000D01*
X99830000Y-88095000D01*
G37*
G36*
X104630000Y-88095000D02*
G01*
X104630000Y-87295000D01*
X105430000Y-87295000D01*
X105430000Y-88095000D01*
X104630000Y-88095000D01*
G37*
G36*
X107830000Y-88095000D02*
G01*
X107830000Y-87295000D01*
X108630000Y-87295000D01*
X108630000Y-88095000D01*
X107830000Y-88095000D01*
G37*
G36*
X108630000Y-88095000D02*
G01*
X108630000Y-87295000D01*
X109430000Y-87295000D01*
X109430000Y-88095000D01*
X108630000Y-88095000D01*
G37*
G36*
X109430000Y-88095000D02*
G01*
X109430000Y-87295000D01*
X110230000Y-87295000D01*
X110230000Y-88095000D01*
X109430000Y-88095000D01*
G37*
G36*
X110230000Y-88095000D02*
G01*
X110230000Y-87295000D01*
X111030000Y-87295000D01*
X111030000Y-88095000D01*
X110230000Y-88095000D01*
G37*
G36*
X111830000Y-88095000D02*
G01*
X111830000Y-87295000D01*
X112630000Y-87295000D01*
X112630000Y-88095000D01*
X111830000Y-88095000D01*
G37*
G36*
X112630000Y-88095000D02*
G01*
X112630000Y-87295000D01*
X113430000Y-87295000D01*
X113430000Y-88095000D01*
X112630000Y-88095000D01*
G37*
G36*
X115830000Y-88095000D02*
G01*
X115830000Y-87295000D01*
X116630000Y-87295000D01*
X116630000Y-88095000D01*
X115830000Y-88095000D01*
G37*
G36*
X118230000Y-88095000D02*
G01*
X118230000Y-87295000D01*
X119030000Y-87295000D01*
X119030000Y-88095000D01*
X118230000Y-88095000D01*
G37*
G36*
X120630000Y-88095000D02*
G01*
X120630000Y-87295000D01*
X121430000Y-87295000D01*
X121430000Y-88095000D01*
X120630000Y-88095000D01*
G37*
G36*
X125430000Y-88095000D02*
G01*
X125430000Y-87295000D01*
X126230000Y-87295000D01*
X126230000Y-88095000D01*
X125430000Y-88095000D01*
G37*
G36*
X99830000Y-87295000D02*
G01*
X99830000Y-86495000D01*
X100630000Y-86495000D01*
X100630000Y-87295000D01*
X99830000Y-87295000D01*
G37*
G36*
X100630000Y-87295000D02*
G01*
X100630000Y-86495000D01*
X101430000Y-86495000D01*
X101430000Y-87295000D01*
X100630000Y-87295000D01*
G37*
G36*
X101430000Y-87295000D02*
G01*
X101430000Y-86495000D01*
X102230000Y-86495000D01*
X102230000Y-87295000D01*
X101430000Y-87295000D01*
G37*
G36*
X102230000Y-87295000D02*
G01*
X102230000Y-86495000D01*
X103030000Y-86495000D01*
X103030000Y-87295000D01*
X102230000Y-87295000D01*
G37*
G36*
X103030000Y-87295000D02*
G01*
X103030000Y-86495000D01*
X103830000Y-86495000D01*
X103830000Y-87295000D01*
X103030000Y-87295000D01*
G37*
G36*
X103830000Y-87295000D02*
G01*
X103830000Y-86495000D01*
X104630000Y-86495000D01*
X104630000Y-87295000D01*
X103830000Y-87295000D01*
G37*
G36*
X104630000Y-87295000D02*
G01*
X104630000Y-86495000D01*
X105430000Y-86495000D01*
X105430000Y-87295000D01*
X104630000Y-87295000D01*
G37*
G36*
X107030000Y-87295000D02*
G01*
X107030000Y-86495000D01*
X107830000Y-86495000D01*
X107830000Y-87295000D01*
X107030000Y-87295000D01*
G37*
G36*
X108630000Y-87295000D02*
G01*
X108630000Y-86495000D01*
X109430000Y-86495000D01*
X109430000Y-87295000D01*
X108630000Y-87295000D01*
G37*
G36*
X111830000Y-87295000D02*
G01*
X111830000Y-86495000D01*
X112630000Y-86495000D01*
X112630000Y-87295000D01*
X111830000Y-87295000D01*
G37*
G36*
X112630000Y-87295000D02*
G01*
X112630000Y-86495000D01*
X113430000Y-86495000D01*
X113430000Y-87295000D01*
X112630000Y-87295000D01*
G37*
G36*
X117430000Y-87295000D02*
G01*
X117430000Y-86495000D01*
X118230000Y-86495000D01*
X118230000Y-87295000D01*
X117430000Y-87295000D01*
G37*
G36*
X118230000Y-87295000D02*
G01*
X118230000Y-86495000D01*
X119030000Y-86495000D01*
X119030000Y-87295000D01*
X118230000Y-87295000D01*
G37*
G36*
X119030000Y-87295000D02*
G01*
X119030000Y-86495000D01*
X119830000Y-86495000D01*
X119830000Y-87295000D01*
X119030000Y-87295000D01*
G37*
G36*
X120630000Y-87295000D02*
G01*
X120630000Y-86495000D01*
X121430000Y-86495000D01*
X121430000Y-87295000D01*
X120630000Y-87295000D01*
G37*
G36*
X121430000Y-87295000D02*
G01*
X121430000Y-86495000D01*
X122230000Y-86495000D01*
X122230000Y-87295000D01*
X121430000Y-87295000D01*
G37*
G36*
X122230000Y-87295000D02*
G01*
X122230000Y-86495000D01*
X123030000Y-86495000D01*
X123030000Y-87295000D01*
X122230000Y-87295000D01*
G37*
G36*
X123030000Y-87295000D02*
G01*
X123030000Y-86495000D01*
X123830000Y-86495000D01*
X123830000Y-87295000D01*
X123030000Y-87295000D01*
G37*
G36*
X123830000Y-87295000D02*
G01*
X123830000Y-86495000D01*
X124630000Y-86495000D01*
X124630000Y-87295000D01*
X123830000Y-87295000D01*
G37*
G36*
X124630000Y-87295000D02*
G01*
X124630000Y-86495000D01*
X125430000Y-86495000D01*
X125430000Y-87295000D01*
X124630000Y-87295000D01*
G37*
G36*
X125430000Y-87295000D02*
G01*
X125430000Y-86495000D01*
X126230000Y-86495000D01*
X126230000Y-87295000D01*
X125430000Y-87295000D01*
G37*
%TD*%
M02*
