%TF.GenerationSoftware,KiCad,Pcbnew,(5.1.9)-1*%
%TF.CreationDate,2021-01-06T12:08:29+00:00*%
%TF.ProjectId,switcherv0,73776974-6368-4657-9276-302e6b696361,rev?*%
%TF.SameCoordinates,Original*%
%TF.FileFunction,Legend,Top*%
%TF.FilePolarity,Positive*%
%FSLAX46Y46*%
G04 Gerber Fmt 4.6, Leading zero omitted, Abs format (unit mm)*
G04 Created by KiCad (PCBNEW (5.1.9)-1) date 2021-01-06 12:08:29*
%MOMM*%
%LPD*%
G01*
G04 APERTURE LIST*
%ADD10C,0.150000*%
%ADD11C,0.120000*%
%ADD12C,0.250000*%
%ADD13C,0.400000*%
%ADD14C,0.300000*%
%ADD15C,0.200000*%
%ADD16C,0.100000*%
%ADD17C,0.254000*%
G04 APERTURE END LIST*
D10*
X85509285Y-94488857D02*
X86252142Y-94488857D01*
X85852142Y-94946000D01*
X86023571Y-94946000D01*
X86137857Y-95003142D01*
X86195000Y-95060285D01*
X86252142Y-95174571D01*
X86252142Y-95460285D01*
X86195000Y-95574571D01*
X86137857Y-95631714D01*
X86023571Y-95688857D01*
X85680714Y-95688857D01*
X85566428Y-95631714D01*
X85509285Y-95574571D01*
X86595000Y-94488857D02*
X86995000Y-95688857D01*
X87395000Y-94488857D01*
X87680714Y-94488857D02*
X88423571Y-94488857D01*
X88023571Y-94946000D01*
X88195000Y-94946000D01*
X88309285Y-95003142D01*
X88366428Y-95060285D01*
X88423571Y-95174571D01*
X88423571Y-95460285D01*
X88366428Y-95574571D01*
X88309285Y-95631714D01*
X88195000Y-95688857D01*
X87852142Y-95688857D01*
X87737857Y-95631714D01*
X87680714Y-95574571D01*
X82223928Y-94488857D02*
X81652500Y-94488857D01*
X81595357Y-95060285D01*
X81652500Y-95003142D01*
X81766785Y-94946000D01*
X82052500Y-94946000D01*
X82166785Y-95003142D01*
X82223928Y-95060285D01*
X82281071Y-95174571D01*
X82281071Y-95460285D01*
X82223928Y-95574571D01*
X82166785Y-95631714D01*
X82052500Y-95688857D01*
X81766785Y-95688857D01*
X81652500Y-95631714D01*
X81595357Y-95574571D01*
X82623928Y-94488857D02*
X83023928Y-95688857D01*
X83423928Y-94488857D01*
X93120595Y-95582619D02*
X93168214Y-95535000D01*
X93263452Y-95487380D01*
X93501547Y-95487380D01*
X93596785Y-95535000D01*
X93644404Y-95582619D01*
X93692023Y-95677857D01*
X93692023Y-95773095D01*
X93644404Y-95915952D01*
X93072976Y-96487380D01*
X93692023Y-96487380D01*
X94311071Y-95487380D02*
X94406309Y-95487380D01*
X94501547Y-95535000D01*
X94549166Y-95582619D01*
X94596785Y-95677857D01*
X94644404Y-95868333D01*
X94644404Y-96106428D01*
X94596785Y-96296904D01*
X94549166Y-96392142D01*
X94501547Y-96439761D01*
X94406309Y-96487380D01*
X94311071Y-96487380D01*
X94215833Y-96439761D01*
X94168214Y-96392142D01*
X94120595Y-96296904D01*
X94072976Y-96106428D01*
X94072976Y-95868333D01*
X94120595Y-95677857D01*
X94168214Y-95582619D01*
X94215833Y-95535000D01*
X94311071Y-95487380D01*
X116393214Y-96487380D02*
X115821785Y-96487380D01*
X116107500Y-96487380D02*
X116107500Y-95487380D01*
X116012261Y-95630238D01*
X115917023Y-95725476D01*
X115821785Y-95773095D01*
X69117500Y-127785000D02*
X69117500Y-101750000D01*
X69117500Y-101750000D02*
X100867500Y-101750000D01*
X69117500Y-153820000D02*
X100867500Y-153820000D01*
X69117500Y-180490000D02*
X69117500Y-153820000D01*
X98323285Y-85401857D02*
X97637571Y-85401857D01*
X97980428Y-85401857D02*
X97980428Y-84201857D01*
X97866142Y-84373285D01*
X97751857Y-84487571D01*
X97637571Y-84544714D01*
X91220285Y-84814285D02*
X91391714Y-84871428D01*
X91448857Y-84928571D01*
X91506000Y-85042857D01*
X91506000Y-85214285D01*
X91448857Y-85328571D01*
X91391714Y-85385714D01*
X91277428Y-85442857D01*
X90820285Y-85442857D01*
X90820285Y-84242857D01*
X91220285Y-84242857D01*
X91334571Y-84300000D01*
X91391714Y-84357142D01*
X91448857Y-84471428D01*
X91448857Y-84585714D01*
X91391714Y-84700000D01*
X91334571Y-84757142D01*
X91220285Y-84814285D01*
X90820285Y-84814285D01*
X91963142Y-85100000D02*
X92534571Y-85100000D01*
X91848857Y-85442857D02*
X92248857Y-84242857D01*
X92648857Y-85442857D01*
X92877428Y-84242857D02*
X93563142Y-84242857D01*
X93220285Y-85442857D02*
X93220285Y-84242857D01*
X94648857Y-85328571D02*
X94591714Y-85385714D01*
X94420285Y-85442857D01*
X94306000Y-85442857D01*
X94134571Y-85385714D01*
X94020285Y-85271428D01*
X93963142Y-85157142D01*
X93906000Y-84928571D01*
X93906000Y-84757142D01*
X93963142Y-84528571D01*
X94020285Y-84414285D01*
X94134571Y-84300000D01*
X94306000Y-84242857D01*
X94420285Y-84242857D01*
X94591714Y-84300000D01*
X94648857Y-84357142D01*
X95163142Y-85442857D02*
X95163142Y-84242857D01*
X95163142Y-84814285D02*
X95848857Y-84814285D01*
X95848857Y-85442857D02*
X95848857Y-84242857D01*
X96420285Y-85328571D02*
X96477428Y-85385714D01*
X96420285Y-85442857D01*
X96363142Y-85385714D01*
X96420285Y-85328571D01*
X96420285Y-85442857D01*
X96420285Y-84700000D02*
X96477428Y-84757142D01*
X96420285Y-84814285D01*
X96363142Y-84757142D01*
X96420285Y-84700000D01*
X96420285Y-84814285D01*
X92706000Y-87335714D02*
X92877428Y-87392857D01*
X93163142Y-87392857D01*
X93277428Y-87335714D01*
X93334571Y-87278571D01*
X93391714Y-87164285D01*
X93391714Y-87050000D01*
X93334571Y-86935714D01*
X93277428Y-86878571D01*
X93163142Y-86821428D01*
X92934571Y-86764285D01*
X92820285Y-86707142D01*
X92763142Y-86650000D01*
X92706000Y-86535714D01*
X92706000Y-86421428D01*
X92763142Y-86307142D01*
X92820285Y-86250000D01*
X92934571Y-86192857D01*
X93220285Y-86192857D01*
X93391714Y-86250000D01*
X94763142Y-86135714D02*
X93734571Y-87678571D01*
X95163142Y-87392857D02*
X95163142Y-86192857D01*
X95848857Y-87392857D01*
X95848857Y-86192857D01*
X96420285Y-87278571D02*
X96477428Y-87335714D01*
X96420285Y-87392857D01*
X96363142Y-87335714D01*
X96420285Y-87278571D01*
X96420285Y-87392857D01*
X96420285Y-86650000D02*
X96477428Y-86707142D01*
X96420285Y-86764285D01*
X96363142Y-86707142D01*
X96420285Y-86650000D01*
X96420285Y-86764285D01*
X135446357Y-158364500D02*
X134246357Y-158364500D01*
X134246357Y-158078785D01*
X134303500Y-157907357D01*
X134417785Y-157793071D01*
X134532071Y-157735928D01*
X134760642Y-157678785D01*
X134932071Y-157678785D01*
X135160642Y-157735928D01*
X135274928Y-157793071D01*
X135389214Y-157907357D01*
X135446357Y-158078785D01*
X135446357Y-158364500D01*
X135389214Y-156707357D02*
X135446357Y-156821642D01*
X135446357Y-157050214D01*
X135389214Y-157164500D01*
X135274928Y-157221642D01*
X134817785Y-157221642D01*
X134703500Y-157164500D01*
X134646357Y-157050214D01*
X134646357Y-156821642D01*
X134703500Y-156707357D01*
X134817785Y-156650214D01*
X134932071Y-156650214D01*
X135046357Y-157221642D01*
X135389214Y-156193071D02*
X135446357Y-156078785D01*
X135446357Y-155850214D01*
X135389214Y-155735928D01*
X135274928Y-155678785D01*
X135217785Y-155678785D01*
X135103500Y-155735928D01*
X135046357Y-155850214D01*
X135046357Y-156021642D01*
X134989214Y-156135928D01*
X134874928Y-156193071D01*
X134817785Y-156193071D01*
X134703500Y-156135928D01*
X134646357Y-156021642D01*
X134646357Y-155850214D01*
X134703500Y-155735928D01*
X135446357Y-155164500D02*
X134646357Y-155164500D01*
X134246357Y-155164500D02*
X134303500Y-155221642D01*
X134360642Y-155164500D01*
X134303500Y-155107357D01*
X134246357Y-155164500D01*
X134360642Y-155164500D01*
X134646357Y-154078785D02*
X135617785Y-154078785D01*
X135732071Y-154135928D01*
X135789214Y-154193071D01*
X135846357Y-154307357D01*
X135846357Y-154478785D01*
X135789214Y-154593071D01*
X135389214Y-154078785D02*
X135446357Y-154193071D01*
X135446357Y-154421642D01*
X135389214Y-154535928D01*
X135332071Y-154593071D01*
X135217785Y-154650214D01*
X134874928Y-154650214D01*
X134760642Y-154593071D01*
X134703500Y-154535928D01*
X134646357Y-154421642D01*
X134646357Y-154193071D01*
X134703500Y-154078785D01*
X134646357Y-153507357D02*
X135446357Y-153507357D01*
X134760642Y-153507357D02*
X134703500Y-153450214D01*
X134646357Y-153335928D01*
X134646357Y-153164500D01*
X134703500Y-153050214D01*
X134817785Y-152993071D01*
X135446357Y-152993071D01*
X135389214Y-151964500D02*
X135446357Y-152078785D01*
X135446357Y-152307357D01*
X135389214Y-152421642D01*
X135274928Y-152478785D01*
X134817785Y-152478785D01*
X134703500Y-152421642D01*
X134646357Y-152307357D01*
X134646357Y-152078785D01*
X134703500Y-151964500D01*
X134817785Y-151907357D01*
X134932071Y-151907357D01*
X135046357Y-152478785D01*
X135446357Y-150878785D02*
X134246357Y-150878785D01*
X135389214Y-150878785D02*
X135446357Y-150993071D01*
X135446357Y-151221642D01*
X135389214Y-151335928D01*
X135332071Y-151393071D01*
X135217785Y-151450214D01*
X134874928Y-151450214D01*
X134760642Y-151393071D01*
X134703500Y-151335928D01*
X134646357Y-151221642D01*
X134646357Y-150993071D01*
X134703500Y-150878785D01*
X135446357Y-149393071D02*
X134246357Y-149393071D01*
X134703500Y-149393071D02*
X134646357Y-149278785D01*
X134646357Y-149050214D01*
X134703500Y-148935928D01*
X134760642Y-148878785D01*
X134874928Y-148821642D01*
X135217785Y-148821642D01*
X135332071Y-148878785D01*
X135389214Y-148935928D01*
X135446357Y-149050214D01*
X135446357Y-149278785D01*
X135389214Y-149393071D01*
X134646357Y-148421642D02*
X135446357Y-148135928D01*
X134646357Y-147850214D02*
X135446357Y-148135928D01*
X135732071Y-148250214D01*
X135789214Y-148307357D01*
X135846357Y-148421642D01*
X135446357Y-146478785D02*
X134246357Y-146478785D01*
X134246357Y-146193071D01*
X134303500Y-146021642D01*
X134417785Y-145907357D01*
X134532071Y-145850214D01*
X134760642Y-145793071D01*
X134932071Y-145793071D01*
X135160642Y-145850214D01*
X135274928Y-145907357D01*
X135389214Y-146021642D01*
X135446357Y-146193071D01*
X135446357Y-146478785D01*
X135446357Y-144764500D02*
X134817785Y-144764500D01*
X134703500Y-144821642D01*
X134646357Y-144935928D01*
X134646357Y-145164500D01*
X134703500Y-145278785D01*
X135389214Y-144764500D02*
X135446357Y-144878785D01*
X135446357Y-145164500D01*
X135389214Y-145278785D01*
X135274928Y-145335928D01*
X135160642Y-145335928D01*
X135046357Y-145278785D01*
X134989214Y-145164500D01*
X134989214Y-144878785D01*
X134932071Y-144764500D01*
X134646357Y-144307357D02*
X135446357Y-144021642D01*
X134646357Y-143735928D01*
X135389214Y-142821642D02*
X135446357Y-142935928D01*
X135446357Y-143164500D01*
X135389214Y-143278785D01*
X135274928Y-143335928D01*
X134817785Y-143335928D01*
X134703500Y-143278785D01*
X134646357Y-143164500D01*
X134646357Y-142935928D01*
X134703500Y-142821642D01*
X134817785Y-142764500D01*
X134932071Y-142764500D01*
X135046357Y-143335928D01*
X135446357Y-141335928D02*
X134246357Y-141335928D01*
X135103500Y-140935928D01*
X134246357Y-140535928D01*
X135446357Y-140535928D01*
X135446357Y-139964500D02*
X134646357Y-139964500D01*
X134246357Y-139964500D02*
X134303500Y-140021642D01*
X134360642Y-139964500D01*
X134303500Y-139907357D01*
X134246357Y-139964500D01*
X134360642Y-139964500D01*
X135446357Y-139221642D02*
X135389214Y-139335928D01*
X135274928Y-139393071D01*
X134246357Y-139393071D01*
X135446357Y-138593071D02*
X135389214Y-138707357D01*
X135274928Y-138764500D01*
X134246357Y-138764500D01*
X135389214Y-137678785D02*
X135446357Y-137793071D01*
X135446357Y-138021642D01*
X135389214Y-138135928D01*
X135274928Y-138193071D01*
X134817785Y-138193071D01*
X134703500Y-138135928D01*
X134646357Y-138021642D01*
X134646357Y-137793071D01*
X134703500Y-137678785D01*
X134817785Y-137621642D01*
X134932071Y-137621642D01*
X135046357Y-138193071D01*
X135446357Y-137107357D02*
X134646357Y-137107357D01*
X134874928Y-137107357D02*
X134760642Y-137050214D01*
X134703500Y-136993071D01*
X134646357Y-136878785D01*
X134646357Y-136764500D01*
D11*
X130979200Y-165732600D02*
X132274600Y-166380300D01*
X133011200Y-166748600D02*
X134459000Y-167472500D01*
X129353600Y-166215200D02*
X129950500Y-165910400D01*
X126839000Y-167472500D02*
X128121700Y-166824800D01*
D12*
X131605571Y-163317437D02*
X131605571Y-163174580D01*
X131677000Y-163040651D01*
X131748428Y-162978151D01*
X131891285Y-162924580D01*
X132177000Y-162888866D01*
X132534142Y-162933508D01*
X132819857Y-163040651D01*
X132962714Y-163129937D01*
X133034142Y-163210294D01*
X133105571Y-163362080D01*
X133105571Y-163504937D01*
X133034142Y-163638866D01*
X132962714Y-163701366D01*
X132819857Y-163754937D01*
X132534142Y-163790651D01*
X132177000Y-163746008D01*
X131891285Y-163638866D01*
X131748428Y-163549580D01*
X131677000Y-163469223D01*
X131605571Y-163317437D01*
X128363000Y-165567500D02*
X128871000Y-164805500D01*
X128871000Y-166329500D02*
X128363000Y-165567500D01*
D13*
X130522000Y-164297500D02*
X130522000Y-166837500D01*
X128617000Y-164297500D02*
X132427000Y-164297500D01*
X128617000Y-166837500D02*
X132427000Y-166837500D01*
X130649000Y-159217500D02*
X135729000Y-161757500D01*
X125569000Y-161757500D02*
X130649000Y-159217500D01*
X130649000Y-170647500D02*
X135729000Y-168107500D01*
X125569000Y-168107500D02*
X130649000Y-170647500D01*
D11*
X130649000Y-163789500D02*
X130649000Y-160487500D01*
X134459000Y-162392500D02*
X134459000Y-167472500D01*
X130649000Y-160487500D02*
X134459000Y-162392500D01*
X126839000Y-162392500D02*
X130649000Y-160487500D01*
X126839000Y-167472500D02*
X126839000Y-162392500D01*
X126839000Y-167472500D02*
X130649000Y-169377500D01*
X130649000Y-169377500D02*
X134459000Y-167472500D01*
D10*
X133414357Y-157577071D02*
X132842928Y-157977071D01*
X133414357Y-158262785D02*
X132214357Y-158262785D01*
X132214357Y-157805642D01*
X132271500Y-157691357D01*
X132328642Y-157634214D01*
X132442928Y-157577071D01*
X132614357Y-157577071D01*
X132728642Y-157634214D01*
X132785785Y-157691357D01*
X132842928Y-157805642D01*
X132842928Y-158262785D01*
X133357214Y-156605642D02*
X133414357Y-156719928D01*
X133414357Y-156948500D01*
X133357214Y-157062785D01*
X133242928Y-157119928D01*
X132785785Y-157119928D01*
X132671500Y-157062785D01*
X132614357Y-156948500D01*
X132614357Y-156719928D01*
X132671500Y-156605642D01*
X132785785Y-156548500D01*
X132900071Y-156548500D01*
X133014357Y-157119928D01*
X132614357Y-156148500D02*
X133414357Y-155862785D01*
X132614357Y-155577071D01*
X132214357Y-153977071D02*
X132214357Y-153862785D01*
X132271500Y-153748500D01*
X132328642Y-153691357D01*
X132442928Y-153634214D01*
X132671500Y-153577071D01*
X132957214Y-153577071D01*
X133185785Y-153634214D01*
X133300071Y-153691357D01*
X133357214Y-153748500D01*
X133414357Y-153862785D01*
X133414357Y-153977071D01*
X133357214Y-154091357D01*
X133300071Y-154148500D01*
X133185785Y-154205642D01*
X132957214Y-154262785D01*
X132671500Y-154262785D01*
X132442928Y-154205642D01*
X132328642Y-154148500D01*
X132271500Y-154091357D01*
X132214357Y-153977071D01*
D14*
X125935261Y-158387523D02*
X125935261Y-157244666D01*
X127935261Y-157816095D02*
X125935261Y-157816095D01*
X125935261Y-156197047D02*
X125935261Y-155816095D01*
X126030500Y-155625619D01*
X126220976Y-155435142D01*
X126601928Y-155339904D01*
X127268595Y-155339904D01*
X127649547Y-155435142D01*
X127840023Y-155625619D01*
X127935261Y-155816095D01*
X127935261Y-156197047D01*
X127840023Y-156387523D01*
X127649547Y-156578000D01*
X127268595Y-156673238D01*
X126601928Y-156673238D01*
X126220976Y-156578000D01*
X126030500Y-156387523D01*
X125935261Y-156197047D01*
X125935261Y-154101809D02*
X125935261Y-153720857D01*
X126030500Y-153530380D01*
X126220976Y-153339904D01*
X126601928Y-153244666D01*
X127268595Y-153244666D01*
X127649547Y-153339904D01*
X127840023Y-153530380D01*
X127935261Y-153720857D01*
X127935261Y-154101809D01*
X127840023Y-154292285D01*
X127649547Y-154482761D01*
X127268595Y-154578000D01*
X126601928Y-154578000D01*
X126220976Y-154482761D01*
X126030500Y-154292285D01*
X125935261Y-154101809D01*
X127935261Y-151435142D02*
X127935261Y-152387523D01*
X125935261Y-152387523D01*
X127840023Y-149339904D02*
X127935261Y-149054190D01*
X127935261Y-148578000D01*
X127840023Y-148387523D01*
X127744785Y-148292285D01*
X127554309Y-148197047D01*
X127363833Y-148197047D01*
X127173357Y-148292285D01*
X127078119Y-148387523D01*
X126982880Y-148578000D01*
X126887642Y-148958952D01*
X126792404Y-149149428D01*
X126697166Y-149244666D01*
X126506690Y-149339904D01*
X126316214Y-149339904D01*
X126125738Y-149244666D01*
X126030500Y-149149428D01*
X125935261Y-148958952D01*
X125935261Y-148482761D01*
X126030500Y-148197047D01*
X125935261Y-147530380D02*
X127935261Y-147054190D01*
X126506690Y-146673238D01*
X127935261Y-146292285D01*
X125935261Y-145816095D01*
X127935261Y-145054190D02*
X125935261Y-145054190D01*
X125935261Y-144387523D02*
X125935261Y-143244666D01*
X127935261Y-143816095D02*
X125935261Y-143816095D01*
X127744785Y-141435142D02*
X127840023Y-141530380D01*
X127935261Y-141816095D01*
X127935261Y-142006571D01*
X127840023Y-142292285D01*
X127649547Y-142482761D01*
X127459071Y-142578000D01*
X127078119Y-142673238D01*
X126792404Y-142673238D01*
X126411452Y-142578000D01*
X126220976Y-142482761D01*
X126030500Y-142292285D01*
X125935261Y-142006571D01*
X125935261Y-141816095D01*
X126030500Y-141530380D01*
X126125738Y-141435142D01*
X127935261Y-140578000D02*
X125935261Y-140578000D01*
X126887642Y-140578000D02*
X126887642Y-139435142D01*
X127935261Y-139435142D02*
X125935261Y-139435142D01*
X126887642Y-138482761D02*
X126887642Y-137816095D01*
X127935261Y-137530380D02*
X127935261Y-138482761D01*
X125935261Y-138482761D01*
X125935261Y-137530380D01*
X127935261Y-135530380D02*
X126982880Y-136197047D01*
X127935261Y-136673238D02*
X125935261Y-136673238D01*
X125935261Y-135911333D01*
X126030500Y-135720857D01*
X126125738Y-135625619D01*
X126316214Y-135530380D01*
X126601928Y-135530380D01*
X126792404Y-135625619D01*
X126887642Y-135720857D01*
X126982880Y-135911333D01*
X126982880Y-136673238D01*
X131235261Y-158101809D02*
X129235261Y-158101809D01*
X129235261Y-157625619D01*
X129330500Y-157339904D01*
X129520976Y-157149428D01*
X129711452Y-157054190D01*
X130092404Y-156958952D01*
X130378119Y-156958952D01*
X130759071Y-157054190D01*
X130949547Y-157149428D01*
X131140023Y-157339904D01*
X131235261Y-157625619D01*
X131235261Y-158101809D01*
X131235261Y-156101809D02*
X129235261Y-156101809D01*
X131140023Y-155244666D02*
X131235261Y-154958952D01*
X131235261Y-154482761D01*
X131140023Y-154292285D01*
X131044785Y-154197047D01*
X130854309Y-154101809D01*
X130663833Y-154101809D01*
X130473357Y-154197047D01*
X130378119Y-154292285D01*
X130282880Y-154482761D01*
X130187642Y-154863714D01*
X130092404Y-155054190D01*
X129997166Y-155149428D01*
X129806690Y-155244666D01*
X129616214Y-155244666D01*
X129425738Y-155149428D01*
X129330500Y-155054190D01*
X129235261Y-154863714D01*
X129235261Y-154387523D01*
X129330500Y-154101809D01*
X129235261Y-153530380D02*
X129235261Y-152387523D01*
X131235261Y-152958952D02*
X129235261Y-152958952D01*
X131235261Y-150578000D02*
X130282880Y-151244666D01*
X131235261Y-151720857D02*
X129235261Y-151720857D01*
X129235261Y-150958952D01*
X129330500Y-150768476D01*
X129425738Y-150673238D01*
X129616214Y-150578000D01*
X129901928Y-150578000D01*
X130092404Y-150673238D01*
X130187642Y-150768476D01*
X130282880Y-150958952D01*
X130282880Y-151720857D01*
X129235261Y-149339904D02*
X129235261Y-148958952D01*
X129330500Y-148768476D01*
X129520976Y-148578000D01*
X129901928Y-148482761D01*
X130568595Y-148482761D01*
X130949547Y-148578000D01*
X131140023Y-148768476D01*
X131235261Y-148958952D01*
X131235261Y-149339904D01*
X131140023Y-149530380D01*
X130949547Y-149720857D01*
X130568595Y-149816095D01*
X129901928Y-149816095D01*
X129520976Y-149720857D01*
X129330500Y-149530380D01*
X129235261Y-149339904D01*
X130187642Y-145435142D02*
X130282880Y-145149428D01*
X130378119Y-145054190D01*
X130568595Y-144958952D01*
X130854309Y-144958952D01*
X131044785Y-145054190D01*
X131140023Y-145149428D01*
X131235261Y-145339904D01*
X131235261Y-146101809D01*
X129235261Y-146101809D01*
X129235261Y-145435142D01*
X129330500Y-145244666D01*
X129425738Y-145149428D01*
X129616214Y-145054190D01*
X129806690Y-145054190D01*
X129997166Y-145149428D01*
X130092404Y-145244666D01*
X130187642Y-145435142D01*
X130187642Y-146101809D01*
X129235261Y-143720857D02*
X129235261Y-143339904D01*
X129330500Y-143149428D01*
X129520976Y-142958952D01*
X129901928Y-142863714D01*
X130568595Y-142863714D01*
X130949547Y-142958952D01*
X131140023Y-143149428D01*
X131235261Y-143339904D01*
X131235261Y-143720857D01*
X131140023Y-143911333D01*
X130949547Y-144101809D01*
X130568595Y-144197047D01*
X129901928Y-144197047D01*
X129520976Y-144101809D01*
X129330500Y-143911333D01*
X129235261Y-143720857D01*
X130663833Y-142101809D02*
X130663833Y-141149428D01*
X131235261Y-142292285D02*
X129235261Y-141625619D01*
X131235261Y-140958952D01*
X131235261Y-139149428D02*
X130282880Y-139816095D01*
X131235261Y-140292285D02*
X129235261Y-140292285D01*
X129235261Y-139530380D01*
X129330500Y-139339904D01*
X129425738Y-139244666D01*
X129616214Y-139149428D01*
X129901928Y-139149428D01*
X130092404Y-139244666D01*
X130187642Y-139339904D01*
X130282880Y-139530380D01*
X130282880Y-140292285D01*
X131235261Y-138292285D02*
X129235261Y-138292285D01*
X129235261Y-137816095D01*
X129330500Y-137530380D01*
X129520976Y-137339904D01*
X129711452Y-137244666D01*
X130092404Y-137149428D01*
X130378119Y-137149428D01*
X130759071Y-137244666D01*
X130949547Y-137339904D01*
X131140023Y-137530380D01*
X131235261Y-137816095D01*
X131235261Y-138292285D01*
D10*
X69117500Y-127785000D02*
X100867500Y-127785000D01*
X69117500Y-153820000D02*
X69117500Y-127785000D01*
X100867500Y-180490000D02*
X69117500Y-180490000D01*
X60027500Y-124635714D02*
X60027500Y-125207142D01*
X59684642Y-124521428D02*
X60884642Y-124921428D01*
X59684642Y-125321428D01*
X60884642Y-125721428D02*
X59913214Y-125721428D01*
X59798928Y-125778571D01*
X59741785Y-125835714D01*
X59684642Y-125950000D01*
X59684642Y-126178571D01*
X59741785Y-126292857D01*
X59798928Y-126350000D01*
X59913214Y-126407142D01*
X60884642Y-126407142D01*
X60884642Y-126864285D02*
X59684642Y-127664285D01*
X60884642Y-127664285D02*
X59684642Y-126864285D01*
X59684642Y-129664285D02*
X59684642Y-128978571D01*
X59684642Y-129321428D02*
X60884642Y-129321428D01*
X60713214Y-129207142D01*
X60598928Y-129092857D01*
X60541785Y-128978571D01*
X60027500Y-160195714D02*
X60027500Y-160767142D01*
X59684642Y-160081428D02*
X60884642Y-160481428D01*
X59684642Y-160881428D01*
X60884642Y-161281428D02*
X59913214Y-161281428D01*
X59798928Y-161338571D01*
X59741785Y-161395714D01*
X59684642Y-161510000D01*
X59684642Y-161738571D01*
X59741785Y-161852857D01*
X59798928Y-161910000D01*
X59913214Y-161967142D01*
X60884642Y-161967142D01*
X60884642Y-162424285D02*
X59684642Y-163224285D01*
X60884642Y-163224285D02*
X59684642Y-162424285D01*
X60884642Y-164824285D02*
X60884642Y-164938571D01*
X60827500Y-165052857D01*
X60770357Y-165110000D01*
X60656071Y-165167142D01*
X60427500Y-165224285D01*
X60141785Y-165224285D01*
X59913214Y-165167142D01*
X59798928Y-165110000D01*
X59741785Y-165052857D01*
X59684642Y-164938571D01*
X59684642Y-164824285D01*
X59741785Y-164710000D01*
X59798928Y-164652857D01*
X59913214Y-164595714D01*
X60141785Y-164538571D01*
X60427500Y-164538571D01*
X60656071Y-164595714D01*
X60770357Y-164652857D01*
X60827500Y-164710000D01*
X60884642Y-164824285D01*
X59173928Y-143225000D02*
X59745357Y-143225000D01*
X59059642Y-143567857D02*
X59459642Y-142367857D01*
X59859642Y-143567857D01*
X60259642Y-142367857D02*
X60259642Y-143339285D01*
X60316785Y-143453571D01*
X60373928Y-143510714D01*
X60488214Y-143567857D01*
X60716785Y-143567857D01*
X60831071Y-143510714D01*
X60888214Y-143453571D01*
X60945357Y-143339285D01*
X60945357Y-142367857D01*
X61402500Y-142367857D02*
X62202500Y-143567857D01*
X62202500Y-142367857D02*
X61402500Y-143567857D01*
X64202500Y-143567857D02*
X63516785Y-143567857D01*
X63859642Y-143567857D02*
X63859642Y-142367857D01*
X63745357Y-142539285D01*
X63631071Y-142653571D01*
X63516785Y-142710714D01*
X65459642Y-142367857D02*
X65859642Y-143567857D01*
X66259642Y-142367857D01*
X66659642Y-143110714D02*
X67573928Y-143110714D01*
X67116785Y-143567857D02*
X67116785Y-142653571D01*
X59173928Y-147035000D02*
X59745357Y-147035000D01*
X59059642Y-147377857D02*
X59459642Y-146177857D01*
X59859642Y-147377857D01*
X60259642Y-146177857D02*
X60259642Y-147149285D01*
X60316785Y-147263571D01*
X60373928Y-147320714D01*
X60488214Y-147377857D01*
X60716785Y-147377857D01*
X60831071Y-147320714D01*
X60888214Y-147263571D01*
X60945357Y-147149285D01*
X60945357Y-146177857D01*
X61402500Y-146177857D02*
X62202500Y-147377857D01*
X62202500Y-146177857D02*
X61402500Y-147377857D01*
X63802500Y-146177857D02*
X63916785Y-146177857D01*
X64031071Y-146235000D01*
X64088214Y-146292142D01*
X64145357Y-146406428D01*
X64202500Y-146635000D01*
X64202500Y-146920714D01*
X64145357Y-147149285D01*
X64088214Y-147263571D01*
X64031071Y-147320714D01*
X63916785Y-147377857D01*
X63802500Y-147377857D01*
X63688214Y-147320714D01*
X63631071Y-147263571D01*
X63573928Y-147149285D01*
X63516785Y-146920714D01*
X63516785Y-146635000D01*
X63573928Y-146406428D01*
X63631071Y-146292142D01*
X63688214Y-146235000D01*
X63802500Y-146177857D01*
X65459642Y-146177857D02*
X65859642Y-147377857D01*
X66259642Y-146177857D01*
X66659642Y-146920714D02*
X67573928Y-146920714D01*
X67116785Y-147377857D02*
X67116785Y-146463571D01*
X58233785Y-153797857D02*
X58976642Y-153797857D01*
X58576642Y-154255000D01*
X58748071Y-154255000D01*
X58862357Y-154312142D01*
X58919500Y-154369285D01*
X58976642Y-154483571D01*
X58976642Y-154769285D01*
X58919500Y-154883571D01*
X58862357Y-154940714D01*
X58748071Y-154997857D01*
X58405214Y-154997857D01*
X58290928Y-154940714D01*
X58233785Y-154883571D01*
X59319500Y-153797857D02*
X59719500Y-154997857D01*
X60119500Y-153797857D01*
X60405214Y-153797857D02*
X61148071Y-153797857D01*
X60748071Y-154255000D01*
X60919500Y-154255000D01*
X61033785Y-154312142D01*
X61090928Y-154369285D01*
X61148071Y-154483571D01*
X61148071Y-154769285D01*
X61090928Y-154883571D01*
X61033785Y-154940714D01*
X60919500Y-154997857D01*
X60576642Y-154997857D01*
X60462357Y-154940714D01*
X60405214Y-154883571D01*
X58290928Y-148959142D02*
X58348071Y-148902000D01*
X58462357Y-148844857D01*
X58748071Y-148844857D01*
X58862357Y-148902000D01*
X58919500Y-148959142D01*
X58976642Y-149073428D01*
X58976642Y-149187714D01*
X58919500Y-149359142D01*
X58233785Y-150044857D01*
X58976642Y-150044857D01*
X60005214Y-149244857D02*
X60005214Y-150044857D01*
X59719500Y-148787714D02*
X59433785Y-149644857D01*
X60176642Y-149644857D01*
X60462357Y-148844857D02*
X60862357Y-150044857D01*
X61262357Y-148844857D01*
X59998928Y-151384857D02*
X59427500Y-151384857D01*
X59370357Y-151956285D01*
X59427500Y-151899142D01*
X59541785Y-151842000D01*
X59827500Y-151842000D01*
X59941785Y-151899142D01*
X59998928Y-151956285D01*
X60056071Y-152070571D01*
X60056071Y-152356285D01*
X59998928Y-152470571D01*
X59941785Y-152527714D01*
X59827500Y-152584857D01*
X59541785Y-152584857D01*
X59427500Y-152527714D01*
X59370357Y-152470571D01*
X60398928Y-151384857D02*
X60798928Y-152584857D01*
X61198928Y-151384857D01*
X58233785Y-139827857D02*
X58976642Y-139827857D01*
X58576642Y-140285000D01*
X58748071Y-140285000D01*
X58862357Y-140342142D01*
X58919500Y-140399285D01*
X58976642Y-140513571D01*
X58976642Y-140799285D01*
X58919500Y-140913571D01*
X58862357Y-140970714D01*
X58748071Y-141027857D01*
X58405214Y-141027857D01*
X58290928Y-140970714D01*
X58233785Y-140913571D01*
X59319500Y-139827857D02*
X59719500Y-141027857D01*
X60119500Y-139827857D01*
X60405214Y-139827857D02*
X61148071Y-139827857D01*
X60748071Y-140285000D01*
X60919500Y-140285000D01*
X61033785Y-140342142D01*
X61090928Y-140399285D01*
X61148071Y-140513571D01*
X61148071Y-140799285D01*
X61090928Y-140913571D01*
X61033785Y-140970714D01*
X60919500Y-141027857D01*
X60576642Y-141027857D01*
X60462357Y-140970714D01*
X60405214Y-140913571D01*
X59998928Y-137414857D02*
X59427500Y-137414857D01*
X59370357Y-137986285D01*
X59427500Y-137929142D01*
X59541785Y-137872000D01*
X59827500Y-137872000D01*
X59941785Y-137929142D01*
X59998928Y-137986285D01*
X60056071Y-138100571D01*
X60056071Y-138386285D01*
X59998928Y-138500571D01*
X59941785Y-138557714D01*
X59827500Y-138614857D01*
X59541785Y-138614857D01*
X59427500Y-138557714D01*
X59370357Y-138500571D01*
X60398928Y-137414857D02*
X60798928Y-138614857D01*
X61198928Y-137414857D01*
X58290928Y-134989142D02*
X58348071Y-134932000D01*
X58462357Y-134874857D01*
X58748071Y-134874857D01*
X58862357Y-134932000D01*
X58919500Y-134989142D01*
X58976642Y-135103428D01*
X58976642Y-135217714D01*
X58919500Y-135389142D01*
X58233785Y-136074857D01*
X58976642Y-136074857D01*
X60005214Y-135274857D02*
X60005214Y-136074857D01*
X59719500Y-134817714D02*
X59433785Y-135674857D01*
X60176642Y-135674857D01*
X60462357Y-134874857D02*
X60862357Y-136074857D01*
X61262357Y-134874857D01*
D14*
X82419642Y-119799714D02*
X82491071Y-119585428D01*
X82491071Y-119228285D01*
X82419642Y-119085428D01*
X82348214Y-119014000D01*
X82205357Y-118942571D01*
X82062500Y-118942571D01*
X81919642Y-119014000D01*
X81848214Y-119085428D01*
X81776785Y-119228285D01*
X81705357Y-119514000D01*
X81633928Y-119656857D01*
X81562500Y-119728285D01*
X81419642Y-119799714D01*
X81276785Y-119799714D01*
X81133928Y-119728285D01*
X81062500Y-119656857D01*
X80991071Y-119514000D01*
X80991071Y-119156857D01*
X81062500Y-118942571D01*
X80991071Y-118442571D02*
X82491071Y-118085428D01*
X81419642Y-117799714D01*
X82491071Y-117514000D01*
X80991071Y-117156857D01*
X83790071Y-119434571D02*
X83790071Y-119148857D01*
X83861500Y-119006000D01*
X84004357Y-118863142D01*
X84290071Y-118791714D01*
X84790071Y-118791714D01*
X85075785Y-118863142D01*
X85218642Y-119006000D01*
X85290071Y-119148857D01*
X85290071Y-119434571D01*
X85218642Y-119577428D01*
X85075785Y-119720285D01*
X84790071Y-119791714D01*
X84290071Y-119791714D01*
X84004357Y-119720285D01*
X83861500Y-119577428D01*
X83790071Y-119434571D01*
X84504357Y-117648857D02*
X84504357Y-118148857D01*
X85290071Y-118148857D02*
X83790071Y-118148857D01*
X83790071Y-117434571D01*
X84504357Y-116363142D02*
X84504357Y-116863142D01*
X85290071Y-116863142D02*
X83790071Y-116863142D01*
X83790071Y-116148857D01*
D15*
X124756071Y-132122857D02*
X125256071Y-132122857D01*
X125470357Y-132908571D02*
X124756071Y-132908571D01*
X124756071Y-131408571D01*
X125470357Y-131408571D01*
X125970357Y-131408571D02*
X126970357Y-132908571D01*
X126970357Y-131408571D02*
X125970357Y-132908571D01*
X127327500Y-131408571D02*
X128184642Y-131408571D01*
X127756071Y-132908571D02*
X127756071Y-131408571D01*
X129541785Y-132908571D02*
X129041785Y-132194285D01*
X128684642Y-132908571D02*
X128684642Y-131408571D01*
X129256071Y-131408571D01*
X129398928Y-131480000D01*
X129470357Y-131551428D01*
X129541785Y-131694285D01*
X129541785Y-131908571D01*
X129470357Y-132051428D01*
X129398928Y-132122857D01*
X129256071Y-132194285D01*
X128684642Y-132194285D01*
X130184642Y-131408571D02*
X130184642Y-132622857D01*
X130256071Y-132765714D01*
X130327500Y-132837142D01*
X130470357Y-132908571D01*
X130756071Y-132908571D01*
X130898928Y-132837142D01*
X130970357Y-132765714D01*
X131041785Y-132622857D01*
X131041785Y-131408571D01*
X131756071Y-132908571D02*
X131756071Y-131408571D01*
X132113214Y-131408571D01*
X132327500Y-131480000D01*
X132470357Y-131622857D01*
X132541785Y-131765714D01*
X132613214Y-132051428D01*
X132613214Y-132265714D01*
X132541785Y-132551428D01*
X132470357Y-132694285D01*
X132327500Y-132837142D01*
X132113214Y-132908571D01*
X131756071Y-132908571D01*
X133256071Y-132122857D02*
X133756071Y-132122857D01*
X133970357Y-132908571D02*
X133256071Y-132908571D01*
X133256071Y-131408571D01*
X133970357Y-131408571D01*
X135470357Y-132908571D02*
X134970357Y-132194285D01*
X134613214Y-132908571D02*
X134613214Y-131408571D01*
X135184642Y-131408571D01*
X135327500Y-131480000D01*
X135398928Y-131551428D01*
X135470357Y-131694285D01*
X135470357Y-131908571D01*
X135398928Y-132051428D01*
X135327500Y-132122857D01*
X135184642Y-132194285D01*
X134613214Y-132194285D01*
D14*
X70249404Y-103555952D02*
X71677976Y-103555952D01*
X70963690Y-106055952D02*
X70963690Y-103555952D01*
X72987500Y-103555952D02*
X73463690Y-103555952D01*
X73701785Y-103675000D01*
X73939880Y-103913095D01*
X74058928Y-104389285D01*
X74058928Y-105222619D01*
X73939880Y-105698809D01*
X73701785Y-105936904D01*
X73463690Y-106055952D01*
X72987500Y-106055952D01*
X72749404Y-105936904D01*
X72511309Y-105698809D01*
X72392261Y-105222619D01*
X72392261Y-104389285D01*
X72511309Y-103913095D01*
X72749404Y-103675000D01*
X72987500Y-103555952D01*
X75606547Y-103555952D02*
X76082738Y-103555952D01*
X76320833Y-103675000D01*
X76558928Y-103913095D01*
X76677976Y-104389285D01*
X76677976Y-105222619D01*
X76558928Y-105698809D01*
X76320833Y-105936904D01*
X76082738Y-106055952D01*
X75606547Y-106055952D01*
X75368452Y-105936904D01*
X75130357Y-105698809D01*
X75011309Y-105222619D01*
X75011309Y-104389285D01*
X75130357Y-103913095D01*
X75368452Y-103675000D01*
X75606547Y-103555952D01*
X78939880Y-106055952D02*
X77749404Y-106055952D01*
X77749404Y-103555952D01*
X81558928Y-103794047D02*
X81677976Y-103675000D01*
X81916071Y-103555952D01*
X82511309Y-103555952D01*
X82749404Y-103675000D01*
X82868452Y-103794047D01*
X82987500Y-104032142D01*
X82987500Y-104270238D01*
X82868452Y-104627380D01*
X81439880Y-106055952D01*
X82987500Y-106055952D01*
X70249404Y-129590952D02*
X71677976Y-129590952D01*
X70963690Y-132090952D02*
X70963690Y-129590952D01*
X72987500Y-129590952D02*
X73463690Y-129590952D01*
X73701785Y-129710000D01*
X73939880Y-129948095D01*
X74058928Y-130424285D01*
X74058928Y-131257619D01*
X73939880Y-131733809D01*
X73701785Y-131971904D01*
X73463690Y-132090952D01*
X72987500Y-132090952D01*
X72749404Y-131971904D01*
X72511309Y-131733809D01*
X72392261Y-131257619D01*
X72392261Y-130424285D01*
X72511309Y-129948095D01*
X72749404Y-129710000D01*
X72987500Y-129590952D01*
X75606547Y-129590952D02*
X76082738Y-129590952D01*
X76320833Y-129710000D01*
X76558928Y-129948095D01*
X76677976Y-130424285D01*
X76677976Y-131257619D01*
X76558928Y-131733809D01*
X76320833Y-131971904D01*
X76082738Y-132090952D01*
X75606547Y-132090952D01*
X75368452Y-131971904D01*
X75130357Y-131733809D01*
X75011309Y-131257619D01*
X75011309Y-130424285D01*
X75130357Y-129948095D01*
X75368452Y-129710000D01*
X75606547Y-129590952D01*
X78939880Y-132090952D02*
X77749404Y-132090952D01*
X77749404Y-129590952D01*
X82987500Y-132090952D02*
X81558928Y-132090952D01*
X82273214Y-132090952D02*
X82273214Y-129590952D01*
X82035119Y-129948095D01*
X81797023Y-130186190D01*
X81558928Y-130305238D01*
X82419642Y-145707714D02*
X82491071Y-145493428D01*
X82491071Y-145136285D01*
X82419642Y-144993428D01*
X82348214Y-144922000D01*
X82205357Y-144850571D01*
X82062500Y-144850571D01*
X81919642Y-144922000D01*
X81848214Y-144993428D01*
X81776785Y-145136285D01*
X81705357Y-145422000D01*
X81633928Y-145564857D01*
X81562500Y-145636285D01*
X81419642Y-145707714D01*
X81276785Y-145707714D01*
X81133928Y-145636285D01*
X81062500Y-145564857D01*
X80991071Y-145422000D01*
X80991071Y-145064857D01*
X81062500Y-144850571D01*
X80991071Y-144350571D02*
X82491071Y-143993428D01*
X81419642Y-143707714D01*
X82491071Y-143422000D01*
X80991071Y-143064857D01*
X83790071Y-145342571D02*
X83790071Y-145056857D01*
X83861500Y-144914000D01*
X84004357Y-144771142D01*
X84290071Y-144699714D01*
X84790071Y-144699714D01*
X85075785Y-144771142D01*
X85218642Y-144914000D01*
X85290071Y-145056857D01*
X85290071Y-145342571D01*
X85218642Y-145485428D01*
X85075785Y-145628285D01*
X84790071Y-145699714D01*
X84290071Y-145699714D01*
X84004357Y-145628285D01*
X83861500Y-145485428D01*
X83790071Y-145342571D01*
X84504357Y-143556857D02*
X84504357Y-144056857D01*
X85290071Y-144056857D02*
X83790071Y-144056857D01*
X83790071Y-143342571D01*
X84504357Y-142271142D02*
X84504357Y-142771142D01*
X85290071Y-142771142D02*
X83790071Y-142771142D01*
X83790071Y-142056857D01*
X70249404Y-155625952D02*
X71677976Y-155625952D01*
X70963690Y-158125952D02*
X70963690Y-155625952D01*
X72987500Y-155625952D02*
X73463690Y-155625952D01*
X73701785Y-155745000D01*
X73939880Y-155983095D01*
X74058928Y-156459285D01*
X74058928Y-157292619D01*
X73939880Y-157768809D01*
X73701785Y-158006904D01*
X73463690Y-158125952D01*
X72987500Y-158125952D01*
X72749404Y-158006904D01*
X72511309Y-157768809D01*
X72392261Y-157292619D01*
X72392261Y-156459285D01*
X72511309Y-155983095D01*
X72749404Y-155745000D01*
X72987500Y-155625952D01*
X75606547Y-155625952D02*
X76082738Y-155625952D01*
X76320833Y-155745000D01*
X76558928Y-155983095D01*
X76677976Y-156459285D01*
X76677976Y-157292619D01*
X76558928Y-157768809D01*
X76320833Y-158006904D01*
X76082738Y-158125952D01*
X75606547Y-158125952D01*
X75368452Y-158006904D01*
X75130357Y-157768809D01*
X75011309Y-157292619D01*
X75011309Y-156459285D01*
X75130357Y-155983095D01*
X75368452Y-155745000D01*
X75606547Y-155625952D01*
X78939880Y-158125952D02*
X77749404Y-158125952D01*
X77749404Y-155625952D01*
X82154166Y-155625952D02*
X82392261Y-155625952D01*
X82630357Y-155745000D01*
X82749404Y-155864047D01*
X82868452Y-156102142D01*
X82987500Y-156578333D01*
X82987500Y-157173571D01*
X82868452Y-157649761D01*
X82749404Y-157887857D01*
X82630357Y-158006904D01*
X82392261Y-158125952D01*
X82154166Y-158125952D01*
X81916071Y-158006904D01*
X81797023Y-157887857D01*
X81677976Y-157649761D01*
X81558928Y-157173571D01*
X81558928Y-156578333D01*
X81677976Y-156102142D01*
X81797023Y-155864047D01*
X81916071Y-155745000D01*
X82154166Y-155625952D01*
X79726071Y-168718571D02*
X79726071Y-168432857D01*
X79797500Y-168290000D01*
X79940357Y-168147142D01*
X80226071Y-168075714D01*
X80726071Y-168075714D01*
X81011785Y-168147142D01*
X81154642Y-168290000D01*
X81226071Y-168432857D01*
X81226071Y-168718571D01*
X81154642Y-168861428D01*
X81011785Y-169004285D01*
X80726071Y-169075714D01*
X80226071Y-169075714D01*
X79940357Y-169004285D01*
X79797500Y-168861428D01*
X79726071Y-168718571D01*
X81226071Y-167432857D02*
X79726071Y-167432857D01*
X81226071Y-166575714D01*
X79726071Y-166575714D01*
X83689642Y-169075714D02*
X83761071Y-168861428D01*
X83761071Y-168504285D01*
X83689642Y-168361428D01*
X83618214Y-168290000D01*
X83475357Y-168218571D01*
X83332500Y-168218571D01*
X83189642Y-168290000D01*
X83118214Y-168361428D01*
X83046785Y-168504285D01*
X82975357Y-168790000D01*
X82903928Y-168932857D01*
X82832500Y-169004285D01*
X82689642Y-169075714D01*
X82546785Y-169075714D01*
X82403928Y-169004285D01*
X82332500Y-168932857D01*
X82261071Y-168790000D01*
X82261071Y-168432857D01*
X82332500Y-168218571D01*
X82261071Y-167718571D02*
X83761071Y-167361428D01*
X82689642Y-167075714D01*
X83761071Y-166790000D01*
X82261071Y-166432857D01*
X84806071Y-168710571D02*
X84806071Y-168424857D01*
X84877500Y-168282000D01*
X85020357Y-168139142D01*
X85306071Y-168067714D01*
X85806071Y-168067714D01*
X86091785Y-168139142D01*
X86234642Y-168282000D01*
X86306071Y-168424857D01*
X86306071Y-168710571D01*
X86234642Y-168853428D01*
X86091785Y-168996285D01*
X85806071Y-169067714D01*
X85306071Y-169067714D01*
X85020357Y-168996285D01*
X84877500Y-168853428D01*
X84806071Y-168710571D01*
X85520357Y-166924857D02*
X85520357Y-167424857D01*
X86306071Y-167424857D02*
X84806071Y-167424857D01*
X84806071Y-166710571D01*
X85520357Y-165639142D02*
X85520357Y-166139142D01*
X86306071Y-166139142D02*
X84806071Y-166139142D01*
X84806071Y-165424857D01*
D15*
%TO.C,J0*%
X114862500Y-97785000D02*
G75*
G03*
X114862500Y-97785000I-50000J0D01*
G01*
D16*
X118812500Y-89335000D02*
X118812500Y-94735000D01*
X91812500Y-89335000D02*
X118812500Y-89335000D01*
X91812500Y-94735000D02*
X91812500Y-89335000D01*
D11*
%TO.C,J21*%
X68057500Y-157360000D02*
X66807500Y-157360000D01*
X68057500Y-158610000D02*
X68057500Y-157360000D01*
X62557500Y-167010000D02*
X62557500Y-162710000D01*
X65507500Y-167010000D02*
X62557500Y-167010000D01*
X65507500Y-167760000D02*
X65507500Y-167010000D01*
X62557500Y-158410000D02*
X62557500Y-162710000D01*
X65507500Y-158410000D02*
X62557500Y-158410000D01*
X65507500Y-157660000D02*
X65507500Y-158410000D01*
X67757500Y-167760000D02*
X67757500Y-165960000D01*
X67007500Y-167760000D02*
X67757500Y-167760000D01*
X67007500Y-165960000D02*
X67007500Y-167760000D01*
X67757500Y-165960000D02*
X67007500Y-165960000D01*
X67757500Y-159460000D02*
X67757500Y-157660000D01*
X67007500Y-159460000D02*
X67757500Y-159460000D01*
X67007500Y-157660000D02*
X67007500Y-159460000D01*
X67757500Y-157660000D02*
X67007500Y-157660000D01*
X67757500Y-164460000D02*
X67757500Y-160960000D01*
X67007500Y-164460000D02*
X67757500Y-164460000D01*
X67007500Y-160960000D02*
X67007500Y-164460000D01*
X67757500Y-160960000D02*
X67007500Y-160960000D01*
X67767500Y-167770000D02*
X67767500Y-157650000D01*
X61797500Y-167770000D02*
X67767500Y-167770000D01*
X61797500Y-157650000D02*
X61797500Y-167770000D01*
X67767500Y-157650000D02*
X61797500Y-157650000D01*
%TO.C,JP6*%
X81122500Y-99397000D02*
X81122500Y-98067000D01*
X82452500Y-99397000D02*
X81122500Y-99397000D01*
X83722500Y-99397000D02*
X83722500Y-96737000D01*
X83722500Y-96737000D02*
X88862500Y-96737000D01*
X83722500Y-99397000D02*
X88862500Y-99397000D01*
X88862500Y-99397000D02*
X88862500Y-96737000D01*
D15*
%TO.C,J3*%
X113567500Y-169949000D02*
X113567500Y-178077000D01*
X123981500Y-178090000D02*
X123981500Y-170076000D01*
X113567500Y-178090000D02*
X123977500Y-178090000D01*
X118660176Y-169987806D02*
G75*
G02*
X123981499Y-170076001I2527324J-8089194D01*
G01*
X113526117Y-169962050D02*
G75*
G02*
X118647499Y-169949001I2581383J-8114950D01*
G01*
%TO.C,J2*%
X102137500Y-169949000D02*
X102137500Y-178077000D01*
X112551500Y-178090000D02*
X112551500Y-170076000D01*
X102137500Y-178090000D02*
X112547500Y-178090000D01*
X107230176Y-169987806D02*
G75*
G02*
X112551499Y-170076001I2527324J-8089194D01*
G01*
X102096117Y-169962050D02*
G75*
G02*
X107217499Y-169949001I2581383J-8114950D01*
G01*
%TO.C,J4*%
X113567500Y-143914000D02*
X113567500Y-152042000D01*
X123981500Y-152055000D02*
X123981500Y-144041000D01*
X113567500Y-152055000D02*
X123977500Y-152055000D01*
X118660176Y-143952806D02*
G75*
G02*
X123981499Y-144041001I2527324J-8089194D01*
G01*
X113526117Y-143927050D02*
G75*
G02*
X118647499Y-143914001I2581383J-8114950D01*
G01*
%TO.C,J5*%
X102137500Y-143914000D02*
X102137500Y-152042000D01*
X112551500Y-152055000D02*
X112551500Y-144041000D01*
X102137500Y-152055000D02*
X112547500Y-152055000D01*
X107230176Y-143952806D02*
G75*
G02*
X112551499Y-144041001I2527324J-8089194D01*
G01*
X102096117Y-143927050D02*
G75*
G02*
X107217499Y-143914001I2581383J-8114950D01*
G01*
%TO.C,J6*%
X102137500Y-117879000D02*
X102137500Y-126007000D01*
X112551500Y-126020000D02*
X112551500Y-118006000D01*
X102137500Y-126020000D02*
X112547500Y-126020000D01*
X107230176Y-117917806D02*
G75*
G02*
X112551499Y-118006001I2527324J-8089194D01*
G01*
X102096117Y-117892050D02*
G75*
G02*
X107217499Y-117879001I2581383J-8114950D01*
G01*
%TO.C,J7*%
X113567500Y-117879000D02*
X113567500Y-126007000D01*
X123981500Y-126020000D02*
X123981500Y-118006000D01*
X113567500Y-126020000D02*
X123977500Y-126020000D01*
X118660176Y-117917806D02*
G75*
G02*
X123981499Y-118006001I2527324J-8089194D01*
G01*
X113526117Y-117892050D02*
G75*
G02*
X118647499Y-117879001I2581383J-8114950D01*
G01*
%TO.C,LED2*%
X70857500Y-109150000D02*
X73657500Y-109150000D01*
X70857500Y-107050000D02*
X70857500Y-109150000D01*
X73657500Y-107050000D02*
X70857500Y-107050000D01*
%TO.C,LED1*%
X70762500Y-135185000D02*
X73562500Y-135185000D01*
X70762500Y-133085000D02*
X70762500Y-135185000D01*
X73562500Y-133085000D02*
X70762500Y-133085000D01*
%TO.C,LED0*%
X71127500Y-161220000D02*
X73927500Y-161220000D01*
X71127500Y-159120000D02*
X71127500Y-161220000D01*
X73927500Y-159120000D02*
X71127500Y-159120000D01*
%TO.C,Q2*%
X102637500Y-106770000D02*
X102637500Y-106770000D01*
X102437500Y-106770000D02*
X102437500Y-106770000D01*
D16*
X109437500Y-104342000D02*
X108582500Y-104342000D01*
X108582500Y-104342000D02*
X108582500Y-114398000D01*
X108582500Y-114398000D02*
X109437500Y-114398000D01*
D15*
X102637500Y-106770000D02*
G75*
G02*
X102437500Y-106770000I-100000J0D01*
G01*
X102437500Y-106770000D02*
G75*
G02*
X102637500Y-106770000I100000J0D01*
G01*
%TO.C,Q1*%
X102637500Y-132805000D02*
X102637500Y-132805000D01*
X102437500Y-132805000D02*
X102437500Y-132805000D01*
D16*
X109437500Y-130377000D02*
X108582500Y-130377000D01*
X108582500Y-130377000D02*
X108582500Y-140433000D01*
X108582500Y-140433000D02*
X109437500Y-140433000D01*
D15*
X102637500Y-132805000D02*
G75*
G02*
X102437500Y-132805000I-100000J0D01*
G01*
X102437500Y-132805000D02*
G75*
G02*
X102637500Y-132805000I100000J0D01*
G01*
%TO.C,Q0*%
X102764500Y-158840000D02*
X102764500Y-158840000D01*
X102564500Y-158840000D02*
X102564500Y-158840000D01*
D16*
X109564500Y-156412000D02*
X108709500Y-156412000D01*
X108709500Y-156412000D02*
X108709500Y-166468000D01*
X108709500Y-166468000D02*
X109564500Y-166468000D01*
D15*
X102764500Y-158840000D02*
G75*
G02*
X102564500Y-158840000I-100000J0D01*
G01*
X102564500Y-158840000D02*
G75*
G02*
X102764500Y-158840000I100000J0D01*
G01*
D11*
%TO.C,J19*%
X79587500Y-100690000D02*
X79587500Y-99440000D01*
X78337500Y-100690000D02*
X79587500Y-100690000D01*
X69937500Y-95190000D02*
X74237500Y-95190000D01*
X69937500Y-98140000D02*
X69937500Y-95190000D01*
X69187500Y-98140000D02*
X69937500Y-98140000D01*
X78537500Y-95190000D02*
X74237500Y-95190000D01*
X78537500Y-98140000D02*
X78537500Y-95190000D01*
X79287500Y-98140000D02*
X78537500Y-98140000D01*
X69187500Y-100390000D02*
X70987500Y-100390000D01*
X69187500Y-99640000D02*
X69187500Y-100390000D01*
X70987500Y-99640000D02*
X69187500Y-99640000D01*
X70987500Y-100390000D02*
X70987500Y-99640000D01*
X77487500Y-100390000D02*
X79287500Y-100390000D01*
X77487500Y-99640000D02*
X77487500Y-100390000D01*
X79287500Y-99640000D02*
X77487500Y-99640000D01*
X79287500Y-100390000D02*
X79287500Y-99640000D01*
X72487500Y-100390000D02*
X75987500Y-100390000D01*
X72487500Y-99640000D02*
X72487500Y-100390000D01*
X75987500Y-99640000D02*
X72487500Y-99640000D01*
X75987500Y-100390000D02*
X75987500Y-99640000D01*
X69177500Y-100400000D02*
X79297500Y-100400000D01*
X69177500Y-94430000D02*
X69177500Y-100400000D01*
X79297500Y-94430000D02*
X69177500Y-94430000D01*
X79297500Y-100400000D02*
X79297500Y-94430000D01*
%TO.C,J9*%
X89127500Y-163770000D02*
X89127500Y-165020000D01*
X90377500Y-163770000D02*
X89127500Y-163770000D01*
X98777500Y-169270000D02*
X94477500Y-169270000D01*
X98777500Y-166320000D02*
X98777500Y-169270000D01*
X99527500Y-166320000D02*
X98777500Y-166320000D01*
X90177500Y-169270000D02*
X94477500Y-169270000D01*
X90177500Y-166320000D02*
X90177500Y-169270000D01*
X89427500Y-166320000D02*
X90177500Y-166320000D01*
X99527500Y-164070000D02*
X97727500Y-164070000D01*
X99527500Y-164820000D02*
X99527500Y-164070000D01*
X97727500Y-164820000D02*
X99527500Y-164820000D01*
X97727500Y-164070000D02*
X97727500Y-164820000D01*
X91227500Y-164070000D02*
X89427500Y-164070000D01*
X91227500Y-164820000D02*
X91227500Y-164070000D01*
X89427500Y-164820000D02*
X91227500Y-164820000D01*
X89427500Y-164070000D02*
X89427500Y-164820000D01*
X96227500Y-164070000D02*
X92727500Y-164070000D01*
X96227500Y-164820000D02*
X96227500Y-164070000D01*
X92727500Y-164820000D02*
X96227500Y-164820000D01*
X92727500Y-164070000D02*
X92727500Y-164820000D01*
X99537500Y-164060000D02*
X89417500Y-164060000D01*
X99537500Y-170030000D02*
X99537500Y-164060000D01*
X89417500Y-170030000D02*
X99537500Y-170030000D01*
X89417500Y-164060000D02*
X89417500Y-170030000D01*
%TO.C,J15*%
X76947500Y-137635000D02*
X75697500Y-137635000D01*
X76947500Y-138885000D02*
X76947500Y-137635000D01*
X71447500Y-149785000D02*
X71447500Y-144235000D01*
X74397500Y-149785000D02*
X71447500Y-149785000D01*
X74397500Y-150535000D02*
X74397500Y-149785000D01*
X71447500Y-138685000D02*
X71447500Y-144235000D01*
X74397500Y-138685000D02*
X71447500Y-138685000D01*
X74397500Y-137935000D02*
X74397500Y-138685000D01*
X76647500Y-150535000D02*
X76647500Y-148735000D01*
X75897500Y-150535000D02*
X76647500Y-150535000D01*
X75897500Y-148735000D02*
X75897500Y-150535000D01*
X76647500Y-148735000D02*
X75897500Y-148735000D01*
X76647500Y-139735000D02*
X76647500Y-137935000D01*
X75897500Y-139735000D02*
X76647500Y-139735000D01*
X75897500Y-137935000D02*
X75897500Y-139735000D01*
X76647500Y-137935000D02*
X75897500Y-137935000D01*
X76647500Y-147235000D02*
X76647500Y-141235000D01*
X75897500Y-147235000D02*
X76647500Y-147235000D01*
X75897500Y-141235000D02*
X75897500Y-147235000D01*
X76647500Y-141235000D02*
X75897500Y-141235000D01*
X76657500Y-150545000D02*
X76657500Y-137925000D01*
X70687500Y-150545000D02*
X76657500Y-150545000D01*
X70687500Y-137925000D02*
X70687500Y-150545000D01*
X76657500Y-137925000D02*
X70687500Y-137925000D01*
%TO.C,J1*%
X127617500Y-129710000D02*
X133587500Y-129710000D01*
X133587500Y-129710000D02*
X133587500Y-117090000D01*
X133587500Y-117090000D02*
X127617500Y-117090000D01*
X127617500Y-117090000D02*
X127617500Y-129710000D01*
X127627500Y-126400000D02*
X128377500Y-126400000D01*
X128377500Y-126400000D02*
X128377500Y-120400000D01*
X128377500Y-120400000D02*
X127627500Y-120400000D01*
X127627500Y-120400000D02*
X127627500Y-126400000D01*
X127627500Y-129700000D02*
X128377500Y-129700000D01*
X128377500Y-129700000D02*
X128377500Y-127900000D01*
X128377500Y-127900000D02*
X127627500Y-127900000D01*
X127627500Y-127900000D02*
X127627500Y-129700000D01*
X127627500Y-118900000D02*
X128377500Y-118900000D01*
X128377500Y-118900000D02*
X128377500Y-117100000D01*
X128377500Y-117100000D02*
X127627500Y-117100000D01*
X127627500Y-117100000D02*
X127627500Y-118900000D01*
X129877500Y-129700000D02*
X129877500Y-128950000D01*
X129877500Y-128950000D02*
X132827500Y-128950000D01*
X132827500Y-128950000D02*
X132827500Y-123400000D01*
X129877500Y-117100000D02*
X129877500Y-117850000D01*
X129877500Y-117850000D02*
X132827500Y-117850000D01*
X132827500Y-117850000D02*
X132827500Y-123400000D01*
X127327500Y-128750000D02*
X127327500Y-130000000D01*
X127327500Y-130000000D02*
X128577500Y-130000000D01*
%TO.C,J14*%
X76947500Y-163670000D02*
X75697500Y-163670000D01*
X76947500Y-164920000D02*
X76947500Y-163670000D01*
X71447500Y-175820000D02*
X71447500Y-170270000D01*
X74397500Y-175820000D02*
X71447500Y-175820000D01*
X74397500Y-176570000D02*
X74397500Y-175820000D01*
X71447500Y-164720000D02*
X71447500Y-170270000D01*
X74397500Y-164720000D02*
X71447500Y-164720000D01*
X74397500Y-163970000D02*
X74397500Y-164720000D01*
X76647500Y-176570000D02*
X76647500Y-174770000D01*
X75897500Y-176570000D02*
X76647500Y-176570000D01*
X75897500Y-174770000D02*
X75897500Y-176570000D01*
X76647500Y-174770000D02*
X75897500Y-174770000D01*
X76647500Y-165770000D02*
X76647500Y-163970000D01*
X75897500Y-165770000D02*
X76647500Y-165770000D01*
X75897500Y-163970000D02*
X75897500Y-165770000D01*
X76647500Y-163970000D02*
X75897500Y-163970000D01*
X76647500Y-173270000D02*
X76647500Y-167270000D01*
X75897500Y-173270000D02*
X76647500Y-173270000D01*
X75897500Y-167270000D02*
X75897500Y-173270000D01*
X76647500Y-167270000D02*
X75897500Y-167270000D01*
X76657500Y-176580000D02*
X76657500Y-163960000D01*
X70687500Y-176580000D02*
X76657500Y-176580000D01*
X70687500Y-163960000D02*
X70687500Y-176580000D01*
X76657500Y-163960000D02*
X70687500Y-163960000D01*
%TO.C,J16*%
X76947500Y-111600000D02*
X75697500Y-111600000D01*
X76947500Y-112850000D02*
X76947500Y-111600000D01*
X71447500Y-123750000D02*
X71447500Y-118200000D01*
X74397500Y-123750000D02*
X71447500Y-123750000D01*
X74397500Y-124500000D02*
X74397500Y-123750000D01*
X71447500Y-112650000D02*
X71447500Y-118200000D01*
X74397500Y-112650000D02*
X71447500Y-112650000D01*
X74397500Y-111900000D02*
X74397500Y-112650000D01*
X76647500Y-124500000D02*
X76647500Y-122700000D01*
X75897500Y-124500000D02*
X76647500Y-124500000D01*
X75897500Y-122700000D02*
X75897500Y-124500000D01*
X76647500Y-122700000D02*
X75897500Y-122700000D01*
X76647500Y-113700000D02*
X76647500Y-111900000D01*
X75897500Y-113700000D02*
X76647500Y-113700000D01*
X75897500Y-111900000D02*
X75897500Y-113700000D01*
X76647500Y-111900000D02*
X75897500Y-111900000D01*
X76647500Y-121200000D02*
X76647500Y-115200000D01*
X75897500Y-121200000D02*
X76647500Y-121200000D01*
X75897500Y-115200000D02*
X75897500Y-121200000D01*
X76647500Y-115200000D02*
X75897500Y-115200000D01*
X76657500Y-124510000D02*
X76657500Y-111890000D01*
X70687500Y-124510000D02*
X76657500Y-124510000D01*
X70687500Y-111890000D02*
X70687500Y-124510000D01*
X76657500Y-111890000D02*
X70687500Y-111890000D01*
%TO.C,J22*%
X68057500Y-121840000D02*
X66807500Y-121840000D01*
X68057500Y-123090000D02*
X68057500Y-121840000D01*
X62557500Y-131490000D02*
X62557500Y-127190000D01*
X65507500Y-131490000D02*
X62557500Y-131490000D01*
X65507500Y-132240000D02*
X65507500Y-131490000D01*
X62557500Y-122890000D02*
X62557500Y-127190000D01*
X65507500Y-122890000D02*
X62557500Y-122890000D01*
X65507500Y-122140000D02*
X65507500Y-122890000D01*
X67757500Y-132240000D02*
X67757500Y-130440000D01*
X67007500Y-132240000D02*
X67757500Y-132240000D01*
X67007500Y-130440000D02*
X67007500Y-132240000D01*
X67757500Y-130440000D02*
X67007500Y-130440000D01*
X67757500Y-123940000D02*
X67757500Y-122140000D01*
X67007500Y-123940000D02*
X67757500Y-123940000D01*
X67007500Y-122140000D02*
X67007500Y-123940000D01*
X67757500Y-122140000D02*
X67007500Y-122140000D01*
X67757500Y-128940000D02*
X67757500Y-125440000D01*
X67007500Y-128940000D02*
X67757500Y-128940000D01*
X67007500Y-125440000D02*
X67007500Y-128940000D01*
X67757500Y-125440000D02*
X67007500Y-125440000D01*
X67767500Y-132250000D02*
X67767500Y-122130000D01*
X61797500Y-132250000D02*
X67767500Y-132250000D01*
X61797500Y-122130000D02*
X61797500Y-132250000D01*
X67767500Y-122130000D02*
X61797500Y-122130000D01*
%TO.C,R14*%
X100967500Y-105136064D02*
X100967500Y-104681936D01*
X99497500Y-105136064D02*
X99497500Y-104681936D01*
%TO.C,R13*%
X100967500Y-109343064D02*
X100967500Y-108888936D01*
X99497500Y-109343064D02*
X99497500Y-108888936D01*
%TO.C,R12*%
X100967500Y-131187064D02*
X100967500Y-130732936D01*
X99497500Y-131187064D02*
X99497500Y-130732936D01*
%TO.C,R11*%
X100967500Y-135267064D02*
X100967500Y-134812936D01*
X99497500Y-135267064D02*
X99497500Y-134812936D01*
%TO.C,R10*%
X100967500Y-157325564D02*
X100967500Y-156871436D01*
X99497500Y-157325564D02*
X99497500Y-156871436D01*
%TO.C,R9*%
X100967500Y-161397064D02*
X100967500Y-160942936D01*
X99497500Y-161397064D02*
X99497500Y-160942936D01*
%TO.C,R8*%
X84600564Y-107365000D02*
X84146436Y-107365000D01*
X84600564Y-108835000D02*
X84146436Y-108835000D01*
%TO.C,R7*%
X88410564Y-107365000D02*
X87956436Y-107365000D01*
X88410564Y-108835000D02*
X87956436Y-108835000D01*
%TO.C,R6*%
X84600564Y-133400000D02*
X84146436Y-133400000D01*
X84600564Y-134870000D02*
X84146436Y-134870000D01*
%TO.C,R5*%
X88410564Y-133400000D02*
X87956436Y-133400000D01*
X88410564Y-134870000D02*
X87956436Y-134870000D01*
%TO.C,R4*%
X84584564Y-159435000D02*
X84130436Y-159435000D01*
X84584564Y-160905000D02*
X84130436Y-160905000D01*
%TO.C,R3*%
X88394564Y-159435000D02*
X87940436Y-159435000D01*
X88394564Y-160905000D02*
X87940436Y-160905000D01*
%TO.C,R2*%
X80774564Y-107365000D02*
X80320436Y-107365000D01*
X80774564Y-108835000D02*
X80320436Y-108835000D01*
%TO.C,R1*%
X80774564Y-133400000D02*
X80320436Y-133400000D01*
X80774564Y-134870000D02*
X80320436Y-134870000D01*
%TO.C,R0*%
X80774564Y-159435000D02*
X80320436Y-159435000D01*
X80774564Y-160905000D02*
X80320436Y-160905000D01*
D15*
%TO.C,Q5*%
X95977500Y-107215000D02*
X95977500Y-107715000D01*
X95977500Y-107715000D02*
X93057500Y-107715000D01*
X93057500Y-107715000D02*
X93057500Y-107215000D01*
X93057500Y-107215000D02*
X95977500Y-107215000D01*
X96042500Y-105765000D02*
X96042500Y-106865000D01*
%TO.C,Q4*%
X95977500Y-133885000D02*
X95977500Y-134385000D01*
X95977500Y-134385000D02*
X93057500Y-134385000D01*
X93057500Y-134385000D02*
X93057500Y-133885000D01*
X93057500Y-133885000D02*
X95977500Y-133885000D01*
X96042500Y-132435000D02*
X96042500Y-133535000D01*
%TO.C,Q3*%
X95977500Y-159920000D02*
X95977500Y-160420000D01*
X95977500Y-160420000D02*
X93057500Y-160420000D01*
X93057500Y-160420000D02*
X93057500Y-159920000D01*
X93057500Y-159920000D02*
X95977500Y-159920000D01*
X96042500Y-158470000D02*
X96042500Y-159570000D01*
D11*
%TO.C,JP5*%
X62072500Y-134075000D02*
X63402500Y-134075000D01*
X62072500Y-135405000D02*
X62072500Y-134075000D01*
X64672500Y-134075000D02*
X67272500Y-134075000D01*
X64672500Y-136675000D02*
X64672500Y-134075000D01*
X62072500Y-136675000D02*
X64672500Y-136675000D01*
X67272500Y-134075000D02*
X67272500Y-141815000D01*
X62072500Y-136675000D02*
X62072500Y-141815000D01*
X62072500Y-141815000D02*
X67272500Y-141815000D01*
%TO.C,JP4*%
X62072500Y-148045000D02*
X63402500Y-148045000D01*
X62072500Y-149375000D02*
X62072500Y-148045000D01*
X64672500Y-148045000D02*
X67272500Y-148045000D01*
X64672500Y-150645000D02*
X64672500Y-148045000D01*
X62072500Y-150645000D02*
X64672500Y-150645000D01*
X67272500Y-148045000D02*
X67272500Y-155785000D01*
X62072500Y-150645000D02*
X62072500Y-155785000D01*
X62072500Y-155785000D02*
X67272500Y-155785000D01*
%TO.C,J20*%
X87207500Y-93070000D02*
X87207500Y-91820000D01*
X85957500Y-93070000D02*
X87207500Y-93070000D01*
X72557500Y-87570000D02*
X79357500Y-87570000D01*
X72557500Y-90520000D02*
X72557500Y-87570000D01*
X71807500Y-90520000D02*
X72557500Y-90520000D01*
X86157500Y-87570000D02*
X79357500Y-87570000D01*
X86157500Y-90520000D02*
X86157500Y-87570000D01*
X86907500Y-90520000D02*
X86157500Y-90520000D01*
X71807500Y-92770000D02*
X73607500Y-92770000D01*
X71807500Y-92020000D02*
X71807500Y-92770000D01*
X73607500Y-92020000D02*
X71807500Y-92020000D01*
X73607500Y-92770000D02*
X73607500Y-92020000D01*
X85107500Y-92770000D02*
X86907500Y-92770000D01*
X85107500Y-92020000D02*
X85107500Y-92770000D01*
X86907500Y-92020000D02*
X85107500Y-92020000D01*
X86907500Y-92770000D02*
X86907500Y-92020000D01*
X75107500Y-92770000D02*
X83607500Y-92770000D01*
X75107500Y-92020000D02*
X75107500Y-92770000D01*
X83607500Y-92020000D02*
X75107500Y-92020000D01*
X83607500Y-92770000D02*
X83607500Y-92020000D01*
X71797500Y-92780000D02*
X86917500Y-92780000D01*
X71797500Y-86810000D02*
X71797500Y-92780000D01*
X86917500Y-86810000D02*
X71797500Y-86810000D01*
X86917500Y-92780000D02*
X86917500Y-86810000D01*
%TO.C,J17*%
X68057500Y-107790000D02*
X66807500Y-107790000D01*
X68057500Y-109040000D02*
X68057500Y-107790000D01*
X62557500Y-114940000D02*
X62557500Y-111890000D01*
X65507500Y-114940000D02*
X62557500Y-114940000D01*
X65507500Y-115690000D02*
X65507500Y-114940000D01*
X62557500Y-108840000D02*
X62557500Y-111890000D01*
X65507500Y-108840000D02*
X62557500Y-108840000D01*
X65507500Y-108090000D02*
X65507500Y-108840000D01*
X67757500Y-115690000D02*
X67757500Y-113890000D01*
X67007500Y-115690000D02*
X67757500Y-115690000D01*
X67007500Y-113890000D02*
X67007500Y-115690000D01*
X67757500Y-113890000D02*
X67007500Y-113890000D01*
X67757500Y-109890000D02*
X67757500Y-108090000D01*
X67007500Y-109890000D02*
X67757500Y-109890000D01*
X67007500Y-108090000D02*
X67007500Y-109890000D01*
X67757500Y-108090000D02*
X67007500Y-108090000D01*
X67757500Y-112390000D02*
X67757500Y-111390000D01*
X67007500Y-112390000D02*
X67757500Y-112390000D01*
X67007500Y-111390000D02*
X67007500Y-112390000D01*
X67757500Y-111390000D02*
X67007500Y-111390000D01*
X67767500Y-115700000D02*
X67767500Y-108080000D01*
X61797500Y-115700000D02*
X67767500Y-115700000D01*
X61797500Y-108080000D02*
X61797500Y-115700000D01*
X67767500Y-108080000D02*
X61797500Y-108080000D01*
%TO.C,J12*%
X89127500Y-111700000D02*
X89127500Y-112950000D01*
X90377500Y-111700000D02*
X89127500Y-111700000D01*
X98777500Y-117200000D02*
X94477500Y-117200000D01*
X98777500Y-114250000D02*
X98777500Y-117200000D01*
X99527500Y-114250000D02*
X98777500Y-114250000D01*
X90177500Y-117200000D02*
X94477500Y-117200000D01*
X90177500Y-114250000D02*
X90177500Y-117200000D01*
X89427500Y-114250000D02*
X90177500Y-114250000D01*
X99527500Y-112000000D02*
X97727500Y-112000000D01*
X99527500Y-112750000D02*
X99527500Y-112000000D01*
X97727500Y-112750000D02*
X99527500Y-112750000D01*
X97727500Y-112000000D02*
X97727500Y-112750000D01*
X91227500Y-112000000D02*
X89427500Y-112000000D01*
X91227500Y-112750000D02*
X91227500Y-112000000D01*
X89427500Y-112750000D02*
X91227500Y-112750000D01*
X89427500Y-112000000D02*
X89427500Y-112750000D01*
X96227500Y-112000000D02*
X92727500Y-112000000D01*
X96227500Y-112750000D02*
X96227500Y-112000000D01*
X92727500Y-112750000D02*
X96227500Y-112750000D01*
X92727500Y-112000000D02*
X92727500Y-112750000D01*
X99537500Y-111990000D02*
X89417500Y-111990000D01*
X99537500Y-117960000D02*
X99537500Y-111990000D01*
X89417500Y-117960000D02*
X99537500Y-117960000D01*
X89417500Y-111990000D02*
X89417500Y-117960000D01*
%TO.C,J10*%
X89127500Y-145355000D02*
X89127500Y-146605000D01*
X90377500Y-145355000D02*
X89127500Y-145355000D01*
X98777500Y-150855000D02*
X94477500Y-150855000D01*
X98777500Y-147905000D02*
X98777500Y-150855000D01*
X99527500Y-147905000D02*
X98777500Y-147905000D01*
X90177500Y-150855000D02*
X94477500Y-150855000D01*
X90177500Y-147905000D02*
X90177500Y-150855000D01*
X89427500Y-147905000D02*
X90177500Y-147905000D01*
X99527500Y-145655000D02*
X97727500Y-145655000D01*
X99527500Y-146405000D02*
X99527500Y-145655000D01*
X97727500Y-146405000D02*
X99527500Y-146405000D01*
X97727500Y-145655000D02*
X97727500Y-146405000D01*
X91227500Y-145655000D02*
X89427500Y-145655000D01*
X91227500Y-146405000D02*
X91227500Y-145655000D01*
X89427500Y-146405000D02*
X91227500Y-146405000D01*
X89427500Y-145655000D02*
X89427500Y-146405000D01*
X96227500Y-145655000D02*
X92727500Y-145655000D01*
X96227500Y-146405000D02*
X96227500Y-145655000D01*
X92727500Y-146405000D02*
X96227500Y-146405000D01*
X92727500Y-145655000D02*
X92727500Y-146405000D01*
X99537500Y-145645000D02*
X89417500Y-145645000D01*
X99537500Y-151615000D02*
X99537500Y-145645000D01*
X89417500Y-151615000D02*
X99537500Y-151615000D01*
X89417500Y-145645000D02*
X89417500Y-151615000D01*
%TO.C,J8*%
X89127500Y-171390000D02*
X89127500Y-172640000D01*
X90377500Y-171390000D02*
X89127500Y-171390000D01*
X98777500Y-176890000D02*
X94477500Y-176890000D01*
X98777500Y-173940000D02*
X98777500Y-176890000D01*
X99527500Y-173940000D02*
X98777500Y-173940000D01*
X90177500Y-176890000D02*
X94477500Y-176890000D01*
X90177500Y-173940000D02*
X90177500Y-176890000D01*
X89427500Y-173940000D02*
X90177500Y-173940000D01*
X99527500Y-171690000D02*
X97727500Y-171690000D01*
X99527500Y-172440000D02*
X99527500Y-171690000D01*
X97727500Y-172440000D02*
X99527500Y-172440000D01*
X97727500Y-171690000D02*
X97727500Y-172440000D01*
X91227500Y-171690000D02*
X89427500Y-171690000D01*
X91227500Y-172440000D02*
X91227500Y-171690000D01*
X89427500Y-172440000D02*
X91227500Y-172440000D01*
X89427500Y-171690000D02*
X89427500Y-172440000D01*
X96227500Y-171690000D02*
X92727500Y-171690000D01*
X96227500Y-172440000D02*
X96227500Y-171690000D01*
X92727500Y-172440000D02*
X96227500Y-172440000D01*
X92727500Y-171690000D02*
X92727500Y-172440000D01*
X99537500Y-171680000D02*
X89417500Y-171680000D01*
X99537500Y-177650000D02*
X99537500Y-171680000D01*
X89417500Y-177650000D02*
X99537500Y-177650000D01*
X89417500Y-171680000D02*
X89417500Y-177650000D01*
%TO.C,C2*%
X80286248Y-112645000D02*
X80808752Y-112645000D01*
X80286248Y-111175000D02*
X80808752Y-111175000D01*
%TO.C,C1*%
X80286248Y-137210000D02*
X80808752Y-137210000D01*
X80286248Y-138680000D02*
X80808752Y-138680000D01*
%TO.C,C0*%
X80286248Y-164715000D02*
X80808752Y-164715000D01*
X80286248Y-163245000D02*
X80808752Y-163245000D01*
D15*
%TO.C,Z4*%
X133282500Y-113974000D02*
X133282500Y-108974000D01*
X130682500Y-108974000D02*
X130682500Y-113974000D01*
X133282500Y-113974000D02*
X130682500Y-113974000D01*
X130682500Y-108974000D02*
X133282500Y-108974000D01*
X130712500Y-115284000D02*
X133252500Y-115284000D01*
%TO.C,Z3*%
X129726500Y-113974000D02*
X129726500Y-108974000D01*
X127126500Y-108974000D02*
X127126500Y-113974000D01*
X129726500Y-113974000D02*
X127126500Y-113974000D01*
X127126500Y-108974000D02*
X129726500Y-108974000D01*
X127156500Y-115284000D02*
X129696500Y-115284000D01*
%TO.C,Z2*%
X133282500Y-102599000D02*
X133282500Y-97599000D01*
X130682500Y-97599000D02*
X130682500Y-102599000D01*
X133282500Y-102599000D02*
X130682500Y-102599000D01*
X130682500Y-97599000D02*
X133282500Y-97599000D01*
X130712500Y-103909000D02*
X133252500Y-103909000D01*
%TO.C,Z1*%
X129726500Y-102599000D02*
X129726500Y-97599000D01*
X127126500Y-97599000D02*
X127126500Y-102599000D01*
X129726500Y-102599000D02*
X127126500Y-102599000D01*
X127126500Y-97599000D02*
X129726500Y-97599000D01*
X127156500Y-103909000D02*
X129696500Y-103909000D01*
D11*
%TO.C,JP0*%
X86957500Y-175470000D02*
X86957500Y-170270000D01*
X81817500Y-175470000D02*
X86957500Y-175470000D01*
X79217500Y-170270000D02*
X86957500Y-170270000D01*
X81817500Y-175470000D02*
X81817500Y-172870000D01*
X81817500Y-172870000D02*
X79217500Y-172870000D01*
X79217500Y-172870000D02*
X79217500Y-170270000D01*
X80547500Y-175470000D02*
X79217500Y-175470000D01*
X79217500Y-175470000D02*
X79217500Y-174140000D01*
%TO.C,J13*%
X89127500Y-119320000D02*
X89127500Y-120570000D01*
X90377500Y-119320000D02*
X89127500Y-119320000D01*
X98777500Y-124820000D02*
X94477500Y-124820000D01*
X98777500Y-121870000D02*
X98777500Y-124820000D01*
X99527500Y-121870000D02*
X98777500Y-121870000D01*
X90177500Y-124820000D02*
X94477500Y-124820000D01*
X90177500Y-121870000D02*
X90177500Y-124820000D01*
X89427500Y-121870000D02*
X90177500Y-121870000D01*
X99527500Y-119620000D02*
X97727500Y-119620000D01*
X99527500Y-120370000D02*
X99527500Y-119620000D01*
X97727500Y-120370000D02*
X99527500Y-120370000D01*
X97727500Y-119620000D02*
X97727500Y-120370000D01*
X91227500Y-119620000D02*
X89427500Y-119620000D01*
X91227500Y-120370000D02*
X91227500Y-119620000D01*
X89427500Y-120370000D02*
X91227500Y-120370000D01*
X89427500Y-119620000D02*
X89427500Y-120370000D01*
X96227500Y-119620000D02*
X92727500Y-119620000D01*
X96227500Y-120370000D02*
X96227500Y-119620000D01*
X92727500Y-120370000D02*
X96227500Y-120370000D01*
X92727500Y-119620000D02*
X92727500Y-120370000D01*
X99537500Y-119610000D02*
X89417500Y-119610000D01*
X99537500Y-125580000D02*
X99537500Y-119610000D01*
X89417500Y-125580000D02*
X99537500Y-125580000D01*
X89417500Y-119610000D02*
X89417500Y-125580000D01*
%TO.C,J11*%
X89127500Y-137735000D02*
X89127500Y-138985000D01*
X90377500Y-137735000D02*
X89127500Y-137735000D01*
X98777500Y-143235000D02*
X94477500Y-143235000D01*
X98777500Y-140285000D02*
X98777500Y-143235000D01*
X99527500Y-140285000D02*
X98777500Y-140285000D01*
X90177500Y-143235000D02*
X94477500Y-143235000D01*
X90177500Y-140285000D02*
X90177500Y-143235000D01*
X89427500Y-140285000D02*
X90177500Y-140285000D01*
X99527500Y-138035000D02*
X97727500Y-138035000D01*
X99527500Y-138785000D02*
X99527500Y-138035000D01*
X97727500Y-138785000D02*
X99527500Y-138785000D01*
X97727500Y-138035000D02*
X97727500Y-138785000D01*
X91227500Y-138035000D02*
X89427500Y-138035000D01*
X91227500Y-138785000D02*
X91227500Y-138035000D01*
X89427500Y-138785000D02*
X91227500Y-138785000D01*
X89427500Y-138035000D02*
X89427500Y-138785000D01*
X96227500Y-138035000D02*
X92727500Y-138035000D01*
X96227500Y-138785000D02*
X96227500Y-138035000D01*
X92727500Y-138785000D02*
X96227500Y-138785000D01*
X92727500Y-138035000D02*
X92727500Y-138785000D01*
X99537500Y-138025000D02*
X89417500Y-138025000D01*
X99537500Y-143995000D02*
X99537500Y-138025000D01*
X89417500Y-143995000D02*
X99537500Y-143995000D01*
X89417500Y-138025000D02*
X89417500Y-143995000D01*
%TO.C,J18*%
X67767500Y-98555000D02*
X61797500Y-98555000D01*
X61797500Y-98555000D02*
X61797500Y-106175000D01*
X61797500Y-106175000D02*
X67767500Y-106175000D01*
X67767500Y-106175000D02*
X67767500Y-98555000D01*
X67757500Y-101865000D02*
X67007500Y-101865000D01*
X67007500Y-101865000D02*
X67007500Y-102865000D01*
X67007500Y-102865000D02*
X67757500Y-102865000D01*
X67757500Y-102865000D02*
X67757500Y-101865000D01*
X67757500Y-98565000D02*
X67007500Y-98565000D01*
X67007500Y-98565000D02*
X67007500Y-100365000D01*
X67007500Y-100365000D02*
X67757500Y-100365000D01*
X67757500Y-100365000D02*
X67757500Y-98565000D01*
X67757500Y-104365000D02*
X67007500Y-104365000D01*
X67007500Y-104365000D02*
X67007500Y-106165000D01*
X67007500Y-106165000D02*
X67757500Y-106165000D01*
X67757500Y-106165000D02*
X67757500Y-104365000D01*
X65507500Y-98565000D02*
X65507500Y-99315000D01*
X65507500Y-99315000D02*
X62557500Y-99315000D01*
X62557500Y-99315000D02*
X62557500Y-102365000D01*
X65507500Y-106165000D02*
X65507500Y-105415000D01*
X65507500Y-105415000D02*
X62557500Y-105415000D01*
X62557500Y-105415000D02*
X62557500Y-102365000D01*
X68057500Y-99515000D02*
X68057500Y-98265000D01*
X68057500Y-98265000D02*
X66807500Y-98265000D01*
%TO.C,JP1*%
X79217500Y-149435000D02*
X79217500Y-148105000D01*
X80547500Y-149435000D02*
X79217500Y-149435000D01*
X81817500Y-149435000D02*
X81817500Y-146775000D01*
X81817500Y-146775000D02*
X86957500Y-146775000D01*
X81817500Y-149435000D02*
X86957500Y-149435000D01*
X86957500Y-149435000D02*
X86957500Y-146775000D01*
%TO.C,JP2*%
X86957500Y-123400000D02*
X86957500Y-120740000D01*
X81817500Y-123400000D02*
X86957500Y-123400000D01*
X81817500Y-120740000D02*
X86957500Y-120740000D01*
X81817500Y-123400000D02*
X81817500Y-120740000D01*
X80547500Y-123400000D02*
X79217500Y-123400000D01*
X79217500Y-123400000D02*
X79217500Y-122070000D01*
%TO.C,J0*%
D15*
X94118071Y-100761714D02*
X94046642Y-100833142D01*
X93832357Y-100904571D01*
X93689500Y-100904571D01*
X93475214Y-100833142D01*
X93332357Y-100690285D01*
X93260928Y-100547428D01*
X93189500Y-100261714D01*
X93189500Y-100047428D01*
X93260928Y-99761714D01*
X93332357Y-99618857D01*
X93475214Y-99476000D01*
X93689500Y-99404571D01*
X93832357Y-99404571D01*
X94046642Y-99476000D01*
X94118071Y-99547428D01*
X94689500Y-100476000D02*
X95403785Y-100476000D01*
X94546642Y-100904571D02*
X95046642Y-99404571D01*
X95546642Y-100904571D01*
X96903785Y-100904571D02*
X96403785Y-100190285D01*
X96046642Y-100904571D02*
X96046642Y-99404571D01*
X96618071Y-99404571D01*
X96760928Y-99476000D01*
X96832357Y-99547428D01*
X96903785Y-99690285D01*
X96903785Y-99904571D01*
X96832357Y-100047428D01*
X96760928Y-100118857D01*
X96618071Y-100190285D01*
X96046642Y-100190285D01*
X98403785Y-100904571D02*
X97903785Y-100190285D01*
X97546642Y-100904571D02*
X97546642Y-99404571D01*
X98118071Y-99404571D01*
X98260928Y-99476000D01*
X98332357Y-99547428D01*
X98403785Y-99690285D01*
X98403785Y-99904571D01*
X98332357Y-100047428D01*
X98260928Y-100118857D01*
X98118071Y-100190285D01*
X97546642Y-100190285D01*
X99046642Y-100904571D02*
X99046642Y-99404571D01*
X99689500Y-100476000D02*
X100403785Y-100476000D01*
X99546642Y-100904571D02*
X100046642Y-99404571D01*
X100546642Y-100904571D01*
X101832357Y-99476000D02*
X101689500Y-99404571D01*
X101475214Y-99404571D01*
X101260928Y-99476000D01*
X101118071Y-99618857D01*
X101046642Y-99761714D01*
X100975214Y-100047428D01*
X100975214Y-100261714D01*
X101046642Y-100547428D01*
X101118071Y-100690285D01*
X101260928Y-100833142D01*
X101475214Y-100904571D01*
X101618071Y-100904571D01*
X101832357Y-100833142D01*
X101903785Y-100761714D01*
X101903785Y-100261714D01*
X101618071Y-100261714D01*
X102546642Y-100118857D02*
X103046642Y-100118857D01*
X103260928Y-100904571D02*
X102546642Y-100904571D01*
X102546642Y-99404571D01*
X103260928Y-99404571D01*
X105903785Y-100761714D02*
X105832357Y-100833142D01*
X105618071Y-100904571D01*
X105475214Y-100904571D01*
X105260928Y-100833142D01*
X105118071Y-100690285D01*
X105046642Y-100547428D01*
X104975214Y-100261714D01*
X104975214Y-100047428D01*
X105046642Y-99761714D01*
X105118071Y-99618857D01*
X105260928Y-99476000D01*
X105475214Y-99404571D01*
X105618071Y-99404571D01*
X105832357Y-99476000D01*
X105903785Y-99547428D01*
X106832357Y-99404571D02*
X107118071Y-99404571D01*
X107260928Y-99476000D01*
X107403785Y-99618857D01*
X107475214Y-99904571D01*
X107475214Y-100404571D01*
X107403785Y-100690285D01*
X107260928Y-100833142D01*
X107118071Y-100904571D01*
X106832357Y-100904571D01*
X106689500Y-100833142D01*
X106546642Y-100690285D01*
X106475214Y-100404571D01*
X106475214Y-99904571D01*
X106546642Y-99618857D01*
X106689500Y-99476000D01*
X106832357Y-99404571D01*
X108118071Y-100904571D02*
X108118071Y-99404571D01*
X108975214Y-100904571D01*
X108975214Y-99404571D01*
X109689500Y-100904571D02*
X109689500Y-99404571D01*
X110546642Y-100904571D01*
X110546642Y-99404571D01*
X111260928Y-100118857D02*
X111760928Y-100118857D01*
X111975214Y-100904571D02*
X111260928Y-100904571D01*
X111260928Y-99404571D01*
X111975214Y-99404571D01*
X113475214Y-100761714D02*
X113403785Y-100833142D01*
X113189500Y-100904571D01*
X113046642Y-100904571D01*
X112832357Y-100833142D01*
X112689500Y-100690285D01*
X112618071Y-100547428D01*
X112546642Y-100261714D01*
X112546642Y-100047428D01*
X112618071Y-99761714D01*
X112689500Y-99618857D01*
X112832357Y-99476000D01*
X113046642Y-99404571D01*
X113189500Y-99404571D01*
X113403785Y-99476000D01*
X113475214Y-99547428D01*
X113903785Y-99404571D02*
X114760928Y-99404571D01*
X114332357Y-100904571D02*
X114332357Y-99404571D01*
X115546642Y-99404571D02*
X115832357Y-99404571D01*
X115975214Y-99476000D01*
X116118071Y-99618857D01*
X116189500Y-99904571D01*
X116189500Y-100404571D01*
X116118071Y-100690285D01*
X115975214Y-100833142D01*
X115832357Y-100904571D01*
X115546642Y-100904571D01*
X115403785Y-100833142D01*
X115260928Y-100690285D01*
X115189500Y-100404571D01*
X115189500Y-99904571D01*
X115260928Y-99618857D01*
X115403785Y-99476000D01*
X115546642Y-99404571D01*
X117689500Y-100904571D02*
X117189500Y-100190285D01*
X116832357Y-100904571D02*
X116832357Y-99404571D01*
X117403785Y-99404571D01*
X117546642Y-99476000D01*
X117618071Y-99547428D01*
X117689500Y-99690285D01*
X117689500Y-99904571D01*
X117618071Y-100047428D01*
X117546642Y-100118857D01*
X117403785Y-100190285D01*
X116832357Y-100190285D01*
%TO.C,JP6*%
D10*
X80246547Y-101186380D02*
X80246547Y-100186380D01*
X80627500Y-100186380D01*
X80722738Y-100234000D01*
X80770357Y-100281619D01*
X80817976Y-100376857D01*
X80817976Y-100519714D01*
X80770357Y-100614952D01*
X80722738Y-100662571D01*
X80627500Y-100710190D01*
X80246547Y-100710190D01*
X81817976Y-101186380D02*
X81484642Y-100710190D01*
X81246547Y-101186380D02*
X81246547Y-100186380D01*
X81627500Y-100186380D01*
X81722738Y-100234000D01*
X81770357Y-100281619D01*
X81817976Y-100376857D01*
X81817976Y-100519714D01*
X81770357Y-100614952D01*
X81722738Y-100662571D01*
X81627500Y-100710190D01*
X81246547Y-100710190D01*
X82437023Y-100186380D02*
X82627500Y-100186380D01*
X82722738Y-100234000D01*
X82817976Y-100329238D01*
X82865595Y-100519714D01*
X82865595Y-100853047D01*
X82817976Y-101043523D01*
X82722738Y-101138761D01*
X82627500Y-101186380D01*
X82437023Y-101186380D01*
X82341785Y-101138761D01*
X82246547Y-101043523D01*
X82198928Y-100853047D01*
X82198928Y-100519714D01*
X82246547Y-100329238D01*
X82341785Y-100234000D01*
X82437023Y-100186380D01*
X83627500Y-100662571D02*
X83770357Y-100710190D01*
X83817976Y-100757809D01*
X83865595Y-100853047D01*
X83865595Y-100995904D01*
X83817976Y-101091142D01*
X83770357Y-101138761D01*
X83675119Y-101186380D01*
X83294166Y-101186380D01*
X83294166Y-100186380D01*
X83627500Y-100186380D01*
X83722738Y-100234000D01*
X83770357Y-100281619D01*
X83817976Y-100376857D01*
X83817976Y-100472095D01*
X83770357Y-100567333D01*
X83722738Y-100614952D01*
X83627500Y-100662571D01*
X83294166Y-100662571D01*
X84294166Y-100662571D02*
X84627500Y-100662571D01*
X84770357Y-101186380D02*
X84294166Y-101186380D01*
X84294166Y-100186380D01*
X84770357Y-100186380D01*
X85817976Y-100186380D02*
X86151309Y-101186380D01*
X86484642Y-100186380D01*
X86817976Y-100805428D02*
X87579880Y-100805428D01*
X87198928Y-101186380D02*
X87198928Y-100424476D01*
X88770357Y-101138761D02*
X88913214Y-101186380D01*
X89151309Y-101186380D01*
X89246547Y-101138761D01*
X89294166Y-101091142D01*
X89341785Y-100995904D01*
X89341785Y-100900666D01*
X89294166Y-100805428D01*
X89246547Y-100757809D01*
X89151309Y-100710190D01*
X88960833Y-100662571D01*
X88865595Y-100614952D01*
X88817976Y-100567333D01*
X88770357Y-100472095D01*
X88770357Y-100376857D01*
X88817976Y-100281619D01*
X88865595Y-100234000D01*
X88960833Y-100186380D01*
X89198928Y-100186380D01*
X89341785Y-100234000D01*
X89770357Y-100662571D02*
X90103690Y-100662571D01*
X90246547Y-101186380D02*
X89770357Y-101186380D01*
X89770357Y-100186380D01*
X90246547Y-100186380D01*
X91151309Y-101186380D02*
X90675119Y-101186380D01*
X90675119Y-100186380D01*
%TO.C,J2*%
D17*
X104254166Y-173444523D02*
X104254166Y-174351666D01*
X104193690Y-174533095D01*
X104072738Y-174654047D01*
X103891309Y-174714523D01*
X103770357Y-174714523D01*
X104798452Y-173565476D02*
X104858928Y-173505000D01*
X104979880Y-173444523D01*
X105282261Y-173444523D01*
X105403214Y-173505000D01*
X105463690Y-173565476D01*
X105524166Y-173686428D01*
X105524166Y-173807380D01*
X105463690Y-173988809D01*
X104737976Y-174714523D01*
X105524166Y-174714523D01*
D10*
X109303928Y-179794523D02*
X109303928Y-178524523D01*
X109303928Y-179129285D02*
X110029642Y-179129285D01*
X110029642Y-179794523D02*
X110029642Y-178524523D01*
X110634404Y-179129285D02*
X111057738Y-179129285D01*
X111239166Y-179794523D02*
X110634404Y-179794523D01*
X110634404Y-178524523D01*
X111239166Y-178524523D01*
X111722976Y-179431666D02*
X112327738Y-179431666D01*
X111602023Y-179794523D02*
X112025357Y-178524523D01*
X112448690Y-179794523D01*
X112690595Y-178524523D02*
X113416309Y-178524523D01*
X113053452Y-179794523D02*
X113053452Y-178524523D01*
X113839642Y-179129285D02*
X114262976Y-179129285D01*
X114444404Y-179794523D02*
X113839642Y-179794523D01*
X113839642Y-178524523D01*
X114444404Y-178524523D01*
X115714404Y-179794523D02*
X115291071Y-179189761D01*
X114988690Y-179794523D02*
X114988690Y-178524523D01*
X115472500Y-178524523D01*
X115593452Y-178585000D01*
X115653928Y-178645476D01*
X115714404Y-178766428D01*
X115714404Y-178947857D01*
X115653928Y-179068809D01*
X115593452Y-179129285D01*
X115472500Y-179189761D01*
X114988690Y-179189761D01*
X117468214Y-178524523D02*
X117589166Y-178524523D01*
X117710119Y-178585000D01*
X117770595Y-178645476D01*
X117831071Y-178766428D01*
X117891547Y-179008333D01*
X117891547Y-179310714D01*
X117831071Y-179552619D01*
X117770595Y-179673571D01*
X117710119Y-179734047D01*
X117589166Y-179794523D01*
X117468214Y-179794523D01*
X117347261Y-179734047D01*
X117286785Y-179673571D01*
X117226309Y-179552619D01*
X117165833Y-179310714D01*
X117165833Y-179008333D01*
X117226309Y-178766428D01*
X117286785Y-178645476D01*
X117347261Y-178585000D01*
X117468214Y-178524523D01*
%TO.C,J4*%
X109303928Y-153759523D02*
X109303928Y-152489523D01*
X109303928Y-153094285D02*
X110029642Y-153094285D01*
X110029642Y-153759523D02*
X110029642Y-152489523D01*
X110634404Y-153094285D02*
X111057738Y-153094285D01*
X111239166Y-153759523D02*
X110634404Y-153759523D01*
X110634404Y-152489523D01*
X111239166Y-152489523D01*
X111722976Y-153396666D02*
X112327738Y-153396666D01*
X111602023Y-153759523D02*
X112025357Y-152489523D01*
X112448690Y-153759523D01*
X112690595Y-152489523D02*
X113416309Y-152489523D01*
X113053452Y-153759523D02*
X113053452Y-152489523D01*
X113839642Y-153094285D02*
X114262976Y-153094285D01*
X114444404Y-153759523D02*
X113839642Y-153759523D01*
X113839642Y-152489523D01*
X114444404Y-152489523D01*
X115714404Y-153759523D02*
X115291071Y-153154761D01*
X114988690Y-153759523D02*
X114988690Y-152489523D01*
X115472500Y-152489523D01*
X115593452Y-152550000D01*
X115653928Y-152610476D01*
X115714404Y-152731428D01*
X115714404Y-152912857D01*
X115653928Y-153033809D01*
X115593452Y-153094285D01*
X115472500Y-153154761D01*
X114988690Y-153154761D01*
X117891547Y-153759523D02*
X117165833Y-153759523D01*
X117528690Y-153759523D02*
X117528690Y-152489523D01*
X117407738Y-152670952D01*
X117286785Y-152791904D01*
X117165833Y-152852380D01*
%TO.C,J7*%
X109303928Y-127724523D02*
X109303928Y-126454523D01*
X109303928Y-127059285D02*
X110029642Y-127059285D01*
X110029642Y-127724523D02*
X110029642Y-126454523D01*
X110634404Y-127059285D02*
X111057738Y-127059285D01*
X111239166Y-127724523D02*
X110634404Y-127724523D01*
X110634404Y-126454523D01*
X111239166Y-126454523D01*
X111722976Y-127361666D02*
X112327738Y-127361666D01*
X111602023Y-127724523D02*
X112025357Y-126454523D01*
X112448690Y-127724523D01*
X112690595Y-126454523D02*
X113416309Y-126454523D01*
X113053452Y-127724523D02*
X113053452Y-126454523D01*
X113839642Y-127059285D02*
X114262976Y-127059285D01*
X114444404Y-127724523D02*
X113839642Y-127724523D01*
X113839642Y-126454523D01*
X114444404Y-126454523D01*
X115714404Y-127724523D02*
X115291071Y-127119761D01*
X114988690Y-127724523D02*
X114988690Y-126454523D01*
X115472500Y-126454523D01*
X115593452Y-126515000D01*
X115653928Y-126575476D01*
X115714404Y-126696428D01*
X115714404Y-126877857D01*
X115653928Y-126998809D01*
X115593452Y-127059285D01*
X115472500Y-127119761D01*
X114988690Y-127119761D01*
X117165833Y-126575476D02*
X117226309Y-126515000D01*
X117347261Y-126454523D01*
X117649642Y-126454523D01*
X117770595Y-126515000D01*
X117831071Y-126575476D01*
X117891547Y-126696428D01*
X117891547Y-126817380D01*
X117831071Y-126998809D01*
X117105357Y-127724523D01*
X117891547Y-127724523D01*
%TO.C,LED2*%
X71554452Y-110584380D02*
X71078261Y-110584380D01*
X71078261Y-109584380D01*
X71887785Y-110060571D02*
X72221119Y-110060571D01*
X72363976Y-110584380D02*
X71887785Y-110584380D01*
X71887785Y-109584380D01*
X72363976Y-109584380D01*
X72792547Y-110584380D02*
X72792547Y-109584380D01*
X73030642Y-109584380D01*
X73173500Y-109632000D01*
X73268738Y-109727238D01*
X73316357Y-109822476D01*
X73363976Y-110012952D01*
X73363976Y-110155809D01*
X73316357Y-110346285D01*
X73268738Y-110441523D01*
X73173500Y-110536761D01*
X73030642Y-110584380D01*
X72792547Y-110584380D01*
X73744928Y-109679619D02*
X73792547Y-109632000D01*
X73887785Y-109584380D01*
X74125880Y-109584380D01*
X74221119Y-109632000D01*
X74268738Y-109679619D01*
X74316357Y-109774857D01*
X74316357Y-109870095D01*
X74268738Y-110012952D01*
X73697309Y-110584380D01*
X74316357Y-110584380D01*
%TO.C,LED1*%
X71443452Y-136746380D02*
X70967261Y-136746380D01*
X70967261Y-135746380D01*
X71776785Y-136222571D02*
X72110119Y-136222571D01*
X72252976Y-136746380D02*
X71776785Y-136746380D01*
X71776785Y-135746380D01*
X72252976Y-135746380D01*
X72681547Y-136746380D02*
X72681547Y-135746380D01*
X72919642Y-135746380D01*
X73062500Y-135794000D01*
X73157738Y-135889238D01*
X73205357Y-135984476D01*
X73252976Y-136174952D01*
X73252976Y-136317809D01*
X73205357Y-136508285D01*
X73157738Y-136603523D01*
X73062500Y-136698761D01*
X72919642Y-136746380D01*
X72681547Y-136746380D01*
X74205357Y-136746380D02*
X73633928Y-136746380D01*
X73919642Y-136746380D02*
X73919642Y-135746380D01*
X73824404Y-135889238D01*
X73729166Y-135984476D01*
X73633928Y-136032095D01*
%TO.C,LED0*%
X71808452Y-162654380D02*
X71332261Y-162654380D01*
X71332261Y-161654380D01*
X72141785Y-162130571D02*
X72475119Y-162130571D01*
X72617976Y-162654380D02*
X72141785Y-162654380D01*
X72141785Y-161654380D01*
X72617976Y-161654380D01*
X73046547Y-162654380D02*
X73046547Y-161654380D01*
X73284642Y-161654380D01*
X73427500Y-161702000D01*
X73522738Y-161797238D01*
X73570357Y-161892476D01*
X73617976Y-162082952D01*
X73617976Y-162225809D01*
X73570357Y-162416285D01*
X73522738Y-162511523D01*
X73427500Y-162606761D01*
X73284642Y-162654380D01*
X73046547Y-162654380D01*
X74237023Y-161654380D02*
X74332261Y-161654380D01*
X74427500Y-161702000D01*
X74475119Y-161749619D01*
X74522738Y-161844857D01*
X74570357Y-162035333D01*
X74570357Y-162273428D01*
X74522738Y-162463904D01*
X74475119Y-162559142D01*
X74427500Y-162606761D01*
X74332261Y-162654380D01*
X74237023Y-162654380D01*
X74141785Y-162606761D01*
X74094166Y-162559142D01*
X74046547Y-162463904D01*
X73998928Y-162273428D01*
X73998928Y-162035333D01*
X74046547Y-161844857D01*
X74094166Y-161749619D01*
X74141785Y-161702000D01*
X74237023Y-161654380D01*
%TO.C,Q2*%
D17*
X103921547Y-110065476D02*
X103800595Y-110005000D01*
X103679642Y-109884047D01*
X103498214Y-109702619D01*
X103377261Y-109642142D01*
X103256309Y-109642142D01*
X103316785Y-109944523D02*
X103195833Y-109884047D01*
X103074880Y-109763095D01*
X103014404Y-109521190D01*
X103014404Y-109097857D01*
X103074880Y-108855952D01*
X103195833Y-108735000D01*
X103316785Y-108674523D01*
X103558690Y-108674523D01*
X103679642Y-108735000D01*
X103800595Y-108855952D01*
X103861071Y-109097857D01*
X103861071Y-109521190D01*
X103800595Y-109763095D01*
X103679642Y-109884047D01*
X103558690Y-109944523D01*
X103316785Y-109944523D01*
X104344880Y-108795476D02*
X104405357Y-108735000D01*
X104526309Y-108674523D01*
X104828690Y-108674523D01*
X104949642Y-108735000D01*
X105010119Y-108795476D01*
X105070595Y-108916428D01*
X105070595Y-109037380D01*
X105010119Y-109218809D01*
X104284404Y-109944523D01*
X105070595Y-109944523D01*
%TO.C,Q1*%
X103921547Y-136100476D02*
X103800595Y-136040000D01*
X103679642Y-135919047D01*
X103498214Y-135737619D01*
X103377261Y-135677142D01*
X103256309Y-135677142D01*
X103316785Y-135979523D02*
X103195833Y-135919047D01*
X103074880Y-135798095D01*
X103014404Y-135556190D01*
X103014404Y-135132857D01*
X103074880Y-134890952D01*
X103195833Y-134770000D01*
X103316785Y-134709523D01*
X103558690Y-134709523D01*
X103679642Y-134770000D01*
X103800595Y-134890952D01*
X103861071Y-135132857D01*
X103861071Y-135556190D01*
X103800595Y-135798095D01*
X103679642Y-135919047D01*
X103558690Y-135979523D01*
X103316785Y-135979523D01*
X105070595Y-135979523D02*
X104344880Y-135979523D01*
X104707738Y-135979523D02*
X104707738Y-134709523D01*
X104586785Y-134890952D01*
X104465833Y-135011904D01*
X104344880Y-135072380D01*
%TO.C,Q0*%
X104048547Y-162135476D02*
X103927595Y-162075000D01*
X103806642Y-161954047D01*
X103625214Y-161772619D01*
X103504261Y-161712142D01*
X103383309Y-161712142D01*
X103443785Y-162014523D02*
X103322833Y-161954047D01*
X103201880Y-161833095D01*
X103141404Y-161591190D01*
X103141404Y-161167857D01*
X103201880Y-160925952D01*
X103322833Y-160805000D01*
X103443785Y-160744523D01*
X103685690Y-160744523D01*
X103806642Y-160805000D01*
X103927595Y-160925952D01*
X103988071Y-161167857D01*
X103988071Y-161591190D01*
X103927595Y-161833095D01*
X103806642Y-161954047D01*
X103685690Y-162014523D01*
X103443785Y-162014523D01*
X104774261Y-160744523D02*
X104895214Y-160744523D01*
X105016166Y-160805000D01*
X105076642Y-160865476D01*
X105137119Y-160986428D01*
X105197595Y-161228333D01*
X105197595Y-161530714D01*
X105137119Y-161772619D01*
X105076642Y-161893571D01*
X105016166Y-161954047D01*
X104895214Y-162014523D01*
X104774261Y-162014523D01*
X104653309Y-161954047D01*
X104592833Y-161893571D01*
X104532357Y-161772619D01*
X104471880Y-161530714D01*
X104471880Y-161228333D01*
X104532357Y-160986428D01*
X104592833Y-160865476D01*
X104653309Y-160805000D01*
X104774261Y-160744523D01*
%TO.C,J19*%
D10*
X62509880Y-95330476D02*
X62509880Y-94080476D01*
X62986071Y-94080476D01*
X63105119Y-94140000D01*
X63164642Y-94199523D01*
X63224166Y-94318571D01*
X63224166Y-94497142D01*
X63164642Y-94616190D01*
X63105119Y-94675714D01*
X62986071Y-94735238D01*
X62509880Y-94735238D01*
X64474166Y-95330476D02*
X64057500Y-94735238D01*
X63759880Y-95330476D02*
X63759880Y-94080476D01*
X64236071Y-94080476D01*
X64355119Y-94140000D01*
X64414642Y-94199523D01*
X64474166Y-94318571D01*
X64474166Y-94497142D01*
X64414642Y-94616190D01*
X64355119Y-94675714D01*
X64236071Y-94735238D01*
X63759880Y-94735238D01*
X65247976Y-94080476D02*
X65486071Y-94080476D01*
X65605119Y-94140000D01*
X65724166Y-94259047D01*
X65783690Y-94497142D01*
X65783690Y-94913809D01*
X65724166Y-95151904D01*
X65605119Y-95270952D01*
X65486071Y-95330476D01*
X65247976Y-95330476D01*
X65128928Y-95270952D01*
X65009880Y-95151904D01*
X64950357Y-94913809D01*
X64950357Y-94497142D01*
X65009880Y-94259047D01*
X65128928Y-94140000D01*
X65247976Y-94080476D01*
X66736071Y-94675714D02*
X66914642Y-94735238D01*
X66974166Y-94794761D01*
X67033690Y-94913809D01*
X67033690Y-95092380D01*
X66974166Y-95211428D01*
X66914642Y-95270952D01*
X66795595Y-95330476D01*
X66319404Y-95330476D01*
X66319404Y-94080476D01*
X66736071Y-94080476D01*
X66855119Y-94140000D01*
X66914642Y-94199523D01*
X66974166Y-94318571D01*
X66974166Y-94437619D01*
X66914642Y-94556666D01*
X66855119Y-94616190D01*
X66736071Y-94675714D01*
X66319404Y-94675714D01*
X67569404Y-94675714D02*
X67986071Y-94675714D01*
X68164642Y-95330476D02*
X67569404Y-95330476D01*
X67569404Y-94080476D01*
X68164642Y-94080476D01*
%TO.C,J15*%
X70639928Y-152607476D02*
X70639928Y-151357476D01*
X70937547Y-151357476D01*
X71116119Y-151417000D01*
X71235166Y-151536047D01*
X71294690Y-151655095D01*
X71354214Y-151893190D01*
X71354214Y-152071761D01*
X71294690Y-152309857D01*
X71235166Y-152428904D01*
X71116119Y-152547952D01*
X70937547Y-152607476D01*
X70639928Y-152607476D01*
X72128023Y-151357476D02*
X72366119Y-151357476D01*
X72485166Y-151417000D01*
X72604214Y-151536047D01*
X72663738Y-151774142D01*
X72663738Y-152190809D01*
X72604214Y-152428904D01*
X72485166Y-152547952D01*
X72366119Y-152607476D01*
X72128023Y-152607476D01*
X72008976Y-152547952D01*
X71889928Y-152428904D01*
X71830404Y-152190809D01*
X71830404Y-151774142D01*
X71889928Y-151536047D01*
X72008976Y-151417000D01*
X72128023Y-151357476D01*
X73913738Y-152488428D02*
X73854214Y-152547952D01*
X73675642Y-152607476D01*
X73556595Y-152607476D01*
X73378023Y-152547952D01*
X73258976Y-152428904D01*
X73199452Y-152309857D01*
X73139928Y-152071761D01*
X73139928Y-151893190D01*
X73199452Y-151655095D01*
X73258976Y-151536047D01*
X73378023Y-151417000D01*
X73556595Y-151357476D01*
X73675642Y-151357476D01*
X73854214Y-151417000D01*
X73913738Y-151476523D01*
X74449452Y-152607476D02*
X74449452Y-151357476D01*
X75163738Y-152607476D02*
X74628023Y-151893190D01*
X75163738Y-151357476D02*
X74449452Y-152071761D01*
X77306595Y-152607476D02*
X76592309Y-152607476D01*
X76949452Y-152607476D02*
X76949452Y-151357476D01*
X76830404Y-151536047D01*
X76711357Y-151655095D01*
X76592309Y-151714619D01*
%TO.C,J14*%
X70258928Y-178515476D02*
X70258928Y-177265476D01*
X70556547Y-177265476D01*
X70735119Y-177325000D01*
X70854166Y-177444047D01*
X70913690Y-177563095D01*
X70973214Y-177801190D01*
X70973214Y-177979761D01*
X70913690Y-178217857D01*
X70854166Y-178336904D01*
X70735119Y-178455952D01*
X70556547Y-178515476D01*
X70258928Y-178515476D01*
X71747023Y-177265476D02*
X71985119Y-177265476D01*
X72104166Y-177325000D01*
X72223214Y-177444047D01*
X72282738Y-177682142D01*
X72282738Y-178098809D01*
X72223214Y-178336904D01*
X72104166Y-178455952D01*
X71985119Y-178515476D01*
X71747023Y-178515476D01*
X71627976Y-178455952D01*
X71508928Y-178336904D01*
X71449404Y-178098809D01*
X71449404Y-177682142D01*
X71508928Y-177444047D01*
X71627976Y-177325000D01*
X71747023Y-177265476D01*
X73532738Y-178396428D02*
X73473214Y-178455952D01*
X73294642Y-178515476D01*
X73175595Y-178515476D01*
X72997023Y-178455952D01*
X72877976Y-178336904D01*
X72818452Y-178217857D01*
X72758928Y-177979761D01*
X72758928Y-177801190D01*
X72818452Y-177563095D01*
X72877976Y-177444047D01*
X72997023Y-177325000D01*
X73175595Y-177265476D01*
X73294642Y-177265476D01*
X73473214Y-177325000D01*
X73532738Y-177384523D01*
X74068452Y-178515476D02*
X74068452Y-177265476D01*
X74782738Y-178515476D02*
X74247023Y-177801190D01*
X74782738Y-177265476D02*
X74068452Y-177979761D01*
X76508928Y-177265476D02*
X76627976Y-177265476D01*
X76747023Y-177325000D01*
X76806547Y-177384523D01*
X76866071Y-177503571D01*
X76925595Y-177741666D01*
X76925595Y-178039285D01*
X76866071Y-178277380D01*
X76806547Y-178396428D01*
X76747023Y-178455952D01*
X76627976Y-178515476D01*
X76508928Y-178515476D01*
X76389880Y-178455952D01*
X76330357Y-178396428D01*
X76270833Y-178277380D01*
X76211309Y-178039285D01*
X76211309Y-177741666D01*
X76270833Y-177503571D01*
X76330357Y-177384523D01*
X76389880Y-177325000D01*
X76508928Y-177265476D01*
%TO.C,J16*%
X70639928Y-126699476D02*
X70639928Y-125449476D01*
X70937547Y-125449476D01*
X71116119Y-125509000D01*
X71235166Y-125628047D01*
X71294690Y-125747095D01*
X71354214Y-125985190D01*
X71354214Y-126163761D01*
X71294690Y-126401857D01*
X71235166Y-126520904D01*
X71116119Y-126639952D01*
X70937547Y-126699476D01*
X70639928Y-126699476D01*
X72128023Y-125449476D02*
X72366119Y-125449476D01*
X72485166Y-125509000D01*
X72604214Y-125628047D01*
X72663738Y-125866142D01*
X72663738Y-126282809D01*
X72604214Y-126520904D01*
X72485166Y-126639952D01*
X72366119Y-126699476D01*
X72128023Y-126699476D01*
X72008976Y-126639952D01*
X71889928Y-126520904D01*
X71830404Y-126282809D01*
X71830404Y-125866142D01*
X71889928Y-125628047D01*
X72008976Y-125509000D01*
X72128023Y-125449476D01*
X73913738Y-126580428D02*
X73854214Y-126639952D01*
X73675642Y-126699476D01*
X73556595Y-126699476D01*
X73378023Y-126639952D01*
X73258976Y-126520904D01*
X73199452Y-126401857D01*
X73139928Y-126163761D01*
X73139928Y-125985190D01*
X73199452Y-125747095D01*
X73258976Y-125628047D01*
X73378023Y-125509000D01*
X73556595Y-125449476D01*
X73675642Y-125449476D01*
X73854214Y-125509000D01*
X73913738Y-125568523D01*
X74449452Y-126699476D02*
X74449452Y-125449476D01*
X75163738Y-126699476D02*
X74628023Y-125985190D01*
X75163738Y-125449476D02*
X74449452Y-126163761D01*
X76592309Y-125568523D02*
X76651833Y-125509000D01*
X76770880Y-125449476D01*
X77068500Y-125449476D01*
X77187547Y-125509000D01*
X77247071Y-125568523D01*
X77306595Y-125687571D01*
X77306595Y-125806619D01*
X77247071Y-125985190D01*
X76532785Y-126699476D01*
X77306595Y-126699476D01*
%TO.C,R14*%
X99034880Y-105551857D02*
X98558690Y-105885190D01*
X99034880Y-106123285D02*
X98034880Y-106123285D01*
X98034880Y-105742333D01*
X98082500Y-105647095D01*
X98130119Y-105599476D01*
X98225357Y-105551857D01*
X98368214Y-105551857D01*
X98463452Y-105599476D01*
X98511071Y-105647095D01*
X98558690Y-105742333D01*
X98558690Y-106123285D01*
X99034880Y-104599476D02*
X99034880Y-105170904D01*
X99034880Y-104885190D02*
X98034880Y-104885190D01*
X98177738Y-104980428D01*
X98272976Y-105075666D01*
X98320595Y-105170904D01*
X98368214Y-103742333D02*
X99034880Y-103742333D01*
X97987261Y-103980428D02*
X98701547Y-104218523D01*
X98701547Y-103599476D01*
%TO.C,R13*%
X99034880Y-109758857D02*
X98558690Y-110092190D01*
X99034880Y-110330285D02*
X98034880Y-110330285D01*
X98034880Y-109949333D01*
X98082500Y-109854095D01*
X98130119Y-109806476D01*
X98225357Y-109758857D01*
X98368214Y-109758857D01*
X98463452Y-109806476D01*
X98511071Y-109854095D01*
X98558690Y-109949333D01*
X98558690Y-110330285D01*
X99034880Y-108806476D02*
X99034880Y-109377904D01*
X99034880Y-109092190D02*
X98034880Y-109092190D01*
X98177738Y-109187428D01*
X98272976Y-109282666D01*
X98320595Y-109377904D01*
X98034880Y-108473142D02*
X98034880Y-107854095D01*
X98415833Y-108187428D01*
X98415833Y-108044571D01*
X98463452Y-107949333D01*
X98511071Y-107901714D01*
X98606309Y-107854095D01*
X98844404Y-107854095D01*
X98939642Y-107901714D01*
X98987261Y-107949333D01*
X99034880Y-108044571D01*
X99034880Y-108330285D01*
X98987261Y-108425523D01*
X98939642Y-108473142D01*
%TO.C,R12*%
X99034880Y-131602857D02*
X98558690Y-131936190D01*
X99034880Y-132174285D02*
X98034880Y-132174285D01*
X98034880Y-131793333D01*
X98082500Y-131698095D01*
X98130119Y-131650476D01*
X98225357Y-131602857D01*
X98368214Y-131602857D01*
X98463452Y-131650476D01*
X98511071Y-131698095D01*
X98558690Y-131793333D01*
X98558690Y-132174285D01*
X99034880Y-130650476D02*
X99034880Y-131221904D01*
X99034880Y-130936190D02*
X98034880Y-130936190D01*
X98177738Y-131031428D01*
X98272976Y-131126666D01*
X98320595Y-131221904D01*
X98130119Y-130269523D02*
X98082500Y-130221904D01*
X98034880Y-130126666D01*
X98034880Y-129888571D01*
X98082500Y-129793333D01*
X98130119Y-129745714D01*
X98225357Y-129698095D01*
X98320595Y-129698095D01*
X98463452Y-129745714D01*
X99034880Y-130317142D01*
X99034880Y-129698095D01*
%TO.C,R11*%
X99034880Y-135682857D02*
X98558690Y-136016190D01*
X99034880Y-136254285D02*
X98034880Y-136254285D01*
X98034880Y-135873333D01*
X98082500Y-135778095D01*
X98130119Y-135730476D01*
X98225357Y-135682857D01*
X98368214Y-135682857D01*
X98463452Y-135730476D01*
X98511071Y-135778095D01*
X98558690Y-135873333D01*
X98558690Y-136254285D01*
X99034880Y-134730476D02*
X99034880Y-135301904D01*
X99034880Y-135016190D02*
X98034880Y-135016190D01*
X98177738Y-135111428D01*
X98272976Y-135206666D01*
X98320595Y-135301904D01*
X99034880Y-133778095D02*
X99034880Y-134349523D01*
X99034880Y-134063809D02*
X98034880Y-134063809D01*
X98177738Y-134159047D01*
X98272976Y-134254285D01*
X98320595Y-134349523D01*
%TO.C,R10*%
X99034880Y-157741357D02*
X98558690Y-158074690D01*
X99034880Y-158312785D02*
X98034880Y-158312785D01*
X98034880Y-157931833D01*
X98082500Y-157836595D01*
X98130119Y-157788976D01*
X98225357Y-157741357D01*
X98368214Y-157741357D01*
X98463452Y-157788976D01*
X98511071Y-157836595D01*
X98558690Y-157931833D01*
X98558690Y-158312785D01*
X99034880Y-156788976D02*
X99034880Y-157360404D01*
X99034880Y-157074690D02*
X98034880Y-157074690D01*
X98177738Y-157169928D01*
X98272976Y-157265166D01*
X98320595Y-157360404D01*
X98034880Y-156169928D02*
X98034880Y-156074690D01*
X98082500Y-155979452D01*
X98130119Y-155931833D01*
X98225357Y-155884214D01*
X98415833Y-155836595D01*
X98653928Y-155836595D01*
X98844404Y-155884214D01*
X98939642Y-155931833D01*
X98987261Y-155979452D01*
X99034880Y-156074690D01*
X99034880Y-156169928D01*
X98987261Y-156265166D01*
X98939642Y-156312785D01*
X98844404Y-156360404D01*
X98653928Y-156408023D01*
X98415833Y-156408023D01*
X98225357Y-156360404D01*
X98130119Y-156312785D01*
X98082500Y-156265166D01*
X98034880Y-156169928D01*
%TO.C,R9*%
X99034880Y-161336666D02*
X98558690Y-161670000D01*
X99034880Y-161908095D02*
X98034880Y-161908095D01*
X98034880Y-161527142D01*
X98082500Y-161431904D01*
X98130119Y-161384285D01*
X98225357Y-161336666D01*
X98368214Y-161336666D01*
X98463452Y-161384285D01*
X98511071Y-161431904D01*
X98558690Y-161527142D01*
X98558690Y-161908095D01*
X99034880Y-160860476D02*
X99034880Y-160670000D01*
X98987261Y-160574761D01*
X98939642Y-160527142D01*
X98796785Y-160431904D01*
X98606309Y-160384285D01*
X98225357Y-160384285D01*
X98130119Y-160431904D01*
X98082500Y-160479523D01*
X98034880Y-160574761D01*
X98034880Y-160765238D01*
X98082500Y-160860476D01*
X98130119Y-160908095D01*
X98225357Y-160955714D01*
X98463452Y-160955714D01*
X98558690Y-160908095D01*
X98606309Y-160860476D01*
X98653928Y-160765238D01*
X98653928Y-160574761D01*
X98606309Y-160479523D01*
X98558690Y-160431904D01*
X98463452Y-160384285D01*
%TO.C,R8*%
X84206833Y-110202380D02*
X83873500Y-109726190D01*
X83635404Y-110202380D02*
X83635404Y-109202380D01*
X84016357Y-109202380D01*
X84111595Y-109250000D01*
X84159214Y-109297619D01*
X84206833Y-109392857D01*
X84206833Y-109535714D01*
X84159214Y-109630952D01*
X84111595Y-109678571D01*
X84016357Y-109726190D01*
X83635404Y-109726190D01*
X84778261Y-109630952D02*
X84683023Y-109583333D01*
X84635404Y-109535714D01*
X84587785Y-109440476D01*
X84587785Y-109392857D01*
X84635404Y-109297619D01*
X84683023Y-109250000D01*
X84778261Y-109202380D01*
X84968738Y-109202380D01*
X85063976Y-109250000D01*
X85111595Y-109297619D01*
X85159214Y-109392857D01*
X85159214Y-109440476D01*
X85111595Y-109535714D01*
X85063976Y-109583333D01*
X84968738Y-109630952D01*
X84778261Y-109630952D01*
X84683023Y-109678571D01*
X84635404Y-109726190D01*
X84587785Y-109821428D01*
X84587785Y-110011904D01*
X84635404Y-110107142D01*
X84683023Y-110154761D01*
X84778261Y-110202380D01*
X84968738Y-110202380D01*
X85063976Y-110154761D01*
X85111595Y-110107142D01*
X85159214Y-110011904D01*
X85159214Y-109821428D01*
X85111595Y-109726190D01*
X85063976Y-109678571D01*
X84968738Y-109630952D01*
%TO.C,R7*%
X88016833Y-110202380D02*
X87683500Y-109726190D01*
X87445404Y-110202380D02*
X87445404Y-109202380D01*
X87826357Y-109202380D01*
X87921595Y-109250000D01*
X87969214Y-109297619D01*
X88016833Y-109392857D01*
X88016833Y-109535714D01*
X87969214Y-109630952D01*
X87921595Y-109678571D01*
X87826357Y-109726190D01*
X87445404Y-109726190D01*
X88350166Y-109202380D02*
X89016833Y-109202380D01*
X88588261Y-110202380D01*
%TO.C,R6*%
X84206833Y-136237380D02*
X83873500Y-135761190D01*
X83635404Y-136237380D02*
X83635404Y-135237380D01*
X84016357Y-135237380D01*
X84111595Y-135285000D01*
X84159214Y-135332619D01*
X84206833Y-135427857D01*
X84206833Y-135570714D01*
X84159214Y-135665952D01*
X84111595Y-135713571D01*
X84016357Y-135761190D01*
X83635404Y-135761190D01*
X85063976Y-135237380D02*
X84873500Y-135237380D01*
X84778261Y-135285000D01*
X84730642Y-135332619D01*
X84635404Y-135475476D01*
X84587785Y-135665952D01*
X84587785Y-136046904D01*
X84635404Y-136142142D01*
X84683023Y-136189761D01*
X84778261Y-136237380D01*
X84968738Y-136237380D01*
X85063976Y-136189761D01*
X85111595Y-136142142D01*
X85159214Y-136046904D01*
X85159214Y-135808809D01*
X85111595Y-135713571D01*
X85063976Y-135665952D01*
X84968738Y-135618333D01*
X84778261Y-135618333D01*
X84683023Y-135665952D01*
X84635404Y-135713571D01*
X84587785Y-135808809D01*
%TO.C,R5*%
X88016833Y-136237380D02*
X87683500Y-135761190D01*
X87445404Y-136237380D02*
X87445404Y-135237380D01*
X87826357Y-135237380D01*
X87921595Y-135285000D01*
X87969214Y-135332619D01*
X88016833Y-135427857D01*
X88016833Y-135570714D01*
X87969214Y-135665952D01*
X87921595Y-135713571D01*
X87826357Y-135761190D01*
X87445404Y-135761190D01*
X88921595Y-135237380D02*
X88445404Y-135237380D01*
X88397785Y-135713571D01*
X88445404Y-135665952D01*
X88540642Y-135618333D01*
X88778738Y-135618333D01*
X88873976Y-135665952D01*
X88921595Y-135713571D01*
X88969214Y-135808809D01*
X88969214Y-136046904D01*
X88921595Y-136142142D01*
X88873976Y-136189761D01*
X88778738Y-136237380D01*
X88540642Y-136237380D01*
X88445404Y-136189761D01*
X88397785Y-136142142D01*
%TO.C,R4*%
X84190833Y-162272380D02*
X83857500Y-161796190D01*
X83619404Y-162272380D02*
X83619404Y-161272380D01*
X84000357Y-161272380D01*
X84095595Y-161320000D01*
X84143214Y-161367619D01*
X84190833Y-161462857D01*
X84190833Y-161605714D01*
X84143214Y-161700952D01*
X84095595Y-161748571D01*
X84000357Y-161796190D01*
X83619404Y-161796190D01*
X85047976Y-161605714D02*
X85047976Y-162272380D01*
X84809880Y-161224761D02*
X84571785Y-161939047D01*
X85190833Y-161939047D01*
%TO.C,R3*%
X88000833Y-162272380D02*
X87667500Y-161796190D01*
X87429404Y-162272380D02*
X87429404Y-161272380D01*
X87810357Y-161272380D01*
X87905595Y-161320000D01*
X87953214Y-161367619D01*
X88000833Y-161462857D01*
X88000833Y-161605714D01*
X87953214Y-161700952D01*
X87905595Y-161748571D01*
X87810357Y-161796190D01*
X87429404Y-161796190D01*
X88334166Y-161272380D02*
X88953214Y-161272380D01*
X88619880Y-161653333D01*
X88762738Y-161653333D01*
X88857976Y-161700952D01*
X88905595Y-161748571D01*
X88953214Y-161843809D01*
X88953214Y-162081904D01*
X88905595Y-162177142D01*
X88857976Y-162224761D01*
X88762738Y-162272380D01*
X88477023Y-162272380D01*
X88381785Y-162224761D01*
X88334166Y-162177142D01*
%TO.C,R2*%
X80380833Y-110202380D02*
X80047500Y-109726190D01*
X79809404Y-110202380D02*
X79809404Y-109202380D01*
X80190357Y-109202380D01*
X80285595Y-109250000D01*
X80333214Y-109297619D01*
X80380833Y-109392857D01*
X80380833Y-109535714D01*
X80333214Y-109630952D01*
X80285595Y-109678571D01*
X80190357Y-109726190D01*
X79809404Y-109726190D01*
X80761785Y-109297619D02*
X80809404Y-109250000D01*
X80904642Y-109202380D01*
X81142738Y-109202380D01*
X81237976Y-109250000D01*
X81285595Y-109297619D01*
X81333214Y-109392857D01*
X81333214Y-109488095D01*
X81285595Y-109630952D01*
X80714166Y-110202380D01*
X81333214Y-110202380D01*
%TO.C,R1*%
X80380833Y-136237380D02*
X80047500Y-135761190D01*
X79809404Y-136237380D02*
X79809404Y-135237380D01*
X80190357Y-135237380D01*
X80285595Y-135285000D01*
X80333214Y-135332619D01*
X80380833Y-135427857D01*
X80380833Y-135570714D01*
X80333214Y-135665952D01*
X80285595Y-135713571D01*
X80190357Y-135761190D01*
X79809404Y-135761190D01*
X81333214Y-136237380D02*
X80761785Y-136237380D01*
X81047500Y-136237380D02*
X81047500Y-135237380D01*
X80952261Y-135380238D01*
X80857023Y-135475476D01*
X80761785Y-135523095D01*
%TO.C,R0*%
X80380833Y-162272380D02*
X80047500Y-161796190D01*
X79809404Y-162272380D02*
X79809404Y-161272380D01*
X80190357Y-161272380D01*
X80285595Y-161320000D01*
X80333214Y-161367619D01*
X80380833Y-161462857D01*
X80380833Y-161605714D01*
X80333214Y-161700952D01*
X80285595Y-161748571D01*
X80190357Y-161796190D01*
X79809404Y-161796190D01*
X80999880Y-161272380D02*
X81095119Y-161272380D01*
X81190357Y-161320000D01*
X81237976Y-161367619D01*
X81285595Y-161462857D01*
X81333214Y-161653333D01*
X81333214Y-161891428D01*
X81285595Y-162081904D01*
X81237976Y-162177142D01*
X81190357Y-162224761D01*
X81095119Y-162272380D01*
X80999880Y-162272380D01*
X80904642Y-162224761D01*
X80857023Y-162177142D01*
X80809404Y-162081904D01*
X80761785Y-161891428D01*
X80761785Y-161653333D01*
X80809404Y-161462857D01*
X80857023Y-161367619D01*
X80904642Y-161320000D01*
X80999880Y-161272380D01*
%TO.C,Q5*%
X94396547Y-104985476D02*
X94275595Y-104925000D01*
X94154642Y-104804047D01*
X93973214Y-104622619D01*
X93852261Y-104562142D01*
X93731309Y-104562142D01*
X93791785Y-104864523D02*
X93670833Y-104804047D01*
X93549880Y-104683095D01*
X93489404Y-104441190D01*
X93489404Y-104017857D01*
X93549880Y-103775952D01*
X93670833Y-103655000D01*
X93791785Y-103594523D01*
X94033690Y-103594523D01*
X94154642Y-103655000D01*
X94275595Y-103775952D01*
X94336071Y-104017857D01*
X94336071Y-104441190D01*
X94275595Y-104683095D01*
X94154642Y-104804047D01*
X94033690Y-104864523D01*
X93791785Y-104864523D01*
X95485119Y-103594523D02*
X94880357Y-103594523D01*
X94819880Y-104199285D01*
X94880357Y-104138809D01*
X95001309Y-104078333D01*
X95303690Y-104078333D01*
X95424642Y-104138809D01*
X95485119Y-104199285D01*
X95545595Y-104320238D01*
X95545595Y-104622619D01*
X95485119Y-104743571D01*
X95424642Y-104804047D01*
X95303690Y-104864523D01*
X95001309Y-104864523D01*
X94880357Y-104804047D01*
X94819880Y-104743571D01*
%TO.C,Q4*%
X94396547Y-131655476D02*
X94275595Y-131595000D01*
X94154642Y-131474047D01*
X93973214Y-131292619D01*
X93852261Y-131232142D01*
X93731309Y-131232142D01*
X93791785Y-131534523D02*
X93670833Y-131474047D01*
X93549880Y-131353095D01*
X93489404Y-131111190D01*
X93489404Y-130687857D01*
X93549880Y-130445952D01*
X93670833Y-130325000D01*
X93791785Y-130264523D01*
X94033690Y-130264523D01*
X94154642Y-130325000D01*
X94275595Y-130445952D01*
X94336071Y-130687857D01*
X94336071Y-131111190D01*
X94275595Y-131353095D01*
X94154642Y-131474047D01*
X94033690Y-131534523D01*
X93791785Y-131534523D01*
X95424642Y-130687857D02*
X95424642Y-131534523D01*
X95122261Y-130204047D02*
X94819880Y-131111190D01*
X95606071Y-131111190D01*
%TO.C,Q3*%
X94396547Y-157690476D02*
X94275595Y-157630000D01*
X94154642Y-157509047D01*
X93973214Y-157327619D01*
X93852261Y-157267142D01*
X93731309Y-157267142D01*
X93791785Y-157569523D02*
X93670833Y-157509047D01*
X93549880Y-157388095D01*
X93489404Y-157146190D01*
X93489404Y-156722857D01*
X93549880Y-156480952D01*
X93670833Y-156360000D01*
X93791785Y-156299523D01*
X94033690Y-156299523D01*
X94154642Y-156360000D01*
X94275595Y-156480952D01*
X94336071Y-156722857D01*
X94336071Y-157146190D01*
X94275595Y-157388095D01*
X94154642Y-157509047D01*
X94033690Y-157569523D01*
X93791785Y-157569523D01*
X94759404Y-156299523D02*
X95545595Y-156299523D01*
X95122261Y-156783333D01*
X95303690Y-156783333D01*
X95424642Y-156843809D01*
X95485119Y-156904285D01*
X95545595Y-157025238D01*
X95545595Y-157327619D01*
X95485119Y-157448571D01*
X95424642Y-157509047D01*
X95303690Y-157569523D01*
X94940833Y-157569523D01*
X94819880Y-157509047D01*
X94759404Y-157448571D01*
%TO.C,J20*%
X75875357Y-85277714D02*
X76053928Y-85337238D01*
X76113452Y-85396761D01*
X76172976Y-85515809D01*
X76172976Y-85694380D01*
X76113452Y-85813428D01*
X76053928Y-85872952D01*
X75934880Y-85932476D01*
X75458690Y-85932476D01*
X75458690Y-84682476D01*
X75875357Y-84682476D01*
X75994404Y-84742000D01*
X76053928Y-84801523D01*
X76113452Y-84920571D01*
X76113452Y-85039619D01*
X76053928Y-85158666D01*
X75994404Y-85218190D01*
X75875357Y-85277714D01*
X75458690Y-85277714D01*
X77303928Y-85932476D02*
X76708690Y-85932476D01*
X76708690Y-84682476D01*
X77542023Y-84682476D02*
X78256309Y-84682476D01*
X77899166Y-85932476D02*
X77899166Y-84682476D01*
X78911071Y-84682476D02*
X79149166Y-84682476D01*
X79268214Y-84742000D01*
X79387261Y-84861047D01*
X79446785Y-85099142D01*
X79446785Y-85515809D01*
X79387261Y-85753904D01*
X79268214Y-85872952D01*
X79149166Y-85932476D01*
X78911071Y-85932476D01*
X78792023Y-85872952D01*
X78672976Y-85753904D01*
X78613452Y-85515809D01*
X78613452Y-85099142D01*
X78672976Y-84861047D01*
X78792023Y-84742000D01*
X78911071Y-84682476D01*
X79982500Y-84682476D02*
X79982500Y-85694380D01*
X80042023Y-85813428D01*
X80101547Y-85872952D01*
X80220595Y-85932476D01*
X80458690Y-85932476D01*
X80577738Y-85872952D01*
X80637261Y-85813428D01*
X80696785Y-85694380D01*
X80696785Y-84682476D01*
X82006309Y-85813428D02*
X81946785Y-85872952D01*
X81768214Y-85932476D01*
X81649166Y-85932476D01*
X81470595Y-85872952D01*
X81351547Y-85753904D01*
X81292023Y-85634857D01*
X81232500Y-85396761D01*
X81232500Y-85218190D01*
X81292023Y-84980095D01*
X81351547Y-84861047D01*
X81470595Y-84742000D01*
X81649166Y-84682476D01*
X81768214Y-84682476D01*
X81946785Y-84742000D01*
X82006309Y-84801523D01*
X82542023Y-85932476D02*
X82542023Y-84682476D01*
X82542023Y-85277714D02*
X83256309Y-85277714D01*
X83256309Y-85932476D02*
X83256309Y-84682476D01*
%TO.C,J17*%
X59824357Y-113490000D02*
X59824357Y-114061428D01*
X60395785Y-114118571D01*
X60338642Y-114061428D01*
X60281500Y-113947142D01*
X60281500Y-113661428D01*
X60338642Y-113547142D01*
X60395785Y-113490000D01*
X60510071Y-113432857D01*
X60795785Y-113432857D01*
X60910071Y-113490000D01*
X60967214Y-113547142D01*
X61024357Y-113661428D01*
X61024357Y-113947142D01*
X60967214Y-114061428D01*
X60910071Y-114118571D01*
X59824357Y-113090000D02*
X61024357Y-112690000D01*
X59824357Y-112290000D01*
X61024357Y-110975714D02*
X59824357Y-110975714D01*
X61024357Y-110404285D02*
X59824357Y-110404285D01*
X61024357Y-109718571D01*
X59824357Y-109718571D01*
%TO.C,J10*%
X91287023Y-152157380D02*
X91858452Y-152157380D01*
X91572738Y-153157380D02*
X91572738Y-152157380D01*
X92191785Y-153157380D02*
X92191785Y-152157380D01*
X92191785Y-152633571D02*
X92763214Y-152633571D01*
X92763214Y-153157380D02*
X92763214Y-152157380D01*
X93239404Y-152633571D02*
X93572738Y-152633571D01*
X93715595Y-153157380D02*
X93239404Y-153157380D01*
X93239404Y-152157380D01*
X93715595Y-152157380D01*
X94715595Y-153157380D02*
X94382261Y-152681190D01*
X94144166Y-153157380D02*
X94144166Y-152157380D01*
X94525119Y-152157380D01*
X94620357Y-152205000D01*
X94667976Y-152252619D01*
X94715595Y-152347857D01*
X94715595Y-152490714D01*
X94667976Y-152585952D01*
X94620357Y-152633571D01*
X94525119Y-152681190D01*
X94144166Y-152681190D01*
X95144166Y-153157380D02*
X95144166Y-152157380D01*
X95477500Y-152871666D01*
X95810833Y-152157380D01*
X95810833Y-153157380D01*
X97572738Y-153157380D02*
X97001309Y-153157380D01*
X97287023Y-153157380D02*
X97287023Y-152157380D01*
X97191785Y-152300238D01*
X97096547Y-152395476D01*
X97001309Y-152443095D01*
%TO.C,J8*%
X91287023Y-178192380D02*
X91858452Y-178192380D01*
X91572738Y-179192380D02*
X91572738Y-178192380D01*
X92191785Y-179192380D02*
X92191785Y-178192380D01*
X92191785Y-178668571D02*
X92763214Y-178668571D01*
X92763214Y-179192380D02*
X92763214Y-178192380D01*
X93239404Y-178668571D02*
X93572738Y-178668571D01*
X93715595Y-179192380D02*
X93239404Y-179192380D01*
X93239404Y-178192380D01*
X93715595Y-178192380D01*
X94715595Y-179192380D02*
X94382261Y-178716190D01*
X94144166Y-179192380D02*
X94144166Y-178192380D01*
X94525119Y-178192380D01*
X94620357Y-178240000D01*
X94667976Y-178287619D01*
X94715595Y-178382857D01*
X94715595Y-178525714D01*
X94667976Y-178620952D01*
X94620357Y-178668571D01*
X94525119Y-178716190D01*
X94144166Y-178716190D01*
X95144166Y-179192380D02*
X95144166Y-178192380D01*
X95477500Y-178906666D01*
X95810833Y-178192380D01*
X95810833Y-179192380D01*
X97239404Y-178192380D02*
X97334642Y-178192380D01*
X97429880Y-178240000D01*
X97477500Y-178287619D01*
X97525119Y-178382857D01*
X97572738Y-178573333D01*
X97572738Y-178811428D01*
X97525119Y-179001904D01*
X97477500Y-179097142D01*
X97429880Y-179144761D01*
X97334642Y-179192380D01*
X97239404Y-179192380D01*
X97144166Y-179144761D01*
X97096547Y-179097142D01*
X97048928Y-179001904D01*
X97001309Y-178811428D01*
X97001309Y-178573333D01*
X97048928Y-178382857D01*
X97096547Y-178287619D01*
X97144166Y-178240000D01*
X97239404Y-178192380D01*
%TO.C,C2*%
X83555833Y-112267142D02*
X83508214Y-112314761D01*
X83365357Y-112362380D01*
X83270119Y-112362380D01*
X83127261Y-112314761D01*
X83032023Y-112219523D01*
X82984404Y-112124285D01*
X82936785Y-111933809D01*
X82936785Y-111790952D01*
X82984404Y-111600476D01*
X83032023Y-111505238D01*
X83127261Y-111410000D01*
X83270119Y-111362380D01*
X83365357Y-111362380D01*
X83508214Y-111410000D01*
X83555833Y-111457619D01*
X83936785Y-111457619D02*
X83984404Y-111410000D01*
X84079642Y-111362380D01*
X84317738Y-111362380D01*
X84412976Y-111410000D01*
X84460595Y-111457619D01*
X84508214Y-111552857D01*
X84508214Y-111648095D01*
X84460595Y-111790952D01*
X83889166Y-112362380D01*
X84508214Y-112362380D01*
%TO.C,C1*%
X83555833Y-138302142D02*
X83508214Y-138349761D01*
X83365357Y-138397380D01*
X83270119Y-138397380D01*
X83127261Y-138349761D01*
X83032023Y-138254523D01*
X82984404Y-138159285D01*
X82936785Y-137968809D01*
X82936785Y-137825952D01*
X82984404Y-137635476D01*
X83032023Y-137540238D01*
X83127261Y-137445000D01*
X83270119Y-137397380D01*
X83365357Y-137397380D01*
X83508214Y-137445000D01*
X83555833Y-137492619D01*
X84508214Y-138397380D02*
X83936785Y-138397380D01*
X84222500Y-138397380D02*
X84222500Y-137397380D01*
X84127261Y-137540238D01*
X84032023Y-137635476D01*
X83936785Y-137683095D01*
%TO.C,C0*%
X84190833Y-164337142D02*
X84143214Y-164384761D01*
X84000357Y-164432380D01*
X83905119Y-164432380D01*
X83762261Y-164384761D01*
X83667023Y-164289523D01*
X83619404Y-164194285D01*
X83571785Y-164003809D01*
X83571785Y-163860952D01*
X83619404Y-163670476D01*
X83667023Y-163575238D01*
X83762261Y-163480000D01*
X83905119Y-163432380D01*
X84000357Y-163432380D01*
X84143214Y-163480000D01*
X84190833Y-163527619D01*
X84809880Y-163432380D02*
X84905119Y-163432380D01*
X85000357Y-163480000D01*
X85047976Y-163527619D01*
X85095595Y-163622857D01*
X85143214Y-163813333D01*
X85143214Y-164051428D01*
X85095595Y-164241904D01*
X85047976Y-164337142D01*
X85000357Y-164384761D01*
X84905119Y-164432380D01*
X84809880Y-164432380D01*
X84714642Y-164384761D01*
X84667023Y-164337142D01*
X84619404Y-164241904D01*
X84571785Y-164051428D01*
X84571785Y-163813333D01*
X84619404Y-163622857D01*
X84667023Y-163527619D01*
X84714642Y-163480000D01*
X84809880Y-163432380D01*
%TO.C,Z4*%
X130954404Y-106134523D02*
X131801071Y-106134523D01*
X130954404Y-107404523D01*
X131801071Y-107404523D01*
X132829166Y-106557857D02*
X132829166Y-107404523D01*
X132526785Y-106074047D02*
X132224404Y-106981190D01*
X133010595Y-106981190D01*
%TO.C,Z3*%
X127144404Y-106134523D02*
X127991071Y-106134523D01*
X127144404Y-107404523D01*
X127991071Y-107404523D01*
X128353928Y-106134523D02*
X129140119Y-106134523D01*
X128716785Y-106618333D01*
X128898214Y-106618333D01*
X129019166Y-106678809D01*
X129079642Y-106739285D01*
X129140119Y-106860238D01*
X129140119Y-107162619D01*
X129079642Y-107283571D01*
X129019166Y-107344047D01*
X128898214Y-107404523D01*
X128535357Y-107404523D01*
X128414404Y-107344047D01*
X128353928Y-107283571D01*
%TO.C,Z2*%
X130795404Y-94704523D02*
X131642071Y-94704523D01*
X130795404Y-95974523D01*
X131642071Y-95974523D01*
X132065404Y-94825476D02*
X132125880Y-94765000D01*
X132246833Y-94704523D01*
X132549214Y-94704523D01*
X132670166Y-94765000D01*
X132730642Y-94825476D01*
X132791119Y-94946428D01*
X132791119Y-95067380D01*
X132730642Y-95248809D01*
X132004928Y-95974523D01*
X132791119Y-95974523D01*
%TO.C,Z1*%
X127144404Y-94704523D02*
X127991071Y-94704523D01*
X127144404Y-95974523D01*
X127991071Y-95974523D01*
X129140119Y-95974523D02*
X128414404Y-95974523D01*
X128777261Y-95974523D02*
X128777261Y-94704523D01*
X128656309Y-94885952D01*
X128535357Y-95006904D01*
X128414404Y-95067380D01*
%TO.C,J13*%
X91287023Y-126122380D02*
X91858452Y-126122380D01*
X91572738Y-127122380D02*
X91572738Y-126122380D01*
X92191785Y-127122380D02*
X92191785Y-126122380D01*
X92191785Y-126598571D02*
X92763214Y-126598571D01*
X92763214Y-127122380D02*
X92763214Y-126122380D01*
X93239404Y-126598571D02*
X93572738Y-126598571D01*
X93715595Y-127122380D02*
X93239404Y-127122380D01*
X93239404Y-126122380D01*
X93715595Y-126122380D01*
X94715595Y-127122380D02*
X94382261Y-126646190D01*
X94144166Y-127122380D02*
X94144166Y-126122380D01*
X94525119Y-126122380D01*
X94620357Y-126170000D01*
X94667976Y-126217619D01*
X94715595Y-126312857D01*
X94715595Y-126455714D01*
X94667976Y-126550952D01*
X94620357Y-126598571D01*
X94525119Y-126646190D01*
X94144166Y-126646190D01*
X95144166Y-127122380D02*
X95144166Y-126122380D01*
X95477500Y-126836666D01*
X95810833Y-126122380D01*
X95810833Y-127122380D01*
X97001309Y-126217619D02*
X97048928Y-126170000D01*
X97144166Y-126122380D01*
X97382261Y-126122380D01*
X97477500Y-126170000D01*
X97525119Y-126217619D01*
X97572738Y-126312857D01*
X97572738Y-126408095D01*
X97525119Y-126550952D01*
X96953690Y-127122380D01*
X97572738Y-127122380D01*
%TO.C,J18*%
X59824357Y-105222142D02*
X59824357Y-104479285D01*
X60281500Y-104879285D01*
X60281500Y-104707857D01*
X60338642Y-104593571D01*
X60395785Y-104536428D01*
X60510071Y-104479285D01*
X60795785Y-104479285D01*
X60910071Y-104536428D01*
X60967214Y-104593571D01*
X61024357Y-104707857D01*
X61024357Y-105050714D01*
X60967214Y-105165000D01*
X60910071Y-105222142D01*
X59824357Y-104136428D02*
X61024357Y-103736428D01*
X59824357Y-103336428D01*
X59824357Y-103050714D02*
X59824357Y-102307857D01*
X60281500Y-102707857D01*
X60281500Y-102536428D01*
X60338642Y-102422142D01*
X60395785Y-102365000D01*
X60510071Y-102307857D01*
X60795785Y-102307857D01*
X60910071Y-102365000D01*
X60967214Y-102422142D01*
X61024357Y-102536428D01*
X61024357Y-102879285D01*
X60967214Y-102993571D01*
X60910071Y-103050714D01*
X61024357Y-100879285D02*
X59824357Y-100879285D01*
X61024357Y-100307857D02*
X59824357Y-100307857D01*
X61024357Y-99622142D01*
X59824357Y-99622142D01*
%TD*%
M02*
