M48
; DRILL file {KiCad (5.1.9)-1} date 01/06/21 12:08:38
; FORMAT={-:-/ absolute / inch / decimal}
; #@! TF.CreationDate,2021-01-06T12:08:38+00:00
; #@! TF.GenerationSoftware,Kicad,Pcbnew,(5.1.9)-1
; #@! TF.FileFunction,Plated,1,2,PTH
FMAT,2
INCH
T1C0.0157
T2C0.0295
T3C0.0374
T4C0.0394
T5C0.0591
T6C0.0650
T7C0.1260
%
G90
G05
T1
X2.575Y-4.775
X2.625Y-4.575
X2.625Y-6.2
X2.65Y-3.5
X2.65Y-3.875
X2.65Y-6.9
X2.75Y-4.7
X2.75Y-4.975
X3.0Y-3.75
X3.025Y-5.075
X3.025Y-6.1
X3.0303Y-6.5559
X3.1Y-6.675
X3.175Y-5.075
X3.175Y-6.1
X3.225Y-4.125
X3.325Y-5.075
X3.325Y-6.1
X3.4Y-3.925
X3.4Y-4.375
X3.4Y-5.4
X3.4Y-6.425
X3.45Y-3.55
X3.5712Y-5.2459
X3.5712Y-6.2659
X3.5912Y-4.1959
X3.7Y-3.9
X3.83Y-3.93
X3.9296Y-3.9104
X3.95Y-3.55
X3.95Y-4.45
X3.95Y-4.6
X3.95Y-4.75
X3.95Y-5.0
X3.95Y-5.475
X3.95Y-5.625
X3.95Y-5.775
X3.95Y-6.025
X3.95Y-6.5
X3.95Y-6.65
X3.95Y-6.8
X3.9712Y-3.8788
X4.125Y-4.125
X4.125Y-5.0
X4.125Y-6.025
X4.3462Y-3.8809
X4.975Y-6.925
X5.0Y-3.5
T2
X4.3712Y-4.1509
X4.3712Y-4.3509
X4.3812Y-5.1859
X4.3812Y-5.3859
X4.3862Y-6.2059
X4.3862Y-6.4059
X4.4212Y-4.2509
X4.4212Y-4.4509
X4.4312Y-5.2859
X4.4312Y-5.4859
X4.4362Y-6.3059
X4.4362Y-6.5059
X4.4712Y-4.1509
X4.4712Y-4.3509
X4.4812Y-5.1859
X4.4812Y-5.3859
X4.4862Y-6.2059
X4.4862Y-6.4059
X4.5212Y-4.2509
X4.5212Y-4.4509
X4.5312Y-5.2859
X4.5312Y-5.4859
X4.5362Y-6.3059
X4.5362Y-6.5059
X4.5712Y-4.1509
X4.5712Y-4.3509
X4.5812Y-5.1859
X4.5812Y-5.3859
X4.5862Y-6.2059
X4.5862Y-6.4059
X4.6212Y-4.2509
X4.6212Y-4.4509
X4.6312Y-5.2859
X4.6312Y-5.4859
X4.6362Y-6.3059
X4.6362Y-6.5059
T3
X2.5712Y-4.9091
X2.5712Y-5.0075
X2.5712Y-5.1059
X2.5712Y-6.3075
X2.5712Y-6.4059
X2.5712Y-6.5043
X2.8243Y-3.8559
X2.9212Y-4.5059
X2.9212Y-4.6043
X2.9212Y-4.7028
X2.9212Y-4.8012
X2.9212Y-5.5309
X2.9212Y-5.6293
X2.9212Y-5.7278
X2.9212Y-5.8262
X2.9212Y-6.5559
X2.9212Y-6.6543
X2.9212Y-6.7528
X2.9212Y-6.8512
X2.9227Y-3.8559
X2.9275Y-3.5559
X3.0212Y-3.8559
X3.0259Y-3.5559
X3.1243Y-3.5559
X3.2227Y-3.5559
X3.3212Y-3.5559
X3.6212Y-4.5059
X3.6212Y-4.8059
X3.6212Y-5.5309
X3.6212Y-5.8309
X3.6212Y-6.5559
X3.6212Y-6.8559
X3.7196Y-4.5059
X3.7196Y-4.8059
X3.7196Y-5.5309
X3.7196Y-5.8309
X3.7196Y-6.5559
X3.7196Y-6.8559
X3.818Y-4.5059
X3.818Y-4.8059
X3.818Y-5.5309
X3.818Y-5.8309
X3.818Y-6.5559
X3.818Y-6.8559
X5.1212Y-4.7106
X5.1212Y-4.8091
X5.1212Y-4.9075
X5.1212Y-5.0059
T4
X2.4962Y-5.3309
X2.4962Y-5.4309
X2.4962Y-5.5309
X2.4962Y-5.8809
X2.4962Y-5.9809
X2.4962Y-6.0809
X2.5712Y-3.9809
X2.5712Y-4.0793
X2.5712Y-4.3559
X2.5712Y-4.4543
X2.5962Y-5.3309
X2.5962Y-5.4309
X2.5962Y-5.5309
X2.5962Y-5.8809
X2.5962Y-5.9809
X2.5962Y-6.0809
X2.7212Y-6.4309
X2.7512Y-3.7659
X3.1712Y-4.8059
X3.1712Y-5.8309
X3.1712Y-6.7559
X3.1712Y-6.8559
X3.2462Y-3.8609
X3.2712Y-4.8059
X3.2712Y-5.8309
X3.2712Y-6.7559
X3.2712Y-6.8559
X3.2862Y-3.6709
X3.3462Y-3.8609
X3.3712Y-4.8059
X3.3712Y-5.8309
X3.3712Y-6.7559
X3.3712Y-6.8559
X3.4462Y-3.8609
X3.5912Y-4.0059
X4.0362Y-3.5609
X4.1907Y-3.5086
X4.3662Y-3.4209
X4.7712Y-3.8059
X4.9862Y-4.5509
X5.0562Y-4.1359
T5
X4.1362Y-3.9859
X4.1512Y-3.6159
X4.7962Y-3.5059
X4.8712Y-4.1059
T6
X4.1212Y-4.8059
X4.1212Y-5.8309
X4.1212Y-6.8559
X4.3212Y-4.8059
X4.3212Y-5.8309
X4.3212Y-6.8559
X4.5712Y-4.8059
X4.5712Y-5.8309
X4.5712Y-6.8559
X4.7712Y-4.8059
X4.7712Y-5.8309
X4.7712Y-6.8559
T7
X2.4712Y-3.5059
X2.4712Y-6.9059
X5.1712Y-3.5059
X5.1712Y-6.9059
T0
M30
