%TF.GenerationSoftware,KiCad,Pcbnew,(5.1.9)-1*%
%TF.CreationDate,2021-02-18T14:55:37+00:00*%
%TF.ProjectId,toolboards - assembly_final,746f6f6c-626f-4617-9264-73202d206173,rev?*%
%TF.SameCoordinates,Original*%
%TF.FileFunction,Soldermask,Top*%
%TF.FilePolarity,Negative*%
%FSLAX46Y46*%
G04 Gerber Fmt 4.6, Leading zero omitted, Abs format (unit mm)*
G04 Created by KiCad (PCBNEW (5.1.9)-1) date 2021-02-18 14:55:37*
%MOMM*%
%LPD*%
G01*
G04 APERTURE LIST*
%ADD10C,0.250000*%
%ADD11C,0.100000*%
%ADD12R,1.200000X0.650000*%
%ADD13C,3.600000*%
%ADD14C,5.600000*%
%ADD15R,0.650000X1.200000*%
%ADD16R,3.000000X0.700000*%
%ADD17R,1.900000X1.100000*%
%ADD18R,2.200000X2.500000*%
%ADD19R,0.600000X1.800000*%
%ADD20R,1.560000X0.650000*%
%ADD21C,2.000000*%
%ADD22C,1.550000*%
%ADD23R,8.000000X1.800000*%
%ADD24C,2.475000*%
%ADD25R,2.475000X2.475000*%
%ADD26R,1.300000X4.500000*%
%ADD27R,1.800000X3.900000*%
%ADD28C,3.100000*%
%ADD29C,4.700000*%
%ADD30O,1.700000X1.700000*%
%ADD31R,1.700000X1.700000*%
%ADD32O,1.950000X1.700000*%
%ADD33O,1.700000X1.950000*%
%ADD34C,1.650000*%
%ADD35R,1.650000X1.650000*%
G04 APERTURE END LIST*
D10*
X180986185Y-69774514D02*
X180914757Y-69845942D01*
X180700471Y-69917371D01*
X180557614Y-69917371D01*
X180343328Y-69845942D01*
X180200471Y-69703085D01*
X180129042Y-69560228D01*
X180057614Y-69274514D01*
X180057614Y-69060228D01*
X180129042Y-68774514D01*
X180200471Y-68631657D01*
X180343328Y-68488800D01*
X180557614Y-68417371D01*
X180700471Y-68417371D01*
X180914757Y-68488800D01*
X180986185Y-68560228D01*
X181629042Y-68417371D02*
X181629042Y-69631657D01*
X181700471Y-69774514D01*
X181771900Y-69845942D01*
X181914757Y-69917371D01*
X182200471Y-69917371D01*
X182343328Y-69845942D01*
X182414757Y-69774514D01*
X182486185Y-69631657D01*
X182486185Y-68417371D01*
X183700471Y-69131657D02*
X183914757Y-69203085D01*
X183986185Y-69274514D01*
X184057614Y-69417371D01*
X184057614Y-69631657D01*
X183986185Y-69774514D01*
X183914757Y-69845942D01*
X183771900Y-69917371D01*
X183200471Y-69917371D01*
X183200471Y-68417371D01*
X183700471Y-68417371D01*
X183843328Y-68488800D01*
X183914757Y-68560228D01*
X183986185Y-68703085D01*
X183986185Y-68845942D01*
X183914757Y-68988800D01*
X183843328Y-69060228D01*
X183700471Y-69131657D01*
X183200471Y-69131657D01*
X184700471Y-69131657D02*
X185200471Y-69131657D01*
X185414757Y-69917371D02*
X184700471Y-69917371D01*
X184700471Y-68417371D01*
X185414757Y-68417371D01*
X179986185Y-70917371D02*
X180986185Y-70917371D01*
X179986185Y-72417371D01*
X180986185Y-72417371D01*
X181557614Y-71631657D02*
X182057614Y-71631657D01*
X182271900Y-72417371D02*
X181557614Y-72417371D01*
X181557614Y-70917371D01*
X182271900Y-70917371D01*
X183771900Y-72417371D02*
X183271900Y-71703085D01*
X182914757Y-72417371D02*
X182914757Y-70917371D01*
X183486185Y-70917371D01*
X183629042Y-70988800D01*
X183700471Y-71060228D01*
X183771900Y-71203085D01*
X183771900Y-71417371D01*
X183700471Y-71560228D01*
X183629042Y-71631657D01*
X183486185Y-71703085D01*
X182914757Y-71703085D01*
X184700471Y-70917371D02*
X184986185Y-70917371D01*
X185129042Y-70988800D01*
X185271900Y-71131657D01*
X185343328Y-71417371D01*
X185343328Y-71917371D01*
X185271900Y-72203085D01*
X185129042Y-72345942D01*
X184986185Y-72417371D01*
X184700471Y-72417371D01*
X184557614Y-72345942D01*
X184414757Y-72203085D01*
X184343328Y-71917371D01*
X184343328Y-71417371D01*
X184414757Y-71131657D01*
X184557614Y-70988800D01*
X184700471Y-70917371D01*
D11*
G36*
X152422200Y-91473000D02*
G01*
X151457000Y-91473000D01*
X151457000Y-89796600D01*
X152422200Y-89796600D01*
X152422200Y-91473000D01*
G37*
X152422200Y-91473000D02*
X151457000Y-91473000D01*
X151457000Y-89796600D01*
X152422200Y-89796600D01*
X152422200Y-91473000D01*
G36*
X160357000Y-91473000D02*
G01*
X159391800Y-91473000D01*
X159391800Y-89796600D01*
X160357000Y-89796600D01*
X160357000Y-91473000D01*
G37*
X160357000Y-91473000D02*
X159391800Y-91473000D01*
X159391800Y-89796600D01*
X160357000Y-89796600D01*
X160357000Y-91473000D01*
G36*
X158119200Y-118130500D02*
G01*
X157154000Y-118130500D01*
X157154000Y-116454100D01*
X158119200Y-116454100D01*
X158119200Y-118130500D01*
G37*
X158119200Y-118130500D02*
X157154000Y-118130500D01*
X157154000Y-116454100D01*
X158119200Y-116454100D01*
X158119200Y-118130500D01*
G36*
X150105500Y-118130500D02*
G01*
X149140300Y-118130500D01*
X149140300Y-116454100D01*
X150105500Y-116454100D01*
X150105500Y-118130500D01*
G37*
X150105500Y-118130500D02*
X149140300Y-118130500D01*
X149140300Y-116454100D01*
X150105500Y-116454100D01*
X150105500Y-118130500D01*
%TO.C,R0*%
G36*
G01*
X125216500Y-88309001D02*
X125216500Y-87408999D01*
G75*
G02*
X125466499Y-87159000I249999J0D01*
G01*
X126166501Y-87159000D01*
G75*
G02*
X126416500Y-87408999I0J-249999D01*
G01*
X126416500Y-88309001D01*
G75*
G02*
X126166501Y-88559000I-249999J0D01*
G01*
X125466499Y-88559000D01*
G75*
G02*
X125216500Y-88309001I0J249999D01*
G01*
G37*
G36*
G01*
X123216500Y-88309001D02*
X123216500Y-87408999D01*
G75*
G02*
X123466499Y-87159000I249999J0D01*
G01*
X124166501Y-87159000D01*
G75*
G02*
X124416500Y-87408999I0J-249999D01*
G01*
X124416500Y-88309001D01*
G75*
G02*
X124166501Y-88559000I-249999J0D01*
G01*
X123466499Y-88559000D01*
G75*
G02*
X123216500Y-88309001I0J249999D01*
G01*
G37*
%TD*%
%TO.C,R3*%
G36*
G01*
X124441000Y-84668999D02*
X124441000Y-85569001D01*
G75*
G02*
X124191001Y-85819000I-249999J0D01*
G01*
X123490999Y-85819000D01*
G75*
G02*
X123241000Y-85569001I0J249999D01*
G01*
X123241000Y-84668999D01*
G75*
G02*
X123490999Y-84419000I249999J0D01*
G01*
X124191001Y-84419000D01*
G75*
G02*
X124441000Y-84668999I0J-249999D01*
G01*
G37*
G36*
G01*
X126441000Y-84668999D02*
X126441000Y-85569001D01*
G75*
G02*
X126191001Y-85819000I-249999J0D01*
G01*
X125490999Y-85819000D01*
G75*
G02*
X125241000Y-85569001I0J249999D01*
G01*
X125241000Y-84668999D01*
G75*
G02*
X125490999Y-84419000I249999J0D01*
G01*
X126191001Y-84419000D01*
G75*
G02*
X126441000Y-84668999I0J-249999D01*
G01*
G37*
%TD*%
%TO.C,LED1*%
G36*
G01*
X128346999Y-78823000D02*
X129247001Y-78823000D01*
G75*
G02*
X129497000Y-79072999I0J-249999D01*
G01*
X129497000Y-79723001D01*
G75*
G02*
X129247001Y-79973000I-249999J0D01*
G01*
X128346999Y-79973000D01*
G75*
G02*
X128097000Y-79723001I0J249999D01*
G01*
X128097000Y-79072999D01*
G75*
G02*
X128346999Y-78823000I249999J0D01*
G01*
G37*
G36*
G01*
X128346999Y-76773000D02*
X129247001Y-76773000D01*
G75*
G02*
X129497000Y-77022999I0J-249999D01*
G01*
X129497000Y-77673001D01*
G75*
G02*
X129247001Y-77923000I-249999J0D01*
G01*
X128346999Y-77923000D01*
G75*
G02*
X128097000Y-77673001I0J249999D01*
G01*
X128097000Y-77022999D01*
G75*
G02*
X128346999Y-76773000I249999J0D01*
G01*
G37*
%TD*%
%TO.C,R1*%
G36*
G01*
X132811999Y-93393000D02*
X133712001Y-93393000D01*
G75*
G02*
X133962000Y-93642999I0J-249999D01*
G01*
X133962000Y-94343001D01*
G75*
G02*
X133712001Y-94593000I-249999J0D01*
G01*
X132811999Y-94593000D01*
G75*
G02*
X132562000Y-94343001I0J249999D01*
G01*
X132562000Y-93642999D01*
G75*
G02*
X132811999Y-93393000I249999J0D01*
G01*
G37*
G36*
G01*
X132811999Y-91393000D02*
X133712001Y-91393000D01*
G75*
G02*
X133962000Y-91642999I0J-249999D01*
G01*
X133962000Y-92343001D01*
G75*
G02*
X133712001Y-92593000I-249999J0D01*
G01*
X132811999Y-92593000D01*
G75*
G02*
X132562000Y-92343001I0J249999D01*
G01*
X132562000Y-91642999D01*
G75*
G02*
X132811999Y-91393000I249999J0D01*
G01*
G37*
%TD*%
%TO.C,LED0*%
G36*
G01*
X128172000Y-94148000D02*
X129422000Y-94148000D01*
G75*
G02*
X129672000Y-94398000I0J-250000D01*
G01*
X129672000Y-95323000D01*
G75*
G02*
X129422000Y-95573000I-250000J0D01*
G01*
X128172000Y-95573000D01*
G75*
G02*
X127922000Y-95323000I0J250000D01*
G01*
X127922000Y-94398000D01*
G75*
G02*
X128172000Y-94148000I250000J0D01*
G01*
G37*
G36*
G01*
X128172000Y-91173000D02*
X129422000Y-91173000D01*
G75*
G02*
X129672000Y-91423000I0J-250000D01*
G01*
X129672000Y-92348000D01*
G75*
G02*
X129422000Y-92598000I-250000J0D01*
G01*
X128172000Y-92598000D01*
G75*
G02*
X127922000Y-92348000I0J250000D01*
G01*
X127922000Y-91423000D01*
G75*
G02*
X128172000Y-91173000I250000J0D01*
G01*
G37*
%TD*%
D12*
%TO.C,Q0*%
X130847000Y-89009500D03*
X130847000Y-87089500D03*
X128747000Y-88049500D03*
%TD*%
%TO.C,R5*%
G36*
G01*
X124416500Y-82011499D02*
X124416500Y-82911501D01*
G75*
G02*
X124166501Y-83161500I-249999J0D01*
G01*
X123466499Y-83161500D01*
G75*
G02*
X123216500Y-82911501I0J249999D01*
G01*
X123216500Y-82011499D01*
G75*
G02*
X123466499Y-81761500I249999J0D01*
G01*
X124166501Y-81761500D01*
G75*
G02*
X124416500Y-82011499I0J-249999D01*
G01*
G37*
G36*
G01*
X126416500Y-82011499D02*
X126416500Y-82911501D01*
G75*
G02*
X126166501Y-83161500I-249999J0D01*
G01*
X125466499Y-83161500D01*
G75*
G02*
X125216500Y-82911501I0J249999D01*
G01*
X125216500Y-82011499D01*
G75*
G02*
X125466499Y-81761500I249999J0D01*
G01*
X126166501Y-81761500D01*
G75*
G02*
X126416500Y-82011499I0J-249999D01*
G01*
G37*
%TD*%
%TO.C,R4*%
G36*
G01*
X124441000Y-89748999D02*
X124441000Y-90649001D01*
G75*
G02*
X124191001Y-90899000I-249999J0D01*
G01*
X123490999Y-90899000D01*
G75*
G02*
X123241000Y-90649001I0J249999D01*
G01*
X123241000Y-89748999D01*
G75*
G02*
X123490999Y-89499000I249999J0D01*
G01*
X124191001Y-89499000D01*
G75*
G02*
X124441000Y-89748999I0J-249999D01*
G01*
G37*
G36*
G01*
X126441000Y-89748999D02*
X126441000Y-90649001D01*
G75*
G02*
X126191001Y-90899000I-249999J0D01*
G01*
X125490999Y-90899000D01*
G75*
G02*
X125241000Y-90649001I0J249999D01*
G01*
X125241000Y-89748999D01*
G75*
G02*
X125490999Y-89499000I249999J0D01*
G01*
X126191001Y-89499000D01*
G75*
G02*
X126441000Y-89748999I0J-249999D01*
G01*
G37*
%TD*%
D13*
%TO.C,H9*%
X123797000Y-94373000D03*
D14*
X123797000Y-94373000D03*
%TD*%
%TO.C,R2*%
G36*
G01*
X132811999Y-88894000D02*
X133712001Y-88894000D01*
G75*
G02*
X133962000Y-89143999I0J-249999D01*
G01*
X133962000Y-89844001D01*
G75*
G02*
X133712001Y-90094000I-249999J0D01*
G01*
X132811999Y-90094000D01*
G75*
G02*
X132562000Y-89844001I0J249999D01*
G01*
X132562000Y-89143999D01*
G75*
G02*
X132811999Y-88894000I249999J0D01*
G01*
G37*
G36*
G01*
X132811999Y-86894000D02*
X133712001Y-86894000D01*
G75*
G02*
X133962000Y-87143999I0J-249999D01*
G01*
X133962000Y-87844001D01*
G75*
G02*
X133712001Y-88094000I-249999J0D01*
G01*
X132811999Y-88094000D01*
G75*
G02*
X132562000Y-87844001I0J249999D01*
G01*
X132562000Y-87143999D01*
G75*
G02*
X132811999Y-86894000I249999J0D01*
G01*
G37*
%TD*%
D15*
%TO.C,Q2*%
X132302000Y-80273000D03*
X134222000Y-80273000D03*
X133262000Y-78173000D03*
%TD*%
%TO.C,R7*%
G36*
G01*
X134170000Y-83991001D02*
X134170000Y-83090999D01*
G75*
G02*
X134419999Y-82841000I249999J0D01*
G01*
X135120001Y-82841000D01*
G75*
G02*
X135370000Y-83090999I0J-249999D01*
G01*
X135370000Y-83991001D01*
G75*
G02*
X135120001Y-84241000I-249999J0D01*
G01*
X134419999Y-84241000D01*
G75*
G02*
X134170000Y-83991001I0J249999D01*
G01*
G37*
G36*
G01*
X132170000Y-83991001D02*
X132170000Y-83090999D01*
G75*
G02*
X132419999Y-82841000I249999J0D01*
G01*
X133120001Y-82841000D01*
G75*
G02*
X133370000Y-83090999I0J-249999D01*
G01*
X133370000Y-83991001D01*
G75*
G02*
X133120001Y-84241000I-249999J0D01*
G01*
X132419999Y-84241000D01*
G75*
G02*
X132170000Y-83991001I0J249999D01*
G01*
G37*
%TD*%
D12*
%TO.C,Q1*%
X130847000Y-84333000D03*
X130847000Y-82413000D03*
X128747000Y-83373000D03*
%TD*%
D13*
%TO.C,H8*%
X123797000Y-77373000D03*
D14*
X123797000Y-77373000D03*
%TD*%
D16*
%TO.C,J16*%
X146337000Y-84138000D03*
X146337000Y-82638000D03*
X146337000Y-81138000D03*
X146337000Y-79638000D03*
D17*
X142087000Y-86088000D03*
X142087000Y-77688000D03*
%TD*%
D18*
%TO.C,J13*%
X163056000Y-93163000D03*
X148856000Y-93163000D03*
D19*
X160456000Y-90623000D03*
X159456000Y-90623000D03*
X158456000Y-90623000D03*
X157456000Y-90623000D03*
X156456000Y-90623000D03*
X155456000Y-90623000D03*
X154456000Y-90623000D03*
X153456000Y-90623000D03*
X152456000Y-90623000D03*
X151456000Y-90623000D03*
%TD*%
%TO.C,J10*%
X149098000Y-117305000D03*
X150098000Y-117305000D03*
X151098000Y-117305000D03*
X152098000Y-117305000D03*
X153098000Y-117305000D03*
X154098000Y-117305000D03*
X155098000Y-117305000D03*
X156098000Y-117305000D03*
X157098000Y-117305000D03*
X158098000Y-117305000D03*
D18*
X146498000Y-119845000D03*
X160698000Y-119845000D03*
%TD*%
D20*
%TO.C,U1*%
X173208000Y-77379000D03*
X173208000Y-76429000D03*
X173208000Y-75479000D03*
X170508000Y-75479000D03*
X170508000Y-77379000D03*
%TD*%
D21*
%TO.C,J9*%
X155247000Y-113114000D03*
X155247000Y-110574000D03*
X155247000Y-108034000D03*
X155247000Y-105494000D03*
%TD*%
%TO.C,J11*%
X151947000Y-105494000D03*
X151947000Y-108034000D03*
X151947000Y-110574000D03*
X151947000Y-113114000D03*
%TD*%
D22*
%TO.C,J3*%
X145902000Y-38148000D03*
X143362000Y-38148000D03*
X145902000Y-40688000D03*
X143362000Y-40688000D03*
X145902000Y-43228000D03*
X143362000Y-43228000D03*
X145902000Y-45768000D03*
X143362000Y-45768000D03*
%TD*%
D23*
%TO.C,J8*%
X168613000Y-45768000D03*
X168613000Y-43228000D03*
X168613000Y-40688000D03*
X168613000Y-38148000D03*
%TD*%
D24*
%TO.C,J5*%
X149987000Y-51943000D03*
D25*
X144907000Y-51943000D03*
%TD*%
D26*
%TO.C,J4*%
X158409000Y-54356000D03*
X160909000Y-54356000D03*
X163409000Y-54356000D03*
D27*
X155209000Y-61156000D03*
X166609000Y-61156000D03*
%TD*%
D14*
%TO.C,H6*%
X161037000Y-105334000D03*
D13*
X161037000Y-105334000D03*
%TD*%
D14*
%TO.C,H7*%
X143657000Y-110334000D03*
D13*
X143657000Y-110334000D03*
%TD*%
D28*
%TO.C,H3*%
X144462000Y-32183000D03*
D29*
X144462000Y-32183000D03*
%TD*%
D28*
%TO.C,H4*%
X157262000Y-48038000D03*
D29*
X157262000Y-48038000D03*
%TD*%
D28*
%TO.C,H5*%
X163761999Y-32183000D03*
D29*
X163761999Y-32183000D03*
%TD*%
D14*
%TO.C,H12*%
X171957000Y-70873000D03*
D13*
X171957000Y-70873000D03*
%TD*%
D30*
%TO.C,JP1*%
X151417000Y-79096000D03*
X153957000Y-79096000D03*
D31*
X156497000Y-79096000D03*
%TD*%
D24*
%TO.C,J14*%
X167457000Y-83563000D03*
D25*
X167457000Y-88643000D03*
%TD*%
D32*
%TO.C,J15*%
X165957000Y-75873000D03*
X165957000Y-73373000D03*
G36*
G01*
X165232000Y-70023000D02*
X166682000Y-70023000D01*
G75*
G02*
X166932000Y-70273000I0J-250000D01*
G01*
X166932000Y-71473000D01*
G75*
G02*
X166682000Y-71723000I-250000J0D01*
G01*
X165232000Y-71723000D01*
G75*
G02*
X164982000Y-71473000I0J250000D01*
G01*
X164982000Y-70273000D01*
G75*
G02*
X165232000Y-70023000I250000J0D01*
G01*
G37*
%TD*%
D14*
%TO.C,H11*%
X171957000Y-93873000D03*
D13*
X171957000Y-93873000D03*
%TD*%
D33*
%TO.C,J12*%
X143957000Y-71873000D03*
X146457000Y-71873000D03*
X148957000Y-71873000D03*
X151457000Y-71873000D03*
X153957000Y-71873000D03*
X156457000Y-71873000D03*
G36*
G01*
X159807000Y-71148000D02*
X159807000Y-72598000D01*
G75*
G02*
X159557000Y-72848000I-250000J0D01*
G01*
X158357000Y-72848000D01*
G75*
G02*
X158107000Y-72598000I0J250000D01*
G01*
X158107000Y-71148000D01*
G75*
G02*
X158357000Y-70898000I250000J0D01*
G01*
X159557000Y-70898000D01*
G75*
G02*
X159807000Y-71148000I0J-250000D01*
G01*
G37*
%TD*%
D14*
%TO.C,H10*%
X143957000Y-93873000D03*
D13*
X143957000Y-93873000D03*
%TD*%
D29*
%TO.C,H0*%
X195936462Y-77320774D03*
D28*
X195936462Y-77320774D03*
%TD*%
D33*
%TO.C,J1*%
X190397401Y-76632383D03*
X187897401Y-76632383D03*
X185397401Y-76632383D03*
G36*
G01*
X182047401Y-77357383D02*
X182047401Y-75907383D01*
G75*
G02*
X182297401Y-75657383I250000J0D01*
G01*
X183497401Y-75657383D01*
G75*
G02*
X183747401Y-75907383I0J-250000D01*
G01*
X183747401Y-77357383D01*
G75*
G02*
X183497401Y-77607383I-250000J0D01*
G01*
X182297401Y-77607383D01*
G75*
G02*
X182047401Y-77357383I0J250000D01*
G01*
G37*
%TD*%
D34*
%TO.C,J2*%
X197671391Y-104200151D03*
X200211391Y-104200151D03*
X197671391Y-101660151D03*
X200211391Y-101660151D03*
X197671391Y-99120151D03*
X200211391Y-99120151D03*
X197671391Y-96580151D03*
D35*
X200211391Y-96580151D03*
%TD*%
%TO.C,J0*%
G36*
G01*
X184913292Y-85547235D02*
X184913292Y-85547235D01*
G75*
G02*
X185279317Y-84181210I866025J500000D01*
G01*
X186145343Y-83681210D01*
G75*
G02*
X187511368Y-84047235I500000J-866025D01*
G01*
X187511368Y-84047235D01*
G75*
G02*
X187145343Y-85413260I-866025J-500000D01*
G01*
X186279317Y-85913260D01*
G75*
G02*
X184913292Y-85547235I-500000J866025D01*
G01*
G37*
G36*
G01*
X187985950Y-83773235D02*
X187985950Y-83773235D01*
G75*
G02*
X188351975Y-82407210I866025J500000D01*
G01*
X189218001Y-81907210D01*
G75*
G02*
X190584026Y-82273235I500000J-866025D01*
G01*
X190584026Y-82273235D01*
G75*
G02*
X190218001Y-83639260I-866025J-500000D01*
G01*
X189351975Y-84139260D01*
G75*
G02*
X187985950Y-83773235I-500000J866025D01*
G01*
G37*
G36*
G01*
X186176364Y-87750939D02*
X186176364Y-87750939D01*
G75*
G02*
X186542389Y-86384914I866025J500000D01*
G01*
X187408415Y-85884914D01*
G75*
G02*
X188774440Y-86250939I500000J-866025D01*
G01*
X188774440Y-86250939D01*
G75*
G02*
X188408415Y-87616964I-866025J-500000D01*
G01*
X187542389Y-88116964D01*
G75*
G02*
X186176364Y-87750939I-500000J866025D01*
G01*
G37*
G36*
G01*
X187446364Y-89950644D02*
X187446364Y-89950644D01*
G75*
G02*
X187812389Y-88584619I866025J500000D01*
G01*
X188678415Y-88084619D01*
G75*
G02*
X190044440Y-88450644I500000J-866025D01*
G01*
X190044440Y-88450644D01*
G75*
G02*
X189678415Y-89816669I-866025J-500000D01*
G01*
X188812389Y-90316669D01*
G75*
G02*
X187446364Y-89950644I-500000J866025D01*
G01*
G37*
G36*
G01*
X188716364Y-92150348D02*
X188716364Y-92150348D01*
G75*
G02*
X189082389Y-90784323I866025J500000D01*
G01*
X189948415Y-90284323D01*
G75*
G02*
X191314440Y-90650348I500000J-866025D01*
G01*
X191314440Y-90650348D01*
G75*
G02*
X190948415Y-92016373I-866025J-500000D01*
G01*
X190082389Y-92516373D01*
G75*
G02*
X188716364Y-92150348I-500000J866025D01*
G01*
G37*
G36*
G01*
X189986364Y-94350053D02*
X189986364Y-94350053D01*
G75*
G02*
X190352389Y-92984028I866025J500000D01*
G01*
X191218415Y-92484028D01*
G75*
G02*
X192584440Y-92850053I500000J-866025D01*
G01*
X192584440Y-92850053D01*
G75*
G02*
X192218415Y-94216078I-866025J-500000D01*
G01*
X191352389Y-94716078D01*
G75*
G02*
X189986364Y-94350053I-500000J866025D01*
G01*
G37*
G36*
G01*
X191256364Y-96549757D02*
X191256364Y-96549757D01*
G75*
G02*
X191622389Y-95183732I866025J500000D01*
G01*
X192488415Y-94683732D01*
G75*
G02*
X193854440Y-95049757I500000J-866025D01*
G01*
X193854440Y-95049757D01*
G75*
G02*
X193488415Y-96415782I-866025J-500000D01*
G01*
X192622389Y-96915782D01*
G75*
G02*
X191256364Y-96549757I-500000J866025D01*
G01*
G37*
G36*
G01*
X194335950Y-94771757D02*
X194335950Y-94771757D01*
G75*
G02*
X194701975Y-93405732I866025J500000D01*
G01*
X195568001Y-92905732D01*
G75*
G02*
X196934026Y-93271757I500000J-866025D01*
G01*
X196934026Y-93271757D01*
G75*
G02*
X196568001Y-94637782I-866025J-500000D01*
G01*
X195701975Y-95137782D01*
G75*
G02*
X194335950Y-94771757I-500000J866025D01*
G01*
G37*
G36*
G01*
X193065950Y-92572053D02*
X193065950Y-92572053D01*
G75*
G02*
X193431975Y-91206028I866025J500000D01*
G01*
X194298001Y-90706028D01*
G75*
G02*
X195664026Y-91072053I500000J-866025D01*
G01*
X195664026Y-91072053D01*
G75*
G02*
X195298001Y-92438078I-866025J-500000D01*
G01*
X194431975Y-92938078D01*
G75*
G02*
X193065950Y-92572053I-500000J866025D01*
G01*
G37*
G36*
G01*
X191795950Y-90372348D02*
X191795950Y-90372348D01*
G75*
G02*
X192161975Y-89006323I866025J500000D01*
G01*
X193028001Y-88506323D01*
G75*
G02*
X194394026Y-88872348I500000J-866025D01*
G01*
X194394026Y-88872348D01*
G75*
G02*
X194028001Y-90238373I-866025J-500000D01*
G01*
X193161975Y-90738373D01*
G75*
G02*
X191795950Y-90372348I-500000J866025D01*
G01*
G37*
G36*
G01*
X190525950Y-88172644D02*
X190525950Y-88172644D01*
G75*
G02*
X190891975Y-86806619I866025J500000D01*
G01*
X191758001Y-86306619D01*
G75*
G02*
X193124026Y-86672644I500000J-866025D01*
G01*
X193124026Y-86672644D01*
G75*
G02*
X192758001Y-88038669I-866025J-500000D01*
G01*
X191891975Y-88538669D01*
G75*
G02*
X190525950Y-88172644I-500000J866025D01*
G01*
G37*
G36*
G01*
X189255950Y-85972939D02*
X189255950Y-85972939D01*
G75*
G02*
X189621975Y-84606914I866025J500000D01*
G01*
X190488001Y-84106914D01*
G75*
G02*
X191854026Y-84472939I500000J-866025D01*
G01*
X191854026Y-84472939D01*
G75*
G02*
X191488001Y-85838964I-866025J-500000D01*
G01*
X190621975Y-86338964D01*
G75*
G02*
X189255950Y-85972939I-500000J866025D01*
G01*
G37*
%TD*%
D29*
%TO.C,H2*%
X182220195Y-89411496D03*
D28*
X182220195Y-89411496D03*
%TD*%
D29*
%TO.C,H1*%
X205719256Y-105831593D03*
D28*
X205719256Y-105831593D03*
%TD*%
M02*
