%TF.GenerationSoftware,KiCad,Pcbnew,(5.1.9)-1*%
%TF.CreationDate,2021-02-18T14:55:37+00:00*%
%TF.ProjectId,toolboards - assembly_final,746f6f6c-626f-4617-9264-73202d206173,rev?*%
%TF.SameCoordinates,Original*%
%TF.FileFunction,Legend,Bot*%
%TF.FilePolarity,Positive*%
%FSLAX46Y46*%
G04 Gerber Fmt 4.6, Leading zero omitted, Abs format (unit mm)*
G04 Created by KiCad (PCBNEW (5.1.9)-1) date 2021-02-18 14:55:37*
%MOMM*%
%LPD*%
G01*
G04 APERTURE LIST*
%ADD10C,0.300000*%
%ADD11C,0.150000*%
%ADD12C,0.250000*%
%ADD13C,0.100000*%
%ADD14C,0.200000*%
%ADD15C,0.120000*%
%ADD16C,0.500000*%
%ADD17C,3.600000*%
%ADD18C,5.600000*%
%ADD19R,1.900000X1.100000*%
%ADD20R,3.000000X0.700000*%
%ADD21R,2.200000X2.500000*%
%ADD22C,2.000000*%
%ADD23C,1.550000*%
%ADD24C,2.475000*%
%ADD25R,2.475000X2.475000*%
%ADD26R,8.000000X1.800000*%
%ADD27R,1.300000X4.500000*%
%ADD28R,1.800000X3.900000*%
%ADD29C,3.100000*%
%ADD30C,4.700000*%
%ADD31O,1.700000X1.700000*%
%ADD32R,1.700000X1.700000*%
%ADD33O,1.950000X1.700000*%
%ADD34O,1.700000X1.950000*%
%ADD35C,1.650000*%
%ADD36R,1.650000X1.650000*%
G04 APERTURE END LIST*
D10*
X164178095Y-63928761D02*
X164178095Y-65357333D01*
X164273333Y-65643047D01*
X164463809Y-65833523D01*
X164749523Y-65928761D01*
X164940000Y-65928761D01*
X162273333Y-65928761D02*
X163225714Y-65928761D01*
X163225714Y-63928761D01*
X160463809Y-65738285D02*
X160559047Y-65833523D01*
X160844761Y-65928761D01*
X161035238Y-65928761D01*
X161320952Y-65833523D01*
X161511428Y-65643047D01*
X161606666Y-65452571D01*
X161701904Y-65071619D01*
X161701904Y-64785904D01*
X161606666Y-64404952D01*
X161511428Y-64214476D01*
X161320952Y-64024000D01*
X161035238Y-63928761D01*
X160844761Y-63928761D01*
X160559047Y-64024000D01*
X160463809Y-64119238D01*
X159035238Y-63928761D02*
X159035238Y-65357333D01*
X159130476Y-65643047D01*
X159320952Y-65833523D01*
X159606666Y-65928761D01*
X159797142Y-65928761D01*
X157130476Y-65928761D02*
X158082857Y-65928761D01*
X158082857Y-63928761D01*
X155320952Y-65738285D02*
X155416190Y-65833523D01*
X155701904Y-65928761D01*
X155892380Y-65928761D01*
X156178095Y-65833523D01*
X156368571Y-65643047D01*
X156463809Y-65452571D01*
X156559047Y-65071619D01*
X156559047Y-64785904D01*
X156463809Y-64404952D01*
X156368571Y-64214476D01*
X156178095Y-64024000D01*
X155892380Y-63928761D01*
X155701904Y-63928761D01*
X155416190Y-64024000D01*
X155320952Y-64119238D01*
X153892380Y-63928761D02*
X153892380Y-65357333D01*
X153987619Y-65643047D01*
X154178095Y-65833523D01*
X154463809Y-65928761D01*
X154654285Y-65928761D01*
X151987619Y-65928761D02*
X152940000Y-65928761D01*
X152940000Y-63928761D01*
X150178095Y-65738285D02*
X150273333Y-65833523D01*
X150559047Y-65928761D01*
X150749523Y-65928761D01*
X151035238Y-65833523D01*
X151225714Y-65643047D01*
X151320952Y-65452571D01*
X151416190Y-65071619D01*
X151416190Y-64785904D01*
X151320952Y-64404952D01*
X151225714Y-64214476D01*
X151035238Y-64024000D01*
X150749523Y-63928761D01*
X150559047Y-63928761D01*
X150273333Y-64024000D01*
X150178095Y-64119238D01*
X148749523Y-63928761D02*
X148749523Y-65357333D01*
X148844761Y-65643047D01*
X149035238Y-65833523D01*
X149320952Y-65928761D01*
X149511428Y-65928761D01*
X146844761Y-65928761D02*
X147797142Y-65928761D01*
X147797142Y-63928761D01*
X145035238Y-65738285D02*
X145130476Y-65833523D01*
X145416190Y-65928761D01*
X145606666Y-65928761D01*
X145892380Y-65833523D01*
X146082857Y-65643047D01*
X146178095Y-65452571D01*
X146273333Y-65071619D01*
X146273333Y-64785904D01*
X146178095Y-64404952D01*
X146082857Y-64214476D01*
X145892380Y-64024000D01*
X145606666Y-63928761D01*
X145416190Y-63928761D01*
X145130476Y-64024000D01*
X145035238Y-64119238D01*
D11*
X122489857Y-81327642D02*
X122561285Y-81541928D01*
X122632714Y-81613357D01*
X122775571Y-81684785D01*
X122989857Y-81684785D01*
X123132714Y-81613357D01*
X123204142Y-81541928D01*
X123275571Y-81399071D01*
X123275571Y-80827642D01*
X121775571Y-80827642D01*
X121775571Y-81327642D01*
X121847000Y-81470500D01*
X121918428Y-81541928D01*
X122061285Y-81613357D01*
X122204142Y-81613357D01*
X122347000Y-81541928D01*
X122418428Y-81470500D01*
X122489857Y-81327642D01*
X122489857Y-80827642D01*
X122847000Y-82256214D02*
X122847000Y-82970500D01*
X123275571Y-82113357D02*
X121775571Y-82613357D01*
X123275571Y-83113357D01*
X121775571Y-83399071D02*
X121775571Y-84256214D01*
X123275571Y-83827642D02*
X121775571Y-83827642D01*
X123132714Y-85613357D02*
X123204142Y-85541928D01*
X123275571Y-85327642D01*
X123275571Y-85184785D01*
X123204142Y-84970500D01*
X123061285Y-84827642D01*
X122918428Y-84756214D01*
X122632714Y-84684785D01*
X122418428Y-84684785D01*
X122132714Y-84756214D01*
X121989857Y-84827642D01*
X121847000Y-84970500D01*
X121775571Y-85184785D01*
X121775571Y-85327642D01*
X121847000Y-85541928D01*
X121918428Y-85613357D01*
X123275571Y-86256214D02*
X121775571Y-86256214D01*
X122489857Y-86256214D02*
X122489857Y-87113357D01*
X123275571Y-87113357D02*
X121775571Y-87113357D01*
X123132714Y-87827642D02*
X123204142Y-87899071D01*
X123275571Y-87827642D01*
X123204142Y-87756214D01*
X123132714Y-87827642D01*
X123275571Y-87827642D01*
X122347000Y-87827642D02*
X122418428Y-87899071D01*
X122489857Y-87827642D01*
X122418428Y-87756214D01*
X122347000Y-87827642D01*
X122489857Y-87827642D01*
X123275571Y-90470500D02*
X123275571Y-89613357D01*
X123275571Y-90041928D02*
X121775571Y-90041928D01*
X121989857Y-89899071D01*
X122132714Y-89756214D01*
X122204142Y-89613357D01*
X125604142Y-80756214D02*
X125675571Y-80970500D01*
X125675571Y-81327642D01*
X125604142Y-81470500D01*
X125532714Y-81541928D01*
X125389857Y-81613357D01*
X125247000Y-81613357D01*
X125104142Y-81541928D01*
X125032714Y-81470500D01*
X124961285Y-81327642D01*
X124889857Y-81041928D01*
X124818428Y-80899071D01*
X124747000Y-80827642D01*
X124604142Y-80756214D01*
X124461285Y-80756214D01*
X124318428Y-80827642D01*
X124247000Y-80899071D01*
X124175571Y-81041928D01*
X124175571Y-81399071D01*
X124247000Y-81613357D01*
X124104142Y-83327642D02*
X126032714Y-82041928D01*
X125675571Y-83827642D02*
X124175571Y-83827642D01*
X125675571Y-84684785D01*
X124175571Y-84684785D01*
X125532714Y-85399071D02*
X125604142Y-85470500D01*
X125675571Y-85399071D01*
X125604142Y-85327642D01*
X125532714Y-85399071D01*
X125675571Y-85399071D01*
X124747000Y-85399071D02*
X124818428Y-85470500D01*
X124889857Y-85399071D01*
X124818428Y-85327642D01*
X124747000Y-85399071D01*
X124889857Y-85399071D01*
D12*
X132742357Y-93256571D02*
X132742357Y-91756571D01*
X132385214Y-91756571D01*
X132170928Y-91828000D01*
X132028071Y-91970857D01*
X131956642Y-92113714D01*
X131885214Y-92399428D01*
X131885214Y-92613714D01*
X131956642Y-92899428D01*
X132028071Y-93042285D01*
X132170928Y-93185142D01*
X132385214Y-93256571D01*
X132742357Y-93256571D01*
X130956642Y-91756571D02*
X130670928Y-91756571D01*
X130528071Y-91828000D01*
X130385214Y-91970857D01*
X130313785Y-92256571D01*
X130313785Y-92756571D01*
X130385214Y-93042285D01*
X130528071Y-93185142D01*
X130670928Y-93256571D01*
X130956642Y-93256571D01*
X131099500Y-93185142D01*
X131242357Y-93042285D01*
X131313785Y-92756571D01*
X131313785Y-92256571D01*
X131242357Y-91970857D01*
X131099500Y-91828000D01*
X130956642Y-91756571D01*
X128813785Y-93113714D02*
X128885214Y-93185142D01*
X129099500Y-93256571D01*
X129242357Y-93256571D01*
X129456642Y-93185142D01*
X129599500Y-93042285D01*
X129670928Y-92899428D01*
X129742357Y-92613714D01*
X129742357Y-92399428D01*
X129670928Y-92113714D01*
X129599500Y-91970857D01*
X129456642Y-91828000D01*
X129242357Y-91756571D01*
X129099500Y-91756571D01*
X128885214Y-91828000D01*
X128813785Y-91899428D01*
X128170928Y-93256571D02*
X128170928Y-91756571D01*
X127313785Y-93256571D02*
X127956642Y-92399428D01*
X127313785Y-91756571D02*
X128170928Y-92613714D01*
X132028071Y-95756571D02*
X132742357Y-95756571D01*
X132742357Y-94256571D01*
X131528071Y-94970857D02*
X131028071Y-94970857D01*
X130813785Y-95756571D02*
X131528071Y-95756571D01*
X131528071Y-94256571D01*
X130813785Y-94256571D01*
X130170928Y-95756571D02*
X130170928Y-94256571D01*
X129813785Y-94256571D01*
X129599500Y-94328000D01*
X129456642Y-94470857D01*
X129385214Y-94613714D01*
X129313785Y-94899428D01*
X129313785Y-95113714D01*
X129385214Y-95399428D01*
X129456642Y-95542285D01*
X129599500Y-95685142D01*
X129813785Y-95756571D01*
X130170928Y-95756571D01*
X128742357Y-95685142D02*
X128528071Y-95756571D01*
X128170928Y-95756571D01*
X128028071Y-95685142D01*
X127956642Y-95613714D01*
X127885214Y-95470857D01*
X127885214Y-95328000D01*
X127956642Y-95185142D01*
X128028071Y-95113714D01*
X128170928Y-95042285D01*
X128456642Y-94970857D01*
X128599500Y-94899428D01*
X128670928Y-94828000D01*
X128742357Y-94685142D01*
X128742357Y-94542285D01*
X128670928Y-94399428D01*
X128599500Y-94328000D01*
X128456642Y-94256571D01*
X128099500Y-94256571D01*
X127885214Y-94328000D01*
D13*
G36*
X203993400Y-103254800D02*
G01*
X203358400Y-103889800D01*
X202723400Y-105159800D01*
X202723400Y-107699800D01*
X202088400Y-107699800D01*
X202088400Y-93094800D01*
X203993400Y-93094800D01*
X203993400Y-103254800D01*
G37*
X203993400Y-103254800D02*
X203358400Y-103889800D01*
X202723400Y-105159800D01*
X202723400Y-107699800D01*
X202088400Y-107699800D01*
X202088400Y-93094800D01*
X203993400Y-93094800D01*
X203993400Y-103254800D01*
D11*
X195037757Y-91279657D02*
X194823471Y-91351085D01*
X194752042Y-91422514D01*
X194680614Y-91565371D01*
X194680614Y-91779657D01*
X194752042Y-91922514D01*
X194823471Y-91993942D01*
X194966328Y-92065371D01*
X195537757Y-92065371D01*
X195537757Y-90565371D01*
X195037757Y-90565371D01*
X194894900Y-90636800D01*
X194823471Y-90708228D01*
X194752042Y-90851085D01*
X194752042Y-90993942D01*
X194823471Y-91136800D01*
X194894900Y-91208228D01*
X195037757Y-91279657D01*
X195537757Y-91279657D01*
X194109185Y-91636800D02*
X193394900Y-91636800D01*
X194252042Y-92065371D02*
X193752042Y-90565371D01*
X193252042Y-92065371D01*
X192966328Y-90565371D02*
X192109185Y-90565371D01*
X192537757Y-92065371D02*
X192537757Y-90565371D01*
X190752042Y-91922514D02*
X190823471Y-91993942D01*
X191037757Y-92065371D01*
X191180614Y-92065371D01*
X191394900Y-91993942D01*
X191537757Y-91851085D01*
X191609185Y-91708228D01*
X191680614Y-91422514D01*
X191680614Y-91208228D01*
X191609185Y-90922514D01*
X191537757Y-90779657D01*
X191394900Y-90636800D01*
X191180614Y-90565371D01*
X191037757Y-90565371D01*
X190823471Y-90636800D01*
X190752042Y-90708228D01*
X190109185Y-92065371D02*
X190109185Y-90565371D01*
X190109185Y-91279657D02*
X189252042Y-91279657D01*
X189252042Y-92065371D02*
X189252042Y-90565371D01*
X188537757Y-91922514D02*
X188466328Y-91993942D01*
X188537757Y-92065371D01*
X188609185Y-91993942D01*
X188537757Y-91922514D01*
X188537757Y-92065371D01*
X188537757Y-91136800D02*
X188466328Y-91208228D01*
X188537757Y-91279657D01*
X188609185Y-91208228D01*
X188537757Y-91136800D01*
X188537757Y-91279657D01*
X185894900Y-92065371D02*
X186752042Y-92065371D01*
X186323471Y-92065371D02*
X186323471Y-90565371D01*
X186466328Y-90779657D01*
X186609185Y-90922514D01*
X186752042Y-90993942D01*
X195609185Y-94393942D02*
X195394900Y-94465371D01*
X195037757Y-94465371D01*
X194894900Y-94393942D01*
X194823471Y-94322514D01*
X194752042Y-94179657D01*
X194752042Y-94036800D01*
X194823471Y-93893942D01*
X194894900Y-93822514D01*
X195037757Y-93751085D01*
X195323471Y-93679657D01*
X195466328Y-93608228D01*
X195537757Y-93536800D01*
X195609185Y-93393942D01*
X195609185Y-93251085D01*
X195537757Y-93108228D01*
X195466328Y-93036800D01*
X195323471Y-92965371D01*
X194966328Y-92965371D01*
X194752042Y-93036800D01*
X193037757Y-92893942D02*
X194323471Y-94822514D01*
X192537757Y-94465371D02*
X192537757Y-92965371D01*
X191680614Y-94465371D01*
X191680614Y-92965371D01*
X190966328Y-94322514D02*
X190894900Y-94393942D01*
X190966328Y-94465371D01*
X191037757Y-94393942D01*
X190966328Y-94322514D01*
X190966328Y-94465371D01*
X190966328Y-93536800D02*
X190894900Y-93608228D01*
X190966328Y-93679657D01*
X191037757Y-93608228D01*
X190966328Y-93536800D01*
X190966328Y-93679657D01*
D12*
X162937357Y-75031571D02*
X162937357Y-73531571D01*
X162580214Y-73531571D01*
X162365928Y-73603000D01*
X162223071Y-73745857D01*
X162151642Y-73888714D01*
X162080214Y-74174428D01*
X162080214Y-74388714D01*
X162151642Y-74674428D01*
X162223071Y-74817285D01*
X162365928Y-74960142D01*
X162580214Y-75031571D01*
X162937357Y-75031571D01*
X161151642Y-73531571D02*
X160865928Y-73531571D01*
X160723071Y-73603000D01*
X160580214Y-73745857D01*
X160508785Y-74031571D01*
X160508785Y-74531571D01*
X160580214Y-74817285D01*
X160723071Y-74960142D01*
X160865928Y-75031571D01*
X161151642Y-75031571D01*
X161294500Y-74960142D01*
X161437357Y-74817285D01*
X161508785Y-74531571D01*
X161508785Y-74031571D01*
X161437357Y-73745857D01*
X161294500Y-73603000D01*
X161151642Y-73531571D01*
X159008785Y-74888714D02*
X159080214Y-74960142D01*
X159294500Y-75031571D01*
X159437357Y-75031571D01*
X159651642Y-74960142D01*
X159794500Y-74817285D01*
X159865928Y-74674428D01*
X159937357Y-74388714D01*
X159937357Y-74174428D01*
X159865928Y-73888714D01*
X159794500Y-73745857D01*
X159651642Y-73603000D01*
X159437357Y-73531571D01*
X159294500Y-73531571D01*
X159080214Y-73603000D01*
X159008785Y-73674428D01*
X158365928Y-75031571D02*
X158365928Y-73531571D01*
X157508785Y-75031571D02*
X158151642Y-74174428D01*
X157508785Y-73531571D02*
X158365928Y-74388714D01*
X155723071Y-75031571D02*
X155723071Y-73531571D01*
X155008785Y-75031571D02*
X155008785Y-73531571D01*
X154151642Y-75031571D01*
X154151642Y-73531571D01*
X153651642Y-73531571D02*
X152794500Y-73531571D01*
X153223071Y-75031571D02*
X153223071Y-73531571D01*
X152294500Y-74245857D02*
X151794500Y-74245857D01*
X151580214Y-75031571D02*
X152294500Y-75031571D01*
X152294500Y-73531571D01*
X151580214Y-73531571D01*
X150080214Y-75031571D02*
X150580214Y-74317285D01*
X150937357Y-75031571D02*
X150937357Y-73531571D01*
X150365928Y-73531571D01*
X150223071Y-73603000D01*
X150151642Y-73674428D01*
X150080214Y-73817285D01*
X150080214Y-74031571D01*
X150151642Y-74174428D01*
X150223071Y-74245857D01*
X150365928Y-74317285D01*
X150937357Y-74317285D01*
X148937357Y-74245857D02*
X149437357Y-74245857D01*
X149437357Y-75031571D02*
X149437357Y-73531571D01*
X148723071Y-73531571D01*
X148223071Y-74603000D02*
X147508785Y-74603000D01*
X148365928Y-75031571D02*
X147865928Y-73531571D01*
X147365928Y-75031571D01*
X146008785Y-74888714D02*
X146080214Y-74960142D01*
X146294500Y-75031571D01*
X146437357Y-75031571D01*
X146651642Y-74960142D01*
X146794500Y-74817285D01*
X146865928Y-74674428D01*
X146937357Y-74388714D01*
X146937357Y-74174428D01*
X146865928Y-73888714D01*
X146794500Y-73745857D01*
X146651642Y-73603000D01*
X146437357Y-73531571D01*
X146294500Y-73531571D01*
X146080214Y-73603000D01*
X146008785Y-73674428D01*
X145365928Y-74245857D02*
X144865928Y-74245857D01*
X144651642Y-75031571D02*
X145365928Y-75031571D01*
X145365928Y-73531571D01*
X144651642Y-73531571D01*
X162437357Y-76745857D02*
X162223071Y-76817285D01*
X162151642Y-76888714D01*
X162080214Y-77031571D01*
X162080214Y-77245857D01*
X162151642Y-77388714D01*
X162223071Y-77460142D01*
X162365928Y-77531571D01*
X162937357Y-77531571D01*
X162937357Y-76031571D01*
X162437357Y-76031571D01*
X162294500Y-76103000D01*
X162223071Y-76174428D01*
X162151642Y-76317285D01*
X162151642Y-76460142D01*
X162223071Y-76603000D01*
X162294500Y-76674428D01*
X162437357Y-76745857D01*
X162937357Y-76745857D01*
X161151642Y-76031571D02*
X160865928Y-76031571D01*
X160723071Y-76103000D01*
X160580214Y-76245857D01*
X160508785Y-76531571D01*
X160508785Y-77031571D01*
X160580214Y-77317285D01*
X160723071Y-77460142D01*
X160865928Y-77531571D01*
X161151642Y-77531571D01*
X161294500Y-77460142D01*
X161437357Y-77317285D01*
X161508785Y-77031571D01*
X161508785Y-76531571D01*
X161437357Y-76245857D01*
X161294500Y-76103000D01*
X161151642Y-76031571D01*
X159937357Y-77103000D02*
X159223071Y-77103000D01*
X160080214Y-77531571D02*
X159580214Y-76031571D01*
X159080214Y-77531571D01*
X157723071Y-77531571D02*
X158223071Y-76817285D01*
X158580214Y-77531571D02*
X158580214Y-76031571D01*
X158008785Y-76031571D01*
X157865928Y-76103000D01*
X157794500Y-76174428D01*
X157723071Y-76317285D01*
X157723071Y-76531571D01*
X157794500Y-76674428D01*
X157865928Y-76745857D01*
X158008785Y-76817285D01*
X158580214Y-76817285D01*
X157080214Y-77531571D02*
X157080214Y-76031571D01*
X156723071Y-76031571D01*
X156508785Y-76103000D01*
X156365928Y-76245857D01*
X156294500Y-76388714D01*
X156223071Y-76674428D01*
X156223071Y-76888714D01*
X156294500Y-77174428D01*
X156365928Y-77317285D01*
X156508785Y-77460142D01*
X156723071Y-77531571D01*
X157080214Y-77531571D01*
X162437357Y-82745857D02*
X162223071Y-82817285D01*
X162151642Y-82888714D01*
X162080214Y-83031571D01*
X162080214Y-83245857D01*
X162151642Y-83388714D01*
X162223071Y-83460142D01*
X162365928Y-83531571D01*
X162937357Y-83531571D01*
X162937357Y-82031571D01*
X162437357Y-82031571D01*
X162294500Y-82103000D01*
X162223071Y-82174428D01*
X162151642Y-82317285D01*
X162151642Y-82460142D01*
X162223071Y-82603000D01*
X162294500Y-82674428D01*
X162437357Y-82745857D01*
X162937357Y-82745857D01*
X161508785Y-83103000D02*
X160794500Y-83103000D01*
X161651642Y-83531571D02*
X161151642Y-82031571D01*
X160651642Y-83531571D01*
X160365928Y-82031571D02*
X159508785Y-82031571D01*
X159937357Y-83531571D02*
X159937357Y-82031571D01*
X158151642Y-83388714D02*
X158223071Y-83460142D01*
X158437357Y-83531571D01*
X158580214Y-83531571D01*
X158794500Y-83460142D01*
X158937357Y-83317285D01*
X159008785Y-83174428D01*
X159080214Y-82888714D01*
X159080214Y-82674428D01*
X159008785Y-82388714D01*
X158937357Y-82245857D01*
X158794500Y-82103000D01*
X158580214Y-82031571D01*
X158437357Y-82031571D01*
X158223071Y-82103000D01*
X158151642Y-82174428D01*
X157508785Y-83531571D02*
X157508785Y-82031571D01*
X157508785Y-82745857D02*
X156651642Y-82745857D01*
X156651642Y-83531571D02*
X156651642Y-82031571D01*
X155937357Y-83388714D02*
X155865928Y-83460142D01*
X155937357Y-83531571D01*
X156008785Y-83460142D01*
X155937357Y-83388714D01*
X155937357Y-83531571D01*
X155937357Y-82603000D02*
X155865928Y-82674428D01*
X155937357Y-82745857D01*
X156008785Y-82674428D01*
X155937357Y-82603000D01*
X155937357Y-82745857D01*
X153294500Y-83531571D02*
X154151642Y-83531571D01*
X153723071Y-83531571D02*
X153723071Y-82031571D01*
X153865928Y-82245857D01*
X154008785Y-82388714D01*
X154151642Y-82460142D01*
X163008785Y-85960142D02*
X162794500Y-86031571D01*
X162437357Y-86031571D01*
X162294500Y-85960142D01*
X162223071Y-85888714D01*
X162151642Y-85745857D01*
X162151642Y-85603000D01*
X162223071Y-85460142D01*
X162294500Y-85388714D01*
X162437357Y-85317285D01*
X162723071Y-85245857D01*
X162865928Y-85174428D01*
X162937357Y-85103000D01*
X163008785Y-84960142D01*
X163008785Y-84817285D01*
X162937357Y-84674428D01*
X162865928Y-84603000D01*
X162723071Y-84531571D01*
X162365928Y-84531571D01*
X162151642Y-84603000D01*
X160437357Y-84460142D02*
X161723071Y-86388714D01*
X159937357Y-86031571D02*
X159937357Y-84531571D01*
X159080214Y-86031571D01*
X159080214Y-84531571D01*
X158365928Y-85888714D02*
X158294500Y-85960142D01*
X158365928Y-86031571D01*
X158437357Y-85960142D01*
X158365928Y-85888714D01*
X158365928Y-86031571D01*
X158365928Y-85103000D02*
X158294500Y-85174428D01*
X158365928Y-85245857D01*
X158437357Y-85174428D01*
X158365928Y-85103000D01*
X158365928Y-85245857D01*
X158646642Y-35111571D02*
X157789500Y-35111571D01*
X158218071Y-36611571D02*
X158218071Y-35111571D01*
X157003785Y-35111571D02*
X156718071Y-35111571D01*
X156575214Y-35183000D01*
X156432357Y-35325857D01*
X156360928Y-35611571D01*
X156360928Y-36111571D01*
X156432357Y-36397285D01*
X156575214Y-36540142D01*
X156718071Y-36611571D01*
X157003785Y-36611571D01*
X157146642Y-36540142D01*
X157289500Y-36397285D01*
X157360928Y-36111571D01*
X157360928Y-35611571D01*
X157289500Y-35325857D01*
X157146642Y-35183000D01*
X157003785Y-35111571D01*
X155432357Y-35111571D02*
X155146642Y-35111571D01*
X155003785Y-35183000D01*
X154860928Y-35325857D01*
X154789500Y-35611571D01*
X154789500Y-36111571D01*
X154860928Y-36397285D01*
X155003785Y-36540142D01*
X155146642Y-36611571D01*
X155432357Y-36611571D01*
X155575214Y-36540142D01*
X155718071Y-36397285D01*
X155789500Y-36111571D01*
X155789500Y-35611571D01*
X155718071Y-35325857D01*
X155575214Y-35183000D01*
X155432357Y-35111571D01*
X153432357Y-36611571D02*
X154146642Y-36611571D01*
X154146642Y-35111571D01*
X158432357Y-39111571D02*
X158432357Y-37611571D01*
X157932357Y-38683000D01*
X157432357Y-37611571D01*
X157432357Y-39111571D01*
X156718071Y-39111571D02*
X156718071Y-37611571D01*
X155860928Y-39111571D02*
X156503785Y-38254428D01*
X155860928Y-37611571D02*
X156718071Y-38468714D01*
X155218071Y-38968714D02*
X155146642Y-39040142D01*
X155218071Y-39111571D01*
X155289500Y-39040142D01*
X155218071Y-38968714D01*
X155218071Y-39111571D01*
X152575214Y-39111571D02*
X153432357Y-39111571D01*
X153003785Y-39111571D02*
X153003785Y-37611571D01*
X153146642Y-37825857D01*
X153289500Y-37968714D01*
X153432357Y-38040142D01*
D11*
X158493071Y-120514857D02*
X158893071Y-119943428D01*
X159178785Y-120514857D02*
X159178785Y-119314857D01*
X158721642Y-119314857D01*
X158607357Y-119372000D01*
X158550214Y-119429142D01*
X158493071Y-119543428D01*
X158493071Y-119714857D01*
X158550214Y-119829142D01*
X158607357Y-119886285D01*
X158721642Y-119943428D01*
X159178785Y-119943428D01*
X157521642Y-120457714D02*
X157635928Y-120514857D01*
X157864500Y-120514857D01*
X157978785Y-120457714D01*
X158035928Y-120343428D01*
X158035928Y-119886285D01*
X157978785Y-119772000D01*
X157864500Y-119714857D01*
X157635928Y-119714857D01*
X157521642Y-119772000D01*
X157464500Y-119886285D01*
X157464500Y-120000571D01*
X158035928Y-120114857D01*
X157064500Y-119714857D02*
X156778785Y-120514857D01*
X156493071Y-119714857D01*
X154893071Y-119314857D02*
X154778785Y-119314857D01*
X154664500Y-119372000D01*
X154607357Y-119429142D01*
X154550214Y-119543428D01*
X154493071Y-119772000D01*
X154493071Y-120057714D01*
X154550214Y-120286285D01*
X154607357Y-120400571D01*
X154664500Y-120457714D01*
X154778785Y-120514857D01*
X154893071Y-120514857D01*
X155007357Y-120457714D01*
X155064500Y-120400571D01*
X155121642Y-120286285D01*
X155178785Y-120057714D01*
X155178785Y-119772000D01*
X155121642Y-119543428D01*
X155064500Y-119429142D01*
X155007357Y-119372000D01*
X154893071Y-119314857D01*
D14*
X159146285Y-116974857D02*
X159146285Y-115774857D01*
X158860571Y-115774857D01*
X158689142Y-115832000D01*
X158574857Y-115946285D01*
X158517714Y-116060571D01*
X158460571Y-116289142D01*
X158460571Y-116460571D01*
X158517714Y-116689142D01*
X158574857Y-116803428D01*
X158689142Y-116917714D01*
X158860571Y-116974857D01*
X159146285Y-116974857D01*
X157717714Y-115774857D02*
X157489142Y-115774857D01*
X157374857Y-115832000D01*
X157260571Y-115946285D01*
X157203428Y-116174857D01*
X157203428Y-116574857D01*
X157260571Y-116803428D01*
X157374857Y-116917714D01*
X157489142Y-116974857D01*
X157717714Y-116974857D01*
X157832000Y-116917714D01*
X157946285Y-116803428D01*
X158003428Y-116574857D01*
X158003428Y-116174857D01*
X157946285Y-115946285D01*
X157832000Y-115832000D01*
X157717714Y-115774857D01*
X156003428Y-116860571D02*
X156060571Y-116917714D01*
X156232000Y-116974857D01*
X156346285Y-116974857D01*
X156517714Y-116917714D01*
X156632000Y-116803428D01*
X156689142Y-116689142D01*
X156746285Y-116460571D01*
X156746285Y-116289142D01*
X156689142Y-116060571D01*
X156632000Y-115946285D01*
X156517714Y-115832000D01*
X156346285Y-115774857D01*
X156232000Y-115774857D01*
X156060571Y-115832000D01*
X156003428Y-115889142D01*
X155489142Y-116974857D02*
X155489142Y-115774857D01*
X154803428Y-116974857D02*
X155317714Y-116289142D01*
X154803428Y-115774857D02*
X155489142Y-116460571D01*
X159146285Y-117774857D02*
X159146285Y-118746285D01*
X159089142Y-118860571D01*
X159032000Y-118917714D01*
X158917714Y-118974857D01*
X158689142Y-118974857D01*
X158574857Y-118917714D01*
X158517714Y-118860571D01*
X158460571Y-118746285D01*
X158460571Y-117774857D01*
X157889142Y-118974857D02*
X157889142Y-117774857D01*
X157489142Y-118632000D01*
X157089142Y-117774857D01*
X157089142Y-118974857D01*
X156117714Y-118346285D02*
X155946285Y-118403428D01*
X155889142Y-118460571D01*
X155832000Y-118574857D01*
X155832000Y-118746285D01*
X155889142Y-118860571D01*
X155946285Y-118917714D01*
X156060571Y-118974857D01*
X156517714Y-118974857D01*
X156517714Y-117774857D01*
X156117714Y-117774857D01*
X156003428Y-117832000D01*
X155946285Y-117889142D01*
X155889142Y-118003428D01*
X155889142Y-118117714D01*
X155946285Y-118232000D01*
X156003428Y-118289142D01*
X156117714Y-118346285D01*
X156517714Y-118346285D01*
X155317714Y-118974857D02*
X155317714Y-117774857D01*
X154174857Y-118974857D02*
X154746285Y-118974857D01*
X154746285Y-117774857D01*
X153774857Y-118974857D02*
X153774857Y-117774857D01*
X152517714Y-118860571D02*
X152574857Y-118917714D01*
X152746285Y-118974857D01*
X152860571Y-118974857D01*
X153032000Y-118917714D01*
X153146285Y-118803428D01*
X153203428Y-118689142D01*
X153260571Y-118460571D01*
X153260571Y-118289142D01*
X153203428Y-118060571D01*
X153146285Y-117946285D01*
X153032000Y-117832000D01*
X152860571Y-117774857D01*
X152746285Y-117774857D01*
X152574857Y-117832000D01*
X152517714Y-117889142D01*
X152060571Y-118632000D02*
X151489142Y-118632000D01*
X152174857Y-118974857D02*
X151774857Y-117774857D01*
X151374857Y-118974857D01*
X150403428Y-118974857D02*
X150974857Y-118974857D01*
X150974857Y-117774857D01*
%TO.C,J17*%
X128777000Y-88516000D02*
X129285000Y-88516000D01*
X129031000Y-88135000D02*
X128777000Y-88516000D01*
X129285000Y-88516000D02*
X129031000Y-88135000D01*
X129647000Y-88673000D02*
X129647000Y-89773000D01*
X135947000Y-89773000D02*
X135547000Y-89773000D01*
X135947000Y-80473000D02*
X135947000Y-89773000D01*
X133047000Y-89773000D02*
X129647000Y-89773000D01*
X135947000Y-80473000D02*
X135547000Y-80473000D01*
X130747000Y-88673000D02*
X129647000Y-88673000D01*
X133047000Y-80473000D02*
X129647000Y-80473000D01*
X129647000Y-81573000D02*
X129647000Y-80473000D01*
X130747000Y-81573000D02*
X129647000Y-81573000D01*
X130747000Y-88673000D02*
X130747000Y-88073000D01*
X130747000Y-82173000D02*
X130747000Y-81573000D01*
X130747000Y-86673000D02*
X130747000Y-86573000D01*
X130747000Y-85173000D02*
X130747000Y-85073000D01*
X130747000Y-83673000D02*
X130747000Y-83573000D01*
D15*
%TO.C,R6*%
X131838064Y-77218000D02*
X131383936Y-77218000D01*
X131838064Y-78688000D02*
X131383936Y-78688000D01*
D14*
%TO.C,J9*%
X156747000Y-113224000D02*
X156747000Y-103994000D01*
X156747000Y-103994000D02*
X153747000Y-103994000D01*
X153747000Y-103994000D02*
X153747000Y-114614000D01*
X153747000Y-114614000D02*
X155247000Y-114614000D01*
%TO.C,J11*%
X150447000Y-105384000D02*
X150447000Y-114614000D01*
X150447000Y-114614000D02*
X153447000Y-114614000D01*
X153447000Y-114614000D02*
X153447000Y-103994000D01*
X153447000Y-103994000D02*
X151947000Y-103994000D01*
D16*
%TO.C,J7*%
X164072000Y-45768000D02*
G75*
G03*
X164072000Y-45768000I-254000J0D01*
G01*
D11*
X170763000Y-47038000D02*
X165763000Y-47038000D01*
X165763000Y-36878000D02*
X170763000Y-36878000D01*
X165763000Y-35958000D02*
X170763000Y-35958000D01*
X165763000Y-47958000D02*
X170763000Y-47958000D01*
X165763000Y-47958000D02*
X165763000Y-47038000D01*
X170763000Y-47958000D02*
X170763000Y-47038000D01*
X170763000Y-36878000D02*
X170763000Y-35958000D01*
X165763000Y-36878000D02*
X165763000Y-35958000D01*
D15*
X165763000Y-44658000D02*
X165763000Y-44358000D01*
X165752000Y-42158000D02*
X165752000Y-41758000D01*
X165763000Y-39558000D02*
X165763000Y-39258000D01*
X170952000Y-41958000D02*
X172552000Y-41958000D01*
D14*
%TO.C,J6*%
X165409000Y-62763000D02*
X156409000Y-62763000D01*
X167159000Y-55763000D02*
X167159000Y-58956000D01*
X167159000Y-55763000D02*
X164297000Y-55763000D01*
X154659000Y-55763000D02*
X157518000Y-55763000D01*
X154659000Y-55763000D02*
X154659000Y-58956000D01*
D16*
X165554000Y-53086000D02*
G75*
G03*
X165554000Y-53086000I-200000J0D01*
G01*
D15*
%TO.C,J1*%
X180047401Y-79382383D02*
X180047401Y-78132383D01*
X181297401Y-79382383D02*
X180047401Y-79382383D01*
X192197401Y-73882383D02*
X186647401Y-73882383D01*
X192197401Y-76832383D02*
X192197401Y-73882383D01*
X192947401Y-76832383D02*
X192197401Y-76832383D01*
X181097401Y-73882383D02*
X186647401Y-73882383D01*
X181097401Y-76832383D02*
X181097401Y-73882383D01*
X180347401Y-76832383D02*
X181097401Y-76832383D01*
X192947401Y-79082383D02*
X191147401Y-79082383D01*
X192947401Y-78332383D02*
X192947401Y-79082383D01*
X191147401Y-78332383D02*
X192947401Y-78332383D01*
X191147401Y-79082383D02*
X191147401Y-78332383D01*
X182147401Y-79082383D02*
X180347401Y-79082383D01*
X182147401Y-78332383D02*
X182147401Y-79082383D01*
X180347401Y-78332383D02*
X182147401Y-78332383D01*
X180347401Y-79082383D02*
X180347401Y-78332383D01*
X189647401Y-79082383D02*
X183647401Y-79082383D01*
X189647401Y-78332383D02*
X189647401Y-79082383D01*
X183647401Y-78332383D02*
X189647401Y-78332383D01*
X183647401Y-79082383D02*
X183647401Y-78332383D01*
X192957401Y-79092383D02*
X180337401Y-79092383D01*
X192957401Y-73122383D02*
X192957401Y-79092383D01*
X180337401Y-73122383D02*
X192957401Y-73122383D01*
X180337401Y-79092383D02*
X180337401Y-73122383D01*
D14*
%TO.C,J2*%
X200211391Y-95310151D02*
X201416391Y-95310151D01*
X201416391Y-95310151D02*
X201416391Y-105470151D01*
X201416391Y-105470151D02*
X196466391Y-105470151D01*
X196466391Y-105470151D02*
X196466391Y-96580151D01*
%TO.C,J17*%
D11*
X132714380Y-84313476D02*
X133428666Y-84313476D01*
X133571523Y-84265857D01*
X133666761Y-84170619D01*
X133714380Y-84027761D01*
X133714380Y-83932523D01*
X133714380Y-85313476D02*
X133714380Y-84742047D01*
X133714380Y-85027761D02*
X132714380Y-85027761D01*
X132857238Y-84932523D01*
X132952476Y-84837285D01*
X133000095Y-84742047D01*
X132714380Y-85646809D02*
X132714380Y-86313476D01*
X133714380Y-85884904D01*
%TO.C,R6*%
X131777666Y-76755380D02*
X132111000Y-76279190D01*
X132349095Y-76755380D02*
X132349095Y-75755380D01*
X131968142Y-75755380D01*
X131872904Y-75803000D01*
X131825285Y-75850619D01*
X131777666Y-75945857D01*
X131777666Y-76088714D01*
X131825285Y-76183952D01*
X131872904Y-76231571D01*
X131968142Y-76279190D01*
X132349095Y-76279190D01*
X130920523Y-75755380D02*
X131111000Y-75755380D01*
X131206238Y-75803000D01*
X131253857Y-75850619D01*
X131349095Y-75993476D01*
X131396714Y-76183952D01*
X131396714Y-76564904D01*
X131349095Y-76660142D01*
X131301476Y-76707761D01*
X131206238Y-76755380D01*
X131015761Y-76755380D01*
X130920523Y-76707761D01*
X130872904Y-76660142D01*
X130825285Y-76564904D01*
X130825285Y-76326809D01*
X130872904Y-76231571D01*
X130920523Y-76183952D01*
X131015761Y-76136333D01*
X131206238Y-76136333D01*
X131301476Y-76183952D01*
X131349095Y-76231571D01*
X131396714Y-76326809D01*
%TO.C,J9*%
X159394857Y-109359000D02*
X160252000Y-109359000D01*
X160423428Y-109301857D01*
X160537714Y-109187571D01*
X160594857Y-109016142D01*
X160594857Y-108901857D01*
X160594857Y-109987571D02*
X160594857Y-110216142D01*
X160537714Y-110330428D01*
X160480571Y-110387571D01*
X160309142Y-110501857D01*
X160080571Y-110559000D01*
X159623428Y-110559000D01*
X159509142Y-110501857D01*
X159452000Y-110444714D01*
X159394857Y-110330428D01*
X159394857Y-110101857D01*
X159452000Y-109987571D01*
X159509142Y-109930428D01*
X159623428Y-109873285D01*
X159909142Y-109873285D01*
X160023428Y-109930428D01*
X160080571Y-109987571D01*
X160137714Y-110101857D01*
X160137714Y-110330428D01*
X160080571Y-110444714D01*
X160023428Y-110501857D01*
X159909142Y-110559000D01*
X158580857Y-107402571D02*
X157380857Y-107402571D01*
X157380857Y-107688285D01*
X157438000Y-107859714D01*
X157552285Y-107974000D01*
X157666571Y-108031142D01*
X157895142Y-108088285D01*
X158066571Y-108088285D01*
X158295142Y-108031142D01*
X158409428Y-107974000D01*
X158523714Y-107859714D01*
X158580857Y-107688285D01*
X158580857Y-107402571D01*
X157380857Y-108831142D02*
X157380857Y-109059714D01*
X157438000Y-109174000D01*
X157552285Y-109288285D01*
X157780857Y-109345428D01*
X158180857Y-109345428D01*
X158409428Y-109288285D01*
X158523714Y-109174000D01*
X158580857Y-109059714D01*
X158580857Y-108831142D01*
X158523714Y-108716857D01*
X158409428Y-108602571D01*
X158180857Y-108545428D01*
X157780857Y-108545428D01*
X157552285Y-108602571D01*
X157438000Y-108716857D01*
X157380857Y-108831142D01*
X158466571Y-110545428D02*
X158523714Y-110488285D01*
X158580857Y-110316857D01*
X158580857Y-110202571D01*
X158523714Y-110031142D01*
X158409428Y-109916857D01*
X158295142Y-109859714D01*
X158066571Y-109802571D01*
X157895142Y-109802571D01*
X157666571Y-109859714D01*
X157552285Y-109916857D01*
X157438000Y-110031142D01*
X157380857Y-110202571D01*
X157380857Y-110316857D01*
X157438000Y-110488285D01*
X157495142Y-110545428D01*
X158580857Y-111059714D02*
X157380857Y-111059714D01*
X158580857Y-111745428D02*
X157895142Y-111231142D01*
X157380857Y-111745428D02*
X158066571Y-111059714D01*
X158580857Y-113802571D02*
X158580857Y-113116857D01*
X158580857Y-113459714D02*
X157380857Y-113459714D01*
X157552285Y-113345428D01*
X157666571Y-113231142D01*
X157723714Y-113116857D01*
%TO.C,J11*%
X148744857Y-104522571D02*
X149602000Y-104522571D01*
X149773428Y-104465428D01*
X149887714Y-104351142D01*
X149944857Y-104179714D01*
X149944857Y-104065428D01*
X149944857Y-105722571D02*
X149944857Y-105036857D01*
X149944857Y-105379714D02*
X148744857Y-105379714D01*
X148916285Y-105265428D01*
X149030571Y-105151142D01*
X149087714Y-105036857D01*
X149944857Y-106865428D02*
X149944857Y-106179714D01*
X149944857Y-106522571D02*
X148744857Y-106522571D01*
X148916285Y-106408285D01*
X149030571Y-106294000D01*
X149087714Y-106179714D01*
X149944857Y-108037571D02*
X148744857Y-108037571D01*
X148744857Y-108323285D01*
X148802000Y-108494714D01*
X148916285Y-108609000D01*
X149030571Y-108666142D01*
X149259142Y-108723285D01*
X149430571Y-108723285D01*
X149659142Y-108666142D01*
X149773428Y-108609000D01*
X149887714Y-108494714D01*
X149944857Y-108323285D01*
X149944857Y-108037571D01*
X148744857Y-109466142D02*
X148744857Y-109694714D01*
X148802000Y-109809000D01*
X148916285Y-109923285D01*
X149144857Y-109980428D01*
X149544857Y-109980428D01*
X149773428Y-109923285D01*
X149887714Y-109809000D01*
X149944857Y-109694714D01*
X149944857Y-109466142D01*
X149887714Y-109351857D01*
X149773428Y-109237571D01*
X149544857Y-109180428D01*
X149144857Y-109180428D01*
X148916285Y-109237571D01*
X148802000Y-109351857D01*
X148744857Y-109466142D01*
X149830571Y-111180428D02*
X149887714Y-111123285D01*
X149944857Y-110951857D01*
X149944857Y-110837571D01*
X149887714Y-110666142D01*
X149773428Y-110551857D01*
X149659142Y-110494714D01*
X149430571Y-110437571D01*
X149259142Y-110437571D01*
X149030571Y-110494714D01*
X148916285Y-110551857D01*
X148802000Y-110666142D01*
X148744857Y-110837571D01*
X148744857Y-110951857D01*
X148802000Y-111123285D01*
X148859142Y-111180428D01*
X149944857Y-111694714D02*
X148744857Y-111694714D01*
X149944857Y-112380428D02*
X149259142Y-111866142D01*
X148744857Y-112380428D02*
X149430571Y-111694714D01*
X148859142Y-113751857D02*
X148802000Y-113809000D01*
X148744857Y-113923285D01*
X148744857Y-114209000D01*
X148802000Y-114323285D01*
X148859142Y-114380428D01*
X148973428Y-114437571D01*
X149087714Y-114437571D01*
X149259142Y-114380428D01*
X149944857Y-113694714D01*
X149944857Y-114437571D01*
%TO.C,J7*%
X162144857Y-41558000D02*
X163002000Y-41558000D01*
X163173428Y-41500857D01*
X163287714Y-41386571D01*
X163344857Y-41215142D01*
X163344857Y-41100857D01*
X162144857Y-42015142D02*
X162144857Y-42815142D01*
X163344857Y-42300857D01*
%TO.C,J6*%
X164466285Y-50746000D02*
X163894857Y-50746000D01*
X164580571Y-51088857D02*
X164180571Y-49888857D01*
X163780571Y-51088857D01*
X163380571Y-49888857D02*
X163380571Y-50860285D01*
X163323428Y-50974571D01*
X163266285Y-51031714D01*
X163152000Y-51088857D01*
X162923428Y-51088857D01*
X162809142Y-51031714D01*
X162752000Y-50974571D01*
X162694857Y-50860285D01*
X162694857Y-49888857D01*
X162237714Y-49888857D02*
X161437714Y-51088857D01*
X161437714Y-49888857D02*
X162237714Y-51088857D01*
X159837714Y-49888857D02*
X159723428Y-49888857D01*
X159609142Y-49946000D01*
X159552000Y-50003142D01*
X159494857Y-50117428D01*
X159437714Y-50346000D01*
X159437714Y-50631714D01*
X159494857Y-50860285D01*
X159552000Y-50974571D01*
X159609142Y-51031714D01*
X159723428Y-51088857D01*
X159837714Y-51088857D01*
X159952000Y-51031714D01*
X160009142Y-50974571D01*
X160066285Y-50860285D01*
X160123428Y-50631714D01*
X160123428Y-50346000D01*
X160066285Y-50117428D01*
X160009142Y-50003142D01*
X159952000Y-49946000D01*
X159837714Y-49888857D01*
%TO.C,J1*%
X185288904Y-71700380D02*
X185288904Y-70700380D01*
X184955571Y-71414666D01*
X184622238Y-70700380D01*
X184622238Y-71700380D01*
X183955571Y-70700380D02*
X183765095Y-70700380D01*
X183669857Y-70748000D01*
X183574619Y-70843238D01*
X183527000Y-71033714D01*
X183527000Y-71367047D01*
X183574619Y-71557523D01*
X183669857Y-71652761D01*
X183765095Y-71700380D01*
X183955571Y-71700380D01*
X184050809Y-71652761D01*
X184146047Y-71557523D01*
X184193666Y-71367047D01*
X184193666Y-71033714D01*
X184146047Y-70843238D01*
X184050809Y-70748000D01*
X183955571Y-70700380D01*
X183241285Y-70700380D02*
X182669857Y-70700380D01*
X182955571Y-71700380D02*
X182955571Y-70700380D01*
X182146047Y-70700380D02*
X181955571Y-70700380D01*
X181860333Y-70748000D01*
X181765095Y-70843238D01*
X181717476Y-71033714D01*
X181717476Y-71367047D01*
X181765095Y-71557523D01*
X181860333Y-71652761D01*
X181955571Y-71700380D01*
X182146047Y-71700380D01*
X182241285Y-71652761D01*
X182336523Y-71557523D01*
X182384142Y-71367047D01*
X182384142Y-71033714D01*
X182336523Y-70843238D01*
X182241285Y-70748000D01*
X182146047Y-70700380D01*
X180717476Y-71700380D02*
X181050809Y-71224190D01*
X181288904Y-71700380D02*
X181288904Y-70700380D01*
X180907952Y-70700380D01*
X180812714Y-70748000D01*
X180765095Y-70795619D01*
X180717476Y-70890857D01*
X180717476Y-71033714D01*
X180765095Y-71128952D01*
X180812714Y-71176571D01*
X180907952Y-71224190D01*
X181288904Y-71224190D01*
%TO.C,J2*%
X200034257Y-93456800D02*
X200891400Y-93456800D01*
X201062828Y-93399657D01*
X201177114Y-93285371D01*
X201234257Y-93113942D01*
X201234257Y-92999657D01*
X200148542Y-93971085D02*
X200091400Y-94028228D01*
X200034257Y-94142514D01*
X200034257Y-94428228D01*
X200091400Y-94542514D01*
X200148542Y-94599657D01*
X200262828Y-94656800D01*
X200377114Y-94656800D01*
X200548542Y-94599657D01*
X201234257Y-93913942D01*
X201234257Y-94656800D01*
%TD*%
%LPC*%
D12*
X157575214Y-31468714D02*
X157646642Y-31540142D01*
X157860928Y-31611571D01*
X158003785Y-31611571D01*
X158218071Y-31540142D01*
X158360928Y-31397285D01*
X158432357Y-31254428D01*
X158503785Y-30968714D01*
X158503785Y-30754428D01*
X158432357Y-30468714D01*
X158360928Y-30325857D01*
X158218071Y-30183000D01*
X158003785Y-30111571D01*
X157860928Y-30111571D01*
X157646642Y-30183000D01*
X157575214Y-30254428D01*
X156932357Y-30111571D02*
X156932357Y-31325857D01*
X156860928Y-31468714D01*
X156789500Y-31540142D01*
X156646642Y-31611571D01*
X156360928Y-31611571D01*
X156218071Y-31540142D01*
X156146642Y-31468714D01*
X156075214Y-31325857D01*
X156075214Y-30111571D01*
X154860928Y-30825857D02*
X154646642Y-30897285D01*
X154575214Y-30968714D01*
X154503785Y-31111571D01*
X154503785Y-31325857D01*
X154575214Y-31468714D01*
X154646642Y-31540142D01*
X154789500Y-31611571D01*
X155360928Y-31611571D01*
X155360928Y-30111571D01*
X154860928Y-30111571D01*
X154718071Y-30183000D01*
X154646642Y-30254428D01*
X154575214Y-30397285D01*
X154575214Y-30540142D01*
X154646642Y-30683000D01*
X154718071Y-30754428D01*
X154860928Y-30825857D01*
X155360928Y-30825857D01*
X153860928Y-30825857D02*
X153360928Y-30825857D01*
X153146642Y-31611571D02*
X153860928Y-31611571D01*
X153860928Y-30111571D01*
X153146642Y-30111571D01*
X158575214Y-32611571D02*
X157575214Y-32611571D01*
X158575214Y-34111571D01*
X157575214Y-34111571D01*
X157003785Y-33325857D02*
X156503785Y-33325857D01*
X156289500Y-34111571D02*
X157003785Y-34111571D01*
X157003785Y-32611571D01*
X156289500Y-32611571D01*
X154789500Y-34111571D02*
X155289500Y-33397285D01*
X155646642Y-34111571D02*
X155646642Y-32611571D01*
X155075214Y-32611571D01*
X154932357Y-32683000D01*
X154860928Y-32754428D01*
X154789500Y-32897285D01*
X154789500Y-33111571D01*
X154860928Y-33254428D01*
X154932357Y-33325857D01*
X155075214Y-33397285D01*
X155646642Y-33397285D01*
X153860928Y-32611571D02*
X153575214Y-32611571D01*
X153432357Y-32683000D01*
X153289500Y-32825857D01*
X153218071Y-33111571D01*
X153218071Y-33611571D01*
X153289500Y-33897285D01*
X153432357Y-34040142D01*
X153575214Y-34111571D01*
X153860928Y-34111571D01*
X154003785Y-34040142D01*
X154146642Y-33897285D01*
X154218071Y-33611571D01*
X154218071Y-33111571D01*
X154146642Y-32825857D01*
X154003785Y-32683000D01*
X153860928Y-32611571D01*
D14*
X160613714Y-122903714D02*
X160685142Y-122975142D01*
X160899428Y-123046571D01*
X161042285Y-123046571D01*
X161256571Y-122975142D01*
X161399428Y-122832285D01*
X161470857Y-122689428D01*
X161542285Y-122403714D01*
X161542285Y-122189428D01*
X161470857Y-121903714D01*
X161399428Y-121760857D01*
X161256571Y-121618000D01*
X161042285Y-121546571D01*
X160899428Y-121546571D01*
X160685142Y-121618000D01*
X160613714Y-121689428D01*
X159970857Y-121546571D02*
X159970857Y-122760857D01*
X159899428Y-122903714D01*
X159828000Y-122975142D01*
X159685142Y-123046571D01*
X159399428Y-123046571D01*
X159256571Y-122975142D01*
X159185142Y-122903714D01*
X159113714Y-122760857D01*
X159113714Y-121546571D01*
X157899428Y-122260857D02*
X157685142Y-122332285D01*
X157613714Y-122403714D01*
X157542285Y-122546571D01*
X157542285Y-122760857D01*
X157613714Y-122903714D01*
X157685142Y-122975142D01*
X157828000Y-123046571D01*
X158399428Y-123046571D01*
X158399428Y-121546571D01*
X157899428Y-121546571D01*
X157756571Y-121618000D01*
X157685142Y-121689428D01*
X157613714Y-121832285D01*
X157613714Y-121975142D01*
X157685142Y-122118000D01*
X157756571Y-122189428D01*
X157899428Y-122260857D01*
X158399428Y-122260857D01*
X156899428Y-122260857D02*
X156399428Y-122260857D01*
X156185142Y-123046571D02*
X156899428Y-123046571D01*
X156899428Y-121546571D01*
X156185142Y-121546571D01*
X151113714Y-121546571D02*
X150113714Y-121546571D01*
X151113714Y-123046571D01*
X150113714Y-123046571D01*
X149542285Y-122260857D02*
X149042285Y-122260857D01*
X148828000Y-123046571D02*
X149542285Y-123046571D01*
X149542285Y-121546571D01*
X148828000Y-121546571D01*
X147328000Y-123046571D02*
X147828000Y-122332285D01*
X148185142Y-123046571D02*
X148185142Y-121546571D01*
X147613714Y-121546571D01*
X147470857Y-121618000D01*
X147399428Y-121689428D01*
X147328000Y-121832285D01*
X147328000Y-122046571D01*
X147399428Y-122189428D01*
X147470857Y-122260857D01*
X147613714Y-122332285D01*
X148185142Y-122332285D01*
X146399428Y-121546571D02*
X146113714Y-121546571D01*
X145970857Y-121618000D01*
X145828000Y-121760857D01*
X145756571Y-122046571D01*
X145756571Y-122546571D01*
X145828000Y-122832285D01*
X145970857Y-122975142D01*
X146113714Y-123046571D01*
X146399428Y-123046571D01*
X146542285Y-122975142D01*
X146685142Y-122832285D01*
X146756571Y-122546571D01*
X146756571Y-122046571D01*
X146685142Y-121760857D01*
X146542285Y-121618000D01*
X146399428Y-121546571D01*
D17*
%TO.C,H9*%
X123797000Y-94373000D03*
D18*
X123797000Y-94373000D03*
%TD*%
D19*
%TO.C,J17*%
X134297000Y-80923000D03*
X134297000Y-89323000D03*
D20*
X130047000Y-82873000D03*
X130047000Y-84373000D03*
X130047000Y-85873000D03*
X130047000Y-87373000D03*
%TD*%
%TO.C,R6*%
G36*
G01*
X131211000Y-77502999D02*
X131211000Y-78403001D01*
G75*
G02*
X130961001Y-78653000I-249999J0D01*
G01*
X130260999Y-78653000D01*
G75*
G02*
X130011000Y-78403001I0J249999D01*
G01*
X130011000Y-77502999D01*
G75*
G02*
X130260999Y-77253000I249999J0D01*
G01*
X130961001Y-77253000D01*
G75*
G02*
X131211000Y-77502999I0J-249999D01*
G01*
G37*
G36*
G01*
X133211000Y-77502999D02*
X133211000Y-78403001D01*
G75*
G02*
X132961001Y-78653000I-249999J0D01*
G01*
X132260999Y-78653000D01*
G75*
G02*
X132011000Y-78403001I0J249999D01*
G01*
X132011000Y-77502999D01*
G75*
G02*
X132260999Y-77253000I249999J0D01*
G01*
X132961001Y-77253000D01*
G75*
G02*
X133211000Y-77502999I0J-249999D01*
G01*
G37*
%TD*%
D17*
%TO.C,H8*%
X123797000Y-77373000D03*
D18*
X123797000Y-77373000D03*
%TD*%
D21*
%TO.C,J13*%
X163056000Y-93163000D03*
X148856000Y-93163000D03*
%TD*%
%TO.C,J10*%
X146498000Y-119845000D03*
X160698000Y-119845000D03*
%TD*%
D22*
%TO.C,J9*%
X155247000Y-113114000D03*
X155247000Y-110574000D03*
X155247000Y-108034000D03*
X155247000Y-105494000D03*
%TD*%
%TO.C,J11*%
X151947000Y-105494000D03*
X151947000Y-108034000D03*
X151947000Y-110574000D03*
X151947000Y-113114000D03*
%TD*%
D23*
%TO.C,J3*%
X145902000Y-38148000D03*
X143362000Y-38148000D03*
X145902000Y-40688000D03*
X143362000Y-40688000D03*
X145902000Y-43228000D03*
X143362000Y-43228000D03*
X145902000Y-45768000D03*
X143362000Y-45768000D03*
%TD*%
D24*
%TO.C,J5*%
X149987000Y-51943000D03*
D25*
X144907000Y-51943000D03*
%TD*%
D26*
%TO.C,J7*%
X168613000Y-38148000D03*
X168613000Y-40688000D03*
X168613000Y-43228000D03*
X168613000Y-45768000D03*
%TD*%
D27*
%TO.C,J6*%
X163409000Y-54356000D03*
X160909000Y-54356000D03*
X158409000Y-54356000D03*
D28*
X166609000Y-61156000D03*
X155209000Y-61156000D03*
%TD*%
D18*
%TO.C,H6*%
X161037000Y-105334000D03*
D17*
X161037000Y-105334000D03*
%TD*%
D18*
%TO.C,H7*%
X143657000Y-110334000D03*
D17*
X143657000Y-110334000D03*
%TD*%
D29*
%TO.C,H3*%
X144462000Y-32183000D03*
D30*
X144462000Y-32183000D03*
%TD*%
D29*
%TO.C,H4*%
X157262000Y-48038000D03*
D30*
X157262000Y-48038000D03*
%TD*%
D29*
%TO.C,H5*%
X163761999Y-32183000D03*
D30*
X163761999Y-32183000D03*
%TD*%
D18*
%TO.C,H12*%
X171957000Y-70873000D03*
D17*
X171957000Y-70873000D03*
%TD*%
D31*
%TO.C,JP1*%
X151417000Y-79096000D03*
X153957000Y-79096000D03*
D32*
X156497000Y-79096000D03*
%TD*%
D24*
%TO.C,J14*%
X167457000Y-83563000D03*
D25*
X167457000Y-88643000D03*
%TD*%
D33*
%TO.C,J15*%
X165957000Y-75873000D03*
X165957000Y-73373000D03*
G36*
G01*
X165232000Y-70023000D02*
X166682000Y-70023000D01*
G75*
G02*
X166932000Y-70273000I0J-250000D01*
G01*
X166932000Y-71473000D01*
G75*
G02*
X166682000Y-71723000I-250000J0D01*
G01*
X165232000Y-71723000D01*
G75*
G02*
X164982000Y-71473000I0J250000D01*
G01*
X164982000Y-70273000D01*
G75*
G02*
X165232000Y-70023000I250000J0D01*
G01*
G37*
%TD*%
D18*
%TO.C,H11*%
X171957000Y-93873000D03*
D17*
X171957000Y-93873000D03*
%TD*%
D34*
%TO.C,J12*%
X143957000Y-71873000D03*
X146457000Y-71873000D03*
X148957000Y-71873000D03*
X151457000Y-71873000D03*
X153957000Y-71873000D03*
X156457000Y-71873000D03*
G36*
G01*
X159807000Y-71148000D02*
X159807000Y-72598000D01*
G75*
G02*
X159557000Y-72848000I-250000J0D01*
G01*
X158357000Y-72848000D01*
G75*
G02*
X158107000Y-72598000I0J250000D01*
G01*
X158107000Y-71148000D01*
G75*
G02*
X158357000Y-70898000I250000J0D01*
G01*
X159557000Y-70898000D01*
G75*
G02*
X159807000Y-71148000I0J-250000D01*
G01*
G37*
%TD*%
D18*
%TO.C,H10*%
X143957000Y-93873000D03*
D17*
X143957000Y-93873000D03*
%TD*%
D30*
%TO.C,H0*%
X195936462Y-77320774D03*
D29*
X195936462Y-77320774D03*
%TD*%
D34*
%TO.C,J1*%
X190397401Y-76632383D03*
X187897401Y-76632383D03*
X185397401Y-76632383D03*
G36*
G01*
X182047401Y-77357383D02*
X182047401Y-75907383D01*
G75*
G02*
X182297401Y-75657383I250000J0D01*
G01*
X183497401Y-75657383D01*
G75*
G02*
X183747401Y-75907383I0J-250000D01*
G01*
X183747401Y-77357383D01*
G75*
G02*
X183497401Y-77607383I-250000J0D01*
G01*
X182297401Y-77607383D01*
G75*
G02*
X182047401Y-77357383I0J250000D01*
G01*
G37*
%TD*%
D35*
%TO.C,J2*%
X197671391Y-104200151D03*
X200211391Y-104200151D03*
X197671391Y-101660151D03*
X200211391Y-101660151D03*
X197671391Y-99120151D03*
X200211391Y-99120151D03*
X197671391Y-96580151D03*
D36*
X200211391Y-96580151D03*
%TD*%
D30*
%TO.C,H2*%
X182220195Y-89411496D03*
D29*
X182220195Y-89411496D03*
%TD*%
D30*
%TO.C,H1*%
X205719256Y-105831593D03*
D29*
X205719256Y-105831593D03*
%TD*%
M02*
