%TF.GenerationSoftware,KiCad,Pcbnew,(5.1.9)-1*%
%TF.CreationDate,2021-02-18T14:55:37+00:00*%
%TF.ProjectId,toolboards - assembly_final,746f6f6c-626f-4617-9264-73202d206173,rev?*%
%TF.SameCoordinates,Original*%
%TF.FileFunction,Legend,Top*%
%TF.FilePolarity,Positive*%
%FSLAX46Y46*%
G04 Gerber Fmt 4.6, Leading zero omitted, Abs format (unit mm)*
G04 Created by KiCad (PCBNEW (5.1.9)-1) date 2021-02-18 14:55:37*
%MOMM*%
%LPD*%
G01*
G04 APERTURE LIST*
%ADD10C,0.400000*%
%ADD11C,0.500000*%
%ADD12C,0.160000*%
%ADD13C,0.150000*%
%ADD14C,0.250000*%
%ADD15C,0.120000*%
%ADD16C,0.200000*%
%ADD17C,0.100000*%
%ADD18R,1.200000X0.650000*%
%ADD19C,3.600000*%
%ADD20C,5.600000*%
%ADD21R,0.650000X1.200000*%
%ADD22R,3.000000X0.700000*%
%ADD23R,1.900000X1.100000*%
%ADD24R,2.200000X2.500000*%
%ADD25R,0.600000X1.800000*%
%ADD26R,1.560000X0.650000*%
%ADD27C,2.000000*%
%ADD28C,1.550000*%
%ADD29R,8.000000X1.800000*%
%ADD30C,2.475000*%
%ADD31R,2.475000X2.475000*%
%ADD32R,1.300000X4.500000*%
%ADD33R,1.800000X3.900000*%
%ADD34C,3.100000*%
%ADD35C,4.700000*%
%ADD36O,1.700000X1.700000*%
%ADD37R,1.700000X1.700000*%
%ADD38O,1.950000X1.700000*%
%ADD39O,1.700000X1.950000*%
%ADD40C,1.650000*%
%ADD41R,1.650000X1.650000*%
G04 APERTURE END LIST*
D10*
X143732190Y-100048285D02*
X143732190Y-101714952D01*
X143136952Y-99095904D02*
X142541714Y-100881619D01*
X144089333Y-100881619D01*
X137088666Y-75846952D02*
X138636285Y-75846952D01*
X137802952Y-76799333D01*
X138160095Y-76799333D01*
X138398190Y-76918380D01*
X138517238Y-77037428D01*
X138636285Y-77275523D01*
X138636285Y-77870761D01*
X138517238Y-78108857D01*
X138398190Y-78227904D01*
X138160095Y-78346952D01*
X137445809Y-78346952D01*
X137207714Y-78227904D01*
X137088666Y-78108857D01*
X176831714Y-68719047D02*
X176950761Y-68600000D01*
X177188857Y-68480952D01*
X177784095Y-68480952D01*
X178022190Y-68600000D01*
X178141238Y-68719047D01*
X178260285Y-68957142D01*
X178260285Y-69195238D01*
X178141238Y-69552380D01*
X176712666Y-70980952D01*
X178260285Y-70980952D01*
X165814285Y-66154952D02*
X164385714Y-66154952D01*
X165100000Y-66154952D02*
X165100000Y-63654952D01*
X164861904Y-64012095D01*
X164623809Y-64250190D01*
X164385714Y-64369238D01*
D11*
X162052000Y-99060000D02*
X145034000Y-99060000D01*
X137922000Y-95504000D02*
X137922000Y-80010000D01*
X141605000Y-65024000D02*
X162052000Y-65024000D01*
X177292000Y-72390000D02*
X177292000Y-96266000D01*
D12*
X143957000Y-97373000D02*
X171957000Y-97373000D01*
X171957000Y-67373000D02*
G75*
G02*
X175457000Y-70873000I0J-3500000D01*
G01*
X171957000Y-67373000D02*
X141957000Y-67373000D01*
X140457000Y-68873000D02*
G75*
G02*
X141957000Y-67373000I1500000J0D01*
G01*
X140462000Y-62738000D02*
X167762000Y-62738000D01*
D13*
X184111857Y-86623857D02*
X183426142Y-86623857D01*
X183769000Y-86623857D02*
X183769000Y-85423857D01*
X183654714Y-85595285D01*
X183540428Y-85709571D01*
X183426142Y-85766714D01*
D14*
X180010357Y-73321571D02*
X180867500Y-73321571D01*
X180438928Y-74821571D02*
X180438928Y-73321571D01*
X181653214Y-73321571D02*
X181938928Y-73321571D01*
X182081785Y-73393000D01*
X182224642Y-73535857D01*
X182296071Y-73821571D01*
X182296071Y-74321571D01*
X182224642Y-74607285D01*
X182081785Y-74750142D01*
X181938928Y-74821571D01*
X181653214Y-74821571D01*
X181510357Y-74750142D01*
X181367500Y-74607285D01*
X181296071Y-74321571D01*
X181296071Y-73821571D01*
X181367500Y-73535857D01*
X181510357Y-73393000D01*
X181653214Y-73321571D01*
X183224642Y-73321571D02*
X183510357Y-73321571D01*
X183653214Y-73393000D01*
X183796071Y-73535857D01*
X183867500Y-73821571D01*
X183867500Y-74321571D01*
X183796071Y-74607285D01*
X183653214Y-74750142D01*
X183510357Y-74821571D01*
X183224642Y-74821571D01*
X183081785Y-74750142D01*
X182938928Y-74607285D01*
X182867500Y-74321571D01*
X182867500Y-73821571D01*
X182938928Y-73535857D01*
X183081785Y-73393000D01*
X183224642Y-73321571D01*
X185224642Y-74821571D02*
X184510357Y-74821571D01*
X184510357Y-73321571D01*
X186867500Y-74821571D02*
X186867500Y-73321571D01*
X187367500Y-74393000D01*
X187867500Y-73321571D01*
X187867500Y-74821571D01*
X188581785Y-74821571D02*
X188581785Y-73321571D01*
X189438928Y-74821571D02*
X188796071Y-73964428D01*
X189438928Y-73321571D02*
X188581785Y-74178714D01*
X190081785Y-74678714D02*
X190153214Y-74750142D01*
X190081785Y-74821571D01*
X190010357Y-74750142D01*
X190081785Y-74678714D01*
X190081785Y-74821571D01*
X192724642Y-74821571D02*
X191867500Y-74821571D01*
X192296071Y-74821571D02*
X192296071Y-73321571D01*
X192153214Y-73535857D01*
X192010357Y-73678714D01*
X191867500Y-73750142D01*
D13*
X191300142Y-81347142D02*
X191357285Y-81290000D01*
X191471571Y-81232857D01*
X191757285Y-81232857D01*
X191871571Y-81290000D01*
X191928714Y-81347142D01*
X191985857Y-81461428D01*
X191985857Y-81575714D01*
X191928714Y-81747142D01*
X191243000Y-82432857D01*
X191985857Y-82432857D01*
X198145428Y-93100857D02*
X197459714Y-93100857D01*
X197802571Y-93100857D02*
X197802571Y-91900857D01*
X197688285Y-92072285D01*
X197574000Y-92186571D01*
X197459714Y-92243714D01*
X198888285Y-91900857D02*
X199002571Y-91900857D01*
X199116857Y-91958000D01*
X199174000Y-92015142D01*
X199231142Y-92129428D01*
X199288285Y-92358000D01*
X199288285Y-92643714D01*
X199231142Y-92872285D01*
X199174000Y-92986571D01*
X199116857Y-93043714D01*
X199002571Y-93100857D01*
X198888285Y-93100857D01*
X198774000Y-93043714D01*
X198716857Y-92986571D01*
X198659714Y-92872285D01*
X198602571Y-92643714D01*
X198602571Y-92358000D01*
X198659714Y-92129428D01*
X198716857Y-92015142D01*
X198774000Y-91958000D01*
X198888285Y-91900857D01*
X161374785Y-77234857D02*
X162060500Y-77234857D01*
X161717642Y-78434857D02*
X161717642Y-77234857D01*
X161489071Y-80327714D02*
X161660500Y-80384857D01*
X161946214Y-80384857D01*
X162060500Y-80327714D01*
X162117642Y-80270571D01*
X162174785Y-80156285D01*
X162174785Y-80042000D01*
X162117642Y-79927714D01*
X162060500Y-79870571D01*
X161946214Y-79813428D01*
X161717642Y-79756285D01*
X161603357Y-79699142D01*
X161546214Y-79642000D01*
X161489071Y-79527714D01*
X161489071Y-79413428D01*
X161546214Y-79299142D01*
X161603357Y-79242000D01*
X161717642Y-79184857D01*
X162003357Y-79184857D01*
X162174785Y-79242000D01*
X162689071Y-79756285D02*
X163089071Y-79756285D01*
X163260500Y-80384857D02*
X162689071Y-80384857D01*
X162689071Y-79184857D01*
X163260500Y-79184857D01*
X163774785Y-80384857D02*
X163774785Y-79184857D01*
X164460500Y-80384857D01*
X164460500Y-79184857D01*
X164974785Y-80327714D02*
X165146214Y-80384857D01*
X165431928Y-80384857D01*
X165546214Y-80327714D01*
X165603357Y-80270571D01*
X165660500Y-80156285D01*
X165660500Y-80042000D01*
X165603357Y-79927714D01*
X165546214Y-79870571D01*
X165431928Y-79813428D01*
X165203357Y-79756285D01*
X165089071Y-79699142D01*
X165031928Y-79642000D01*
X164974785Y-79527714D01*
X164974785Y-79413428D01*
X165031928Y-79299142D01*
X165089071Y-79242000D01*
X165203357Y-79184857D01*
X165489071Y-79184857D01*
X165660500Y-79242000D01*
X166174785Y-79756285D02*
X166574785Y-79756285D01*
X166746214Y-80384857D02*
X166174785Y-80384857D01*
X166174785Y-79184857D01*
X166746214Y-79184857D01*
X150698571Y-81384857D02*
X150927142Y-81384857D01*
X151041428Y-81442000D01*
X151155714Y-81556285D01*
X151212857Y-81784857D01*
X151212857Y-82184857D01*
X151155714Y-82413428D01*
X151041428Y-82527714D01*
X150927142Y-82584857D01*
X150698571Y-82584857D01*
X150584285Y-82527714D01*
X150470000Y-82413428D01*
X150412857Y-82184857D01*
X150412857Y-81784857D01*
X150470000Y-81556285D01*
X150584285Y-81442000D01*
X150698571Y-81384857D01*
X151727142Y-82584857D02*
X151727142Y-81384857D01*
X152412857Y-82584857D01*
X152412857Y-81384857D01*
X153270000Y-82984857D02*
X153270000Y-81270571D01*
X154355714Y-81384857D02*
X154584285Y-81384857D01*
X154698571Y-81442000D01*
X154812857Y-81556285D01*
X154870000Y-81784857D01*
X154870000Y-82184857D01*
X154812857Y-82413428D01*
X154698571Y-82527714D01*
X154584285Y-82584857D01*
X154355714Y-82584857D01*
X154241428Y-82527714D01*
X154127142Y-82413428D01*
X154070000Y-82184857D01*
X154070000Y-81784857D01*
X154127142Y-81556285D01*
X154241428Y-81442000D01*
X154355714Y-81384857D01*
X155784285Y-81956285D02*
X155384285Y-81956285D01*
X155384285Y-82584857D02*
X155384285Y-81384857D01*
X155955714Y-81384857D01*
X156812857Y-81956285D02*
X156412857Y-81956285D01*
X156412857Y-82584857D02*
X156412857Y-81384857D01*
X156984285Y-81384857D01*
X148708857Y-115242357D02*
X148780285Y-115028071D01*
X148851714Y-114956642D01*
X148994571Y-114885214D01*
X149208857Y-114885214D01*
X149351714Y-114956642D01*
X149423142Y-115028071D01*
X149494571Y-115170928D01*
X149494571Y-115742357D01*
X147994571Y-115742357D01*
X147994571Y-115242357D01*
X148066000Y-115099500D01*
X148137428Y-115028071D01*
X148280285Y-114956642D01*
X148423142Y-114956642D01*
X148566000Y-115028071D01*
X148637428Y-115099500D01*
X148708857Y-115242357D01*
X148708857Y-115742357D01*
X149066000Y-114313785D02*
X149066000Y-113599500D01*
X149494571Y-114456642D02*
X147994571Y-113956642D01*
X149494571Y-113456642D01*
X147994571Y-113170928D02*
X147994571Y-112313785D01*
X149494571Y-112742357D02*
X147994571Y-112742357D01*
X149351714Y-110956642D02*
X149423142Y-111028071D01*
X149494571Y-111242357D01*
X149494571Y-111385214D01*
X149423142Y-111599500D01*
X149280285Y-111742357D01*
X149137428Y-111813785D01*
X148851714Y-111885214D01*
X148637428Y-111885214D01*
X148351714Y-111813785D01*
X148208857Y-111742357D01*
X148066000Y-111599500D01*
X147994571Y-111385214D01*
X147994571Y-111242357D01*
X148066000Y-111028071D01*
X148137428Y-110956642D01*
X149494571Y-110313785D02*
X147994571Y-110313785D01*
X148708857Y-110313785D02*
X148708857Y-109456642D01*
X149494571Y-109456642D02*
X147994571Y-109456642D01*
X149351714Y-108742357D02*
X149423142Y-108670928D01*
X149494571Y-108742357D01*
X149423142Y-108813785D01*
X149351714Y-108742357D01*
X149494571Y-108742357D01*
X148566000Y-108742357D02*
X148637428Y-108670928D01*
X148708857Y-108742357D01*
X148637428Y-108813785D01*
X148566000Y-108742357D01*
X148708857Y-108742357D01*
X149494571Y-106099500D02*
X149494571Y-106956642D01*
X149494571Y-106528071D02*
X147994571Y-106528071D01*
X148208857Y-106670928D01*
X148351714Y-106813785D01*
X148423142Y-106956642D01*
X159023142Y-115813785D02*
X159094571Y-115599500D01*
X159094571Y-115242357D01*
X159023142Y-115099500D01*
X158951714Y-115028071D01*
X158808857Y-114956642D01*
X158666000Y-114956642D01*
X158523142Y-115028071D01*
X158451714Y-115099500D01*
X158380285Y-115242357D01*
X158308857Y-115528071D01*
X158237428Y-115670928D01*
X158166000Y-115742357D01*
X158023142Y-115813785D01*
X157880285Y-115813785D01*
X157737428Y-115742357D01*
X157666000Y-115670928D01*
X157594571Y-115528071D01*
X157594571Y-115170928D01*
X157666000Y-114956642D01*
X157523142Y-113242357D02*
X159451714Y-114528071D01*
X159094571Y-112742357D02*
X157594571Y-112742357D01*
X159094571Y-111885214D01*
X157594571Y-111885214D01*
X158951714Y-111170928D02*
X159023142Y-111099500D01*
X159094571Y-111170928D01*
X159023142Y-111242357D01*
X158951714Y-111170928D01*
X159094571Y-111170928D01*
X158166000Y-111170928D02*
X158237428Y-111099500D01*
X158308857Y-111170928D01*
X158237428Y-111242357D01*
X158166000Y-111170928D01*
X158308857Y-111170928D01*
X148528642Y-40729857D02*
X148742928Y-40801285D01*
X148814357Y-40872714D01*
X148885785Y-41015571D01*
X148885785Y-41229857D01*
X148814357Y-41372714D01*
X148742928Y-41444142D01*
X148600071Y-41515571D01*
X148028642Y-41515571D01*
X148028642Y-40015571D01*
X148528642Y-40015571D01*
X148671500Y-40087000D01*
X148742928Y-40158428D01*
X148814357Y-40301285D01*
X148814357Y-40444142D01*
X148742928Y-40587000D01*
X148671500Y-40658428D01*
X148528642Y-40729857D01*
X148028642Y-40729857D01*
X149457214Y-41087000D02*
X150171500Y-41087000D01*
X149314357Y-41515571D02*
X149814357Y-40015571D01*
X150314357Y-41515571D01*
X150600071Y-40015571D02*
X151457214Y-40015571D01*
X151028642Y-41515571D02*
X151028642Y-40015571D01*
X152814357Y-41372714D02*
X152742928Y-41444142D01*
X152528642Y-41515571D01*
X152385785Y-41515571D01*
X152171500Y-41444142D01*
X152028642Y-41301285D01*
X151957214Y-41158428D01*
X151885785Y-40872714D01*
X151885785Y-40658428D01*
X151957214Y-40372714D01*
X152028642Y-40229857D01*
X152171500Y-40087000D01*
X152385785Y-40015571D01*
X152528642Y-40015571D01*
X152742928Y-40087000D01*
X152814357Y-40158428D01*
X153457214Y-41515571D02*
X153457214Y-40015571D01*
X153457214Y-40729857D02*
X154314357Y-40729857D01*
X154314357Y-41515571D02*
X154314357Y-40015571D01*
X155028642Y-41372714D02*
X155100071Y-41444142D01*
X155028642Y-41515571D01*
X154957214Y-41444142D01*
X155028642Y-41372714D01*
X155028642Y-41515571D01*
X155028642Y-40587000D02*
X155100071Y-40658428D01*
X155028642Y-40729857D01*
X154957214Y-40658428D01*
X155028642Y-40587000D01*
X155028642Y-40729857D01*
X157671500Y-41515571D02*
X156814357Y-41515571D01*
X157242928Y-41515571D02*
X157242928Y-40015571D01*
X157100071Y-40229857D01*
X156957214Y-40372714D01*
X156814357Y-40444142D01*
X147957214Y-43844142D02*
X148171500Y-43915571D01*
X148528642Y-43915571D01*
X148671500Y-43844142D01*
X148742928Y-43772714D01*
X148814357Y-43629857D01*
X148814357Y-43487000D01*
X148742928Y-43344142D01*
X148671500Y-43272714D01*
X148528642Y-43201285D01*
X148242928Y-43129857D01*
X148100071Y-43058428D01*
X148028642Y-42987000D01*
X147957214Y-42844142D01*
X147957214Y-42701285D01*
X148028642Y-42558428D01*
X148100071Y-42487000D01*
X148242928Y-42415571D01*
X148600071Y-42415571D01*
X148814357Y-42487000D01*
X150528642Y-42344142D02*
X149242928Y-44272714D01*
X151028642Y-43915571D02*
X151028642Y-42415571D01*
X151885785Y-43915571D01*
X151885785Y-42415571D01*
X152600071Y-43772714D02*
X152671500Y-43844142D01*
X152600071Y-43915571D01*
X152528642Y-43844142D01*
X152600071Y-43772714D01*
X152600071Y-43915571D01*
X152600071Y-42987000D02*
X152671500Y-43058428D01*
X152600071Y-43129857D01*
X152528642Y-43058428D01*
X152600071Y-42987000D01*
X152600071Y-43129857D01*
D12*
X179336000Y-68375000D02*
X179336000Y-90185000D01*
X180336000Y-67375000D02*
X179336000Y-68375000D01*
X180475000Y-94435000D02*
X181375000Y-95994000D01*
X175457000Y-93873000D02*
X175457000Y-70873000D01*
X140457000Y-68873000D02*
X140457000Y-93873000D01*
X135797000Y-95373000D02*
X135797000Y-76373000D01*
X144957000Y-103377000D02*
X140457000Y-107877000D01*
X147500000Y-100834000D02*
X162487000Y-100834000D01*
X144957000Y-103377000D02*
X147500000Y-100834000D01*
X162487000Y-100834000D02*
X164237000Y-102584000D01*
X180474784Y-94435000D02*
G75*
G02*
X179336000Y-90185000I7361216J4250000D01*
G01*
X184486187Y-99105108D02*
G75*
G02*
X181375000Y-95994000I4249813J7361108D01*
G01*
X143957000Y-97373000D02*
G75*
G02*
X140457000Y-93873000I0J3500000D01*
G01*
X175457000Y-93873000D02*
G75*
G02*
X171957000Y-97373000I-3500000J0D01*
G01*
X135797000Y-95373000D02*
G75*
G02*
X133797000Y-97373000I-2000000J0D01*
G01*
X133797000Y-74373000D02*
G75*
G02*
X135797000Y-76373000I0J-2000000D01*
G01*
D15*
%TO.C,R0*%
X124589436Y-88594000D02*
X125043564Y-88594000D01*
X124589436Y-87124000D02*
X125043564Y-87124000D01*
%TO.C,R3*%
X125068064Y-84384000D02*
X124613936Y-84384000D01*
X125068064Y-85854000D02*
X124613936Y-85854000D01*
%TO.C,LED1*%
X127837000Y-76513000D02*
X127837000Y-79373000D01*
X129757000Y-76513000D02*
X127837000Y-76513000D01*
X129757000Y-79373000D02*
X129757000Y-76513000D01*
%TO.C,R1*%
X132527000Y-92765936D02*
X132527000Y-93220064D01*
X133997000Y-92765936D02*
X133997000Y-93220064D01*
%TO.C,LED0*%
X127662000Y-90913000D02*
X127662000Y-94973000D01*
X129932000Y-90913000D02*
X127662000Y-90913000D01*
X129932000Y-94973000D02*
X129932000Y-90913000D01*
D16*
%TO.C,Q0*%
X129897000Y-89499500D02*
X129697000Y-89499500D01*
X129697000Y-89499500D02*
X129697000Y-86599500D01*
X129697000Y-86599500D02*
X129897000Y-86599500D01*
X129897000Y-86599500D02*
X129897000Y-89499500D01*
X131447000Y-89584500D02*
X130247000Y-89584500D01*
D15*
%TO.C,R5*%
X125043564Y-81726500D02*
X124589436Y-81726500D01*
X125043564Y-83196500D02*
X124589436Y-83196500D01*
%TO.C,R4*%
X125068064Y-89464000D02*
X124613936Y-89464000D01*
X125068064Y-90934000D02*
X124613936Y-90934000D01*
%TO.C,R2*%
X133997000Y-88266936D02*
X133997000Y-88721064D01*
X132527000Y-88266936D02*
X132527000Y-88721064D01*
D16*
%TO.C,Q2*%
X131727000Y-80873000D02*
X131727000Y-79673000D01*
X134712000Y-79323000D02*
X131812000Y-79323000D01*
X134712000Y-79123000D02*
X134712000Y-79323000D01*
X131812000Y-79123000D02*
X134712000Y-79123000D01*
X131812000Y-79323000D02*
X131812000Y-79123000D01*
D15*
%TO.C,R7*%
X133542936Y-82806000D02*
X133997064Y-82806000D01*
X133542936Y-84276000D02*
X133997064Y-84276000D01*
D16*
%TO.C,Q1*%
X131447000Y-84908000D02*
X130247000Y-84908000D01*
X129897000Y-81923000D02*
X129897000Y-84823000D01*
X129697000Y-81923000D02*
X129897000Y-81923000D01*
X129697000Y-84823000D02*
X129697000Y-81923000D01*
X129897000Y-84823000D02*
X129697000Y-84823000D01*
%TO.C,J16*%
X145637000Y-80438000D02*
X145637000Y-80338000D01*
X145637000Y-81938000D02*
X145637000Y-81838000D01*
X145637000Y-83438000D02*
X145637000Y-83338000D01*
X145637000Y-78938000D02*
X145637000Y-78338000D01*
X145637000Y-85438000D02*
X145637000Y-84838000D01*
X145637000Y-78338000D02*
X146737000Y-78338000D01*
X146737000Y-78338000D02*
X146737000Y-77238000D01*
X143337000Y-77238000D02*
X146737000Y-77238000D01*
X145637000Y-85438000D02*
X146737000Y-85438000D01*
X140437000Y-77238000D02*
X140837000Y-77238000D01*
X143337000Y-86538000D02*
X146737000Y-86538000D01*
X140437000Y-77238000D02*
X140437000Y-86538000D01*
X140437000Y-86538000D02*
X140837000Y-86538000D01*
X146737000Y-85438000D02*
X146737000Y-86538000D01*
X147099000Y-85281000D02*
X147353000Y-84900000D01*
X147353000Y-84900000D02*
X147607000Y-85281000D01*
X147607000Y-85281000D02*
X147099000Y-85281000D01*
%TO.C,J13*%
X151506000Y-88873000D02*
G75*
G03*
X151506000Y-88873000I-50000J0D01*
G01*
D17*
X147456000Y-97323000D02*
X147456000Y-91923000D01*
X164456000Y-97323000D02*
X147456000Y-97323000D01*
X164456000Y-91923000D02*
X164456000Y-97323000D01*
%TO.C,J10*%
X162098000Y-118605000D02*
X162098000Y-124005000D01*
X162098000Y-124005000D02*
X145098000Y-124005000D01*
X145098000Y-124005000D02*
X145098000Y-118605000D01*
D16*
X149148000Y-115555000D02*
G75*
G03*
X149148000Y-115555000I-50000J0D01*
G01*
D15*
%TO.C,U1*%
X170958000Y-78039000D02*
X173408000Y-78039000D01*
X172758000Y-74819000D02*
X170958000Y-74819000D01*
D17*
%TO.C,J3*%
X142387000Y-47293000D02*
X134377000Y-47293000D01*
X134377000Y-47293000D02*
X134377000Y-36623000D01*
X134377000Y-36623000D02*
X142387000Y-36623000D01*
D10*
X143562000Y-47568000D02*
G75*
G03*
X143562000Y-47568000I-200000J0D01*
G01*
D11*
%TO.C,J8*%
X164072000Y-38148000D02*
G75*
G03*
X164072000Y-38148000I-254000J0D01*
G01*
D13*
X170763000Y-36878000D02*
X165763000Y-36878000D01*
X165763000Y-47038000D02*
X170763000Y-47038000D01*
X165763000Y-47958000D02*
X170763000Y-47958000D01*
X165763000Y-35958000D02*
X170763000Y-35958000D01*
X165763000Y-35958000D02*
X165763000Y-36878000D01*
X170763000Y-35958000D02*
X170763000Y-36878000D01*
X170763000Y-47038000D02*
X170763000Y-47958000D01*
X165763000Y-47038000D02*
X165763000Y-47958000D01*
D15*
X165763000Y-39258000D02*
X165763000Y-39558000D01*
X165752000Y-41758000D02*
X165752000Y-42158000D01*
X165763000Y-44358000D02*
X165763000Y-44658000D01*
X170952000Y-41958000D02*
X172552000Y-41958000D01*
D16*
%TO.C,J5*%
X142367000Y-51943000D02*
X142367000Y-61943000D01*
X142367000Y-61943000D02*
X152527000Y-61943000D01*
X152527000Y-61943000D02*
X152527000Y-49943000D01*
%TO.C,J4*%
X156409000Y-62763000D02*
X165409000Y-62763000D01*
X154659000Y-55763000D02*
X154659000Y-58956000D01*
X154659000Y-55763000D02*
X157521000Y-55763000D01*
X167159000Y-55763000D02*
X164300000Y-55763000D01*
X167159000Y-55763000D02*
X167159000Y-58956000D01*
D11*
X156664000Y-53086000D02*
G75*
G03*
X156664000Y-53086000I-200000J0D01*
G01*
D15*
%TO.C,JP1*%
X157827000Y-77766000D02*
X157827000Y-79096000D01*
X156497000Y-77766000D02*
X157827000Y-77766000D01*
X155227000Y-77766000D02*
X155227000Y-80426000D01*
X155227000Y-80426000D02*
X150087000Y-80426000D01*
X155227000Y-77766000D02*
X150087000Y-77766000D01*
X150087000Y-77766000D02*
X150087000Y-80426000D01*
D16*
%TO.C,J14*%
X167457000Y-91183000D02*
X174957000Y-91183000D01*
X174957000Y-91183000D02*
X174957000Y-81023000D01*
X174957000Y-81023000D02*
X165457000Y-81023000D01*
D15*
%TO.C,J15*%
X168417000Y-68313000D02*
X162447000Y-68313000D01*
X162447000Y-68313000D02*
X162447000Y-78433000D01*
X162447000Y-78433000D02*
X168417000Y-78433000D01*
X168417000Y-78433000D02*
X168417000Y-68313000D01*
X168407000Y-71623000D02*
X167657000Y-71623000D01*
X167657000Y-71623000D02*
X167657000Y-75123000D01*
X167657000Y-75123000D02*
X168407000Y-75123000D01*
X168407000Y-75123000D02*
X168407000Y-71623000D01*
X168407000Y-68323000D02*
X167657000Y-68323000D01*
X167657000Y-68323000D02*
X167657000Y-70123000D01*
X167657000Y-70123000D02*
X168407000Y-70123000D01*
X168407000Y-70123000D02*
X168407000Y-68323000D01*
X168407000Y-76623000D02*
X167657000Y-76623000D01*
X167657000Y-76623000D02*
X167657000Y-78423000D01*
X167657000Y-78423000D02*
X168407000Y-78423000D01*
X168407000Y-78423000D02*
X168407000Y-76623000D01*
X166157000Y-68323000D02*
X166157000Y-69073000D01*
X166157000Y-69073000D02*
X163207000Y-69073000D01*
X163207000Y-69073000D02*
X163207000Y-73373000D01*
X166157000Y-78423000D02*
X166157000Y-77673000D01*
X166157000Y-77673000D02*
X163207000Y-77673000D01*
X163207000Y-77673000D02*
X163207000Y-73373000D01*
X168707000Y-69273000D02*
X168707000Y-68023000D01*
X168707000Y-68023000D02*
X167457000Y-68023000D01*
%TO.C,J12*%
X161517000Y-74333000D02*
X161517000Y-68363000D01*
X161517000Y-68363000D02*
X141397000Y-68363000D01*
X141397000Y-68363000D02*
X141397000Y-74333000D01*
X141397000Y-74333000D02*
X161517000Y-74333000D01*
X158207000Y-74323000D02*
X158207000Y-73573000D01*
X158207000Y-73573000D02*
X144707000Y-73573000D01*
X144707000Y-73573000D02*
X144707000Y-74323000D01*
X144707000Y-74323000D02*
X158207000Y-74323000D01*
X161507000Y-74323000D02*
X161507000Y-73573000D01*
X161507000Y-73573000D02*
X159707000Y-73573000D01*
X159707000Y-73573000D02*
X159707000Y-74323000D01*
X159707000Y-74323000D02*
X161507000Y-74323000D01*
X143207000Y-74323000D02*
X143207000Y-73573000D01*
X143207000Y-73573000D02*
X141407000Y-73573000D01*
X141407000Y-73573000D02*
X141407000Y-74323000D01*
X141407000Y-74323000D02*
X143207000Y-74323000D01*
X161507000Y-72073000D02*
X160757000Y-72073000D01*
X160757000Y-72073000D02*
X160757000Y-69123000D01*
X160757000Y-69123000D02*
X151457000Y-69123000D01*
X141407000Y-72073000D02*
X142157000Y-72073000D01*
X142157000Y-72073000D02*
X142157000Y-69123000D01*
X142157000Y-69123000D02*
X151457000Y-69123000D01*
X160557000Y-74623000D02*
X161807000Y-74623000D01*
X161807000Y-74623000D02*
X161807000Y-73373000D01*
D17*
%TO.C,J0*%
G36*
X198347252Y-94655536D02*
G01*
X197247400Y-95290536D01*
X196929900Y-94740610D01*
X198579678Y-93788110D01*
X198347252Y-94655536D01*
G37*
X198347252Y-94655536D02*
X197247400Y-95290536D01*
X196929900Y-94740610D01*
X198579678Y-93788110D01*
X198347252Y-94655536D01*
G36*
X189309900Y-81542382D02*
G01*
X188357400Y-79892604D01*
X190959678Y-80589882D01*
X189309900Y-81542382D01*
G37*
X189309900Y-81542382D02*
X188357400Y-79892604D01*
X190959678Y-80589882D01*
X189309900Y-81542382D01*
G36*
X183260712Y-85034882D02*
G01*
X183957990Y-82432604D01*
X184910490Y-84082382D01*
X183260712Y-85034882D01*
G37*
X183260712Y-85034882D02*
X183957990Y-82432604D01*
X184910490Y-84082382D01*
X183260712Y-85034882D01*
G36*
X190880712Y-98233110D02*
G01*
X192530490Y-97280610D01*
X193482990Y-98930388D01*
X190880712Y-98233110D01*
G37*
X190880712Y-98233110D02*
X192530490Y-97280610D01*
X193482990Y-98930388D01*
X190880712Y-98233110D01*
D15*
X185570402Y-83701382D02*
X184910490Y-84082382D01*
X184910490Y-84082382D02*
X185570402Y-83701382D01*
X188380195Y-85012087D02*
X186180490Y-86282087D01*
X187110195Y-82812382D02*
X188380195Y-85012087D01*
X187110195Y-82812382D02*
X189309900Y-81542382D01*
X196929900Y-94740610D02*
X192530490Y-97280610D01*
X190579900Y-83742087D02*
X191019840Y-83488087D01*
X186180490Y-86282087D02*
X185740550Y-86536087D01*
X191849900Y-85941791D02*
X192289840Y-85687791D01*
X193119900Y-88141496D02*
X193559840Y-87887496D01*
X194389900Y-90341201D02*
X194829840Y-90087201D01*
X195659900Y-92540905D02*
X196099840Y-92286905D01*
X191260490Y-95080905D02*
X190820550Y-95334905D01*
X189990490Y-92881201D02*
X189550550Y-93135201D01*
X188720490Y-90681496D02*
X188280550Y-90935496D01*
X187450490Y-88481791D02*
X187010550Y-88735791D01*
%TO.C,R0*%
D13*
X122855880Y-88025666D02*
X122379690Y-88359000D01*
X122855880Y-88597095D02*
X121855880Y-88597095D01*
X121855880Y-88216142D01*
X121903500Y-88120904D01*
X121951119Y-88073285D01*
X122046357Y-88025666D01*
X122189214Y-88025666D01*
X122284452Y-88073285D01*
X122332071Y-88120904D01*
X122379690Y-88216142D01*
X122379690Y-88597095D01*
X121855880Y-87406619D02*
X121855880Y-87311380D01*
X121903500Y-87216142D01*
X121951119Y-87168523D01*
X122046357Y-87120904D01*
X122236833Y-87073285D01*
X122474928Y-87073285D01*
X122665404Y-87120904D01*
X122760642Y-87168523D01*
X122808261Y-87216142D01*
X122855880Y-87311380D01*
X122855880Y-87406619D01*
X122808261Y-87501857D01*
X122760642Y-87549476D01*
X122665404Y-87597095D01*
X122474928Y-87644714D01*
X122236833Y-87644714D01*
X122046357Y-87597095D01*
X121951119Y-87549476D01*
X121903500Y-87501857D01*
X121855880Y-87406619D01*
%TO.C,R3*%
X122880380Y-85285666D02*
X122404190Y-85619000D01*
X122880380Y-85857095D02*
X121880380Y-85857095D01*
X121880380Y-85476142D01*
X121928000Y-85380904D01*
X121975619Y-85333285D01*
X122070857Y-85285666D01*
X122213714Y-85285666D01*
X122308952Y-85333285D01*
X122356571Y-85380904D01*
X122404190Y-85476142D01*
X122404190Y-85857095D01*
X121880380Y-84952333D02*
X121880380Y-84333285D01*
X122261333Y-84666619D01*
X122261333Y-84523761D01*
X122308952Y-84428523D01*
X122356571Y-84380904D01*
X122451809Y-84333285D01*
X122689904Y-84333285D01*
X122785142Y-84380904D01*
X122832761Y-84428523D01*
X122880380Y-84523761D01*
X122880380Y-84809476D01*
X122832761Y-84904714D01*
X122785142Y-84952333D01*
%TO.C,LED1*%
X131174380Y-79453047D02*
X131174380Y-79929238D01*
X130174380Y-79929238D01*
X130650571Y-79119714D02*
X130650571Y-78786380D01*
X131174380Y-78643523D02*
X131174380Y-79119714D01*
X130174380Y-79119714D01*
X130174380Y-78643523D01*
X131174380Y-78214952D02*
X130174380Y-78214952D01*
X130174380Y-77976857D01*
X130222000Y-77834000D01*
X130317238Y-77738761D01*
X130412476Y-77691142D01*
X130602952Y-77643523D01*
X130745809Y-77643523D01*
X130936285Y-77691142D01*
X131031523Y-77738761D01*
X131126761Y-77834000D01*
X131174380Y-77976857D01*
X131174380Y-78214952D01*
X131174380Y-76691142D02*
X131174380Y-77262571D01*
X131174380Y-76976857D02*
X130174380Y-76976857D01*
X130317238Y-77072095D01*
X130412476Y-77167333D01*
X130460095Y-77262571D01*
%TO.C,R1*%
X135326380Y-93159666D02*
X134850190Y-93493000D01*
X135326380Y-93731095D02*
X134326380Y-93731095D01*
X134326380Y-93350142D01*
X134374000Y-93254904D01*
X134421619Y-93207285D01*
X134516857Y-93159666D01*
X134659714Y-93159666D01*
X134754952Y-93207285D01*
X134802571Y-93254904D01*
X134850190Y-93350142D01*
X134850190Y-93731095D01*
X135326380Y-92207285D02*
X135326380Y-92778714D01*
X135326380Y-92493000D02*
X134326380Y-92493000D01*
X134469238Y-92588238D01*
X134564476Y-92683476D01*
X134612095Y-92778714D01*
%TO.C,LED0*%
X131389380Y-94112047D02*
X131389380Y-94588238D01*
X130389380Y-94588238D01*
X130865571Y-93778714D02*
X130865571Y-93445380D01*
X131389380Y-93302523D02*
X131389380Y-93778714D01*
X130389380Y-93778714D01*
X130389380Y-93302523D01*
X131389380Y-92873952D02*
X130389380Y-92873952D01*
X130389380Y-92635857D01*
X130437000Y-92493000D01*
X130532238Y-92397761D01*
X130627476Y-92350142D01*
X130817952Y-92302523D01*
X130960809Y-92302523D01*
X131151285Y-92350142D01*
X131246523Y-92397761D01*
X131341761Y-92493000D01*
X131389380Y-92635857D01*
X131389380Y-92873952D01*
X130389380Y-91683476D02*
X130389380Y-91588238D01*
X130437000Y-91493000D01*
X130484619Y-91445380D01*
X130579857Y-91397761D01*
X130770333Y-91350142D01*
X131008428Y-91350142D01*
X131198904Y-91397761D01*
X131294142Y-91445380D01*
X131341761Y-91493000D01*
X131389380Y-91588238D01*
X131389380Y-91683476D01*
X131341761Y-91778714D01*
X131294142Y-91826333D01*
X131198904Y-91873952D01*
X131008428Y-91921571D01*
X130770333Y-91921571D01*
X130579857Y-91873952D01*
X130484619Y-91826333D01*
X130437000Y-91778714D01*
X130389380Y-91683476D01*
%TO.C,Q0*%
X129110619Y-89789738D02*
X129063000Y-89884976D01*
X128967761Y-89980214D01*
X128824904Y-90123071D01*
X128777285Y-90218309D01*
X128777285Y-90313547D01*
X129015380Y-90265928D02*
X128967761Y-90361166D01*
X128872523Y-90456404D01*
X128682047Y-90504023D01*
X128348714Y-90504023D01*
X128158238Y-90456404D01*
X128063000Y-90361166D01*
X128015380Y-90265928D01*
X128015380Y-90075452D01*
X128063000Y-89980214D01*
X128158238Y-89884976D01*
X128348714Y-89837357D01*
X128682047Y-89837357D01*
X128872523Y-89884976D01*
X128967761Y-89980214D01*
X129015380Y-90075452D01*
X129015380Y-90265928D01*
X128015380Y-89218309D02*
X128015380Y-89123071D01*
X128063000Y-89027833D01*
X128110619Y-88980214D01*
X128205857Y-88932595D01*
X128396333Y-88884976D01*
X128634428Y-88884976D01*
X128824904Y-88932595D01*
X128920142Y-88980214D01*
X128967761Y-89027833D01*
X129015380Y-89123071D01*
X129015380Y-89218309D01*
X128967761Y-89313547D01*
X128920142Y-89361166D01*
X128824904Y-89408785D01*
X128634428Y-89456404D01*
X128396333Y-89456404D01*
X128205857Y-89408785D01*
X128110619Y-89361166D01*
X128063000Y-89313547D01*
X128015380Y-89218309D01*
%TO.C,R5*%
X122855880Y-82628166D02*
X122379690Y-82961500D01*
X122855880Y-83199595D02*
X121855880Y-83199595D01*
X121855880Y-82818642D01*
X121903500Y-82723404D01*
X121951119Y-82675785D01*
X122046357Y-82628166D01*
X122189214Y-82628166D01*
X122284452Y-82675785D01*
X122332071Y-82723404D01*
X122379690Y-82818642D01*
X122379690Y-83199595D01*
X121855880Y-81723404D02*
X121855880Y-82199595D01*
X122332071Y-82247214D01*
X122284452Y-82199595D01*
X122236833Y-82104357D01*
X122236833Y-81866261D01*
X122284452Y-81771023D01*
X122332071Y-81723404D01*
X122427309Y-81675785D01*
X122665404Y-81675785D01*
X122760642Y-81723404D01*
X122808261Y-81771023D01*
X122855880Y-81866261D01*
X122855880Y-82104357D01*
X122808261Y-82199595D01*
X122760642Y-82247214D01*
%TO.C,R4*%
X124674333Y-92556380D02*
X124341000Y-92080190D01*
X124102904Y-92556380D02*
X124102904Y-91556380D01*
X124483857Y-91556380D01*
X124579095Y-91604000D01*
X124626714Y-91651619D01*
X124674333Y-91746857D01*
X124674333Y-91889714D01*
X124626714Y-91984952D01*
X124579095Y-92032571D01*
X124483857Y-92080190D01*
X124102904Y-92080190D01*
X125531476Y-91889714D02*
X125531476Y-92556380D01*
X125293380Y-91508761D02*
X125055285Y-92223047D01*
X125674333Y-92223047D01*
%TO.C,R2*%
X135326380Y-88660666D02*
X134850190Y-88994000D01*
X135326380Y-89232095D02*
X134326380Y-89232095D01*
X134326380Y-88851142D01*
X134374000Y-88755904D01*
X134421619Y-88708285D01*
X134516857Y-88660666D01*
X134659714Y-88660666D01*
X134754952Y-88708285D01*
X134802571Y-88755904D01*
X134850190Y-88851142D01*
X134850190Y-89232095D01*
X134421619Y-88279714D02*
X134374000Y-88232095D01*
X134326380Y-88136857D01*
X134326380Y-87898761D01*
X134374000Y-87803523D01*
X134421619Y-87755904D01*
X134516857Y-87708285D01*
X134612095Y-87708285D01*
X134754952Y-87755904D01*
X135326380Y-88327333D01*
X135326380Y-87708285D01*
%TO.C,Q2*%
X133809619Y-76143238D02*
X133762000Y-76238476D01*
X133666761Y-76333714D01*
X133523904Y-76476571D01*
X133476285Y-76571809D01*
X133476285Y-76667047D01*
X133714380Y-76619428D02*
X133666761Y-76714666D01*
X133571523Y-76809904D01*
X133381047Y-76857523D01*
X133047714Y-76857523D01*
X132857238Y-76809904D01*
X132762000Y-76714666D01*
X132714380Y-76619428D01*
X132714380Y-76428952D01*
X132762000Y-76333714D01*
X132857238Y-76238476D01*
X133047714Y-76190857D01*
X133381047Y-76190857D01*
X133571523Y-76238476D01*
X133666761Y-76333714D01*
X133714380Y-76428952D01*
X133714380Y-76619428D01*
X132809619Y-75809904D02*
X132762000Y-75762285D01*
X132714380Y-75667047D01*
X132714380Y-75428952D01*
X132762000Y-75333714D01*
X132809619Y-75286095D01*
X132904857Y-75238476D01*
X133000095Y-75238476D01*
X133142952Y-75286095D01*
X133714380Y-75857523D01*
X133714380Y-75238476D01*
%TO.C,R7*%
X133603333Y-82343380D02*
X133270000Y-81867190D01*
X133031904Y-82343380D02*
X133031904Y-81343380D01*
X133412857Y-81343380D01*
X133508095Y-81391000D01*
X133555714Y-81438619D01*
X133603333Y-81533857D01*
X133603333Y-81676714D01*
X133555714Y-81771952D01*
X133508095Y-81819571D01*
X133412857Y-81867190D01*
X133031904Y-81867190D01*
X133936666Y-81343380D02*
X134603333Y-81343380D01*
X134174761Y-82343380D01*
%TO.C,Q1*%
X128983619Y-85287238D02*
X128936000Y-85382476D01*
X128840761Y-85477714D01*
X128697904Y-85620571D01*
X128650285Y-85715809D01*
X128650285Y-85811047D01*
X128888380Y-85763428D02*
X128840761Y-85858666D01*
X128745523Y-85953904D01*
X128555047Y-86001523D01*
X128221714Y-86001523D01*
X128031238Y-85953904D01*
X127936000Y-85858666D01*
X127888380Y-85763428D01*
X127888380Y-85572952D01*
X127936000Y-85477714D01*
X128031238Y-85382476D01*
X128221714Y-85334857D01*
X128555047Y-85334857D01*
X128745523Y-85382476D01*
X128840761Y-85477714D01*
X128888380Y-85572952D01*
X128888380Y-85763428D01*
X128888380Y-84382476D02*
X128888380Y-84953904D01*
X128888380Y-84668190D02*
X127888380Y-84668190D01*
X128031238Y-84763428D01*
X128126476Y-84858666D01*
X128174095Y-84953904D01*
%TO.C,J16*%
X141985571Y-81215857D02*
X141985571Y-82073000D01*
X141928428Y-82244428D01*
X141814142Y-82358714D01*
X141642714Y-82415857D01*
X141528428Y-82415857D01*
X143185571Y-82415857D02*
X142499857Y-82415857D01*
X142842714Y-82415857D02*
X142842714Y-81215857D01*
X142728428Y-81387285D01*
X142614142Y-81501571D01*
X142499857Y-81558714D01*
X144214142Y-81215857D02*
X143985571Y-81215857D01*
X143871285Y-81273000D01*
X143814142Y-81330142D01*
X143699857Y-81501571D01*
X143642714Y-81730142D01*
X143642714Y-82187285D01*
X143699857Y-82301571D01*
X143757000Y-82358714D01*
X143871285Y-82415857D01*
X144099857Y-82415857D01*
X144214142Y-82358714D01*
X144271285Y-82301571D01*
X144328428Y-82187285D01*
X144328428Y-81901571D01*
X144271285Y-81787285D01*
X144214142Y-81730142D01*
X144099857Y-81673000D01*
X143871285Y-81673000D01*
X143757000Y-81730142D01*
X143699857Y-81787285D01*
X143642714Y-81901571D01*
X140892857Y-88858714D02*
X141064285Y-88915857D01*
X141350000Y-88915857D01*
X141464285Y-88858714D01*
X141521428Y-88801571D01*
X141578571Y-88687285D01*
X141578571Y-88573000D01*
X141521428Y-88458714D01*
X141464285Y-88401571D01*
X141350000Y-88344428D01*
X141121428Y-88287285D01*
X141007142Y-88230142D01*
X140950000Y-88173000D01*
X140892857Y-88058714D01*
X140892857Y-87944428D01*
X140950000Y-87830142D01*
X141007142Y-87773000D01*
X141121428Y-87715857D01*
X141407142Y-87715857D01*
X141578571Y-87773000D01*
X141921428Y-87715857D02*
X142607142Y-87715857D01*
X142264285Y-88915857D02*
X142264285Y-87715857D01*
X142950000Y-88573000D02*
X143521428Y-88573000D01*
X142835714Y-88915857D02*
X143235714Y-87715857D01*
X143635714Y-88915857D01*
X143864285Y-87715857D02*
X144550000Y-87715857D01*
X144207142Y-88915857D02*
X144207142Y-87715857D01*
X144950000Y-87715857D02*
X144950000Y-88687285D01*
X145007142Y-88801571D01*
X145064285Y-88858714D01*
X145178571Y-88915857D01*
X145407142Y-88915857D01*
X145521428Y-88858714D01*
X145578571Y-88801571D01*
X145635714Y-88687285D01*
X145635714Y-87715857D01*
X146150000Y-88858714D02*
X146321428Y-88915857D01*
X146607142Y-88915857D01*
X146721428Y-88858714D01*
X146778571Y-88801571D01*
X146835714Y-88687285D01*
X146835714Y-88573000D01*
X146778571Y-88458714D01*
X146721428Y-88401571D01*
X146607142Y-88344428D01*
X146378571Y-88287285D01*
X146264285Y-88230142D01*
X146207142Y-88173000D01*
X146150000Y-88058714D01*
X146150000Y-87944428D01*
X146207142Y-87830142D01*
X146264285Y-87773000D01*
X146378571Y-87715857D01*
X146664285Y-87715857D01*
X146835714Y-87773000D01*
X148835714Y-88915857D02*
X148264285Y-88915857D01*
X148264285Y-87715857D01*
X149235714Y-88287285D02*
X149635714Y-88287285D01*
X149807142Y-88915857D02*
X149235714Y-88915857D01*
X149235714Y-87715857D01*
X149807142Y-87715857D01*
X150321428Y-88915857D02*
X150321428Y-87715857D01*
X150607142Y-87715857D01*
X150778571Y-87773000D01*
X150892857Y-87887285D01*
X150950000Y-88001571D01*
X151007142Y-88230142D01*
X151007142Y-88401571D01*
X150950000Y-88630142D01*
X150892857Y-88744428D01*
X150778571Y-88858714D01*
X150607142Y-88915857D01*
X150321428Y-88915857D01*
%TO.C,J13*%
X154984571Y-92789857D02*
X154984571Y-93647000D01*
X154927428Y-93818428D01*
X154813142Y-93932714D01*
X154641714Y-93989857D01*
X154527428Y-93989857D01*
X156184571Y-93989857D02*
X155498857Y-93989857D01*
X155841714Y-93989857D02*
X155841714Y-92789857D01*
X155727428Y-92961285D01*
X155613142Y-93075571D01*
X155498857Y-93132714D01*
X156584571Y-92789857D02*
X157327428Y-92789857D01*
X156927428Y-93247000D01*
X157098857Y-93247000D01*
X157213142Y-93304142D01*
X157270285Y-93361285D01*
X157327428Y-93475571D01*
X157327428Y-93761285D01*
X157270285Y-93875571D01*
X157213142Y-93932714D01*
X157098857Y-93989857D01*
X156756000Y-93989857D01*
X156641714Y-93932714D01*
X156584571Y-93875571D01*
X153839142Y-89290857D02*
X153839142Y-88090857D01*
X154124857Y-88090857D01*
X154296285Y-88148000D01*
X154410571Y-88262285D01*
X154467714Y-88376571D01*
X154524857Y-88605142D01*
X154524857Y-88776571D01*
X154467714Y-89005142D01*
X154410571Y-89119428D01*
X154296285Y-89233714D01*
X154124857Y-89290857D01*
X153839142Y-89290857D01*
X155267714Y-88090857D02*
X155496285Y-88090857D01*
X155610571Y-88148000D01*
X155724857Y-88262285D01*
X155782000Y-88490857D01*
X155782000Y-88890857D01*
X155724857Y-89119428D01*
X155610571Y-89233714D01*
X155496285Y-89290857D01*
X155267714Y-89290857D01*
X155153428Y-89233714D01*
X155039142Y-89119428D01*
X154982000Y-88890857D01*
X154982000Y-88490857D01*
X155039142Y-88262285D01*
X155153428Y-88148000D01*
X155267714Y-88090857D01*
X156982000Y-89176571D02*
X156924857Y-89233714D01*
X156753428Y-89290857D01*
X156639142Y-89290857D01*
X156467714Y-89233714D01*
X156353428Y-89119428D01*
X156296285Y-89005142D01*
X156239142Y-88776571D01*
X156239142Y-88605142D01*
X156296285Y-88376571D01*
X156353428Y-88262285D01*
X156467714Y-88148000D01*
X156639142Y-88090857D01*
X156753428Y-88090857D01*
X156924857Y-88148000D01*
X156982000Y-88205142D01*
X157496285Y-89290857D02*
X157496285Y-88090857D01*
X158182000Y-89290857D02*
X157667714Y-88605142D01*
X158182000Y-88090857D02*
X157496285Y-88776571D01*
X161765523Y-91075380D02*
X161194095Y-91075380D01*
X161479809Y-91075380D02*
X161479809Y-90075380D01*
X161384571Y-90218238D01*
X161289333Y-90313476D01*
X161194095Y-90361095D01*
X162384571Y-90075380D02*
X162479809Y-90075380D01*
X162575047Y-90123000D01*
X162622666Y-90170619D01*
X162670285Y-90265857D01*
X162717904Y-90456333D01*
X162717904Y-90694428D01*
X162670285Y-90884904D01*
X162622666Y-90980142D01*
X162575047Y-91027761D01*
X162479809Y-91075380D01*
X162384571Y-91075380D01*
X162289333Y-91027761D01*
X162241714Y-90980142D01*
X162194095Y-90884904D01*
X162146476Y-90694428D01*
X162146476Y-90456333D01*
X162194095Y-90265857D01*
X162241714Y-90170619D01*
X162289333Y-90123000D01*
X162384571Y-90075380D01*
X150741714Y-91075380D02*
X150170285Y-91075380D01*
X150456000Y-91075380D02*
X150456000Y-90075380D01*
X150360761Y-90218238D01*
X150265523Y-90313476D01*
X150170285Y-90361095D01*
%TO.C,J10*%
X152679476Y-121237380D02*
X152679476Y-121951666D01*
X152631857Y-122094523D01*
X152536619Y-122189761D01*
X152393761Y-122237380D01*
X152298523Y-122237380D01*
X153679476Y-122237380D02*
X153108047Y-122237380D01*
X153393761Y-122237380D02*
X153393761Y-121237380D01*
X153298523Y-121380238D01*
X153203285Y-121475476D01*
X153108047Y-121523095D01*
X154298523Y-121237380D02*
X154393761Y-121237380D01*
X154489000Y-121285000D01*
X154536619Y-121332619D01*
X154584238Y-121427857D01*
X154631857Y-121618333D01*
X154631857Y-121856428D01*
X154584238Y-122046904D01*
X154536619Y-122142142D01*
X154489000Y-122189761D01*
X154393761Y-122237380D01*
X154298523Y-122237380D01*
X154203285Y-122189761D01*
X154155666Y-122142142D01*
X154108047Y-122046904D01*
X154060428Y-121856428D01*
X154060428Y-121618333D01*
X154108047Y-121427857D01*
X154155666Y-121332619D01*
X154203285Y-121285000D01*
X154298523Y-121237380D01*
X148383714Y-117757380D02*
X147812285Y-117757380D01*
X148098000Y-117757380D02*
X148098000Y-116757380D01*
X148002761Y-116900238D01*
X147907523Y-116995476D01*
X147812285Y-117043095D01*
X159407523Y-117757380D02*
X158836095Y-117757380D01*
X159121809Y-117757380D02*
X159121809Y-116757380D01*
X159026571Y-116900238D01*
X158931333Y-116995476D01*
X158836095Y-117043095D01*
X160026571Y-116757380D02*
X160121809Y-116757380D01*
X160217047Y-116805000D01*
X160264666Y-116852619D01*
X160312285Y-116947857D01*
X160359904Y-117138333D01*
X160359904Y-117376428D01*
X160312285Y-117566904D01*
X160264666Y-117662142D01*
X160217047Y-117709761D01*
X160121809Y-117757380D01*
X160026571Y-117757380D01*
X159931333Y-117709761D01*
X159883714Y-117662142D01*
X159836095Y-117566904D01*
X159788476Y-117376428D01*
X159788476Y-117138333D01*
X159836095Y-116947857D01*
X159883714Y-116852619D01*
X159931333Y-116805000D01*
X160026571Y-116757380D01*
%TO.C,U1*%
X171069095Y-78573380D02*
X171069095Y-79382904D01*
X171116714Y-79478142D01*
X171164333Y-79525761D01*
X171259571Y-79573380D01*
X171450047Y-79573380D01*
X171545285Y-79525761D01*
X171592904Y-79478142D01*
X171640523Y-79382904D01*
X171640523Y-78573380D01*
X172640523Y-79573380D02*
X172069095Y-79573380D01*
X172354809Y-79573380D02*
X172354809Y-78573380D01*
X172259571Y-78716238D01*
X172164333Y-78811476D01*
X172069095Y-78859095D01*
%TO.C,J3*%
X136794857Y-42437000D02*
X137652000Y-42437000D01*
X137823428Y-42494142D01*
X137937714Y-42608428D01*
X137994857Y-42779857D01*
X137994857Y-42894142D01*
X136794857Y-41979857D02*
X136794857Y-41237000D01*
X137252000Y-41637000D01*
X137252000Y-41465571D01*
X137309142Y-41351285D01*
X137366285Y-41294142D01*
X137480571Y-41237000D01*
X137766285Y-41237000D01*
X137880571Y-41294142D01*
X137937714Y-41351285D01*
X137994857Y-41465571D01*
X137994857Y-41808428D01*
X137937714Y-41922714D01*
X137880571Y-41979857D01*
%TO.C,J8*%
X162144857Y-42358000D02*
X163002000Y-42358000D01*
X163173428Y-42415142D01*
X163287714Y-42529428D01*
X163344857Y-42700857D01*
X163344857Y-42815142D01*
X162659142Y-41615142D02*
X162602000Y-41729428D01*
X162544857Y-41786571D01*
X162430571Y-41843714D01*
X162373428Y-41843714D01*
X162259142Y-41786571D01*
X162202000Y-41729428D01*
X162144857Y-41615142D01*
X162144857Y-41386571D01*
X162202000Y-41272285D01*
X162259142Y-41215142D01*
X162373428Y-41158000D01*
X162430571Y-41158000D01*
X162544857Y-41215142D01*
X162602000Y-41272285D01*
X162659142Y-41386571D01*
X162659142Y-41615142D01*
X162716285Y-41729428D01*
X162773428Y-41786571D01*
X162887714Y-41843714D01*
X163116285Y-41843714D01*
X163230571Y-41786571D01*
X163287714Y-41729428D01*
X163344857Y-41615142D01*
X163344857Y-41386571D01*
X163287714Y-41272285D01*
X163230571Y-41215142D01*
X163116285Y-41158000D01*
X162887714Y-41158000D01*
X162773428Y-41215142D01*
X162716285Y-41272285D01*
X162659142Y-41386571D01*
%TO.C,J5*%
X146894600Y-56518257D02*
X146894600Y-57375400D01*
X146837457Y-57546828D01*
X146723171Y-57661114D01*
X146551742Y-57718257D01*
X146437457Y-57718257D01*
X148037457Y-56518257D02*
X147466028Y-56518257D01*
X147408885Y-57089685D01*
X147466028Y-57032542D01*
X147580314Y-56975400D01*
X147866028Y-56975400D01*
X147980314Y-57032542D01*
X148037457Y-57089685D01*
X148094600Y-57203971D01*
X148094600Y-57489685D01*
X148037457Y-57603971D01*
X147980314Y-57661114D01*
X147866028Y-57718257D01*
X147580314Y-57718257D01*
X147466028Y-57661114D01*
X147408885Y-57603971D01*
%TO.C,J4*%
X160509000Y-58143857D02*
X160509000Y-59001000D01*
X160451857Y-59172428D01*
X160337571Y-59286714D01*
X160166142Y-59343857D01*
X160051857Y-59343857D01*
X161594714Y-58543857D02*
X161594714Y-59343857D01*
X161309000Y-58086714D02*
X161023285Y-58943857D01*
X161766142Y-58943857D01*
X159294857Y-50269857D02*
X159980571Y-50269857D01*
X159637714Y-51469857D02*
X159637714Y-50269857D01*
X161237714Y-51412714D02*
X161409142Y-51469857D01*
X161694857Y-51469857D01*
X161809142Y-51412714D01*
X161866285Y-51355571D01*
X161923428Y-51241285D01*
X161923428Y-51127000D01*
X161866285Y-51012714D01*
X161809142Y-50955571D01*
X161694857Y-50898428D01*
X161466285Y-50841285D01*
X161352000Y-50784142D01*
X161294857Y-50727000D01*
X161237714Y-50612714D01*
X161237714Y-50498428D01*
X161294857Y-50384142D01*
X161352000Y-50327000D01*
X161466285Y-50269857D01*
X161752000Y-50269857D01*
X161923428Y-50327000D01*
X162437714Y-50841285D02*
X162837714Y-50841285D01*
X163009142Y-51469857D02*
X162437714Y-51469857D01*
X162437714Y-50269857D01*
X163009142Y-50269857D01*
X163523428Y-51469857D02*
X163523428Y-50269857D01*
X164209142Y-51469857D01*
X164209142Y-50269857D01*
X164723428Y-51412714D02*
X164894857Y-51469857D01*
X165180571Y-51469857D01*
X165294857Y-51412714D01*
X165352000Y-51355571D01*
X165409142Y-51241285D01*
X165409142Y-51127000D01*
X165352000Y-51012714D01*
X165294857Y-50955571D01*
X165180571Y-50898428D01*
X164952000Y-50841285D01*
X164837714Y-50784142D01*
X164780571Y-50727000D01*
X164723428Y-50612714D01*
X164723428Y-50498428D01*
X164780571Y-50384142D01*
X164837714Y-50327000D01*
X164952000Y-50269857D01*
X165237714Y-50269857D01*
X165409142Y-50327000D01*
X165923428Y-50841285D02*
X166323428Y-50841285D01*
X166494857Y-51469857D02*
X165923428Y-51469857D01*
X165923428Y-50269857D01*
X166494857Y-50269857D01*
%TO.C,JP1*%
X149214142Y-83972285D02*
X148814142Y-83972285D01*
X148814142Y-84600857D02*
X148814142Y-83400857D01*
X149385571Y-83400857D01*
X149785571Y-84258000D02*
X150357000Y-84258000D01*
X149671285Y-84600857D02*
X150071285Y-83400857D01*
X150471285Y-84600857D01*
X150871285Y-84600857D02*
X150871285Y-83400857D01*
X151557000Y-84600857D01*
X151557000Y-83400857D01*
X153042714Y-83972285D02*
X153442714Y-83972285D01*
X153614142Y-84600857D02*
X153042714Y-84600857D01*
X153042714Y-83400857D01*
X153614142Y-83400857D01*
X154128428Y-84600857D02*
X154128428Y-83400857D01*
X154814142Y-84600857D01*
X154814142Y-83400857D01*
X155328428Y-84258000D02*
X155899857Y-84258000D01*
X155214142Y-84600857D02*
X155614142Y-83400857D01*
X156014142Y-84600857D01*
X156814142Y-83972285D02*
X156985571Y-84029428D01*
X157042714Y-84086571D01*
X157099857Y-84200857D01*
X157099857Y-84372285D01*
X157042714Y-84486571D01*
X156985571Y-84543714D01*
X156871285Y-84600857D01*
X156414142Y-84600857D01*
X156414142Y-83400857D01*
X156814142Y-83400857D01*
X156928428Y-83458000D01*
X156985571Y-83515142D01*
X157042714Y-83629428D01*
X157042714Y-83743714D01*
X156985571Y-83858000D01*
X156928428Y-83915142D01*
X156814142Y-83972285D01*
X156414142Y-83972285D01*
X158185571Y-84600857D02*
X157614142Y-84600857D01*
X157614142Y-83400857D01*
X158585571Y-83972285D02*
X158985571Y-83972285D01*
X159157000Y-84600857D02*
X158585571Y-84600857D01*
X158585571Y-83400857D01*
X159157000Y-83400857D01*
%TO.C,J14*%
X171717971Y-85598257D02*
X171717971Y-86455400D01*
X171660828Y-86626828D01*
X171546542Y-86741114D01*
X171375114Y-86798257D01*
X171260828Y-86798257D01*
X172917971Y-86798257D02*
X172232257Y-86798257D01*
X172575114Y-86798257D02*
X172575114Y-85598257D01*
X172460828Y-85769685D01*
X172346542Y-85883971D01*
X172232257Y-85941114D01*
X173946542Y-85998257D02*
X173946542Y-86798257D01*
X173660828Y-85541114D02*
X173375114Y-86398257D01*
X174117971Y-86398257D01*
X164999857Y-89143000D02*
X163799857Y-89143000D01*
X164371285Y-89143000D02*
X164371285Y-88457285D01*
X164999857Y-88457285D02*
X163799857Y-88457285D01*
X164371285Y-87885857D02*
X164371285Y-87485857D01*
X164999857Y-87314428D02*
X164999857Y-87885857D01*
X163799857Y-87885857D01*
X163799857Y-87314428D01*
X164657000Y-86857285D02*
X164657000Y-86285857D01*
X164999857Y-86971571D02*
X163799857Y-86571571D01*
X164999857Y-86171571D01*
X163799857Y-85943000D02*
X163799857Y-85257285D01*
X164999857Y-85600142D02*
X163799857Y-85600142D01*
X164371285Y-84857285D02*
X164371285Y-84457285D01*
X164999857Y-84285857D02*
X164999857Y-84857285D01*
X163799857Y-84857285D01*
X163799857Y-84285857D01*
X164999857Y-83085857D02*
X164428428Y-83485857D01*
X164999857Y-83771571D02*
X163799857Y-83771571D01*
X163799857Y-83314428D01*
X163857000Y-83200142D01*
X163914142Y-83143000D01*
X164028428Y-83085857D01*
X164199857Y-83085857D01*
X164314142Y-83143000D01*
X164371285Y-83200142D01*
X164428428Y-83314428D01*
X164428428Y-83771571D01*
%TO.C,J12*%
X144982142Y-75898714D02*
X145153571Y-75955857D01*
X145439285Y-75955857D01*
X145553571Y-75898714D01*
X145610714Y-75841571D01*
X145667857Y-75727285D01*
X145667857Y-75613000D01*
X145610714Y-75498714D01*
X145553571Y-75441571D01*
X145439285Y-75384428D01*
X145210714Y-75327285D01*
X145096428Y-75270142D01*
X145039285Y-75213000D01*
X144982142Y-75098714D01*
X144982142Y-74984428D01*
X145039285Y-74870142D01*
X145096428Y-74813000D01*
X145210714Y-74755857D01*
X145496428Y-74755857D01*
X145667857Y-74813000D01*
X146067857Y-74755857D02*
X146353571Y-75955857D01*
X146582142Y-75098714D01*
X146810714Y-75955857D01*
X147096428Y-74755857D01*
X147553571Y-75955857D02*
X147553571Y-74755857D01*
X147953571Y-74755857D02*
X148639285Y-74755857D01*
X148296428Y-75955857D02*
X148296428Y-74755857D01*
X149725000Y-75841571D02*
X149667857Y-75898714D01*
X149496428Y-75955857D01*
X149382142Y-75955857D01*
X149210714Y-75898714D01*
X149096428Y-75784428D01*
X149039285Y-75670142D01*
X148982142Y-75441571D01*
X148982142Y-75270142D01*
X149039285Y-75041571D01*
X149096428Y-74927285D01*
X149210714Y-74813000D01*
X149382142Y-74755857D01*
X149496428Y-74755857D01*
X149667857Y-74813000D01*
X149725000Y-74870142D01*
X150239285Y-75955857D02*
X150239285Y-74755857D01*
X150239285Y-75327285D02*
X150925000Y-75327285D01*
X150925000Y-75955857D02*
X150925000Y-74755857D01*
X151496428Y-75327285D02*
X151896428Y-75327285D01*
X152067857Y-75955857D02*
X151496428Y-75955857D01*
X151496428Y-74755857D01*
X152067857Y-74755857D01*
X153267857Y-75955857D02*
X152867857Y-75384428D01*
X152582142Y-75955857D02*
X152582142Y-74755857D01*
X153039285Y-74755857D01*
X153153571Y-74813000D01*
X153210714Y-74870142D01*
X153267857Y-74984428D01*
X153267857Y-75155857D01*
X153210714Y-75270142D01*
X153153571Y-75327285D01*
X153039285Y-75384428D01*
X152582142Y-75384428D01*
%TO.C,J0*%
X185411418Y-81295697D02*
X185839989Y-82038005D01*
X185876216Y-82215038D01*
X185834385Y-82371155D01*
X185714495Y-82506356D01*
X185615521Y-82563499D01*
X186104238Y-80895697D02*
X186203213Y-80838554D01*
X186330758Y-80830899D01*
X186408817Y-80851814D01*
X186515447Y-80922217D01*
X186679220Y-81091594D01*
X186822077Y-81339030D01*
X186886876Y-81565550D01*
X186894531Y-81693096D01*
X186873615Y-81771155D01*
X186803213Y-81877785D01*
X186704238Y-81934928D01*
X186576692Y-81942583D01*
X186498634Y-81921668D01*
X186392004Y-81851265D01*
X186228231Y-81681887D01*
X186085374Y-81434452D01*
X186020575Y-81207931D01*
X186012920Y-81080386D01*
X186033835Y-81002327D01*
X186104238Y-80895697D01*
X185910388Y-89633660D02*
X186253245Y-90227506D01*
X185042586Y-90530583D02*
X186081816Y-89930583D01*
X186567530Y-90771865D02*
X186681816Y-90969813D01*
X186689472Y-91097359D01*
X186647640Y-91253476D01*
X186478263Y-91417249D01*
X186131853Y-91617249D01*
X185905333Y-91682048D01*
X185749216Y-91640216D01*
X185642586Y-91569813D01*
X185528300Y-91371865D01*
X185520644Y-91244319D01*
X185562476Y-91088202D01*
X185731853Y-90924429D01*
X186078263Y-90724429D01*
X186304783Y-90659630D01*
X186460900Y-90701462D01*
X186567530Y-90771865D01*
X187196102Y-91860582D02*
X187310388Y-92058531D01*
X187318043Y-92186077D01*
X187276212Y-92342194D01*
X187106835Y-92505967D01*
X186760424Y-92705967D01*
X186533904Y-92770765D01*
X186377787Y-92728934D01*
X186271157Y-92658531D01*
X186156871Y-92460582D01*
X186149216Y-92333037D01*
X186191047Y-92176919D01*
X186360424Y-92013147D01*
X186706835Y-91813147D01*
X186933355Y-91748348D01*
X187089472Y-91790179D01*
X187196102Y-91860582D01*
X186956871Y-93846223D02*
X186671157Y-93351351D01*
X187710388Y-92751351D01*
X187156871Y-94192633D02*
X188196102Y-93592633D01*
X187701230Y-93878347D02*
X188044087Y-94472193D01*
X187499729Y-94786479D02*
X188538959Y-94186479D01*
X188329802Y-94967065D02*
X188529802Y-95313475D01*
X188071157Y-95776222D02*
X187785443Y-95281351D01*
X188824673Y-94681351D01*
X189110388Y-95176222D01*
X188596652Y-96000691D02*
X188882366Y-96495563D01*
X188242586Y-96073145D02*
X189481816Y-95819556D01*
X188642586Y-96765966D01*
X188842586Y-97112376D02*
X189881816Y-96512376D01*
X190024673Y-96759812D01*
X190060900Y-96936845D01*
X190019069Y-97092962D01*
X189948666Y-97199592D01*
X189779289Y-97363365D01*
X189630827Y-97449079D01*
X189404307Y-97513878D01*
X189276761Y-97521533D01*
X189120644Y-97479702D01*
X188985443Y-97359812D01*
X188842586Y-97112376D01*
%TD*%
%LPC*%
D14*
X180986185Y-69774514D02*
X180914757Y-69845942D01*
X180700471Y-69917371D01*
X180557614Y-69917371D01*
X180343328Y-69845942D01*
X180200471Y-69703085D01*
X180129042Y-69560228D01*
X180057614Y-69274514D01*
X180057614Y-69060228D01*
X180129042Y-68774514D01*
X180200471Y-68631657D01*
X180343328Y-68488800D01*
X180557614Y-68417371D01*
X180700471Y-68417371D01*
X180914757Y-68488800D01*
X180986185Y-68560228D01*
X181629042Y-68417371D02*
X181629042Y-69631657D01*
X181700471Y-69774514D01*
X181771900Y-69845942D01*
X181914757Y-69917371D01*
X182200471Y-69917371D01*
X182343328Y-69845942D01*
X182414757Y-69774514D01*
X182486185Y-69631657D01*
X182486185Y-68417371D01*
X183700471Y-69131657D02*
X183914757Y-69203085D01*
X183986185Y-69274514D01*
X184057614Y-69417371D01*
X184057614Y-69631657D01*
X183986185Y-69774514D01*
X183914757Y-69845942D01*
X183771900Y-69917371D01*
X183200471Y-69917371D01*
X183200471Y-68417371D01*
X183700471Y-68417371D01*
X183843328Y-68488800D01*
X183914757Y-68560228D01*
X183986185Y-68703085D01*
X183986185Y-68845942D01*
X183914757Y-68988800D01*
X183843328Y-69060228D01*
X183700471Y-69131657D01*
X183200471Y-69131657D01*
X184700471Y-69131657D02*
X185200471Y-69131657D01*
X185414757Y-69917371D02*
X184700471Y-69917371D01*
X184700471Y-68417371D01*
X185414757Y-68417371D01*
X179986185Y-70917371D02*
X180986185Y-70917371D01*
X179986185Y-72417371D01*
X180986185Y-72417371D01*
X181557614Y-71631657D02*
X182057614Y-71631657D01*
X182271900Y-72417371D02*
X181557614Y-72417371D01*
X181557614Y-70917371D01*
X182271900Y-70917371D01*
X183771900Y-72417371D02*
X183271900Y-71703085D01*
X182914757Y-72417371D02*
X182914757Y-70917371D01*
X183486185Y-70917371D01*
X183629042Y-70988800D01*
X183700471Y-71060228D01*
X183771900Y-71203085D01*
X183771900Y-71417371D01*
X183700471Y-71560228D01*
X183629042Y-71631657D01*
X183486185Y-71703085D01*
X182914757Y-71703085D01*
X184700471Y-70917371D02*
X184986185Y-70917371D01*
X185129042Y-70988800D01*
X185271900Y-71131657D01*
X185343328Y-71417371D01*
X185343328Y-71917371D01*
X185271900Y-72203085D01*
X185129042Y-72345942D01*
X184986185Y-72417371D01*
X184700471Y-72417371D01*
X184557614Y-72345942D01*
X184414757Y-72203085D01*
X184343328Y-71917371D01*
X184343328Y-71417371D01*
X184414757Y-71131657D01*
X184557614Y-70988800D01*
X184700471Y-70917371D01*
D17*
G36*
X152422200Y-91473000D02*
G01*
X151457000Y-91473000D01*
X151457000Y-89796600D01*
X152422200Y-89796600D01*
X152422200Y-91473000D01*
G37*
X152422200Y-91473000D02*
X151457000Y-91473000D01*
X151457000Y-89796600D01*
X152422200Y-89796600D01*
X152422200Y-91473000D01*
G36*
X160357000Y-91473000D02*
G01*
X159391800Y-91473000D01*
X159391800Y-89796600D01*
X160357000Y-89796600D01*
X160357000Y-91473000D01*
G37*
X160357000Y-91473000D02*
X159391800Y-91473000D01*
X159391800Y-89796600D01*
X160357000Y-89796600D01*
X160357000Y-91473000D01*
G36*
X158119200Y-118130500D02*
G01*
X157154000Y-118130500D01*
X157154000Y-116454100D01*
X158119200Y-116454100D01*
X158119200Y-118130500D01*
G37*
X158119200Y-118130500D02*
X157154000Y-118130500D01*
X157154000Y-116454100D01*
X158119200Y-116454100D01*
X158119200Y-118130500D01*
G36*
X150105500Y-118130500D02*
G01*
X149140300Y-118130500D01*
X149140300Y-116454100D01*
X150105500Y-116454100D01*
X150105500Y-118130500D01*
G37*
X150105500Y-118130500D02*
X149140300Y-118130500D01*
X149140300Y-116454100D01*
X150105500Y-116454100D01*
X150105500Y-118130500D01*
%TO.C,R0*%
G36*
G01*
X125216500Y-88309001D02*
X125216500Y-87408999D01*
G75*
G02*
X125466499Y-87159000I249999J0D01*
G01*
X126166501Y-87159000D01*
G75*
G02*
X126416500Y-87408999I0J-249999D01*
G01*
X126416500Y-88309001D01*
G75*
G02*
X126166501Y-88559000I-249999J0D01*
G01*
X125466499Y-88559000D01*
G75*
G02*
X125216500Y-88309001I0J249999D01*
G01*
G37*
G36*
G01*
X123216500Y-88309001D02*
X123216500Y-87408999D01*
G75*
G02*
X123466499Y-87159000I249999J0D01*
G01*
X124166501Y-87159000D01*
G75*
G02*
X124416500Y-87408999I0J-249999D01*
G01*
X124416500Y-88309001D01*
G75*
G02*
X124166501Y-88559000I-249999J0D01*
G01*
X123466499Y-88559000D01*
G75*
G02*
X123216500Y-88309001I0J249999D01*
G01*
G37*
%TD*%
%TO.C,R3*%
G36*
G01*
X124441000Y-84668999D02*
X124441000Y-85569001D01*
G75*
G02*
X124191001Y-85819000I-249999J0D01*
G01*
X123490999Y-85819000D01*
G75*
G02*
X123241000Y-85569001I0J249999D01*
G01*
X123241000Y-84668999D01*
G75*
G02*
X123490999Y-84419000I249999J0D01*
G01*
X124191001Y-84419000D01*
G75*
G02*
X124441000Y-84668999I0J-249999D01*
G01*
G37*
G36*
G01*
X126441000Y-84668999D02*
X126441000Y-85569001D01*
G75*
G02*
X126191001Y-85819000I-249999J0D01*
G01*
X125490999Y-85819000D01*
G75*
G02*
X125241000Y-85569001I0J249999D01*
G01*
X125241000Y-84668999D01*
G75*
G02*
X125490999Y-84419000I249999J0D01*
G01*
X126191001Y-84419000D01*
G75*
G02*
X126441000Y-84668999I0J-249999D01*
G01*
G37*
%TD*%
%TO.C,LED1*%
G36*
G01*
X128346999Y-78823000D02*
X129247001Y-78823000D01*
G75*
G02*
X129497000Y-79072999I0J-249999D01*
G01*
X129497000Y-79723001D01*
G75*
G02*
X129247001Y-79973000I-249999J0D01*
G01*
X128346999Y-79973000D01*
G75*
G02*
X128097000Y-79723001I0J249999D01*
G01*
X128097000Y-79072999D01*
G75*
G02*
X128346999Y-78823000I249999J0D01*
G01*
G37*
G36*
G01*
X128346999Y-76773000D02*
X129247001Y-76773000D01*
G75*
G02*
X129497000Y-77022999I0J-249999D01*
G01*
X129497000Y-77673001D01*
G75*
G02*
X129247001Y-77923000I-249999J0D01*
G01*
X128346999Y-77923000D01*
G75*
G02*
X128097000Y-77673001I0J249999D01*
G01*
X128097000Y-77022999D01*
G75*
G02*
X128346999Y-76773000I249999J0D01*
G01*
G37*
%TD*%
%TO.C,R1*%
G36*
G01*
X132811999Y-93393000D02*
X133712001Y-93393000D01*
G75*
G02*
X133962000Y-93642999I0J-249999D01*
G01*
X133962000Y-94343001D01*
G75*
G02*
X133712001Y-94593000I-249999J0D01*
G01*
X132811999Y-94593000D01*
G75*
G02*
X132562000Y-94343001I0J249999D01*
G01*
X132562000Y-93642999D01*
G75*
G02*
X132811999Y-93393000I249999J0D01*
G01*
G37*
G36*
G01*
X132811999Y-91393000D02*
X133712001Y-91393000D01*
G75*
G02*
X133962000Y-91642999I0J-249999D01*
G01*
X133962000Y-92343001D01*
G75*
G02*
X133712001Y-92593000I-249999J0D01*
G01*
X132811999Y-92593000D01*
G75*
G02*
X132562000Y-92343001I0J249999D01*
G01*
X132562000Y-91642999D01*
G75*
G02*
X132811999Y-91393000I249999J0D01*
G01*
G37*
%TD*%
%TO.C,LED0*%
G36*
G01*
X128172000Y-94148000D02*
X129422000Y-94148000D01*
G75*
G02*
X129672000Y-94398000I0J-250000D01*
G01*
X129672000Y-95323000D01*
G75*
G02*
X129422000Y-95573000I-250000J0D01*
G01*
X128172000Y-95573000D01*
G75*
G02*
X127922000Y-95323000I0J250000D01*
G01*
X127922000Y-94398000D01*
G75*
G02*
X128172000Y-94148000I250000J0D01*
G01*
G37*
G36*
G01*
X128172000Y-91173000D02*
X129422000Y-91173000D01*
G75*
G02*
X129672000Y-91423000I0J-250000D01*
G01*
X129672000Y-92348000D01*
G75*
G02*
X129422000Y-92598000I-250000J0D01*
G01*
X128172000Y-92598000D01*
G75*
G02*
X127922000Y-92348000I0J250000D01*
G01*
X127922000Y-91423000D01*
G75*
G02*
X128172000Y-91173000I250000J0D01*
G01*
G37*
%TD*%
D18*
%TO.C,Q0*%
X130847000Y-89009500D03*
X130847000Y-87089500D03*
X128747000Y-88049500D03*
%TD*%
%TO.C,R5*%
G36*
G01*
X124416500Y-82011499D02*
X124416500Y-82911501D01*
G75*
G02*
X124166501Y-83161500I-249999J0D01*
G01*
X123466499Y-83161500D01*
G75*
G02*
X123216500Y-82911501I0J249999D01*
G01*
X123216500Y-82011499D01*
G75*
G02*
X123466499Y-81761500I249999J0D01*
G01*
X124166501Y-81761500D01*
G75*
G02*
X124416500Y-82011499I0J-249999D01*
G01*
G37*
G36*
G01*
X126416500Y-82011499D02*
X126416500Y-82911501D01*
G75*
G02*
X126166501Y-83161500I-249999J0D01*
G01*
X125466499Y-83161500D01*
G75*
G02*
X125216500Y-82911501I0J249999D01*
G01*
X125216500Y-82011499D01*
G75*
G02*
X125466499Y-81761500I249999J0D01*
G01*
X126166501Y-81761500D01*
G75*
G02*
X126416500Y-82011499I0J-249999D01*
G01*
G37*
%TD*%
%TO.C,R4*%
G36*
G01*
X124441000Y-89748999D02*
X124441000Y-90649001D01*
G75*
G02*
X124191001Y-90899000I-249999J0D01*
G01*
X123490999Y-90899000D01*
G75*
G02*
X123241000Y-90649001I0J249999D01*
G01*
X123241000Y-89748999D01*
G75*
G02*
X123490999Y-89499000I249999J0D01*
G01*
X124191001Y-89499000D01*
G75*
G02*
X124441000Y-89748999I0J-249999D01*
G01*
G37*
G36*
G01*
X126441000Y-89748999D02*
X126441000Y-90649001D01*
G75*
G02*
X126191001Y-90899000I-249999J0D01*
G01*
X125490999Y-90899000D01*
G75*
G02*
X125241000Y-90649001I0J249999D01*
G01*
X125241000Y-89748999D01*
G75*
G02*
X125490999Y-89499000I249999J0D01*
G01*
X126191001Y-89499000D01*
G75*
G02*
X126441000Y-89748999I0J-249999D01*
G01*
G37*
%TD*%
D19*
%TO.C,H9*%
X123797000Y-94373000D03*
D20*
X123797000Y-94373000D03*
%TD*%
%TO.C,R2*%
G36*
G01*
X132811999Y-88894000D02*
X133712001Y-88894000D01*
G75*
G02*
X133962000Y-89143999I0J-249999D01*
G01*
X133962000Y-89844001D01*
G75*
G02*
X133712001Y-90094000I-249999J0D01*
G01*
X132811999Y-90094000D01*
G75*
G02*
X132562000Y-89844001I0J249999D01*
G01*
X132562000Y-89143999D01*
G75*
G02*
X132811999Y-88894000I249999J0D01*
G01*
G37*
G36*
G01*
X132811999Y-86894000D02*
X133712001Y-86894000D01*
G75*
G02*
X133962000Y-87143999I0J-249999D01*
G01*
X133962000Y-87844001D01*
G75*
G02*
X133712001Y-88094000I-249999J0D01*
G01*
X132811999Y-88094000D01*
G75*
G02*
X132562000Y-87844001I0J249999D01*
G01*
X132562000Y-87143999D01*
G75*
G02*
X132811999Y-86894000I249999J0D01*
G01*
G37*
%TD*%
D21*
%TO.C,Q2*%
X132302000Y-80273000D03*
X134222000Y-80273000D03*
X133262000Y-78173000D03*
%TD*%
%TO.C,R7*%
G36*
G01*
X134170000Y-83991001D02*
X134170000Y-83090999D01*
G75*
G02*
X134419999Y-82841000I249999J0D01*
G01*
X135120001Y-82841000D01*
G75*
G02*
X135370000Y-83090999I0J-249999D01*
G01*
X135370000Y-83991001D01*
G75*
G02*
X135120001Y-84241000I-249999J0D01*
G01*
X134419999Y-84241000D01*
G75*
G02*
X134170000Y-83991001I0J249999D01*
G01*
G37*
G36*
G01*
X132170000Y-83991001D02*
X132170000Y-83090999D01*
G75*
G02*
X132419999Y-82841000I249999J0D01*
G01*
X133120001Y-82841000D01*
G75*
G02*
X133370000Y-83090999I0J-249999D01*
G01*
X133370000Y-83991001D01*
G75*
G02*
X133120001Y-84241000I-249999J0D01*
G01*
X132419999Y-84241000D01*
G75*
G02*
X132170000Y-83991001I0J249999D01*
G01*
G37*
%TD*%
D18*
%TO.C,Q1*%
X130847000Y-84333000D03*
X130847000Y-82413000D03*
X128747000Y-83373000D03*
%TD*%
D19*
%TO.C,H8*%
X123797000Y-77373000D03*
D20*
X123797000Y-77373000D03*
%TD*%
D22*
%TO.C,J16*%
X146337000Y-84138000D03*
X146337000Y-82638000D03*
X146337000Y-81138000D03*
X146337000Y-79638000D03*
D23*
X142087000Y-86088000D03*
X142087000Y-77688000D03*
%TD*%
D24*
%TO.C,J13*%
X163056000Y-93163000D03*
X148856000Y-93163000D03*
D25*
X160456000Y-90623000D03*
X159456000Y-90623000D03*
X158456000Y-90623000D03*
X157456000Y-90623000D03*
X156456000Y-90623000D03*
X155456000Y-90623000D03*
X154456000Y-90623000D03*
X153456000Y-90623000D03*
X152456000Y-90623000D03*
X151456000Y-90623000D03*
%TD*%
%TO.C,J10*%
X149098000Y-117305000D03*
X150098000Y-117305000D03*
X151098000Y-117305000D03*
X152098000Y-117305000D03*
X153098000Y-117305000D03*
X154098000Y-117305000D03*
X155098000Y-117305000D03*
X156098000Y-117305000D03*
X157098000Y-117305000D03*
X158098000Y-117305000D03*
D24*
X146498000Y-119845000D03*
X160698000Y-119845000D03*
%TD*%
D26*
%TO.C,U1*%
X173208000Y-77379000D03*
X173208000Y-76429000D03*
X173208000Y-75479000D03*
X170508000Y-75479000D03*
X170508000Y-77379000D03*
%TD*%
D27*
%TO.C,J9*%
X155247000Y-113114000D03*
X155247000Y-110574000D03*
X155247000Y-108034000D03*
X155247000Y-105494000D03*
%TD*%
%TO.C,J11*%
X151947000Y-105494000D03*
X151947000Y-108034000D03*
X151947000Y-110574000D03*
X151947000Y-113114000D03*
%TD*%
D28*
%TO.C,J3*%
X145902000Y-38148000D03*
X143362000Y-38148000D03*
X145902000Y-40688000D03*
X143362000Y-40688000D03*
X145902000Y-43228000D03*
X143362000Y-43228000D03*
X145902000Y-45768000D03*
X143362000Y-45768000D03*
%TD*%
D29*
%TO.C,J8*%
X168613000Y-45768000D03*
X168613000Y-43228000D03*
X168613000Y-40688000D03*
X168613000Y-38148000D03*
%TD*%
D30*
%TO.C,J5*%
X149987000Y-51943000D03*
D31*
X144907000Y-51943000D03*
%TD*%
D32*
%TO.C,J4*%
X158409000Y-54356000D03*
X160909000Y-54356000D03*
X163409000Y-54356000D03*
D33*
X155209000Y-61156000D03*
X166609000Y-61156000D03*
%TD*%
D20*
%TO.C,H6*%
X161037000Y-105334000D03*
D19*
X161037000Y-105334000D03*
%TD*%
D20*
%TO.C,H7*%
X143657000Y-110334000D03*
D19*
X143657000Y-110334000D03*
%TD*%
D34*
%TO.C,H3*%
X144462000Y-32183000D03*
D35*
X144462000Y-32183000D03*
%TD*%
D34*
%TO.C,H4*%
X157262000Y-48038000D03*
D35*
X157262000Y-48038000D03*
%TD*%
D34*
%TO.C,H5*%
X163761999Y-32183000D03*
D35*
X163761999Y-32183000D03*
%TD*%
D20*
%TO.C,H12*%
X171957000Y-70873000D03*
D19*
X171957000Y-70873000D03*
%TD*%
D36*
%TO.C,JP1*%
X151417000Y-79096000D03*
X153957000Y-79096000D03*
D37*
X156497000Y-79096000D03*
%TD*%
D30*
%TO.C,J14*%
X167457000Y-83563000D03*
D31*
X167457000Y-88643000D03*
%TD*%
D38*
%TO.C,J15*%
X165957000Y-75873000D03*
X165957000Y-73373000D03*
G36*
G01*
X165232000Y-70023000D02*
X166682000Y-70023000D01*
G75*
G02*
X166932000Y-70273000I0J-250000D01*
G01*
X166932000Y-71473000D01*
G75*
G02*
X166682000Y-71723000I-250000J0D01*
G01*
X165232000Y-71723000D01*
G75*
G02*
X164982000Y-71473000I0J250000D01*
G01*
X164982000Y-70273000D01*
G75*
G02*
X165232000Y-70023000I250000J0D01*
G01*
G37*
%TD*%
D20*
%TO.C,H11*%
X171957000Y-93873000D03*
D19*
X171957000Y-93873000D03*
%TD*%
D39*
%TO.C,J12*%
X143957000Y-71873000D03*
X146457000Y-71873000D03*
X148957000Y-71873000D03*
X151457000Y-71873000D03*
X153957000Y-71873000D03*
X156457000Y-71873000D03*
G36*
G01*
X159807000Y-71148000D02*
X159807000Y-72598000D01*
G75*
G02*
X159557000Y-72848000I-250000J0D01*
G01*
X158357000Y-72848000D01*
G75*
G02*
X158107000Y-72598000I0J250000D01*
G01*
X158107000Y-71148000D01*
G75*
G02*
X158357000Y-70898000I250000J0D01*
G01*
X159557000Y-70898000D01*
G75*
G02*
X159807000Y-71148000I0J-250000D01*
G01*
G37*
%TD*%
D20*
%TO.C,H10*%
X143957000Y-93873000D03*
D19*
X143957000Y-93873000D03*
%TD*%
D35*
%TO.C,H0*%
X195936462Y-77320774D03*
D34*
X195936462Y-77320774D03*
%TD*%
D39*
%TO.C,J1*%
X190397401Y-76632383D03*
X187897401Y-76632383D03*
X185397401Y-76632383D03*
G36*
G01*
X182047401Y-77357383D02*
X182047401Y-75907383D01*
G75*
G02*
X182297401Y-75657383I250000J0D01*
G01*
X183497401Y-75657383D01*
G75*
G02*
X183747401Y-75907383I0J-250000D01*
G01*
X183747401Y-77357383D01*
G75*
G02*
X183497401Y-77607383I-250000J0D01*
G01*
X182297401Y-77607383D01*
G75*
G02*
X182047401Y-77357383I0J250000D01*
G01*
G37*
%TD*%
D40*
%TO.C,J2*%
X197671391Y-104200151D03*
X200211391Y-104200151D03*
X197671391Y-101660151D03*
X200211391Y-101660151D03*
X197671391Y-99120151D03*
X200211391Y-99120151D03*
X197671391Y-96580151D03*
D41*
X200211391Y-96580151D03*
%TD*%
%TO.C,J0*%
G36*
G01*
X184913292Y-85547235D02*
X184913292Y-85547235D01*
G75*
G02*
X185279317Y-84181210I866025J500000D01*
G01*
X186145343Y-83681210D01*
G75*
G02*
X187511368Y-84047235I500000J-866025D01*
G01*
X187511368Y-84047235D01*
G75*
G02*
X187145343Y-85413260I-866025J-500000D01*
G01*
X186279317Y-85913260D01*
G75*
G02*
X184913292Y-85547235I-500000J866025D01*
G01*
G37*
G36*
G01*
X187985950Y-83773235D02*
X187985950Y-83773235D01*
G75*
G02*
X188351975Y-82407210I866025J500000D01*
G01*
X189218001Y-81907210D01*
G75*
G02*
X190584026Y-82273235I500000J-866025D01*
G01*
X190584026Y-82273235D01*
G75*
G02*
X190218001Y-83639260I-866025J-500000D01*
G01*
X189351975Y-84139260D01*
G75*
G02*
X187985950Y-83773235I-500000J866025D01*
G01*
G37*
G36*
G01*
X186176364Y-87750939D02*
X186176364Y-87750939D01*
G75*
G02*
X186542389Y-86384914I866025J500000D01*
G01*
X187408415Y-85884914D01*
G75*
G02*
X188774440Y-86250939I500000J-866025D01*
G01*
X188774440Y-86250939D01*
G75*
G02*
X188408415Y-87616964I-866025J-500000D01*
G01*
X187542389Y-88116964D01*
G75*
G02*
X186176364Y-87750939I-500000J866025D01*
G01*
G37*
G36*
G01*
X187446364Y-89950644D02*
X187446364Y-89950644D01*
G75*
G02*
X187812389Y-88584619I866025J500000D01*
G01*
X188678415Y-88084619D01*
G75*
G02*
X190044440Y-88450644I500000J-866025D01*
G01*
X190044440Y-88450644D01*
G75*
G02*
X189678415Y-89816669I-866025J-500000D01*
G01*
X188812389Y-90316669D01*
G75*
G02*
X187446364Y-89950644I-500000J866025D01*
G01*
G37*
G36*
G01*
X188716364Y-92150348D02*
X188716364Y-92150348D01*
G75*
G02*
X189082389Y-90784323I866025J500000D01*
G01*
X189948415Y-90284323D01*
G75*
G02*
X191314440Y-90650348I500000J-866025D01*
G01*
X191314440Y-90650348D01*
G75*
G02*
X190948415Y-92016373I-866025J-500000D01*
G01*
X190082389Y-92516373D01*
G75*
G02*
X188716364Y-92150348I-500000J866025D01*
G01*
G37*
G36*
G01*
X189986364Y-94350053D02*
X189986364Y-94350053D01*
G75*
G02*
X190352389Y-92984028I866025J500000D01*
G01*
X191218415Y-92484028D01*
G75*
G02*
X192584440Y-92850053I500000J-866025D01*
G01*
X192584440Y-92850053D01*
G75*
G02*
X192218415Y-94216078I-866025J-500000D01*
G01*
X191352389Y-94716078D01*
G75*
G02*
X189986364Y-94350053I-500000J866025D01*
G01*
G37*
G36*
G01*
X191256364Y-96549757D02*
X191256364Y-96549757D01*
G75*
G02*
X191622389Y-95183732I866025J500000D01*
G01*
X192488415Y-94683732D01*
G75*
G02*
X193854440Y-95049757I500000J-866025D01*
G01*
X193854440Y-95049757D01*
G75*
G02*
X193488415Y-96415782I-866025J-500000D01*
G01*
X192622389Y-96915782D01*
G75*
G02*
X191256364Y-96549757I-500000J866025D01*
G01*
G37*
G36*
G01*
X194335950Y-94771757D02*
X194335950Y-94771757D01*
G75*
G02*
X194701975Y-93405732I866025J500000D01*
G01*
X195568001Y-92905732D01*
G75*
G02*
X196934026Y-93271757I500000J-866025D01*
G01*
X196934026Y-93271757D01*
G75*
G02*
X196568001Y-94637782I-866025J-500000D01*
G01*
X195701975Y-95137782D01*
G75*
G02*
X194335950Y-94771757I-500000J866025D01*
G01*
G37*
G36*
G01*
X193065950Y-92572053D02*
X193065950Y-92572053D01*
G75*
G02*
X193431975Y-91206028I866025J500000D01*
G01*
X194298001Y-90706028D01*
G75*
G02*
X195664026Y-91072053I500000J-866025D01*
G01*
X195664026Y-91072053D01*
G75*
G02*
X195298001Y-92438078I-866025J-500000D01*
G01*
X194431975Y-92938078D01*
G75*
G02*
X193065950Y-92572053I-500000J866025D01*
G01*
G37*
G36*
G01*
X191795950Y-90372348D02*
X191795950Y-90372348D01*
G75*
G02*
X192161975Y-89006323I866025J500000D01*
G01*
X193028001Y-88506323D01*
G75*
G02*
X194394026Y-88872348I500000J-866025D01*
G01*
X194394026Y-88872348D01*
G75*
G02*
X194028001Y-90238373I-866025J-500000D01*
G01*
X193161975Y-90738373D01*
G75*
G02*
X191795950Y-90372348I-500000J866025D01*
G01*
G37*
G36*
G01*
X190525950Y-88172644D02*
X190525950Y-88172644D01*
G75*
G02*
X190891975Y-86806619I866025J500000D01*
G01*
X191758001Y-86306619D01*
G75*
G02*
X193124026Y-86672644I500000J-866025D01*
G01*
X193124026Y-86672644D01*
G75*
G02*
X192758001Y-88038669I-866025J-500000D01*
G01*
X191891975Y-88538669D01*
G75*
G02*
X190525950Y-88172644I-500000J866025D01*
G01*
G37*
G36*
G01*
X189255950Y-85972939D02*
X189255950Y-85972939D01*
G75*
G02*
X189621975Y-84606914I866025J500000D01*
G01*
X190488001Y-84106914D01*
G75*
G02*
X191854026Y-84472939I500000J-866025D01*
G01*
X191854026Y-84472939D01*
G75*
G02*
X191488001Y-85838964I-866025J-500000D01*
G01*
X190621975Y-86338964D01*
G75*
G02*
X189255950Y-85972939I-500000J866025D01*
G01*
G37*
%TD*%
D35*
%TO.C,H2*%
X182220195Y-89411496D03*
D34*
X182220195Y-89411496D03*
%TD*%
D35*
%TO.C,H1*%
X205719256Y-105831593D03*
D34*
X205719256Y-105831593D03*
%TD*%
M02*
