M48
; DRILL file {KiCad (5.1.9)-1} date 02/18/21 14:55:39
; FORMAT={-:-/ absolute / inch / decimal}
; #@! TF.CreationDate,2021-02-18T14:55:39+00:00
; #@! TF.GenerationSoftware,Kicad,Pcbnew,(5.1.9)-1
; #@! TF.FileFunction,Plated,1,2,PTH
FMAT,2
INCH
T1C0.0157
T2C0.0197
T3C0.0374
T4C0.0394
T5C0.0409
T6C0.0433
T7C0.0551
T8C0.0591
T9C0.1063
T10C0.1260
%
G90
G05
T1
X4.8739Y-3.3021
X5.015Y-3.3211
X5.1298Y-3.6761
X5.1565Y-3.164
X5.2115Y-3.224
X5.2365Y-3.394
X5.3059Y-3.3834
X5.6261Y-3.269
X5.7613Y-3.0875
X5.8613Y-3.1875
X6.0272Y-4.5283
X6.1072Y-4.5383
X6.3759Y-1.6019
X6.6211Y-2.709
X6.6411Y-2.914
T2
X5.455Y-1.67
X5.9076Y-4.3409
X5.9469Y-4.7149
X6.0257Y-4.6952
X6.0772Y-4.7283
X7.399Y-3.1701
X7.449Y-3.9201
X7.574Y-3.2701
X7.624Y-3.8201
X7.6526Y-3.9665
T3
X5.6676Y-2.8296
X5.766Y-2.8296
X5.8644Y-2.8296
X5.9629Y-2.8296
X6.0613Y-2.8296
X6.1597Y-2.8296
X6.2581Y-2.8296
X6.5337Y-2.7903
X6.5337Y-2.8887
X6.5337Y-2.9871
X7.2007Y-3.017
X7.2991Y-3.017
X7.3975Y-3.017
X7.496Y-3.017
T4
X5.7676Y-4.7183
X5.8605Y-3.6678
X5.8743Y-3.5481
X5.9613Y-3.114
X5.9727Y-3.6761
X5.9727Y-3.7647
X5.9822Y-4.1533
X5.9822Y-4.2533
X5.9822Y-4.3533
X5.9822Y-4.4533
X6.0613Y-3.114
X6.1121Y-4.1533
X6.1121Y-4.2533
X6.1121Y-4.3533
X6.1121Y-4.4533
X6.1613Y-3.114
X6.3267Y-4.7183
X6.4195Y-3.6678
T5
X5.6442Y-1.5019
X5.6442Y-1.6019
X5.6442Y-1.7019
X5.6442Y-1.8019
X5.7442Y-1.5019
X5.7442Y-1.6019
X5.7442Y-1.7019
X5.7442Y-1.8019
T6
X7.7823Y-3.8024
X7.7823Y-3.9024
X7.7823Y-4.0024
X7.7823Y-4.1024
X7.8823Y-3.8024
X7.8823Y-3.9024
X7.8823Y-4.0024
X7.8823Y-4.1024
T7
X5.705Y-2.045
X5.905Y-2.045
X6.5928Y-3.2899
X6.5928Y-3.4899
T8
X7.699Y-3.3701
X7.7497Y-3.4951
T9
X5.6875Y-1.267
X6.1914Y-1.8913
X6.4473Y-1.267
X7.174Y-3.5201
X7.714Y-3.0441
X8.0992Y-4.1666
T10
X4.8739Y-3.0462
X4.8739Y-3.7155
X5.6558Y-4.3439
X5.6676Y-3.6958
X6.34Y-4.147
X6.77Y-2.7903
X6.77Y-3.6958
T0
M30
