%TF.GenerationSoftware,KiCad,Pcbnew,(5.1.9)-1*%
%TF.CreationDate,2021-02-18T14:55:37+00:00*%
%TF.ProjectId,toolboards - assembly_final,746f6f6c-626f-4617-9264-73202d206173,rev?*%
%TF.SameCoordinates,Original*%
%TF.FileFunction,Copper,L1,Top*%
%TF.FilePolarity,Positive*%
%FSLAX46Y46*%
G04 Gerber Fmt 4.6, Leading zero omitted, Abs format (unit mm)*
G04 Created by KiCad (PCBNEW (5.1.9)-1) date 2021-02-18 14:55:37*
%MOMM*%
%LPD*%
G01*
G04 APERTURE LIST*
%TA.AperFunction,SMDPad,CuDef*%
%ADD10R,1.200000X0.650000*%
%TD*%
%TA.AperFunction,ComponentPad*%
%ADD11C,3.600000*%
%TD*%
%TA.AperFunction,ConnectorPad*%
%ADD12C,5.600000*%
%TD*%
%TA.AperFunction,SMDPad,CuDef*%
%ADD13R,0.650000X1.200000*%
%TD*%
%TA.AperFunction,SMDPad,CuDef*%
%ADD14R,3.000000X0.700000*%
%TD*%
%TA.AperFunction,SMDPad,CuDef*%
%ADD15R,1.900000X1.100000*%
%TD*%
%TA.AperFunction,ComponentPad*%
%ADD16R,2.200000X2.500000*%
%TD*%
%TA.AperFunction,SMDPad,CuDef*%
%ADD17R,0.600000X1.800000*%
%TD*%
%TA.AperFunction,SMDPad,CuDef*%
%ADD18R,1.560000X0.650000*%
%TD*%
%TA.AperFunction,ComponentPad*%
%ADD19C,2.000000*%
%TD*%
%TA.AperFunction,ComponentPad*%
%ADD20C,1.550000*%
%TD*%
%TA.AperFunction,SMDPad,CuDef*%
%ADD21R,8.000000X1.800000*%
%TD*%
%TA.AperFunction,ComponentPad*%
%ADD22C,2.475000*%
%TD*%
%TA.AperFunction,ComponentPad*%
%ADD23R,2.475000X2.475000*%
%TD*%
%TA.AperFunction,SMDPad,CuDef*%
%ADD24R,1.300000X4.500000*%
%TD*%
%TA.AperFunction,SMDPad,CuDef*%
%ADD25R,1.800000X3.900000*%
%TD*%
%TA.AperFunction,ComponentPad*%
%ADD26C,3.100000*%
%TD*%
%TA.AperFunction,ConnectorPad*%
%ADD27C,4.700000*%
%TD*%
%TA.AperFunction,ComponentPad*%
%ADD28O,1.700000X1.700000*%
%TD*%
%TA.AperFunction,ComponentPad*%
%ADD29R,1.700000X1.700000*%
%TD*%
%TA.AperFunction,ComponentPad*%
%ADD30O,1.950000X1.700000*%
%TD*%
%TA.AperFunction,ComponentPad*%
%ADD31O,1.700000X1.950000*%
%TD*%
%TA.AperFunction,ComponentPad*%
%ADD32C,1.650000*%
%TD*%
%TA.AperFunction,ComponentPad*%
%ADD33R,1.650000X1.650000*%
%TD*%
%TA.AperFunction,ViaPad*%
%ADD34C,1.200000*%
%TD*%
%TA.AperFunction,ViaPad*%
%ADD35C,0.800000*%
%TD*%
%TA.AperFunction,ViaPad*%
%ADD36C,3.000000*%
%TD*%
%TA.AperFunction,ViaPad*%
%ADD37C,2.000000*%
%TD*%
%TA.AperFunction,Conductor*%
%ADD38C,0.700000*%
%TD*%
%TA.AperFunction,Conductor*%
%ADD39C,0.500000*%
%TD*%
%TA.AperFunction,Conductor*%
%ADD40C,0.300000*%
%TD*%
%TA.AperFunction,Conductor*%
%ADD41C,1.500000*%
%TD*%
%TA.AperFunction,Conductor*%
%ADD42C,1.000000*%
%TD*%
%TA.AperFunction,Conductor*%
%ADD43C,2.000000*%
%TD*%
%TA.AperFunction,Conductor*%
%ADD44C,0.254000*%
%TD*%
%TA.AperFunction,Conductor*%
%ADD45C,0.100000*%
%TD*%
G04 APERTURE END LIST*
%TO.P,R0,2*%
%TO.N,Net-(LED0-Pad1)*%
%TA.AperFunction,SMDPad,CuDef*%
G36*
G01*
X125216500Y-88309001D02*
X125216500Y-87408999D01*
G75*
G02*
X125466499Y-87159000I249999J0D01*
G01*
X126166501Y-87159000D01*
G75*
G02*
X126416500Y-87408999I0J-249999D01*
G01*
X126416500Y-88309001D01*
G75*
G02*
X126166501Y-88559000I-249999J0D01*
G01*
X125466499Y-88559000D01*
G75*
G02*
X125216500Y-88309001I0J249999D01*
G01*
G37*
%TD.AperFunction*%
%TO.P,R0,1*%
%TO.N,Net-(Q0-Pad3)*%
%TA.AperFunction,SMDPad,CuDef*%
G36*
G01*
X123216500Y-88309001D02*
X123216500Y-87408999D01*
G75*
G02*
X123466499Y-87159000I249999J0D01*
G01*
X124166501Y-87159000D01*
G75*
G02*
X124416500Y-87408999I0J-249999D01*
G01*
X124416500Y-88309001D01*
G75*
G02*
X124166501Y-88559000I-249999J0D01*
G01*
X123466499Y-88559000D01*
G75*
G02*
X123216500Y-88309001I0J249999D01*
G01*
G37*
%TD.AperFunction*%
%TD*%
%TO.P,R3,2*%
%TO.N,/HEATER_OUT_4*%
%TA.AperFunction,SMDPad,CuDef*%
G36*
G01*
X124441000Y-84668999D02*
X124441000Y-85569001D01*
G75*
G02*
X124191001Y-85819000I-249999J0D01*
G01*
X123490999Y-85819000D01*
G75*
G02*
X123241000Y-85569001I0J249999D01*
G01*
X123241000Y-84668999D01*
G75*
G02*
X123490999Y-84419000I249999J0D01*
G01*
X124191001Y-84419000D01*
G75*
G02*
X124441000Y-84668999I0J-249999D01*
G01*
G37*
%TD.AperFunction*%
%TO.P,R3,1*%
%TO.N,Net-(Q1-Pad1)*%
%TA.AperFunction,SMDPad,CuDef*%
G36*
G01*
X126441000Y-84668999D02*
X126441000Y-85569001D01*
G75*
G02*
X126191001Y-85819000I-249999J0D01*
G01*
X125490999Y-85819000D01*
G75*
G02*
X125241000Y-85569001I0J249999D01*
G01*
X125241000Y-84668999D01*
G75*
G02*
X125490999Y-84419000I249999J0D01*
G01*
X126191001Y-84419000D01*
G75*
G02*
X126441000Y-84668999I0J-249999D01*
G01*
G37*
%TD.AperFunction*%
%TD*%
%TO.P,LED1,2*%
%TO.N,/5V_4*%
%TA.AperFunction,SMDPad,CuDef*%
G36*
G01*
X128346999Y-78823000D02*
X129247001Y-78823000D01*
G75*
G02*
X129497000Y-79072999I0J-249999D01*
G01*
X129497000Y-79723001D01*
G75*
G02*
X129247001Y-79973000I-249999J0D01*
G01*
X128346999Y-79973000D01*
G75*
G02*
X128097000Y-79723001I0J249999D01*
G01*
X128097000Y-79072999D01*
G75*
G02*
X128346999Y-78823000I249999J0D01*
G01*
G37*
%TD.AperFunction*%
%TO.P,LED1,1*%
%TO.N,Net-(LED1-Pad1)*%
%TA.AperFunction,SMDPad,CuDef*%
G36*
G01*
X128346999Y-76773000D02*
X129247001Y-76773000D01*
G75*
G02*
X129497000Y-77022999I0J-249999D01*
G01*
X129497000Y-77673001D01*
G75*
G02*
X129247001Y-77923000I-249999J0D01*
G01*
X128346999Y-77923000D01*
G75*
G02*
X128097000Y-77673001I0J249999D01*
G01*
X128097000Y-77022999D01*
G75*
G02*
X128346999Y-76773000I249999J0D01*
G01*
G37*
%TD.AperFunction*%
%TD*%
%TO.P,R1,2*%
%TO.N,/GND_4*%
%TA.AperFunction,SMDPad,CuDef*%
G36*
G01*
X132811999Y-93393000D02*
X133712001Y-93393000D01*
G75*
G02*
X133962000Y-93642999I0J-249999D01*
G01*
X133962000Y-94343001D01*
G75*
G02*
X133712001Y-94593000I-249999J0D01*
G01*
X132811999Y-94593000D01*
G75*
G02*
X132562000Y-94343001I0J249999D01*
G01*
X132562000Y-93642999D01*
G75*
G02*
X132811999Y-93393000I249999J0D01*
G01*
G37*
%TD.AperFunction*%
%TO.P,R1,1*%
%TO.N,Net-(Q0-Pad1)*%
%TA.AperFunction,SMDPad,CuDef*%
G36*
G01*
X132811999Y-91393000D02*
X133712001Y-91393000D01*
G75*
G02*
X133962000Y-91642999I0J-249999D01*
G01*
X133962000Y-92343001D01*
G75*
G02*
X133712001Y-92593000I-249999J0D01*
G01*
X132811999Y-92593000D01*
G75*
G02*
X132562000Y-92343001I0J249999D01*
G01*
X132562000Y-91642999D01*
G75*
G02*
X132811999Y-91393000I249999J0D01*
G01*
G37*
%TD.AperFunction*%
%TD*%
%TO.P,LED0,2*%
%TO.N,/5V_4*%
%TA.AperFunction,SMDPad,CuDef*%
G36*
G01*
X128172000Y-94148000D02*
X129422000Y-94148000D01*
G75*
G02*
X129672000Y-94398000I0J-250000D01*
G01*
X129672000Y-95323000D01*
G75*
G02*
X129422000Y-95573000I-250000J0D01*
G01*
X128172000Y-95573000D01*
G75*
G02*
X127922000Y-95323000I0J250000D01*
G01*
X127922000Y-94398000D01*
G75*
G02*
X128172000Y-94148000I250000J0D01*
G01*
G37*
%TD.AperFunction*%
%TO.P,LED0,1*%
%TO.N,Net-(LED0-Pad1)*%
%TA.AperFunction,SMDPad,CuDef*%
G36*
G01*
X128172000Y-91173000D02*
X129422000Y-91173000D01*
G75*
G02*
X129672000Y-91423000I0J-250000D01*
G01*
X129672000Y-92348000D01*
G75*
G02*
X129422000Y-92598000I-250000J0D01*
G01*
X128172000Y-92598000D01*
G75*
G02*
X127922000Y-92348000I0J250000D01*
G01*
X127922000Y-91423000D01*
G75*
G02*
X128172000Y-91173000I250000J0D01*
G01*
G37*
%TD.AperFunction*%
%TD*%
D10*
%TO.P,Q0,1*%
%TO.N,Net-(Q0-Pad1)*%
X130847000Y-89009500D03*
%TO.P,Q0,2*%
%TO.N,/GND_4*%
X130847000Y-87089500D03*
%TO.P,Q0,3*%
%TO.N,Net-(Q0-Pad3)*%
X128747000Y-88049500D03*
%TD*%
%TO.P,R5,2*%
%TO.N,Net-(Q2-Pad2)*%
%TA.AperFunction,SMDPad,CuDef*%
G36*
G01*
X124416500Y-82011499D02*
X124416500Y-82911501D01*
G75*
G02*
X124166501Y-83161500I-249999J0D01*
G01*
X123466499Y-83161500D01*
G75*
G02*
X123216500Y-82911501I0J249999D01*
G01*
X123216500Y-82011499D01*
G75*
G02*
X123466499Y-81761500I249999J0D01*
G01*
X124166501Y-81761500D01*
G75*
G02*
X124416500Y-82011499I0J-249999D01*
G01*
G37*
%TD.AperFunction*%
%TO.P,R5,1*%
%TO.N,Net-(LED1-Pad1)*%
%TA.AperFunction,SMDPad,CuDef*%
G36*
G01*
X126416500Y-82011499D02*
X126416500Y-82911501D01*
G75*
G02*
X126166501Y-83161500I-249999J0D01*
G01*
X125466499Y-83161500D01*
G75*
G02*
X125216500Y-82911501I0J249999D01*
G01*
X125216500Y-82011499D01*
G75*
G02*
X125466499Y-81761500I249999J0D01*
G01*
X126166501Y-81761500D01*
G75*
G02*
X126416500Y-82011499I0J-249999D01*
G01*
G37*
%TD.AperFunction*%
%TD*%
%TO.P,R4,2*%
%TO.N,Net-(Q1-Pad1)*%
%TA.AperFunction,SMDPad,CuDef*%
G36*
G01*
X124441000Y-89748999D02*
X124441000Y-90649001D01*
G75*
G02*
X124191001Y-90899000I-249999J0D01*
G01*
X123490999Y-90899000D01*
G75*
G02*
X123241000Y-90649001I0J249999D01*
G01*
X123241000Y-89748999D01*
G75*
G02*
X123490999Y-89499000I249999J0D01*
G01*
X124191001Y-89499000D01*
G75*
G02*
X124441000Y-89748999I0J-249999D01*
G01*
G37*
%TD.AperFunction*%
%TO.P,R4,1*%
%TO.N,/GND_4*%
%TA.AperFunction,SMDPad,CuDef*%
G36*
G01*
X126441000Y-89748999D02*
X126441000Y-90649001D01*
G75*
G02*
X126191001Y-90899000I-249999J0D01*
G01*
X125490999Y-90899000D01*
G75*
G02*
X125241000Y-90649001I0J249999D01*
G01*
X125241000Y-89748999D01*
G75*
G02*
X125490999Y-89499000I249999J0D01*
G01*
X126191001Y-89499000D01*
G75*
G02*
X126441000Y-89748999I0J-249999D01*
G01*
G37*
%TD.AperFunction*%
%TD*%
D11*
%TO.P,H9,1*%
%TO.N,/GND_4*%
X123797000Y-94373000D03*
D12*
X123797000Y-94373000D03*
%TD*%
%TO.P,R2,2*%
%TO.N,Net-(Q0-Pad1)*%
%TA.AperFunction,SMDPad,CuDef*%
G36*
G01*
X132811999Y-88894000D02*
X133712001Y-88894000D01*
G75*
G02*
X133962000Y-89143999I0J-249999D01*
G01*
X133962000Y-89844001D01*
G75*
G02*
X133712001Y-90094000I-249999J0D01*
G01*
X132811999Y-90094000D01*
G75*
G02*
X132562000Y-89844001I0J249999D01*
G01*
X132562000Y-89143999D01*
G75*
G02*
X132811999Y-88894000I249999J0D01*
G01*
G37*
%TD.AperFunction*%
%TO.P,R2,1*%
%TO.N,/TOOL_SEL_4*%
%TA.AperFunction,SMDPad,CuDef*%
G36*
G01*
X132811999Y-86894000D02*
X133712001Y-86894000D01*
G75*
G02*
X133962000Y-87143999I0J-249999D01*
G01*
X133962000Y-87844001D01*
G75*
G02*
X133712001Y-88094000I-249999J0D01*
G01*
X132811999Y-88094000D01*
G75*
G02*
X132562000Y-87844001I0J249999D01*
G01*
X132562000Y-87143999D01*
G75*
G02*
X132811999Y-86894000I249999J0D01*
G01*
G37*
%TD.AperFunction*%
%TD*%
D13*
%TO.P,Q2,1*%
%TO.N,Net-(Q2-Pad1)*%
X132302000Y-80273000D03*
%TO.P,Q2,2*%
%TO.N,Net-(Q2-Pad2)*%
X134222000Y-80273000D03*
%TO.P,Q2,3*%
%TO.N,/GND_4*%
X133262000Y-78173000D03*
%TD*%
%TO.P,R7,2*%
%TO.N,/GND_4*%
%TA.AperFunction,SMDPad,CuDef*%
G36*
G01*
X134170000Y-83991001D02*
X134170000Y-83090999D01*
G75*
G02*
X134419999Y-82841000I249999J0D01*
G01*
X135120001Y-82841000D01*
G75*
G02*
X135370000Y-83090999I0J-249999D01*
G01*
X135370000Y-83991001D01*
G75*
G02*
X135120001Y-84241000I-249999J0D01*
G01*
X134419999Y-84241000D01*
G75*
G02*
X134170000Y-83991001I0J249999D01*
G01*
G37*
%TD.AperFunction*%
%TO.P,R7,1*%
%TO.N,Net-(Q1-Pad3)*%
%TA.AperFunction,SMDPad,CuDef*%
G36*
G01*
X132170000Y-83991001D02*
X132170000Y-83090999D01*
G75*
G02*
X132419999Y-82841000I249999J0D01*
G01*
X133120001Y-82841000D01*
G75*
G02*
X133370000Y-83090999I0J-249999D01*
G01*
X133370000Y-83991001D01*
G75*
G02*
X133120001Y-84241000I-249999J0D01*
G01*
X132419999Y-84241000D01*
G75*
G02*
X132170000Y-83991001I0J249999D01*
G01*
G37*
%TD.AperFunction*%
%TD*%
D10*
%TO.P,Q1,1*%
%TO.N,Net-(Q1-Pad1)*%
X130847000Y-84333000D03*
%TO.P,Q1,2*%
%TO.N,/5V_4*%
X130847000Y-82413000D03*
%TO.P,Q1,3*%
%TO.N,Net-(Q1-Pad3)*%
X128747000Y-83373000D03*
%TD*%
D11*
%TO.P,H8,1*%
%TO.N,/GND_4*%
X123797000Y-77373000D03*
D12*
X123797000Y-77373000D03*
%TD*%
D14*
%TO.P,J16,1*%
%TO.N,/GND_3*%
X146337000Y-84138000D03*
%TO.P,J16,2*%
%TO.N,/5V_3*%
X146337000Y-82638000D03*
%TO.P,J16,3*%
%TO.N,/TOOL_SEL_3*%
X146337000Y-81138000D03*
%TO.P,J16,4*%
%TO.N,/HEATER_OUT_3*%
X146337000Y-79638000D03*
D15*
%TO.P,J16,5*%
%TO.N,N/C*%
X142087000Y-86088000D03*
%TO.P,J16,6*%
X142087000Y-77688000D03*
%TD*%
D16*
%TO.P,J13,12*%
%TO.N,N/C*%
X163056000Y-93163000D03*
%TO.P,J13,11*%
X148856000Y-93163000D03*
D17*
%TO.P,J13,10*%
%TO.N,/HEATER_OUT_3*%
X160456000Y-90623000D03*
%TO.P,J13,9*%
X159456000Y-90623000D03*
%TO.P,J13,8*%
%TO.N,/GND_3*%
X158456000Y-90623000D03*
%TO.P,J13,7*%
%TO.N,/GND1_3*%
X157456000Y-90623000D03*
%TO.P,J13,6*%
%TO.N,/THERM_OUT_3*%
X156456000Y-90623000D03*
%TO.P,J13,5*%
%TO.N,/3V3_3*%
X155456000Y-90623000D03*
%TO.P,J13,4*%
%TO.N,Net-(J13-Pad4)*%
X154456000Y-90623000D03*
%TO.P,J13,3*%
%TO.N,/AUX0_3*%
X153456000Y-90623000D03*
%TO.P,J13,2*%
%TO.N,/24V_3*%
X152456000Y-90623000D03*
%TO.P,J13,1*%
X151456000Y-90623000D03*
%TD*%
%TO.P,J10,1*%
%TO.N,/24V_2*%
X149098000Y-117305000D03*
%TO.P,J10,2*%
X150098000Y-117305000D03*
%TO.P,J10,3*%
%TO.N,/AUX0_2*%
X151098000Y-117305000D03*
%TO.P,J10,4*%
%TO.N,Net-(J10-Pad4)*%
X152098000Y-117305000D03*
%TO.P,J10,5*%
%TO.N,/3V3_2*%
X153098000Y-117305000D03*
%TO.P,J10,6*%
%TO.N,/THERM_OUT_2*%
X154098000Y-117305000D03*
%TO.P,J10,7*%
%TO.N,/GND1_2*%
X155098000Y-117305000D03*
%TO.P,J10,8*%
%TO.N,/GND_2*%
X156098000Y-117305000D03*
%TO.P,J10,9*%
%TO.N,/HEATER_OUT_2*%
X157098000Y-117305000D03*
%TO.P,J10,10*%
X158098000Y-117305000D03*
D16*
%TO.P,J10,11*%
%TO.N,/GND_2*%
X146498000Y-119845000D03*
%TO.P,J10,12*%
X160698000Y-119845000D03*
%TD*%
D18*
%TO.P,U1,1*%
%TO.N,/GND_3*%
X173208000Y-77379000D03*
%TO.P,U1,2*%
%TO.N,Net-(J15-Pad1)*%
X173208000Y-76429000D03*
%TO.P,U1,3*%
%TO.N,/GND_3*%
X173208000Y-75479000D03*
%TO.P,U1,4*%
%TO.N,/TOOL_SEL_3*%
X170508000Y-75479000D03*
%TO.P,U1,5*%
%TO.N,/5V_3*%
X170508000Y-77379000D03*
%TD*%
D19*
%TO.P,J9,1*%
%TO.N,/HEATER_OUT_2*%
X155247000Y-113114000D03*
%TO.P,J9,2*%
%TO.N,/GND1_2*%
X155247000Y-110574000D03*
%TO.P,J9,3*%
%TO.N,/3V3_2*%
X155247000Y-108034000D03*
%TO.P,J9,4*%
%TO.N,/AUX0_2*%
X155247000Y-105494000D03*
%TD*%
%TO.P,J11,1*%
%TO.N,/GND_2*%
X151947000Y-105494000D03*
%TO.P,J11,2*%
%TO.N,/THERM_OUT_2*%
X151947000Y-108034000D03*
%TO.P,J11,3*%
%TO.N,Net-(J11-Pad3)*%
X151947000Y-110574000D03*
%TO.P,J11,4*%
%TO.N,/24V_2*%
X151947000Y-113114000D03*
%TD*%
D20*
%TO.P,J3,8*%
%TO.N,/AUX0_1*%
X145902000Y-38148000D03*
%TO.P,J3,7*%
%TO.N,/V_AUX0_1*%
X143362000Y-38148000D03*
%TO.P,J3,6*%
%TO.N,/3V3_1*%
X145902000Y-40688000D03*
%TO.P,J3,5*%
%TO.N,/GND_1*%
X143362000Y-40688000D03*
%TO.P,J3,4*%
%TO.N,/GND1_1*%
X145902000Y-43228000D03*
%TO.P,J3,3*%
%TO.N,/THERM_OUT_1*%
X143362000Y-43228000D03*
%TO.P,J3,2*%
%TO.N,/24V_1*%
X145902000Y-45768000D03*
%TO.P,J3,1*%
%TO.N,/HEATER_OUT_1*%
X143362000Y-45768000D03*
%TD*%
D21*
%TO.P,J8,4*%
%TO.N,/24V_1*%
X168613000Y-45768000D03*
%TO.P,J8,3*%
%TO.N,Net-(J8-Pad3)*%
X168613000Y-43228000D03*
%TO.P,J8,2*%
%TO.N,/THERM_OUT_1*%
X168613000Y-40688000D03*
%TO.P,J8,1*%
%TO.N,/GND_1*%
X168613000Y-38148000D03*
%TD*%
D22*
%TO.P,J5,2*%
%TO.N,/24V_1*%
X149987000Y-51943000D03*
D23*
%TO.P,J5,1*%
%TO.N,/HEATER_OUT_1*%
X144907000Y-51943000D03*
%TD*%
D24*
%TO.P,J4,1*%
%TO.N,/GND1_1*%
X158409000Y-54356000D03*
%TO.P,J4,2*%
%TO.N,/THERM_OUT_1*%
X160909000Y-54356000D03*
%TO.P,J4,3*%
%TO.N,/3V3_1*%
X163409000Y-54356000D03*
D25*
%TO.P,J4,4*%
%TO.N,/24V_1*%
X155209000Y-61156000D03*
%TO.P,J4,5*%
X166609000Y-61156000D03*
%TD*%
D12*
%TO.P,H6,1*%
%TO.N,/GND_2*%
X161037000Y-105334000D03*
D11*
X161037000Y-105334000D03*
%TD*%
D12*
%TO.P,H7,1*%
%TO.N,/GND_2*%
X143657000Y-110334000D03*
D11*
X143657000Y-110334000D03*
%TD*%
D26*
%TO.P,H3,1*%
%TO.N,Net-(H3-Pad1)*%
X144462000Y-32183000D03*
D27*
X144462000Y-32183000D03*
%TD*%
D26*
%TO.P,H4,1*%
%TO.N,/HEATER_OUT_1*%
X157262000Y-48038000D03*
D27*
X157262000Y-48038000D03*
%TD*%
D26*
%TO.P,H5,1*%
%TO.N,Net-(H5-Pad1)*%
X163761999Y-32183000D03*
D27*
X163761999Y-32183000D03*
%TD*%
D12*
%TO.P,H12,1*%
%TO.N,/GND_3*%
X171957000Y-70873000D03*
D11*
X171957000Y-70873000D03*
%TD*%
D28*
%TO.P,JP1,3*%
%TO.N,/FAN_3*%
X151417000Y-79096000D03*
%TO.P,JP1,2*%
%TO.N,/AUX0_3*%
X153957000Y-79096000D03*
D29*
%TO.P,JP1,1*%
%TO.N,Net-(JP1-Pad1)*%
X156497000Y-79096000D03*
%TD*%
D22*
%TO.P,J14,2*%
%TO.N,/24V_3*%
X167457000Y-83563000D03*
D23*
%TO.P,J14,1*%
%TO.N,/HEATER_OUT_3*%
X167457000Y-88643000D03*
%TD*%
D30*
%TO.P,J15,3*%
%TO.N,/5V_3*%
X165957000Y-75873000D03*
%TO.P,J15,2*%
%TO.N,/GND_3*%
X165957000Y-73373000D03*
%TO.P,J15,1*%
%TO.N,Net-(J15-Pad1)*%
%TA.AperFunction,ComponentPad*%
G36*
G01*
X165232000Y-70023000D02*
X166682000Y-70023000D01*
G75*
G02*
X166932000Y-70273000I0J-250000D01*
G01*
X166932000Y-71473000D01*
G75*
G02*
X166682000Y-71723000I-250000J0D01*
G01*
X165232000Y-71723000D01*
G75*
G02*
X164982000Y-71473000I0J250000D01*
G01*
X164982000Y-70273000D01*
G75*
G02*
X165232000Y-70023000I250000J0D01*
G01*
G37*
%TD.AperFunction*%
%TD*%
D12*
%TO.P,H11,1*%
%TO.N,/GND_3*%
X171957000Y-93873000D03*
D11*
X171957000Y-93873000D03*
%TD*%
D31*
%TO.P,J12,7*%
%TO.N,/FAN_3*%
X143957000Y-71873000D03*
%TO.P,J12,6*%
%TO.N,/3V3_3*%
X146457000Y-71873000D03*
%TO.P,J12,5*%
%TO.N,/THERM_OUT_3*%
X148957000Y-71873000D03*
%TO.P,J12,4*%
%TO.N,/GND1_3*%
X151457000Y-71873000D03*
%TO.P,J12,3*%
%TO.N,/5V_3*%
X153957000Y-71873000D03*
%TO.P,J12,2*%
%TO.N,/GND_3*%
X156457000Y-71873000D03*
%TO.P,J12,1*%
%TO.N,/TOOL_SEL_3*%
%TA.AperFunction,ComponentPad*%
G36*
G01*
X159807000Y-71148000D02*
X159807000Y-72598000D01*
G75*
G02*
X159557000Y-72848000I-250000J0D01*
G01*
X158357000Y-72848000D01*
G75*
G02*
X158107000Y-72598000I0J250000D01*
G01*
X158107000Y-71148000D01*
G75*
G02*
X158357000Y-70898000I250000J0D01*
G01*
X159557000Y-70898000D01*
G75*
G02*
X159807000Y-71148000I0J-250000D01*
G01*
G37*
%TD.AperFunction*%
%TD*%
D12*
%TO.P,H10,1*%
%TO.N,/GND_3*%
X143957000Y-93873000D03*
D11*
X143957000Y-93873000D03*
%TD*%
D27*
%TO.P,H0,1*%
%TO.N,/GND_0*%
X195936462Y-77320774D03*
D26*
X195936462Y-77320774D03*
%TD*%
D31*
%TO.P,J1,4*%
%TO.N,/1B_0*%
X190397401Y-76632383D03*
%TO.P,J1,3*%
%TO.N,/2B_0*%
X187897401Y-76632383D03*
%TO.P,J1,2*%
%TO.N,/2A_0*%
X185397401Y-76632383D03*
%TO.P,J1,1*%
%TO.N,/1A_0*%
%TA.AperFunction,ComponentPad*%
G36*
G01*
X182047401Y-77357383D02*
X182047401Y-75907383D01*
G75*
G02*
X182297401Y-75657383I250000J0D01*
G01*
X183497401Y-75657383D01*
G75*
G02*
X183747401Y-75907383I0J-250000D01*
G01*
X183747401Y-77357383D01*
G75*
G02*
X183497401Y-77607383I-250000J0D01*
G01*
X182297401Y-77607383D01*
G75*
G02*
X182047401Y-77357383I0J250000D01*
G01*
G37*
%TD.AperFunction*%
%TD*%
D32*
%TO.P,J2,8*%
%TO.N,/V_AUX0_0*%
X197671391Y-104200151D03*
%TO.P,J2,7*%
%TO.N,/AUX0_0*%
X200211391Y-104200151D03*
%TO.P,J2,6*%
%TO.N,/GND_0*%
X197671391Y-101660151D03*
%TO.P,J2,5*%
%TO.N,/3V3_0*%
X200211391Y-101660151D03*
%TO.P,J2,4*%
%TO.N,/THERM_OUT_0*%
X197671391Y-99120151D03*
%TO.P,J2,3*%
%TO.N,/GND1_0*%
X200211391Y-99120151D03*
%TO.P,J2,2*%
%TO.N,/24V_0*%
X197671391Y-96580151D03*
D33*
%TO.P,J2,1*%
%TO.N,/HEATER_OUT_0*%
X200211391Y-96580151D03*
%TD*%
%TO.P,J0,1*%
%TO.N,/2B_0*%
%TA.AperFunction,SMDPad,CuDef*%
G36*
G01*
X184913292Y-85547235D02*
X184913292Y-85547235D01*
G75*
G02*
X185279317Y-84181210I866025J500000D01*
G01*
X186145343Y-83681210D01*
G75*
G02*
X187511368Y-84047235I500000J-866025D01*
G01*
X187511368Y-84047235D01*
G75*
G02*
X187145343Y-85413260I-866025J-500000D01*
G01*
X186279317Y-85913260D01*
G75*
G02*
X184913292Y-85547235I-500000J866025D01*
G01*
G37*
%TD.AperFunction*%
%TO.P,J0,2*%
%TO.N,/2A_0*%
%TA.AperFunction,SMDPad,CuDef*%
G36*
G01*
X187985950Y-83773235D02*
X187985950Y-83773235D01*
G75*
G02*
X188351975Y-82407210I866025J500000D01*
G01*
X189218001Y-81907210D01*
G75*
G02*
X190584026Y-82273235I500000J-866025D01*
G01*
X190584026Y-82273235D01*
G75*
G02*
X190218001Y-83639260I-866025J-500000D01*
G01*
X189351975Y-84139260D01*
G75*
G02*
X187985950Y-83773235I-500000J866025D01*
G01*
G37*
%TD.AperFunction*%
%TO.P,J0,3*%
%TO.N,/1B_0*%
%TA.AperFunction,SMDPad,CuDef*%
G36*
G01*
X186176364Y-87750939D02*
X186176364Y-87750939D01*
G75*
G02*
X186542389Y-86384914I866025J500000D01*
G01*
X187408415Y-85884914D01*
G75*
G02*
X188774440Y-86250939I500000J-866025D01*
G01*
X188774440Y-86250939D01*
G75*
G02*
X188408415Y-87616964I-866025J-500000D01*
G01*
X187542389Y-88116964D01*
G75*
G02*
X186176364Y-87750939I-500000J866025D01*
G01*
G37*
%TD.AperFunction*%
%TO.P,J0,5*%
%TO.N,/V_AUX0_0*%
%TA.AperFunction,SMDPad,CuDef*%
G36*
G01*
X187446364Y-89950644D02*
X187446364Y-89950644D01*
G75*
G02*
X187812389Y-88584619I866025J500000D01*
G01*
X188678415Y-88084619D01*
G75*
G02*
X190044440Y-88450644I500000J-866025D01*
G01*
X190044440Y-88450644D01*
G75*
G02*
X189678415Y-89816669I-866025J-500000D01*
G01*
X188812389Y-90316669D01*
G75*
G02*
X187446364Y-89950644I-500000J866025D01*
G01*
G37*
%TD.AperFunction*%
%TO.P,J0,7*%
%TO.N,/AUX0_0*%
%TA.AperFunction,SMDPad,CuDef*%
G36*
G01*
X188716364Y-92150348D02*
X188716364Y-92150348D01*
G75*
G02*
X189082389Y-90784323I866025J500000D01*
G01*
X189948415Y-90284323D01*
G75*
G02*
X191314440Y-90650348I500000J-866025D01*
G01*
X191314440Y-90650348D01*
G75*
G02*
X190948415Y-92016373I-866025J-500000D01*
G01*
X190082389Y-92516373D01*
G75*
G02*
X188716364Y-92150348I-500000J866025D01*
G01*
G37*
%TD.AperFunction*%
%TO.P,J0,9*%
%TO.N,/THERM_OUT_0*%
%TA.AperFunction,SMDPad,CuDef*%
G36*
G01*
X189986364Y-94350053D02*
X189986364Y-94350053D01*
G75*
G02*
X190352389Y-92984028I866025J500000D01*
G01*
X191218415Y-92484028D01*
G75*
G02*
X192584440Y-92850053I500000J-866025D01*
G01*
X192584440Y-92850053D01*
G75*
G02*
X192218415Y-94216078I-866025J-500000D01*
G01*
X191352389Y-94716078D01*
G75*
G02*
X189986364Y-94350053I-500000J866025D01*
G01*
G37*
%TD.AperFunction*%
%TO.P,J0,11*%
%TO.N,/GND1_0*%
%TA.AperFunction,SMDPad,CuDef*%
G36*
G01*
X191256364Y-96549757D02*
X191256364Y-96549757D01*
G75*
G02*
X191622389Y-95183732I866025J500000D01*
G01*
X192488415Y-94683732D01*
G75*
G02*
X193854440Y-95049757I500000J-866025D01*
G01*
X193854440Y-95049757D01*
G75*
G02*
X193488415Y-96415782I-866025J-500000D01*
G01*
X192622389Y-96915782D01*
G75*
G02*
X191256364Y-96549757I-500000J866025D01*
G01*
G37*
%TD.AperFunction*%
%TO.P,J0,12*%
%TO.N,/3V3_0*%
%TA.AperFunction,SMDPad,CuDef*%
G36*
G01*
X194335950Y-94771757D02*
X194335950Y-94771757D01*
G75*
G02*
X194701975Y-93405732I866025J500000D01*
G01*
X195568001Y-92905732D01*
G75*
G02*
X196934026Y-93271757I500000J-866025D01*
G01*
X196934026Y-93271757D01*
G75*
G02*
X196568001Y-94637782I-866025J-500000D01*
G01*
X195701975Y-95137782D01*
G75*
G02*
X194335950Y-94771757I-500000J866025D01*
G01*
G37*
%TD.AperFunction*%
%TO.P,J0,10*%
%TO.N,/GND_0*%
%TA.AperFunction,SMDPad,CuDef*%
G36*
G01*
X193065950Y-92572053D02*
X193065950Y-92572053D01*
G75*
G02*
X193431975Y-91206028I866025J500000D01*
G01*
X194298001Y-90706028D01*
G75*
G02*
X195664026Y-91072053I500000J-866025D01*
G01*
X195664026Y-91072053D01*
G75*
G02*
X195298001Y-92438078I-866025J-500000D01*
G01*
X194431975Y-92938078D01*
G75*
G02*
X193065950Y-92572053I-500000J866025D01*
G01*
G37*
%TD.AperFunction*%
%TO.P,J0,8*%
%TO.N,/HEATER_OUT_0*%
%TA.AperFunction,SMDPad,CuDef*%
G36*
G01*
X191795950Y-90372348D02*
X191795950Y-90372348D01*
G75*
G02*
X192161975Y-89006323I866025J500000D01*
G01*
X193028001Y-88506323D01*
G75*
G02*
X194394026Y-88872348I500000J-866025D01*
G01*
X194394026Y-88872348D01*
G75*
G02*
X194028001Y-90238373I-866025J-500000D01*
G01*
X193161975Y-90738373D01*
G75*
G02*
X191795950Y-90372348I-500000J866025D01*
G01*
G37*
%TD.AperFunction*%
%TO.P,J0,6*%
%TO.N,/24V_0*%
%TA.AperFunction,SMDPad,CuDef*%
G36*
G01*
X190525950Y-88172644D02*
X190525950Y-88172644D01*
G75*
G02*
X190891975Y-86806619I866025J500000D01*
G01*
X191758001Y-86306619D01*
G75*
G02*
X193124026Y-86672644I500000J-866025D01*
G01*
X193124026Y-86672644D01*
G75*
G02*
X192758001Y-88038669I-866025J-500000D01*
G01*
X191891975Y-88538669D01*
G75*
G02*
X190525950Y-88172644I-500000J866025D01*
G01*
G37*
%TD.AperFunction*%
%TO.P,J0,4*%
%TO.N,/1A_0*%
%TA.AperFunction,SMDPad,CuDef*%
G36*
G01*
X189255950Y-85972939D02*
X189255950Y-85972939D01*
G75*
G02*
X189621975Y-84606914I866025J500000D01*
G01*
X190488001Y-84106914D01*
G75*
G02*
X191854026Y-84472939I500000J-866025D01*
G01*
X191854026Y-84472939D01*
G75*
G02*
X191488001Y-85838964I-866025J-500000D01*
G01*
X190621975Y-86338964D01*
G75*
G02*
X189255950Y-85972939I-500000J866025D01*
G01*
G37*
%TD.AperFunction*%
%TD*%
D27*
%TO.P,H2,1*%
%TO.N,/GND_0*%
X182220195Y-89411496D03*
D26*
X182220195Y-89411496D03*
%TD*%
D27*
%TO.P,H1,1*%
%TO.N,/GND_0*%
X205719256Y-105831593D03*
D26*
X205719256Y-105831593D03*
%TD*%
D34*
%TO.N,/AUX0_2*%
X151052000Y-119759000D03*
D35*
%TO.N,/3V3_2*%
X153090000Y-115019000D03*
%TO.N,/GND1_2*%
X155122000Y-115273000D03*
D34*
%TO.N,/THERM_OUT_2*%
X150052000Y-110259000D03*
X153052000Y-119259000D03*
%TO.N,/GND_2*%
X154360000Y-120099000D03*
D35*
%TO.N,/3V3_1*%
X161947000Y-40688000D03*
D34*
%TO.N,/GND_1*%
X138557000Y-42418000D03*
%TO.N,/GND1_0*%
X193650195Y-97031496D03*
%TO.N,/V_AUX0_0*%
X189205195Y-99571496D03*
X194376578Y-100750113D03*
D36*
%TO.N,/HEATER_OUT_0*%
X196841121Y-88776496D03*
%TO.N,/24V_0*%
X195555195Y-85601496D03*
D34*
%TO.N,/1A_0*%
X192380195Y-83061496D03*
%TO.N,/2A_0*%
X187935195Y-80521496D03*
D35*
%TO.N,/GND_3*%
X142902000Y-83033000D03*
%TO.N,/HEATER_OUT_3*%
X146337000Y-78423000D03*
D37*
%TO.N,/24V_3*%
X151707000Y-95623000D03*
X149207000Y-90123000D03*
X151707000Y-93373000D03*
D35*
%TO.N,/5V_4*%
X130297000Y-93373000D03*
X127381000Y-84357000D03*
%TO.N,Net-(Q1-Pad3)*%
X132373000Y-81890000D03*
%TO.N,/TOOL_SEL_3*%
X168175000Y-68809000D03*
X148877000Y-80963000D03*
%TO.N,/HEATER_OUT_4*%
X123797000Y-83873000D03*
%TO.N,/TOOL_SEL_4*%
X133008000Y-86208000D03*
%TO.N,/GND_4*%
X134770000Y-85938000D03*
%TO.N,Net-(J15-Pad1)*%
X168683000Y-74016000D03*
%TO.N,Net-(Q2-Pad1)*%
X130976000Y-80366000D03*
%TD*%
D38*
%TO.N,/AUX0_2*%
X151052000Y-117351000D02*
X151098000Y-117305000D01*
X151052000Y-119759000D02*
X151052000Y-117351000D01*
D39*
%TO.N,/3V3_2*%
X153090000Y-117297000D02*
X153098000Y-117305000D01*
X153090000Y-115019000D02*
X153090000Y-117297000D01*
%TO.N,/GND1_2*%
X155122000Y-117281000D02*
X155098000Y-117305000D01*
X155122000Y-115273000D02*
X155122000Y-117281000D01*
D38*
%TO.N,/24V_2*%
X149098000Y-115963000D02*
X149098000Y-117305000D01*
X151947000Y-113114000D02*
X149098000Y-115963000D01*
%TO.N,/HEATER_OUT_2*%
X158098000Y-115965000D02*
X158098000Y-117305000D01*
X155247000Y-113114000D02*
X158098000Y-115965000D01*
%TO.N,/THERM_OUT_2*%
X150052000Y-109929000D02*
X150052000Y-110259000D01*
X151947000Y-108034000D02*
X150052000Y-109929000D01*
X154098000Y-118675002D02*
X154098000Y-117305000D01*
X153918001Y-118855001D02*
X154098000Y-118675002D01*
X153455999Y-118855001D02*
X153918001Y-118855001D01*
X153052000Y-119259000D02*
X153455999Y-118855001D01*
%TO.N,/GND_2*%
X156098000Y-119775213D02*
X156098000Y-117305000D01*
X155774213Y-120099000D02*
X156098000Y-119775213D01*
X154360000Y-120099000D02*
X155774213Y-120099000D01*
X160628213Y-119775213D02*
X160698000Y-119845000D01*
X156098000Y-119775213D02*
X160628213Y-119775213D01*
X147662001Y-121009001D02*
X146498000Y-119845000D01*
X153449999Y-121009001D02*
X147662001Y-121009001D01*
X154360000Y-120099000D02*
X153449999Y-121009001D01*
%TO.N,/GND1_1*%
X146402572Y-43228000D02*
X145902000Y-43228000D01*
X158409000Y-54356000D02*
X157530572Y-54356000D01*
X157530572Y-54356000D02*
X146402572Y-43228000D01*
%TO.N,/THERM_OUT_1*%
X159061003Y-50938001D02*
X159061003Y-50530999D01*
D40*
X146493002Y-41910000D02*
X146490001Y-41913001D01*
D38*
X160909000Y-52785998D02*
X159061003Y-50938001D01*
D40*
X146490001Y-41913001D02*
X144656001Y-41913001D01*
D38*
X160782000Y-48810002D02*
X160782000Y-43087999D01*
X159061003Y-50530999D02*
X160782000Y-48810002D01*
X155869999Y-50938001D02*
X146939000Y-41910000D01*
X160909000Y-54356000D02*
X160909000Y-52785998D01*
D40*
X146939000Y-41910000D02*
X146493002Y-41910000D01*
D38*
X143362000Y-43207002D02*
X143362000Y-43228000D01*
X144656001Y-41913001D02*
X143362000Y-43207002D01*
D39*
X160782000Y-43053000D02*
X160782000Y-43087999D01*
X168552999Y-40748001D02*
X168613000Y-40688000D01*
D38*
X162862999Y-39637999D02*
X163913000Y-40688000D01*
X161442999Y-39637999D02*
X162862999Y-39637999D01*
X160782000Y-40298998D02*
X161442999Y-39637999D01*
X163913000Y-40688000D02*
X168613000Y-40688000D01*
X160782000Y-43053000D02*
X160782000Y-40298998D01*
X159061003Y-50938001D02*
X158651004Y-51348000D01*
X156279998Y-51348000D02*
X155869999Y-50938001D01*
X158651004Y-51348000D02*
X156279998Y-51348000D01*
%TO.N,/3V3_1*%
X163409000Y-42150000D02*
X161947000Y-40688000D01*
X163409000Y-54356000D02*
X163409000Y-42150000D01*
D41*
%TO.N,/GND_1*%
X141536999Y-37271999D02*
X141536999Y-39959014D01*
D38*
X141536999Y-39959014D02*
X141015986Y-39959014D01*
D41*
X142265985Y-40688000D02*
X143362000Y-40688000D01*
X168613000Y-38148000D02*
X166452002Y-38148000D01*
X141536999Y-39959014D02*
X142265985Y-40688000D01*
D38*
X141015986Y-39959014D02*
X138557000Y-42418000D01*
D41*
X142485999Y-36322999D02*
X149591999Y-36322999D01*
X141536999Y-37271999D02*
X142485999Y-36322999D01*
X151417000Y-38148000D02*
X168613000Y-38148000D01*
X149591999Y-36322999D02*
X151417000Y-38148000D01*
D38*
%TO.N,/GND1_0*%
X192555402Y-95936703D02*
X193650195Y-97031496D01*
X192555402Y-95799757D02*
X192555402Y-95936703D01*
%TO.N,/THERM_OUT_0*%
X190252000Y-96650800D02*
X190252000Y-94633455D01*
X190474895Y-94410560D02*
X191285402Y-93600053D01*
X190252000Y-94633455D02*
X191285402Y-93600053D01*
X192721351Y-99120151D02*
X190252000Y-96650800D01*
X197671391Y-99120151D02*
X192721351Y-99120151D01*
%TO.N,/AUX0_0*%
X194433701Y-103982101D02*
X190455196Y-100003596D01*
X188677200Y-92738550D02*
X190015402Y-91400348D01*
X188677200Y-96818503D02*
X188677200Y-92738550D01*
X197872000Y-106048800D02*
X194433701Y-103982101D01*
X190455196Y-98596499D02*
X188677200Y-96818503D01*
X190455196Y-100003596D02*
X190455196Y-98596499D01*
X189204895Y-92210855D02*
X190015402Y-91400348D01*
D39*
X194433701Y-103982101D02*
X194433701Y-104097570D01*
D38*
X200635195Y-104016496D02*
X197872000Y-106048800D01*
D42*
X190015402Y-91400348D02*
X189404352Y-91400348D01*
D38*
%TO.N,/V_AUX0_0*%
X187254800Y-97621101D02*
X187254800Y-90691246D01*
X189205195Y-99571496D02*
X187254800Y-97621101D01*
X194376578Y-100750113D02*
X194376578Y-100905338D01*
X194376578Y-100905338D02*
X197671391Y-104200151D01*
X187934895Y-90011151D02*
X188745402Y-89200644D01*
X187254800Y-90691246D02*
X188745402Y-89200644D01*
D42*
%TO.N,/1B_0*%
X188622391Y-74857373D02*
X190397401Y-76632383D01*
X184537000Y-86948000D02*
X181247391Y-83057881D01*
X181247391Y-83057881D02*
X181247391Y-75472451D01*
X181862469Y-74857373D02*
X188622391Y-74857373D01*
X187475402Y-87000939D02*
X184537000Y-86948000D01*
X181247391Y-75472451D02*
X181862469Y-74857373D01*
D38*
%TO.N,/3V3_0*%
X202135196Y-99736346D02*
X200211391Y-101660151D01*
X201130458Y-94021757D02*
X202135196Y-95026495D01*
X195634988Y-94021757D02*
X201130458Y-94021757D01*
X202135196Y-95026495D02*
X202135196Y-99736346D01*
D41*
%TO.N,/GND_0*%
X194364988Y-91822053D02*
X194463154Y-91723887D01*
X195102568Y-91393000D02*
X199142000Y-91393000D01*
D43*
%TO.N,/HEATER_OUT_0*%
X193094988Y-89622348D02*
X193940840Y-88776496D01*
X193940840Y-88776496D02*
X196841121Y-88776496D01*
%TO.N,/24V_0*%
X195555195Y-85601496D02*
X193646136Y-85601496D01*
X193646136Y-85601496D02*
X191824988Y-87422644D01*
D42*
%TO.N,/1A_0*%
X190554988Y-85222939D02*
X190554988Y-84886703D01*
X190554988Y-84886703D02*
X192380195Y-83061496D01*
%TO.N,/2A_0*%
X189284988Y-83023235D02*
X189284988Y-81871289D01*
X189284988Y-81871289D02*
X187935195Y-80521496D01*
%TO.N,/2B_0*%
X186212330Y-84797235D02*
X186212330Y-78317454D01*
X186212330Y-78317454D02*
X187897401Y-76632383D01*
D38*
%TO.N,/5V_3*%
X152331990Y-70247990D02*
X143335676Y-70247990D01*
X142456990Y-75387988D02*
X144186999Y-77117997D01*
X143335676Y-70247990D02*
X142456990Y-71126676D01*
X144186999Y-77117997D02*
X144186999Y-82008001D01*
X142456990Y-71126676D02*
X142456990Y-75387988D01*
X144186999Y-82008001D02*
X144816998Y-82638000D01*
X167582010Y-69900200D02*
X167582010Y-74247990D01*
X144816998Y-82638000D02*
X146337000Y-82638000D01*
X167054800Y-69372990D02*
X167582010Y-69900200D01*
X153957000Y-71873000D02*
X152331990Y-70247990D01*
X156457010Y-69372990D02*
X167054800Y-69372990D01*
X153957000Y-71873000D02*
X156457010Y-69372990D01*
X169028000Y-77379000D02*
X170508000Y-77379000D01*
X167582010Y-75933010D02*
X169028000Y-77379000D01*
X167582010Y-74247990D02*
X167582010Y-75933010D01*
X167522000Y-75873000D02*
X167582010Y-75933010D01*
X165957000Y-75873000D02*
X167522000Y-75873000D01*
%TO.N,/GND_3*%
X157984200Y-73498010D02*
X160786990Y-73498010D01*
X156457000Y-71970810D02*
X157984200Y-73498010D01*
X160912000Y-73373000D02*
X160786990Y-73498010D01*
X158457000Y-90623000D02*
X158457000Y-86525681D01*
X160997031Y-73708051D02*
X160786990Y-73498010D01*
X156457000Y-71873000D02*
X156457000Y-71970810D01*
X165957000Y-73373000D02*
X160912000Y-73373000D01*
D39*
X174538001Y-75529001D02*
X174488000Y-75479000D01*
X174538001Y-77328999D02*
X174538001Y-75529001D01*
X174488000Y-77379000D02*
X174538001Y-77328999D01*
X174488000Y-75479000D02*
X173208000Y-75479000D01*
X173208000Y-77379000D02*
X174488000Y-77379000D01*
X173208000Y-72124000D02*
X171957000Y-70873000D01*
X173208000Y-75479000D02*
X173208000Y-72124000D01*
D38*
X160997031Y-83985652D02*
X160997031Y-73708051D01*
X158457000Y-86525681D02*
X160997031Y-83985652D01*
X144007000Y-84138000D02*
X142902000Y-83033000D01*
X146337000Y-84138000D02*
X144007000Y-84138000D01*
%TO.N,/FAN_3*%
X151180000Y-79096000D02*
X151417000Y-79096000D01*
X143957000Y-71873000D02*
X151180000Y-79096000D01*
%TO.N,/3V3_3*%
X157424002Y-77153000D02*
X151737000Y-77153000D01*
X157997001Y-77725999D02*
X157424002Y-77153000D01*
X157997001Y-82743001D02*
X157997001Y-77725999D01*
X155457000Y-85283002D02*
X157997001Y-82743001D01*
X151737000Y-77153000D02*
X146457000Y-71873000D01*
X155457000Y-90623000D02*
X155457000Y-85283002D01*
%TO.N,/THERM_OUT_3*%
X153236990Y-76152990D02*
X148957000Y-71873000D01*
X158997011Y-77311782D02*
X157838219Y-76152990D01*
X158997011Y-83157218D02*
X158997011Y-77311782D01*
X157838219Y-76152990D02*
X153236990Y-76152990D01*
X156457000Y-85697227D02*
X158997011Y-83157218D01*
X156457000Y-90623000D02*
X156457000Y-85697227D01*
%TO.N,/GND1_3*%
X154736980Y-75152980D02*
X151457000Y-71873000D01*
X158252436Y-75152980D02*
X154736980Y-75152980D01*
X159997021Y-76897565D02*
X158252436Y-75152980D01*
X159997021Y-83571435D02*
X159997021Y-76897565D01*
X157457000Y-86111454D02*
X159997021Y-83571435D01*
X157457000Y-90623000D02*
X157457000Y-86111454D01*
%TO.N,/HEATER_OUT_3*%
X146337000Y-79638000D02*
X146337000Y-78423000D01*
%TO.N,/AUX0_3*%
X153457000Y-79596000D02*
X153957000Y-79096000D01*
X153457000Y-90623000D02*
X153457000Y-79596000D01*
D40*
%TO.N,/5V_4*%
X129297000Y-94373000D02*
X128797000Y-94873000D01*
X130297000Y-93373000D02*
X128797000Y-94873000D01*
X130847000Y-82413000D02*
X130847000Y-81448000D01*
X130847000Y-81448000D02*
X128797000Y-79398000D01*
X127971998Y-82413000D02*
X127547000Y-82837998D01*
X130847000Y-82413000D02*
X127971998Y-82413000D01*
X127547000Y-84191000D02*
X127381000Y-84357000D01*
X127547000Y-82837998D02*
X127547000Y-84191000D01*
%TO.N,Net-(Q0-Pad3)*%
X127406490Y-86708990D02*
X128747000Y-88049500D01*
X124026534Y-87859000D02*
X125176544Y-86708990D01*
X125176544Y-86708990D02*
X127406490Y-86708990D01*
X123816500Y-87859000D02*
X124026534Y-87859000D01*
%TO.N,Net-(Q1-Pad3)*%
X132602000Y-83373000D02*
X132770000Y-83541000D01*
X128747000Y-83373000D02*
X132602000Y-83373000D01*
X132373000Y-81890000D02*
X132373000Y-83144000D01*
X132373000Y-83144000D02*
X132770000Y-83541000D01*
%TO.N,Net-(Q1-Pad1)*%
X129734000Y-85446000D02*
X130847000Y-84333000D01*
X125816500Y-85446000D02*
X129734000Y-85446000D01*
X124690990Y-86269010D02*
X125841000Y-85119000D01*
X122766490Y-89124490D02*
X122766490Y-87119044D01*
X123616524Y-86269010D02*
X124690990Y-86269010D01*
X122766490Y-87119044D02*
X123616524Y-86269010D01*
X123841000Y-90199000D02*
X122766490Y-89124490D01*
D39*
%TO.N,/TOOL_SEL_3*%
X168606999Y-69240999D02*
X168175000Y-68809000D01*
X168606999Y-72481001D02*
X168606999Y-69240999D01*
X170508000Y-74382002D02*
X168606999Y-72481001D01*
X170508000Y-75479000D02*
X170508000Y-74382002D01*
D38*
X146337000Y-81138000D02*
X148702000Y-81138000D01*
X148702000Y-81138000D02*
X148877000Y-80963000D01*
D40*
%TO.N,/HEATER_OUT_4*%
X123797000Y-85373000D02*
X123797000Y-83873000D01*
%TO.N,/TOOL_SEL_4*%
X133008000Y-86208000D02*
X133008000Y-87240000D01*
X133008000Y-87240000D02*
X133262000Y-87494000D01*
%TO.N,/GND_4*%
X134770000Y-85081000D02*
X134770000Y-83541000D01*
X132855500Y-85081000D02*
X134770000Y-85081000D01*
X133262000Y-78173000D02*
X133262000Y-82033000D01*
X134770000Y-85938000D02*
X134770000Y-85081000D01*
X130847000Y-87089500D02*
X132855500Y-85081000D01*
X133262000Y-82033000D02*
X134770000Y-83541000D01*
X125841000Y-92329000D02*
X123797000Y-94373000D01*
X125841000Y-90199000D02*
X125841000Y-92329000D01*
X134770000Y-92485000D02*
X133262000Y-93993000D01*
X134770000Y-85938000D02*
X134770000Y-92485000D01*
%TO.N,Net-(LED0-Pad1)*%
X128797000Y-90839500D02*
X128797000Y-91885500D01*
X125816500Y-87859000D02*
X128797000Y-90839500D01*
%TO.N,Net-(LED1-Pad1)*%
X126946990Y-81331010D02*
X125816500Y-82461500D01*
X126946990Y-78634502D02*
X126946990Y-81331010D01*
X128233492Y-77348000D02*
X126946990Y-78634502D01*
X128797000Y-77348000D02*
X128233492Y-77348000D01*
%TO.N,Net-(Q2-Pad2)*%
X128057034Y-78373000D02*
X127547000Y-78883034D01*
X126866510Y-83201456D02*
X126456456Y-83611510D01*
X126866510Y-82669946D02*
X126866510Y-83201456D01*
X127547000Y-78883034D02*
X127547000Y-81989456D01*
X130786967Y-77122999D02*
X129536966Y-78373000D01*
X129536966Y-78373000D02*
X128057034Y-78373000D01*
X133947001Y-77122999D02*
X130786967Y-77122999D01*
X127547000Y-81989456D02*
X126866510Y-82669946D01*
X134222000Y-77397998D02*
X133947001Y-77122999D01*
X134222000Y-80273000D02*
X134222000Y-77397998D01*
X124966510Y-83611510D02*
X123816500Y-82461500D01*
X126456456Y-83611510D02*
X124966510Y-83611510D01*
D39*
%TO.N,Net-(J15-Pad1)*%
X169362998Y-76429000D02*
X173208000Y-76429000D01*
X168683000Y-75749002D02*
X169362998Y-76429000D01*
X168683000Y-74016000D02*
X168683000Y-75749002D01*
D40*
%TO.N,Net-(Q0-Pad1)*%
X133262000Y-91993000D02*
X133262000Y-89494000D01*
X131331500Y-89494000D02*
X130847000Y-89009500D01*
X133262000Y-89494000D02*
X131331500Y-89494000D01*
%TO.N,Net-(Q2-Pad1)*%
X132302000Y-80273000D02*
X131069000Y-80273000D01*
X131069000Y-80273000D02*
X130976000Y-80366000D01*
%TD*%
D44*
%TO.N,/HEATER_OUT_2*%
X160075000Y-114055606D02*
X160075000Y-117956928D01*
X159598000Y-117956928D01*
X159473518Y-117969188D01*
X159353820Y-118005498D01*
X159243506Y-118064463D01*
X159146815Y-118143815D01*
X159067463Y-118240506D01*
X159008498Y-118350820D01*
X158972188Y-118470518D01*
X158959928Y-118595000D01*
X158959928Y-118702000D01*
X157083000Y-118702000D01*
X157083000Y-117256620D01*
X157068747Y-117111906D01*
X157036072Y-117004190D01*
X157036072Y-116405000D01*
X157023812Y-116280518D01*
X156987502Y-116160820D01*
X156928537Y-116050506D01*
X156849185Y-115953815D01*
X156752494Y-115874463D01*
X156642180Y-115815498D01*
X156522482Y-115779188D01*
X156398000Y-115766928D01*
X156036751Y-115766928D01*
X156039205Y-115763256D01*
X156117226Y-115574898D01*
X156157000Y-115374939D01*
X156157000Y-115171061D01*
X156117226Y-114971102D01*
X156039205Y-114782744D01*
X155925937Y-114613226D01*
X155781774Y-114469063D01*
X155612256Y-114355795D01*
X155423898Y-114277774D01*
X155354000Y-114263871D01*
X155354000Y-112209000D01*
X155408033Y-112209000D01*
X155723912Y-112146168D01*
X156021463Y-112022918D01*
X156289233Y-111844000D01*
X157863394Y-111844000D01*
X160075000Y-114055606D01*
%TA.AperFunction,Conductor*%
D45*
G36*
X160075000Y-114055606D02*
G01*
X160075000Y-117956928D01*
X159598000Y-117956928D01*
X159473518Y-117969188D01*
X159353820Y-118005498D01*
X159243506Y-118064463D01*
X159146815Y-118143815D01*
X159067463Y-118240506D01*
X159008498Y-118350820D01*
X158972188Y-118470518D01*
X158959928Y-118595000D01*
X158959928Y-118702000D01*
X157083000Y-118702000D01*
X157083000Y-117256620D01*
X157068747Y-117111906D01*
X157036072Y-117004190D01*
X157036072Y-116405000D01*
X157023812Y-116280518D01*
X156987502Y-116160820D01*
X156928537Y-116050506D01*
X156849185Y-115953815D01*
X156752494Y-115874463D01*
X156642180Y-115815498D01*
X156522482Y-115779188D01*
X156398000Y-115766928D01*
X156036751Y-115766928D01*
X156039205Y-115763256D01*
X156117226Y-115574898D01*
X156157000Y-115374939D01*
X156157000Y-115171061D01*
X156117226Y-114971102D01*
X156039205Y-114782744D01*
X155925937Y-114613226D01*
X155781774Y-114469063D01*
X155612256Y-114355795D01*
X155423898Y-114277774D01*
X155354000Y-114263871D01*
X155354000Y-112209000D01*
X155408033Y-112209000D01*
X155723912Y-112146168D01*
X156021463Y-112022918D01*
X156289233Y-111844000D01*
X157863394Y-111844000D01*
X160075000Y-114055606D01*
G37*
%TD.AperFunction*%
%TD*%
D44*
%TO.N,/24V_1*%
X142112475Y-45100115D02*
X142006186Y-45356718D01*
X141952000Y-45629127D01*
X141952000Y-45906873D01*
X142006186Y-46179282D01*
X142112475Y-46435885D01*
X142266782Y-46666822D01*
X142463178Y-46863218D01*
X142694115Y-47017525D01*
X142950718Y-47123814D01*
X143223127Y-47178000D01*
X143500873Y-47178000D01*
X143773282Y-47123814D01*
X144029885Y-47017525D01*
X144260822Y-46863218D01*
X144457218Y-46666822D01*
X144611525Y-46435885D01*
X144717814Y-46179282D01*
X144772000Y-45906873D01*
X144772000Y-45629127D01*
X144717814Y-45356718D01*
X144611525Y-45100115D01*
X144601425Y-45085000D01*
X146866572Y-45085000D01*
X156799861Y-55018290D01*
X156830702Y-55055870D01*
X156868281Y-55086710D01*
X156980688Y-55178960D01*
X157120928Y-55253920D01*
X157120928Y-56606000D01*
X157133188Y-56730482D01*
X157169498Y-56850180D01*
X157228463Y-56960494D01*
X157307815Y-57057185D01*
X157404506Y-57136537D01*
X157514820Y-57195502D01*
X157634518Y-57231812D01*
X157759000Y-57244072D01*
X159059000Y-57244072D01*
X159183482Y-57231812D01*
X159303180Y-57195502D01*
X159413494Y-57136537D01*
X159510185Y-57057185D01*
X159589537Y-56960494D01*
X159648502Y-56850180D01*
X159659000Y-56815573D01*
X159669498Y-56850180D01*
X159728463Y-56960494D01*
X159807815Y-57057185D01*
X159904506Y-57136537D01*
X160014820Y-57195502D01*
X160134518Y-57231812D01*
X160259000Y-57244072D01*
X161559000Y-57244072D01*
X161683482Y-57231812D01*
X161803180Y-57195502D01*
X161913494Y-57136537D01*
X162010185Y-57057185D01*
X162089537Y-56960494D01*
X162148502Y-56850180D01*
X162159000Y-56815573D01*
X162169498Y-56850180D01*
X162228463Y-56960494D01*
X162307815Y-57057185D01*
X162404506Y-57136537D01*
X162514820Y-57195502D01*
X162634518Y-57231812D01*
X162759000Y-57244072D01*
X164059000Y-57244072D01*
X164183482Y-57231812D01*
X164303180Y-57195502D01*
X164413494Y-57136537D01*
X164510185Y-57057185D01*
X164589537Y-56960494D01*
X164648502Y-56850180D01*
X164684812Y-56730482D01*
X164697072Y-56606000D01*
X164697072Y-52106000D01*
X164684812Y-51981518D01*
X164648502Y-51861820D01*
X164589537Y-51751506D01*
X164510185Y-51654815D01*
X164413494Y-51575463D01*
X164394000Y-51565043D01*
X164394000Y-45085000D01*
X172102000Y-45085000D01*
X172102000Y-46378000D01*
X170794412Y-46378000D01*
X170762000Y-46374808D01*
X170729588Y-46378000D01*
X170729581Y-46378000D01*
X170632617Y-46387550D01*
X170508207Y-46425290D01*
X170393550Y-46486575D01*
X170293052Y-46569052D01*
X170272388Y-46594231D01*
X167318232Y-49548388D01*
X167293053Y-49569052D01*
X167272389Y-49594231D01*
X167272386Y-49594234D01*
X167210575Y-49669550D01*
X167149290Y-49784208D01*
X167111551Y-49908618D01*
X167098808Y-50038000D01*
X167102001Y-50070419D01*
X167102000Y-62078000D01*
X141859000Y-62078000D01*
X141859000Y-50705500D01*
X143031428Y-50705500D01*
X143031428Y-53180500D01*
X143043688Y-53304982D01*
X143079998Y-53424680D01*
X143138963Y-53534994D01*
X143218315Y-53631685D01*
X143315006Y-53711037D01*
X143425320Y-53770002D01*
X143545018Y-53806312D01*
X143669500Y-53818572D01*
X146144500Y-53818572D01*
X146268982Y-53806312D01*
X146388680Y-53770002D01*
X146498994Y-53711037D01*
X146595685Y-53631685D01*
X146675037Y-53534994D01*
X146734002Y-53424680D01*
X146770312Y-53304982D01*
X146782572Y-53180500D01*
X146782572Y-50705500D01*
X146770312Y-50581018D01*
X146734002Y-50461320D01*
X146675037Y-50351006D01*
X146595685Y-50254315D01*
X146498994Y-50174963D01*
X146388680Y-50115998D01*
X146268982Y-50079688D01*
X146144500Y-50067428D01*
X143669500Y-50067428D01*
X143545018Y-50079688D01*
X143425320Y-50115998D01*
X143315006Y-50174963D01*
X143218315Y-50254315D01*
X143138963Y-50351006D01*
X143079998Y-50461320D01*
X143043688Y-50581018D01*
X143031428Y-50705500D01*
X141859000Y-50705500D01*
X141859000Y-45085000D01*
X142122575Y-45085000D01*
X142112475Y-45100115D01*
%TA.AperFunction,Conductor*%
D45*
G36*
X142112475Y-45100115D02*
G01*
X142006186Y-45356718D01*
X141952000Y-45629127D01*
X141952000Y-45906873D01*
X142006186Y-46179282D01*
X142112475Y-46435885D01*
X142266782Y-46666822D01*
X142463178Y-46863218D01*
X142694115Y-47017525D01*
X142950718Y-47123814D01*
X143223127Y-47178000D01*
X143500873Y-47178000D01*
X143773282Y-47123814D01*
X144029885Y-47017525D01*
X144260822Y-46863218D01*
X144457218Y-46666822D01*
X144611525Y-46435885D01*
X144717814Y-46179282D01*
X144772000Y-45906873D01*
X144772000Y-45629127D01*
X144717814Y-45356718D01*
X144611525Y-45100115D01*
X144601425Y-45085000D01*
X146866572Y-45085000D01*
X156799861Y-55018290D01*
X156830702Y-55055870D01*
X156868281Y-55086710D01*
X156980688Y-55178960D01*
X157120928Y-55253920D01*
X157120928Y-56606000D01*
X157133188Y-56730482D01*
X157169498Y-56850180D01*
X157228463Y-56960494D01*
X157307815Y-57057185D01*
X157404506Y-57136537D01*
X157514820Y-57195502D01*
X157634518Y-57231812D01*
X157759000Y-57244072D01*
X159059000Y-57244072D01*
X159183482Y-57231812D01*
X159303180Y-57195502D01*
X159413494Y-57136537D01*
X159510185Y-57057185D01*
X159589537Y-56960494D01*
X159648502Y-56850180D01*
X159659000Y-56815573D01*
X159669498Y-56850180D01*
X159728463Y-56960494D01*
X159807815Y-57057185D01*
X159904506Y-57136537D01*
X160014820Y-57195502D01*
X160134518Y-57231812D01*
X160259000Y-57244072D01*
X161559000Y-57244072D01*
X161683482Y-57231812D01*
X161803180Y-57195502D01*
X161913494Y-57136537D01*
X162010185Y-57057185D01*
X162089537Y-56960494D01*
X162148502Y-56850180D01*
X162159000Y-56815573D01*
X162169498Y-56850180D01*
X162228463Y-56960494D01*
X162307815Y-57057185D01*
X162404506Y-57136537D01*
X162514820Y-57195502D01*
X162634518Y-57231812D01*
X162759000Y-57244072D01*
X164059000Y-57244072D01*
X164183482Y-57231812D01*
X164303180Y-57195502D01*
X164413494Y-57136537D01*
X164510185Y-57057185D01*
X164589537Y-56960494D01*
X164648502Y-56850180D01*
X164684812Y-56730482D01*
X164697072Y-56606000D01*
X164697072Y-52106000D01*
X164684812Y-51981518D01*
X164648502Y-51861820D01*
X164589537Y-51751506D01*
X164510185Y-51654815D01*
X164413494Y-51575463D01*
X164394000Y-51565043D01*
X164394000Y-45085000D01*
X172102000Y-45085000D01*
X172102000Y-46378000D01*
X170794412Y-46378000D01*
X170762000Y-46374808D01*
X170729588Y-46378000D01*
X170729581Y-46378000D01*
X170632617Y-46387550D01*
X170508207Y-46425290D01*
X170393550Y-46486575D01*
X170293052Y-46569052D01*
X170272388Y-46594231D01*
X167318232Y-49548388D01*
X167293053Y-49569052D01*
X167272389Y-49594231D01*
X167272386Y-49594234D01*
X167210575Y-49669550D01*
X167149290Y-49784208D01*
X167111551Y-49908618D01*
X167098808Y-50038000D01*
X167102001Y-50070419D01*
X167102000Y-62078000D01*
X141859000Y-62078000D01*
X141859000Y-50705500D01*
X143031428Y-50705500D01*
X143031428Y-53180500D01*
X143043688Y-53304982D01*
X143079998Y-53424680D01*
X143138963Y-53534994D01*
X143218315Y-53631685D01*
X143315006Y-53711037D01*
X143425320Y-53770002D01*
X143545018Y-53806312D01*
X143669500Y-53818572D01*
X146144500Y-53818572D01*
X146268982Y-53806312D01*
X146388680Y-53770002D01*
X146498994Y-53711037D01*
X146595685Y-53631685D01*
X146675037Y-53534994D01*
X146734002Y-53424680D01*
X146770312Y-53304982D01*
X146782572Y-53180500D01*
X146782572Y-50705500D01*
X146770312Y-50581018D01*
X146734002Y-50461320D01*
X146675037Y-50351006D01*
X146595685Y-50254315D01*
X146498994Y-50174963D01*
X146388680Y-50115998D01*
X146268982Y-50079688D01*
X146144500Y-50067428D01*
X143669500Y-50067428D01*
X143545018Y-50079688D01*
X143425320Y-50115998D01*
X143315006Y-50174963D01*
X143218315Y-50254315D01*
X143138963Y-50351006D01*
X143079998Y-50461320D01*
X143043688Y-50581018D01*
X143031428Y-50705500D01*
X141859000Y-50705500D01*
X141859000Y-45085000D01*
X142122575Y-45085000D01*
X142112475Y-45100115D01*
G37*
%TD.AperFunction*%
%TD*%
D44*
%TO.N,/24V_2*%
X150904748Y-111843987D02*
X151172537Y-112022918D01*
X151470088Y-112146168D01*
X151785967Y-112209000D01*
X151798000Y-112209000D01*
X151798000Y-115766928D01*
X151673518Y-115779188D01*
X151598000Y-115802096D01*
X151522482Y-115779188D01*
X151398000Y-115766928D01*
X150798000Y-115766928D01*
X150673518Y-115779188D01*
X150553820Y-115815498D01*
X150443506Y-115874463D01*
X150346815Y-115953815D01*
X150267463Y-116050506D01*
X150208498Y-116160820D01*
X150172188Y-116280518D01*
X150159928Y-116405000D01*
X150159928Y-116930417D01*
X150137576Y-116972234D01*
X150081253Y-117157907D01*
X150062235Y-117351000D01*
X150067001Y-117399390D01*
X150067000Y-118691218D01*
X148236072Y-118697346D01*
X148236072Y-118595000D01*
X148223812Y-118470518D01*
X148187502Y-118350820D01*
X148128537Y-118240506D01*
X148049185Y-118143815D01*
X147952494Y-118064463D01*
X147842180Y-118005498D01*
X147722482Y-117969188D01*
X147598000Y-117956928D01*
X146972386Y-117956928D01*
X146972386Y-114055606D01*
X149184311Y-111843681D01*
X150894038Y-111833277D01*
X150904748Y-111843987D01*
%TA.AperFunction,Conductor*%
D45*
G36*
X150904748Y-111843987D02*
G01*
X151172537Y-112022918D01*
X151470088Y-112146168D01*
X151785967Y-112209000D01*
X151798000Y-112209000D01*
X151798000Y-115766928D01*
X151673518Y-115779188D01*
X151598000Y-115802096D01*
X151522482Y-115779188D01*
X151398000Y-115766928D01*
X150798000Y-115766928D01*
X150673518Y-115779188D01*
X150553820Y-115815498D01*
X150443506Y-115874463D01*
X150346815Y-115953815D01*
X150267463Y-116050506D01*
X150208498Y-116160820D01*
X150172188Y-116280518D01*
X150159928Y-116405000D01*
X150159928Y-116930417D01*
X150137576Y-116972234D01*
X150081253Y-117157907D01*
X150062235Y-117351000D01*
X150067001Y-117399390D01*
X150067000Y-118691218D01*
X148236072Y-118697346D01*
X148236072Y-118595000D01*
X148223812Y-118470518D01*
X148187502Y-118350820D01*
X148128537Y-118240506D01*
X148049185Y-118143815D01*
X147952494Y-118064463D01*
X147842180Y-118005498D01*
X147722482Y-117969188D01*
X147598000Y-117956928D01*
X146972386Y-117956928D01*
X146972386Y-114055606D01*
X149184311Y-111843681D01*
X150894038Y-111833277D01*
X150904748Y-111843987D01*
G37*
%TD.AperFunction*%
%TD*%
D44*
%TO.N,/24V_3*%
X152472000Y-90671379D02*
X152486253Y-90816093D01*
X152517928Y-90920512D01*
X152517928Y-91523000D01*
X152530188Y-91647482D01*
X152566498Y-91767180D01*
X152625463Y-91877494D01*
X152704815Y-91974185D01*
X152801506Y-92053537D01*
X152830000Y-92068768D01*
X152830000Y-96713000D01*
X148476606Y-96713000D01*
X147584000Y-95820394D01*
X147584000Y-95024398D01*
X147631518Y-95038812D01*
X147756000Y-95051072D01*
X149956000Y-95051072D01*
X150080482Y-95038812D01*
X150200180Y-95002502D01*
X150310494Y-94943537D01*
X150407185Y-94864185D01*
X150486537Y-94767494D01*
X150545502Y-94657180D01*
X150581812Y-94537482D01*
X150594072Y-94413000D01*
X150594072Y-91913000D01*
X150581812Y-91788518D01*
X150545502Y-91668820D01*
X150486537Y-91558506D01*
X150407185Y-91461815D01*
X150310494Y-91382463D01*
X150200180Y-91323498D01*
X150080482Y-91287188D01*
X149956000Y-91274928D01*
X147756000Y-91274928D01*
X147631518Y-91287188D01*
X147584000Y-91301602D01*
X147584000Y-90168980D01*
X148766483Y-88750000D01*
X152472000Y-88750000D01*
X152472000Y-90671379D01*
%TA.AperFunction,Conductor*%
D45*
G36*
X152472000Y-90671379D02*
G01*
X152486253Y-90816093D01*
X152517928Y-90920512D01*
X152517928Y-91523000D01*
X152530188Y-91647482D01*
X152566498Y-91767180D01*
X152625463Y-91877494D01*
X152704815Y-91974185D01*
X152801506Y-92053537D01*
X152830000Y-92068768D01*
X152830000Y-96713000D01*
X148476606Y-96713000D01*
X147584000Y-95820394D01*
X147584000Y-95024398D01*
X147631518Y-95038812D01*
X147756000Y-95051072D01*
X149956000Y-95051072D01*
X150080482Y-95038812D01*
X150200180Y-95002502D01*
X150310494Y-94943537D01*
X150407185Y-94864185D01*
X150486537Y-94767494D01*
X150545502Y-94657180D01*
X150581812Y-94537482D01*
X150594072Y-94413000D01*
X150594072Y-91913000D01*
X150581812Y-91788518D01*
X150545502Y-91668820D01*
X150486537Y-91558506D01*
X150407185Y-91461815D01*
X150310494Y-91382463D01*
X150200180Y-91323498D01*
X150080482Y-91287188D01*
X149956000Y-91274928D01*
X147756000Y-91274928D01*
X147631518Y-91287188D01*
X147584000Y-91301602D01*
X147584000Y-90168980D01*
X148766483Y-88750000D01*
X152472000Y-88750000D01*
X152472000Y-90671379D01*
G37*
%TD.AperFunction*%
%TD*%
D44*
%TO.N,/HEATER_OUT_3*%
X166002534Y-84756649D02*
X166263351Y-85017466D01*
X166570039Y-85222388D01*
X166910812Y-85363541D01*
X167272575Y-85435500D01*
X167641425Y-85435500D01*
X168003188Y-85363541D01*
X168343961Y-85222388D01*
X168650649Y-85017466D01*
X168786255Y-84881861D01*
X169830000Y-85925606D01*
X169830000Y-90070394D01*
X168404394Y-91496000D01*
X164635240Y-91496000D01*
X164607185Y-91461815D01*
X164510494Y-91382463D01*
X164400180Y-91323498D01*
X164280482Y-91287188D01*
X164156000Y-91274928D01*
X161956000Y-91274928D01*
X161831518Y-91287188D01*
X161711820Y-91323498D01*
X161601506Y-91382463D01*
X161504815Y-91461815D01*
X161476760Y-91496000D01*
X159394072Y-91496000D01*
X159394072Y-90927106D01*
X159427747Y-90816094D01*
X159442000Y-90671380D01*
X159442000Y-86933681D01*
X161659315Y-84716368D01*
X161696901Y-84685522D01*
X161819991Y-84535536D01*
X161838985Y-84500000D01*
X165831047Y-84500000D01*
X166002534Y-84756649D01*
%TA.AperFunction,Conductor*%
D45*
G36*
X166002534Y-84756649D02*
G01*
X166263351Y-85017466D01*
X166570039Y-85222388D01*
X166910812Y-85363541D01*
X167272575Y-85435500D01*
X167641425Y-85435500D01*
X168003188Y-85363541D01*
X168343961Y-85222388D01*
X168650649Y-85017466D01*
X168786255Y-84881861D01*
X169830000Y-85925606D01*
X169830000Y-90070394D01*
X168404394Y-91496000D01*
X164635240Y-91496000D01*
X164607185Y-91461815D01*
X164510494Y-91382463D01*
X164400180Y-91323498D01*
X164280482Y-91287188D01*
X164156000Y-91274928D01*
X161956000Y-91274928D01*
X161831518Y-91287188D01*
X161711820Y-91323498D01*
X161601506Y-91382463D01*
X161504815Y-91461815D01*
X161476760Y-91496000D01*
X159394072Y-91496000D01*
X159394072Y-90927106D01*
X159427747Y-90816094D01*
X159442000Y-90671380D01*
X159442000Y-86933681D01*
X161659315Y-84716368D01*
X161696901Y-84685522D01*
X161819991Y-84535536D01*
X161838985Y-84500000D01*
X165831047Y-84500000D01*
X166002534Y-84756649D01*
G37*
%TD.AperFunction*%
%TD*%
D44*
%TO.N,/GND_0*%
X185240205Y-68037771D02*
X185243294Y-68038702D01*
X185246150Y-68040218D01*
X185248650Y-68042255D01*
X185250706Y-68044738D01*
X185252246Y-68047583D01*
X185255081Y-68056721D01*
X185258080Y-68080725D01*
X185258845Y-68095804D01*
X185263211Y-68125005D01*
X185264462Y-68154520D01*
X185265813Y-68163636D01*
X185370824Y-68839892D01*
X185385726Y-68897818D01*
X185399820Y-68955960D01*
X185402916Y-68964640D01*
X185637279Y-69607620D01*
X185663128Y-69661507D01*
X185688266Y-69715845D01*
X185692989Y-69723758D01*
X186047777Y-70308972D01*
X186083603Y-70356815D01*
X186118815Y-70405234D01*
X186124985Y-70412079D01*
X186586686Y-70917235D01*
X186631156Y-70957239D01*
X186675067Y-70997863D01*
X186682449Y-71003380D01*
X187233474Y-71409237D01*
X187284841Y-71439826D01*
X187335835Y-71471165D01*
X187344147Y-71475143D01*
X187963510Y-71766243D01*
X188019859Y-71786278D01*
X188075950Y-71807109D01*
X188084876Y-71809396D01*
X188748986Y-71974650D01*
X188808168Y-71983361D01*
X188867221Y-71992898D01*
X188876422Y-71993408D01*
X189559982Y-72026522D01*
X189619750Y-72023571D01*
X189679509Y-72021457D01*
X189688633Y-72020170D01*
X189688636Y-72020170D01*
X190365607Y-71919883D01*
X190423651Y-71905382D01*
X190481875Y-71891698D01*
X190490576Y-71888663D01*
X191135176Y-71658795D01*
X191189282Y-71633304D01*
X191243755Y-71608564D01*
X191251701Y-71603897D01*
X191839378Y-71253202D01*
X191887497Y-71217691D01*
X191936132Y-71182838D01*
X191943020Y-71176716D01*
X192451388Y-70718554D01*
X192491718Y-70674345D01*
X192532632Y-70630736D01*
X192538200Y-70623393D01*
X192947894Y-70075214D01*
X192978846Y-70024053D01*
X193010534Y-69973290D01*
X193014569Y-69965005D01*
X193014570Y-69965004D01*
X193014572Y-69964999D01*
X193309986Y-69347689D01*
X193330415Y-69291478D01*
X193351636Y-69235537D01*
X193353986Y-69226627D01*
X193523872Y-68563687D01*
X193532996Y-68504569D01*
X193542945Y-68445584D01*
X193543519Y-68436386D01*
X193564913Y-68050530D01*
X193890191Y-68082459D01*
X194326831Y-68214340D01*
X194729539Y-68428519D01*
X195082979Y-68716840D01*
X195373682Y-69068317D01*
X195601887Y-69490482D01*
X195640930Y-69590655D01*
X206998054Y-101142662D01*
X207332791Y-102294832D01*
X207517064Y-103458289D01*
X207559001Y-104347567D01*
X207559001Y-104619411D01*
X207274191Y-104478891D01*
X205921489Y-105831593D01*
X205935631Y-105845735D01*
X205733398Y-106047968D01*
X205719256Y-106033826D01*
X204366554Y-107386528D01*
X204507401Y-107672000D01*
X200643863Y-107672000D01*
X198786028Y-106599269D01*
X199754179Y-105887203D01*
X203492223Y-105887203D01*
X203545864Y-106320607D01*
X203683027Y-106735218D01*
X203836651Y-107022628D01*
X204164321Y-107184295D01*
X205517023Y-105831593D01*
X204164321Y-104478891D01*
X203836651Y-104640558D01*
X203640465Y-105030721D01*
X203524166Y-105451662D01*
X203492223Y-105887203D01*
X199754179Y-105887203D01*
X200063890Y-105659414D01*
X200067594Y-105660151D01*
X200355188Y-105660151D01*
X200637257Y-105604044D01*
X200902960Y-105493986D01*
X201142087Y-105334207D01*
X201345447Y-105130847D01*
X201505226Y-104891720D01*
X201615284Y-104626017D01*
X201671391Y-104343948D01*
X201671391Y-104276658D01*
X204366554Y-104276658D01*
X205719256Y-105629360D01*
X207071958Y-104276658D01*
X206910291Y-103948988D01*
X206520128Y-103752802D01*
X206099187Y-103636503D01*
X205663646Y-103604560D01*
X205230242Y-103658201D01*
X204815631Y-103795364D01*
X204528221Y-103948988D01*
X204366554Y-104276658D01*
X201671391Y-104276658D01*
X201671391Y-104056354D01*
X201615284Y-103774285D01*
X201505226Y-103508582D01*
X201345447Y-103269455D01*
X201142087Y-103066095D01*
X200938632Y-102930151D01*
X201142087Y-102794207D01*
X201345447Y-102590847D01*
X201505226Y-102351720D01*
X201615284Y-102086017D01*
X201671391Y-101803948D01*
X201671391Y-101593151D01*
X202797480Y-100467062D01*
X202835066Y-100436216D01*
X202958156Y-100286230D01*
X203049620Y-100115113D01*
X203105943Y-99929440D01*
X203120196Y-99784726D01*
X203124961Y-99736347D01*
X203120196Y-99687967D01*
X203120196Y-95074874D01*
X203124961Y-95026494D01*
X203105943Y-94833401D01*
X203049620Y-94647728D01*
X203026061Y-94603653D01*
X202958156Y-94476611D01*
X202835066Y-94326625D01*
X202797480Y-94295779D01*
X201861174Y-93359473D01*
X201830328Y-93321887D01*
X201680342Y-93198797D01*
X201509225Y-93107333D01*
X201323552Y-93051010D01*
X201178838Y-93036757D01*
X201130458Y-93031992D01*
X201082078Y-93036757D01*
X197531502Y-93036757D01*
X197299568Y-92691700D01*
X197065195Y-92472186D01*
X196792500Y-92302614D01*
X196491964Y-92189500D01*
X196175135Y-92137191D01*
X195854188Y-92147698D01*
X195541459Y-92220616D01*
X195248964Y-92353144D01*
X194382939Y-92853144D01*
X194197649Y-92977689D01*
X193964487Y-93198488D01*
X193778881Y-93460533D01*
X193647963Y-93753752D01*
X193584622Y-94032328D01*
X193412378Y-93967500D01*
X193240684Y-93939153D01*
X193272427Y-93868058D01*
X193343624Y-93554932D01*
X193352366Y-93233933D01*
X193298316Y-92917396D01*
X193183551Y-92617486D01*
X193183550Y-92617484D01*
X192949982Y-92269996D01*
X192715609Y-92050482D01*
X192442914Y-91880910D01*
X192142378Y-91767796D01*
X191970684Y-91739449D01*
X192002427Y-91668353D01*
X192065768Y-91389777D01*
X192238012Y-91454605D01*
X192554841Y-91506914D01*
X192875788Y-91496407D01*
X193188517Y-91423489D01*
X193481012Y-91290961D01*
X193972171Y-91007390D01*
X194007740Y-90988378D01*
X194014002Y-90983239D01*
X194347037Y-90790961D01*
X194532327Y-90666416D01*
X194765489Y-90445617D01*
X194789657Y-90411496D01*
X195456775Y-90411496D01*
X195480138Y-90434859D01*
X195829819Y-90668508D01*
X196218365Y-90829449D01*
X196630842Y-90911496D01*
X197051400Y-90911496D01*
X197463877Y-90829449D01*
X197852423Y-90668508D01*
X198202104Y-90434859D01*
X198499484Y-90137479D01*
X198733133Y-89787798D01*
X198894074Y-89399252D01*
X198976121Y-88986775D01*
X198976121Y-88566217D01*
X198894074Y-88153740D01*
X198733133Y-87765194D01*
X198499484Y-87415513D01*
X198202104Y-87118133D01*
X197852423Y-86884484D01*
X197463877Y-86723543D01*
X197383846Y-86707624D01*
X197447207Y-86612798D01*
X197608148Y-86224252D01*
X197690195Y-85811775D01*
X197690195Y-85391217D01*
X197608148Y-84978740D01*
X197447207Y-84590194D01*
X197213558Y-84240513D01*
X196916178Y-83943133D01*
X196566497Y-83709484D01*
X196177951Y-83548543D01*
X195765474Y-83466496D01*
X195344916Y-83466496D01*
X194932439Y-83548543D01*
X194543893Y-83709484D01*
X194194212Y-83943133D01*
X194170849Y-83966496D01*
X193726455Y-83966496D01*
X193646135Y-83958585D01*
X193565816Y-83966496D01*
X193565814Y-83966496D01*
X193325620Y-83990153D01*
X193119915Y-84052553D01*
X193167462Y-84020783D01*
X193339482Y-83848763D01*
X193474638Y-83646488D01*
X193567735Y-83421732D01*
X193615195Y-83183133D01*
X193615195Y-82939859D01*
X193567735Y-82701260D01*
X193474638Y-82476504D01*
X193339482Y-82274229D01*
X193167462Y-82102209D01*
X192965187Y-81967053D01*
X192740431Y-81873956D01*
X192501832Y-81826496D01*
X192258558Y-81826496D01*
X192019959Y-81873956D01*
X191795203Y-81967053D01*
X191592928Y-82102209D01*
X191420908Y-82274229D01*
X191313915Y-82434355D01*
X191297902Y-82340578D01*
X191183137Y-82040668D01*
X191183136Y-82040666D01*
X190949568Y-81693178D01*
X190715195Y-81473664D01*
X190442500Y-81304092D01*
X190218640Y-81219837D01*
X190126977Y-81108145D01*
X190126975Y-81108143D01*
X190091437Y-81064840D01*
X190048134Y-81029302D01*
X189082178Y-80063348D01*
X189029638Y-79936504D01*
X188894482Y-79734229D01*
X188722462Y-79562209D01*
X188520187Y-79427053D01*
X188295431Y-79333956D01*
X188056832Y-79286496D01*
X187813558Y-79286496D01*
X187574959Y-79333956D01*
X187350203Y-79427053D01*
X187347330Y-79428973D01*
X187347330Y-78875709D01*
X194583760Y-78875709D01*
X194745427Y-79203379D01*
X195135590Y-79399565D01*
X195556531Y-79515864D01*
X195992072Y-79547807D01*
X196425476Y-79494166D01*
X196840087Y-79357003D01*
X197127497Y-79203379D01*
X197289164Y-78875709D01*
X195936462Y-77523007D01*
X194583760Y-78875709D01*
X187347330Y-78875709D01*
X187347330Y-78787585D01*
X187886428Y-78248487D01*
X187897401Y-78249568D01*
X188188512Y-78220896D01*
X188468435Y-78135982D01*
X188726415Y-77998089D01*
X188952535Y-77812517D01*
X189138107Y-77586397D01*
X189147401Y-77569009D01*
X189156695Y-77586397D01*
X189342267Y-77812517D01*
X189568388Y-77998089D01*
X189826368Y-78135982D01*
X190106291Y-78220896D01*
X190397401Y-78249568D01*
X190688512Y-78220896D01*
X190968435Y-78135982D01*
X191226415Y-77998089D01*
X191452535Y-77812517D01*
X191638107Y-77586397D01*
X191750360Y-77376384D01*
X193709429Y-77376384D01*
X193763070Y-77809788D01*
X193900233Y-78224399D01*
X194053857Y-78511809D01*
X194381527Y-78673476D01*
X195734229Y-77320774D01*
X196138695Y-77320774D01*
X197491397Y-78673476D01*
X197819067Y-78511809D01*
X198015253Y-78121646D01*
X198131552Y-77700705D01*
X198163495Y-77265164D01*
X198109854Y-76831760D01*
X197972691Y-76417149D01*
X197819067Y-76129739D01*
X197491397Y-75968072D01*
X196138695Y-77320774D01*
X195734229Y-77320774D01*
X194381527Y-75968072D01*
X194053857Y-76129739D01*
X193857671Y-76519902D01*
X193741372Y-76940843D01*
X193709429Y-77376384D01*
X191750360Y-77376384D01*
X191776000Y-77328416D01*
X191860914Y-77048493D01*
X191882401Y-76830332D01*
X191882401Y-76434433D01*
X191860914Y-76216272D01*
X191776000Y-75936349D01*
X191684861Y-75765839D01*
X194583760Y-75765839D01*
X195936462Y-77118541D01*
X197289164Y-75765839D01*
X197127497Y-75438169D01*
X196737334Y-75241983D01*
X196316393Y-75125684D01*
X195880852Y-75093741D01*
X195447448Y-75147382D01*
X195032837Y-75284545D01*
X194745427Y-75438169D01*
X194583760Y-75765839D01*
X191684861Y-75765839D01*
X191638107Y-75678369D01*
X191452535Y-75452249D01*
X191226414Y-75266677D01*
X190968434Y-75128784D01*
X190688511Y-75043870D01*
X190397401Y-75015198D01*
X190386428Y-75016279D01*
X189464387Y-74094238D01*
X189428840Y-74050924D01*
X189256014Y-73909089D01*
X189058838Y-73803697D01*
X188844890Y-73738796D01*
X188678143Y-73722373D01*
X188678142Y-73722373D01*
X188622391Y-73716882D01*
X188566640Y-73722373D01*
X181918221Y-73722373D01*
X181862469Y-73716882D01*
X181806717Y-73722373D01*
X181639970Y-73738796D01*
X181426022Y-73803697D01*
X181228846Y-73909089D01*
X181056020Y-74050924D01*
X181020477Y-74094233D01*
X180484251Y-74630460D01*
X180440943Y-74666002D01*
X180299108Y-74838828D01*
X180289196Y-74857373D01*
X180193715Y-75036005D01*
X180128814Y-75249953D01*
X180106900Y-75472451D01*
X180112392Y-75528212D01*
X180112391Y-82954535D01*
X180110869Y-82962823D01*
X180112391Y-83066178D01*
X180112391Y-83113632D01*
X180113213Y-83121975D01*
X180114161Y-83186373D01*
X180124144Y-83232963D01*
X180128814Y-83280379D01*
X180147510Y-83342012D01*
X180161004Y-83404986D01*
X180179884Y-83448731D01*
X180193715Y-83494327D01*
X180224078Y-83551133D01*
X180249596Y-83610260D01*
X180276643Y-83649476D01*
X180299107Y-83691504D01*
X180339970Y-83741295D01*
X180344725Y-83748190D01*
X180375333Y-83784386D01*
X180440942Y-83864330D01*
X180447461Y-83869680D01*
X183658353Y-87666712D01*
X183716156Y-87739791D01*
X183772986Y-87788169D01*
X183826543Y-87840172D01*
X183857935Y-87860485D01*
X183886399Y-87884716D01*
X183951580Y-87921080D01*
X184014249Y-87961632D01*
X184048996Y-87975429D01*
X184081644Y-87993643D01*
X184152670Y-88016594D01*
X184222043Y-88044139D01*
X184258813Y-88050892D01*
X184294388Y-88062387D01*
X184368529Y-88071040D01*
X184441941Y-88084522D01*
X184535110Y-88083150D01*
X185657825Y-88103377D01*
X185810822Y-88330996D01*
X186045195Y-88550510D01*
X186317890Y-88720082D01*
X186618426Y-88833196D01*
X186790120Y-88861543D01*
X186758377Y-88932639D01*
X186687180Y-89245765D01*
X186678438Y-89566764D01*
X186723337Y-89829709D01*
X186592511Y-89960535D01*
X186554931Y-89991376D01*
X186431841Y-90141362D01*
X186391898Y-90216090D01*
X186340376Y-90312480D01*
X186284053Y-90498153D01*
X186265035Y-90691246D01*
X186269801Y-90739636D01*
X186269800Y-97572721D01*
X186265035Y-97621101D01*
X186269800Y-97669480D01*
X186284053Y-97814194D01*
X186340376Y-97999867D01*
X186431840Y-98170985D01*
X186554930Y-98320971D01*
X186592516Y-98351817D01*
X187979224Y-99738525D01*
X188017655Y-99931732D01*
X188110752Y-100156488D01*
X188245908Y-100358763D01*
X188417928Y-100530783D01*
X188620203Y-100665939D01*
X188844959Y-100759036D01*
X189083558Y-100806496D01*
X189326832Y-100806496D01*
X189565431Y-100759036D01*
X189741186Y-100686236D01*
X189755326Y-100703466D01*
X189792912Y-100734312D01*
X191383692Y-102325093D01*
X184829553Y-98540673D01*
X183931941Y-97937518D01*
X183135828Y-97228226D01*
X182441094Y-96414816D01*
X181937076Y-95647543D01*
X181056397Y-94122013D01*
X180578594Y-93146695D01*
X180243791Y-92134344D01*
X180048847Y-91082523D01*
X180042154Y-90966431D01*
X180867493Y-90966431D01*
X181029160Y-91294101D01*
X181419323Y-91490287D01*
X181840264Y-91606586D01*
X182275805Y-91638529D01*
X182709209Y-91584888D01*
X183123820Y-91447725D01*
X183411230Y-91294101D01*
X183572897Y-90966431D01*
X182220195Y-89613729D01*
X180867493Y-90966431D01*
X180042154Y-90966431D01*
X179996000Y-90165982D01*
X179996000Y-89490036D01*
X180046803Y-89900510D01*
X180183966Y-90315121D01*
X180337590Y-90602531D01*
X180665260Y-90764198D01*
X182017962Y-89411496D01*
X182422428Y-89411496D01*
X183775130Y-90764198D01*
X184102800Y-90602531D01*
X184298986Y-90212368D01*
X184415285Y-89791427D01*
X184447228Y-89355886D01*
X184393587Y-88922482D01*
X184256424Y-88507871D01*
X184102800Y-88220461D01*
X183775130Y-88058794D01*
X182422428Y-89411496D01*
X182017962Y-89411496D01*
X180665260Y-88058794D01*
X180337590Y-88220461D01*
X180141404Y-88610624D01*
X180025105Y-89031565D01*
X179996000Y-89428410D01*
X179996000Y-87856561D01*
X180867493Y-87856561D01*
X182220195Y-89209263D01*
X183572897Y-87856561D01*
X183411230Y-87528891D01*
X183021067Y-87332705D01*
X182600126Y-87216406D01*
X182164585Y-87184463D01*
X181731181Y-87238104D01*
X181316570Y-87375267D01*
X181029160Y-87528891D01*
X180867493Y-87856561D01*
X179996000Y-87856561D01*
X179996000Y-68648380D01*
X180609381Y-68035000D01*
X185211784Y-68035000D01*
X185240205Y-68037771D01*
%TA.AperFunction,Conductor*%
D45*
G36*
X185240205Y-68037771D02*
G01*
X185243294Y-68038702D01*
X185246150Y-68040218D01*
X185248650Y-68042255D01*
X185250706Y-68044738D01*
X185252246Y-68047583D01*
X185255081Y-68056721D01*
X185258080Y-68080725D01*
X185258845Y-68095804D01*
X185263211Y-68125005D01*
X185264462Y-68154520D01*
X185265813Y-68163636D01*
X185370824Y-68839892D01*
X185385726Y-68897818D01*
X185399820Y-68955960D01*
X185402916Y-68964640D01*
X185637279Y-69607620D01*
X185663128Y-69661507D01*
X185688266Y-69715845D01*
X185692989Y-69723758D01*
X186047777Y-70308972D01*
X186083603Y-70356815D01*
X186118815Y-70405234D01*
X186124985Y-70412079D01*
X186586686Y-70917235D01*
X186631156Y-70957239D01*
X186675067Y-70997863D01*
X186682449Y-71003380D01*
X187233474Y-71409237D01*
X187284841Y-71439826D01*
X187335835Y-71471165D01*
X187344147Y-71475143D01*
X187963510Y-71766243D01*
X188019859Y-71786278D01*
X188075950Y-71807109D01*
X188084876Y-71809396D01*
X188748986Y-71974650D01*
X188808168Y-71983361D01*
X188867221Y-71992898D01*
X188876422Y-71993408D01*
X189559982Y-72026522D01*
X189619750Y-72023571D01*
X189679509Y-72021457D01*
X189688633Y-72020170D01*
X189688636Y-72020170D01*
X190365607Y-71919883D01*
X190423651Y-71905382D01*
X190481875Y-71891698D01*
X190490576Y-71888663D01*
X191135176Y-71658795D01*
X191189282Y-71633304D01*
X191243755Y-71608564D01*
X191251701Y-71603897D01*
X191839378Y-71253202D01*
X191887497Y-71217691D01*
X191936132Y-71182838D01*
X191943020Y-71176716D01*
X192451388Y-70718554D01*
X192491718Y-70674345D01*
X192532632Y-70630736D01*
X192538200Y-70623393D01*
X192947894Y-70075214D01*
X192978846Y-70024053D01*
X193010534Y-69973290D01*
X193014569Y-69965005D01*
X193014570Y-69965004D01*
X193014572Y-69964999D01*
X193309986Y-69347689D01*
X193330415Y-69291478D01*
X193351636Y-69235537D01*
X193353986Y-69226627D01*
X193523872Y-68563687D01*
X193532996Y-68504569D01*
X193542945Y-68445584D01*
X193543519Y-68436386D01*
X193564913Y-68050530D01*
X193890191Y-68082459D01*
X194326831Y-68214340D01*
X194729539Y-68428519D01*
X195082979Y-68716840D01*
X195373682Y-69068317D01*
X195601887Y-69490482D01*
X195640930Y-69590655D01*
X206998054Y-101142662D01*
X207332791Y-102294832D01*
X207517064Y-103458289D01*
X207559001Y-104347567D01*
X207559001Y-104619411D01*
X207274191Y-104478891D01*
X205921489Y-105831593D01*
X205935631Y-105845735D01*
X205733398Y-106047968D01*
X205719256Y-106033826D01*
X204366554Y-107386528D01*
X204507401Y-107672000D01*
X200643863Y-107672000D01*
X198786028Y-106599269D01*
X199754179Y-105887203D01*
X203492223Y-105887203D01*
X203545864Y-106320607D01*
X203683027Y-106735218D01*
X203836651Y-107022628D01*
X204164321Y-107184295D01*
X205517023Y-105831593D01*
X204164321Y-104478891D01*
X203836651Y-104640558D01*
X203640465Y-105030721D01*
X203524166Y-105451662D01*
X203492223Y-105887203D01*
X199754179Y-105887203D01*
X200063890Y-105659414D01*
X200067594Y-105660151D01*
X200355188Y-105660151D01*
X200637257Y-105604044D01*
X200902960Y-105493986D01*
X201142087Y-105334207D01*
X201345447Y-105130847D01*
X201505226Y-104891720D01*
X201615284Y-104626017D01*
X201671391Y-104343948D01*
X201671391Y-104276658D01*
X204366554Y-104276658D01*
X205719256Y-105629360D01*
X207071958Y-104276658D01*
X206910291Y-103948988D01*
X206520128Y-103752802D01*
X206099187Y-103636503D01*
X205663646Y-103604560D01*
X205230242Y-103658201D01*
X204815631Y-103795364D01*
X204528221Y-103948988D01*
X204366554Y-104276658D01*
X201671391Y-104276658D01*
X201671391Y-104056354D01*
X201615284Y-103774285D01*
X201505226Y-103508582D01*
X201345447Y-103269455D01*
X201142087Y-103066095D01*
X200938632Y-102930151D01*
X201142087Y-102794207D01*
X201345447Y-102590847D01*
X201505226Y-102351720D01*
X201615284Y-102086017D01*
X201671391Y-101803948D01*
X201671391Y-101593151D01*
X202797480Y-100467062D01*
X202835066Y-100436216D01*
X202958156Y-100286230D01*
X203049620Y-100115113D01*
X203105943Y-99929440D01*
X203120196Y-99784726D01*
X203124961Y-99736347D01*
X203120196Y-99687967D01*
X203120196Y-95074874D01*
X203124961Y-95026494D01*
X203105943Y-94833401D01*
X203049620Y-94647728D01*
X203026061Y-94603653D01*
X202958156Y-94476611D01*
X202835066Y-94326625D01*
X202797480Y-94295779D01*
X201861174Y-93359473D01*
X201830328Y-93321887D01*
X201680342Y-93198797D01*
X201509225Y-93107333D01*
X201323552Y-93051010D01*
X201178838Y-93036757D01*
X201130458Y-93031992D01*
X201082078Y-93036757D01*
X197531502Y-93036757D01*
X197299568Y-92691700D01*
X197065195Y-92472186D01*
X196792500Y-92302614D01*
X196491964Y-92189500D01*
X196175135Y-92137191D01*
X195854188Y-92147698D01*
X195541459Y-92220616D01*
X195248964Y-92353144D01*
X194382939Y-92853144D01*
X194197649Y-92977689D01*
X193964487Y-93198488D01*
X193778881Y-93460533D01*
X193647963Y-93753752D01*
X193584622Y-94032328D01*
X193412378Y-93967500D01*
X193240684Y-93939153D01*
X193272427Y-93868058D01*
X193343624Y-93554932D01*
X193352366Y-93233933D01*
X193298316Y-92917396D01*
X193183551Y-92617486D01*
X193183550Y-92617484D01*
X192949982Y-92269996D01*
X192715609Y-92050482D01*
X192442914Y-91880910D01*
X192142378Y-91767796D01*
X191970684Y-91739449D01*
X192002427Y-91668353D01*
X192065768Y-91389777D01*
X192238012Y-91454605D01*
X192554841Y-91506914D01*
X192875788Y-91496407D01*
X193188517Y-91423489D01*
X193481012Y-91290961D01*
X193972171Y-91007390D01*
X194007740Y-90988378D01*
X194014002Y-90983239D01*
X194347037Y-90790961D01*
X194532327Y-90666416D01*
X194765489Y-90445617D01*
X194789657Y-90411496D01*
X195456775Y-90411496D01*
X195480138Y-90434859D01*
X195829819Y-90668508D01*
X196218365Y-90829449D01*
X196630842Y-90911496D01*
X197051400Y-90911496D01*
X197463877Y-90829449D01*
X197852423Y-90668508D01*
X198202104Y-90434859D01*
X198499484Y-90137479D01*
X198733133Y-89787798D01*
X198894074Y-89399252D01*
X198976121Y-88986775D01*
X198976121Y-88566217D01*
X198894074Y-88153740D01*
X198733133Y-87765194D01*
X198499484Y-87415513D01*
X198202104Y-87118133D01*
X197852423Y-86884484D01*
X197463877Y-86723543D01*
X197383846Y-86707624D01*
X197447207Y-86612798D01*
X197608148Y-86224252D01*
X197690195Y-85811775D01*
X197690195Y-85391217D01*
X197608148Y-84978740D01*
X197447207Y-84590194D01*
X197213558Y-84240513D01*
X196916178Y-83943133D01*
X196566497Y-83709484D01*
X196177951Y-83548543D01*
X195765474Y-83466496D01*
X195344916Y-83466496D01*
X194932439Y-83548543D01*
X194543893Y-83709484D01*
X194194212Y-83943133D01*
X194170849Y-83966496D01*
X193726455Y-83966496D01*
X193646135Y-83958585D01*
X193565816Y-83966496D01*
X193565814Y-83966496D01*
X193325620Y-83990153D01*
X193119915Y-84052553D01*
X193167462Y-84020783D01*
X193339482Y-83848763D01*
X193474638Y-83646488D01*
X193567735Y-83421732D01*
X193615195Y-83183133D01*
X193615195Y-82939859D01*
X193567735Y-82701260D01*
X193474638Y-82476504D01*
X193339482Y-82274229D01*
X193167462Y-82102209D01*
X192965187Y-81967053D01*
X192740431Y-81873956D01*
X192501832Y-81826496D01*
X192258558Y-81826496D01*
X192019959Y-81873956D01*
X191795203Y-81967053D01*
X191592928Y-82102209D01*
X191420908Y-82274229D01*
X191313915Y-82434355D01*
X191297902Y-82340578D01*
X191183137Y-82040668D01*
X191183136Y-82040666D01*
X190949568Y-81693178D01*
X190715195Y-81473664D01*
X190442500Y-81304092D01*
X190218640Y-81219837D01*
X190126977Y-81108145D01*
X190126975Y-81108143D01*
X190091437Y-81064840D01*
X190048134Y-81029302D01*
X189082178Y-80063348D01*
X189029638Y-79936504D01*
X188894482Y-79734229D01*
X188722462Y-79562209D01*
X188520187Y-79427053D01*
X188295431Y-79333956D01*
X188056832Y-79286496D01*
X187813558Y-79286496D01*
X187574959Y-79333956D01*
X187350203Y-79427053D01*
X187347330Y-79428973D01*
X187347330Y-78875709D01*
X194583760Y-78875709D01*
X194745427Y-79203379D01*
X195135590Y-79399565D01*
X195556531Y-79515864D01*
X195992072Y-79547807D01*
X196425476Y-79494166D01*
X196840087Y-79357003D01*
X197127497Y-79203379D01*
X197289164Y-78875709D01*
X195936462Y-77523007D01*
X194583760Y-78875709D01*
X187347330Y-78875709D01*
X187347330Y-78787585D01*
X187886428Y-78248487D01*
X187897401Y-78249568D01*
X188188512Y-78220896D01*
X188468435Y-78135982D01*
X188726415Y-77998089D01*
X188952535Y-77812517D01*
X189138107Y-77586397D01*
X189147401Y-77569009D01*
X189156695Y-77586397D01*
X189342267Y-77812517D01*
X189568388Y-77998089D01*
X189826368Y-78135982D01*
X190106291Y-78220896D01*
X190397401Y-78249568D01*
X190688512Y-78220896D01*
X190968435Y-78135982D01*
X191226415Y-77998089D01*
X191452535Y-77812517D01*
X191638107Y-77586397D01*
X191750360Y-77376384D01*
X193709429Y-77376384D01*
X193763070Y-77809788D01*
X193900233Y-78224399D01*
X194053857Y-78511809D01*
X194381527Y-78673476D01*
X195734229Y-77320774D01*
X196138695Y-77320774D01*
X197491397Y-78673476D01*
X197819067Y-78511809D01*
X198015253Y-78121646D01*
X198131552Y-77700705D01*
X198163495Y-77265164D01*
X198109854Y-76831760D01*
X197972691Y-76417149D01*
X197819067Y-76129739D01*
X197491397Y-75968072D01*
X196138695Y-77320774D01*
X195734229Y-77320774D01*
X194381527Y-75968072D01*
X194053857Y-76129739D01*
X193857671Y-76519902D01*
X193741372Y-76940843D01*
X193709429Y-77376384D01*
X191750360Y-77376384D01*
X191776000Y-77328416D01*
X191860914Y-77048493D01*
X191882401Y-76830332D01*
X191882401Y-76434433D01*
X191860914Y-76216272D01*
X191776000Y-75936349D01*
X191684861Y-75765839D01*
X194583760Y-75765839D01*
X195936462Y-77118541D01*
X197289164Y-75765839D01*
X197127497Y-75438169D01*
X196737334Y-75241983D01*
X196316393Y-75125684D01*
X195880852Y-75093741D01*
X195447448Y-75147382D01*
X195032837Y-75284545D01*
X194745427Y-75438169D01*
X194583760Y-75765839D01*
X191684861Y-75765839D01*
X191638107Y-75678369D01*
X191452535Y-75452249D01*
X191226414Y-75266677D01*
X190968434Y-75128784D01*
X190688511Y-75043870D01*
X190397401Y-75015198D01*
X190386428Y-75016279D01*
X189464387Y-74094238D01*
X189428840Y-74050924D01*
X189256014Y-73909089D01*
X189058838Y-73803697D01*
X188844890Y-73738796D01*
X188678143Y-73722373D01*
X188678142Y-73722373D01*
X188622391Y-73716882D01*
X188566640Y-73722373D01*
X181918221Y-73722373D01*
X181862469Y-73716882D01*
X181806717Y-73722373D01*
X181639970Y-73738796D01*
X181426022Y-73803697D01*
X181228846Y-73909089D01*
X181056020Y-74050924D01*
X181020477Y-74094233D01*
X180484251Y-74630460D01*
X180440943Y-74666002D01*
X180299108Y-74838828D01*
X180289196Y-74857373D01*
X180193715Y-75036005D01*
X180128814Y-75249953D01*
X180106900Y-75472451D01*
X180112392Y-75528212D01*
X180112391Y-82954535D01*
X180110869Y-82962823D01*
X180112391Y-83066178D01*
X180112391Y-83113632D01*
X180113213Y-83121975D01*
X180114161Y-83186373D01*
X180124144Y-83232963D01*
X180128814Y-83280379D01*
X180147510Y-83342012D01*
X180161004Y-83404986D01*
X180179884Y-83448731D01*
X180193715Y-83494327D01*
X180224078Y-83551133D01*
X180249596Y-83610260D01*
X180276643Y-83649476D01*
X180299107Y-83691504D01*
X180339970Y-83741295D01*
X180344725Y-83748190D01*
X180375333Y-83784386D01*
X180440942Y-83864330D01*
X180447461Y-83869680D01*
X183658353Y-87666712D01*
X183716156Y-87739791D01*
X183772986Y-87788169D01*
X183826543Y-87840172D01*
X183857935Y-87860485D01*
X183886399Y-87884716D01*
X183951580Y-87921080D01*
X184014249Y-87961632D01*
X184048996Y-87975429D01*
X184081644Y-87993643D01*
X184152670Y-88016594D01*
X184222043Y-88044139D01*
X184258813Y-88050892D01*
X184294388Y-88062387D01*
X184368529Y-88071040D01*
X184441941Y-88084522D01*
X184535110Y-88083150D01*
X185657825Y-88103377D01*
X185810822Y-88330996D01*
X186045195Y-88550510D01*
X186317890Y-88720082D01*
X186618426Y-88833196D01*
X186790120Y-88861543D01*
X186758377Y-88932639D01*
X186687180Y-89245765D01*
X186678438Y-89566764D01*
X186723337Y-89829709D01*
X186592511Y-89960535D01*
X186554931Y-89991376D01*
X186431841Y-90141362D01*
X186391898Y-90216090D01*
X186340376Y-90312480D01*
X186284053Y-90498153D01*
X186265035Y-90691246D01*
X186269801Y-90739636D01*
X186269800Y-97572721D01*
X186265035Y-97621101D01*
X186269800Y-97669480D01*
X186284053Y-97814194D01*
X186340376Y-97999867D01*
X186431840Y-98170985D01*
X186554930Y-98320971D01*
X186592516Y-98351817D01*
X187979224Y-99738525D01*
X188017655Y-99931732D01*
X188110752Y-100156488D01*
X188245908Y-100358763D01*
X188417928Y-100530783D01*
X188620203Y-100665939D01*
X188844959Y-100759036D01*
X189083558Y-100806496D01*
X189326832Y-100806496D01*
X189565431Y-100759036D01*
X189741186Y-100686236D01*
X189755326Y-100703466D01*
X189792912Y-100734312D01*
X191383692Y-102325093D01*
X184829553Y-98540673D01*
X183931941Y-97937518D01*
X183135828Y-97228226D01*
X182441094Y-96414816D01*
X181937076Y-95647543D01*
X181056397Y-94122013D01*
X180578594Y-93146695D01*
X180243791Y-92134344D01*
X180048847Y-91082523D01*
X180042154Y-90966431D01*
X180867493Y-90966431D01*
X181029160Y-91294101D01*
X181419323Y-91490287D01*
X181840264Y-91606586D01*
X182275805Y-91638529D01*
X182709209Y-91584888D01*
X183123820Y-91447725D01*
X183411230Y-91294101D01*
X183572897Y-90966431D01*
X182220195Y-89613729D01*
X180867493Y-90966431D01*
X180042154Y-90966431D01*
X179996000Y-90165982D01*
X179996000Y-89490036D01*
X180046803Y-89900510D01*
X180183966Y-90315121D01*
X180337590Y-90602531D01*
X180665260Y-90764198D01*
X182017962Y-89411496D01*
X182422428Y-89411496D01*
X183775130Y-90764198D01*
X184102800Y-90602531D01*
X184298986Y-90212368D01*
X184415285Y-89791427D01*
X184447228Y-89355886D01*
X184393587Y-88922482D01*
X184256424Y-88507871D01*
X184102800Y-88220461D01*
X183775130Y-88058794D01*
X182422428Y-89411496D01*
X182017962Y-89411496D01*
X180665260Y-88058794D01*
X180337590Y-88220461D01*
X180141404Y-88610624D01*
X180025105Y-89031565D01*
X179996000Y-89428410D01*
X179996000Y-87856561D01*
X180867493Y-87856561D01*
X182220195Y-89209263D01*
X183572897Y-87856561D01*
X183411230Y-87528891D01*
X183021067Y-87332705D01*
X182600126Y-87216406D01*
X182164585Y-87184463D01*
X181731181Y-87238104D01*
X181316570Y-87375267D01*
X181029160Y-87528891D01*
X180867493Y-87856561D01*
X179996000Y-87856561D01*
X179996000Y-68648380D01*
X180609381Y-68035000D01*
X185211784Y-68035000D01*
X185240205Y-68037771D01*
G37*
%TD.AperFunction*%
D44*
X199077335Y-100050847D02*
X199280695Y-100254207D01*
X199484150Y-100390151D01*
X199280695Y-100526095D01*
X199077335Y-100729455D01*
X198963467Y-100899871D01*
X198962808Y-100898639D01*
X198709263Y-100824511D01*
X197873624Y-101660151D01*
X198709263Y-102495791D01*
X198962808Y-102421663D01*
X198963416Y-102420354D01*
X199077335Y-102590847D01*
X199280695Y-102794207D01*
X199484150Y-102930151D01*
X199280695Y-103066095D01*
X199077335Y-103269455D01*
X198941391Y-103472910D01*
X198805447Y-103269455D01*
X198602087Y-103066095D01*
X198431671Y-102952227D01*
X198432903Y-102951568D01*
X198507031Y-102698023D01*
X197671391Y-101862384D01*
X197657249Y-101876526D01*
X197455016Y-101674293D01*
X197469158Y-101660151D01*
X196633519Y-100824511D01*
X196379974Y-100898639D01*
X196256224Y-101165214D01*
X196211910Y-101347670D01*
X195611578Y-100747338D01*
X195611578Y-100628476D01*
X195564118Y-100389877D01*
X195471021Y-100165121D01*
X195430950Y-100105151D01*
X196591639Y-100105151D01*
X196740695Y-100254207D01*
X196911111Y-100368075D01*
X196909879Y-100368734D01*
X196835751Y-100622279D01*
X197671391Y-101457918D01*
X198507031Y-100622279D01*
X198432903Y-100368734D01*
X198431594Y-100368126D01*
X198602087Y-100254207D01*
X198805447Y-100050847D01*
X198941391Y-99847392D01*
X199077335Y-100050847D01*
%TA.AperFunction,Conductor*%
D45*
G36*
X199077335Y-100050847D02*
G01*
X199280695Y-100254207D01*
X199484150Y-100390151D01*
X199280695Y-100526095D01*
X199077335Y-100729455D01*
X198963467Y-100899871D01*
X198962808Y-100898639D01*
X198709263Y-100824511D01*
X197873624Y-101660151D01*
X198709263Y-102495791D01*
X198962808Y-102421663D01*
X198963416Y-102420354D01*
X199077335Y-102590847D01*
X199280695Y-102794207D01*
X199484150Y-102930151D01*
X199280695Y-103066095D01*
X199077335Y-103269455D01*
X198941391Y-103472910D01*
X198805447Y-103269455D01*
X198602087Y-103066095D01*
X198431671Y-102952227D01*
X198432903Y-102951568D01*
X198507031Y-102698023D01*
X197671391Y-101862384D01*
X197657249Y-101876526D01*
X197455016Y-101674293D01*
X197469158Y-101660151D01*
X196633519Y-100824511D01*
X196379974Y-100898639D01*
X196256224Y-101165214D01*
X196211910Y-101347670D01*
X195611578Y-100747338D01*
X195611578Y-100628476D01*
X195564118Y-100389877D01*
X195471021Y-100165121D01*
X195430950Y-100105151D01*
X196591639Y-100105151D01*
X196740695Y-100254207D01*
X196911111Y-100368075D01*
X196909879Y-100368734D01*
X196835751Y-100622279D01*
X197671391Y-101457918D01*
X198507031Y-100622279D01*
X198432903Y-100368734D01*
X198431594Y-100368126D01*
X198602087Y-100254207D01*
X198805447Y-100050847D01*
X198941391Y-99847392D01*
X199077335Y-100050847D01*
G37*
%TD.AperFunction*%
%TD*%
M02*
