%TF.GenerationSoftware,KiCad,Pcbnew,(5.1.9)-1*%
%TF.CreationDate,2021-02-18T14:59:33+00:00*%
%TF.ProjectId,c-boards_assy_final,632d626f-6172-4647-935f-617373795f66,rev?*%
%TF.SameCoordinates,Original*%
%TF.FileFunction,Soldermask,Top*%
%TF.FilePolarity,Negative*%
%FSLAX46Y46*%
G04 Gerber Fmt 4.6, Leading zero omitted, Abs format (unit mm)*
G04 Created by KiCad (PCBNEW (5.1.9)-1) date 2021-02-18 14:59:33*
%MOMM*%
%LPD*%
G01*
G04 APERTURE LIST*
%ADD10C,0.100000*%
%ADD11R,0.600000X1.800000*%
%ADD12R,2.200000X2.500000*%
%ADD13R,1.800000X0.600000*%
%ADD14R,2.500000X2.200000*%
%ADD15C,2.000000*%
%ADD16R,1.200000X0.650000*%
%ADD17C,2.700000*%
%ADD18R,1.900000X1.100000*%
%ADD19R,3.000000X0.700000*%
%ADD20R,1.100000X1.900000*%
%ADD21R,0.700000X3.000000*%
%ADD22O,1.950000X1.700000*%
%ADD23O,1.700000X1.950000*%
%ADD24R,1.700000X1.700000*%
%ADD25O,1.700000X1.700000*%
%ADD26O,3.600000X1.800000*%
%ADD27C,3.200000*%
%ADD28O,1.700000X2.000000*%
%ADD29C,1.600000*%
%ADD30R,1.600000X1.600000*%
G04 APERTURE END LIST*
D10*
G36*
X111255000Y-80062200D02*
G01*
X110442200Y-80062200D01*
X110493000Y-78385800D01*
X111255000Y-78385800D01*
X111255000Y-80062200D01*
G37*
X111255000Y-80062200D02*
X110442200Y-80062200D01*
X110493000Y-78385800D01*
X111255000Y-78385800D01*
X111255000Y-80062200D01*
G36*
X109273800Y-80062200D02*
G01*
X108461000Y-80062200D01*
X108511800Y-78385800D01*
X109273800Y-78385800D01*
X109273800Y-80062200D01*
G37*
X109273800Y-80062200D02*
X108461000Y-80062200D01*
X108511800Y-78385800D01*
X109273800Y-78385800D01*
X109273800Y-80062200D01*
G36*
X107267200Y-80062200D02*
G01*
X106454400Y-80062200D01*
X106505200Y-78385800D01*
X107267200Y-78385800D01*
X107267200Y-80062200D01*
G37*
X107267200Y-80062200D02*
X106454400Y-80062200D01*
X106505200Y-78385800D01*
X107267200Y-78385800D01*
X107267200Y-80062200D01*
G36*
X175593200Y-94459000D02*
G01*
X173916800Y-94459000D01*
X173916800Y-93722400D01*
X175593200Y-93697000D01*
X175593200Y-94459000D01*
G37*
X175593200Y-94459000D02*
X173916800Y-94459000D01*
X173916800Y-93722400D01*
X175593200Y-93697000D01*
X175593200Y-94459000D01*
G36*
X175593200Y-91741200D02*
G01*
X175593200Y-92427000D01*
X173916800Y-92427000D01*
X173916800Y-91690400D01*
X175593200Y-91741200D01*
G37*
X175593200Y-91741200D02*
X175593200Y-92427000D01*
X173916800Y-92427000D01*
X173916800Y-91690400D01*
X175593200Y-91741200D01*
G36*
X175593200Y-90496600D02*
G01*
X173916800Y-90471200D01*
X173916800Y-89582200D01*
X175593200Y-89556800D01*
X175593200Y-90496600D01*
G37*
X175593200Y-90496600D02*
X173916800Y-90471200D01*
X173916800Y-89582200D01*
X175593200Y-89556800D01*
X175593200Y-90496600D01*
G36*
X161470800Y-74799400D02*
G01*
X160708800Y-74799400D01*
X160632600Y-73097600D01*
X161496200Y-73097600D01*
X161470800Y-74799400D01*
G37*
X161470800Y-74799400D02*
X160708800Y-74799400D01*
X160632600Y-73097600D01*
X161496200Y-73097600D01*
X161470800Y-74799400D01*
G36*
X159565800Y-74799400D02*
G01*
X158626000Y-74799400D01*
X158549800Y-73097600D01*
X159565800Y-73097600D01*
X159565800Y-74799400D01*
G37*
X159565800Y-74799400D02*
X158626000Y-74799400D01*
X158549800Y-73097600D01*
X159565800Y-73097600D01*
X159565800Y-74799400D01*
G36*
X157508400Y-74799400D02*
G01*
X156594000Y-74799400D01*
X156594000Y-73097600D01*
X157483000Y-73097600D01*
X157508400Y-74799400D01*
G37*
X157508400Y-74799400D02*
X156594000Y-74799400D01*
X156594000Y-73097600D01*
X157483000Y-73097600D01*
X157508400Y-74799400D01*
D11*
%TO.C,J1*%
X171555000Y-73948500D03*
X170555000Y-73948500D03*
X169555000Y-73948500D03*
X168555000Y-73948500D03*
X167555000Y-73948500D03*
X166555000Y-73948500D03*
X165555000Y-73948500D03*
X164555000Y-73948500D03*
X163555000Y-73948500D03*
X162555000Y-73948500D03*
X161555000Y-73948500D03*
X160555000Y-73948500D03*
X159555000Y-73948500D03*
X158555000Y-73948500D03*
X157555000Y-73948500D03*
X156555000Y-73948500D03*
X155555000Y-73948500D03*
X154555000Y-73948500D03*
X153555000Y-73948500D03*
X152555000Y-73948500D03*
D12*
X174155000Y-71408500D03*
X149955000Y-71408500D03*
%TD*%
D11*
%TO.C,J11*%
X115397000Y-79233136D03*
X114397000Y-79233136D03*
X113397000Y-79233136D03*
X112397000Y-79233136D03*
X111397000Y-79233136D03*
X110397000Y-79233136D03*
X109397000Y-79233136D03*
X108397000Y-79233136D03*
X107397000Y-79233136D03*
X106397000Y-79233136D03*
X105397000Y-79233136D03*
X104397000Y-79233136D03*
X103397000Y-79233136D03*
X102397000Y-79233136D03*
X101397000Y-79233136D03*
X100397000Y-79233136D03*
X99397000Y-79233136D03*
X98397000Y-79233136D03*
X97397000Y-79233136D03*
X96397000Y-79233136D03*
D12*
X117997000Y-76693136D03*
X93797000Y-76693136D03*
%TD*%
D13*
%TO.C,J0*%
X174755000Y-98561500D03*
X174755000Y-97561500D03*
X174755000Y-96561500D03*
X174755000Y-95561500D03*
X174755000Y-94561500D03*
X174755000Y-93561500D03*
X174755000Y-92561500D03*
X174755000Y-91561500D03*
X174755000Y-90561500D03*
X174755000Y-89561500D03*
X174755000Y-88561500D03*
X174755000Y-87561500D03*
X174755000Y-86561500D03*
X174755000Y-85561500D03*
X174755000Y-84561500D03*
X174755000Y-83561500D03*
X174755000Y-82561500D03*
X174755000Y-81561500D03*
X174755000Y-80561500D03*
X174755000Y-79561500D03*
D14*
X177295000Y-101161500D03*
X177295000Y-76961500D03*
%TD*%
D15*
%TO.C,J14*%
X109039058Y-97629771D03*
X110309058Y-95430066D03*
X111579058Y-93230362D03*
X112849058Y-91030657D03*
X114119058Y-88830953D03*
X106839353Y-96359771D03*
X108109353Y-94160066D03*
X109379353Y-91960362D03*
X110649353Y-89760657D03*
X111919353Y-87560953D03*
D10*
G36*
X112823328Y-83995223D02*
G01*
X114555378Y-84995223D01*
X113555378Y-86727273D01*
X111823328Y-85727273D01*
X112823328Y-83995223D01*
G37*
D15*
X115389058Y-86631248D03*
%TD*%
D16*
%TO.C,Q1*%
X141955000Y-81180000D03*
X141955000Y-83100000D03*
X144055000Y-82140000D03*
%TD*%
%TO.C,R4*%
G36*
G01*
X140700000Y-75339999D02*
X140700000Y-76240001D01*
G75*
G02*
X140450001Y-76490000I-249999J0D01*
G01*
X139749999Y-76490000D01*
G75*
G02*
X139500000Y-76240001I0J249999D01*
G01*
X139500000Y-75339999D01*
G75*
G02*
X139749999Y-75090000I249999J0D01*
G01*
X140450001Y-75090000D01*
G75*
G02*
X140700000Y-75339999I0J-249999D01*
G01*
G37*
G36*
G01*
X142700000Y-75339999D02*
X142700000Y-76240001D01*
G75*
G02*
X142450001Y-76490000I-249999J0D01*
G01*
X141749999Y-76490000D01*
G75*
G02*
X141500000Y-76240001I0J249999D01*
G01*
X141500000Y-75339999D01*
G75*
G02*
X141749999Y-75090000I249999J0D01*
G01*
X142450001Y-75090000D01*
G75*
G02*
X142700000Y-75339999I0J-249999D01*
G01*
G37*
%TD*%
%TO.C,Q2*%
X146400000Y-81180000D03*
X146400000Y-83100000D03*
X148500000Y-82140000D03*
%TD*%
D17*
%TO.C,H8*%
X168978000Y-25023000D03*
%TD*%
D18*
%TO.C,J8*%
X128214000Y-107900000D03*
X128214000Y-113300000D03*
D19*
X132464000Y-109850000D03*
X132464000Y-111350000D03*
%TD*%
D18*
%TO.C,J7*%
X128214000Y-99137000D03*
X128214000Y-104537000D03*
D19*
X132464000Y-101087000D03*
X132464000Y-102587000D03*
%TD*%
D20*
%TO.C,J3*%
X145010000Y-67730000D03*
X136610000Y-67730000D03*
D21*
X143060000Y-71980000D03*
X141560000Y-71980000D03*
X140060000Y-71980000D03*
X138560000Y-71980000D03*
%TD*%
D18*
%TO.C,J10*%
X185228000Y-29223000D03*
X185228000Y-20823000D03*
D19*
X180978000Y-27273000D03*
X180978000Y-25773000D03*
X180978000Y-24273000D03*
X180978000Y-22773000D03*
%TD*%
D22*
%TO.C,J2*%
X136020000Y-82060000D03*
X136020000Y-79560000D03*
G36*
G01*
X135295000Y-76210000D02*
X136745000Y-76210000D01*
G75*
G02*
X136995000Y-76460000I0J-250000D01*
G01*
X136995000Y-77660000D01*
G75*
G02*
X136745000Y-77910000I-250000J0D01*
G01*
X135295000Y-77910000D01*
G75*
G02*
X135045000Y-77660000I0J250000D01*
G01*
X135045000Y-76460000D01*
G75*
G02*
X135295000Y-76210000I250000J0D01*
G01*
G37*
%TD*%
D23*
%TO.C,J6*%
X173151000Y-106651000D03*
X170651000Y-106651000D03*
G36*
G01*
X167301000Y-107376000D02*
X167301000Y-105926000D01*
G75*
G02*
X167551000Y-105676000I250000J0D01*
G01*
X168751000Y-105676000D01*
G75*
G02*
X169001000Y-105926000I0J-250000D01*
G01*
X169001000Y-107376000D01*
G75*
G02*
X168751000Y-107626000I-250000J0D01*
G01*
X167551000Y-107626000D01*
G75*
G02*
X167301000Y-107376000I0J250000D01*
G01*
G37*
%TD*%
%TO.C,J5*%
X161721000Y-106651000D03*
X159221000Y-106651000D03*
G36*
G01*
X155871000Y-107376000D02*
X155871000Y-105926000D01*
G75*
G02*
X156121000Y-105676000I250000J0D01*
G01*
X157321000Y-105676000D01*
G75*
G02*
X157571000Y-105926000I0J-250000D01*
G01*
X157571000Y-107376000D01*
G75*
G02*
X157321000Y-107626000I-250000J0D01*
G01*
X156121000Y-107626000D01*
G75*
G02*
X155871000Y-107376000I0J250000D01*
G01*
G37*
%TD*%
%TO.C,J4*%
X150291000Y-106651000D03*
X147791000Y-106651000D03*
G36*
G01*
X144441000Y-107376000D02*
X144441000Y-105926000D01*
G75*
G02*
X144691000Y-105676000I250000J0D01*
G01*
X145891000Y-105676000D01*
G75*
G02*
X146141000Y-105926000I0J-250000D01*
G01*
X146141000Y-107376000D01*
G75*
G02*
X145891000Y-107626000I-250000J0D01*
G01*
X144691000Y-107626000D01*
G75*
G02*
X144441000Y-107376000I0J250000D01*
G01*
G37*
%TD*%
D16*
%TO.C,Q0*%
X143860000Y-95150000D03*
X143860000Y-97070000D03*
X145960000Y-96110000D03*
%TD*%
%TO.C,R3*%
G36*
G01*
X144764000Y-78895999D02*
X144764000Y-79796001D01*
G75*
G02*
X144514001Y-80046000I-249999J0D01*
G01*
X143813999Y-80046000D01*
G75*
G02*
X143564000Y-79796001I0J249999D01*
G01*
X143564000Y-78895999D01*
G75*
G02*
X143813999Y-78646000I249999J0D01*
G01*
X144514001Y-78646000D01*
G75*
G02*
X144764000Y-78895999I0J-249999D01*
G01*
G37*
G36*
G01*
X146764000Y-78895999D02*
X146764000Y-79796001D01*
G75*
G02*
X146514001Y-80046000I-249999J0D01*
G01*
X145813999Y-80046000D01*
G75*
G02*
X145564000Y-79796001I0J249999D01*
G01*
X145564000Y-78895999D01*
G75*
G02*
X145813999Y-78646000I249999J0D01*
G01*
X146514001Y-78646000D01*
G75*
G02*
X146764000Y-78895999I0J-249999D01*
G01*
G37*
%TD*%
%TO.C,R2*%
G36*
G01*
X145564000Y-78018001D02*
X145564000Y-77117999D01*
G75*
G02*
X145813999Y-76868000I249999J0D01*
G01*
X146514001Y-76868000D01*
G75*
G02*
X146764000Y-77117999I0J-249999D01*
G01*
X146764000Y-78018001D01*
G75*
G02*
X146514001Y-78268000I-249999J0D01*
G01*
X145813999Y-78268000D01*
G75*
G02*
X145564000Y-78018001I0J249999D01*
G01*
G37*
G36*
G01*
X143564000Y-78018001D02*
X143564000Y-77117999D01*
G75*
G02*
X143813999Y-76868000I249999J0D01*
G01*
X144514001Y-76868000D01*
G75*
G02*
X144764000Y-77117999I0J-249999D01*
G01*
X144764000Y-78018001D01*
G75*
G02*
X144514001Y-78268000I-249999J0D01*
G01*
X143813999Y-78268000D01*
G75*
G02*
X143564000Y-78018001I0J249999D01*
G01*
G37*
%TD*%
%TO.C,R1*%
G36*
G01*
X149755000Y-100370001D02*
X149755000Y-99469999D01*
G75*
G02*
X150004999Y-99220000I249999J0D01*
G01*
X150705001Y-99220000D01*
G75*
G02*
X150955000Y-99469999I0J-249999D01*
G01*
X150955000Y-100370001D01*
G75*
G02*
X150705001Y-100620000I-249999J0D01*
G01*
X150004999Y-100620000D01*
G75*
G02*
X149755000Y-100370001I0J249999D01*
G01*
G37*
G36*
G01*
X147755000Y-100370001D02*
X147755000Y-99469999D01*
G75*
G02*
X148004999Y-99220000I249999J0D01*
G01*
X148705001Y-99220000D01*
G75*
G02*
X148955000Y-99469999I0J-249999D01*
G01*
X148955000Y-100370001D01*
G75*
G02*
X148705001Y-100620000I-249999J0D01*
G01*
X148004999Y-100620000D01*
G75*
G02*
X147755000Y-100370001I0J249999D01*
G01*
G37*
%TD*%
%TO.C,R0*%
G36*
G01*
X149755000Y-96560001D02*
X149755000Y-95659999D01*
G75*
G02*
X150004999Y-95410000I249999J0D01*
G01*
X150705001Y-95410000D01*
G75*
G02*
X150955000Y-95659999I0J-249999D01*
G01*
X150955000Y-96560001D01*
G75*
G02*
X150705001Y-96810000I-249999J0D01*
G01*
X150004999Y-96810000D01*
G75*
G02*
X149755000Y-96560001I0J249999D01*
G01*
G37*
G36*
G01*
X147755000Y-96560001D02*
X147755000Y-95659999D01*
G75*
G02*
X148004999Y-95410000I249999J0D01*
G01*
X148705001Y-95410000D01*
G75*
G02*
X148955000Y-95659999I0J-249999D01*
G01*
X148955000Y-96560001D01*
G75*
G02*
X148705001Y-96810000I-249999J0D01*
G01*
X148004999Y-96810000D01*
G75*
G02*
X147755000Y-96560001I0J249999D01*
G01*
G37*
%TD*%
%TO.C,LED5*%
G36*
G01*
X95393000Y-86834000D02*
X95393000Y-85584000D01*
G75*
G02*
X95643000Y-85334000I250000J0D01*
G01*
X96568000Y-85334000D01*
G75*
G02*
X96818000Y-85584000I0J-250000D01*
G01*
X96818000Y-86834000D01*
G75*
G02*
X96568000Y-87084000I-250000J0D01*
G01*
X95643000Y-87084000D01*
G75*
G02*
X95393000Y-86834000I0J250000D01*
G01*
G37*
G36*
G01*
X92418000Y-86834000D02*
X92418000Y-85584000D01*
G75*
G02*
X92668000Y-85334000I250000J0D01*
G01*
X93593000Y-85334000D01*
G75*
G02*
X93843000Y-85584000I0J-250000D01*
G01*
X93843000Y-86834000D01*
G75*
G02*
X93593000Y-87084000I-250000J0D01*
G01*
X92668000Y-87084000D01*
G75*
G02*
X92418000Y-86834000I0J250000D01*
G01*
G37*
%TD*%
%TO.C,LED4*%
G36*
G01*
X95393000Y-83786000D02*
X95393000Y-82536000D01*
G75*
G02*
X95643000Y-82286000I250000J0D01*
G01*
X96568000Y-82286000D01*
G75*
G02*
X96818000Y-82536000I0J-250000D01*
G01*
X96818000Y-83786000D01*
G75*
G02*
X96568000Y-84036000I-250000J0D01*
G01*
X95643000Y-84036000D01*
G75*
G02*
X95393000Y-83786000I0J250000D01*
G01*
G37*
G36*
G01*
X92418000Y-83786000D02*
X92418000Y-82536000D01*
G75*
G02*
X92668000Y-82286000I250000J0D01*
G01*
X93593000Y-82286000D01*
G75*
G02*
X93843000Y-82536000I0J-250000D01*
G01*
X93843000Y-83786000D01*
G75*
G02*
X93593000Y-84036000I-250000J0D01*
G01*
X92668000Y-84036000D01*
G75*
G02*
X92418000Y-83786000I0J250000D01*
G01*
G37*
%TD*%
%TO.C,LED3*%
G36*
G01*
X175403000Y-27843000D02*
X175403000Y-26593000D01*
G75*
G02*
X175653000Y-26343000I250000J0D01*
G01*
X176578000Y-26343000D01*
G75*
G02*
X176828000Y-26593000I0J-250000D01*
G01*
X176828000Y-27843000D01*
G75*
G02*
X176578000Y-28093000I-250000J0D01*
G01*
X175653000Y-28093000D01*
G75*
G02*
X175403000Y-27843000I0J250000D01*
G01*
G37*
G36*
G01*
X172428000Y-27843000D02*
X172428000Y-26593000D01*
G75*
G02*
X172678000Y-26343000I250000J0D01*
G01*
X173603000Y-26343000D01*
G75*
G02*
X173853000Y-26593000I0J-250000D01*
G01*
X173853000Y-27843000D01*
G75*
G02*
X173603000Y-28093000I-250000J0D01*
G01*
X172678000Y-28093000D01*
G75*
G02*
X172428000Y-27843000I0J250000D01*
G01*
G37*
%TD*%
%TO.C,LED2*%
G36*
G01*
X175403000Y-23525000D02*
X175403000Y-22275000D01*
G75*
G02*
X175653000Y-22025000I250000J0D01*
G01*
X176578000Y-22025000D01*
G75*
G02*
X176828000Y-22275000I0J-250000D01*
G01*
X176828000Y-23525000D01*
G75*
G02*
X176578000Y-23775000I-250000J0D01*
G01*
X175653000Y-23775000D01*
G75*
G02*
X175403000Y-23525000I0J250000D01*
G01*
G37*
G36*
G01*
X172428000Y-23525000D02*
X172428000Y-22275000D01*
G75*
G02*
X172678000Y-22025000I250000J0D01*
G01*
X173603000Y-22025000D01*
G75*
G02*
X173853000Y-22275000I0J-250000D01*
G01*
X173853000Y-23525000D01*
G75*
G02*
X173603000Y-23775000I-250000J0D01*
G01*
X172678000Y-23775000D01*
G75*
G02*
X172428000Y-23525000I0J250000D01*
G01*
G37*
%TD*%
%TO.C,LED1*%
G36*
G01*
X153660000Y-99295000D02*
X153660000Y-100545000D01*
G75*
G02*
X153410000Y-100795000I-250000J0D01*
G01*
X152485000Y-100795000D01*
G75*
G02*
X152235000Y-100545000I0J250000D01*
G01*
X152235000Y-99295000D01*
G75*
G02*
X152485000Y-99045000I250000J0D01*
G01*
X153410000Y-99045000D01*
G75*
G02*
X153660000Y-99295000I0J-250000D01*
G01*
G37*
G36*
G01*
X156635000Y-99295000D02*
X156635000Y-100545000D01*
G75*
G02*
X156385000Y-100795000I-250000J0D01*
G01*
X155460000Y-100795000D01*
G75*
G02*
X155210000Y-100545000I0J250000D01*
G01*
X155210000Y-99295000D01*
G75*
G02*
X155460000Y-99045000I250000J0D01*
G01*
X156385000Y-99045000D01*
G75*
G02*
X156635000Y-99295000I0J-250000D01*
G01*
G37*
%TD*%
%TO.C,LED0*%
G36*
G01*
X153660000Y-95485000D02*
X153660000Y-96735000D01*
G75*
G02*
X153410000Y-96985000I-250000J0D01*
G01*
X152485000Y-96985000D01*
G75*
G02*
X152235000Y-96735000I0J250000D01*
G01*
X152235000Y-95485000D01*
G75*
G02*
X152485000Y-95235000I250000J0D01*
G01*
X153410000Y-95235000D01*
G75*
G02*
X153660000Y-95485000I0J-250000D01*
G01*
G37*
G36*
G01*
X156635000Y-95485000D02*
X156635000Y-96735000D01*
G75*
G02*
X156385000Y-96985000I-250000J0D01*
G01*
X155460000Y-96985000D01*
G75*
G02*
X155210000Y-96735000I0J250000D01*
G01*
X155210000Y-95485000D01*
G75*
G02*
X155460000Y-95235000I250000J0D01*
G01*
X156385000Y-95235000D01*
G75*
G02*
X156635000Y-95485000I0J-250000D01*
G01*
G37*
%TD*%
D17*
%TO.C,H1*%
X100921400Y-105295612D03*
%TD*%
%TO.C,H3*%
X106897000Y-69033136D03*
%TD*%
%TO.C,H2*%
X117897000Y-69033136D03*
%TD*%
%TO.C,H5*%
X139830000Y-111985000D03*
%TD*%
%TO.C,H4*%
X130186002Y-69536000D03*
%TD*%
D24*
%TO.C,JP0*%
X143640000Y-87220000D03*
D25*
X143640000Y-89760000D03*
X143640000Y-92300000D03*
%TD*%
D17*
%TO.C,H7*%
X183186000Y-111985000D03*
%TD*%
D25*
%TO.C,PCB0*%
X134750000Y-92300000D03*
X132210000Y-92300000D03*
X137290000Y-92300000D03*
X139830000Y-92300000D03*
X129670000Y-92300000D03*
X129670000Y-89760000D03*
X132210000Y-89760000D03*
X134750000Y-89760000D03*
X137290000Y-89760000D03*
X139830000Y-89760000D03*
X129670000Y-87220000D03*
X132210000Y-87220000D03*
X134750000Y-87220000D03*
X137290000Y-87220000D03*
D24*
X139830000Y-87220000D03*
%TD*%
D17*
%TO.C,H6*%
X183186000Y-69536000D03*
%TD*%
D26*
%TO.C,J1*%
X147955000Y-39497000D03*
G36*
G01*
X149505000Y-44207000D02*
X146405000Y-44207000D01*
G75*
G02*
X146155000Y-43957000I0J250000D01*
G01*
X146155000Y-42657000D01*
G75*
G02*
X146405000Y-42407000I250000J0D01*
G01*
X149505000Y-42407000D01*
G75*
G02*
X149755000Y-42657000I0J-250000D01*
G01*
X149755000Y-43957000D01*
G75*
G02*
X149505000Y-44207000I-250000J0D01*
G01*
G37*
%TD*%
D27*
%TO.C,H4*%
X182245000Y-55245000D03*
%TD*%
%TO.C,H3*%
X182245000Y-40005000D03*
%TD*%
%TO.C,H2*%
X139065000Y-55245000D03*
%TD*%
%TO.C,H1*%
X139065000Y-40005000D03*
%TD*%
D28*
%TO.C,J10*%
X175220000Y-47625000D03*
G36*
G01*
X171870000Y-48375000D02*
X171870000Y-46875000D01*
G75*
G02*
X172120000Y-46625000I250000J0D01*
G01*
X173320000Y-46625000D01*
G75*
G02*
X173570000Y-46875000I0J-250000D01*
G01*
X173570000Y-48375000D01*
G75*
G02*
X173320000Y-48625000I-250000J0D01*
G01*
X172120000Y-48625000D01*
G75*
G02*
X171870000Y-48375000I0J250000D01*
G01*
G37*
%TD*%
%TO.C,J7*%
X166330000Y-47625000D03*
G36*
G01*
X162980000Y-48375000D02*
X162980000Y-46875000D01*
G75*
G02*
X163230000Y-46625000I250000J0D01*
G01*
X164430000Y-46625000D01*
G75*
G02*
X164680000Y-46875000I0J-250000D01*
G01*
X164680000Y-48375000D01*
G75*
G02*
X164430000Y-48625000I-250000J0D01*
G01*
X163230000Y-48625000D01*
G75*
G02*
X162980000Y-48375000I0J250000D01*
G01*
G37*
%TD*%
%TO.C,J4*%
X157440000Y-54610000D03*
G36*
G01*
X154090000Y-55360000D02*
X154090000Y-53860000D01*
G75*
G02*
X154340000Y-53610000I250000J0D01*
G01*
X155540000Y-53610000D01*
G75*
G02*
X155790000Y-53860000I0J-250000D01*
G01*
X155790000Y-55360000D01*
G75*
G02*
X155540000Y-55610000I-250000J0D01*
G01*
X154340000Y-55610000D01*
G75*
G02*
X154090000Y-55360000I0J250000D01*
G01*
G37*
%TD*%
D29*
%TO.C,C3*%
X149820000Y-55880000D03*
D30*
X147320000Y-55880000D03*
%TD*%
D29*
%TO.C,C2*%
X146010000Y-50165000D03*
D30*
X143510000Y-50165000D03*
%TD*%
D29*
%TO.C,C1*%
X139660000Y-46990000D03*
D30*
X137160000Y-46990000D03*
%TD*%
D28*
%TO.C,J9*%
X175220000Y-54610000D03*
G36*
G01*
X171870000Y-55360000D02*
X171870000Y-53860000D01*
G75*
G02*
X172120000Y-53610000I250000J0D01*
G01*
X173320000Y-53610000D01*
G75*
G02*
X173570000Y-53860000I0J-250000D01*
G01*
X173570000Y-55360000D01*
G75*
G02*
X173320000Y-55610000I-250000J0D01*
G01*
X172120000Y-55610000D01*
G75*
G02*
X171870000Y-55360000I0J250000D01*
G01*
G37*
%TD*%
%TO.C,J8*%
X172760000Y-41275000D03*
G36*
G01*
X176110000Y-40525000D02*
X176110000Y-42025000D01*
G75*
G02*
X175860000Y-42275000I-250000J0D01*
G01*
X174660000Y-42275000D01*
G75*
G02*
X174410000Y-42025000I0J250000D01*
G01*
X174410000Y-40525000D01*
G75*
G02*
X174660000Y-40275000I250000J0D01*
G01*
X175860000Y-40275000D01*
G75*
G02*
X176110000Y-40525000I0J-250000D01*
G01*
G37*
%TD*%
%TO.C,J6*%
X166330000Y-54610000D03*
G36*
G01*
X162980000Y-55360000D02*
X162980000Y-53860000D01*
G75*
G02*
X163230000Y-53610000I250000J0D01*
G01*
X164430000Y-53610000D01*
G75*
G02*
X164680000Y-53860000I0J-250000D01*
G01*
X164680000Y-55360000D01*
G75*
G02*
X164430000Y-55610000I-250000J0D01*
G01*
X163230000Y-55610000D01*
G75*
G02*
X162980000Y-55360000I0J250000D01*
G01*
G37*
%TD*%
%TO.C,J5*%
X163870000Y-41275000D03*
G36*
G01*
X167220000Y-40525000D02*
X167220000Y-42025000D01*
G75*
G02*
X166970000Y-42275000I-250000J0D01*
G01*
X165770000Y-42275000D01*
G75*
G02*
X165520000Y-42025000I0J250000D01*
G01*
X165520000Y-40525000D01*
G75*
G02*
X165770000Y-40275000I250000J0D01*
G01*
X166970000Y-40275000D01*
G75*
G02*
X167220000Y-40525000I0J-250000D01*
G01*
G37*
%TD*%
%TO.C,J3*%
X157440000Y-47625000D03*
G36*
G01*
X154090000Y-48375000D02*
X154090000Y-46875000D01*
G75*
G02*
X154340000Y-46625000I250000J0D01*
G01*
X155540000Y-46625000D01*
G75*
G02*
X155790000Y-46875000I0J-250000D01*
G01*
X155790000Y-48375000D01*
G75*
G02*
X155540000Y-48625000I-250000J0D01*
G01*
X154340000Y-48625000D01*
G75*
G02*
X154090000Y-48375000I0J250000D01*
G01*
G37*
%TD*%
%TO.C,J2*%
X154980000Y-41275000D03*
G36*
G01*
X158330000Y-40525000D02*
X158330000Y-42025000D01*
G75*
G02*
X158080000Y-42275000I-250000J0D01*
G01*
X156880000Y-42275000D01*
G75*
G02*
X156630000Y-42025000I0J250000D01*
G01*
X156630000Y-40525000D01*
G75*
G02*
X156880000Y-40275000I250000J0D01*
G01*
X158080000Y-40275000D01*
G75*
G02*
X158330000Y-40525000I0J-250000D01*
G01*
G37*
%TD*%
D25*
%TO.C,ax17*%
X109773000Y-48317000D03*
X109773000Y-45777000D03*
X109773000Y-43237000D03*
X109773000Y-40697000D03*
X109773000Y-38157000D03*
X109773000Y-35617000D03*
X109773000Y-33077000D03*
X109773000Y-30537000D03*
X109773000Y-27997000D03*
D24*
X109773000Y-25457000D03*
%TD*%
D25*
%TO.C,ax13*%
X119933000Y-48317000D03*
X119933000Y-45777000D03*
X119933000Y-43237000D03*
X119933000Y-40697000D03*
X119933000Y-38157000D03*
X119933000Y-35617000D03*
X119933000Y-33077000D03*
X119933000Y-30537000D03*
X119933000Y-27997000D03*
D24*
X119933000Y-25457000D03*
%TD*%
D12*
%TO.C,ax16*%
X121905000Y-55330000D03*
X107705000Y-55330000D03*
%TD*%
D11*
%TO.C,ax15*%
X105305000Y-52790000D03*
X106305000Y-52790000D03*
X107305000Y-52790000D03*
X108305000Y-52790000D03*
X109305000Y-52790000D03*
X110305000Y-52790000D03*
X111305000Y-52790000D03*
X112305000Y-52790000D03*
X113305000Y-52790000D03*
X114305000Y-52790000D03*
X115305000Y-52790000D03*
X116305000Y-52790000D03*
X117305000Y-52790000D03*
X118305000Y-52790000D03*
X119305000Y-52790000D03*
X120305000Y-52790000D03*
X121305000Y-52790000D03*
X122305000Y-52790000D03*
X123305000Y-52790000D03*
X124305000Y-52790000D03*
D12*
X102705000Y-55330000D03*
X126905000Y-55330000D03*
%TD*%
M02*
