%TF.GenerationSoftware,KiCad,Pcbnew,(5.1.9)-1*%
%TF.CreationDate,2021-02-18T14:59:33+00:00*%
%TF.ProjectId,c-boards_assy_final,632d626f-6172-4647-935f-617373795f66,rev?*%
%TF.SameCoordinates,Original*%
%TF.FileFunction,Copper,L1,Top*%
%TF.FilePolarity,Positive*%
%FSLAX46Y46*%
G04 Gerber Fmt 4.6, Leading zero omitted, Abs format (unit mm)*
G04 Created by KiCad (PCBNEW (5.1.9)-1) date 2021-02-18 14:59:33*
%MOMM*%
%LPD*%
G01*
G04 APERTURE LIST*
%TA.AperFunction,SMDPad,CuDef*%
%ADD10R,0.600000X1.800000*%
%TD*%
%TA.AperFunction,ComponentPad*%
%ADD11R,2.200000X2.500000*%
%TD*%
%TA.AperFunction,SMDPad,CuDef*%
%ADD12R,1.800000X0.600000*%
%TD*%
%TA.AperFunction,ComponentPad*%
%ADD13R,2.500000X2.200000*%
%TD*%
%TA.AperFunction,ComponentPad*%
%ADD14C,2.000000*%
%TD*%
%TA.AperFunction,ComponentPad*%
%ADD15C,0.100000*%
%TD*%
%TA.AperFunction,SMDPad,CuDef*%
%ADD16R,1.200000X0.650000*%
%TD*%
%TA.AperFunction,SMDPad,CuDef*%
%ADD17R,1.900000X1.100000*%
%TD*%
%TA.AperFunction,SMDPad,CuDef*%
%ADD18R,3.000000X0.700000*%
%TD*%
%TA.AperFunction,SMDPad,CuDef*%
%ADD19R,1.100000X1.900000*%
%TD*%
%TA.AperFunction,SMDPad,CuDef*%
%ADD20R,0.700000X3.000000*%
%TD*%
%TA.AperFunction,ComponentPad*%
%ADD21O,1.950000X1.700000*%
%TD*%
%TA.AperFunction,ComponentPad*%
%ADD22O,1.700000X1.950000*%
%TD*%
%TA.AperFunction,ComponentPad*%
%ADD23R,1.700000X1.700000*%
%TD*%
%TA.AperFunction,ComponentPad*%
%ADD24O,1.700000X1.700000*%
%TD*%
%TA.AperFunction,ComponentPad*%
%ADD25O,3.600000X1.800000*%
%TD*%
%TA.AperFunction,ComponentPad*%
%ADD26O,1.700000X2.000000*%
%TD*%
%TA.AperFunction,ComponentPad*%
%ADD27C,1.600000*%
%TD*%
%TA.AperFunction,ComponentPad*%
%ADD28R,1.600000X1.600000*%
%TD*%
%TA.AperFunction,ViaPad*%
%ADD29C,0.800000*%
%TD*%
%TA.AperFunction,ViaPad*%
%ADD30C,3.000000*%
%TD*%
%TA.AperFunction,ViaPad*%
%ADD31C,1.200000*%
%TD*%
%TA.AperFunction,Conductor*%
%ADD32C,1.500000*%
%TD*%
%TA.AperFunction,Conductor*%
%ADD33C,0.400000*%
%TD*%
%TA.AperFunction,Conductor*%
%ADD34C,0.700000*%
%TD*%
%TA.AperFunction,Conductor*%
%ADD35C,0.300000*%
%TD*%
%TA.AperFunction,Conductor*%
%ADD36C,1.000000*%
%TD*%
%TA.AperFunction,Conductor*%
%ADD37C,0.254000*%
%TD*%
%TA.AperFunction,Conductor*%
%ADD38C,0.100000*%
%TD*%
G04 APERTURE END LIST*
D10*
%TO.P,J1,1*%
%TO.N,/HEATLED-*%
X171555000Y-73948500D03*
%TO.P,J1,2*%
%TO.N,/PROBELED-*%
X170555000Y-73948500D03*
%TO.P,J1,3*%
%TO.N,Net-(J1-Pad3)*%
X169555000Y-73948500D03*
%TO.P,J1,4*%
%TO.N,/THERM_OUT*%
X168555000Y-73948500D03*
%TO.P,J1,5*%
%TO.N,GND1*%
X167555000Y-73948500D03*
%TO.P,J1,6*%
%TO.N,/AUX1*%
X166555000Y-73948500D03*
%TO.P,J1,7*%
%TO.N,/V_AUX1*%
X165555000Y-73948500D03*
%TO.P,J1,8*%
%TO.N,/AUX0*%
X164555000Y-73948500D03*
%TO.P,J1,9*%
%TO.N,/V_AUX0*%
X163555000Y-73948500D03*
%TO.P,J1,10*%
%TO.N,+3V3*%
X162555000Y-73948500D03*
%TO.P,J1,11*%
%TO.N,GND*%
X161555000Y-73948500D03*
%TO.P,J1,12*%
X160555000Y-73948500D03*
%TO.P,J1,13*%
%TO.N,/HEATER_OUT*%
X159555000Y-73948500D03*
%TO.P,J1,14*%
X158555000Y-73948500D03*
%TO.P,J1,15*%
%TO.N,+24V*%
X157555000Y-73948500D03*
%TO.P,J1,16*%
X156555000Y-73948500D03*
%TO.P,J1,17*%
%TO.N,/1A*%
X155555000Y-73948500D03*
%TO.P,J1,18*%
%TO.N,/2A*%
X154555000Y-73948500D03*
%TO.P,J1,19*%
%TO.N,/2B*%
X153555000Y-73948500D03*
%TO.P,J1,20*%
%TO.N,/1B*%
X152555000Y-73948500D03*
D11*
%TO.P,J1,21*%
%TO.N,Net-(J1-Pad21)*%
X174155000Y-71408500D03*
%TO.P,J1,22*%
%TO.N,Net-(J1-Pad22)*%
X149955000Y-71408500D03*
%TD*%
D10*
%TO.P,J11,1*%
%TO.N,/1B_1*%
X115397000Y-79233136D03*
%TO.P,J11,2*%
%TO.N,/2B_1*%
X114397000Y-79233136D03*
%TO.P,J11,3*%
%TO.N,/2A_1*%
X113397000Y-79233136D03*
%TO.P,J11,4*%
%TO.N,/1A_1*%
X112397000Y-79233136D03*
%TO.P,J11,5*%
%TO.N,/24V_1*%
X111397000Y-79233136D03*
%TO.P,J11,6*%
X110397000Y-79233136D03*
%TO.P,J11,7*%
%TO.N,/HEATER_OUT_1*%
X109397000Y-79233136D03*
%TO.P,J11,8*%
X108397000Y-79233136D03*
%TO.P,J11,9*%
%TO.N,/GND_1*%
X107397000Y-79233136D03*
%TO.P,J11,10*%
X106397000Y-79233136D03*
%TO.P,J11,11*%
%TO.N,/3V3_1*%
X105397000Y-79233136D03*
%TO.P,J11,12*%
%TO.N,/V_AUX0_1*%
X104397000Y-79233136D03*
%TO.P,J11,13*%
%TO.N,/AUX0_1*%
X103397000Y-79233136D03*
%TO.P,J11,14*%
%TO.N,/V_AUX1_1*%
X102397000Y-79233136D03*
%TO.P,J11,15*%
%TO.N,/AUX1_1*%
X101397000Y-79233136D03*
%TO.P,J11,16*%
%TO.N,/GND1_1*%
X100397000Y-79233136D03*
%TO.P,J11,17*%
%TO.N,/THERM_OUT_1*%
X99397000Y-79233136D03*
%TO.P,J11,18*%
%TO.N,Net-(J11-Pad18)*%
X98397000Y-79233136D03*
%TO.P,J11,19*%
%TO.N,/PROBELED-_1*%
X97397000Y-79233136D03*
%TO.P,J11,20*%
%TO.N,/HEATLED-_1*%
X96397000Y-79233136D03*
D11*
%TO.P,J11,21*%
%TO.N,Net-(J11-Pad21)*%
X117997000Y-76693136D03*
%TO.P,J11,22*%
%TO.N,Net-(J11-Pad22)*%
X93797000Y-76693136D03*
%TD*%
D12*
%TO.P,J0,1*%
%TO.N,/1B*%
X174755000Y-98561500D03*
%TO.P,J0,2*%
%TO.N,/2B*%
X174755000Y-97561500D03*
%TO.P,J0,3*%
%TO.N,/2A*%
X174755000Y-96561500D03*
%TO.P,J0,4*%
%TO.N,/1A*%
X174755000Y-95561500D03*
%TO.P,J0,5*%
%TO.N,+24V*%
X174755000Y-94561500D03*
%TO.P,J0,6*%
X174755000Y-93561500D03*
%TO.P,J0,7*%
%TO.N,/HEATER_OUT*%
X174755000Y-92561500D03*
%TO.P,J0,8*%
X174755000Y-91561500D03*
%TO.P,J0,9*%
%TO.N,GND*%
X174755000Y-90561500D03*
%TO.P,J0,10*%
X174755000Y-89561500D03*
%TO.P,J0,11*%
%TO.N,+3V3*%
X174755000Y-88561500D03*
%TO.P,J0,12*%
%TO.N,/V_AUX0*%
X174755000Y-87561500D03*
%TO.P,J0,13*%
%TO.N,/AUX0*%
X174755000Y-86561500D03*
%TO.P,J0,14*%
%TO.N,/V_AUX1*%
X174755000Y-85561500D03*
%TO.P,J0,15*%
%TO.N,/AUX1*%
X174755000Y-84561500D03*
%TO.P,J0,16*%
%TO.N,/V_AUX2*%
X174755000Y-83561500D03*
%TO.P,J0,17*%
%TO.N,/AUX2*%
X174755000Y-82561500D03*
%TO.P,J0,18*%
%TO.N,GND1*%
X174755000Y-81561500D03*
%TO.P,J0,19*%
%TO.N,/THERM_OUT*%
X174755000Y-80561500D03*
%TO.P,J0,20*%
%TO.N,/PROBE*%
X174755000Y-79561500D03*
D13*
%TO.P,J0,21*%
%TO.N,Net-(J0-Pad21)*%
X177295000Y-101161500D03*
%TO.P,J0,22*%
%TO.N,Net-(J0-Pad22)*%
X177295000Y-76961500D03*
%TD*%
D14*
%TO.P,J14,12*%
%TO.N,/GND1_1*%
X109039058Y-97629771D03*
%TO.P,J14,10*%
%TO.N,/THERM_OUT_1*%
X110309058Y-95430066D03*
%TO.P,J14,8*%
%TO.N,/AUX0_1*%
X111579058Y-93230362D03*
%TO.P,J14,6*%
%TO.N,/V_AUX0_1*%
X112849058Y-91030657D03*
%TO.P,J14,4*%
%TO.N,/1B_1*%
X114119058Y-88830953D03*
%TO.P,J14,11*%
%TO.N,/3V3_1*%
X106839353Y-96359771D03*
%TO.P,J14,9*%
%TO.N,/GND_1*%
X108109353Y-94160066D03*
%TO.P,J14,7*%
%TO.N,/HEATER_OUT_1*%
X109379353Y-91960362D03*
%TO.P,J14,5*%
%TO.N,/24V_1*%
X110649353Y-89760657D03*
%TO.P,J14,3*%
%TO.N,/1A_1*%
X111919353Y-87560953D03*
%TA.AperFunction,ComponentPad*%
D15*
%TO.P,J14,1*%
%TO.N,/2A_1*%
G36*
X112823328Y-83995223D02*
G01*
X114555378Y-84995223D01*
X113555378Y-86727273D01*
X111823328Y-85727273D01*
X112823328Y-83995223D01*
G37*
%TD.AperFunction*%
D14*
%TO.P,J14,2*%
%TO.N,/2B_1*%
X115389058Y-86631248D03*
%TD*%
D16*
%TO.P,Q1,1*%
%TO.N,Net-(Q1-Pad1)*%
X141955000Y-81180000D03*
%TO.P,Q1,2*%
%TO.N,+3V3*%
X141955000Y-83100000D03*
%TO.P,Q1,3*%
%TO.N,Net-(Q1-Pad3)*%
X144055000Y-82140000D03*
%TD*%
%TO.P,R4,2*%
%TO.N,GND*%
%TA.AperFunction,SMDPad,CuDef*%
G36*
G01*
X140700000Y-75339999D02*
X140700000Y-76240001D01*
G75*
G02*
X140450001Y-76490000I-249999J0D01*
G01*
X139749999Y-76490000D01*
G75*
G02*
X139500000Y-76240001I0J249999D01*
G01*
X139500000Y-75339999D01*
G75*
G02*
X139749999Y-75090000I249999J0D01*
G01*
X140450001Y-75090000D01*
G75*
G02*
X140700000Y-75339999I0J-249999D01*
G01*
G37*
%TD.AperFunction*%
%TO.P,R4,1*%
%TO.N,Net-(Q1-Pad3)*%
%TA.AperFunction,SMDPad,CuDef*%
G36*
G01*
X142700000Y-75339999D02*
X142700000Y-76240001D01*
G75*
G02*
X142450001Y-76490000I-249999J0D01*
G01*
X141749999Y-76490000D01*
G75*
G02*
X141500000Y-76240001I0J249999D01*
G01*
X141500000Y-75339999D01*
G75*
G02*
X141749999Y-75090000I249999J0D01*
G01*
X142450001Y-75090000D01*
G75*
G02*
X142700000Y-75339999I0J-249999D01*
G01*
G37*
%TD.AperFunction*%
%TD*%
%TO.P,Q2,1*%
%TO.N,Net-(Q1-Pad3)*%
X146400000Y-81180000D03*
%TO.P,Q2,2*%
%TO.N,GND*%
X146400000Y-83100000D03*
%TO.P,Q2,3*%
%TO.N,Net-(Q2-Pad3)*%
X148500000Y-82140000D03*
%TD*%
D17*
%TO.P,J8,4*%
%TO.N,N/C*%
X128214000Y-107900000D03*
%TO.P,J8,3*%
X128214000Y-113300000D03*
D18*
%TO.P,J8,2*%
%TO.N,/PZ+*%
X132464000Y-109850000D03*
%TO.P,J8,1*%
%TO.N,/PZ-*%
X132464000Y-111350000D03*
%TD*%
D17*
%TO.P,J7,4*%
%TO.N,N/C*%
X128214000Y-99137000D03*
%TO.P,J7,3*%
X128214000Y-104537000D03*
D18*
%TO.P,J7,2*%
%TO.N,/PZ+*%
X132464000Y-101087000D03*
%TO.P,J7,1*%
%TO.N,/PZ-*%
X132464000Y-102587000D03*
%TD*%
D19*
%TO.P,J3,6*%
%TO.N,N/C*%
X145010000Y-67730000D03*
%TO.P,J3,5*%
X136610000Y-67730000D03*
D20*
%TO.P,J3,4*%
%TO.N,+3V3*%
X143060000Y-71980000D03*
%TO.P,J3,3*%
%TO.N,/PROBELED-*%
X141560000Y-71980000D03*
%TO.P,J3,2*%
%TO.N,/HEATLED-*%
X140060000Y-71980000D03*
%TO.P,J3,1*%
%TO.N,Net-(J3-Pad1)*%
X138560000Y-71980000D03*
%TD*%
D17*
%TO.P,J10,6*%
%TO.N,N/C*%
X185228000Y-29223000D03*
%TO.P,J10,5*%
X185228000Y-20823000D03*
D18*
%TO.P,J10,4*%
%TO.N,Net-(J10-Pad4)*%
X180978000Y-27273000D03*
%TO.P,J10,3*%
%TO.N,Net-(J10-Pad3)*%
X180978000Y-25773000D03*
%TO.P,J10,2*%
%TO.N,Net-(J10-Pad2)*%
X180978000Y-24273000D03*
%TO.P,J10,1*%
%TO.N,Net-(J10-Pad1)*%
X180978000Y-22773000D03*
%TD*%
D21*
%TO.P,J2,3*%
%TO.N,Net-(J2-Pad3)*%
X136020000Y-82060000D03*
%TO.P,J2,2*%
%TO.N,+3V3*%
X136020000Y-79560000D03*
%TO.P,J2,1*%
%TO.N,GND*%
%TA.AperFunction,ComponentPad*%
G36*
G01*
X135295000Y-76210000D02*
X136745000Y-76210000D01*
G75*
G02*
X136995000Y-76460000I0J-250000D01*
G01*
X136995000Y-77660000D01*
G75*
G02*
X136745000Y-77910000I-250000J0D01*
G01*
X135295000Y-77910000D01*
G75*
G02*
X135045000Y-77660000I0J250000D01*
G01*
X135045000Y-76460000D01*
G75*
G02*
X135295000Y-76210000I250000J0D01*
G01*
G37*
%TD.AperFunction*%
%TD*%
D22*
%TO.P,J6,3*%
%TO.N,/V_AUX2*%
X173151000Y-106651000D03*
%TO.P,J6,2*%
%TO.N,/AUX2*%
X170651000Y-106651000D03*
%TO.P,J6,1*%
%TO.N,GND*%
%TA.AperFunction,ComponentPad*%
G36*
G01*
X167301000Y-107376000D02*
X167301000Y-105926000D01*
G75*
G02*
X167551000Y-105676000I250000J0D01*
G01*
X168751000Y-105676000D01*
G75*
G02*
X169001000Y-105926000I0J-250000D01*
G01*
X169001000Y-107376000D01*
G75*
G02*
X168751000Y-107626000I-250000J0D01*
G01*
X167551000Y-107626000D01*
G75*
G02*
X167301000Y-107376000I0J250000D01*
G01*
G37*
%TD.AperFunction*%
%TD*%
%TO.P,J5,3*%
%TO.N,/V_AUX1*%
X161721000Y-106651000D03*
%TO.P,J5,2*%
%TO.N,/AUX1*%
X159221000Y-106651000D03*
%TO.P,J5,1*%
%TO.N,GND*%
%TA.AperFunction,ComponentPad*%
G36*
G01*
X155871000Y-107376000D02*
X155871000Y-105926000D01*
G75*
G02*
X156121000Y-105676000I250000J0D01*
G01*
X157321000Y-105676000D01*
G75*
G02*
X157571000Y-105926000I0J-250000D01*
G01*
X157571000Y-107376000D01*
G75*
G02*
X157321000Y-107626000I-250000J0D01*
G01*
X156121000Y-107626000D01*
G75*
G02*
X155871000Y-107376000I0J250000D01*
G01*
G37*
%TD.AperFunction*%
%TD*%
%TO.P,J4,3*%
%TO.N,/V_AUX0*%
X150291000Y-106651000D03*
%TO.P,J4,2*%
%TO.N,/AUX0*%
X147791000Y-106651000D03*
%TO.P,J4,1*%
%TO.N,GND*%
%TA.AperFunction,ComponentPad*%
G36*
G01*
X144441000Y-107376000D02*
X144441000Y-105926000D01*
G75*
G02*
X144691000Y-105676000I250000J0D01*
G01*
X145891000Y-105676000D01*
G75*
G02*
X146141000Y-105926000I0J-250000D01*
G01*
X146141000Y-107376000D01*
G75*
G02*
X145891000Y-107626000I-250000J0D01*
G01*
X144691000Y-107626000D01*
G75*
G02*
X144441000Y-107376000I0J250000D01*
G01*
G37*
%TD.AperFunction*%
%TD*%
D16*
%TO.P,Q0,1*%
%TO.N,/PROBE*%
X143860000Y-95150000D03*
%TO.P,Q0,2*%
%TO.N,GND*%
X143860000Y-97070000D03*
%TO.P,Q0,3*%
%TO.N,Net-(Q0-Pad3)*%
X145960000Y-96110000D03*
%TD*%
%TO.P,R3,2*%
%TO.N,GND*%
%TA.AperFunction,SMDPad,CuDef*%
G36*
G01*
X144764000Y-78895999D02*
X144764000Y-79796001D01*
G75*
G02*
X144514001Y-80046000I-249999J0D01*
G01*
X143813999Y-80046000D01*
G75*
G02*
X143564000Y-79796001I0J249999D01*
G01*
X143564000Y-78895999D01*
G75*
G02*
X143813999Y-78646000I249999J0D01*
G01*
X144514001Y-78646000D01*
G75*
G02*
X144764000Y-78895999I0J-249999D01*
G01*
G37*
%TD.AperFunction*%
%TO.P,R3,1*%
%TO.N,Net-(Q1-Pad1)*%
%TA.AperFunction,SMDPad,CuDef*%
G36*
G01*
X146764000Y-78895999D02*
X146764000Y-79796001D01*
G75*
G02*
X146514001Y-80046000I-249999J0D01*
G01*
X145813999Y-80046000D01*
G75*
G02*
X145564000Y-79796001I0J249999D01*
G01*
X145564000Y-78895999D01*
G75*
G02*
X145813999Y-78646000I249999J0D01*
G01*
X146514001Y-78646000D01*
G75*
G02*
X146764000Y-78895999I0J-249999D01*
G01*
G37*
%TD.AperFunction*%
%TD*%
%TO.P,R2,2*%
%TO.N,Net-(Q1-Pad1)*%
%TA.AperFunction,SMDPad,CuDef*%
G36*
G01*
X145564000Y-78018001D02*
X145564000Y-77117999D01*
G75*
G02*
X145813999Y-76868000I249999J0D01*
G01*
X146514001Y-76868000D01*
G75*
G02*
X146764000Y-77117999I0J-249999D01*
G01*
X146764000Y-78018001D01*
G75*
G02*
X146514001Y-78268000I-249999J0D01*
G01*
X145813999Y-78268000D01*
G75*
G02*
X145564000Y-78018001I0J249999D01*
G01*
G37*
%TD.AperFunction*%
%TO.P,R2,1*%
%TO.N,/HEATER_OUT*%
%TA.AperFunction,SMDPad,CuDef*%
G36*
G01*
X143564000Y-78018001D02*
X143564000Y-77117999D01*
G75*
G02*
X143813999Y-76868000I249999J0D01*
G01*
X144514001Y-76868000D01*
G75*
G02*
X144764000Y-77117999I0J-249999D01*
G01*
X144764000Y-78018001D01*
G75*
G02*
X144514001Y-78268000I-249999J0D01*
G01*
X143813999Y-78268000D01*
G75*
G02*
X143564000Y-78018001I0J249999D01*
G01*
G37*
%TD.AperFunction*%
%TD*%
%TO.P,R1,2*%
%TO.N,Net-(Q2-Pad3)*%
%TA.AperFunction,SMDPad,CuDef*%
G36*
G01*
X149755000Y-100370001D02*
X149755000Y-99469999D01*
G75*
G02*
X150004999Y-99220000I249999J0D01*
G01*
X150705001Y-99220000D01*
G75*
G02*
X150955000Y-99469999I0J-249999D01*
G01*
X150955000Y-100370001D01*
G75*
G02*
X150705001Y-100620000I-249999J0D01*
G01*
X150004999Y-100620000D01*
G75*
G02*
X149755000Y-100370001I0J249999D01*
G01*
G37*
%TD.AperFunction*%
%TO.P,R1,1*%
%TO.N,/HEATLED-*%
%TA.AperFunction,SMDPad,CuDef*%
G36*
G01*
X147755000Y-100370001D02*
X147755000Y-99469999D01*
G75*
G02*
X148004999Y-99220000I249999J0D01*
G01*
X148705001Y-99220000D01*
G75*
G02*
X148955000Y-99469999I0J-249999D01*
G01*
X148955000Y-100370001D01*
G75*
G02*
X148705001Y-100620000I-249999J0D01*
G01*
X148004999Y-100620000D01*
G75*
G02*
X147755000Y-100370001I0J249999D01*
G01*
G37*
%TD.AperFunction*%
%TD*%
%TO.P,R0,2*%
%TO.N,Net-(Q0-Pad3)*%
%TA.AperFunction,SMDPad,CuDef*%
G36*
G01*
X149755000Y-96560001D02*
X149755000Y-95659999D01*
G75*
G02*
X150004999Y-95410000I249999J0D01*
G01*
X150705001Y-95410000D01*
G75*
G02*
X150955000Y-95659999I0J-249999D01*
G01*
X150955000Y-96560001D01*
G75*
G02*
X150705001Y-96810000I-249999J0D01*
G01*
X150004999Y-96810000D01*
G75*
G02*
X149755000Y-96560001I0J249999D01*
G01*
G37*
%TD.AperFunction*%
%TO.P,R0,1*%
%TO.N,/PROBELED-*%
%TA.AperFunction,SMDPad,CuDef*%
G36*
G01*
X147755000Y-96560001D02*
X147755000Y-95659999D01*
G75*
G02*
X148004999Y-95410000I249999J0D01*
G01*
X148705001Y-95410000D01*
G75*
G02*
X148955000Y-95659999I0J-249999D01*
G01*
X148955000Y-96560001D01*
G75*
G02*
X148705001Y-96810000I-249999J0D01*
G01*
X148004999Y-96810000D01*
G75*
G02*
X147755000Y-96560001I0J249999D01*
G01*
G37*
%TD.AperFunction*%
%TD*%
%TO.P,LED5,2*%
%TO.N,/3V3_1*%
%TA.AperFunction,SMDPad,CuDef*%
G36*
G01*
X95393000Y-86834000D02*
X95393000Y-85584000D01*
G75*
G02*
X95643000Y-85334000I250000J0D01*
G01*
X96568000Y-85334000D01*
G75*
G02*
X96818000Y-85584000I0J-250000D01*
G01*
X96818000Y-86834000D01*
G75*
G02*
X96568000Y-87084000I-250000J0D01*
G01*
X95643000Y-87084000D01*
G75*
G02*
X95393000Y-86834000I0J250000D01*
G01*
G37*
%TD.AperFunction*%
%TO.P,LED5,1*%
%TO.N,/HEATLED-_1*%
%TA.AperFunction,SMDPad,CuDef*%
G36*
G01*
X92418000Y-86834000D02*
X92418000Y-85584000D01*
G75*
G02*
X92668000Y-85334000I250000J0D01*
G01*
X93593000Y-85334000D01*
G75*
G02*
X93843000Y-85584000I0J-250000D01*
G01*
X93843000Y-86834000D01*
G75*
G02*
X93593000Y-87084000I-250000J0D01*
G01*
X92668000Y-87084000D01*
G75*
G02*
X92418000Y-86834000I0J250000D01*
G01*
G37*
%TD.AperFunction*%
%TD*%
%TO.P,LED4,2*%
%TO.N,/3V3_1*%
%TA.AperFunction,SMDPad,CuDef*%
G36*
G01*
X95393000Y-83786000D02*
X95393000Y-82536000D01*
G75*
G02*
X95643000Y-82286000I250000J0D01*
G01*
X96568000Y-82286000D01*
G75*
G02*
X96818000Y-82536000I0J-250000D01*
G01*
X96818000Y-83786000D01*
G75*
G02*
X96568000Y-84036000I-250000J0D01*
G01*
X95643000Y-84036000D01*
G75*
G02*
X95393000Y-83786000I0J250000D01*
G01*
G37*
%TD.AperFunction*%
%TO.P,LED4,1*%
%TO.N,/PROBELED-_1*%
%TA.AperFunction,SMDPad,CuDef*%
G36*
G01*
X92418000Y-83786000D02*
X92418000Y-82536000D01*
G75*
G02*
X92668000Y-82286000I250000J0D01*
G01*
X93593000Y-82286000D01*
G75*
G02*
X93843000Y-82536000I0J-250000D01*
G01*
X93843000Y-83786000D01*
G75*
G02*
X93593000Y-84036000I-250000J0D01*
G01*
X92668000Y-84036000D01*
G75*
G02*
X92418000Y-83786000I0J250000D01*
G01*
G37*
%TD.AperFunction*%
%TD*%
%TO.P,LED3,2*%
%TO.N,Net-(J10-Pad4)*%
%TA.AperFunction,SMDPad,CuDef*%
G36*
G01*
X175403000Y-27843000D02*
X175403000Y-26593000D01*
G75*
G02*
X175653000Y-26343000I250000J0D01*
G01*
X176578000Y-26343000D01*
G75*
G02*
X176828000Y-26593000I0J-250000D01*
G01*
X176828000Y-27843000D01*
G75*
G02*
X176578000Y-28093000I-250000J0D01*
G01*
X175653000Y-28093000D01*
G75*
G02*
X175403000Y-27843000I0J250000D01*
G01*
G37*
%TD.AperFunction*%
%TO.P,LED3,1*%
%TO.N,Net-(J10-Pad2)*%
%TA.AperFunction,SMDPad,CuDef*%
G36*
G01*
X172428000Y-27843000D02*
X172428000Y-26593000D01*
G75*
G02*
X172678000Y-26343000I250000J0D01*
G01*
X173603000Y-26343000D01*
G75*
G02*
X173853000Y-26593000I0J-250000D01*
G01*
X173853000Y-27843000D01*
G75*
G02*
X173603000Y-28093000I-250000J0D01*
G01*
X172678000Y-28093000D01*
G75*
G02*
X172428000Y-27843000I0J250000D01*
G01*
G37*
%TD.AperFunction*%
%TD*%
%TO.P,LED2,2*%
%TO.N,Net-(J10-Pad4)*%
%TA.AperFunction,SMDPad,CuDef*%
G36*
G01*
X175403000Y-23525000D02*
X175403000Y-22275000D01*
G75*
G02*
X175653000Y-22025000I250000J0D01*
G01*
X176578000Y-22025000D01*
G75*
G02*
X176828000Y-22275000I0J-250000D01*
G01*
X176828000Y-23525000D01*
G75*
G02*
X176578000Y-23775000I-250000J0D01*
G01*
X175653000Y-23775000D01*
G75*
G02*
X175403000Y-23525000I0J250000D01*
G01*
G37*
%TD.AperFunction*%
%TO.P,LED2,1*%
%TO.N,Net-(J10-Pad3)*%
%TA.AperFunction,SMDPad,CuDef*%
G36*
G01*
X172428000Y-23525000D02*
X172428000Y-22275000D01*
G75*
G02*
X172678000Y-22025000I250000J0D01*
G01*
X173603000Y-22025000D01*
G75*
G02*
X173853000Y-22275000I0J-250000D01*
G01*
X173853000Y-23525000D01*
G75*
G02*
X173603000Y-23775000I-250000J0D01*
G01*
X172678000Y-23775000D01*
G75*
G02*
X172428000Y-23525000I0J250000D01*
G01*
G37*
%TD.AperFunction*%
%TD*%
%TO.P,LED1,2*%
%TO.N,+3V3*%
%TA.AperFunction,SMDPad,CuDef*%
G36*
G01*
X153660000Y-99295000D02*
X153660000Y-100545000D01*
G75*
G02*
X153410000Y-100795000I-250000J0D01*
G01*
X152485000Y-100795000D01*
G75*
G02*
X152235000Y-100545000I0J250000D01*
G01*
X152235000Y-99295000D01*
G75*
G02*
X152485000Y-99045000I250000J0D01*
G01*
X153410000Y-99045000D01*
G75*
G02*
X153660000Y-99295000I0J-250000D01*
G01*
G37*
%TD.AperFunction*%
%TO.P,LED1,1*%
%TO.N,/HEATLED-*%
%TA.AperFunction,SMDPad,CuDef*%
G36*
G01*
X156635000Y-99295000D02*
X156635000Y-100545000D01*
G75*
G02*
X156385000Y-100795000I-250000J0D01*
G01*
X155460000Y-100795000D01*
G75*
G02*
X155210000Y-100545000I0J250000D01*
G01*
X155210000Y-99295000D01*
G75*
G02*
X155460000Y-99045000I250000J0D01*
G01*
X156385000Y-99045000D01*
G75*
G02*
X156635000Y-99295000I0J-250000D01*
G01*
G37*
%TD.AperFunction*%
%TD*%
%TO.P,LED0,2*%
%TO.N,+3V3*%
%TA.AperFunction,SMDPad,CuDef*%
G36*
G01*
X153660000Y-95485000D02*
X153660000Y-96735000D01*
G75*
G02*
X153410000Y-96985000I-250000J0D01*
G01*
X152485000Y-96985000D01*
G75*
G02*
X152235000Y-96735000I0J250000D01*
G01*
X152235000Y-95485000D01*
G75*
G02*
X152485000Y-95235000I250000J0D01*
G01*
X153410000Y-95235000D01*
G75*
G02*
X153660000Y-95485000I0J-250000D01*
G01*
G37*
%TD.AperFunction*%
%TO.P,LED0,1*%
%TO.N,/PROBELED-*%
%TA.AperFunction,SMDPad,CuDef*%
G36*
G01*
X156635000Y-95485000D02*
X156635000Y-96735000D01*
G75*
G02*
X156385000Y-96985000I-250000J0D01*
G01*
X155460000Y-96985000D01*
G75*
G02*
X155210000Y-96735000I0J250000D01*
G01*
X155210000Y-95485000D01*
G75*
G02*
X155460000Y-95235000I250000J0D01*
G01*
X156385000Y-95235000D01*
G75*
G02*
X156635000Y-95485000I0J-250000D01*
G01*
G37*
%TD.AperFunction*%
%TD*%
D23*
%TO.P,JP0,1*%
%TO.N,Net-(J2-Pad3)*%
X143640000Y-87220000D03*
D24*
%TO.P,JP0,2*%
%TO.N,/PROBE*%
X143640000Y-89760000D03*
%TO.P,JP0,3*%
%TO.N,Net-(JP0-Pad3)*%
X143640000Y-92300000D03*
%TD*%
%TO.P,PCB0,13*%
%TO.N,GND*%
X134750000Y-92300000D03*
%TO.P,PCB0,14*%
%TO.N,/PZ-*%
X132210000Y-92300000D03*
%TO.P,PCB0,12*%
%TO.N,Net-(JP0-Pad3)*%
X137290000Y-92300000D03*
%TO.P,PCB0,11*%
%TO.N,Net-(PCB0-Pad11)*%
X139830000Y-92300000D03*
%TO.P,PCB0,15*%
%TO.N,/PZ+*%
X129670000Y-92300000D03*
%TO.P,PCB0,10*%
X129670000Y-89760000D03*
%TO.P,PCB0,9*%
%TO.N,/PZ-*%
X132210000Y-89760000D03*
%TO.P,PCB0,8*%
%TO.N,GND*%
X134750000Y-89760000D03*
%TO.P,PCB0,7*%
X137290000Y-89760000D03*
%TO.P,PCB0,6*%
X139830000Y-89760000D03*
%TO.P,PCB0,5*%
%TO.N,/PZ+*%
X129670000Y-87220000D03*
%TO.P,PCB0,4*%
%TO.N,/PZ-*%
X132210000Y-87220000D03*
%TO.P,PCB0,3*%
%TO.N,GND*%
X134750000Y-87220000D03*
%TO.P,PCB0,2*%
%TO.N,+3V3*%
X137290000Y-87220000D03*
D23*
%TO.P,PCB0,1*%
X139830000Y-87220000D03*
%TD*%
D25*
%TO.P,J1,2*%
%TO.N,+12V*%
X147955000Y-39497000D03*
%TO.P,J1,1*%
%TO.N,GND*%
%TA.AperFunction,ComponentPad*%
G36*
G01*
X149505000Y-44207000D02*
X146405000Y-44207000D01*
G75*
G02*
X146155000Y-43957000I0J250000D01*
G01*
X146155000Y-42657000D01*
G75*
G02*
X146405000Y-42407000I250000J0D01*
G01*
X149505000Y-42407000D01*
G75*
G02*
X149755000Y-42657000I0J-250000D01*
G01*
X149755000Y-43957000D01*
G75*
G02*
X149505000Y-44207000I-250000J0D01*
G01*
G37*
%TD.AperFunction*%
%TD*%
D26*
%TO.P,J10,2*%
%TO.N,/FAN2_OUT*%
X175220000Y-47625000D03*
%TO.P,J10,1*%
%TO.N,GND*%
%TA.AperFunction,ComponentPad*%
G36*
G01*
X171870000Y-48375000D02*
X171870000Y-46875000D01*
G75*
G02*
X172120000Y-46625000I250000J0D01*
G01*
X173320000Y-46625000D01*
G75*
G02*
X173570000Y-46875000I0J-250000D01*
G01*
X173570000Y-48375000D01*
G75*
G02*
X173320000Y-48625000I-250000J0D01*
G01*
X172120000Y-48625000D01*
G75*
G02*
X171870000Y-48375000I0J250000D01*
G01*
G37*
%TD.AperFunction*%
%TD*%
%TO.P,J7,2*%
%TO.N,/FAN1_OUT*%
X166330000Y-47625000D03*
%TO.P,J7,1*%
%TO.N,GND*%
%TA.AperFunction,ComponentPad*%
G36*
G01*
X162980000Y-48375000D02*
X162980000Y-46875000D01*
G75*
G02*
X163230000Y-46625000I250000J0D01*
G01*
X164430000Y-46625000D01*
G75*
G02*
X164680000Y-46875000I0J-250000D01*
G01*
X164680000Y-48375000D01*
G75*
G02*
X164430000Y-48625000I-250000J0D01*
G01*
X163230000Y-48625000D01*
G75*
G02*
X162980000Y-48375000I0J250000D01*
G01*
G37*
%TD.AperFunction*%
%TD*%
%TO.P,J4,2*%
%TO.N,/FAN0_OUT*%
X157440000Y-54610000D03*
%TO.P,J4,1*%
%TO.N,GND*%
%TA.AperFunction,ComponentPad*%
G36*
G01*
X154090000Y-55360000D02*
X154090000Y-53860000D01*
G75*
G02*
X154340000Y-53610000I250000J0D01*
G01*
X155540000Y-53610000D01*
G75*
G02*
X155790000Y-53860000I0J-250000D01*
G01*
X155790000Y-55360000D01*
G75*
G02*
X155540000Y-55610000I-250000J0D01*
G01*
X154340000Y-55610000D01*
G75*
G02*
X154090000Y-55360000I0J250000D01*
G01*
G37*
%TD.AperFunction*%
%TD*%
D27*
%TO.P,C3,2*%
%TO.N,GND*%
X149820000Y-55880000D03*
D28*
%TO.P,C3,1*%
%TO.N,/FAN2_OUT*%
X147320000Y-55880000D03*
%TD*%
D27*
%TO.P,C2,2*%
%TO.N,GND*%
X146010000Y-50165000D03*
D28*
%TO.P,C2,1*%
%TO.N,/FAN1_OUT*%
X143510000Y-50165000D03*
%TD*%
D27*
%TO.P,C1,2*%
%TO.N,GND*%
X139660000Y-46990000D03*
D28*
%TO.P,C1,1*%
%TO.N,/FAN0_OUT*%
X137160000Y-46990000D03*
%TD*%
D26*
%TO.P,J9,2*%
%TO.N,/FAN2_OUT*%
X175220000Y-54610000D03*
%TO.P,J9,1*%
%TO.N,GND*%
%TA.AperFunction,ComponentPad*%
G36*
G01*
X171870000Y-55360000D02*
X171870000Y-53860000D01*
G75*
G02*
X172120000Y-53610000I250000J0D01*
G01*
X173320000Y-53610000D01*
G75*
G02*
X173570000Y-53860000I0J-250000D01*
G01*
X173570000Y-55360000D01*
G75*
G02*
X173320000Y-55610000I-250000J0D01*
G01*
X172120000Y-55610000D01*
G75*
G02*
X171870000Y-55360000I0J250000D01*
G01*
G37*
%TD.AperFunction*%
%TD*%
%TO.P,J8,2*%
%TO.N,Net-(J8-Pad2)*%
X172760000Y-41275000D03*
%TO.P,J8,1*%
%TO.N,GND*%
%TA.AperFunction,ComponentPad*%
G36*
G01*
X176110000Y-40525000D02*
X176110000Y-42025000D01*
G75*
G02*
X175860000Y-42275000I-250000J0D01*
G01*
X174660000Y-42275000D01*
G75*
G02*
X174410000Y-42025000I0J250000D01*
G01*
X174410000Y-40525000D01*
G75*
G02*
X174660000Y-40275000I250000J0D01*
G01*
X175860000Y-40275000D01*
G75*
G02*
X176110000Y-40525000I0J-250000D01*
G01*
G37*
%TD.AperFunction*%
%TD*%
%TO.P,J6,2*%
%TO.N,/FAN1_OUT*%
X166330000Y-54610000D03*
%TO.P,J6,1*%
%TO.N,GND*%
%TA.AperFunction,ComponentPad*%
G36*
G01*
X162980000Y-55360000D02*
X162980000Y-53860000D01*
G75*
G02*
X163230000Y-53610000I250000J0D01*
G01*
X164430000Y-53610000D01*
G75*
G02*
X164680000Y-53860000I0J-250000D01*
G01*
X164680000Y-55360000D01*
G75*
G02*
X164430000Y-55610000I-250000J0D01*
G01*
X163230000Y-55610000D01*
G75*
G02*
X162980000Y-55360000I0J250000D01*
G01*
G37*
%TD.AperFunction*%
%TD*%
%TO.P,J5,2*%
%TO.N,Net-(J5-Pad2)*%
X163870000Y-41275000D03*
%TO.P,J5,1*%
%TO.N,GND*%
%TA.AperFunction,ComponentPad*%
G36*
G01*
X167220000Y-40525000D02*
X167220000Y-42025000D01*
G75*
G02*
X166970000Y-42275000I-250000J0D01*
G01*
X165770000Y-42275000D01*
G75*
G02*
X165520000Y-42025000I0J250000D01*
G01*
X165520000Y-40525000D01*
G75*
G02*
X165770000Y-40275000I250000J0D01*
G01*
X166970000Y-40275000D01*
G75*
G02*
X167220000Y-40525000I0J-250000D01*
G01*
G37*
%TD.AperFunction*%
%TD*%
%TO.P,J3,2*%
%TO.N,/FAN0_OUT*%
X157440000Y-47625000D03*
%TO.P,J3,1*%
%TO.N,GND*%
%TA.AperFunction,ComponentPad*%
G36*
G01*
X154090000Y-48375000D02*
X154090000Y-46875000D01*
G75*
G02*
X154340000Y-46625000I250000J0D01*
G01*
X155540000Y-46625000D01*
G75*
G02*
X155790000Y-46875000I0J-250000D01*
G01*
X155790000Y-48375000D01*
G75*
G02*
X155540000Y-48625000I-250000J0D01*
G01*
X154340000Y-48625000D01*
G75*
G02*
X154090000Y-48375000I0J250000D01*
G01*
G37*
%TD.AperFunction*%
%TD*%
%TO.P,J2,2*%
%TO.N,Net-(J2-Pad2)*%
X154980000Y-41275000D03*
%TO.P,J2,1*%
%TO.N,GND*%
%TA.AperFunction,ComponentPad*%
G36*
G01*
X158330000Y-40525000D02*
X158330000Y-42025000D01*
G75*
G02*
X158080000Y-42275000I-250000J0D01*
G01*
X156880000Y-42275000D01*
G75*
G02*
X156630000Y-42025000I0J250000D01*
G01*
X156630000Y-40525000D01*
G75*
G02*
X156880000Y-40275000I250000J0D01*
G01*
X158080000Y-40275000D01*
G75*
G02*
X158330000Y-40525000I0J-250000D01*
G01*
G37*
%TD.AperFunction*%
%TD*%
D24*
%TO.P,ax17,10*%
%TO.N,Net-(ax15-Pad10)*%
X109773000Y-48317000D03*
%TO.P,ax17,9*%
%TO.N,Net-(ax15-Pad9)*%
X109773000Y-45777000D03*
%TO.P,ax17,8*%
%TO.N,Net-(ax15-Pad8)*%
X109773000Y-43237000D03*
%TO.P,ax17,7*%
%TO.N,Net-(ax15-Pad7)*%
X109773000Y-40697000D03*
%TO.P,ax17,6*%
%TO.N,Net-(ax15-Pad6)*%
X109773000Y-38157000D03*
%TO.P,ax17,5*%
%TO.N,Net-(ax15-Pad5)*%
X109773000Y-35617000D03*
%TO.P,ax17,4*%
%TO.N,Net-(ax15-Pad4)*%
X109773000Y-33077000D03*
%TO.P,ax17,3*%
%TO.N,Net-(ax15-Pad3)*%
X109773000Y-30537000D03*
%TO.P,ax17,2*%
%TO.N,Net-(ax15-Pad2)*%
X109773000Y-27997000D03*
D23*
%TO.P,ax17,1*%
%TO.N,Net-(ax15-Pad1)*%
X109773000Y-25457000D03*
%TD*%
D24*
%TO.P,ax13,10*%
%TO.N,Net-(ax13-Pad10)*%
X119933000Y-48317000D03*
%TO.P,ax13,9*%
%TO.N,Net-(ax13-Pad9)*%
X119933000Y-45777000D03*
%TO.P,ax13,8*%
%TO.N,Net-(ax13-Pad8)*%
X119933000Y-43237000D03*
%TO.P,ax13,7*%
%TO.N,Net-(ax13-Pad7)*%
X119933000Y-40697000D03*
%TO.P,ax13,6*%
%TO.N,Net-(ax13-Pad6)*%
X119933000Y-38157000D03*
%TO.P,ax13,5*%
%TO.N,Net-(ax13-Pad5)*%
X119933000Y-35617000D03*
%TO.P,ax13,4*%
%TO.N,Net-(ax13-Pad4)*%
X119933000Y-33077000D03*
%TO.P,ax13,3*%
%TO.N,Net-(ax13-Pad3)*%
X119933000Y-30537000D03*
%TO.P,ax13,2*%
%TO.N,Net-(ax13-Pad2)*%
X119933000Y-27997000D03*
D23*
%TO.P,ax13,1*%
%TO.N,Net-(ax13-Pad1)*%
X119933000Y-25457000D03*
%TD*%
D11*
%TO.P,ax16,11*%
%TO.N,N/C*%
X121905000Y-55330000D03*
%TO.P,ax16,12*%
X107705000Y-55330000D03*
%TD*%
D10*
%TO.P,ax15,1*%
%TO.N,Net-(ax15-Pad1)*%
X105305000Y-52790000D03*
%TO.P,ax15,2*%
%TO.N,Net-(ax15-Pad2)*%
X106305000Y-52790000D03*
%TO.P,ax15,3*%
%TO.N,Net-(ax15-Pad3)*%
X107305000Y-52790000D03*
%TO.P,ax15,4*%
%TO.N,Net-(ax15-Pad4)*%
X108305000Y-52790000D03*
%TO.P,ax15,5*%
%TO.N,Net-(ax15-Pad5)*%
X109305000Y-52790000D03*
%TO.P,ax15,6*%
%TO.N,Net-(ax15-Pad6)*%
X110305000Y-52790000D03*
%TO.P,ax15,7*%
%TO.N,Net-(ax15-Pad7)*%
X111305000Y-52790000D03*
%TO.P,ax15,8*%
%TO.N,Net-(ax15-Pad8)*%
X112305000Y-52790000D03*
%TO.P,ax15,9*%
%TO.N,Net-(ax15-Pad9)*%
X113305000Y-52790000D03*
%TO.P,ax15,10*%
%TO.N,Net-(ax15-Pad10)*%
X114305000Y-52790000D03*
%TO.P,ax15,11*%
%TO.N,Net-(ax13-Pad1)*%
X115305000Y-52790000D03*
%TO.P,ax15,12*%
%TO.N,Net-(ax13-Pad2)*%
X116305000Y-52790000D03*
%TO.P,ax15,13*%
%TO.N,Net-(ax13-Pad3)*%
X117305000Y-52790000D03*
%TO.P,ax15,14*%
%TO.N,Net-(ax13-Pad4)*%
X118305000Y-52790000D03*
%TO.P,ax15,15*%
%TO.N,Net-(ax13-Pad5)*%
X119305000Y-52790000D03*
%TO.P,ax15,16*%
%TO.N,Net-(ax13-Pad6)*%
X120305000Y-52790000D03*
%TO.P,ax15,17*%
%TO.N,Net-(ax13-Pad7)*%
X121305000Y-52790000D03*
%TO.P,ax15,18*%
%TO.N,Net-(ax13-Pad8)*%
X122305000Y-52790000D03*
%TO.P,ax15,19*%
%TO.N,Net-(ax13-Pad9)*%
X123305000Y-52790000D03*
%TO.P,ax15,20*%
%TO.N,Net-(ax13-Pad10)*%
X124305000Y-52790000D03*
D11*
%TO.P,ax15,21*%
%TO.N,N/C*%
X102705000Y-55330000D03*
%TO.P,ax15,22*%
X126905000Y-55330000D03*
%TD*%
D29*
%TO.N,*%
X150244000Y-74266000D03*
%TO.N,/HEATER_OUT*%
X142370000Y-78330000D03*
D30*
X177421992Y-91538000D03*
X159057800Y-70532199D03*
D31*
%TO.N,/AUX0*%
X168405000Y-82013000D03*
%TO.N,/AUX1*%
X172850000Y-82902000D03*
D30*
%TO.N,+24V*%
X177446969Y-95091634D03*
X155578000Y-71218000D03*
D31*
%TO.N,GND*%
X134115000Y-70710000D03*
D30*
X160717235Y-80734257D03*
D29*
X144910000Y-99285000D03*
X145672000Y-71726000D03*
X149355000Y-91030000D03*
X144910000Y-84045000D03*
X160020000Y-47625000D03*
X168910000Y-47625000D03*
D31*
%TO.N,+3V3*%
X143005000Y-69440000D03*
%TO.N,/PROBE*%
X146980001Y-86750001D03*
D29*
X171707000Y-77187000D03*
D31*
%TO.N,/AUX0_1*%
X111620000Y-73124999D03*
X102095000Y-77160000D03*
D30*
%TO.N,/HEATER_OUT_1*%
X108319997Y-76525000D03*
%TO.N,/24V_1*%
X111620000Y-76525000D03*
D29*
%TO.N,/3V3_1*%
X95253000Y-91162000D03*
D31*
%TO.N,/V_AUX1*%
X171216115Y-83035882D03*
%TO.N,/V_AUX0*%
X166754000Y-81886000D03*
%TO.N,/AUX1_1*%
X103223278Y-92918826D03*
%TO.N,/V_AUX1_1*%
X103223278Y-87320000D03*
%TO.N,/V_AUX0_1*%
X105479823Y-77050078D03*
D29*
%TO.N,/PROBELED-*%
X146815000Y-68390000D03*
X141704997Y-69440000D03*
%TO.N,/HEATLED-*%
X148720000Y-67490000D03*
X141100000Y-68170000D03*
%TO.N,Net-(ax13-Pad10)*%
X124305000Y-50790000D03*
%TO.N,Net-(ax13-Pad9)*%
X123305000Y-51290000D03*
%TO.N,Net-(ax13-Pad8)*%
X122305000Y-50290000D03*
%TO.N,Net-(ax13-Pad7)*%
X122305000Y-44290000D03*
%TO.N,Net-(ax13-Pad5)*%
X119305000Y-54790000D03*
%TO.N,Net-(ax13-Pad4)*%
X118305000Y-55790000D03*
%TO.N,Net-(ax13-Pad3)*%
X117305000Y-54790000D03*
%TO.N,Net-(ax13-Pad2)*%
X116305000Y-55790000D03*
%TO.N,Net-(ax13-Pad1)*%
X115305000Y-54790000D03*
%TO.N,Net-(ax15-Pad9)*%
X113823001Y-46790000D03*
%TO.N,Net-(ax15-Pad7)*%
X112023001Y-41790000D03*
%TO.N,Net-(ax15-Pad5)*%
X110305000Y-55790000D03*
%TO.N,Net-(ax15-Pad3)*%
X112305000Y-55790000D03*
X108705000Y-57280002D03*
%TO.N,Net-(ax15-Pad1)*%
X114305000Y-55790000D03*
%TO.N,Net-(ax15-Pad10)*%
X114305000Y-50290000D03*
%TO.N,Net-(ax15-Pad8)*%
X112923001Y-44290000D03*
%TO.N,Net-(ax15-Pad4)*%
X109130607Y-50870694D03*
X111305000Y-54790000D03*
X110109000Y-56896000D03*
%TO.N,Net-(ax15-Pad2)*%
X113305000Y-54790000D03*
%TD*%
D32*
%TO.N,/HEATER_OUT*%
X168293076Y-92084100D02*
X174755000Y-92084100D01*
X158167234Y-79510256D02*
X158167234Y-81958258D01*
X159057800Y-78619690D02*
X158167234Y-79510256D01*
X159057800Y-73948500D02*
X159057800Y-78619690D01*
X158167234Y-81958258D02*
X168293076Y-92084100D01*
X159057800Y-70532199D02*
X159134000Y-70455999D01*
X159057800Y-73948500D02*
X159057800Y-70532199D01*
D33*
X174755000Y-92084100D02*
X174755000Y-92561500D01*
X159057800Y-73948500D02*
X159555000Y-73948500D01*
X158555000Y-73948500D02*
X159057800Y-73948500D01*
X174755000Y-91561500D02*
X174755000Y-92084100D01*
D32*
X176875892Y-92084100D02*
X177421992Y-91538000D01*
X174755000Y-92084100D02*
X176875892Y-92084100D01*
D33*
X143132000Y-77568000D02*
X144164000Y-77568000D01*
X142370000Y-78330000D02*
X143132000Y-77568000D01*
D34*
%TO.N,/1B*%
X152555000Y-76354301D02*
X151967185Y-76942115D01*
X151967185Y-84526396D02*
X166002289Y-98561500D01*
X151967185Y-76942115D02*
X151967185Y-84526396D01*
X166002289Y-98561500D02*
X174755000Y-98561500D01*
X152555000Y-73948500D02*
X152555000Y-76354301D01*
%TO.N,/2B*%
X153555000Y-73948500D02*
X153555000Y-76768528D01*
X153555000Y-76768528D02*
X152967195Y-77356332D01*
X152967195Y-84112183D02*
X166416512Y-97561500D01*
X166416512Y-97561500D02*
X174755000Y-97561500D01*
X152967195Y-77356332D02*
X152967195Y-84112183D01*
%TO.N,/2A*%
X154555000Y-77182754D02*
X153967205Y-77770549D01*
X166830739Y-96561500D02*
X174755000Y-96561500D01*
X154555000Y-73948500D02*
X154555000Y-77182754D01*
X153967205Y-83697966D02*
X166830739Y-96561500D01*
X153967205Y-77770549D02*
X153967205Y-83697966D01*
%TO.N,/1A*%
X154967215Y-78184766D02*
X154967215Y-83283750D01*
X155555000Y-73948500D02*
X155555000Y-77596980D01*
X155555000Y-77596980D02*
X154967215Y-78184766D01*
X167244965Y-95561500D02*
X174755000Y-95561500D01*
X154967215Y-83283750D02*
X167244965Y-95561500D01*
%TO.N,/AUX0*%
X164555000Y-77836998D02*
X164555000Y-77813001D01*
X174755000Y-86561500D02*
X172326547Y-86561500D01*
X172326547Y-86561500D02*
X168405000Y-82639953D01*
X168405000Y-82639953D02*
X168405000Y-82013000D01*
X164555000Y-73948500D02*
X164555000Y-77813001D01*
X168405000Y-82013000D02*
X168405000Y-81686998D01*
X168405000Y-81686998D02*
X164555000Y-77836998D01*
%TO.N,/AUX1*%
X166555000Y-73948500D02*
X166555000Y-76607000D01*
X172850000Y-84256500D02*
X172850000Y-82902000D01*
X166555000Y-76607000D02*
X172850000Y-82902000D01*
X174755000Y-84561500D02*
X173155000Y-84561500D01*
X173155000Y-84561500D02*
X172850000Y-84256500D01*
D33*
%TO.N,+24V*%
X157051200Y-73948500D02*
X157555000Y-73948500D01*
X156555000Y-73948500D02*
X157051200Y-73948500D01*
D32*
X157051200Y-72691200D02*
X155578000Y-71218000D01*
X174755000Y-94039900D02*
X176395235Y-94039900D01*
X167703278Y-94039900D02*
X174755000Y-94039900D01*
X156367225Y-82703847D02*
X167703278Y-94039900D01*
X176395235Y-94039900D02*
X177446969Y-95091634D01*
D33*
X174755000Y-94039900D02*
X174755000Y-94561500D01*
X174755000Y-93561500D02*
X174755000Y-94039900D01*
D32*
X157051200Y-73948500D02*
X157051200Y-72691200D01*
X157051200Y-73948500D02*
X157051200Y-78080692D01*
X156367224Y-78764668D02*
X156367225Y-82703847D01*
X157051200Y-78080692D02*
X156367224Y-78764668D01*
%TO.N,GND*%
X134750000Y-92300000D02*
X134750000Y-87220000D01*
X134750000Y-89760000D02*
X139830000Y-89760000D01*
X134750000Y-87220000D02*
X134750000Y-86447780D01*
X134750000Y-86447780D02*
X132591000Y-84288780D01*
X160717235Y-80734257D02*
X170047778Y-90064800D01*
X170047778Y-90064800D02*
X174755000Y-90064800D01*
X161061860Y-73948500D02*
X161061860Y-80389632D01*
X161061860Y-80389632D02*
X160717235Y-80734257D01*
D33*
X174755000Y-90064800D02*
X174755000Y-90561500D01*
X160555000Y-73948500D02*
X161061860Y-73948500D01*
X174755000Y-89561500D02*
X174755000Y-90064800D01*
X161061860Y-73948500D02*
X161555000Y-73948500D01*
D34*
%TO.N,+3V3*%
X171498095Y-88561500D02*
X162555000Y-79618405D01*
X174755000Y-88561500D02*
X171498095Y-88561500D01*
X162555000Y-79618405D02*
X162555000Y-73948500D01*
X139830000Y-87220000D02*
X137290000Y-87220000D01*
X134394990Y-81185010D02*
X136020000Y-79560000D01*
X134394990Y-82681324D02*
X134394990Y-81185010D01*
X137290000Y-85576334D02*
X134394990Y-82681324D01*
X137290000Y-87220000D02*
X137290000Y-85576334D01*
X143005000Y-71925000D02*
X143060000Y-71980000D01*
X143060000Y-69495000D02*
X143005000Y-69440000D01*
X143060000Y-71980000D02*
X143060000Y-69495000D01*
X162555000Y-70847397D02*
X162555000Y-73948500D01*
X160089801Y-68382198D02*
X162555000Y-70847397D01*
X155231800Y-68382198D02*
X160089801Y-68382198D01*
X154173998Y-69440000D02*
X155231800Y-68382198D01*
X143005000Y-69440000D02*
X154173998Y-69440000D01*
D35*
X157085010Y-97024956D02*
X157085010Y-95195044D01*
X144555000Y-85700000D02*
X147484002Y-85700000D01*
X141955000Y-83100000D02*
X144555000Y-85700000D01*
X138415000Y-79560000D02*
X136020000Y-79560000D01*
X141955000Y-83100000D02*
X138415000Y-79560000D01*
X154832481Y-98035019D02*
X152947500Y-99920000D01*
X156074947Y-98035019D02*
X154832481Y-98035019D01*
X157085010Y-97024956D02*
X156074947Y-98035019D01*
X152947500Y-95057500D02*
X154947483Y-93057517D01*
X152947500Y-96110000D02*
X152947500Y-95057500D01*
X154947483Y-93057517D02*
X147589966Y-85700000D01*
X157085010Y-95195044D02*
X154947483Y-93057517D01*
D34*
%TO.N,GND1*%
X167555000Y-76083000D02*
X167555000Y-73948500D01*
X173033500Y-81561500D02*
X167555000Y-76083000D01*
X174755000Y-81561500D02*
X173033500Y-81561500D01*
%TO.N,/THERM_OUT*%
X168555000Y-73948500D02*
X168555000Y-75548500D01*
X168555000Y-75548500D02*
X173568000Y-80561500D01*
X173568000Y-80561500D02*
X174755000Y-80561500D01*
%TO.N,/PROBE*%
X173866000Y-78076000D02*
X172596000Y-78076000D01*
X174755000Y-79561500D02*
X174755000Y-78965000D01*
X143640000Y-89760000D02*
X143970002Y-89760000D01*
X143970002Y-89760000D02*
X146980001Y-86750001D01*
X174755000Y-78965000D02*
X173866000Y-78076000D01*
D33*
X143640000Y-89760000D02*
X144990001Y-91110001D01*
X144990001Y-94019999D02*
X144990001Y-91110001D01*
X143860000Y-95150000D02*
X144990001Y-94019999D01*
D34*
X172596000Y-78076000D02*
X171707000Y-77187000D01*
%TO.N,Net-(J2-Pad3)*%
X138480000Y-82060000D02*
X143640000Y-87220000D01*
X136020000Y-82060000D02*
X138480000Y-82060000D01*
D33*
%TO.N,/PZ+*%
X129670000Y-92300000D02*
X129670000Y-98293000D01*
X129670000Y-98293000D02*
X129670000Y-107056000D01*
X129670000Y-87220000D02*
X129670000Y-92300000D01*
X129670000Y-98293000D02*
X132464000Y-101087000D01*
X129670000Y-107056000D02*
X132464000Y-109850000D01*
%TO.N,/PZ-*%
X134051002Y-102587000D02*
X134464001Y-102174001D01*
X132464000Y-102587000D02*
X134051002Y-102587000D01*
X134464001Y-102174001D02*
X134464001Y-100336999D01*
X134464001Y-111249999D02*
X134464001Y-102174001D01*
X132210000Y-98082998D02*
X132210000Y-92300000D01*
X132210000Y-92300000D02*
X132210000Y-87220000D01*
X132464000Y-111350000D02*
X134364000Y-111350000D01*
X134464001Y-100336999D02*
X132210000Y-98082998D01*
X134364000Y-111350000D02*
X134464001Y-111249999D01*
D34*
%TO.N,/GND1_1*%
X100397000Y-92359420D02*
X106787580Y-98750000D01*
X100397000Y-79233136D02*
X100397000Y-92359420D01*
X107918829Y-98750000D02*
X109039058Y-97629771D01*
X106787580Y-98750000D02*
X107918829Y-98750000D01*
%TO.N,/THERM_OUT_1*%
X106373363Y-99750010D02*
X109360821Y-99750010D01*
X99397000Y-92773646D02*
X106373363Y-99750010D01*
X111309057Y-97801774D02*
X111309057Y-96430065D01*
X111309057Y-96430065D02*
X110309058Y-95430066D01*
X99397000Y-79233136D02*
X99397000Y-92773646D01*
X109360821Y-99750010D02*
X111309057Y-97801774D01*
D32*
%TO.N,/GND_1*%
X108109353Y-94160066D02*
X106173288Y-92224001D01*
D33*
X106397000Y-79233136D02*
X106930664Y-79233136D01*
D32*
X106930664Y-81897522D02*
X106930664Y-79233136D01*
X106173288Y-92224001D02*
X106173288Y-82654898D01*
D33*
X106930664Y-79233136D02*
X107397000Y-79233136D01*
D32*
X106173288Y-82654898D02*
X106930664Y-81897522D01*
D34*
%TO.N,/AUX0_1*%
X102127000Y-77192000D02*
X102095000Y-77160000D01*
X111394999Y-73350000D02*
X111620000Y-73124999D01*
X103397000Y-75713774D02*
X105760774Y-73350000D01*
X105760774Y-73350000D02*
X105905000Y-73350000D01*
X105760774Y-73350000D02*
X111394999Y-73350000D01*
X103397000Y-77192000D02*
X102127000Y-77192000D01*
X103397000Y-79233136D02*
X103397000Y-77192000D01*
X103397000Y-77192000D02*
X103397000Y-75713774D01*
D32*
%TO.N,/HEATER_OUT_1*%
X107973298Y-90990009D02*
X108943651Y-91960362D01*
X108911864Y-79233136D02*
X108911864Y-77116867D01*
X107973298Y-83400486D02*
X107973298Y-90990009D01*
D33*
X108911864Y-79233136D02*
X109397000Y-79233136D01*
D32*
X108911864Y-77116867D02*
X108319997Y-76525000D01*
X108911864Y-82461920D02*
X107973298Y-83400486D01*
X108943651Y-91960362D02*
X109379353Y-91960362D01*
D33*
X108397000Y-79233136D02*
X108911864Y-79233136D01*
D32*
X108911864Y-79233136D02*
X108911864Y-82461920D01*
%TO.N,/24V_1*%
X109773308Y-88884612D02*
X110649353Y-89760657D01*
D33*
X110397000Y-79233136D02*
X110893064Y-79233136D01*
D32*
X110893064Y-83026318D02*
X109773308Y-84146074D01*
X110893064Y-77251936D02*
X111620000Y-76525000D01*
X109773308Y-84146074D02*
X109773308Y-88884612D01*
D33*
X110893064Y-79233136D02*
X111397000Y-79233136D01*
D32*
X110893064Y-79233136D02*
X110893064Y-83026318D01*
X110893064Y-79233136D02*
X110893064Y-77251936D01*
D34*
%TO.N,/1A_1*%
X112397000Y-83502295D02*
X111173318Y-84725977D01*
X111173318Y-84725977D02*
X111173318Y-86814918D01*
X112397000Y-79233136D02*
X112397000Y-83502295D01*
X111173318Y-86814918D02*
X111919353Y-87560953D01*
%TO.N,/2A_1*%
X113397000Y-85153601D02*
X113189353Y-85361248D01*
X113397000Y-79233136D02*
X113397000Y-85153601D01*
%TO.N,/2B_1*%
X114397000Y-79233136D02*
X114397000Y-83917589D01*
X114397000Y-83917589D02*
X115389058Y-84909647D01*
X115389058Y-84909647D02*
X115389058Y-86631248D01*
%TO.N,/1B_1*%
X115397000Y-83503363D02*
X117039059Y-85145421D01*
X115397000Y-79233136D02*
X115397000Y-83503363D01*
X115631355Y-88830953D02*
X114119058Y-88830953D01*
X117039059Y-85145421D02*
X117039059Y-87423249D01*
X117039059Y-87423249D02*
X115631355Y-88830953D01*
%TO.N,Net-(JP0-Pad3)*%
X138790001Y-93800001D02*
X137290000Y-92300000D01*
X142139999Y-93800001D02*
X138790001Y-93800001D01*
X143640000Y-92300000D02*
X142139999Y-93800001D01*
D36*
%TO.N,/3V3_1*%
X105380654Y-81255487D02*
X105380654Y-81122400D01*
X106839353Y-96359771D02*
X104623278Y-94143696D01*
D34*
X105397000Y-79233136D02*
X105397000Y-81122400D01*
D36*
X104623278Y-82012863D02*
X105380654Y-81255487D01*
X104623278Y-94143696D02*
X104623278Y-82012863D01*
D33*
X95253000Y-87061500D02*
X96105500Y-86209000D01*
X95253000Y-91162000D02*
X95253000Y-87061500D01*
X96105500Y-86209000D02*
X96105500Y-83161000D01*
D34*
%TO.N,/V_AUX2*%
X174755000Y-83561500D02*
X176125002Y-83561500D01*
X179596970Y-102379532D02*
X175325502Y-106651000D01*
X176125002Y-83561500D02*
X179596970Y-87033468D01*
X175325502Y-106651000D02*
X173151000Y-106651000D01*
X179596970Y-87033468D02*
X179596970Y-102379532D01*
%TO.N,/AUX2*%
X174755000Y-82561500D02*
X176539228Y-82561500D01*
X172276010Y-108276010D02*
X170651000Y-106651000D01*
X180596980Y-102793740D02*
X175114720Y-108276010D01*
X175114720Y-108276010D02*
X172276010Y-108276010D01*
X170651000Y-106651000D02*
X170651000Y-106564000D01*
X176539228Y-82561500D02*
X180596980Y-86619251D01*
X180596980Y-86619251D02*
X180596980Y-102793740D01*
%TO.N,/V_AUX1*%
X174755000Y-85561500D02*
X172740773Y-85561500D01*
X171216115Y-84036842D02*
X171216115Y-83035882D01*
X172740773Y-85561500D02*
X171216115Y-84036842D01*
X165555000Y-77374767D02*
X169184120Y-81003887D01*
X165555000Y-73948500D02*
X165555000Y-77374767D01*
X171216115Y-83035882D02*
X169184120Y-81003887D01*
%TO.N,/V_AUX0*%
X174755000Y-87561500D02*
X171912321Y-87561500D01*
X171912321Y-87561500D02*
X166754000Y-82403179D01*
X166754000Y-82403179D02*
X166754000Y-81886000D01*
X163555000Y-78663003D02*
X163555000Y-77802635D01*
X166754000Y-81886000D02*
X163555000Y-78663003D01*
X163555000Y-77802635D02*
X163555000Y-73948500D01*
%TO.N,/AUX1_1*%
X101397000Y-91092548D02*
X103223278Y-92918826D01*
X101397000Y-79233136D02*
X101397000Y-91092548D01*
%TO.N,/V_AUX1_1*%
X102397000Y-81163732D02*
X103223278Y-81990010D01*
X103223278Y-81990010D02*
X103223278Y-87320000D01*
X102397000Y-79233136D02*
X102397000Y-81163732D01*
%TO.N,/V_AUX0_1*%
X104397000Y-77557000D02*
X104972901Y-77557000D01*
X119198865Y-74374999D02*
X106150001Y-74374999D01*
X118039069Y-87837466D02*
X118039069Y-80171069D01*
X119747004Y-74923139D02*
X119198865Y-74374999D01*
X104397000Y-76128000D02*
X104397000Y-77557000D01*
X104972901Y-77557000D02*
X105479823Y-77050078D01*
X118039069Y-80171069D02*
X119747004Y-78463134D01*
X112849058Y-91030657D02*
X114845877Y-91030657D01*
X114845877Y-91030657D02*
X118039069Y-87837466D01*
X106150001Y-74374999D02*
X104397000Y-76128000D01*
X104397000Y-77557000D02*
X104397000Y-79233136D01*
X119747004Y-78463134D02*
X119747004Y-74923139D01*
D33*
%TO.N,/PROBELED-*%
X165438690Y-67532190D02*
X154879714Y-67532190D01*
X170555000Y-72648500D02*
X165438690Y-67532190D01*
X170555000Y-73948500D02*
X170555000Y-72648500D01*
X154879714Y-67532190D02*
X154020952Y-68390952D01*
X154020000Y-68390000D02*
X146815000Y-68390000D01*
X154020952Y-68390952D02*
X154020000Y-68390000D01*
X141560000Y-69584997D02*
X141704997Y-69440000D01*
X141560000Y-71980000D02*
X141560000Y-69584997D01*
D35*
X146013051Y-73930001D02*
X150150011Y-78066961D01*
X141710001Y-73930001D02*
X146013051Y-73930001D01*
X141560000Y-73780000D02*
X141710001Y-73930001D01*
X141560000Y-71980000D02*
X141560000Y-73780000D01*
X150150011Y-85714419D02*
X158885039Y-94449447D01*
X150150011Y-78066961D02*
X150150011Y-85714419D01*
X149680010Y-97435010D02*
X148355000Y-96110000D01*
X154597490Y-97435010D02*
X149680010Y-97435010D01*
X155922500Y-96110000D02*
X154597490Y-97435010D01*
X158885039Y-100732011D02*
X158885039Y-94449447D01*
X147992989Y-103045037D02*
X156572012Y-103045038D01*
X146074971Y-101127021D02*
X147992989Y-103045037D01*
X156572012Y-103045038D02*
X158885039Y-100732011D01*
X146074971Y-98390029D02*
X146074971Y-101127021D01*
X148355000Y-96110000D02*
X146074971Y-98390029D01*
%TO.N,Net-(Q0-Pad3)*%
X147110010Y-94959990D02*
X145960000Y-96110000D01*
X149204990Y-94959990D02*
X147110010Y-94959990D01*
X150355000Y-96110000D02*
X149204990Y-94959990D01*
D33*
%TO.N,Net-(Q1-Pad1)*%
X145910000Y-77695000D02*
X145815000Y-77695000D01*
X146164000Y-77568000D02*
X146164000Y-78731000D01*
D35*
X146000458Y-79346000D02*
X146164000Y-79346000D01*
X144166458Y-81180000D02*
X146000458Y-79346000D01*
X141955000Y-81180000D02*
X144166458Y-81180000D01*
D33*
%TO.N,/PROBELED-_1*%
X96230148Y-81499990D02*
X94580010Y-81499990D01*
X97397000Y-80333138D02*
X96230148Y-81499990D01*
X94580010Y-81499990D02*
X93205000Y-82875000D01*
X97397000Y-79233136D02*
X97397000Y-80333138D01*
D35*
%TO.N,Net-(Q1-Pad3)*%
X146175966Y-75790000D02*
X142100000Y-75790000D01*
X147214010Y-76828044D02*
X146175966Y-75790000D01*
X147214010Y-80365990D02*
X147214010Y-76828044D01*
X146400000Y-81180000D02*
X147214010Y-80365990D01*
X145015000Y-81180000D02*
X144055000Y-82140000D01*
X146400000Y-81180000D02*
X145015000Y-81180000D01*
D33*
%TO.N,Net-(J10-Pad4)*%
X176170500Y-27273000D02*
X176115500Y-27218000D01*
X180978000Y-27273000D02*
X176170500Y-27273000D01*
X176115500Y-27218000D02*
X176115500Y-22900000D01*
%TO.N,Net-(J10-Pad3)*%
X174515510Y-21524990D02*
X173140500Y-22900000D01*
X177328010Y-21964332D02*
X176888668Y-21524990D01*
X177328010Y-23373012D02*
X177328010Y-21964332D01*
X176888668Y-21524990D02*
X174515510Y-21524990D01*
X179727998Y-25773000D02*
X177328010Y-23373012D01*
X180978000Y-25773000D02*
X179727998Y-25773000D01*
%TO.N,Net-(J10-Pad2)*%
X174515510Y-28593010D02*
X173140500Y-27218000D01*
X182407992Y-28593010D02*
X174515510Y-28593010D01*
X182978001Y-28023001D02*
X182407992Y-28593010D01*
X182978001Y-25022999D02*
X182978001Y-28023001D01*
X182228002Y-24273000D02*
X182978001Y-25022999D01*
X180978000Y-24273000D02*
X182228002Y-24273000D01*
D34*
%TO.N,/HEATLED-*%
X148075000Y-99992810D02*
X148075000Y-99920000D01*
D33*
X140060000Y-69210000D02*
X141100000Y-68170000D01*
X140060000Y-71980000D02*
X140060000Y-69210000D01*
X171555000Y-72648500D02*
X165738680Y-66832180D01*
X165738680Y-66832180D02*
X149377820Y-66832180D01*
X149377820Y-66832180D02*
X148720000Y-67490000D01*
X171555000Y-73948500D02*
X171555000Y-72648500D01*
D35*
X149680010Y-101245010D02*
X148355000Y-99920000D01*
X155922500Y-99920000D02*
X154597490Y-101245010D01*
X149550001Y-78315493D02*
X149550001Y-85962951D01*
X145874498Y-74639990D02*
X149550001Y-78315493D01*
X140919990Y-74639990D02*
X145874498Y-74639990D01*
X140060000Y-73780000D02*
X140919990Y-74639990D01*
X140060000Y-71980000D02*
X140060000Y-73780000D01*
X149550001Y-85962951D02*
X158285029Y-94697979D01*
X151405010Y-101155010D02*
X151315010Y-101245010D01*
X150394946Y-98169980D02*
X151405010Y-99180044D01*
X151405010Y-99180044D02*
X151405010Y-101155010D01*
X147466512Y-98169980D02*
X150394946Y-98169980D01*
X146674981Y-98961511D02*
X147466512Y-98169980D01*
X146674980Y-100878488D02*
X146674981Y-98961511D01*
X156323479Y-102445029D02*
X148241520Y-102445028D01*
X148241520Y-102445028D02*
X146674980Y-100878488D01*
X158285028Y-100483480D02*
X156323479Y-102445029D01*
X158285029Y-94697979D02*
X158285028Y-100483480D01*
X151315010Y-101245010D02*
X149680010Y-101245010D01*
X154597490Y-101245010D02*
X151315010Y-101245010D01*
%TO.N,Net-(Q2-Pad3)*%
X147274990Y-100629956D02*
X148490053Y-101845019D01*
X148490053Y-101845019D02*
X156074947Y-101845019D01*
X147274990Y-99210044D02*
X147274990Y-100629956D01*
X147715044Y-98769990D02*
X147274990Y-99210044D01*
X156074947Y-101845019D02*
X157685019Y-100234947D01*
X149204990Y-98769990D02*
X147715044Y-98769990D01*
X150355000Y-99920000D02*
X149204990Y-98769990D01*
X157685019Y-100234947D02*
X157685019Y-94946511D01*
X148500000Y-85761492D02*
X148500000Y-82140000D01*
X157685019Y-94946511D02*
X148500000Y-85761492D01*
D33*
%TO.N,/HEATLED-_1*%
X93205000Y-86050000D02*
X93205000Y-86574000D01*
X94910186Y-79233136D02*
X91917990Y-82225332D01*
X96397000Y-79233136D02*
X94910186Y-79233136D01*
X91917990Y-84996490D02*
X93130500Y-86209000D01*
X91917990Y-82225332D02*
X91917990Y-84996490D01*
D36*
%TO.N,/FAN0_OUT*%
X157440000Y-47625000D02*
X157440000Y-54610000D01*
X157440000Y-54416480D02*
X157440000Y-54610000D01*
X155933510Y-52909990D02*
X157440000Y-54416480D01*
X154509990Y-52909990D02*
X155933510Y-52909990D01*
X150090001Y-48490001D02*
X154509990Y-52909990D01*
X138025001Y-48490001D02*
X150090001Y-48490001D01*
X137160000Y-47625000D02*
X137160000Y-46990000D01*
X138025001Y-48490001D02*
X137160000Y-47625000D01*
%TO.N,/FAN1_OUT*%
X166330000Y-47625000D02*
X166330000Y-54610000D01*
X166330000Y-54803520D02*
X166330000Y-54610000D01*
X164823510Y-56310010D02*
X166330000Y-54803520D01*
X153946490Y-56310010D02*
X164823510Y-56310010D01*
X152016479Y-54379999D02*
X153946490Y-56310010D01*
X147089999Y-54379999D02*
X152016479Y-54379999D01*
X143510000Y-50800000D02*
X143510000Y-50165000D01*
X147089999Y-54379999D02*
X143510000Y-50800000D01*
%TO.N,/FAN2_OUT*%
X175220000Y-47625000D02*
X175220000Y-54610000D01*
X148950020Y-57510020D02*
X172994980Y-57510020D01*
X147320000Y-55880000D02*
X148950020Y-57510020D01*
X175220000Y-55285000D02*
X175220000Y-54610000D01*
X172994980Y-57510020D02*
X175220000Y-55285000D01*
D33*
%TO.N,Net-(ax13-Pad10)*%
X124305000Y-52790000D02*
X124305000Y-50790000D01*
%TO.N,Net-(ax13-Pad9)*%
X123305000Y-52790000D02*
X123305000Y-51290000D01*
%TO.N,Net-(ax13-Pad8)*%
X122305000Y-52790000D02*
X122305000Y-50290000D01*
%TO.N,Net-(ax13-Pad7)*%
X121305000Y-49932964D02*
X122305000Y-48932964D01*
X122305000Y-48932964D02*
X122305000Y-44290000D01*
X121305000Y-52790000D02*
X121305000Y-49932964D01*
%TO.N,Net-(ax13-Pad6)*%
X121283001Y-39507001D02*
X119933000Y-38157000D01*
X121283001Y-48965001D02*
X121283001Y-39507001D01*
X120305000Y-49943002D02*
X121283001Y-48965001D01*
X120305000Y-52790000D02*
X120305000Y-49943002D01*
%TO.N,Net-(ax13-Pad5)*%
X118582999Y-36967001D02*
X119933000Y-35617000D01*
X118582999Y-48965001D02*
X118582999Y-36967001D01*
X119353000Y-49735002D02*
X118582999Y-48965001D01*
X119353000Y-53397000D02*
X119353000Y-49735002D01*
X119305000Y-52790000D02*
X119305000Y-54790000D01*
%TO.N,Net-(ax13-Pad4)*%
X117882989Y-35127011D02*
X119933000Y-33077000D01*
X117882989Y-49254954D02*
X117882989Y-35127011D01*
X118353000Y-49724964D02*
X117882989Y-49254954D01*
X118353000Y-53397000D02*
X118353000Y-49724964D01*
X118305000Y-52790000D02*
X118305000Y-55790000D01*
%TO.N,Net-(ax13-Pad3)*%
X117182979Y-33287021D02*
X119933000Y-30537000D01*
X117182979Y-51926979D02*
X117182979Y-33287021D01*
X117353000Y-52097000D02*
X117182979Y-51926979D01*
X117353000Y-53397000D02*
X117353000Y-52097000D01*
X117305000Y-54790000D02*
X117305000Y-52790000D01*
%TO.N,Net-(ax13-Pad2)*%
X116353000Y-31577000D02*
X119933000Y-27997000D01*
X116353000Y-53397000D02*
X116353000Y-31577000D01*
X116305000Y-55790000D02*
X116305000Y-52790000D01*
%TO.N,Net-(ax13-Pad1)*%
X115353000Y-30037000D02*
X119933000Y-25457000D01*
X115353000Y-53397000D02*
X115353000Y-30037000D01*
X115305000Y-52790000D02*
X115305000Y-54790000D01*
%TO.N,Net-(ax15-Pad9)*%
X113823001Y-49234888D02*
X113823001Y-46790000D01*
X113305000Y-49752889D02*
X113823001Y-49234888D01*
X113305000Y-52790000D02*
X113305000Y-49752889D01*
%TO.N,Net-(ax15-Pad7)*%
X112023001Y-49054963D02*
X112023001Y-41790000D01*
X111305000Y-49772964D02*
X112023001Y-49054963D01*
X111305000Y-52790000D02*
X111305000Y-49772964D01*
%TO.N,Net-(ax15-Pad5)*%
X109305000Y-53780035D02*
X109305000Y-52790000D01*
X110305000Y-54780035D02*
X109305000Y-53780035D01*
X110305000Y-55790000D02*
X110305000Y-54780035D01*
%TO.N,Net-(ax15-Pad3)*%
X107305000Y-51512401D02*
X108305000Y-50512401D01*
X107305000Y-52790000D02*
X107305000Y-51512401D01*
X108305000Y-32005000D02*
X109773000Y-30537000D01*
X108305000Y-50512401D02*
X108305000Y-32005000D01*
X112305000Y-55790000D02*
X112305000Y-56355685D01*
X108815009Y-57390011D02*
X108705000Y-57280002D01*
X110864684Y-57796001D02*
X112305000Y-56355685D01*
X109220999Y-57796001D02*
X110864684Y-57796001D01*
X108705000Y-57280002D02*
X109220999Y-57796001D01*
%TO.N,Net-(ax15-Pad1)*%
X105305000Y-51532476D02*
X106830010Y-50007466D01*
X105305000Y-52790000D02*
X105305000Y-51532476D01*
X106830010Y-28399990D02*
X109773000Y-25457000D01*
X106830010Y-50007466D02*
X106830010Y-28399990D01*
X114305000Y-56355685D02*
X114305000Y-55790000D01*
X111395695Y-59264990D02*
X114305000Y-56355685D01*
X107400026Y-59264990D02*
X111395695Y-59264990D01*
X105217990Y-57082954D02*
X107400026Y-59264990D01*
X105305000Y-53813038D02*
X105217990Y-53900048D01*
X105217990Y-53900048D02*
X105217990Y-57082954D01*
X105305000Y-52790000D02*
X105305000Y-53813038D01*
%TO.N,Net-(ax15-Pad10)*%
X114305000Y-52790000D02*
X114305000Y-50290000D01*
%TO.N,Net-(ax15-Pad8)*%
X112923001Y-49144925D02*
X112923001Y-44290000D01*
X112305000Y-49762926D02*
X112923001Y-49144925D01*
X112305000Y-52790000D02*
X112305000Y-49762926D01*
%TO.N,Net-(ax15-Pad6)*%
X111123001Y-39507001D02*
X109773000Y-38157000D01*
X111123001Y-48965001D02*
X111123001Y-39507001D01*
X110305000Y-49783002D02*
X111123001Y-48965001D01*
X110305000Y-52790000D02*
X110305000Y-49783002D01*
%TO.N,Net-(ax15-Pad4)*%
X108305000Y-51696301D02*
X109130607Y-50870694D01*
X108305000Y-52790000D02*
X108305000Y-51696301D01*
X111305000Y-56122002D02*
X110737001Y-56690001D01*
X111305000Y-54790000D02*
X111305000Y-56122002D01*
X110531002Y-56896000D02*
X110109000Y-56896000D01*
X110737001Y-56690001D02*
X110531002Y-56896000D01*
%TO.N,Net-(ax15-Pad2)*%
X106353000Y-52386999D02*
X106322969Y-52356968D01*
X106353000Y-53397000D02*
X106353000Y-52386999D01*
X106305000Y-51522438D02*
X107530020Y-50297419D01*
X106305000Y-52790000D02*
X106305000Y-51522438D01*
X107530020Y-30239980D02*
X109773000Y-27997000D01*
X107530020Y-50297419D02*
X107530020Y-30239980D01*
X106204999Y-52890001D02*
X106305000Y-52790000D01*
X111154637Y-58496011D02*
X113305000Y-56345647D01*
X105918000Y-56793002D02*
X107621009Y-58496011D01*
X105918000Y-54190001D02*
X105918000Y-56793002D01*
X106104999Y-54003002D02*
X105918000Y-54190001D01*
X107621009Y-58496011D02*
X111154637Y-58496011D01*
X106104999Y-53788001D02*
X106104999Y-54003002D01*
X113305000Y-56345647D02*
X113305000Y-54790000D01*
X106305000Y-53588000D02*
X106104999Y-53788001D01*
X106305000Y-52790000D02*
X106305000Y-53588000D01*
%TD*%
D37*
%TO.N,GND*%
X148216928Y-72658500D02*
X148229188Y-72782982D01*
X148265498Y-72902680D01*
X148324463Y-73012994D01*
X148403815Y-73109685D01*
X148500506Y-73189037D01*
X148610820Y-73248002D01*
X148730518Y-73284312D01*
X148855000Y-73296572D01*
X149879821Y-73296572D01*
X149753744Y-73348795D01*
X149584226Y-73462063D01*
X149440063Y-73606226D01*
X149326795Y-73775744D01*
X149248774Y-73964102D01*
X149209000Y-74164061D01*
X149209000Y-74367939D01*
X149248774Y-74567898D01*
X149326795Y-74756256D01*
X149440063Y-74925774D01*
X149584226Y-75069937D01*
X149753744Y-75183205D01*
X149942102Y-75261226D01*
X150142061Y-75301000D01*
X150345939Y-75301000D01*
X150545898Y-75261226D01*
X150734256Y-75183205D01*
X150903774Y-75069937D01*
X151047937Y-74925774D01*
X151161205Y-74756256D01*
X151239226Y-74567898D01*
X151279000Y-74367939D01*
X151279000Y-74164061D01*
X151239226Y-73964102D01*
X151161205Y-73775744D01*
X151047937Y-73606226D01*
X150903774Y-73462063D01*
X150734256Y-73348795D01*
X150608179Y-73296572D01*
X151055000Y-73296572D01*
X151179482Y-73284312D01*
X151299180Y-73248002D01*
X151409494Y-73189037D01*
X151506185Y-73109685D01*
X151585537Y-73012994D01*
X151628305Y-72932982D01*
X151616928Y-73048500D01*
X151616928Y-73647691D01*
X151584253Y-73755407D01*
X151570000Y-73900121D01*
X151570001Y-75946301D01*
X151304907Y-76211394D01*
X151267315Y-76242245D01*
X151144225Y-76392231D01*
X151052761Y-76563349D01*
X151031668Y-76632884D01*
X150996438Y-76749021D01*
X150977420Y-76942115D01*
X150982185Y-76990495D01*
X150982186Y-84478006D01*
X150977420Y-84526396D01*
X150996438Y-84719489D01*
X151052761Y-84905162D01*
X151080133Y-84956370D01*
X151144226Y-85076280D01*
X151267316Y-85226266D01*
X151304896Y-85257107D01*
X165271573Y-99223784D01*
X165302419Y-99261370D01*
X165452405Y-99384460D01*
X165623522Y-99475924D01*
X165765980Y-99519138D01*
X165809194Y-99532247D01*
X166002288Y-99551265D01*
X166050668Y-99546500D01*
X174803380Y-99546500D01*
X174948094Y-99532247D01*
X175055810Y-99499572D01*
X175655000Y-99499572D01*
X175770518Y-99488195D01*
X175690506Y-99530963D01*
X175593815Y-99610315D01*
X175514463Y-99707006D01*
X175455498Y-99817320D01*
X175419188Y-99937018D01*
X175406928Y-100061500D01*
X175406928Y-102261500D01*
X175419188Y-102385982D01*
X175455498Y-102505680D01*
X175514463Y-102615994D01*
X175593815Y-102712685D01*
X175690506Y-102792037D01*
X175800820Y-102851002D01*
X175920518Y-102887312D01*
X176045000Y-102899572D01*
X177683929Y-102899572D01*
X174917502Y-105666000D01*
X174366276Y-105666000D01*
X174206134Y-105470866D01*
X173980013Y-105285294D01*
X173722033Y-105147401D01*
X173442110Y-105062487D01*
X173151000Y-105033815D01*
X172859889Y-105062487D01*
X172579966Y-105147401D01*
X172321986Y-105285294D01*
X172095866Y-105470866D01*
X171910294Y-105696987D01*
X171901000Y-105714374D01*
X171891706Y-105696986D01*
X171706134Y-105470866D01*
X171480013Y-105285294D01*
X171222033Y-105147401D01*
X170942110Y-105062487D01*
X170651000Y-105033815D01*
X170359889Y-105062487D01*
X170079966Y-105147401D01*
X169821986Y-105285294D01*
X169601055Y-105466608D01*
X169590502Y-105431820D01*
X169531537Y-105321506D01*
X169452185Y-105224815D01*
X169355494Y-105145463D01*
X169245180Y-105086498D01*
X169125482Y-105050188D01*
X169001000Y-105037928D01*
X168436750Y-105041000D01*
X168278000Y-105199750D01*
X168278000Y-106524000D01*
X168298000Y-106524000D01*
X168298000Y-106778000D01*
X168278000Y-106778000D01*
X168278000Y-108102250D01*
X168436750Y-108261000D01*
X169001000Y-108264072D01*
X169125482Y-108251812D01*
X169245180Y-108215502D01*
X169355494Y-108156537D01*
X169452185Y-108077185D01*
X169531537Y-107980494D01*
X169590502Y-107870180D01*
X169601055Y-107835392D01*
X169821987Y-108016706D01*
X170079967Y-108154599D01*
X170359890Y-108239513D01*
X170651000Y-108268185D01*
X170855084Y-108248084D01*
X171545294Y-108938294D01*
X171576140Y-108975880D01*
X171726126Y-109098970D01*
X171897243Y-109190434D01*
X172039701Y-109233648D01*
X172082915Y-109246757D01*
X172276009Y-109265775D01*
X172324389Y-109261010D01*
X175066340Y-109261010D01*
X175114720Y-109265775D01*
X175163100Y-109261010D01*
X175307814Y-109246757D01*
X175493487Y-109190434D01*
X175664604Y-109098970D01*
X175814590Y-108975880D01*
X175845436Y-108938294D01*
X181259265Y-103524455D01*
X181296850Y-103493610D01*
X181419940Y-103343624D01*
X181457034Y-103274225D01*
X185872612Y-107711186D01*
X185942678Y-107841859D01*
X186002242Y-108036683D01*
X186006368Y-108077298D01*
X185988179Y-114270510D01*
X185917135Y-114505819D01*
X185788786Y-114747209D01*
X185615991Y-114959077D01*
X185405338Y-115133345D01*
X185164845Y-115263379D01*
X184903676Y-115344224D01*
X184601347Y-115376000D01*
X142496917Y-115376000D01*
X142496627Y-111789495D01*
X181201000Y-111789495D01*
X181201000Y-112180505D01*
X181277282Y-112564003D01*
X181426915Y-112925250D01*
X181644149Y-113250364D01*
X181920636Y-113526851D01*
X182245750Y-113744085D01*
X182606997Y-113893718D01*
X182990495Y-113970000D01*
X183381505Y-113970000D01*
X183765003Y-113893718D01*
X184126250Y-113744085D01*
X184451364Y-113526851D01*
X184727851Y-113250364D01*
X184945085Y-112925250D01*
X185094718Y-112564003D01*
X185171000Y-112180505D01*
X185171000Y-111789495D01*
X185094718Y-111405997D01*
X184945085Y-111044750D01*
X184727851Y-110719636D01*
X184451364Y-110443149D01*
X184126250Y-110225915D01*
X183765003Y-110076282D01*
X183381505Y-110000000D01*
X182990495Y-110000000D01*
X182606997Y-110076282D01*
X182245750Y-110225915D01*
X181920636Y-110443149D01*
X181644149Y-110719636D01*
X181426915Y-111044750D01*
X181277282Y-111405997D01*
X181201000Y-111789495D01*
X142496627Y-111789495D01*
X142496290Y-107626000D01*
X143802928Y-107626000D01*
X143815188Y-107750482D01*
X143851498Y-107870180D01*
X143910463Y-107980494D01*
X143989815Y-108077185D01*
X144086506Y-108156537D01*
X144196820Y-108215502D01*
X144316518Y-108251812D01*
X144441000Y-108264072D01*
X145005250Y-108261000D01*
X145164000Y-108102250D01*
X145164000Y-106778000D01*
X143964750Y-106778000D01*
X143806000Y-106936750D01*
X143802928Y-107626000D01*
X142496290Y-107626000D01*
X142496132Y-105676000D01*
X143802928Y-105676000D01*
X143806000Y-106365250D01*
X143964750Y-106524000D01*
X145164000Y-106524000D01*
X145164000Y-105199750D01*
X145418000Y-105199750D01*
X145418000Y-106524000D01*
X145438000Y-106524000D01*
X145438000Y-106778000D01*
X145418000Y-106778000D01*
X145418000Y-108102250D01*
X145576750Y-108261000D01*
X146141000Y-108264072D01*
X146265482Y-108251812D01*
X146385180Y-108215502D01*
X146495494Y-108156537D01*
X146592185Y-108077185D01*
X146671537Y-107980494D01*
X146730502Y-107870180D01*
X146741055Y-107835392D01*
X146961987Y-108016706D01*
X147219967Y-108154599D01*
X147499890Y-108239513D01*
X147791000Y-108268185D01*
X148082111Y-108239513D01*
X148362034Y-108154599D01*
X148620014Y-108016706D01*
X148846134Y-107831134D01*
X149031706Y-107605014D01*
X149041000Y-107587626D01*
X149050294Y-107605014D01*
X149235866Y-107831134D01*
X149461987Y-108016706D01*
X149719967Y-108154599D01*
X149999890Y-108239513D01*
X150291000Y-108268185D01*
X150582111Y-108239513D01*
X150862034Y-108154599D01*
X151120014Y-108016706D01*
X151346134Y-107831134D01*
X151514483Y-107626000D01*
X155232928Y-107626000D01*
X155245188Y-107750482D01*
X155281498Y-107870180D01*
X155340463Y-107980494D01*
X155419815Y-108077185D01*
X155516506Y-108156537D01*
X155626820Y-108215502D01*
X155746518Y-108251812D01*
X155871000Y-108264072D01*
X156435250Y-108261000D01*
X156594000Y-108102250D01*
X156594000Y-106778000D01*
X155394750Y-106778000D01*
X155236000Y-106936750D01*
X155232928Y-107626000D01*
X151514483Y-107626000D01*
X151531706Y-107605014D01*
X151669599Y-107347033D01*
X151754513Y-107067110D01*
X151776000Y-106848949D01*
X151776000Y-106453050D01*
X151754513Y-106234889D01*
X151669599Y-105954966D01*
X151531706Y-105696986D01*
X151514484Y-105676000D01*
X155232928Y-105676000D01*
X155236000Y-106365250D01*
X155394750Y-106524000D01*
X156594000Y-106524000D01*
X156594000Y-105199750D01*
X156848000Y-105199750D01*
X156848000Y-106524000D01*
X156868000Y-106524000D01*
X156868000Y-106778000D01*
X156848000Y-106778000D01*
X156848000Y-108102250D01*
X157006750Y-108261000D01*
X157571000Y-108264072D01*
X157695482Y-108251812D01*
X157815180Y-108215502D01*
X157925494Y-108156537D01*
X158022185Y-108077185D01*
X158101537Y-107980494D01*
X158160502Y-107870180D01*
X158171055Y-107835392D01*
X158391987Y-108016706D01*
X158649967Y-108154599D01*
X158929890Y-108239513D01*
X159221000Y-108268185D01*
X159512111Y-108239513D01*
X159792034Y-108154599D01*
X160050014Y-108016706D01*
X160276134Y-107831134D01*
X160461706Y-107605014D01*
X160471000Y-107587626D01*
X160480294Y-107605014D01*
X160665866Y-107831134D01*
X160891987Y-108016706D01*
X161149967Y-108154599D01*
X161429890Y-108239513D01*
X161721000Y-108268185D01*
X162012111Y-108239513D01*
X162292034Y-108154599D01*
X162550014Y-108016706D01*
X162776134Y-107831134D01*
X162944483Y-107626000D01*
X166662928Y-107626000D01*
X166675188Y-107750482D01*
X166711498Y-107870180D01*
X166770463Y-107980494D01*
X166849815Y-108077185D01*
X166946506Y-108156537D01*
X167056820Y-108215502D01*
X167176518Y-108251812D01*
X167301000Y-108264072D01*
X167865250Y-108261000D01*
X168024000Y-108102250D01*
X168024000Y-106778000D01*
X166824750Y-106778000D01*
X166666000Y-106936750D01*
X166662928Y-107626000D01*
X162944483Y-107626000D01*
X162961706Y-107605014D01*
X163099599Y-107347033D01*
X163184513Y-107067110D01*
X163206000Y-106848949D01*
X163206000Y-106453050D01*
X163184513Y-106234889D01*
X163099599Y-105954966D01*
X162961706Y-105696986D01*
X162944484Y-105676000D01*
X166662928Y-105676000D01*
X166666000Y-106365250D01*
X166824750Y-106524000D01*
X168024000Y-106524000D01*
X168024000Y-105199750D01*
X167865250Y-105041000D01*
X167301000Y-105037928D01*
X167176518Y-105050188D01*
X167056820Y-105086498D01*
X166946506Y-105145463D01*
X166849815Y-105224815D01*
X166770463Y-105321506D01*
X166711498Y-105431820D01*
X166675188Y-105551518D01*
X166662928Y-105676000D01*
X162944484Y-105676000D01*
X162776134Y-105470866D01*
X162550013Y-105285294D01*
X162292033Y-105147401D01*
X162012110Y-105062487D01*
X161721000Y-105033815D01*
X161429889Y-105062487D01*
X161149966Y-105147401D01*
X160891986Y-105285294D01*
X160665866Y-105470866D01*
X160480294Y-105696987D01*
X160471000Y-105714374D01*
X160461706Y-105696986D01*
X160276134Y-105470866D01*
X160050013Y-105285294D01*
X159792033Y-105147401D01*
X159512110Y-105062487D01*
X159221000Y-105033815D01*
X158929889Y-105062487D01*
X158649966Y-105147401D01*
X158391986Y-105285294D01*
X158171055Y-105466608D01*
X158160502Y-105431820D01*
X158101537Y-105321506D01*
X158022185Y-105224815D01*
X157925494Y-105145463D01*
X157815180Y-105086498D01*
X157695482Y-105050188D01*
X157571000Y-105037928D01*
X157006750Y-105041000D01*
X156848000Y-105199750D01*
X156594000Y-105199750D01*
X156435250Y-105041000D01*
X155871000Y-105037928D01*
X155746518Y-105050188D01*
X155626820Y-105086498D01*
X155516506Y-105145463D01*
X155419815Y-105224815D01*
X155340463Y-105321506D01*
X155281498Y-105431820D01*
X155245188Y-105551518D01*
X155232928Y-105676000D01*
X151514484Y-105676000D01*
X151346134Y-105470866D01*
X151120013Y-105285294D01*
X150862033Y-105147401D01*
X150582110Y-105062487D01*
X150291000Y-105033815D01*
X149999889Y-105062487D01*
X149719966Y-105147401D01*
X149461986Y-105285294D01*
X149235866Y-105470866D01*
X149050294Y-105696987D01*
X149041000Y-105714374D01*
X149031706Y-105696986D01*
X148846134Y-105470866D01*
X148620013Y-105285294D01*
X148362033Y-105147401D01*
X148082110Y-105062487D01*
X147791000Y-105033815D01*
X147499889Y-105062487D01*
X147219966Y-105147401D01*
X146961986Y-105285294D01*
X146741055Y-105466608D01*
X146730502Y-105431820D01*
X146671537Y-105321506D01*
X146592185Y-105224815D01*
X146495494Y-105145463D01*
X146385180Y-105086498D01*
X146265482Y-105050188D01*
X146141000Y-105037928D01*
X145576750Y-105041000D01*
X145418000Y-105199750D01*
X145164000Y-105199750D01*
X145005250Y-105041000D01*
X144441000Y-105037928D01*
X144316518Y-105050188D01*
X144196820Y-105086498D01*
X144086506Y-105145463D01*
X143989815Y-105224815D01*
X143910463Y-105321506D01*
X143851498Y-105431820D01*
X143815188Y-105551518D01*
X143802928Y-105676000D01*
X142496132Y-105676000D01*
X142495461Y-97395000D01*
X142621928Y-97395000D01*
X142634188Y-97519482D01*
X142670498Y-97639180D01*
X142729463Y-97749494D01*
X142808815Y-97846185D01*
X142905506Y-97925537D01*
X143015820Y-97984502D01*
X143135518Y-98020812D01*
X143260000Y-98033072D01*
X143574250Y-98030000D01*
X143733000Y-97871250D01*
X143733000Y-97197000D01*
X143987000Y-97197000D01*
X143987000Y-97871250D01*
X144145750Y-98030000D01*
X144460000Y-98033072D01*
X144584482Y-98020812D01*
X144704180Y-97984502D01*
X144814494Y-97925537D01*
X144911185Y-97846185D01*
X144990537Y-97749494D01*
X145049502Y-97639180D01*
X145085812Y-97519482D01*
X145098072Y-97395000D01*
X145095000Y-97355750D01*
X144936250Y-97197000D01*
X143987000Y-97197000D01*
X143733000Y-97197000D01*
X142783750Y-97197000D01*
X142625000Y-97355750D01*
X142621928Y-97395000D01*
X142495461Y-97395000D01*
X142495244Y-94721560D01*
X142518766Y-94714425D01*
X142651489Y-94643483D01*
X142634188Y-94700518D01*
X142621928Y-94825000D01*
X142621928Y-95475000D01*
X142634188Y-95599482D01*
X142670498Y-95719180D01*
X142729463Y-95829494D01*
X142808815Y-95926185D01*
X142905506Y-96005537D01*
X143015820Y-96064502D01*
X143135518Y-96100812D01*
X143228808Y-96110000D01*
X143135518Y-96119188D01*
X143015820Y-96155498D01*
X142905506Y-96214463D01*
X142808815Y-96293815D01*
X142729463Y-96390506D01*
X142670498Y-96500820D01*
X142634188Y-96620518D01*
X142621928Y-96745000D01*
X142625000Y-96784250D01*
X142783750Y-96943000D01*
X143733000Y-96943000D01*
X143733000Y-96923000D01*
X143987000Y-96923000D01*
X143987000Y-96943000D01*
X144936250Y-96943000D01*
X144955089Y-96924161D01*
X145005506Y-96965537D01*
X145115820Y-97024502D01*
X145235518Y-97060812D01*
X145360000Y-97073072D01*
X146281771Y-97073072D01*
X145547161Y-97807682D01*
X145517207Y-97832265D01*
X145419109Y-97951797D01*
X145346217Y-98088170D01*
X145301330Y-98236143D01*
X145289971Y-98351469D01*
X145289971Y-98351476D01*
X145286174Y-98390029D01*
X145289971Y-98428582D01*
X145289972Y-101088456D01*
X145286174Y-101127021D01*
X145301330Y-101280908D01*
X145339516Y-101406787D01*
X145346218Y-101428881D01*
X145419110Y-101565254D01*
X145446746Y-101598928D01*
X145492626Y-101654833D01*
X145492630Y-101654837D01*
X145517208Y-101684785D01*
X145547156Y-101709363D01*
X147410651Y-103572857D01*
X147435225Y-103602800D01*
X147465168Y-103627374D01*
X147465177Y-103627383D01*
X147511480Y-103665382D01*
X147554756Y-103700898D01*
X147602259Y-103726288D01*
X147691129Y-103773791D01*
X147839102Y-103818679D01*
X147992989Y-103833834D01*
X148031554Y-103830036D01*
X156533459Y-103830038D01*
X156572012Y-103833835D01*
X156610565Y-103830038D01*
X156610572Y-103830038D01*
X156725898Y-103818679D01*
X156873871Y-103773792D01*
X157010244Y-103700900D01*
X157070452Y-103651488D01*
X157099824Y-103627383D01*
X157099827Y-103627380D01*
X157129775Y-103602802D01*
X157154353Y-103572854D01*
X159412856Y-101314352D01*
X159442803Y-101289775D01*
X159468822Y-101258072D01*
X159506441Y-101212233D01*
X159540901Y-101170244D01*
X159613793Y-101033871D01*
X159620642Y-101011293D01*
X159658680Y-100885899D01*
X159665587Y-100815770D01*
X159670039Y-100770572D01*
X159670039Y-100770565D01*
X159673836Y-100732012D01*
X159670039Y-100693459D01*
X159670039Y-94487999D01*
X159673836Y-94449446D01*
X159670039Y-94410893D01*
X159670039Y-94410886D01*
X159658680Y-94295560D01*
X159613793Y-94147587D01*
X159540901Y-94011214D01*
X159491489Y-93951006D01*
X159467384Y-93921634D01*
X159467381Y-93921631D01*
X159442803Y-93891683D01*
X159412855Y-93867105D01*
X150935011Y-85389262D01*
X150935011Y-78105516D01*
X150938808Y-78066961D01*
X150935011Y-78028401D01*
X150935011Y-78028400D01*
X150928326Y-77960524D01*
X150923653Y-77913074D01*
X150878765Y-77765101D01*
X150860906Y-77731689D01*
X150805873Y-77628728D01*
X150740790Y-77549425D01*
X150732356Y-77539148D01*
X150732353Y-77539145D01*
X150707775Y-77509197D01*
X150677828Y-77484620D01*
X146595396Y-73402189D01*
X146570815Y-73372237D01*
X146451284Y-73274139D01*
X146314911Y-73201247D01*
X146166938Y-73156360D01*
X146051612Y-73145001D01*
X146051604Y-73145001D01*
X146013051Y-73141204D01*
X145974498Y-73145001D01*
X144048072Y-73145001D01*
X144048072Y-71997189D01*
X144049765Y-71980000D01*
X144048072Y-71962811D01*
X144048072Y-70480000D01*
X144045000Y-70448808D01*
X144045000Y-70425000D01*
X148216928Y-70425000D01*
X148216928Y-72658500D01*
%TA.AperFunction,Conductor*%
D38*
G36*
X148216928Y-72658500D02*
G01*
X148229188Y-72782982D01*
X148265498Y-72902680D01*
X148324463Y-73012994D01*
X148403815Y-73109685D01*
X148500506Y-73189037D01*
X148610820Y-73248002D01*
X148730518Y-73284312D01*
X148855000Y-73296572D01*
X149879821Y-73296572D01*
X149753744Y-73348795D01*
X149584226Y-73462063D01*
X149440063Y-73606226D01*
X149326795Y-73775744D01*
X149248774Y-73964102D01*
X149209000Y-74164061D01*
X149209000Y-74367939D01*
X149248774Y-74567898D01*
X149326795Y-74756256D01*
X149440063Y-74925774D01*
X149584226Y-75069937D01*
X149753744Y-75183205D01*
X149942102Y-75261226D01*
X150142061Y-75301000D01*
X150345939Y-75301000D01*
X150545898Y-75261226D01*
X150734256Y-75183205D01*
X150903774Y-75069937D01*
X151047937Y-74925774D01*
X151161205Y-74756256D01*
X151239226Y-74567898D01*
X151279000Y-74367939D01*
X151279000Y-74164061D01*
X151239226Y-73964102D01*
X151161205Y-73775744D01*
X151047937Y-73606226D01*
X150903774Y-73462063D01*
X150734256Y-73348795D01*
X150608179Y-73296572D01*
X151055000Y-73296572D01*
X151179482Y-73284312D01*
X151299180Y-73248002D01*
X151409494Y-73189037D01*
X151506185Y-73109685D01*
X151585537Y-73012994D01*
X151628305Y-72932982D01*
X151616928Y-73048500D01*
X151616928Y-73647691D01*
X151584253Y-73755407D01*
X151570000Y-73900121D01*
X151570001Y-75946301D01*
X151304907Y-76211394D01*
X151267315Y-76242245D01*
X151144225Y-76392231D01*
X151052761Y-76563349D01*
X151031668Y-76632884D01*
X150996438Y-76749021D01*
X150977420Y-76942115D01*
X150982185Y-76990495D01*
X150982186Y-84478006D01*
X150977420Y-84526396D01*
X150996438Y-84719489D01*
X151052761Y-84905162D01*
X151080133Y-84956370D01*
X151144226Y-85076280D01*
X151267316Y-85226266D01*
X151304896Y-85257107D01*
X165271573Y-99223784D01*
X165302419Y-99261370D01*
X165452405Y-99384460D01*
X165623522Y-99475924D01*
X165765980Y-99519138D01*
X165809194Y-99532247D01*
X166002288Y-99551265D01*
X166050668Y-99546500D01*
X174803380Y-99546500D01*
X174948094Y-99532247D01*
X175055810Y-99499572D01*
X175655000Y-99499572D01*
X175770518Y-99488195D01*
X175690506Y-99530963D01*
X175593815Y-99610315D01*
X175514463Y-99707006D01*
X175455498Y-99817320D01*
X175419188Y-99937018D01*
X175406928Y-100061500D01*
X175406928Y-102261500D01*
X175419188Y-102385982D01*
X175455498Y-102505680D01*
X175514463Y-102615994D01*
X175593815Y-102712685D01*
X175690506Y-102792037D01*
X175800820Y-102851002D01*
X175920518Y-102887312D01*
X176045000Y-102899572D01*
X177683929Y-102899572D01*
X174917502Y-105666000D01*
X174366276Y-105666000D01*
X174206134Y-105470866D01*
X173980013Y-105285294D01*
X173722033Y-105147401D01*
X173442110Y-105062487D01*
X173151000Y-105033815D01*
X172859889Y-105062487D01*
X172579966Y-105147401D01*
X172321986Y-105285294D01*
X172095866Y-105470866D01*
X171910294Y-105696987D01*
X171901000Y-105714374D01*
X171891706Y-105696986D01*
X171706134Y-105470866D01*
X171480013Y-105285294D01*
X171222033Y-105147401D01*
X170942110Y-105062487D01*
X170651000Y-105033815D01*
X170359889Y-105062487D01*
X170079966Y-105147401D01*
X169821986Y-105285294D01*
X169601055Y-105466608D01*
X169590502Y-105431820D01*
X169531537Y-105321506D01*
X169452185Y-105224815D01*
X169355494Y-105145463D01*
X169245180Y-105086498D01*
X169125482Y-105050188D01*
X169001000Y-105037928D01*
X168436750Y-105041000D01*
X168278000Y-105199750D01*
X168278000Y-106524000D01*
X168298000Y-106524000D01*
X168298000Y-106778000D01*
X168278000Y-106778000D01*
X168278000Y-108102250D01*
X168436750Y-108261000D01*
X169001000Y-108264072D01*
X169125482Y-108251812D01*
X169245180Y-108215502D01*
X169355494Y-108156537D01*
X169452185Y-108077185D01*
X169531537Y-107980494D01*
X169590502Y-107870180D01*
X169601055Y-107835392D01*
X169821987Y-108016706D01*
X170079967Y-108154599D01*
X170359890Y-108239513D01*
X170651000Y-108268185D01*
X170855084Y-108248084D01*
X171545294Y-108938294D01*
X171576140Y-108975880D01*
X171726126Y-109098970D01*
X171897243Y-109190434D01*
X172039701Y-109233648D01*
X172082915Y-109246757D01*
X172276009Y-109265775D01*
X172324389Y-109261010D01*
X175066340Y-109261010D01*
X175114720Y-109265775D01*
X175163100Y-109261010D01*
X175307814Y-109246757D01*
X175493487Y-109190434D01*
X175664604Y-109098970D01*
X175814590Y-108975880D01*
X175845436Y-108938294D01*
X181259265Y-103524455D01*
X181296850Y-103493610D01*
X181419940Y-103343624D01*
X181457034Y-103274225D01*
X185872612Y-107711186D01*
X185942678Y-107841859D01*
X186002242Y-108036683D01*
X186006368Y-108077298D01*
X185988179Y-114270510D01*
X185917135Y-114505819D01*
X185788786Y-114747209D01*
X185615991Y-114959077D01*
X185405338Y-115133345D01*
X185164845Y-115263379D01*
X184903676Y-115344224D01*
X184601347Y-115376000D01*
X142496917Y-115376000D01*
X142496627Y-111789495D01*
X181201000Y-111789495D01*
X181201000Y-112180505D01*
X181277282Y-112564003D01*
X181426915Y-112925250D01*
X181644149Y-113250364D01*
X181920636Y-113526851D01*
X182245750Y-113744085D01*
X182606997Y-113893718D01*
X182990495Y-113970000D01*
X183381505Y-113970000D01*
X183765003Y-113893718D01*
X184126250Y-113744085D01*
X184451364Y-113526851D01*
X184727851Y-113250364D01*
X184945085Y-112925250D01*
X185094718Y-112564003D01*
X185171000Y-112180505D01*
X185171000Y-111789495D01*
X185094718Y-111405997D01*
X184945085Y-111044750D01*
X184727851Y-110719636D01*
X184451364Y-110443149D01*
X184126250Y-110225915D01*
X183765003Y-110076282D01*
X183381505Y-110000000D01*
X182990495Y-110000000D01*
X182606997Y-110076282D01*
X182245750Y-110225915D01*
X181920636Y-110443149D01*
X181644149Y-110719636D01*
X181426915Y-111044750D01*
X181277282Y-111405997D01*
X181201000Y-111789495D01*
X142496627Y-111789495D01*
X142496290Y-107626000D01*
X143802928Y-107626000D01*
X143815188Y-107750482D01*
X143851498Y-107870180D01*
X143910463Y-107980494D01*
X143989815Y-108077185D01*
X144086506Y-108156537D01*
X144196820Y-108215502D01*
X144316518Y-108251812D01*
X144441000Y-108264072D01*
X145005250Y-108261000D01*
X145164000Y-108102250D01*
X145164000Y-106778000D01*
X143964750Y-106778000D01*
X143806000Y-106936750D01*
X143802928Y-107626000D01*
X142496290Y-107626000D01*
X142496132Y-105676000D01*
X143802928Y-105676000D01*
X143806000Y-106365250D01*
X143964750Y-106524000D01*
X145164000Y-106524000D01*
X145164000Y-105199750D01*
X145418000Y-105199750D01*
X145418000Y-106524000D01*
X145438000Y-106524000D01*
X145438000Y-106778000D01*
X145418000Y-106778000D01*
X145418000Y-108102250D01*
X145576750Y-108261000D01*
X146141000Y-108264072D01*
X146265482Y-108251812D01*
X146385180Y-108215502D01*
X146495494Y-108156537D01*
X146592185Y-108077185D01*
X146671537Y-107980494D01*
X146730502Y-107870180D01*
X146741055Y-107835392D01*
X146961987Y-108016706D01*
X147219967Y-108154599D01*
X147499890Y-108239513D01*
X147791000Y-108268185D01*
X148082111Y-108239513D01*
X148362034Y-108154599D01*
X148620014Y-108016706D01*
X148846134Y-107831134D01*
X149031706Y-107605014D01*
X149041000Y-107587626D01*
X149050294Y-107605014D01*
X149235866Y-107831134D01*
X149461987Y-108016706D01*
X149719967Y-108154599D01*
X149999890Y-108239513D01*
X150291000Y-108268185D01*
X150582111Y-108239513D01*
X150862034Y-108154599D01*
X151120014Y-108016706D01*
X151346134Y-107831134D01*
X151514483Y-107626000D01*
X155232928Y-107626000D01*
X155245188Y-107750482D01*
X155281498Y-107870180D01*
X155340463Y-107980494D01*
X155419815Y-108077185D01*
X155516506Y-108156537D01*
X155626820Y-108215502D01*
X155746518Y-108251812D01*
X155871000Y-108264072D01*
X156435250Y-108261000D01*
X156594000Y-108102250D01*
X156594000Y-106778000D01*
X155394750Y-106778000D01*
X155236000Y-106936750D01*
X155232928Y-107626000D01*
X151514483Y-107626000D01*
X151531706Y-107605014D01*
X151669599Y-107347033D01*
X151754513Y-107067110D01*
X151776000Y-106848949D01*
X151776000Y-106453050D01*
X151754513Y-106234889D01*
X151669599Y-105954966D01*
X151531706Y-105696986D01*
X151514484Y-105676000D01*
X155232928Y-105676000D01*
X155236000Y-106365250D01*
X155394750Y-106524000D01*
X156594000Y-106524000D01*
X156594000Y-105199750D01*
X156848000Y-105199750D01*
X156848000Y-106524000D01*
X156868000Y-106524000D01*
X156868000Y-106778000D01*
X156848000Y-106778000D01*
X156848000Y-108102250D01*
X157006750Y-108261000D01*
X157571000Y-108264072D01*
X157695482Y-108251812D01*
X157815180Y-108215502D01*
X157925494Y-108156537D01*
X158022185Y-108077185D01*
X158101537Y-107980494D01*
X158160502Y-107870180D01*
X158171055Y-107835392D01*
X158391987Y-108016706D01*
X158649967Y-108154599D01*
X158929890Y-108239513D01*
X159221000Y-108268185D01*
X159512111Y-108239513D01*
X159792034Y-108154599D01*
X160050014Y-108016706D01*
X160276134Y-107831134D01*
X160461706Y-107605014D01*
X160471000Y-107587626D01*
X160480294Y-107605014D01*
X160665866Y-107831134D01*
X160891987Y-108016706D01*
X161149967Y-108154599D01*
X161429890Y-108239513D01*
X161721000Y-108268185D01*
X162012111Y-108239513D01*
X162292034Y-108154599D01*
X162550014Y-108016706D01*
X162776134Y-107831134D01*
X162944483Y-107626000D01*
X166662928Y-107626000D01*
X166675188Y-107750482D01*
X166711498Y-107870180D01*
X166770463Y-107980494D01*
X166849815Y-108077185D01*
X166946506Y-108156537D01*
X167056820Y-108215502D01*
X167176518Y-108251812D01*
X167301000Y-108264072D01*
X167865250Y-108261000D01*
X168024000Y-108102250D01*
X168024000Y-106778000D01*
X166824750Y-106778000D01*
X166666000Y-106936750D01*
X166662928Y-107626000D01*
X162944483Y-107626000D01*
X162961706Y-107605014D01*
X163099599Y-107347033D01*
X163184513Y-107067110D01*
X163206000Y-106848949D01*
X163206000Y-106453050D01*
X163184513Y-106234889D01*
X163099599Y-105954966D01*
X162961706Y-105696986D01*
X162944484Y-105676000D01*
X166662928Y-105676000D01*
X166666000Y-106365250D01*
X166824750Y-106524000D01*
X168024000Y-106524000D01*
X168024000Y-105199750D01*
X167865250Y-105041000D01*
X167301000Y-105037928D01*
X167176518Y-105050188D01*
X167056820Y-105086498D01*
X166946506Y-105145463D01*
X166849815Y-105224815D01*
X166770463Y-105321506D01*
X166711498Y-105431820D01*
X166675188Y-105551518D01*
X166662928Y-105676000D01*
X162944484Y-105676000D01*
X162776134Y-105470866D01*
X162550013Y-105285294D01*
X162292033Y-105147401D01*
X162012110Y-105062487D01*
X161721000Y-105033815D01*
X161429889Y-105062487D01*
X161149966Y-105147401D01*
X160891986Y-105285294D01*
X160665866Y-105470866D01*
X160480294Y-105696987D01*
X160471000Y-105714374D01*
X160461706Y-105696986D01*
X160276134Y-105470866D01*
X160050013Y-105285294D01*
X159792033Y-105147401D01*
X159512110Y-105062487D01*
X159221000Y-105033815D01*
X158929889Y-105062487D01*
X158649966Y-105147401D01*
X158391986Y-105285294D01*
X158171055Y-105466608D01*
X158160502Y-105431820D01*
X158101537Y-105321506D01*
X158022185Y-105224815D01*
X157925494Y-105145463D01*
X157815180Y-105086498D01*
X157695482Y-105050188D01*
X157571000Y-105037928D01*
X157006750Y-105041000D01*
X156848000Y-105199750D01*
X156594000Y-105199750D01*
X156435250Y-105041000D01*
X155871000Y-105037928D01*
X155746518Y-105050188D01*
X155626820Y-105086498D01*
X155516506Y-105145463D01*
X155419815Y-105224815D01*
X155340463Y-105321506D01*
X155281498Y-105431820D01*
X155245188Y-105551518D01*
X155232928Y-105676000D01*
X151514484Y-105676000D01*
X151346134Y-105470866D01*
X151120013Y-105285294D01*
X150862033Y-105147401D01*
X150582110Y-105062487D01*
X150291000Y-105033815D01*
X149999889Y-105062487D01*
X149719966Y-105147401D01*
X149461986Y-105285294D01*
X149235866Y-105470866D01*
X149050294Y-105696987D01*
X149041000Y-105714374D01*
X149031706Y-105696986D01*
X148846134Y-105470866D01*
X148620013Y-105285294D01*
X148362033Y-105147401D01*
X148082110Y-105062487D01*
X147791000Y-105033815D01*
X147499889Y-105062487D01*
X147219966Y-105147401D01*
X146961986Y-105285294D01*
X146741055Y-105466608D01*
X146730502Y-105431820D01*
X146671537Y-105321506D01*
X146592185Y-105224815D01*
X146495494Y-105145463D01*
X146385180Y-105086498D01*
X146265482Y-105050188D01*
X146141000Y-105037928D01*
X145576750Y-105041000D01*
X145418000Y-105199750D01*
X145164000Y-105199750D01*
X145005250Y-105041000D01*
X144441000Y-105037928D01*
X144316518Y-105050188D01*
X144196820Y-105086498D01*
X144086506Y-105145463D01*
X143989815Y-105224815D01*
X143910463Y-105321506D01*
X143851498Y-105431820D01*
X143815188Y-105551518D01*
X143802928Y-105676000D01*
X142496132Y-105676000D01*
X142495461Y-97395000D01*
X142621928Y-97395000D01*
X142634188Y-97519482D01*
X142670498Y-97639180D01*
X142729463Y-97749494D01*
X142808815Y-97846185D01*
X142905506Y-97925537D01*
X143015820Y-97984502D01*
X143135518Y-98020812D01*
X143260000Y-98033072D01*
X143574250Y-98030000D01*
X143733000Y-97871250D01*
X143733000Y-97197000D01*
X143987000Y-97197000D01*
X143987000Y-97871250D01*
X144145750Y-98030000D01*
X144460000Y-98033072D01*
X144584482Y-98020812D01*
X144704180Y-97984502D01*
X144814494Y-97925537D01*
X144911185Y-97846185D01*
X144990537Y-97749494D01*
X145049502Y-97639180D01*
X145085812Y-97519482D01*
X145098072Y-97395000D01*
X145095000Y-97355750D01*
X144936250Y-97197000D01*
X143987000Y-97197000D01*
X143733000Y-97197000D01*
X142783750Y-97197000D01*
X142625000Y-97355750D01*
X142621928Y-97395000D01*
X142495461Y-97395000D01*
X142495244Y-94721560D01*
X142518766Y-94714425D01*
X142651489Y-94643483D01*
X142634188Y-94700518D01*
X142621928Y-94825000D01*
X142621928Y-95475000D01*
X142634188Y-95599482D01*
X142670498Y-95719180D01*
X142729463Y-95829494D01*
X142808815Y-95926185D01*
X142905506Y-96005537D01*
X143015820Y-96064502D01*
X143135518Y-96100812D01*
X143228808Y-96110000D01*
X143135518Y-96119188D01*
X143015820Y-96155498D01*
X142905506Y-96214463D01*
X142808815Y-96293815D01*
X142729463Y-96390506D01*
X142670498Y-96500820D01*
X142634188Y-96620518D01*
X142621928Y-96745000D01*
X142625000Y-96784250D01*
X142783750Y-96943000D01*
X143733000Y-96943000D01*
X143733000Y-96923000D01*
X143987000Y-96923000D01*
X143987000Y-96943000D01*
X144936250Y-96943000D01*
X144955089Y-96924161D01*
X145005506Y-96965537D01*
X145115820Y-97024502D01*
X145235518Y-97060812D01*
X145360000Y-97073072D01*
X146281771Y-97073072D01*
X145547161Y-97807682D01*
X145517207Y-97832265D01*
X145419109Y-97951797D01*
X145346217Y-98088170D01*
X145301330Y-98236143D01*
X145289971Y-98351469D01*
X145289971Y-98351476D01*
X145286174Y-98390029D01*
X145289971Y-98428582D01*
X145289972Y-101088456D01*
X145286174Y-101127021D01*
X145301330Y-101280908D01*
X145339516Y-101406787D01*
X145346218Y-101428881D01*
X145419110Y-101565254D01*
X145446746Y-101598928D01*
X145492626Y-101654833D01*
X145492630Y-101654837D01*
X145517208Y-101684785D01*
X145547156Y-101709363D01*
X147410651Y-103572857D01*
X147435225Y-103602800D01*
X147465168Y-103627374D01*
X147465177Y-103627383D01*
X147511480Y-103665382D01*
X147554756Y-103700898D01*
X147602259Y-103726288D01*
X147691129Y-103773791D01*
X147839102Y-103818679D01*
X147992989Y-103833834D01*
X148031554Y-103830036D01*
X156533459Y-103830038D01*
X156572012Y-103833835D01*
X156610565Y-103830038D01*
X156610572Y-103830038D01*
X156725898Y-103818679D01*
X156873871Y-103773792D01*
X157010244Y-103700900D01*
X157070452Y-103651488D01*
X157099824Y-103627383D01*
X157099827Y-103627380D01*
X157129775Y-103602802D01*
X157154353Y-103572854D01*
X159412856Y-101314352D01*
X159442803Y-101289775D01*
X159468822Y-101258072D01*
X159506441Y-101212233D01*
X159540901Y-101170244D01*
X159613793Y-101033871D01*
X159620642Y-101011293D01*
X159658680Y-100885899D01*
X159665587Y-100815770D01*
X159670039Y-100770572D01*
X159670039Y-100770565D01*
X159673836Y-100732012D01*
X159670039Y-100693459D01*
X159670039Y-94487999D01*
X159673836Y-94449446D01*
X159670039Y-94410893D01*
X159670039Y-94410886D01*
X159658680Y-94295560D01*
X159613793Y-94147587D01*
X159540901Y-94011214D01*
X159491489Y-93951006D01*
X159467384Y-93921634D01*
X159467381Y-93921631D01*
X159442803Y-93891683D01*
X159412855Y-93867105D01*
X150935011Y-85389262D01*
X150935011Y-78105516D01*
X150938808Y-78066961D01*
X150935011Y-78028401D01*
X150935011Y-78028400D01*
X150928326Y-77960524D01*
X150923653Y-77913074D01*
X150878765Y-77765101D01*
X150860906Y-77731689D01*
X150805873Y-77628728D01*
X150740790Y-77549425D01*
X150732356Y-77539148D01*
X150732353Y-77539145D01*
X150707775Y-77509197D01*
X150677828Y-77484620D01*
X146595396Y-73402189D01*
X146570815Y-73372237D01*
X146451284Y-73274139D01*
X146314911Y-73201247D01*
X146166938Y-73156360D01*
X146051612Y-73145001D01*
X146051604Y-73145001D01*
X146013051Y-73141204D01*
X145974498Y-73145001D01*
X144048072Y-73145001D01*
X144048072Y-71997189D01*
X144049765Y-71980000D01*
X144048072Y-71962811D01*
X144048072Y-70480000D01*
X144045000Y-70448808D01*
X144045000Y-70425000D01*
X148216928Y-70425000D01*
X148216928Y-72658500D01*
G37*
%TD.AperFunction*%
D37*
X153837325Y-93057517D02*
X152419685Y-94475158D01*
X152389737Y-94499736D01*
X152365159Y-94529684D01*
X152365155Y-94529688D01*
X152341057Y-94559052D01*
X152291639Y-94619267D01*
X152291113Y-94620251D01*
X152145150Y-94664528D01*
X151991614Y-94746595D01*
X151857038Y-94857038D01*
X151746595Y-94991614D01*
X151664528Y-95145150D01*
X151613992Y-95311746D01*
X151596928Y-95485000D01*
X151596928Y-96650010D01*
X151584207Y-96650010D01*
X151593072Y-96560001D01*
X151593072Y-95659999D01*
X151576008Y-95486745D01*
X151525472Y-95320149D01*
X151443405Y-95166613D01*
X151332962Y-95032038D01*
X151198387Y-94921595D01*
X151044851Y-94839528D01*
X150878255Y-94788992D01*
X150705001Y-94771928D01*
X150127085Y-94771928D01*
X149787337Y-94432180D01*
X149762754Y-94402226D01*
X149643223Y-94304128D01*
X149506850Y-94231236D01*
X149358877Y-94186349D01*
X149243551Y-94174990D01*
X149243543Y-94174990D01*
X149204990Y-94171193D01*
X149166437Y-94174990D01*
X147148566Y-94174990D01*
X147110010Y-94171193D01*
X147071454Y-94174990D01*
X147071449Y-94174990D01*
X147033102Y-94178767D01*
X146956123Y-94186348D01*
X146808150Y-94231236D01*
X146671777Y-94304128D01*
X146552246Y-94402226D01*
X146527663Y-94432180D01*
X145812915Y-95146928D01*
X145360000Y-95146928D01*
X145235518Y-95159188D01*
X145115820Y-95195498D01*
X145098072Y-95204985D01*
X145098072Y-95092796D01*
X145551434Y-94639435D01*
X145583292Y-94613290D01*
X145609940Y-94580820D01*
X145687637Y-94486145D01*
X145765173Y-94341086D01*
X145780473Y-94290649D01*
X145812919Y-94183688D01*
X145825001Y-94061018D01*
X145825001Y-94061017D01*
X145829041Y-94019999D01*
X145825001Y-93978981D01*
X145825001Y-91151019D01*
X145829041Y-91110001D01*
X145812919Y-90946313D01*
X145803495Y-90915244D01*
X145765173Y-90788914D01*
X145687637Y-90643855D01*
X145583292Y-90516710D01*
X145551433Y-90490564D01*
X145098807Y-90037939D01*
X145102220Y-90020782D01*
X147147030Y-87975972D01*
X147340237Y-87937541D01*
X147564993Y-87844444D01*
X147767268Y-87709288D01*
X147939288Y-87537268D01*
X148074444Y-87334993D01*
X148086265Y-87306456D01*
X153837325Y-93057517D01*
%TA.AperFunction,Conductor*%
D38*
G36*
X153837325Y-93057517D02*
G01*
X152419685Y-94475158D01*
X152389737Y-94499736D01*
X152365159Y-94529684D01*
X152365155Y-94529688D01*
X152341057Y-94559052D01*
X152291639Y-94619267D01*
X152291113Y-94620251D01*
X152145150Y-94664528D01*
X151991614Y-94746595D01*
X151857038Y-94857038D01*
X151746595Y-94991614D01*
X151664528Y-95145150D01*
X151613992Y-95311746D01*
X151596928Y-95485000D01*
X151596928Y-96650010D01*
X151584207Y-96650010D01*
X151593072Y-96560001D01*
X151593072Y-95659999D01*
X151576008Y-95486745D01*
X151525472Y-95320149D01*
X151443405Y-95166613D01*
X151332962Y-95032038D01*
X151198387Y-94921595D01*
X151044851Y-94839528D01*
X150878255Y-94788992D01*
X150705001Y-94771928D01*
X150127085Y-94771928D01*
X149787337Y-94432180D01*
X149762754Y-94402226D01*
X149643223Y-94304128D01*
X149506850Y-94231236D01*
X149358877Y-94186349D01*
X149243551Y-94174990D01*
X149243543Y-94174990D01*
X149204990Y-94171193D01*
X149166437Y-94174990D01*
X147148566Y-94174990D01*
X147110010Y-94171193D01*
X147071454Y-94174990D01*
X147071449Y-94174990D01*
X147033102Y-94178767D01*
X146956123Y-94186348D01*
X146808150Y-94231236D01*
X146671777Y-94304128D01*
X146552246Y-94402226D01*
X146527663Y-94432180D01*
X145812915Y-95146928D01*
X145360000Y-95146928D01*
X145235518Y-95159188D01*
X145115820Y-95195498D01*
X145098072Y-95204985D01*
X145098072Y-95092796D01*
X145551434Y-94639435D01*
X145583292Y-94613290D01*
X145609940Y-94580820D01*
X145687637Y-94486145D01*
X145765173Y-94341086D01*
X145780473Y-94290649D01*
X145812919Y-94183688D01*
X145825001Y-94061018D01*
X145825001Y-94061017D01*
X145829041Y-94019999D01*
X145825001Y-93978981D01*
X145825001Y-91151019D01*
X145829041Y-91110001D01*
X145812919Y-90946313D01*
X145803495Y-90915244D01*
X145765173Y-90788914D01*
X145687637Y-90643855D01*
X145583292Y-90516710D01*
X145551433Y-90490564D01*
X145098807Y-90037939D01*
X145102220Y-90020782D01*
X147147030Y-87975972D01*
X147340237Y-87937541D01*
X147564993Y-87844444D01*
X147767268Y-87709288D01*
X147939288Y-87537268D01*
X148074444Y-87334993D01*
X148086265Y-87306456D01*
X153837325Y-93057517D01*
G37*
%TD.AperFunction*%
D37*
X145323750Y-82973000D02*
X146273000Y-82973000D01*
X146273000Y-82953000D01*
X146527000Y-82953000D01*
X146527000Y-82973000D01*
X147476250Y-82973000D01*
X147495089Y-82954161D01*
X147545506Y-82995537D01*
X147655820Y-83054502D01*
X147715001Y-83072454D01*
X147715000Y-84923517D01*
X147589966Y-84911203D01*
X147536988Y-84916421D01*
X147522563Y-84915000D01*
X144880158Y-84915000D01*
X143390158Y-83425000D01*
X145161928Y-83425000D01*
X145174188Y-83549482D01*
X145210498Y-83669180D01*
X145269463Y-83779494D01*
X145348815Y-83876185D01*
X145445506Y-83955537D01*
X145555820Y-84014502D01*
X145675518Y-84050812D01*
X145800000Y-84063072D01*
X146114250Y-84060000D01*
X146273000Y-83901250D01*
X146273000Y-83227000D01*
X146527000Y-83227000D01*
X146527000Y-83901250D01*
X146685750Y-84060000D01*
X147000000Y-84063072D01*
X147124482Y-84050812D01*
X147244180Y-84014502D01*
X147354494Y-83955537D01*
X147451185Y-83876185D01*
X147530537Y-83779494D01*
X147589502Y-83669180D01*
X147625812Y-83549482D01*
X147638072Y-83425000D01*
X147635000Y-83385750D01*
X147476250Y-83227000D01*
X146527000Y-83227000D01*
X146273000Y-83227000D01*
X145323750Y-83227000D01*
X145165000Y-83385750D01*
X145161928Y-83425000D01*
X143390158Y-83425000D01*
X143193072Y-83227915D01*
X143193072Y-83045015D01*
X143210820Y-83054502D01*
X143330518Y-83090812D01*
X143455000Y-83103072D01*
X144655000Y-83103072D01*
X144779482Y-83090812D01*
X144899180Y-83054502D01*
X145009494Y-82995537D01*
X145106185Y-82916185D01*
X145178644Y-82827894D01*
X145323750Y-82973000D01*
%TA.AperFunction,Conductor*%
D38*
G36*
X145323750Y-82973000D02*
G01*
X146273000Y-82973000D01*
X146273000Y-82953000D01*
X146527000Y-82953000D01*
X146527000Y-82973000D01*
X147476250Y-82973000D01*
X147495089Y-82954161D01*
X147545506Y-82995537D01*
X147655820Y-83054502D01*
X147715001Y-83072454D01*
X147715000Y-84923517D01*
X147589966Y-84911203D01*
X147536988Y-84916421D01*
X147522563Y-84915000D01*
X144880158Y-84915000D01*
X143390158Y-83425000D01*
X145161928Y-83425000D01*
X145174188Y-83549482D01*
X145210498Y-83669180D01*
X145269463Y-83779494D01*
X145348815Y-83876185D01*
X145445506Y-83955537D01*
X145555820Y-84014502D01*
X145675518Y-84050812D01*
X145800000Y-84063072D01*
X146114250Y-84060000D01*
X146273000Y-83901250D01*
X146273000Y-83227000D01*
X146527000Y-83227000D01*
X146527000Y-83901250D01*
X146685750Y-84060000D01*
X147000000Y-84063072D01*
X147124482Y-84050812D01*
X147244180Y-84014502D01*
X147354494Y-83955537D01*
X147451185Y-83876185D01*
X147530537Y-83779494D01*
X147589502Y-83669180D01*
X147625812Y-83549482D01*
X147638072Y-83425000D01*
X147635000Y-83385750D01*
X147476250Y-83227000D01*
X146527000Y-83227000D01*
X146273000Y-83227000D01*
X145323750Y-83227000D01*
X145165000Y-83385750D01*
X145161928Y-83425000D01*
X143390158Y-83425000D01*
X143193072Y-83227915D01*
X143193072Y-83045015D01*
X143210820Y-83054502D01*
X143330518Y-83090812D01*
X143455000Y-83103072D01*
X144655000Y-83103072D01*
X144779482Y-83090812D01*
X144899180Y-83054502D01*
X145009494Y-82995537D01*
X145106185Y-82916185D01*
X145178644Y-82827894D01*
X145323750Y-82973000D01*
G37*
%TD.AperFunction*%
D37*
X135421928Y-66780000D02*
X135421928Y-68680000D01*
X135434188Y-68804482D01*
X135470498Y-68924180D01*
X135529463Y-69034494D01*
X135608815Y-69131185D01*
X135705506Y-69210537D01*
X135815820Y-69269502D01*
X135935518Y-69305812D01*
X136060000Y-69318072D01*
X137160000Y-69318072D01*
X137284482Y-69305812D01*
X137404180Y-69269502D01*
X137514494Y-69210537D01*
X137611185Y-69131185D01*
X137690537Y-69034494D01*
X137749502Y-68924180D01*
X137785812Y-68804482D01*
X137798072Y-68680000D01*
X137798072Y-66780000D01*
X137789799Y-66696000D01*
X143830201Y-66696000D01*
X143821928Y-66780000D01*
X143821928Y-68455000D01*
X143753785Y-68455000D01*
X143589992Y-68345557D01*
X143365236Y-68252460D01*
X143126637Y-68205000D01*
X142883363Y-68205000D01*
X142644764Y-68252460D01*
X142420008Y-68345557D01*
X142217733Y-68480713D01*
X142181392Y-68517054D01*
X142091880Y-68479976D01*
X142095226Y-68471898D01*
X142135000Y-68271939D01*
X142135000Y-68068061D01*
X142095226Y-67868102D01*
X142017205Y-67679744D01*
X141903937Y-67510226D01*
X141759774Y-67366063D01*
X141590256Y-67252795D01*
X141401898Y-67174774D01*
X141201939Y-67135000D01*
X140998061Y-67135000D01*
X140798102Y-67174774D01*
X140609744Y-67252795D01*
X140440226Y-67366063D01*
X140296063Y-67510226D01*
X140182795Y-67679744D01*
X140104774Y-67868102D01*
X140075907Y-68013225D01*
X139498574Y-68590559D01*
X139466710Y-68616709D01*
X139440562Y-68648571D01*
X139362364Y-68743855D01*
X139284828Y-68888914D01*
X139237082Y-69046312D01*
X139220960Y-69210000D01*
X139225001Y-69251028D01*
X139225001Y-69928353D01*
X139154180Y-69890498D01*
X139034482Y-69854188D01*
X138910000Y-69841928D01*
X138210000Y-69841928D01*
X138085518Y-69854188D01*
X137965820Y-69890498D01*
X137855506Y-69949463D01*
X137758815Y-70028815D01*
X137679463Y-70125506D01*
X137620498Y-70235820D01*
X137584188Y-70355518D01*
X137571928Y-70480000D01*
X137571928Y-73480000D01*
X137584188Y-73604482D01*
X137620498Y-73724180D01*
X137679463Y-73834494D01*
X137758815Y-73931185D01*
X137855506Y-74010537D01*
X137965820Y-74069502D01*
X138085518Y-74105812D01*
X138210000Y-74118072D01*
X138910000Y-74118072D01*
X139034482Y-74105812D01*
X139154180Y-74069502D01*
X139264494Y-74010537D01*
X139300618Y-73980891D01*
X139331246Y-74081859D01*
X139332330Y-74083887D01*
X139404139Y-74218233D01*
X139444690Y-74267644D01*
X139477655Y-74307812D01*
X139477659Y-74307816D01*
X139502237Y-74337764D01*
X139532185Y-74362342D01*
X139622973Y-74453130D01*
X139500000Y-74451928D01*
X139375518Y-74464188D01*
X139255820Y-74500498D01*
X139145506Y-74559463D01*
X139048815Y-74638815D01*
X138969463Y-74735506D01*
X138910498Y-74845820D01*
X138874188Y-74965518D01*
X138861928Y-75090000D01*
X138865000Y-75504250D01*
X139023750Y-75663000D01*
X139973000Y-75663000D01*
X139973000Y-75643000D01*
X140227000Y-75643000D01*
X140227000Y-75663000D01*
X140247000Y-75663000D01*
X140247000Y-75917000D01*
X140227000Y-75917000D01*
X140227000Y-76966250D01*
X140385750Y-77125000D01*
X140700000Y-77128072D01*
X140824482Y-77115812D01*
X140944180Y-77079502D01*
X141054494Y-77020537D01*
X141151185Y-76941185D01*
X141175363Y-76911724D01*
X141256613Y-76978405D01*
X141410149Y-77060472D01*
X141576745Y-77111008D01*
X141749999Y-77128072D01*
X142391059Y-77128072D01*
X142213224Y-77305908D01*
X142068102Y-77334774D01*
X141879744Y-77412795D01*
X141710226Y-77526063D01*
X141566063Y-77670226D01*
X141452795Y-77839744D01*
X141374774Y-78028102D01*
X141335000Y-78228061D01*
X141335000Y-78431939D01*
X141374774Y-78631898D01*
X141452795Y-78820256D01*
X141566063Y-78989774D01*
X141710226Y-79133937D01*
X141879744Y-79247205D01*
X142068102Y-79325226D01*
X142268061Y-79365000D01*
X142471939Y-79365000D01*
X142671898Y-79325226D01*
X142860256Y-79247205D01*
X143013537Y-79144787D01*
X143087750Y-79219000D01*
X144037000Y-79219000D01*
X144037000Y-79199000D01*
X144291000Y-79199000D01*
X144291000Y-79219000D01*
X144311000Y-79219000D01*
X144311000Y-79473000D01*
X144291000Y-79473000D01*
X144291000Y-79493000D01*
X144037000Y-79493000D01*
X144037000Y-79473000D01*
X143087750Y-79473000D01*
X142929000Y-79631750D01*
X142925928Y-80046000D01*
X142938188Y-80170482D01*
X142974498Y-80290180D01*
X143030526Y-80395000D01*
X142995444Y-80395000D01*
X142909494Y-80324463D01*
X142799180Y-80265498D01*
X142679482Y-80229188D01*
X142555000Y-80216928D01*
X141355000Y-80216928D01*
X141230518Y-80229188D01*
X141110820Y-80265498D01*
X141000506Y-80324463D01*
X140903815Y-80403815D01*
X140824463Y-80500506D01*
X140765498Y-80610820D01*
X140729188Y-80730518D01*
X140726183Y-80761026D01*
X138997347Y-79032190D01*
X138972764Y-79002236D01*
X138853233Y-78904138D01*
X138716860Y-78831246D01*
X138568887Y-78786359D01*
X138453561Y-78775000D01*
X138453553Y-78775000D01*
X138415000Y-78771203D01*
X138376447Y-78775000D01*
X137409232Y-78775000D01*
X137385706Y-78730986D01*
X137204392Y-78510055D01*
X137239180Y-78499502D01*
X137349494Y-78440537D01*
X137446185Y-78361185D01*
X137525537Y-78264494D01*
X137584502Y-78154180D01*
X137620812Y-78034482D01*
X137633072Y-77910000D01*
X137630000Y-77345750D01*
X137471250Y-77187000D01*
X136147000Y-77187000D01*
X136147000Y-77207000D01*
X135893000Y-77207000D01*
X135893000Y-77187000D01*
X134568750Y-77187000D01*
X134410000Y-77345750D01*
X134406928Y-77910000D01*
X134419188Y-78034482D01*
X134455498Y-78154180D01*
X134514463Y-78264494D01*
X134593815Y-78361185D01*
X134690506Y-78440537D01*
X134800820Y-78499502D01*
X134835608Y-78510055D01*
X134654294Y-78730986D01*
X134516401Y-78988966D01*
X134431487Y-79268889D01*
X134402815Y-79560000D01*
X134422916Y-79764084D01*
X133732701Y-80454299D01*
X133695121Y-80485140D01*
X133572031Y-80635126D01*
X133545869Y-80684072D01*
X133480566Y-80806244D01*
X133424243Y-80991917D01*
X133405225Y-81185010D01*
X133409991Y-81233399D01*
X133409990Y-82632944D01*
X133405225Y-82681324D01*
X133416815Y-82799002D01*
X133424243Y-82874417D01*
X133480566Y-83060090D01*
X133572030Y-83231208D01*
X133695120Y-83381194D01*
X133732706Y-83412040D01*
X134873666Y-84553000D01*
X127346000Y-84553000D01*
X127346000Y-76210000D01*
X134406928Y-76210000D01*
X134410000Y-76774250D01*
X134568750Y-76933000D01*
X135893000Y-76933000D01*
X135893000Y-75733750D01*
X136147000Y-75733750D01*
X136147000Y-76933000D01*
X137471250Y-76933000D01*
X137630000Y-76774250D01*
X137631547Y-76490000D01*
X138861928Y-76490000D01*
X138874188Y-76614482D01*
X138910498Y-76734180D01*
X138969463Y-76844494D01*
X139048815Y-76941185D01*
X139145506Y-77020537D01*
X139255820Y-77079502D01*
X139375518Y-77115812D01*
X139500000Y-77128072D01*
X139814250Y-77125000D01*
X139973000Y-76966250D01*
X139973000Y-75917000D01*
X139023750Y-75917000D01*
X138865000Y-76075750D01*
X138861928Y-76490000D01*
X137631547Y-76490000D01*
X137633072Y-76210000D01*
X137620812Y-76085518D01*
X137584502Y-75965820D01*
X137525537Y-75855506D01*
X137446185Y-75758815D01*
X137349494Y-75679463D01*
X137239180Y-75620498D01*
X137119482Y-75584188D01*
X136995000Y-75571928D01*
X136305750Y-75575000D01*
X136147000Y-75733750D01*
X135893000Y-75733750D01*
X135734250Y-75575000D01*
X135045000Y-75571928D01*
X134920518Y-75584188D01*
X134800820Y-75620498D01*
X134690506Y-75679463D01*
X134593815Y-75758815D01*
X134514463Y-75855506D01*
X134455498Y-75965820D01*
X134419188Y-76085518D01*
X134406928Y-76210000D01*
X127346000Y-76210000D01*
X127346000Y-69340495D01*
X128201002Y-69340495D01*
X128201002Y-69731505D01*
X128277284Y-70115003D01*
X128426917Y-70476250D01*
X128644151Y-70801364D01*
X128920638Y-71077851D01*
X129245752Y-71295085D01*
X129606999Y-71444718D01*
X129990497Y-71521000D01*
X130381507Y-71521000D01*
X130765005Y-71444718D01*
X131126252Y-71295085D01*
X131451366Y-71077851D01*
X131727853Y-70801364D01*
X131945087Y-70476250D01*
X132094720Y-70115003D01*
X132171002Y-69731505D01*
X132171002Y-69340495D01*
X132094720Y-68956997D01*
X131945087Y-68595750D01*
X131727853Y-68270636D01*
X131451366Y-67994149D01*
X131126252Y-67776915D01*
X130765005Y-67627282D01*
X130381507Y-67551000D01*
X129990497Y-67551000D01*
X129606999Y-67627282D01*
X129245752Y-67776915D01*
X128920638Y-67994149D01*
X128644151Y-68270636D01*
X128426917Y-68595750D01*
X128277284Y-68956997D01*
X128201002Y-69340495D01*
X127346000Y-69340495D01*
X127346000Y-67755279D01*
X127368664Y-67524136D01*
X127426417Y-67332848D01*
X127520229Y-67156415D01*
X127646515Y-67001573D01*
X127800479Y-66874203D01*
X127976251Y-66779164D01*
X128167131Y-66720077D01*
X128396200Y-66696000D01*
X135430201Y-66696000D01*
X135421928Y-66780000D01*
%TA.AperFunction,Conductor*%
D38*
G36*
X135421928Y-66780000D02*
G01*
X135421928Y-68680000D01*
X135434188Y-68804482D01*
X135470498Y-68924180D01*
X135529463Y-69034494D01*
X135608815Y-69131185D01*
X135705506Y-69210537D01*
X135815820Y-69269502D01*
X135935518Y-69305812D01*
X136060000Y-69318072D01*
X137160000Y-69318072D01*
X137284482Y-69305812D01*
X137404180Y-69269502D01*
X137514494Y-69210537D01*
X137611185Y-69131185D01*
X137690537Y-69034494D01*
X137749502Y-68924180D01*
X137785812Y-68804482D01*
X137798072Y-68680000D01*
X137798072Y-66780000D01*
X137789799Y-66696000D01*
X143830201Y-66696000D01*
X143821928Y-66780000D01*
X143821928Y-68455000D01*
X143753785Y-68455000D01*
X143589992Y-68345557D01*
X143365236Y-68252460D01*
X143126637Y-68205000D01*
X142883363Y-68205000D01*
X142644764Y-68252460D01*
X142420008Y-68345557D01*
X142217733Y-68480713D01*
X142181392Y-68517054D01*
X142091880Y-68479976D01*
X142095226Y-68471898D01*
X142135000Y-68271939D01*
X142135000Y-68068061D01*
X142095226Y-67868102D01*
X142017205Y-67679744D01*
X141903937Y-67510226D01*
X141759774Y-67366063D01*
X141590256Y-67252795D01*
X141401898Y-67174774D01*
X141201939Y-67135000D01*
X140998061Y-67135000D01*
X140798102Y-67174774D01*
X140609744Y-67252795D01*
X140440226Y-67366063D01*
X140296063Y-67510226D01*
X140182795Y-67679744D01*
X140104774Y-67868102D01*
X140075907Y-68013225D01*
X139498574Y-68590559D01*
X139466710Y-68616709D01*
X139440562Y-68648571D01*
X139362364Y-68743855D01*
X139284828Y-68888914D01*
X139237082Y-69046312D01*
X139220960Y-69210000D01*
X139225001Y-69251028D01*
X139225001Y-69928353D01*
X139154180Y-69890498D01*
X139034482Y-69854188D01*
X138910000Y-69841928D01*
X138210000Y-69841928D01*
X138085518Y-69854188D01*
X137965820Y-69890498D01*
X137855506Y-69949463D01*
X137758815Y-70028815D01*
X137679463Y-70125506D01*
X137620498Y-70235820D01*
X137584188Y-70355518D01*
X137571928Y-70480000D01*
X137571928Y-73480000D01*
X137584188Y-73604482D01*
X137620498Y-73724180D01*
X137679463Y-73834494D01*
X137758815Y-73931185D01*
X137855506Y-74010537D01*
X137965820Y-74069502D01*
X138085518Y-74105812D01*
X138210000Y-74118072D01*
X138910000Y-74118072D01*
X139034482Y-74105812D01*
X139154180Y-74069502D01*
X139264494Y-74010537D01*
X139300618Y-73980891D01*
X139331246Y-74081859D01*
X139332330Y-74083887D01*
X139404139Y-74218233D01*
X139444690Y-74267644D01*
X139477655Y-74307812D01*
X139477659Y-74307816D01*
X139502237Y-74337764D01*
X139532185Y-74362342D01*
X139622973Y-74453130D01*
X139500000Y-74451928D01*
X139375518Y-74464188D01*
X139255820Y-74500498D01*
X139145506Y-74559463D01*
X139048815Y-74638815D01*
X138969463Y-74735506D01*
X138910498Y-74845820D01*
X138874188Y-74965518D01*
X138861928Y-75090000D01*
X138865000Y-75504250D01*
X139023750Y-75663000D01*
X139973000Y-75663000D01*
X139973000Y-75643000D01*
X140227000Y-75643000D01*
X140227000Y-75663000D01*
X140247000Y-75663000D01*
X140247000Y-75917000D01*
X140227000Y-75917000D01*
X140227000Y-76966250D01*
X140385750Y-77125000D01*
X140700000Y-77128072D01*
X140824482Y-77115812D01*
X140944180Y-77079502D01*
X141054494Y-77020537D01*
X141151185Y-76941185D01*
X141175363Y-76911724D01*
X141256613Y-76978405D01*
X141410149Y-77060472D01*
X141576745Y-77111008D01*
X141749999Y-77128072D01*
X142391059Y-77128072D01*
X142213224Y-77305908D01*
X142068102Y-77334774D01*
X141879744Y-77412795D01*
X141710226Y-77526063D01*
X141566063Y-77670226D01*
X141452795Y-77839744D01*
X141374774Y-78028102D01*
X141335000Y-78228061D01*
X141335000Y-78431939D01*
X141374774Y-78631898D01*
X141452795Y-78820256D01*
X141566063Y-78989774D01*
X141710226Y-79133937D01*
X141879744Y-79247205D01*
X142068102Y-79325226D01*
X142268061Y-79365000D01*
X142471939Y-79365000D01*
X142671898Y-79325226D01*
X142860256Y-79247205D01*
X143013537Y-79144787D01*
X143087750Y-79219000D01*
X144037000Y-79219000D01*
X144037000Y-79199000D01*
X144291000Y-79199000D01*
X144291000Y-79219000D01*
X144311000Y-79219000D01*
X144311000Y-79473000D01*
X144291000Y-79473000D01*
X144291000Y-79493000D01*
X144037000Y-79493000D01*
X144037000Y-79473000D01*
X143087750Y-79473000D01*
X142929000Y-79631750D01*
X142925928Y-80046000D01*
X142938188Y-80170482D01*
X142974498Y-80290180D01*
X143030526Y-80395000D01*
X142995444Y-80395000D01*
X142909494Y-80324463D01*
X142799180Y-80265498D01*
X142679482Y-80229188D01*
X142555000Y-80216928D01*
X141355000Y-80216928D01*
X141230518Y-80229188D01*
X141110820Y-80265498D01*
X141000506Y-80324463D01*
X140903815Y-80403815D01*
X140824463Y-80500506D01*
X140765498Y-80610820D01*
X140729188Y-80730518D01*
X140726183Y-80761026D01*
X138997347Y-79032190D01*
X138972764Y-79002236D01*
X138853233Y-78904138D01*
X138716860Y-78831246D01*
X138568887Y-78786359D01*
X138453561Y-78775000D01*
X138453553Y-78775000D01*
X138415000Y-78771203D01*
X138376447Y-78775000D01*
X137409232Y-78775000D01*
X137385706Y-78730986D01*
X137204392Y-78510055D01*
X137239180Y-78499502D01*
X137349494Y-78440537D01*
X137446185Y-78361185D01*
X137525537Y-78264494D01*
X137584502Y-78154180D01*
X137620812Y-78034482D01*
X137633072Y-77910000D01*
X137630000Y-77345750D01*
X137471250Y-77187000D01*
X136147000Y-77187000D01*
X136147000Y-77207000D01*
X135893000Y-77207000D01*
X135893000Y-77187000D01*
X134568750Y-77187000D01*
X134410000Y-77345750D01*
X134406928Y-77910000D01*
X134419188Y-78034482D01*
X134455498Y-78154180D01*
X134514463Y-78264494D01*
X134593815Y-78361185D01*
X134690506Y-78440537D01*
X134800820Y-78499502D01*
X134835608Y-78510055D01*
X134654294Y-78730986D01*
X134516401Y-78988966D01*
X134431487Y-79268889D01*
X134402815Y-79560000D01*
X134422916Y-79764084D01*
X133732701Y-80454299D01*
X133695121Y-80485140D01*
X133572031Y-80635126D01*
X133545869Y-80684072D01*
X133480566Y-80806244D01*
X133424243Y-80991917D01*
X133405225Y-81185010D01*
X133409991Y-81233399D01*
X133409990Y-82632944D01*
X133405225Y-82681324D01*
X133416815Y-82799002D01*
X133424243Y-82874417D01*
X133480566Y-83060090D01*
X133572030Y-83231208D01*
X133695120Y-83381194D01*
X133732706Y-83412040D01*
X134873666Y-84553000D01*
X127346000Y-84553000D01*
X127346000Y-76210000D01*
X134406928Y-76210000D01*
X134410000Y-76774250D01*
X134568750Y-76933000D01*
X135893000Y-76933000D01*
X135893000Y-75733750D01*
X136147000Y-75733750D01*
X136147000Y-76933000D01*
X137471250Y-76933000D01*
X137630000Y-76774250D01*
X137631547Y-76490000D01*
X138861928Y-76490000D01*
X138874188Y-76614482D01*
X138910498Y-76734180D01*
X138969463Y-76844494D01*
X139048815Y-76941185D01*
X139145506Y-77020537D01*
X139255820Y-77079502D01*
X139375518Y-77115812D01*
X139500000Y-77128072D01*
X139814250Y-77125000D01*
X139973000Y-76966250D01*
X139973000Y-75917000D01*
X139023750Y-75917000D01*
X138865000Y-76075750D01*
X138861928Y-76490000D01*
X137631547Y-76490000D01*
X137633072Y-76210000D01*
X137620812Y-76085518D01*
X137584502Y-75965820D01*
X137525537Y-75855506D01*
X137446185Y-75758815D01*
X137349494Y-75679463D01*
X137239180Y-75620498D01*
X137119482Y-75584188D01*
X136995000Y-75571928D01*
X136305750Y-75575000D01*
X136147000Y-75733750D01*
X135893000Y-75733750D01*
X135734250Y-75575000D01*
X135045000Y-75571928D01*
X134920518Y-75584188D01*
X134800820Y-75620498D01*
X134690506Y-75679463D01*
X134593815Y-75758815D01*
X134514463Y-75855506D01*
X134455498Y-75965820D01*
X134419188Y-76085518D01*
X134406928Y-76210000D01*
X127346000Y-76210000D01*
X127346000Y-69340495D01*
X128201002Y-69340495D01*
X128201002Y-69731505D01*
X128277284Y-70115003D01*
X128426917Y-70476250D01*
X128644151Y-70801364D01*
X128920638Y-71077851D01*
X129245752Y-71295085D01*
X129606999Y-71444718D01*
X129990497Y-71521000D01*
X130381507Y-71521000D01*
X130765005Y-71444718D01*
X131126252Y-71295085D01*
X131451366Y-71077851D01*
X131727853Y-70801364D01*
X131945087Y-70476250D01*
X132094720Y-70115003D01*
X132171002Y-69731505D01*
X132171002Y-69340495D01*
X132094720Y-68956997D01*
X131945087Y-68595750D01*
X131727853Y-68270636D01*
X131451366Y-67994149D01*
X131126252Y-67776915D01*
X130765005Y-67627282D01*
X130381507Y-67551000D01*
X129990497Y-67551000D01*
X129606999Y-67627282D01*
X129245752Y-67776915D01*
X128920638Y-67994149D01*
X128644151Y-68270636D01*
X128426917Y-68595750D01*
X128277284Y-68956997D01*
X128201002Y-69340495D01*
X127346000Y-69340495D01*
X127346000Y-67755279D01*
X127368664Y-67524136D01*
X127426417Y-67332848D01*
X127520229Y-67156415D01*
X127646515Y-67001573D01*
X127800479Y-66874203D01*
X127976251Y-66779164D01*
X128167131Y-66720077D01*
X128396200Y-66696000D01*
X135430201Y-66696000D01*
X135421928Y-66780000D01*
G37*
%TD.AperFunction*%
%TD*%
D37*
%TO.N,GND*%
X182960156Y-36291229D02*
X183649516Y-36493464D01*
X184288192Y-36822405D01*
X184853143Y-37266180D01*
X185323988Y-37808780D01*
X185683733Y-38430622D01*
X185919401Y-39109274D01*
X186025855Y-39843477D01*
X186030001Y-40013107D01*
X186030000Y-55213591D01*
X185958771Y-55960156D01*
X185756536Y-56649516D01*
X185427596Y-57288190D01*
X184983820Y-57853143D01*
X184441220Y-58323988D01*
X183819377Y-58683733D01*
X183140721Y-58919402D01*
X182406523Y-59025855D01*
X182236934Y-59030000D01*
X139096409Y-59030000D01*
X138349844Y-58958771D01*
X137660484Y-58756536D01*
X137021810Y-58427596D01*
X136456857Y-57983820D01*
X135986012Y-57441220D01*
X135626267Y-56819377D01*
X135390598Y-56140721D01*
X135284145Y-55406523D01*
X135280000Y-55236934D01*
X135280000Y-55024872D01*
X136830000Y-55024872D01*
X136830000Y-55465128D01*
X136915890Y-55896925D01*
X137084369Y-56303669D01*
X137328962Y-56669729D01*
X137640271Y-56981038D01*
X138006331Y-57225631D01*
X138413075Y-57394110D01*
X138844872Y-57480000D01*
X139285128Y-57480000D01*
X139716925Y-57394110D01*
X140123669Y-57225631D01*
X140489729Y-56981038D01*
X140801038Y-56669729D01*
X141045631Y-56303669D01*
X141214110Y-55896925D01*
X141300000Y-55465128D01*
X141300000Y-55024872D01*
X141214110Y-54593075D01*
X141045631Y-54186331D01*
X140801038Y-53820271D01*
X140489729Y-53508962D01*
X140123669Y-53264369D01*
X139716925Y-53095890D01*
X139285128Y-53010000D01*
X138844872Y-53010000D01*
X138413075Y-53095890D01*
X138006331Y-53264369D01*
X137640271Y-53508962D01*
X137328962Y-53820271D01*
X137084369Y-54186331D01*
X136915890Y-54593075D01*
X136830000Y-55024872D01*
X135280000Y-55024872D01*
X135280000Y-46190000D01*
X135721928Y-46190000D01*
X135721928Y-47790000D01*
X135734188Y-47914482D01*
X135770498Y-48034180D01*
X135829463Y-48144494D01*
X135908815Y-48241185D01*
X136005506Y-48320537D01*
X136115820Y-48379502D01*
X136235518Y-48415812D01*
X136349969Y-48427084D01*
X136353551Y-48431449D01*
X136396864Y-48466995D01*
X137183009Y-49253141D01*
X137218552Y-49296450D01*
X137391378Y-49438285D01*
X137588554Y-49543677D01*
X137752706Y-49593472D01*
X137802501Y-49608578D01*
X138025000Y-49630492D01*
X138080752Y-49625001D01*
X142071928Y-49625001D01*
X142071928Y-50965000D01*
X142084188Y-51089482D01*
X142120498Y-51209180D01*
X142179463Y-51319494D01*
X142258815Y-51416185D01*
X142355506Y-51495537D01*
X142465820Y-51554502D01*
X142585518Y-51590812D01*
X142699969Y-51602084D01*
X142703551Y-51606449D01*
X142746865Y-51641996D01*
X145934048Y-54829179D01*
X145930498Y-54835820D01*
X145894188Y-54955518D01*
X145881928Y-55080000D01*
X145881928Y-56680000D01*
X145894188Y-56804482D01*
X145930498Y-56924180D01*
X145989463Y-57034494D01*
X146068815Y-57131185D01*
X146165506Y-57210537D01*
X146275820Y-57269502D01*
X146395518Y-57305812D01*
X146520000Y-57318072D01*
X147152941Y-57318072D01*
X148108029Y-58273160D01*
X148143571Y-58316469D01*
X148316397Y-58458304D01*
X148513573Y-58563696D01*
X148727521Y-58628597D01*
X148894268Y-58645020D01*
X148894277Y-58645020D01*
X148950019Y-58650510D01*
X149005761Y-58645020D01*
X172939229Y-58645020D01*
X172994980Y-58650511D01*
X173050731Y-58645020D01*
X173050732Y-58645020D01*
X173217479Y-58628597D01*
X173431427Y-58563696D01*
X173628603Y-58458304D01*
X173801429Y-58316469D01*
X173836976Y-58273155D01*
X175983141Y-56126991D01*
X176026449Y-56091449D01*
X176168284Y-55918623D01*
X176183328Y-55890477D01*
X176275134Y-55815134D01*
X176460706Y-55589014D01*
X176598599Y-55331033D01*
X176683513Y-55051110D01*
X176686097Y-55024872D01*
X180010000Y-55024872D01*
X180010000Y-55465128D01*
X180095890Y-55896925D01*
X180264369Y-56303669D01*
X180508962Y-56669729D01*
X180820271Y-56981038D01*
X181186331Y-57225631D01*
X181593075Y-57394110D01*
X182024872Y-57480000D01*
X182465128Y-57480000D01*
X182896925Y-57394110D01*
X183303669Y-57225631D01*
X183669729Y-56981038D01*
X183981038Y-56669729D01*
X184225631Y-56303669D01*
X184394110Y-55896925D01*
X184480000Y-55465128D01*
X184480000Y-55024872D01*
X184394110Y-54593075D01*
X184225631Y-54186331D01*
X183981038Y-53820271D01*
X183669729Y-53508962D01*
X183303669Y-53264369D01*
X182896925Y-53095890D01*
X182465128Y-53010000D01*
X182024872Y-53010000D01*
X181593075Y-53095890D01*
X181186331Y-53264369D01*
X180820271Y-53508962D01*
X180508962Y-53820271D01*
X180264369Y-54186331D01*
X180095890Y-54593075D01*
X180010000Y-55024872D01*
X176686097Y-55024872D01*
X176705000Y-54832949D01*
X176705000Y-54387050D01*
X176683513Y-54168889D01*
X176598599Y-53888966D01*
X176460706Y-53630986D01*
X176355000Y-53502183D01*
X176355000Y-48732817D01*
X176460706Y-48604014D01*
X176598599Y-48346033D01*
X176683513Y-48066110D01*
X176705000Y-47847949D01*
X176705000Y-47402050D01*
X176683513Y-47183889D01*
X176598599Y-46903966D01*
X176460706Y-46645986D01*
X176275134Y-46419866D01*
X176049013Y-46234294D01*
X175791033Y-46096401D01*
X175511110Y-46011487D01*
X175220000Y-45982815D01*
X174928889Y-46011487D01*
X174648966Y-46096401D01*
X174390986Y-46234294D01*
X174170055Y-46415608D01*
X174159502Y-46380820D01*
X174100537Y-46270506D01*
X174021185Y-46173815D01*
X173924494Y-46094463D01*
X173814180Y-46035498D01*
X173694482Y-45999188D01*
X173570000Y-45986928D01*
X173005750Y-45990000D01*
X172847000Y-46148750D01*
X172847000Y-47498000D01*
X172867000Y-47498000D01*
X172867000Y-47752000D01*
X172847000Y-47752000D01*
X172847000Y-49101250D01*
X173005750Y-49260000D01*
X173570000Y-49263072D01*
X173694482Y-49250812D01*
X173814180Y-49214502D01*
X173924494Y-49155537D01*
X174021185Y-49076185D01*
X174085000Y-48998426D01*
X174085001Y-53236575D01*
X174021185Y-53158815D01*
X173924494Y-53079463D01*
X173814180Y-53020498D01*
X173694482Y-52984188D01*
X173570000Y-52971928D01*
X173005750Y-52975000D01*
X172847000Y-53133750D01*
X172847000Y-54483000D01*
X172867000Y-54483000D01*
X172867000Y-54737000D01*
X172847000Y-54737000D01*
X172847000Y-54757000D01*
X172593000Y-54757000D01*
X172593000Y-54737000D01*
X171393750Y-54737000D01*
X171235000Y-54895750D01*
X171231928Y-55610000D01*
X171244188Y-55734482D01*
X171280498Y-55854180D01*
X171339463Y-55964494D01*
X171418815Y-56061185D01*
X171515506Y-56140537D01*
X171625820Y-56199502D01*
X171745518Y-56235812D01*
X171870000Y-56248072D01*
X172434250Y-56245000D01*
X172592998Y-56086252D01*
X172592998Y-56245000D01*
X172654869Y-56245000D01*
X172524849Y-56375020D01*
X166363632Y-56375020D01*
X166503562Y-56235091D01*
X166621111Y-56223513D01*
X166901034Y-56138599D01*
X167159014Y-56000706D01*
X167385134Y-55815134D01*
X167570706Y-55589014D01*
X167708599Y-55331033D01*
X167793513Y-55051110D01*
X167815000Y-54832949D01*
X167815000Y-54387050D01*
X167793513Y-54168889D01*
X167708599Y-53888966D01*
X167570706Y-53630986D01*
X167553484Y-53610000D01*
X171231928Y-53610000D01*
X171235000Y-54324250D01*
X171393750Y-54483000D01*
X172593000Y-54483000D01*
X172593000Y-53133750D01*
X172434250Y-52975000D01*
X171870000Y-52971928D01*
X171745518Y-52984188D01*
X171625820Y-53020498D01*
X171515506Y-53079463D01*
X171418815Y-53158815D01*
X171339463Y-53255506D01*
X171280498Y-53365820D01*
X171244188Y-53485518D01*
X171231928Y-53610000D01*
X167553484Y-53610000D01*
X167465000Y-53502183D01*
X167465000Y-48732817D01*
X167553483Y-48625000D01*
X171231928Y-48625000D01*
X171244188Y-48749482D01*
X171280498Y-48869180D01*
X171339463Y-48979494D01*
X171418815Y-49076185D01*
X171515506Y-49155537D01*
X171625820Y-49214502D01*
X171745518Y-49250812D01*
X171870000Y-49263072D01*
X172434250Y-49260000D01*
X172593000Y-49101250D01*
X172593000Y-47752000D01*
X171393750Y-47752000D01*
X171235000Y-47910750D01*
X171231928Y-48625000D01*
X167553483Y-48625000D01*
X167570706Y-48604014D01*
X167708599Y-48346033D01*
X167793513Y-48066110D01*
X167815000Y-47847949D01*
X167815000Y-47402050D01*
X167793513Y-47183889D01*
X167708599Y-46903966D01*
X167570706Y-46645986D01*
X167553484Y-46625000D01*
X171231928Y-46625000D01*
X171235000Y-47339250D01*
X171393750Y-47498000D01*
X172593000Y-47498000D01*
X172593000Y-46148750D01*
X172434250Y-45990000D01*
X171870000Y-45986928D01*
X171745518Y-45999188D01*
X171625820Y-46035498D01*
X171515506Y-46094463D01*
X171418815Y-46173815D01*
X171339463Y-46270506D01*
X171280498Y-46380820D01*
X171244188Y-46500518D01*
X171231928Y-46625000D01*
X167553484Y-46625000D01*
X167385134Y-46419866D01*
X167159013Y-46234294D01*
X166901033Y-46096401D01*
X166621110Y-46011487D01*
X166330000Y-45982815D01*
X166038889Y-46011487D01*
X165758966Y-46096401D01*
X165500986Y-46234294D01*
X165280055Y-46415608D01*
X165269502Y-46380820D01*
X165210537Y-46270506D01*
X165131185Y-46173815D01*
X165034494Y-46094463D01*
X164924180Y-46035498D01*
X164804482Y-45999188D01*
X164680000Y-45986928D01*
X164115750Y-45990000D01*
X163957000Y-46148750D01*
X163957000Y-47498000D01*
X163977000Y-47498000D01*
X163977000Y-47752000D01*
X163957000Y-47752000D01*
X163957000Y-49101250D01*
X164115750Y-49260000D01*
X164680000Y-49263072D01*
X164804482Y-49250812D01*
X164924180Y-49214502D01*
X165034494Y-49155537D01*
X165131185Y-49076185D01*
X165195000Y-48998426D01*
X165195001Y-53236575D01*
X165131185Y-53158815D01*
X165034494Y-53079463D01*
X164924180Y-53020498D01*
X164804482Y-52984188D01*
X164680000Y-52971928D01*
X164115750Y-52975000D01*
X163957000Y-53133750D01*
X163957000Y-54483000D01*
X163977000Y-54483000D01*
X163977000Y-54737000D01*
X163957000Y-54737000D01*
X163957000Y-54757000D01*
X163703000Y-54757000D01*
X163703000Y-54737000D01*
X162503750Y-54737000D01*
X162345000Y-54895750D01*
X162343799Y-55175010D01*
X158865928Y-55175010D01*
X158903513Y-55051110D01*
X158925000Y-54832949D01*
X158925000Y-54387050D01*
X158903513Y-54168889D01*
X158818599Y-53888966D01*
X158680706Y-53630986D01*
X158663484Y-53610000D01*
X162341928Y-53610000D01*
X162345000Y-54324250D01*
X162503750Y-54483000D01*
X163703000Y-54483000D01*
X163703000Y-53133750D01*
X163544250Y-52975000D01*
X162980000Y-52971928D01*
X162855518Y-52984188D01*
X162735820Y-53020498D01*
X162625506Y-53079463D01*
X162528815Y-53158815D01*
X162449463Y-53255506D01*
X162390498Y-53365820D01*
X162354188Y-53485518D01*
X162341928Y-53610000D01*
X158663484Y-53610000D01*
X158575000Y-53502183D01*
X158575000Y-48732817D01*
X158663483Y-48625000D01*
X162341928Y-48625000D01*
X162354188Y-48749482D01*
X162390498Y-48869180D01*
X162449463Y-48979494D01*
X162528815Y-49076185D01*
X162625506Y-49155537D01*
X162735820Y-49214502D01*
X162855518Y-49250812D01*
X162980000Y-49263072D01*
X163544250Y-49260000D01*
X163703000Y-49101250D01*
X163703000Y-47752000D01*
X162503750Y-47752000D01*
X162345000Y-47910750D01*
X162341928Y-48625000D01*
X158663483Y-48625000D01*
X158680706Y-48604014D01*
X158818599Y-48346033D01*
X158903513Y-48066110D01*
X158925000Y-47847949D01*
X158925000Y-47402050D01*
X158903513Y-47183889D01*
X158818599Y-46903966D01*
X158680706Y-46645986D01*
X158663484Y-46625000D01*
X162341928Y-46625000D01*
X162345000Y-47339250D01*
X162503750Y-47498000D01*
X163703000Y-47498000D01*
X163703000Y-46148750D01*
X163544250Y-45990000D01*
X162980000Y-45986928D01*
X162855518Y-45999188D01*
X162735820Y-46035498D01*
X162625506Y-46094463D01*
X162528815Y-46173815D01*
X162449463Y-46270506D01*
X162390498Y-46380820D01*
X162354188Y-46500518D01*
X162341928Y-46625000D01*
X158663484Y-46625000D01*
X158495134Y-46419866D01*
X158269013Y-46234294D01*
X158011033Y-46096401D01*
X157731110Y-46011487D01*
X157440000Y-45982815D01*
X157148889Y-46011487D01*
X156868966Y-46096401D01*
X156610986Y-46234294D01*
X156390055Y-46415608D01*
X156379502Y-46380820D01*
X156320537Y-46270506D01*
X156241185Y-46173815D01*
X156144494Y-46094463D01*
X156034180Y-46035498D01*
X155914482Y-45999188D01*
X155790000Y-45986928D01*
X155225750Y-45990000D01*
X155067000Y-46148750D01*
X155067000Y-47498000D01*
X155087000Y-47498000D01*
X155087000Y-47752000D01*
X155067000Y-47752000D01*
X155067000Y-49101250D01*
X155225750Y-49260000D01*
X155790000Y-49263072D01*
X155914482Y-49250812D01*
X156034180Y-49214502D01*
X156144494Y-49155537D01*
X156241185Y-49076185D01*
X156305000Y-48998426D01*
X156305001Y-51836610D01*
X156156009Y-51791413D01*
X155989262Y-51774990D01*
X155989261Y-51774990D01*
X155933510Y-51769499D01*
X155877759Y-51774990D01*
X154980122Y-51774990D01*
X151830132Y-48625000D01*
X153451928Y-48625000D01*
X153464188Y-48749482D01*
X153500498Y-48869180D01*
X153559463Y-48979494D01*
X153638815Y-49076185D01*
X153735506Y-49155537D01*
X153845820Y-49214502D01*
X153965518Y-49250812D01*
X154090000Y-49263072D01*
X154654250Y-49260000D01*
X154813000Y-49101250D01*
X154813000Y-47752000D01*
X153613750Y-47752000D01*
X153455000Y-47910750D01*
X153451928Y-48625000D01*
X151830132Y-48625000D01*
X150931997Y-47726866D01*
X150896450Y-47683552D01*
X150723624Y-47541717D01*
X150526448Y-47436325D01*
X150312500Y-47371424D01*
X150145753Y-47355001D01*
X150145752Y-47355001D01*
X150090001Y-47349510D01*
X150034250Y-47355001D01*
X141047902Y-47355001D01*
X141086300Y-47201816D01*
X141100217Y-46919488D01*
X141058787Y-46639870D01*
X141053470Y-46625000D01*
X153451928Y-46625000D01*
X153455000Y-47339250D01*
X153613750Y-47498000D01*
X154813000Y-47498000D01*
X154813000Y-46148750D01*
X154654250Y-45990000D01*
X154090000Y-45986928D01*
X153965518Y-45999188D01*
X153845820Y-46035498D01*
X153735506Y-46094463D01*
X153638815Y-46173815D01*
X153559463Y-46270506D01*
X153500498Y-46380820D01*
X153464188Y-46500518D01*
X153451928Y-46625000D01*
X141053470Y-46625000D01*
X140963603Y-46373708D01*
X140896671Y-46248486D01*
X140652702Y-46176903D01*
X139839605Y-46990000D01*
X139853748Y-47004143D01*
X139674143Y-47183748D01*
X139660000Y-47169605D01*
X139645858Y-47183748D01*
X139466253Y-47004143D01*
X139480395Y-46990000D01*
X138667298Y-46176903D01*
X138598072Y-46197215D01*
X138598072Y-46190000D01*
X138585812Y-46065518D01*
X138565118Y-45997298D01*
X138846903Y-45997298D01*
X139660000Y-46810395D01*
X140473097Y-45997298D01*
X140401514Y-45753329D01*
X140146004Y-45632429D01*
X139871816Y-45563700D01*
X139589488Y-45549783D01*
X139309870Y-45591213D01*
X139043708Y-45686397D01*
X138918486Y-45753329D01*
X138846903Y-45997298D01*
X138565118Y-45997298D01*
X138549502Y-45945820D01*
X138490537Y-45835506D01*
X138411185Y-45738815D01*
X138314494Y-45659463D01*
X138204180Y-45600498D01*
X138084482Y-45564188D01*
X137960000Y-45551928D01*
X136360000Y-45551928D01*
X136235518Y-45564188D01*
X136115820Y-45600498D01*
X136005506Y-45659463D01*
X135908815Y-45738815D01*
X135829463Y-45835506D01*
X135770498Y-45945820D01*
X135734188Y-46065518D01*
X135721928Y-46190000D01*
X135280000Y-46190000D01*
X135280000Y-44207000D01*
X145516928Y-44207000D01*
X145529188Y-44331482D01*
X145565498Y-44451180D01*
X145624463Y-44561494D01*
X145703815Y-44658185D01*
X145800506Y-44737537D01*
X145910820Y-44796502D01*
X146030518Y-44832812D01*
X146155000Y-44845072D01*
X147669250Y-44842000D01*
X147828000Y-44683250D01*
X147828000Y-43434000D01*
X148082000Y-43434000D01*
X148082000Y-44683250D01*
X148240750Y-44842000D01*
X149755000Y-44845072D01*
X149879482Y-44832812D01*
X149999180Y-44796502D01*
X150109494Y-44737537D01*
X150206185Y-44658185D01*
X150285537Y-44561494D01*
X150344502Y-44451180D01*
X150380812Y-44331482D01*
X150393072Y-44207000D01*
X150390000Y-43592750D01*
X150231250Y-43434000D01*
X148082000Y-43434000D01*
X147828000Y-43434000D01*
X145678750Y-43434000D01*
X145520000Y-43592750D01*
X145516928Y-44207000D01*
X135280000Y-44207000D01*
X135280000Y-42407000D01*
X145516928Y-42407000D01*
X145520000Y-43021250D01*
X145678750Y-43180000D01*
X147828000Y-43180000D01*
X147828000Y-41930750D01*
X148082000Y-41930750D01*
X148082000Y-43180000D01*
X150231250Y-43180000D01*
X150390000Y-43021250D01*
X150393072Y-42407000D01*
X150380812Y-42282518D01*
X150344502Y-42162820D01*
X150285537Y-42052506D01*
X150206185Y-41955815D01*
X150109494Y-41876463D01*
X149999180Y-41817498D01*
X149879482Y-41781188D01*
X149755000Y-41768928D01*
X148240750Y-41772000D01*
X148082000Y-41930750D01*
X147828000Y-41930750D01*
X147669250Y-41772000D01*
X146155000Y-41768928D01*
X146030518Y-41781188D01*
X145910820Y-41817498D01*
X145800506Y-41876463D01*
X145703815Y-41955815D01*
X145624463Y-42052506D01*
X145565498Y-42162820D01*
X145529188Y-42282518D01*
X145516928Y-42407000D01*
X135280000Y-42407000D01*
X135280000Y-40036409D01*
X135303998Y-39784872D01*
X136830000Y-39784872D01*
X136830000Y-40225128D01*
X136915890Y-40656925D01*
X137084369Y-41063669D01*
X137328962Y-41429729D01*
X137640271Y-41741038D01*
X138006331Y-41985631D01*
X138413075Y-42154110D01*
X138844872Y-42240000D01*
X139285128Y-42240000D01*
X139716925Y-42154110D01*
X140123669Y-41985631D01*
X140489729Y-41741038D01*
X140801038Y-41429729D01*
X141045631Y-41063669D01*
X141050443Y-41052050D01*
X153495000Y-41052050D01*
X153495000Y-41497949D01*
X153516487Y-41716110D01*
X153601401Y-41996033D01*
X153739294Y-42254013D01*
X153924866Y-42480134D01*
X154150986Y-42665706D01*
X154408966Y-42803599D01*
X154688889Y-42888513D01*
X154980000Y-42917185D01*
X155271110Y-42888513D01*
X155551033Y-42803599D01*
X155809013Y-42665706D01*
X156029945Y-42484392D01*
X156040498Y-42519180D01*
X156099463Y-42629494D01*
X156178815Y-42726185D01*
X156275506Y-42805537D01*
X156385820Y-42864502D01*
X156505518Y-42900812D01*
X156630000Y-42913072D01*
X157194250Y-42910000D01*
X157353000Y-42751250D01*
X157353000Y-41402000D01*
X157607000Y-41402000D01*
X157607000Y-42751250D01*
X157765750Y-42910000D01*
X158330000Y-42913072D01*
X158454482Y-42900812D01*
X158574180Y-42864502D01*
X158684494Y-42805537D01*
X158781185Y-42726185D01*
X158860537Y-42629494D01*
X158919502Y-42519180D01*
X158955812Y-42399482D01*
X158968072Y-42275000D01*
X158965000Y-41560750D01*
X158806250Y-41402000D01*
X157607000Y-41402000D01*
X157353000Y-41402000D01*
X157333000Y-41402000D01*
X157333000Y-41148000D01*
X157353000Y-41148000D01*
X157353000Y-39798750D01*
X157607000Y-39798750D01*
X157607000Y-41148000D01*
X158806250Y-41148000D01*
X158902200Y-41052050D01*
X162385000Y-41052050D01*
X162385000Y-41497949D01*
X162406487Y-41716110D01*
X162491401Y-41996033D01*
X162629294Y-42254013D01*
X162814866Y-42480134D01*
X163040986Y-42665706D01*
X163298966Y-42803599D01*
X163578889Y-42888513D01*
X163870000Y-42917185D01*
X164161110Y-42888513D01*
X164441033Y-42803599D01*
X164699013Y-42665706D01*
X164919945Y-42484392D01*
X164930498Y-42519180D01*
X164989463Y-42629494D01*
X165068815Y-42726185D01*
X165165506Y-42805537D01*
X165275820Y-42864502D01*
X165395518Y-42900812D01*
X165520000Y-42913072D01*
X166084250Y-42910000D01*
X166243000Y-42751250D01*
X166243000Y-41402000D01*
X166497000Y-41402000D01*
X166497000Y-42751250D01*
X166655750Y-42910000D01*
X167220000Y-42913072D01*
X167344482Y-42900812D01*
X167464180Y-42864502D01*
X167574494Y-42805537D01*
X167671185Y-42726185D01*
X167750537Y-42629494D01*
X167809502Y-42519180D01*
X167845812Y-42399482D01*
X167858072Y-42275000D01*
X167855000Y-41560750D01*
X167696250Y-41402000D01*
X166497000Y-41402000D01*
X166243000Y-41402000D01*
X166223000Y-41402000D01*
X166223000Y-41148000D01*
X166243000Y-41148000D01*
X166243000Y-39798750D01*
X166497000Y-39798750D01*
X166497000Y-41148000D01*
X167696250Y-41148000D01*
X167792200Y-41052050D01*
X171275000Y-41052050D01*
X171275000Y-41497949D01*
X171296487Y-41716110D01*
X171381401Y-41996033D01*
X171519294Y-42254013D01*
X171704866Y-42480134D01*
X171930986Y-42665706D01*
X172188966Y-42803599D01*
X172468889Y-42888513D01*
X172760000Y-42917185D01*
X173051110Y-42888513D01*
X173331033Y-42803599D01*
X173589013Y-42665706D01*
X173809945Y-42484392D01*
X173820498Y-42519180D01*
X173879463Y-42629494D01*
X173958815Y-42726185D01*
X174055506Y-42805537D01*
X174165820Y-42864502D01*
X174285518Y-42900812D01*
X174410000Y-42913072D01*
X174974250Y-42910000D01*
X175133000Y-42751250D01*
X175133000Y-41402000D01*
X175387000Y-41402000D01*
X175387000Y-42751250D01*
X175545750Y-42910000D01*
X176110000Y-42913072D01*
X176234482Y-42900812D01*
X176354180Y-42864502D01*
X176464494Y-42805537D01*
X176561185Y-42726185D01*
X176640537Y-42629494D01*
X176699502Y-42519180D01*
X176735812Y-42399482D01*
X176748072Y-42275000D01*
X176745000Y-41560750D01*
X176586250Y-41402000D01*
X175387000Y-41402000D01*
X175133000Y-41402000D01*
X175113000Y-41402000D01*
X175113000Y-41148000D01*
X175133000Y-41148000D01*
X175133000Y-39798750D01*
X175387000Y-39798750D01*
X175387000Y-41148000D01*
X176586250Y-41148000D01*
X176745000Y-40989250D01*
X176748072Y-40275000D01*
X176735812Y-40150518D01*
X176699502Y-40030820D01*
X176640537Y-39920506D01*
X176561185Y-39823815D01*
X176513733Y-39784872D01*
X180010000Y-39784872D01*
X180010000Y-40225128D01*
X180095890Y-40656925D01*
X180264369Y-41063669D01*
X180508962Y-41429729D01*
X180820271Y-41741038D01*
X181186331Y-41985631D01*
X181593075Y-42154110D01*
X182024872Y-42240000D01*
X182465128Y-42240000D01*
X182896925Y-42154110D01*
X183303669Y-41985631D01*
X183669729Y-41741038D01*
X183981038Y-41429729D01*
X184225631Y-41063669D01*
X184394110Y-40656925D01*
X184480000Y-40225128D01*
X184480000Y-39784872D01*
X184394110Y-39353075D01*
X184225631Y-38946331D01*
X183981038Y-38580271D01*
X183669729Y-38268962D01*
X183303669Y-38024369D01*
X182896925Y-37855890D01*
X182465128Y-37770000D01*
X182024872Y-37770000D01*
X181593075Y-37855890D01*
X181186331Y-38024369D01*
X180820271Y-38268962D01*
X180508962Y-38580271D01*
X180264369Y-38946331D01*
X180095890Y-39353075D01*
X180010000Y-39784872D01*
X176513733Y-39784872D01*
X176464494Y-39744463D01*
X176354180Y-39685498D01*
X176234482Y-39649188D01*
X176110000Y-39636928D01*
X175545750Y-39640000D01*
X175387000Y-39798750D01*
X175133000Y-39798750D01*
X174974250Y-39640000D01*
X174410000Y-39636928D01*
X174285518Y-39649188D01*
X174165820Y-39685498D01*
X174055506Y-39744463D01*
X173958815Y-39823815D01*
X173879463Y-39920506D01*
X173820498Y-40030820D01*
X173809945Y-40065608D01*
X173589014Y-39884294D01*
X173331034Y-39746401D01*
X173051111Y-39661487D01*
X172760000Y-39632815D01*
X172468890Y-39661487D01*
X172188967Y-39746401D01*
X171930987Y-39884294D01*
X171704866Y-40069866D01*
X171519294Y-40295986D01*
X171381401Y-40553966D01*
X171296487Y-40833889D01*
X171275000Y-41052050D01*
X167792200Y-41052050D01*
X167855000Y-40989250D01*
X167858072Y-40275000D01*
X167845812Y-40150518D01*
X167809502Y-40030820D01*
X167750537Y-39920506D01*
X167671185Y-39823815D01*
X167574494Y-39744463D01*
X167464180Y-39685498D01*
X167344482Y-39649188D01*
X167220000Y-39636928D01*
X166655750Y-39640000D01*
X166497000Y-39798750D01*
X166243000Y-39798750D01*
X166084250Y-39640000D01*
X165520000Y-39636928D01*
X165395518Y-39649188D01*
X165275820Y-39685498D01*
X165165506Y-39744463D01*
X165068815Y-39823815D01*
X164989463Y-39920506D01*
X164930498Y-40030820D01*
X164919945Y-40065608D01*
X164699014Y-39884294D01*
X164441034Y-39746401D01*
X164161111Y-39661487D01*
X163870000Y-39632815D01*
X163578890Y-39661487D01*
X163298967Y-39746401D01*
X163040987Y-39884294D01*
X162814866Y-40069866D01*
X162629294Y-40295986D01*
X162491401Y-40553966D01*
X162406487Y-40833889D01*
X162385000Y-41052050D01*
X158902200Y-41052050D01*
X158965000Y-40989250D01*
X158968072Y-40275000D01*
X158955812Y-40150518D01*
X158919502Y-40030820D01*
X158860537Y-39920506D01*
X158781185Y-39823815D01*
X158684494Y-39744463D01*
X158574180Y-39685498D01*
X158454482Y-39649188D01*
X158330000Y-39636928D01*
X157765750Y-39640000D01*
X157607000Y-39798750D01*
X157353000Y-39798750D01*
X157194250Y-39640000D01*
X156630000Y-39636928D01*
X156505518Y-39649188D01*
X156385820Y-39685498D01*
X156275506Y-39744463D01*
X156178815Y-39823815D01*
X156099463Y-39920506D01*
X156040498Y-40030820D01*
X156029945Y-40065608D01*
X155809014Y-39884294D01*
X155551034Y-39746401D01*
X155271111Y-39661487D01*
X154980000Y-39632815D01*
X154688890Y-39661487D01*
X154408967Y-39746401D01*
X154150987Y-39884294D01*
X153924866Y-40069866D01*
X153739294Y-40295986D01*
X153601401Y-40553966D01*
X153516487Y-40833889D01*
X153495000Y-41052050D01*
X141050443Y-41052050D01*
X141214110Y-40656925D01*
X141300000Y-40225128D01*
X141300000Y-39784872D01*
X141242739Y-39497000D01*
X145512573Y-39497000D01*
X145542210Y-39797913D01*
X145629983Y-40087261D01*
X145772519Y-40353927D01*
X145964339Y-40587661D01*
X146198073Y-40779481D01*
X146464739Y-40922017D01*
X146754087Y-41009790D01*
X146979592Y-41032000D01*
X148930408Y-41032000D01*
X149155913Y-41009790D01*
X149445261Y-40922017D01*
X149711927Y-40779481D01*
X149945661Y-40587661D01*
X150137481Y-40353927D01*
X150280017Y-40087261D01*
X150367790Y-39797913D01*
X150397427Y-39497000D01*
X150367790Y-39196087D01*
X150280017Y-38906739D01*
X150137481Y-38640073D01*
X149945661Y-38406339D01*
X149711927Y-38214519D01*
X149445261Y-38071983D01*
X149155913Y-37984210D01*
X148930408Y-37962000D01*
X146979592Y-37962000D01*
X146754087Y-37984210D01*
X146464739Y-38071983D01*
X146198073Y-38214519D01*
X145964339Y-38406339D01*
X145772519Y-38640073D01*
X145629983Y-38906739D01*
X145542210Y-39196087D01*
X145512573Y-39497000D01*
X141242739Y-39497000D01*
X141214110Y-39353075D01*
X141045631Y-38946331D01*
X140801038Y-38580271D01*
X140489729Y-38268962D01*
X140123669Y-38024369D01*
X139716925Y-37855890D01*
X139285128Y-37770000D01*
X138844872Y-37770000D01*
X138413075Y-37855890D01*
X138006331Y-38024369D01*
X137640271Y-38268962D01*
X137328962Y-38580271D01*
X137084369Y-38946331D01*
X136915890Y-39353075D01*
X136830000Y-39784872D01*
X135303998Y-39784872D01*
X135351229Y-39289844D01*
X135553464Y-38600484D01*
X135882405Y-37961808D01*
X136326180Y-37396857D01*
X136868780Y-36926012D01*
X137490622Y-36566267D01*
X138169274Y-36330599D01*
X138903477Y-36224145D01*
X139073066Y-36220000D01*
X182213591Y-36220000D01*
X182960156Y-36291229D01*
%TA.AperFunction,Conductor*%
D38*
G36*
X182960156Y-36291229D02*
G01*
X183649516Y-36493464D01*
X184288192Y-36822405D01*
X184853143Y-37266180D01*
X185323988Y-37808780D01*
X185683733Y-38430622D01*
X185919401Y-39109274D01*
X186025855Y-39843477D01*
X186030001Y-40013107D01*
X186030000Y-55213591D01*
X185958771Y-55960156D01*
X185756536Y-56649516D01*
X185427596Y-57288190D01*
X184983820Y-57853143D01*
X184441220Y-58323988D01*
X183819377Y-58683733D01*
X183140721Y-58919402D01*
X182406523Y-59025855D01*
X182236934Y-59030000D01*
X139096409Y-59030000D01*
X138349844Y-58958771D01*
X137660484Y-58756536D01*
X137021810Y-58427596D01*
X136456857Y-57983820D01*
X135986012Y-57441220D01*
X135626267Y-56819377D01*
X135390598Y-56140721D01*
X135284145Y-55406523D01*
X135280000Y-55236934D01*
X135280000Y-55024872D01*
X136830000Y-55024872D01*
X136830000Y-55465128D01*
X136915890Y-55896925D01*
X137084369Y-56303669D01*
X137328962Y-56669729D01*
X137640271Y-56981038D01*
X138006331Y-57225631D01*
X138413075Y-57394110D01*
X138844872Y-57480000D01*
X139285128Y-57480000D01*
X139716925Y-57394110D01*
X140123669Y-57225631D01*
X140489729Y-56981038D01*
X140801038Y-56669729D01*
X141045631Y-56303669D01*
X141214110Y-55896925D01*
X141300000Y-55465128D01*
X141300000Y-55024872D01*
X141214110Y-54593075D01*
X141045631Y-54186331D01*
X140801038Y-53820271D01*
X140489729Y-53508962D01*
X140123669Y-53264369D01*
X139716925Y-53095890D01*
X139285128Y-53010000D01*
X138844872Y-53010000D01*
X138413075Y-53095890D01*
X138006331Y-53264369D01*
X137640271Y-53508962D01*
X137328962Y-53820271D01*
X137084369Y-54186331D01*
X136915890Y-54593075D01*
X136830000Y-55024872D01*
X135280000Y-55024872D01*
X135280000Y-46190000D01*
X135721928Y-46190000D01*
X135721928Y-47790000D01*
X135734188Y-47914482D01*
X135770498Y-48034180D01*
X135829463Y-48144494D01*
X135908815Y-48241185D01*
X136005506Y-48320537D01*
X136115820Y-48379502D01*
X136235518Y-48415812D01*
X136349969Y-48427084D01*
X136353551Y-48431449D01*
X136396864Y-48466995D01*
X137183009Y-49253141D01*
X137218552Y-49296450D01*
X137391378Y-49438285D01*
X137588554Y-49543677D01*
X137752706Y-49593472D01*
X137802501Y-49608578D01*
X138025000Y-49630492D01*
X138080752Y-49625001D01*
X142071928Y-49625001D01*
X142071928Y-50965000D01*
X142084188Y-51089482D01*
X142120498Y-51209180D01*
X142179463Y-51319494D01*
X142258815Y-51416185D01*
X142355506Y-51495537D01*
X142465820Y-51554502D01*
X142585518Y-51590812D01*
X142699969Y-51602084D01*
X142703551Y-51606449D01*
X142746865Y-51641996D01*
X145934048Y-54829179D01*
X145930498Y-54835820D01*
X145894188Y-54955518D01*
X145881928Y-55080000D01*
X145881928Y-56680000D01*
X145894188Y-56804482D01*
X145930498Y-56924180D01*
X145989463Y-57034494D01*
X146068815Y-57131185D01*
X146165506Y-57210537D01*
X146275820Y-57269502D01*
X146395518Y-57305812D01*
X146520000Y-57318072D01*
X147152941Y-57318072D01*
X148108029Y-58273160D01*
X148143571Y-58316469D01*
X148316397Y-58458304D01*
X148513573Y-58563696D01*
X148727521Y-58628597D01*
X148894268Y-58645020D01*
X148894277Y-58645020D01*
X148950019Y-58650510D01*
X149005761Y-58645020D01*
X172939229Y-58645020D01*
X172994980Y-58650511D01*
X173050731Y-58645020D01*
X173050732Y-58645020D01*
X173217479Y-58628597D01*
X173431427Y-58563696D01*
X173628603Y-58458304D01*
X173801429Y-58316469D01*
X173836976Y-58273155D01*
X175983141Y-56126991D01*
X176026449Y-56091449D01*
X176168284Y-55918623D01*
X176183328Y-55890477D01*
X176275134Y-55815134D01*
X176460706Y-55589014D01*
X176598599Y-55331033D01*
X176683513Y-55051110D01*
X176686097Y-55024872D01*
X180010000Y-55024872D01*
X180010000Y-55465128D01*
X180095890Y-55896925D01*
X180264369Y-56303669D01*
X180508962Y-56669729D01*
X180820271Y-56981038D01*
X181186331Y-57225631D01*
X181593075Y-57394110D01*
X182024872Y-57480000D01*
X182465128Y-57480000D01*
X182896925Y-57394110D01*
X183303669Y-57225631D01*
X183669729Y-56981038D01*
X183981038Y-56669729D01*
X184225631Y-56303669D01*
X184394110Y-55896925D01*
X184480000Y-55465128D01*
X184480000Y-55024872D01*
X184394110Y-54593075D01*
X184225631Y-54186331D01*
X183981038Y-53820271D01*
X183669729Y-53508962D01*
X183303669Y-53264369D01*
X182896925Y-53095890D01*
X182465128Y-53010000D01*
X182024872Y-53010000D01*
X181593075Y-53095890D01*
X181186331Y-53264369D01*
X180820271Y-53508962D01*
X180508962Y-53820271D01*
X180264369Y-54186331D01*
X180095890Y-54593075D01*
X180010000Y-55024872D01*
X176686097Y-55024872D01*
X176705000Y-54832949D01*
X176705000Y-54387050D01*
X176683513Y-54168889D01*
X176598599Y-53888966D01*
X176460706Y-53630986D01*
X176355000Y-53502183D01*
X176355000Y-48732817D01*
X176460706Y-48604014D01*
X176598599Y-48346033D01*
X176683513Y-48066110D01*
X176705000Y-47847949D01*
X176705000Y-47402050D01*
X176683513Y-47183889D01*
X176598599Y-46903966D01*
X176460706Y-46645986D01*
X176275134Y-46419866D01*
X176049013Y-46234294D01*
X175791033Y-46096401D01*
X175511110Y-46011487D01*
X175220000Y-45982815D01*
X174928889Y-46011487D01*
X174648966Y-46096401D01*
X174390986Y-46234294D01*
X174170055Y-46415608D01*
X174159502Y-46380820D01*
X174100537Y-46270506D01*
X174021185Y-46173815D01*
X173924494Y-46094463D01*
X173814180Y-46035498D01*
X173694482Y-45999188D01*
X173570000Y-45986928D01*
X173005750Y-45990000D01*
X172847000Y-46148750D01*
X172847000Y-47498000D01*
X172867000Y-47498000D01*
X172867000Y-47752000D01*
X172847000Y-47752000D01*
X172847000Y-49101250D01*
X173005750Y-49260000D01*
X173570000Y-49263072D01*
X173694482Y-49250812D01*
X173814180Y-49214502D01*
X173924494Y-49155537D01*
X174021185Y-49076185D01*
X174085000Y-48998426D01*
X174085001Y-53236575D01*
X174021185Y-53158815D01*
X173924494Y-53079463D01*
X173814180Y-53020498D01*
X173694482Y-52984188D01*
X173570000Y-52971928D01*
X173005750Y-52975000D01*
X172847000Y-53133750D01*
X172847000Y-54483000D01*
X172867000Y-54483000D01*
X172867000Y-54737000D01*
X172847000Y-54737000D01*
X172847000Y-54757000D01*
X172593000Y-54757000D01*
X172593000Y-54737000D01*
X171393750Y-54737000D01*
X171235000Y-54895750D01*
X171231928Y-55610000D01*
X171244188Y-55734482D01*
X171280498Y-55854180D01*
X171339463Y-55964494D01*
X171418815Y-56061185D01*
X171515506Y-56140537D01*
X171625820Y-56199502D01*
X171745518Y-56235812D01*
X171870000Y-56248072D01*
X172434250Y-56245000D01*
X172592998Y-56086252D01*
X172592998Y-56245000D01*
X172654869Y-56245000D01*
X172524849Y-56375020D01*
X166363632Y-56375020D01*
X166503562Y-56235091D01*
X166621111Y-56223513D01*
X166901034Y-56138599D01*
X167159014Y-56000706D01*
X167385134Y-55815134D01*
X167570706Y-55589014D01*
X167708599Y-55331033D01*
X167793513Y-55051110D01*
X167815000Y-54832949D01*
X167815000Y-54387050D01*
X167793513Y-54168889D01*
X167708599Y-53888966D01*
X167570706Y-53630986D01*
X167553484Y-53610000D01*
X171231928Y-53610000D01*
X171235000Y-54324250D01*
X171393750Y-54483000D01*
X172593000Y-54483000D01*
X172593000Y-53133750D01*
X172434250Y-52975000D01*
X171870000Y-52971928D01*
X171745518Y-52984188D01*
X171625820Y-53020498D01*
X171515506Y-53079463D01*
X171418815Y-53158815D01*
X171339463Y-53255506D01*
X171280498Y-53365820D01*
X171244188Y-53485518D01*
X171231928Y-53610000D01*
X167553484Y-53610000D01*
X167465000Y-53502183D01*
X167465000Y-48732817D01*
X167553483Y-48625000D01*
X171231928Y-48625000D01*
X171244188Y-48749482D01*
X171280498Y-48869180D01*
X171339463Y-48979494D01*
X171418815Y-49076185D01*
X171515506Y-49155537D01*
X171625820Y-49214502D01*
X171745518Y-49250812D01*
X171870000Y-49263072D01*
X172434250Y-49260000D01*
X172593000Y-49101250D01*
X172593000Y-47752000D01*
X171393750Y-47752000D01*
X171235000Y-47910750D01*
X171231928Y-48625000D01*
X167553483Y-48625000D01*
X167570706Y-48604014D01*
X167708599Y-48346033D01*
X167793513Y-48066110D01*
X167815000Y-47847949D01*
X167815000Y-47402050D01*
X167793513Y-47183889D01*
X167708599Y-46903966D01*
X167570706Y-46645986D01*
X167553484Y-46625000D01*
X171231928Y-46625000D01*
X171235000Y-47339250D01*
X171393750Y-47498000D01*
X172593000Y-47498000D01*
X172593000Y-46148750D01*
X172434250Y-45990000D01*
X171870000Y-45986928D01*
X171745518Y-45999188D01*
X171625820Y-46035498D01*
X171515506Y-46094463D01*
X171418815Y-46173815D01*
X171339463Y-46270506D01*
X171280498Y-46380820D01*
X171244188Y-46500518D01*
X171231928Y-46625000D01*
X167553484Y-46625000D01*
X167385134Y-46419866D01*
X167159013Y-46234294D01*
X166901033Y-46096401D01*
X166621110Y-46011487D01*
X166330000Y-45982815D01*
X166038889Y-46011487D01*
X165758966Y-46096401D01*
X165500986Y-46234294D01*
X165280055Y-46415608D01*
X165269502Y-46380820D01*
X165210537Y-46270506D01*
X165131185Y-46173815D01*
X165034494Y-46094463D01*
X164924180Y-46035498D01*
X164804482Y-45999188D01*
X164680000Y-45986928D01*
X164115750Y-45990000D01*
X163957000Y-46148750D01*
X163957000Y-47498000D01*
X163977000Y-47498000D01*
X163977000Y-47752000D01*
X163957000Y-47752000D01*
X163957000Y-49101250D01*
X164115750Y-49260000D01*
X164680000Y-49263072D01*
X164804482Y-49250812D01*
X164924180Y-49214502D01*
X165034494Y-49155537D01*
X165131185Y-49076185D01*
X165195000Y-48998426D01*
X165195001Y-53236575D01*
X165131185Y-53158815D01*
X165034494Y-53079463D01*
X164924180Y-53020498D01*
X164804482Y-52984188D01*
X164680000Y-52971928D01*
X164115750Y-52975000D01*
X163957000Y-53133750D01*
X163957000Y-54483000D01*
X163977000Y-54483000D01*
X163977000Y-54737000D01*
X163957000Y-54737000D01*
X163957000Y-54757000D01*
X163703000Y-54757000D01*
X163703000Y-54737000D01*
X162503750Y-54737000D01*
X162345000Y-54895750D01*
X162343799Y-55175010D01*
X158865928Y-55175010D01*
X158903513Y-55051110D01*
X158925000Y-54832949D01*
X158925000Y-54387050D01*
X158903513Y-54168889D01*
X158818599Y-53888966D01*
X158680706Y-53630986D01*
X158663484Y-53610000D01*
X162341928Y-53610000D01*
X162345000Y-54324250D01*
X162503750Y-54483000D01*
X163703000Y-54483000D01*
X163703000Y-53133750D01*
X163544250Y-52975000D01*
X162980000Y-52971928D01*
X162855518Y-52984188D01*
X162735820Y-53020498D01*
X162625506Y-53079463D01*
X162528815Y-53158815D01*
X162449463Y-53255506D01*
X162390498Y-53365820D01*
X162354188Y-53485518D01*
X162341928Y-53610000D01*
X158663484Y-53610000D01*
X158575000Y-53502183D01*
X158575000Y-48732817D01*
X158663483Y-48625000D01*
X162341928Y-48625000D01*
X162354188Y-48749482D01*
X162390498Y-48869180D01*
X162449463Y-48979494D01*
X162528815Y-49076185D01*
X162625506Y-49155537D01*
X162735820Y-49214502D01*
X162855518Y-49250812D01*
X162980000Y-49263072D01*
X163544250Y-49260000D01*
X163703000Y-49101250D01*
X163703000Y-47752000D01*
X162503750Y-47752000D01*
X162345000Y-47910750D01*
X162341928Y-48625000D01*
X158663483Y-48625000D01*
X158680706Y-48604014D01*
X158818599Y-48346033D01*
X158903513Y-48066110D01*
X158925000Y-47847949D01*
X158925000Y-47402050D01*
X158903513Y-47183889D01*
X158818599Y-46903966D01*
X158680706Y-46645986D01*
X158663484Y-46625000D01*
X162341928Y-46625000D01*
X162345000Y-47339250D01*
X162503750Y-47498000D01*
X163703000Y-47498000D01*
X163703000Y-46148750D01*
X163544250Y-45990000D01*
X162980000Y-45986928D01*
X162855518Y-45999188D01*
X162735820Y-46035498D01*
X162625506Y-46094463D01*
X162528815Y-46173815D01*
X162449463Y-46270506D01*
X162390498Y-46380820D01*
X162354188Y-46500518D01*
X162341928Y-46625000D01*
X158663484Y-46625000D01*
X158495134Y-46419866D01*
X158269013Y-46234294D01*
X158011033Y-46096401D01*
X157731110Y-46011487D01*
X157440000Y-45982815D01*
X157148889Y-46011487D01*
X156868966Y-46096401D01*
X156610986Y-46234294D01*
X156390055Y-46415608D01*
X156379502Y-46380820D01*
X156320537Y-46270506D01*
X156241185Y-46173815D01*
X156144494Y-46094463D01*
X156034180Y-46035498D01*
X155914482Y-45999188D01*
X155790000Y-45986928D01*
X155225750Y-45990000D01*
X155067000Y-46148750D01*
X155067000Y-47498000D01*
X155087000Y-47498000D01*
X155087000Y-47752000D01*
X155067000Y-47752000D01*
X155067000Y-49101250D01*
X155225750Y-49260000D01*
X155790000Y-49263072D01*
X155914482Y-49250812D01*
X156034180Y-49214502D01*
X156144494Y-49155537D01*
X156241185Y-49076185D01*
X156305000Y-48998426D01*
X156305001Y-51836610D01*
X156156009Y-51791413D01*
X155989262Y-51774990D01*
X155989261Y-51774990D01*
X155933510Y-51769499D01*
X155877759Y-51774990D01*
X154980122Y-51774990D01*
X151830132Y-48625000D01*
X153451928Y-48625000D01*
X153464188Y-48749482D01*
X153500498Y-48869180D01*
X153559463Y-48979494D01*
X153638815Y-49076185D01*
X153735506Y-49155537D01*
X153845820Y-49214502D01*
X153965518Y-49250812D01*
X154090000Y-49263072D01*
X154654250Y-49260000D01*
X154813000Y-49101250D01*
X154813000Y-47752000D01*
X153613750Y-47752000D01*
X153455000Y-47910750D01*
X153451928Y-48625000D01*
X151830132Y-48625000D01*
X150931997Y-47726866D01*
X150896450Y-47683552D01*
X150723624Y-47541717D01*
X150526448Y-47436325D01*
X150312500Y-47371424D01*
X150145753Y-47355001D01*
X150145752Y-47355001D01*
X150090001Y-47349510D01*
X150034250Y-47355001D01*
X141047902Y-47355001D01*
X141086300Y-47201816D01*
X141100217Y-46919488D01*
X141058787Y-46639870D01*
X141053470Y-46625000D01*
X153451928Y-46625000D01*
X153455000Y-47339250D01*
X153613750Y-47498000D01*
X154813000Y-47498000D01*
X154813000Y-46148750D01*
X154654250Y-45990000D01*
X154090000Y-45986928D01*
X153965518Y-45999188D01*
X153845820Y-46035498D01*
X153735506Y-46094463D01*
X153638815Y-46173815D01*
X153559463Y-46270506D01*
X153500498Y-46380820D01*
X153464188Y-46500518D01*
X153451928Y-46625000D01*
X141053470Y-46625000D01*
X140963603Y-46373708D01*
X140896671Y-46248486D01*
X140652702Y-46176903D01*
X139839605Y-46990000D01*
X139853748Y-47004143D01*
X139674143Y-47183748D01*
X139660000Y-47169605D01*
X139645858Y-47183748D01*
X139466253Y-47004143D01*
X139480395Y-46990000D01*
X138667298Y-46176903D01*
X138598072Y-46197215D01*
X138598072Y-46190000D01*
X138585812Y-46065518D01*
X138565118Y-45997298D01*
X138846903Y-45997298D01*
X139660000Y-46810395D01*
X140473097Y-45997298D01*
X140401514Y-45753329D01*
X140146004Y-45632429D01*
X139871816Y-45563700D01*
X139589488Y-45549783D01*
X139309870Y-45591213D01*
X139043708Y-45686397D01*
X138918486Y-45753329D01*
X138846903Y-45997298D01*
X138565118Y-45997298D01*
X138549502Y-45945820D01*
X138490537Y-45835506D01*
X138411185Y-45738815D01*
X138314494Y-45659463D01*
X138204180Y-45600498D01*
X138084482Y-45564188D01*
X137960000Y-45551928D01*
X136360000Y-45551928D01*
X136235518Y-45564188D01*
X136115820Y-45600498D01*
X136005506Y-45659463D01*
X135908815Y-45738815D01*
X135829463Y-45835506D01*
X135770498Y-45945820D01*
X135734188Y-46065518D01*
X135721928Y-46190000D01*
X135280000Y-46190000D01*
X135280000Y-44207000D01*
X145516928Y-44207000D01*
X145529188Y-44331482D01*
X145565498Y-44451180D01*
X145624463Y-44561494D01*
X145703815Y-44658185D01*
X145800506Y-44737537D01*
X145910820Y-44796502D01*
X146030518Y-44832812D01*
X146155000Y-44845072D01*
X147669250Y-44842000D01*
X147828000Y-44683250D01*
X147828000Y-43434000D01*
X148082000Y-43434000D01*
X148082000Y-44683250D01*
X148240750Y-44842000D01*
X149755000Y-44845072D01*
X149879482Y-44832812D01*
X149999180Y-44796502D01*
X150109494Y-44737537D01*
X150206185Y-44658185D01*
X150285537Y-44561494D01*
X150344502Y-44451180D01*
X150380812Y-44331482D01*
X150393072Y-44207000D01*
X150390000Y-43592750D01*
X150231250Y-43434000D01*
X148082000Y-43434000D01*
X147828000Y-43434000D01*
X145678750Y-43434000D01*
X145520000Y-43592750D01*
X145516928Y-44207000D01*
X135280000Y-44207000D01*
X135280000Y-42407000D01*
X145516928Y-42407000D01*
X145520000Y-43021250D01*
X145678750Y-43180000D01*
X147828000Y-43180000D01*
X147828000Y-41930750D01*
X148082000Y-41930750D01*
X148082000Y-43180000D01*
X150231250Y-43180000D01*
X150390000Y-43021250D01*
X150393072Y-42407000D01*
X150380812Y-42282518D01*
X150344502Y-42162820D01*
X150285537Y-42052506D01*
X150206185Y-41955815D01*
X150109494Y-41876463D01*
X149999180Y-41817498D01*
X149879482Y-41781188D01*
X149755000Y-41768928D01*
X148240750Y-41772000D01*
X148082000Y-41930750D01*
X147828000Y-41930750D01*
X147669250Y-41772000D01*
X146155000Y-41768928D01*
X146030518Y-41781188D01*
X145910820Y-41817498D01*
X145800506Y-41876463D01*
X145703815Y-41955815D01*
X145624463Y-42052506D01*
X145565498Y-42162820D01*
X145529188Y-42282518D01*
X145516928Y-42407000D01*
X135280000Y-42407000D01*
X135280000Y-40036409D01*
X135303998Y-39784872D01*
X136830000Y-39784872D01*
X136830000Y-40225128D01*
X136915890Y-40656925D01*
X137084369Y-41063669D01*
X137328962Y-41429729D01*
X137640271Y-41741038D01*
X138006331Y-41985631D01*
X138413075Y-42154110D01*
X138844872Y-42240000D01*
X139285128Y-42240000D01*
X139716925Y-42154110D01*
X140123669Y-41985631D01*
X140489729Y-41741038D01*
X140801038Y-41429729D01*
X141045631Y-41063669D01*
X141050443Y-41052050D01*
X153495000Y-41052050D01*
X153495000Y-41497949D01*
X153516487Y-41716110D01*
X153601401Y-41996033D01*
X153739294Y-42254013D01*
X153924866Y-42480134D01*
X154150986Y-42665706D01*
X154408966Y-42803599D01*
X154688889Y-42888513D01*
X154980000Y-42917185D01*
X155271110Y-42888513D01*
X155551033Y-42803599D01*
X155809013Y-42665706D01*
X156029945Y-42484392D01*
X156040498Y-42519180D01*
X156099463Y-42629494D01*
X156178815Y-42726185D01*
X156275506Y-42805537D01*
X156385820Y-42864502D01*
X156505518Y-42900812D01*
X156630000Y-42913072D01*
X157194250Y-42910000D01*
X157353000Y-42751250D01*
X157353000Y-41402000D01*
X157607000Y-41402000D01*
X157607000Y-42751250D01*
X157765750Y-42910000D01*
X158330000Y-42913072D01*
X158454482Y-42900812D01*
X158574180Y-42864502D01*
X158684494Y-42805537D01*
X158781185Y-42726185D01*
X158860537Y-42629494D01*
X158919502Y-42519180D01*
X158955812Y-42399482D01*
X158968072Y-42275000D01*
X158965000Y-41560750D01*
X158806250Y-41402000D01*
X157607000Y-41402000D01*
X157353000Y-41402000D01*
X157333000Y-41402000D01*
X157333000Y-41148000D01*
X157353000Y-41148000D01*
X157353000Y-39798750D01*
X157607000Y-39798750D01*
X157607000Y-41148000D01*
X158806250Y-41148000D01*
X158902200Y-41052050D01*
X162385000Y-41052050D01*
X162385000Y-41497949D01*
X162406487Y-41716110D01*
X162491401Y-41996033D01*
X162629294Y-42254013D01*
X162814866Y-42480134D01*
X163040986Y-42665706D01*
X163298966Y-42803599D01*
X163578889Y-42888513D01*
X163870000Y-42917185D01*
X164161110Y-42888513D01*
X164441033Y-42803599D01*
X164699013Y-42665706D01*
X164919945Y-42484392D01*
X164930498Y-42519180D01*
X164989463Y-42629494D01*
X165068815Y-42726185D01*
X165165506Y-42805537D01*
X165275820Y-42864502D01*
X165395518Y-42900812D01*
X165520000Y-42913072D01*
X166084250Y-42910000D01*
X166243000Y-42751250D01*
X166243000Y-41402000D01*
X166497000Y-41402000D01*
X166497000Y-42751250D01*
X166655750Y-42910000D01*
X167220000Y-42913072D01*
X167344482Y-42900812D01*
X167464180Y-42864502D01*
X167574494Y-42805537D01*
X167671185Y-42726185D01*
X167750537Y-42629494D01*
X167809502Y-42519180D01*
X167845812Y-42399482D01*
X167858072Y-42275000D01*
X167855000Y-41560750D01*
X167696250Y-41402000D01*
X166497000Y-41402000D01*
X166243000Y-41402000D01*
X166223000Y-41402000D01*
X166223000Y-41148000D01*
X166243000Y-41148000D01*
X166243000Y-39798750D01*
X166497000Y-39798750D01*
X166497000Y-41148000D01*
X167696250Y-41148000D01*
X167792200Y-41052050D01*
X171275000Y-41052050D01*
X171275000Y-41497949D01*
X171296487Y-41716110D01*
X171381401Y-41996033D01*
X171519294Y-42254013D01*
X171704866Y-42480134D01*
X171930986Y-42665706D01*
X172188966Y-42803599D01*
X172468889Y-42888513D01*
X172760000Y-42917185D01*
X173051110Y-42888513D01*
X173331033Y-42803599D01*
X173589013Y-42665706D01*
X173809945Y-42484392D01*
X173820498Y-42519180D01*
X173879463Y-42629494D01*
X173958815Y-42726185D01*
X174055506Y-42805537D01*
X174165820Y-42864502D01*
X174285518Y-42900812D01*
X174410000Y-42913072D01*
X174974250Y-42910000D01*
X175133000Y-42751250D01*
X175133000Y-41402000D01*
X175387000Y-41402000D01*
X175387000Y-42751250D01*
X175545750Y-42910000D01*
X176110000Y-42913072D01*
X176234482Y-42900812D01*
X176354180Y-42864502D01*
X176464494Y-42805537D01*
X176561185Y-42726185D01*
X176640537Y-42629494D01*
X176699502Y-42519180D01*
X176735812Y-42399482D01*
X176748072Y-42275000D01*
X176745000Y-41560750D01*
X176586250Y-41402000D01*
X175387000Y-41402000D01*
X175133000Y-41402000D01*
X175113000Y-41402000D01*
X175113000Y-41148000D01*
X175133000Y-41148000D01*
X175133000Y-39798750D01*
X175387000Y-39798750D01*
X175387000Y-41148000D01*
X176586250Y-41148000D01*
X176745000Y-40989250D01*
X176748072Y-40275000D01*
X176735812Y-40150518D01*
X176699502Y-40030820D01*
X176640537Y-39920506D01*
X176561185Y-39823815D01*
X176513733Y-39784872D01*
X180010000Y-39784872D01*
X180010000Y-40225128D01*
X180095890Y-40656925D01*
X180264369Y-41063669D01*
X180508962Y-41429729D01*
X180820271Y-41741038D01*
X181186331Y-41985631D01*
X181593075Y-42154110D01*
X182024872Y-42240000D01*
X182465128Y-42240000D01*
X182896925Y-42154110D01*
X183303669Y-41985631D01*
X183669729Y-41741038D01*
X183981038Y-41429729D01*
X184225631Y-41063669D01*
X184394110Y-40656925D01*
X184480000Y-40225128D01*
X184480000Y-39784872D01*
X184394110Y-39353075D01*
X184225631Y-38946331D01*
X183981038Y-38580271D01*
X183669729Y-38268962D01*
X183303669Y-38024369D01*
X182896925Y-37855890D01*
X182465128Y-37770000D01*
X182024872Y-37770000D01*
X181593075Y-37855890D01*
X181186331Y-38024369D01*
X180820271Y-38268962D01*
X180508962Y-38580271D01*
X180264369Y-38946331D01*
X180095890Y-39353075D01*
X180010000Y-39784872D01*
X176513733Y-39784872D01*
X176464494Y-39744463D01*
X176354180Y-39685498D01*
X176234482Y-39649188D01*
X176110000Y-39636928D01*
X175545750Y-39640000D01*
X175387000Y-39798750D01*
X175133000Y-39798750D01*
X174974250Y-39640000D01*
X174410000Y-39636928D01*
X174285518Y-39649188D01*
X174165820Y-39685498D01*
X174055506Y-39744463D01*
X173958815Y-39823815D01*
X173879463Y-39920506D01*
X173820498Y-40030820D01*
X173809945Y-40065608D01*
X173589014Y-39884294D01*
X173331034Y-39746401D01*
X173051111Y-39661487D01*
X172760000Y-39632815D01*
X172468890Y-39661487D01*
X172188967Y-39746401D01*
X171930987Y-39884294D01*
X171704866Y-40069866D01*
X171519294Y-40295986D01*
X171381401Y-40553966D01*
X171296487Y-40833889D01*
X171275000Y-41052050D01*
X167792200Y-41052050D01*
X167855000Y-40989250D01*
X167858072Y-40275000D01*
X167845812Y-40150518D01*
X167809502Y-40030820D01*
X167750537Y-39920506D01*
X167671185Y-39823815D01*
X167574494Y-39744463D01*
X167464180Y-39685498D01*
X167344482Y-39649188D01*
X167220000Y-39636928D01*
X166655750Y-39640000D01*
X166497000Y-39798750D01*
X166243000Y-39798750D01*
X166084250Y-39640000D01*
X165520000Y-39636928D01*
X165395518Y-39649188D01*
X165275820Y-39685498D01*
X165165506Y-39744463D01*
X165068815Y-39823815D01*
X164989463Y-39920506D01*
X164930498Y-40030820D01*
X164919945Y-40065608D01*
X164699014Y-39884294D01*
X164441034Y-39746401D01*
X164161111Y-39661487D01*
X163870000Y-39632815D01*
X163578890Y-39661487D01*
X163298967Y-39746401D01*
X163040987Y-39884294D01*
X162814866Y-40069866D01*
X162629294Y-40295986D01*
X162491401Y-40553966D01*
X162406487Y-40833889D01*
X162385000Y-41052050D01*
X158902200Y-41052050D01*
X158965000Y-40989250D01*
X158968072Y-40275000D01*
X158955812Y-40150518D01*
X158919502Y-40030820D01*
X158860537Y-39920506D01*
X158781185Y-39823815D01*
X158684494Y-39744463D01*
X158574180Y-39685498D01*
X158454482Y-39649188D01*
X158330000Y-39636928D01*
X157765750Y-39640000D01*
X157607000Y-39798750D01*
X157353000Y-39798750D01*
X157194250Y-39640000D01*
X156630000Y-39636928D01*
X156505518Y-39649188D01*
X156385820Y-39685498D01*
X156275506Y-39744463D01*
X156178815Y-39823815D01*
X156099463Y-39920506D01*
X156040498Y-40030820D01*
X156029945Y-40065608D01*
X155809014Y-39884294D01*
X155551034Y-39746401D01*
X155271111Y-39661487D01*
X154980000Y-39632815D01*
X154688890Y-39661487D01*
X154408967Y-39746401D01*
X154150987Y-39884294D01*
X153924866Y-40069866D01*
X153739294Y-40295986D01*
X153601401Y-40553966D01*
X153516487Y-40833889D01*
X153495000Y-41052050D01*
X141050443Y-41052050D01*
X141214110Y-40656925D01*
X141300000Y-40225128D01*
X141300000Y-39784872D01*
X141242739Y-39497000D01*
X145512573Y-39497000D01*
X145542210Y-39797913D01*
X145629983Y-40087261D01*
X145772519Y-40353927D01*
X145964339Y-40587661D01*
X146198073Y-40779481D01*
X146464739Y-40922017D01*
X146754087Y-41009790D01*
X146979592Y-41032000D01*
X148930408Y-41032000D01*
X149155913Y-41009790D01*
X149445261Y-40922017D01*
X149711927Y-40779481D01*
X149945661Y-40587661D01*
X150137481Y-40353927D01*
X150280017Y-40087261D01*
X150367790Y-39797913D01*
X150397427Y-39497000D01*
X150367790Y-39196087D01*
X150280017Y-38906739D01*
X150137481Y-38640073D01*
X149945661Y-38406339D01*
X149711927Y-38214519D01*
X149445261Y-38071983D01*
X149155913Y-37984210D01*
X148930408Y-37962000D01*
X146979592Y-37962000D01*
X146754087Y-37984210D01*
X146464739Y-38071983D01*
X146198073Y-38214519D01*
X145964339Y-38406339D01*
X145772519Y-38640073D01*
X145629983Y-38906739D01*
X145542210Y-39196087D01*
X145512573Y-39497000D01*
X141242739Y-39497000D01*
X141214110Y-39353075D01*
X141045631Y-38946331D01*
X140801038Y-38580271D01*
X140489729Y-38268962D01*
X140123669Y-38024369D01*
X139716925Y-37855890D01*
X139285128Y-37770000D01*
X138844872Y-37770000D01*
X138413075Y-37855890D01*
X138006331Y-38024369D01*
X137640271Y-38268962D01*
X137328962Y-38580271D01*
X137084369Y-38946331D01*
X136915890Y-39353075D01*
X136830000Y-39784872D01*
X135303998Y-39784872D01*
X135351229Y-39289844D01*
X135553464Y-38600484D01*
X135882405Y-37961808D01*
X136326180Y-37396857D01*
X136868780Y-36926012D01*
X137490622Y-36566267D01*
X138169274Y-36330599D01*
X138903477Y-36224145D01*
X139073066Y-36220000D01*
X182213591Y-36220000D01*
X182960156Y-36291229D01*
G37*
%TD.AperFunction*%
D37*
X150013748Y-55865858D02*
X149999605Y-55880000D01*
X150013748Y-55894143D01*
X149834143Y-56073748D01*
X149820000Y-56059605D01*
X149805858Y-56073748D01*
X149626253Y-55894143D01*
X149640395Y-55880000D01*
X149626253Y-55865858D01*
X149805858Y-55686253D01*
X149820000Y-55700395D01*
X149834143Y-55686253D01*
X150013748Y-55865858D01*
%TA.AperFunction,Conductor*%
D38*
G36*
X150013748Y-55865858D02*
G01*
X149999605Y-55880000D01*
X150013748Y-55894143D01*
X149834143Y-56073748D01*
X149820000Y-56059605D01*
X149805858Y-56073748D01*
X149626253Y-55894143D01*
X149640395Y-55880000D01*
X149626253Y-55865858D01*
X149805858Y-55686253D01*
X149820000Y-55700395D01*
X149834143Y-55686253D01*
X150013748Y-55865858D01*
G37*
%TD.AperFunction*%
D37*
X155067000Y-54483000D02*
X155087000Y-54483000D01*
X155087000Y-54737000D01*
X155067000Y-54737000D01*
X155067000Y-54757000D01*
X154813000Y-54757000D01*
X154813000Y-54737000D01*
X154793000Y-54737000D01*
X154793000Y-54483000D01*
X154813000Y-54483000D01*
X154813000Y-54463000D01*
X155067000Y-54463000D01*
X155067000Y-54483000D01*
%TA.AperFunction,Conductor*%
D38*
G36*
X155067000Y-54483000D02*
G01*
X155087000Y-54483000D01*
X155087000Y-54737000D01*
X155067000Y-54737000D01*
X155067000Y-54757000D01*
X154813000Y-54757000D01*
X154813000Y-54737000D01*
X154793000Y-54737000D01*
X154793000Y-54483000D01*
X154813000Y-54483000D01*
X154813000Y-54463000D01*
X155067000Y-54463000D01*
X155067000Y-54483000D01*
G37*
%TD.AperFunction*%
D37*
X153467958Y-53473090D02*
X153464188Y-53485518D01*
X153451928Y-53610000D01*
X153454521Y-54212909D01*
X152858474Y-53616863D01*
X152822928Y-53573550D01*
X152650102Y-53431715D01*
X152452926Y-53326323D01*
X152238978Y-53261422D01*
X152072231Y-53244999D01*
X152072230Y-53244999D01*
X152016479Y-53239508D01*
X151960728Y-53244999D01*
X147560131Y-53244999D01*
X145912044Y-51596913D01*
X146080512Y-51605217D01*
X146360130Y-51563787D01*
X146626292Y-51468603D01*
X146751514Y-51401671D01*
X146823097Y-51157702D01*
X146010000Y-50344605D01*
X145995858Y-50358748D01*
X145816253Y-50179143D01*
X145830395Y-50165000D01*
X145816253Y-50150858D01*
X145995858Y-49971253D01*
X146010000Y-49985395D01*
X146024143Y-49971253D01*
X146203748Y-50150858D01*
X146189605Y-50165000D01*
X147002702Y-50978097D01*
X147246671Y-50906514D01*
X147367571Y-50651004D01*
X147436300Y-50376816D01*
X147450217Y-50094488D01*
X147408787Y-49814870D01*
X147340887Y-49625001D01*
X149619870Y-49625001D01*
X153467958Y-53473090D01*
%TA.AperFunction,Conductor*%
D38*
G36*
X153467958Y-53473090D02*
G01*
X153464188Y-53485518D01*
X153451928Y-53610000D01*
X153454521Y-54212909D01*
X152858474Y-53616863D01*
X152822928Y-53573550D01*
X152650102Y-53431715D01*
X152452926Y-53326323D01*
X152238978Y-53261422D01*
X152072231Y-53244999D01*
X152072230Y-53244999D01*
X152016479Y-53239508D01*
X151960728Y-53244999D01*
X147560131Y-53244999D01*
X145912044Y-51596913D01*
X146080512Y-51605217D01*
X146360130Y-51563787D01*
X146626292Y-51468603D01*
X146751514Y-51401671D01*
X146823097Y-51157702D01*
X146010000Y-50344605D01*
X145995858Y-50358748D01*
X145816253Y-50179143D01*
X145830395Y-50165000D01*
X145816253Y-50150858D01*
X145995858Y-49971253D01*
X146010000Y-49985395D01*
X146024143Y-49971253D01*
X146203748Y-50150858D01*
X146189605Y-50165000D01*
X147002702Y-50978097D01*
X147246671Y-50906514D01*
X147367571Y-50651004D01*
X147436300Y-50376816D01*
X147450217Y-50094488D01*
X147408787Y-49814870D01*
X147340887Y-49625001D01*
X149619870Y-49625001D01*
X153467958Y-53473090D01*
G37*
%TD.AperFunction*%
%TD*%
M02*
