M48
; DRILL file {KiCad (5.1.9)-1} date 02/18/21 14:59:36
; FORMAT={-:-/ absolute / inch / decimal}
; #@! TF.CreationDate,2021-02-18T14:59:36+00:00
; #@! TF.GenerationSoftware,Kicad,Pcbnew,(5.1.9)-1
; #@! TF.FileFunction,Plated,1,2,PTH
FMAT,2
INCH
T1C0.0157
T2C0.0197
T3C0.0315
T4C0.0374
T5C0.0394
T6C0.0472
T7C0.0591
%
G90
G05
T1
X3.7501Y-3.5891
X4.2797Y-2.2551
X4.2965Y-2.0028
X4.335Y-2.24
X4.3427Y-2.1965
X4.3821Y-2.1571
X4.4104Y-1.6453
X4.4215Y-2.1965
X4.4458Y-1.7437
X4.4608Y-2.1571
X4.4812Y-1.8421
X4.5002Y-1.9799
X4.5002Y-2.1965
X4.5396Y-2.1571
X4.5789Y-2.1965
X4.6183Y-2.1571
X4.6577Y-2.1965
X4.697Y-2.1571
X4.8152Y-1.7437
X4.8152Y-1.9799
X4.8545Y-2.0193
X4.8939Y-1.9996
X5.5551Y-2.6839
X5.5789Y-2.7339
X5.6051Y-3.0839
X5.7051Y-3.3089
X5.7051Y-3.9089
X5.7351Y-2.8239
X5.7801Y-2.6925
X5.8551Y-2.6571
X5.8801Y-3.5839
X5.9151Y-2.9239
X6.3Y-1.875
X6.65Y-1.875
X6.7601Y-3.0389
T2
X4.0195Y-3.0378
X4.0639Y-3.4378
X4.0639Y-3.6582
X4.1527Y-3.0335
X4.3945Y-2.8789
X5.2801Y-2.7839
X5.6301Y-2.7339
X5.7866Y-3.4154
X6.5651Y-3.2239
X6.6301Y-3.2289
X6.7408Y-3.2691
X6.8051Y-3.2639
T3
X5.4Y-1.85
X5.4984Y-1.85
X5.65Y-1.975
X5.7484Y-1.975
X5.8Y-2.2
X5.8984Y-2.2
T4
X5.3551Y-3.0339
X5.3551Y-3.1323
X5.3551Y-3.2307
X5.7201Y-4.1989
X5.8185Y-4.1989
X5.917Y-4.1989
X6.1701Y-4.1989
X6.2685Y-4.1989
X6.367Y-4.1989
X6.6201Y-4.1989
X6.7185Y-4.1989
X6.817Y-4.1989
T5
X3.6928Y-3.0194
X4.0435Y-2.1783
X4.2063Y-3.7937
X4.2404Y-2.1783
X4.2563Y-3.7071
X4.2929Y-3.8437
X4.3063Y-3.6205
X4.3218Y-1.0022
X4.3218Y-1.1022
X4.3218Y-1.2022
X4.3218Y-1.3022
X4.3218Y-1.4022
X4.3218Y-1.5022
X4.3218Y-1.6022
X4.3218Y-1.7022
X4.3218Y-1.8022
X4.3218Y-1.9022
X4.3429Y-3.7571
X4.3563Y-3.5339
X4.3929Y-3.6705
X4.4063Y-3.4473
X4.4429Y-3.5839
X4.4563Y-3.3607
X4.4929Y-3.4973
X4.5429Y-3.4107
X4.6456Y-3.0194
X4.7218Y-1.0022
X4.7218Y-1.1022
X4.7218Y-1.2022
X4.7218Y-1.3022
X4.7218Y-1.4022
X4.7218Y-1.5022
X4.7218Y-1.6022
X4.7218Y-1.7022
X4.7218Y-1.8022
X4.7218Y-1.9022
X4.7994Y-2.1783
X4.9963Y-2.1783
X5.1051Y-3.4339
X5.1051Y-3.5339
X5.1051Y-3.6339
X5.2051Y-3.4339
X5.2051Y-3.5339
X5.2051Y-3.6339
X5.3051Y-3.4339
X5.3051Y-3.5339
X5.3051Y-3.6339
X5.4051Y-3.4339
X5.4051Y-3.5339
X5.4051Y-3.6339
X5.5051Y-3.4339
X5.5051Y-3.5339
X5.5051Y-3.6339
X5.6551Y-3.4339
X5.6551Y-3.5339
X5.6551Y-3.6339
X5.9037Y-2.8114
X6.1Y-1.875
X6.1Y-2.15
X6.1016Y-1.625
X6.1984Y-1.875
X6.1984Y-2.15
X6.2Y-1.625
X6.45Y-1.875
X6.45Y-2.15
X6.4516Y-1.625
X6.5484Y-1.875
X6.5484Y-2.15
X6.55Y-1.625
X6.8Y-1.875
X6.8Y-2.15
X6.8016Y-1.625
X6.8565Y-2.8114
X6.8984Y-1.875
X6.8984Y-2.15
X6.9Y-1.625
X6.9801Y-3.03
X6.9801Y-3.9827
T6
X5.825Y-1.555
X5.825Y-1.705
T7
X4.2646Y-3.0128
X4.3945Y-3.0128
X6.1251Y-2.8039
X6.2621Y-2.7769
X6.3275Y-3.1785
X6.9851Y-3.6039
X6.9861Y-3.7438
T0
M30
