%TF.GenerationSoftware,KiCad,Pcbnew,(5.1.9)-1*%
%TF.CreationDate,2021-02-18T14:59:33+00:00*%
%TF.ProjectId,c-boards_assy_final,632d626f-6172-4647-935f-617373795f66,rev?*%
%TF.SameCoordinates,Original*%
%TF.FileFunction,Profile,NP*%
%FSLAX46Y46*%
G04 Gerber Fmt 4.6, Leading zero omitted, Abs format (unit mm)*
G04 Created by KiCad (PCBNEW (5.1.9)-1) date 2021-02-18 14:59:33*
%MOMM*%
%LPD*%
G01*
G04 APERTURE LIST*
%TA.AperFunction,Profile*%
%ADD10C,0.150000*%
%TD*%
%TA.AperFunction,Profile*%
%ADD11C,0.160000*%
%TD*%
G04 APERTURE END LIST*
D10*
X128805000Y-59790000D02*
X134620000Y-59790000D01*
X126686000Y-104775000D02*
X107823000Y-104775000D01*
X126686000Y-114310000D02*
X126686000Y-104775000D01*
X186690000Y-40005000D02*
X186693000Y-29594000D01*
X186686000Y-67987000D02*
X186690000Y-55245000D01*
D11*
X186686000Y-108243000D02*
X186686000Y-113972000D01*
X90006000Y-94952000D02*
X96260000Y-105775000D01*
X182686000Y-103536000D02*
X182686000Y-74536000D01*
X90554000Y-90421000D02*
X90554000Y-92782000D01*
X89317000Y-77942000D02*
X89317000Y-90421000D01*
X90554000Y-70908000D02*
X90554000Y-77942000D01*
X186686000Y-67987000D02*
X186686000Y-69944000D01*
X186693000Y-29594000D02*
X186693000Y-19642000D01*
X165548000Y-20218000D02*
X165548000Y-35560000D01*
X107823000Y-104775000D02*
X102598000Y-107789000D01*
X96260000Y-105775000D02*
X97366000Y-105135000D01*
X97366000Y-105135000D02*
X98428000Y-106973000D01*
X100805000Y-66827400D02*
X91526000Y-69588000D01*
X89317000Y-90421000D02*
X90554000Y-90421000D01*
X90554000Y-77942000D02*
X89317000Y-77942000D01*
X90836000Y-93835000D02*
X91112000Y-94313000D01*
X91112000Y-94313000D02*
X90006000Y-94952000D01*
X182686000Y-74536000D02*
X186267000Y-70955000D01*
X186186000Y-107036000D02*
X182686000Y-103536000D01*
X128412000Y-116036000D02*
X184622000Y-116036000D01*
X166803000Y-18963000D02*
X186014000Y-18963000D01*
X134620000Y-40005000D02*
X134620000Y-59790000D01*
X186690000Y-55245000D02*
X186690000Y-40005000D01*
X165548000Y-35560000D02*
X139065000Y-35560000D01*
X128805000Y-59790000D02*
X128805000Y-49790000D01*
X100805000Y-49790000D02*
X100805000Y-66827400D01*
X100805000Y-49790000D02*
X106305000Y-49790000D01*
X106305000Y-23790000D02*
X106305000Y-49790000D01*
X123305000Y-23790000D02*
X106305000Y-23790000D01*
X123305000Y-49790000D02*
X128805000Y-49790000D01*
X123305000Y-23790000D02*
X123305000Y-49790000D01*
X186014000Y-18963000D02*
G75*
G02*
X186693000Y-19642000I0J-679000D01*
G01*
X165548000Y-20218000D02*
G75*
G02*
X166803000Y-18963000I1255000J0D01*
G01*
X102598000Y-107789000D02*
G75*
G02*
X98428000Y-106973000I-1677000J2493000D01*
G01*
X90836268Y-93834668D02*
G75*
G02*
X90554000Y-92782000I1821732J1052668D01*
G01*
X90553845Y-70907601D02*
G75*
G02*
X91526000Y-69588000I1359155J16601D01*
G01*
X186685770Y-69944000D02*
G75*
G02*
X186267000Y-70955000I-1429770J0D01*
G01*
X186186031Y-107035969D02*
G75*
G02*
X186686000Y-108243000I-1207031J-1207031D01*
G01*
X186686000Y-113972000D02*
G75*
G02*
X184622000Y-116036000I-2064000J0D01*
G01*
X128412000Y-116036000D02*
G75*
G02*
X126686000Y-114310000I0J1726000D01*
G01*
X134620000Y-40005000D02*
G75*
G02*
X139065000Y-35560000I4445000J0D01*
G01*
M02*
