%TF.GenerationSoftware,KiCad,Pcbnew,(5.1.9)-1*%
%TF.CreationDate,2021-02-18T14:59:33+00:00*%
%TF.ProjectId,c-boards_assy_final,632d626f-6172-4647-935f-617373795f66,rev?*%
%TF.SameCoordinates,Original*%
%TF.FileFunction,Legend,Bot*%
%TF.FilePolarity,Positive*%
%FSLAX46Y46*%
G04 Gerber Fmt 4.6, Leading zero omitted, Abs format (unit mm)*
G04 Created by KiCad (PCBNEW (5.1.9)-1) date 2021-02-18 14:59:33*
%MOMM*%
%LPD*%
G01*
G04 APERTURE LIST*
%ADD10C,0.300000*%
%ADD11C,0.200000*%
%ADD12C,0.150000*%
%ADD13C,0.120000*%
%ADD14C,0.100000*%
%ADD15C,0.254000*%
%ADD16C,0.250000*%
%ADD17R,2.200000X2.500000*%
%ADD18R,2.500000X2.200000*%
%ADD19R,4.500000X1.300000*%
%ADD20R,3.900000X1.800000*%
%ADD21C,2.000000*%
%ADD22C,2.700000*%
%ADD23O,1.950000X1.700000*%
%ADD24O,1.700000X1.950000*%
%ADD25R,1.700000X1.700000*%
%ADD26O,1.700000X1.700000*%
%ADD27O,3.600000X1.800000*%
%ADD28C,3.200000*%
%ADD29O,1.700000X2.000000*%
%ADD30C,1.600000*%
%ADD31R,1.600000X1.600000*%
%ADD32R,1.200000X0.650000*%
%ADD33R,0.600000X1.800000*%
G04 APERTURE END LIST*
D10*
X151224095Y-61896761D02*
X151224095Y-63325333D01*
X151319333Y-63611047D01*
X151509809Y-63801523D01*
X151795523Y-63896761D01*
X151986000Y-63896761D01*
X149319333Y-63896761D02*
X150271714Y-63896761D01*
X150271714Y-61896761D01*
X147509809Y-63706285D02*
X147605047Y-63801523D01*
X147890761Y-63896761D01*
X148081238Y-63896761D01*
X148366952Y-63801523D01*
X148557428Y-63611047D01*
X148652666Y-63420571D01*
X148747904Y-63039619D01*
X148747904Y-62753904D01*
X148652666Y-62372952D01*
X148557428Y-62182476D01*
X148366952Y-61992000D01*
X148081238Y-61896761D01*
X147890761Y-61896761D01*
X147605047Y-61992000D01*
X147509809Y-62087238D01*
X146081238Y-61896761D02*
X146081238Y-63325333D01*
X146176476Y-63611047D01*
X146366952Y-63801523D01*
X146652666Y-63896761D01*
X146843142Y-63896761D01*
X144176476Y-63896761D02*
X145128857Y-63896761D01*
X145128857Y-61896761D01*
X142366952Y-63706285D02*
X142462190Y-63801523D01*
X142747904Y-63896761D01*
X142938380Y-63896761D01*
X143224095Y-63801523D01*
X143414571Y-63611047D01*
X143509809Y-63420571D01*
X143605047Y-63039619D01*
X143605047Y-62753904D01*
X143509809Y-62372952D01*
X143414571Y-62182476D01*
X143224095Y-61992000D01*
X142938380Y-61896761D01*
X142747904Y-61896761D01*
X142462190Y-61992000D01*
X142366952Y-62087238D01*
X140938380Y-61896761D02*
X140938380Y-63325333D01*
X141033619Y-63611047D01*
X141224095Y-63801523D01*
X141509809Y-63896761D01*
X141700285Y-63896761D01*
X139033619Y-63896761D02*
X139986000Y-63896761D01*
X139986000Y-61896761D01*
X137224095Y-63706285D02*
X137319333Y-63801523D01*
X137605047Y-63896761D01*
X137795523Y-63896761D01*
X138081238Y-63801523D01*
X138271714Y-63611047D01*
X138366952Y-63420571D01*
X138462190Y-63039619D01*
X138462190Y-62753904D01*
X138366952Y-62372952D01*
X138271714Y-62182476D01*
X138081238Y-61992000D01*
X137795523Y-61896761D01*
X137605047Y-61896761D01*
X137319333Y-61992000D01*
X137224095Y-62087238D01*
X135795523Y-61896761D02*
X135795523Y-63325333D01*
X135890761Y-63611047D01*
X136081238Y-63801523D01*
X136366952Y-63896761D01*
X136557428Y-63896761D01*
X133890761Y-63896761D02*
X134843142Y-63896761D01*
X134843142Y-61896761D01*
X132081238Y-63706285D02*
X132176476Y-63801523D01*
X132462190Y-63896761D01*
X132652666Y-63896761D01*
X132938380Y-63801523D01*
X133128857Y-63611047D01*
X133224095Y-63420571D01*
X133319333Y-63039619D01*
X133319333Y-62753904D01*
X133224095Y-62372952D01*
X133128857Y-62182476D01*
X132938380Y-61992000D01*
X132652666Y-61896761D01*
X132462190Y-61896761D01*
X132176476Y-61992000D01*
X132081238Y-62087238D01*
D11*
X109356666Y-84670000D02*
X109423333Y-84736666D01*
X109623333Y-84803333D01*
X109756666Y-84803333D01*
X109956666Y-84736666D01*
X110090000Y-84603333D01*
X110156666Y-84470000D01*
X110223333Y-84203333D01*
X110223333Y-84003333D01*
X110156666Y-83736666D01*
X110090000Y-83603333D01*
X109956666Y-83470000D01*
X109756666Y-83403333D01*
X109623333Y-83403333D01*
X109423333Y-83470000D01*
X109356666Y-83536666D01*
X108823333Y-84403333D02*
X108156666Y-84403333D01*
X108956666Y-84803333D02*
X108490000Y-83403333D01*
X108023333Y-84803333D01*
X106756666Y-84803333D02*
X107223333Y-84136666D01*
X107556666Y-84803333D02*
X107556666Y-83403333D01*
X107023333Y-83403333D01*
X106890000Y-83470000D01*
X106823333Y-83536666D01*
X106756666Y-83670000D01*
X106756666Y-83870000D01*
X106823333Y-84003333D01*
X106890000Y-84070000D01*
X107023333Y-84136666D01*
X107556666Y-84136666D01*
X105356666Y-84803333D02*
X105823333Y-84136666D01*
X106156666Y-84803333D02*
X106156666Y-83403333D01*
X105623333Y-83403333D01*
X105490000Y-83470000D01*
X105423333Y-83536666D01*
X105356666Y-83670000D01*
X105356666Y-83870000D01*
X105423333Y-84003333D01*
X105490000Y-84070000D01*
X105623333Y-84136666D01*
X106156666Y-84136666D01*
X104756666Y-84803333D02*
X104756666Y-83403333D01*
X104156666Y-84403333D02*
X103490000Y-84403333D01*
X104290000Y-84803333D02*
X103823333Y-83403333D01*
X103356666Y-84803333D01*
X102156666Y-83470000D02*
X102290000Y-83403333D01*
X102490000Y-83403333D01*
X102690000Y-83470000D01*
X102823333Y-83603333D01*
X102890000Y-83736666D01*
X102956666Y-84003333D01*
X102956666Y-84203333D01*
X102890000Y-84470000D01*
X102823333Y-84603333D01*
X102690000Y-84736666D01*
X102490000Y-84803333D01*
X102356666Y-84803333D01*
X102156666Y-84736666D01*
X102090000Y-84670000D01*
X102090000Y-84203333D01*
X102356666Y-84203333D01*
X101490000Y-84070000D02*
X101023333Y-84070000D01*
X100823333Y-84803333D02*
X101490000Y-84803333D01*
X101490000Y-83403333D01*
X100823333Y-83403333D01*
X109690000Y-86370000D02*
X109490000Y-86436666D01*
X109423333Y-86503333D01*
X109356666Y-86636666D01*
X109356666Y-86836666D01*
X109423333Y-86970000D01*
X109490000Y-87036666D01*
X109623333Y-87103333D01*
X110156666Y-87103333D01*
X110156666Y-85703333D01*
X109690000Y-85703333D01*
X109556666Y-85770000D01*
X109490000Y-85836666D01*
X109423333Y-85970000D01*
X109423333Y-86103333D01*
X109490000Y-86236666D01*
X109556666Y-86303333D01*
X109690000Y-86370000D01*
X110156666Y-86370000D01*
X108490000Y-85703333D02*
X108223333Y-85703333D01*
X108090000Y-85770000D01*
X107956666Y-85903333D01*
X107890000Y-86170000D01*
X107890000Y-86636666D01*
X107956666Y-86903333D01*
X108090000Y-87036666D01*
X108223333Y-87103333D01*
X108490000Y-87103333D01*
X108623333Y-87036666D01*
X108756666Y-86903333D01*
X108823333Y-86636666D01*
X108823333Y-86170000D01*
X108756666Y-85903333D01*
X108623333Y-85770000D01*
X108490000Y-85703333D01*
X107356666Y-86703333D02*
X106690000Y-86703333D01*
X107490000Y-87103333D02*
X107023333Y-85703333D01*
X106556666Y-87103333D01*
X105290000Y-87103333D02*
X105756666Y-86436666D01*
X106090000Y-87103333D02*
X106090000Y-85703333D01*
X105556666Y-85703333D01*
X105423333Y-85770000D01*
X105356666Y-85836666D01*
X105290000Y-85970000D01*
X105290000Y-86170000D01*
X105356666Y-86303333D01*
X105423333Y-86370000D01*
X105556666Y-86436666D01*
X106090000Y-86436666D01*
X104690000Y-87103333D02*
X104690000Y-85703333D01*
X104356666Y-85703333D01*
X104156666Y-85770000D01*
X104023333Y-85903333D01*
X103956666Y-86036666D01*
X103890000Y-86303333D01*
X103890000Y-86503333D01*
X103956666Y-86770000D01*
X104023333Y-86903333D01*
X104156666Y-87036666D01*
X104356666Y-87103333D01*
X104690000Y-87103333D01*
X101756666Y-86370000D02*
X101556666Y-86436666D01*
X101490000Y-86503333D01*
X101423333Y-86636666D01*
X101423333Y-86836666D01*
X101490000Y-86970000D01*
X101556666Y-87036666D01*
X101690000Y-87103333D01*
X102223333Y-87103333D01*
X102223333Y-85703333D01*
X101756666Y-85703333D01*
X101623333Y-85770000D01*
X101556666Y-85836666D01*
X101490000Y-85970000D01*
X101490000Y-86103333D01*
X101556666Y-86236666D01*
X101623333Y-86303333D01*
X101756666Y-86370000D01*
X102223333Y-86370000D01*
D12*
X107646071Y-89672857D02*
X108046071Y-89101428D01*
X108331785Y-89672857D02*
X108331785Y-88472857D01*
X107874642Y-88472857D01*
X107760357Y-88530000D01*
X107703214Y-88587142D01*
X107646071Y-88701428D01*
X107646071Y-88872857D01*
X107703214Y-88987142D01*
X107760357Y-89044285D01*
X107874642Y-89101428D01*
X108331785Y-89101428D01*
X106674642Y-89615714D02*
X106788928Y-89672857D01*
X107017500Y-89672857D01*
X107131785Y-89615714D01*
X107188928Y-89501428D01*
X107188928Y-89044285D01*
X107131785Y-88930000D01*
X107017500Y-88872857D01*
X106788928Y-88872857D01*
X106674642Y-88930000D01*
X106617500Y-89044285D01*
X106617500Y-89158571D01*
X107188928Y-89272857D01*
X106217500Y-88872857D02*
X105931785Y-89672857D01*
X105646071Y-88872857D01*
X104046071Y-88472857D02*
X103931785Y-88472857D01*
X103817500Y-88530000D01*
X103760357Y-88587142D01*
X103703214Y-88701428D01*
X103646071Y-88930000D01*
X103646071Y-89215714D01*
X103703214Y-89444285D01*
X103760357Y-89558571D01*
X103817500Y-89615714D01*
X103931785Y-89672857D01*
X104046071Y-89672857D01*
X104160357Y-89615714D01*
X104217500Y-89558571D01*
X104274642Y-89444285D01*
X104331785Y-89215714D01*
X104331785Y-88930000D01*
X104274642Y-88701428D01*
X104217500Y-88587142D01*
X104160357Y-88530000D01*
X104046071Y-88472857D01*
D11*
X118246666Y-80225000D02*
X118313333Y-80291666D01*
X118513333Y-80358333D01*
X118646666Y-80358333D01*
X118846666Y-80291666D01*
X118980000Y-80158333D01*
X119046666Y-80025000D01*
X119113333Y-79758333D01*
X119113333Y-79558333D01*
X119046666Y-79291666D01*
X118980000Y-79158333D01*
X118846666Y-79025000D01*
X118646666Y-78958333D01*
X118513333Y-78958333D01*
X118313333Y-79025000D01*
X118246666Y-79091666D01*
X117646666Y-78958333D02*
X117646666Y-80091666D01*
X117580000Y-80225000D01*
X117513333Y-80291666D01*
X117380000Y-80358333D01*
X117113333Y-80358333D01*
X116980000Y-80291666D01*
X116913333Y-80225000D01*
X116846666Y-80091666D01*
X116846666Y-78958333D01*
X115713333Y-79625000D02*
X115513333Y-79691666D01*
X115446666Y-79758333D01*
X115380000Y-79891666D01*
X115380000Y-80091666D01*
X115446666Y-80225000D01*
X115513333Y-80291666D01*
X115646666Y-80358333D01*
X116180000Y-80358333D01*
X116180000Y-78958333D01*
X115713333Y-78958333D01*
X115580000Y-79025000D01*
X115513333Y-79091666D01*
X115446666Y-79225000D01*
X115446666Y-79358333D01*
X115513333Y-79491666D01*
X115580000Y-79558333D01*
X115713333Y-79625000D01*
X116180000Y-79625000D01*
X114780000Y-79625000D02*
X114313333Y-79625000D01*
X114113333Y-80358333D02*
X114780000Y-80358333D01*
X114780000Y-78958333D01*
X114113333Y-78958333D01*
X112580000Y-78958333D02*
X111646666Y-78958333D01*
X112580000Y-80358333D01*
X111646666Y-80358333D01*
X111113333Y-79625000D02*
X110646666Y-79625000D01*
X110446666Y-80358333D02*
X111113333Y-80358333D01*
X111113333Y-78958333D01*
X110446666Y-78958333D01*
X109046666Y-80358333D02*
X109513333Y-79691666D01*
X109846666Y-80358333D02*
X109846666Y-78958333D01*
X109313333Y-78958333D01*
X109180000Y-79025000D01*
X109113333Y-79091666D01*
X109046666Y-79225000D01*
X109046666Y-79425000D01*
X109113333Y-79558333D01*
X109180000Y-79625000D01*
X109313333Y-79691666D01*
X109846666Y-79691666D01*
X108180000Y-78958333D02*
X107913333Y-78958333D01*
X107780000Y-79025000D01*
X107646666Y-79158333D01*
X107580000Y-79425000D01*
X107580000Y-79891666D01*
X107646666Y-80158333D01*
X107780000Y-80291666D01*
X107913333Y-80358333D01*
X108180000Y-80358333D01*
X108313333Y-80291666D01*
X108446666Y-80158333D01*
X108513333Y-79891666D01*
X108513333Y-79425000D01*
X108446666Y-79158333D01*
X108313333Y-79025000D01*
X108180000Y-78958333D01*
X119246666Y-81258333D02*
X118446666Y-81258333D01*
X118846666Y-82658333D02*
X118846666Y-81258333D01*
X117713333Y-81258333D02*
X117446666Y-81258333D01*
X117313333Y-81325000D01*
X117180000Y-81458333D01*
X117113333Y-81725000D01*
X117113333Y-82191666D01*
X117180000Y-82458333D01*
X117313333Y-82591666D01*
X117446666Y-82658333D01*
X117713333Y-82658333D01*
X117846666Y-82591666D01*
X117980000Y-82458333D01*
X118046666Y-82191666D01*
X118046666Y-81725000D01*
X117980000Y-81458333D01*
X117846666Y-81325000D01*
X117713333Y-81258333D01*
X116246666Y-81258333D02*
X115980000Y-81258333D01*
X115846666Y-81325000D01*
X115713333Y-81458333D01*
X115646666Y-81725000D01*
X115646666Y-82191666D01*
X115713333Y-82458333D01*
X115846666Y-82591666D01*
X115980000Y-82658333D01*
X116246666Y-82658333D01*
X116380000Y-82591666D01*
X116513333Y-82458333D01*
X116580000Y-82191666D01*
X116580000Y-81725000D01*
X116513333Y-81458333D01*
X116380000Y-81325000D01*
X116246666Y-81258333D01*
X114380000Y-82658333D02*
X115046666Y-82658333D01*
X115046666Y-81258333D01*
X112913333Y-82591666D02*
X112713333Y-82658333D01*
X112380000Y-82658333D01*
X112246666Y-82591666D01*
X112180000Y-82525000D01*
X112113333Y-82391666D01*
X112113333Y-82258333D01*
X112180000Y-82125000D01*
X112246666Y-82058333D01*
X112380000Y-81991666D01*
X112646666Y-81925000D01*
X112780000Y-81858333D01*
X112846666Y-81791666D01*
X112913333Y-81658333D01*
X112913333Y-81525000D01*
X112846666Y-81391666D01*
X112780000Y-81325000D01*
X112646666Y-81258333D01*
X112313333Y-81258333D01*
X112113333Y-81325000D01*
X111646666Y-81258333D02*
X111313333Y-82658333D01*
X111046666Y-81658333D01*
X110780000Y-82658333D01*
X110446666Y-81258333D01*
X109913333Y-82658333D02*
X109913333Y-81258333D01*
X109446666Y-81258333D02*
X108646666Y-81258333D01*
X109046666Y-82658333D02*
X109046666Y-81258333D01*
X107380000Y-82525000D02*
X107446666Y-82591666D01*
X107646666Y-82658333D01*
X107780000Y-82658333D01*
X107980000Y-82591666D01*
X108113333Y-82458333D01*
X108180000Y-82325000D01*
X108246666Y-82058333D01*
X108246666Y-81858333D01*
X108180000Y-81591666D01*
X108113333Y-81458333D01*
X107980000Y-81325000D01*
X107780000Y-81258333D01*
X107646666Y-81258333D01*
X107446666Y-81325000D01*
X107380000Y-81391666D01*
X106780000Y-82658333D02*
X106780000Y-81258333D01*
X106780000Y-81925000D02*
X105980000Y-81925000D01*
X105980000Y-82658333D02*
X105980000Y-81258333D01*
X105313333Y-81925000D02*
X104846666Y-81925000D01*
X104646666Y-82658333D02*
X105313333Y-82658333D01*
X105313333Y-81258333D01*
X104646666Y-81258333D01*
X103246666Y-82658333D02*
X103713333Y-81991666D01*
X104046666Y-82658333D02*
X104046666Y-81258333D01*
X103513333Y-81258333D01*
X103380000Y-81325000D01*
X103313333Y-81391666D01*
X103246666Y-81525000D01*
X103246666Y-81725000D01*
X103313333Y-81858333D01*
X103380000Y-81925000D01*
X103513333Y-81991666D01*
X104046666Y-81991666D01*
D10*
X175004523Y-97682761D02*
X173861666Y-97682761D01*
X174433095Y-99682761D02*
X174433095Y-97682761D01*
X172814047Y-97682761D02*
X172433095Y-97682761D01*
X172242619Y-97778000D01*
X172052142Y-97968476D01*
X171956904Y-98349428D01*
X171956904Y-99016095D01*
X172052142Y-99397047D01*
X172242619Y-99587523D01*
X172433095Y-99682761D01*
X172814047Y-99682761D01*
X173004523Y-99587523D01*
X173195000Y-99397047D01*
X173290238Y-99016095D01*
X173290238Y-98349428D01*
X173195000Y-97968476D01*
X173004523Y-97778000D01*
X172814047Y-97682761D01*
X170718809Y-97682761D02*
X170337857Y-97682761D01*
X170147380Y-97778000D01*
X169956904Y-97968476D01*
X169861666Y-98349428D01*
X169861666Y-99016095D01*
X169956904Y-99397047D01*
X170147380Y-99587523D01*
X170337857Y-99682761D01*
X170718809Y-99682761D01*
X170909285Y-99587523D01*
X171099761Y-99397047D01*
X171195000Y-99016095D01*
X171195000Y-98349428D01*
X171099761Y-97968476D01*
X170909285Y-97778000D01*
X170718809Y-97682761D01*
X168052142Y-99682761D02*
X169004523Y-99682761D01*
X169004523Y-97682761D01*
X165956904Y-99587523D02*
X165671190Y-99682761D01*
X165195000Y-99682761D01*
X165004523Y-99587523D01*
X164909285Y-99492285D01*
X164814047Y-99301809D01*
X164814047Y-99111333D01*
X164909285Y-98920857D01*
X165004523Y-98825619D01*
X165195000Y-98730380D01*
X165575952Y-98635142D01*
X165766428Y-98539904D01*
X165861666Y-98444666D01*
X165956904Y-98254190D01*
X165956904Y-98063714D01*
X165861666Y-97873238D01*
X165766428Y-97778000D01*
X165575952Y-97682761D01*
X165099761Y-97682761D01*
X164814047Y-97778000D01*
X164147380Y-97682761D02*
X163671190Y-99682761D01*
X163290238Y-98254190D01*
X162909285Y-99682761D01*
X162433095Y-97682761D01*
X161671190Y-99682761D02*
X161671190Y-97682761D01*
X161004523Y-97682761D02*
X159861666Y-97682761D01*
X160433095Y-99682761D02*
X160433095Y-97682761D01*
X158052142Y-99492285D02*
X158147380Y-99587523D01*
X158433095Y-99682761D01*
X158623571Y-99682761D01*
X158909285Y-99587523D01*
X159099761Y-99397047D01*
X159195000Y-99206571D01*
X159290238Y-98825619D01*
X159290238Y-98539904D01*
X159195000Y-98158952D01*
X159099761Y-97968476D01*
X158909285Y-97778000D01*
X158623571Y-97682761D01*
X158433095Y-97682761D01*
X158147380Y-97778000D01*
X158052142Y-97873238D01*
X157195000Y-99682761D02*
X157195000Y-97682761D01*
X157195000Y-98635142D02*
X156052142Y-98635142D01*
X156052142Y-99682761D02*
X156052142Y-97682761D01*
X155099761Y-98635142D02*
X154433095Y-98635142D01*
X154147380Y-99682761D02*
X155099761Y-99682761D01*
X155099761Y-97682761D01*
X154147380Y-97682761D01*
X152147380Y-99682761D02*
X152814047Y-98730380D01*
X153290238Y-99682761D02*
X153290238Y-97682761D01*
X152528333Y-97682761D01*
X152337857Y-97778000D01*
X152242619Y-97873238D01*
X152147380Y-98063714D01*
X152147380Y-98349428D01*
X152242619Y-98539904D01*
X152337857Y-98635142D01*
X152528333Y-98730380D01*
X153290238Y-98730380D01*
X173575952Y-102792285D02*
X173671190Y-102887523D01*
X173956904Y-102982761D01*
X174147380Y-102982761D01*
X174433095Y-102887523D01*
X174623571Y-102697047D01*
X174718809Y-102506571D01*
X174814047Y-102125619D01*
X174814047Y-101839904D01*
X174718809Y-101458952D01*
X174623571Y-101268476D01*
X174433095Y-101078000D01*
X174147380Y-100982761D01*
X173956904Y-100982761D01*
X173671190Y-101078000D01*
X173575952Y-101173238D01*
X172814047Y-102411333D02*
X171861666Y-102411333D01*
X173004523Y-102982761D02*
X172337857Y-100982761D01*
X171671190Y-102982761D01*
X169861666Y-102982761D02*
X170528333Y-102030380D01*
X171004523Y-102982761D02*
X171004523Y-100982761D01*
X170242619Y-100982761D01*
X170052142Y-101078000D01*
X169956904Y-101173238D01*
X169861666Y-101363714D01*
X169861666Y-101649428D01*
X169956904Y-101839904D01*
X170052142Y-101935142D01*
X170242619Y-102030380D01*
X171004523Y-102030380D01*
X167861666Y-102982761D02*
X168528333Y-102030380D01*
X169004523Y-102982761D02*
X169004523Y-100982761D01*
X168242619Y-100982761D01*
X168052142Y-101078000D01*
X167956904Y-101173238D01*
X167861666Y-101363714D01*
X167861666Y-101649428D01*
X167956904Y-101839904D01*
X168052142Y-101935142D01*
X168242619Y-102030380D01*
X169004523Y-102030380D01*
X167004523Y-102982761D02*
X167004523Y-100982761D01*
X166147380Y-102411333D02*
X165195000Y-102411333D01*
X166337857Y-102982761D02*
X165671190Y-100982761D01*
X165004523Y-102982761D01*
X163290238Y-101078000D02*
X163480714Y-100982761D01*
X163766428Y-100982761D01*
X164052142Y-101078000D01*
X164242619Y-101268476D01*
X164337857Y-101458952D01*
X164433095Y-101839904D01*
X164433095Y-102125619D01*
X164337857Y-102506571D01*
X164242619Y-102697047D01*
X164052142Y-102887523D01*
X163766428Y-102982761D01*
X163575952Y-102982761D01*
X163290238Y-102887523D01*
X163195000Y-102792285D01*
X163195000Y-102125619D01*
X163575952Y-102125619D01*
X162337857Y-101935142D02*
X161671190Y-101935142D01*
X161385476Y-102982761D02*
X162337857Y-102982761D01*
X162337857Y-100982761D01*
X161385476Y-100982761D01*
X158337857Y-101935142D02*
X158052142Y-102030380D01*
X157956904Y-102125619D01*
X157861666Y-102316095D01*
X157861666Y-102601809D01*
X157956904Y-102792285D01*
X158052142Y-102887523D01*
X158242619Y-102982761D01*
X159004523Y-102982761D01*
X159004523Y-100982761D01*
X158337857Y-100982761D01*
X158147380Y-101078000D01*
X158052142Y-101173238D01*
X157956904Y-101363714D01*
X157956904Y-101554190D01*
X158052142Y-101744666D01*
X158147380Y-101839904D01*
X158337857Y-101935142D01*
X159004523Y-101935142D01*
X156623571Y-100982761D02*
X156242619Y-100982761D01*
X156052142Y-101078000D01*
X155861666Y-101268476D01*
X155766428Y-101649428D01*
X155766428Y-102316095D01*
X155861666Y-102697047D01*
X156052142Y-102887523D01*
X156242619Y-102982761D01*
X156623571Y-102982761D01*
X156814047Y-102887523D01*
X157004523Y-102697047D01*
X157099761Y-102316095D01*
X157099761Y-101649428D01*
X157004523Y-101268476D01*
X156814047Y-101078000D01*
X156623571Y-100982761D01*
X155004523Y-102411333D02*
X154052142Y-102411333D01*
X155195000Y-102982761D02*
X154528333Y-100982761D01*
X153861666Y-102982761D01*
X152052142Y-102982761D02*
X152718809Y-102030380D01*
X153195000Y-102982761D02*
X153195000Y-100982761D01*
X152433095Y-100982761D01*
X152242619Y-101078000D01*
X152147380Y-101173238D01*
X152052142Y-101363714D01*
X152052142Y-101649428D01*
X152147380Y-101839904D01*
X152242619Y-101935142D01*
X152433095Y-102030380D01*
X153195000Y-102030380D01*
X151195000Y-102982761D02*
X151195000Y-100982761D01*
X150718809Y-100982761D01*
X150433095Y-101078000D01*
X150242619Y-101268476D01*
X150147380Y-101458952D01*
X150052142Y-101839904D01*
X150052142Y-102125619D01*
X150147380Y-102506571D01*
X150242619Y-102697047D01*
X150433095Y-102887523D01*
X150718809Y-102982761D01*
X151195000Y-102982761D01*
X147766428Y-102411333D02*
X146814047Y-102411333D01*
X147956904Y-102982761D02*
X147290238Y-100982761D01*
X146623571Y-102982761D01*
D11*
X173304285Y-86674285D02*
X173704285Y-86674285D01*
X173704285Y-87302857D02*
X173704285Y-86102857D01*
X173132857Y-86102857D01*
X172161428Y-86502857D02*
X172161428Y-87302857D01*
X172675714Y-86502857D02*
X172675714Y-87131428D01*
X172618571Y-87245714D01*
X172504285Y-87302857D01*
X172332857Y-87302857D01*
X172218571Y-87245714D01*
X172161428Y-87188571D01*
X171418571Y-87302857D02*
X171532857Y-87245714D01*
X171590000Y-87131428D01*
X171590000Y-86102857D01*
X170790000Y-87302857D02*
X170904285Y-87245714D01*
X170961428Y-87131428D01*
X170961428Y-86102857D01*
X168904285Y-87302857D02*
X168904285Y-86102857D01*
X168904285Y-87245714D02*
X169018571Y-87302857D01*
X169247142Y-87302857D01*
X169361428Y-87245714D01*
X169418571Y-87188571D01*
X169475714Y-87074285D01*
X169475714Y-86731428D01*
X169418571Y-86617142D01*
X169361428Y-86560000D01*
X169247142Y-86502857D01*
X169018571Y-86502857D01*
X168904285Y-86560000D01*
X168161428Y-87302857D02*
X168275714Y-87245714D01*
X168332857Y-87188571D01*
X168390000Y-87074285D01*
X168390000Y-86731428D01*
X168332857Y-86617142D01*
X168275714Y-86560000D01*
X168161428Y-86502857D01*
X167990000Y-86502857D01*
X167875714Y-86560000D01*
X167818571Y-86617142D01*
X167761428Y-86731428D01*
X167761428Y-87074285D01*
X167818571Y-87188571D01*
X167875714Y-87245714D01*
X167990000Y-87302857D01*
X168161428Y-87302857D01*
X166732857Y-87245714D02*
X166847142Y-87302857D01*
X167075714Y-87302857D01*
X167190000Y-87245714D01*
X167247142Y-87188571D01*
X167304285Y-87074285D01*
X167304285Y-86731428D01*
X167247142Y-86617142D01*
X167190000Y-86560000D01*
X167075714Y-86502857D01*
X166847142Y-86502857D01*
X166732857Y-86560000D01*
X165704285Y-86502857D02*
X165704285Y-87302857D01*
X166218571Y-86502857D02*
X166218571Y-87131428D01*
X166161428Y-87245714D01*
X166047142Y-87302857D01*
X165875714Y-87302857D01*
X165761428Y-87245714D01*
X165704285Y-87188571D01*
X165132857Y-87302857D02*
X165132857Y-86502857D01*
X165132857Y-86617142D02*
X165075714Y-86560000D01*
X164961428Y-86502857D01*
X164790000Y-86502857D01*
X164675714Y-86560000D01*
X164618571Y-86674285D01*
X164618571Y-87302857D01*
X164618571Y-86674285D02*
X164561428Y-86560000D01*
X164447142Y-86502857D01*
X164275714Y-86502857D01*
X164161428Y-86560000D01*
X164104285Y-86674285D01*
X164104285Y-87302857D01*
X163075714Y-87245714D02*
X163190000Y-87302857D01*
X163418571Y-87302857D01*
X163532857Y-87245714D01*
X163590000Y-87131428D01*
X163590000Y-86674285D01*
X163532857Y-86560000D01*
X163418571Y-86502857D01*
X163190000Y-86502857D01*
X163075714Y-86560000D01*
X163018571Y-86674285D01*
X163018571Y-86788571D01*
X163590000Y-86902857D01*
X162504285Y-86502857D02*
X162504285Y-87302857D01*
X162504285Y-86617142D02*
X162447142Y-86560000D01*
X162332857Y-86502857D01*
X162161428Y-86502857D01*
X162047142Y-86560000D01*
X161990000Y-86674285D01*
X161990000Y-87302857D01*
X161590000Y-86502857D02*
X161132857Y-86502857D01*
X161418571Y-86102857D02*
X161418571Y-87131428D01*
X161361428Y-87245714D01*
X161247142Y-87302857D01*
X161132857Y-87302857D01*
X160218571Y-87302857D02*
X160218571Y-86674285D01*
X160275714Y-86560000D01*
X160390000Y-86502857D01*
X160618571Y-86502857D01*
X160732857Y-86560000D01*
X160218571Y-87245714D02*
X160332857Y-87302857D01*
X160618571Y-87302857D01*
X160732857Y-87245714D01*
X160790000Y-87131428D01*
X160790000Y-87017142D01*
X160732857Y-86902857D01*
X160618571Y-86845714D01*
X160332857Y-86845714D01*
X160218571Y-86788571D01*
X159818571Y-86502857D02*
X159361428Y-86502857D01*
X159647142Y-86102857D02*
X159647142Y-87131428D01*
X159590000Y-87245714D01*
X159475714Y-87302857D01*
X159361428Y-87302857D01*
X158961428Y-87302857D02*
X158961428Y-86502857D01*
X158961428Y-86102857D02*
X159018571Y-86160000D01*
X158961428Y-86217142D01*
X158904285Y-86160000D01*
X158961428Y-86102857D01*
X158961428Y-86217142D01*
X158218571Y-87302857D02*
X158332857Y-87245714D01*
X158390000Y-87188571D01*
X158447142Y-87074285D01*
X158447142Y-86731428D01*
X158390000Y-86617142D01*
X158332857Y-86560000D01*
X158218571Y-86502857D01*
X158047142Y-86502857D01*
X157932857Y-86560000D01*
X157875714Y-86617142D01*
X157818571Y-86731428D01*
X157818571Y-87074285D01*
X157875714Y-87188571D01*
X157932857Y-87245714D01*
X158047142Y-87302857D01*
X158218571Y-87302857D01*
X157304285Y-86502857D02*
X157304285Y-87302857D01*
X157304285Y-86617142D02*
X157247142Y-86560000D01*
X157132857Y-86502857D01*
X156961428Y-86502857D01*
X156847142Y-86560000D01*
X156790000Y-86674285D01*
X156790000Y-87302857D01*
X156218571Y-87188571D02*
X156161428Y-87245714D01*
X156218571Y-87302857D01*
X156275714Y-87245714D01*
X156218571Y-87188571D01*
X156218571Y-87302857D01*
X156218571Y-86560000D02*
X156161428Y-86617142D01*
X156218571Y-86674285D01*
X156275714Y-86617142D01*
X156218571Y-86560000D01*
X156218571Y-86674285D01*
X173190000Y-88502857D02*
X173190000Y-89474285D01*
X173247142Y-89588571D01*
X173304285Y-89645714D01*
X173418571Y-89702857D01*
X173590000Y-89702857D01*
X173704285Y-89645714D01*
X173190000Y-89245714D02*
X173304285Y-89302857D01*
X173532857Y-89302857D01*
X173647142Y-89245714D01*
X173704285Y-89188571D01*
X173761428Y-89074285D01*
X173761428Y-88731428D01*
X173704285Y-88617142D01*
X173647142Y-88560000D01*
X173532857Y-88502857D01*
X173304285Y-88502857D01*
X173190000Y-88560000D01*
X172618571Y-89302857D02*
X172618571Y-88502857D01*
X172618571Y-88102857D02*
X172675714Y-88160000D01*
X172618571Y-88217142D01*
X172561428Y-88160000D01*
X172618571Y-88102857D01*
X172618571Y-88217142D01*
X172218571Y-88502857D02*
X171761428Y-88502857D01*
X172047142Y-88102857D02*
X172047142Y-89131428D01*
X171990000Y-89245714D01*
X171875714Y-89302857D01*
X171761428Y-89302857D01*
X171361428Y-89302857D02*
X171361428Y-88102857D01*
X170847142Y-89302857D02*
X170847142Y-88674285D01*
X170904285Y-88560000D01*
X171018571Y-88502857D01*
X171190000Y-88502857D01*
X171304285Y-88560000D01*
X171361428Y-88617142D01*
X169761428Y-88502857D02*
X169761428Y-89302857D01*
X170275714Y-88502857D02*
X170275714Y-89131428D01*
X170218571Y-89245714D01*
X170104285Y-89302857D01*
X169932857Y-89302857D01*
X169818571Y-89245714D01*
X169761428Y-89188571D01*
X169190000Y-89302857D02*
X169190000Y-88102857D01*
X169190000Y-88560000D02*
X169075714Y-88502857D01*
X168847142Y-88502857D01*
X168732857Y-88560000D01*
X168675714Y-88617142D01*
X168618571Y-88731428D01*
X168618571Y-89074285D01*
X168675714Y-89188571D01*
X168732857Y-89245714D01*
X168847142Y-89302857D01*
X169075714Y-89302857D01*
X169190000Y-89245714D01*
X168104285Y-89188571D02*
X168047142Y-89245714D01*
X168104285Y-89302857D01*
X168161428Y-89245714D01*
X168104285Y-89188571D01*
X168104285Y-89302857D01*
X167018571Y-89245714D02*
X167132857Y-89302857D01*
X167361428Y-89302857D01*
X167475714Y-89245714D01*
X167532857Y-89188571D01*
X167590000Y-89074285D01*
X167590000Y-88731428D01*
X167532857Y-88617142D01*
X167475714Y-88560000D01*
X167361428Y-88502857D01*
X167132857Y-88502857D01*
X167018571Y-88560000D01*
X166332857Y-89302857D02*
X166447142Y-89245714D01*
X166504285Y-89188571D01*
X166561428Y-89074285D01*
X166561428Y-88731428D01*
X166504285Y-88617142D01*
X166447142Y-88560000D01*
X166332857Y-88502857D01*
X166161428Y-88502857D01*
X166047142Y-88560000D01*
X165990000Y-88617142D01*
X165932857Y-88731428D01*
X165932857Y-89074285D01*
X165990000Y-89188571D01*
X166047142Y-89245714D01*
X166161428Y-89302857D01*
X166332857Y-89302857D01*
X165418571Y-89302857D02*
X165418571Y-88502857D01*
X165418571Y-88617142D02*
X165361428Y-88560000D01*
X165247142Y-88502857D01*
X165075714Y-88502857D01*
X164961428Y-88560000D01*
X164904285Y-88674285D01*
X164904285Y-89302857D01*
X164904285Y-88674285D02*
X164847142Y-88560000D01*
X164732857Y-88502857D01*
X164561428Y-88502857D01*
X164447142Y-88560000D01*
X164390000Y-88674285D01*
X164390000Y-89302857D01*
X162047142Y-88045714D02*
X163075714Y-89588571D01*
X173704285Y-91302857D02*
X173704285Y-90502857D01*
X173704285Y-90617142D02*
X173647142Y-90560000D01*
X173532857Y-90502857D01*
X173361428Y-90502857D01*
X173247142Y-90560000D01*
X173190000Y-90674285D01*
X173190000Y-91302857D01*
X173190000Y-90674285D02*
X173132857Y-90560000D01*
X173018571Y-90502857D01*
X172847142Y-90502857D01*
X172732857Y-90560000D01*
X172675714Y-90674285D01*
X172675714Y-91302857D01*
X171590000Y-91302857D02*
X171590000Y-90674285D01*
X171647142Y-90560000D01*
X171761428Y-90502857D01*
X171990000Y-90502857D01*
X172104285Y-90560000D01*
X171590000Y-91245714D02*
X171704285Y-91302857D01*
X171990000Y-91302857D01*
X172104285Y-91245714D01*
X172161428Y-91131428D01*
X172161428Y-91017142D01*
X172104285Y-90902857D01*
X171990000Y-90845714D01*
X171704285Y-90845714D01*
X171590000Y-90788571D01*
X171018571Y-90502857D02*
X171018571Y-91302857D01*
X171018571Y-90617142D02*
X170961428Y-90560000D01*
X170847142Y-90502857D01*
X170675714Y-90502857D01*
X170561428Y-90560000D01*
X170504285Y-90674285D01*
X170504285Y-91302857D01*
X169418571Y-90502857D02*
X169418571Y-91302857D01*
X169932857Y-90502857D02*
X169932857Y-91131428D01*
X169875714Y-91245714D01*
X169761428Y-91302857D01*
X169590000Y-91302857D01*
X169475714Y-91245714D01*
X169418571Y-91188571D01*
X169018571Y-90502857D02*
X168561428Y-90502857D01*
X168847142Y-91302857D02*
X168847142Y-90274285D01*
X168790000Y-90160000D01*
X168675714Y-90102857D01*
X168561428Y-90102857D01*
X167647142Y-91302857D02*
X167647142Y-90674285D01*
X167704285Y-90560000D01*
X167818571Y-90502857D01*
X168047142Y-90502857D01*
X168161428Y-90560000D01*
X167647142Y-91245714D02*
X167761428Y-91302857D01*
X168047142Y-91302857D01*
X168161428Y-91245714D01*
X168218571Y-91131428D01*
X168218571Y-91017142D01*
X168161428Y-90902857D01*
X168047142Y-90845714D01*
X167761428Y-90845714D01*
X167647142Y-90788571D01*
X166561428Y-91245714D02*
X166675714Y-91302857D01*
X166904285Y-91302857D01*
X167018571Y-91245714D01*
X167075714Y-91188571D01*
X167132857Y-91074285D01*
X167132857Y-90731428D01*
X167075714Y-90617142D01*
X167018571Y-90560000D01*
X166904285Y-90502857D01*
X166675714Y-90502857D01*
X166561428Y-90560000D01*
X166218571Y-90502857D02*
X165761428Y-90502857D01*
X166047142Y-90102857D02*
X166047142Y-91131428D01*
X165990000Y-91245714D01*
X165875714Y-91302857D01*
X165761428Y-91302857D01*
X165190000Y-91302857D02*
X165304285Y-91245714D01*
X165361428Y-91188571D01*
X165418571Y-91074285D01*
X165418571Y-90731428D01*
X165361428Y-90617142D01*
X165304285Y-90560000D01*
X165190000Y-90502857D01*
X165018571Y-90502857D01*
X164904285Y-90560000D01*
X164847142Y-90617142D01*
X164790000Y-90731428D01*
X164790000Y-91074285D01*
X164847142Y-91188571D01*
X164904285Y-91245714D01*
X165018571Y-91302857D01*
X165190000Y-91302857D01*
X164275714Y-91302857D02*
X164275714Y-90502857D01*
X164275714Y-90731428D02*
X164218571Y-90617142D01*
X164161428Y-90560000D01*
X164047142Y-90502857D01*
X163932857Y-90502857D01*
X163647142Y-90502857D02*
X163361428Y-91302857D01*
X163075714Y-90502857D02*
X163361428Y-91302857D01*
X163475714Y-91588571D01*
X163532857Y-91645714D01*
X163647142Y-91702857D01*
X162618571Y-90845714D02*
X161704285Y-90845714D01*
X160618571Y-91302857D02*
X160618571Y-90102857D01*
X160618571Y-91245714D02*
X160732857Y-91302857D01*
X160961428Y-91302857D01*
X161075714Y-91245714D01*
X161132857Y-91188571D01*
X161190000Y-91074285D01*
X161190000Y-90731428D01*
X161132857Y-90617142D01*
X161075714Y-90560000D01*
X160961428Y-90502857D01*
X160732857Y-90502857D01*
X160618571Y-90560000D01*
X159532857Y-91302857D02*
X159532857Y-90674285D01*
X159590000Y-90560000D01*
X159704285Y-90502857D01*
X159932857Y-90502857D01*
X160047142Y-90560000D01*
X159532857Y-91245714D02*
X159647142Y-91302857D01*
X159932857Y-91302857D01*
X160047142Y-91245714D01*
X160104285Y-91131428D01*
X160104285Y-91017142D01*
X160047142Y-90902857D01*
X159932857Y-90845714D01*
X159647142Y-90845714D01*
X159532857Y-90788571D01*
X159075714Y-90502857D02*
X158790000Y-91302857D01*
X158504285Y-90502857D01*
X157590000Y-91245714D02*
X157704285Y-91302857D01*
X157932857Y-91302857D01*
X158047142Y-91245714D01*
X158104285Y-91131428D01*
X158104285Y-90674285D01*
X158047142Y-90560000D01*
X157932857Y-90502857D01*
X157704285Y-90502857D01*
X157590000Y-90560000D01*
X157532857Y-90674285D01*
X157532857Y-90788571D01*
X158104285Y-90902857D01*
X155247142Y-90045714D02*
X156275714Y-91588571D01*
X173018571Y-93188571D02*
X173075714Y-93245714D01*
X173247142Y-93302857D01*
X173361428Y-93302857D01*
X173532857Y-93245714D01*
X173647142Y-93131428D01*
X173704285Y-93017142D01*
X173761428Y-92788571D01*
X173761428Y-92617142D01*
X173704285Y-92388571D01*
X173647142Y-92274285D01*
X173532857Y-92160000D01*
X173361428Y-92102857D01*
X173247142Y-92102857D01*
X173075714Y-92160000D01*
X173018571Y-92217142D01*
X172618571Y-92102857D02*
X171818571Y-92102857D01*
X172618571Y-93302857D01*
X171818571Y-93302857D01*
X171418571Y-93245714D02*
X171247142Y-93302857D01*
X170961428Y-93302857D01*
X170847142Y-93245714D01*
X170790000Y-93188571D01*
X170732857Y-93074285D01*
X170732857Y-92960000D01*
X170790000Y-92845714D01*
X170847142Y-92788571D01*
X170961428Y-92731428D01*
X171190000Y-92674285D01*
X171304285Y-92617142D01*
X171361428Y-92560000D01*
X171418571Y-92445714D01*
X171418571Y-92331428D01*
X171361428Y-92217142D01*
X171304285Y-92160000D01*
X171190000Y-92102857D01*
X170904285Y-92102857D01*
X170732857Y-92160000D01*
X170332857Y-92502857D02*
X170104285Y-93302857D01*
X169875714Y-92731428D01*
X169647142Y-93302857D01*
X169418571Y-92502857D01*
X168961428Y-93302857D02*
X168961428Y-92502857D01*
X168961428Y-92102857D02*
X169018571Y-92160000D01*
X168961428Y-92217142D01*
X168904285Y-92160000D01*
X168961428Y-92102857D01*
X168961428Y-92217142D01*
X168561428Y-92502857D02*
X168104285Y-92502857D01*
X168390000Y-92102857D02*
X168390000Y-93131428D01*
X168332857Y-93245714D01*
X168218571Y-93302857D01*
X168104285Y-93302857D01*
X167190000Y-93245714D02*
X167304285Y-93302857D01*
X167532857Y-93302857D01*
X167647142Y-93245714D01*
X167704285Y-93188571D01*
X167761428Y-93074285D01*
X167761428Y-92731428D01*
X167704285Y-92617142D01*
X167647142Y-92560000D01*
X167532857Y-92502857D01*
X167304285Y-92502857D01*
X167190000Y-92560000D01*
X166675714Y-93302857D02*
X166675714Y-92102857D01*
X166161428Y-93302857D02*
X166161428Y-92674285D01*
X166218571Y-92560000D01*
X166332857Y-92502857D01*
X166504285Y-92502857D01*
X166618571Y-92560000D01*
X166675714Y-92617142D01*
X165132857Y-93245714D02*
X165247142Y-93302857D01*
X165475714Y-93302857D01*
X165590000Y-93245714D01*
X165647142Y-93131428D01*
X165647142Y-92674285D01*
X165590000Y-92560000D01*
X165475714Y-92502857D01*
X165247142Y-92502857D01*
X165132857Y-92560000D01*
X165075714Y-92674285D01*
X165075714Y-92788571D01*
X165647142Y-92902857D01*
X164561428Y-93302857D02*
X164561428Y-92502857D01*
X164561428Y-92731428D02*
X164504285Y-92617142D01*
X164447142Y-92560000D01*
X164332857Y-92502857D01*
X164218571Y-92502857D01*
D12*
X174321071Y-105034857D02*
X174721071Y-104463428D01*
X175006785Y-105034857D02*
X175006785Y-103834857D01*
X174549642Y-103834857D01*
X174435357Y-103892000D01*
X174378214Y-103949142D01*
X174321071Y-104063428D01*
X174321071Y-104234857D01*
X174378214Y-104349142D01*
X174435357Y-104406285D01*
X174549642Y-104463428D01*
X175006785Y-104463428D01*
X173349642Y-104977714D02*
X173463928Y-105034857D01*
X173692500Y-105034857D01*
X173806785Y-104977714D01*
X173863928Y-104863428D01*
X173863928Y-104406285D01*
X173806785Y-104292000D01*
X173692500Y-104234857D01*
X173463928Y-104234857D01*
X173349642Y-104292000D01*
X173292500Y-104406285D01*
X173292500Y-104520571D01*
X173863928Y-104634857D01*
X172892500Y-104234857D02*
X172606785Y-105034857D01*
X172321071Y-104234857D01*
X170721071Y-103834857D02*
X170606785Y-103834857D01*
X170492500Y-103892000D01*
X170435357Y-103949142D01*
X170378214Y-104063428D01*
X170321071Y-104292000D01*
X170321071Y-104577714D01*
X170378214Y-104806285D01*
X170435357Y-104920571D01*
X170492500Y-104977714D01*
X170606785Y-105034857D01*
X170721071Y-105034857D01*
X170835357Y-104977714D01*
X170892500Y-104920571D01*
X170949642Y-104806285D01*
X171006785Y-104577714D01*
X171006785Y-104292000D01*
X170949642Y-104063428D01*
X170892500Y-103949142D01*
X170835357Y-103892000D01*
X170721071Y-103834857D01*
X155194785Y-111933857D02*
X155194785Y-110733857D01*
X154909071Y-110733857D01*
X154737642Y-110791000D01*
X154623357Y-110905285D01*
X154566214Y-111019571D01*
X154509071Y-111248142D01*
X154509071Y-111419571D01*
X154566214Y-111648142D01*
X154623357Y-111762428D01*
X154737642Y-111876714D01*
X154909071Y-111933857D01*
X155194785Y-111933857D01*
X153537642Y-111876714D02*
X153651928Y-111933857D01*
X153880500Y-111933857D01*
X153994785Y-111876714D01*
X154051928Y-111762428D01*
X154051928Y-111305285D01*
X153994785Y-111191000D01*
X153880500Y-111133857D01*
X153651928Y-111133857D01*
X153537642Y-111191000D01*
X153480500Y-111305285D01*
X153480500Y-111419571D01*
X154051928Y-111533857D01*
X153023357Y-111876714D02*
X152909071Y-111933857D01*
X152680500Y-111933857D01*
X152566214Y-111876714D01*
X152509071Y-111762428D01*
X152509071Y-111705285D01*
X152566214Y-111591000D01*
X152680500Y-111533857D01*
X152851928Y-111533857D01*
X152966214Y-111476714D01*
X153023357Y-111362428D01*
X153023357Y-111305285D01*
X152966214Y-111191000D01*
X152851928Y-111133857D01*
X152680500Y-111133857D01*
X152566214Y-111191000D01*
X151994785Y-111933857D02*
X151994785Y-111133857D01*
X151994785Y-110733857D02*
X152051928Y-110791000D01*
X151994785Y-110848142D01*
X151937642Y-110791000D01*
X151994785Y-110733857D01*
X151994785Y-110848142D01*
X150909071Y-111133857D02*
X150909071Y-112105285D01*
X150966214Y-112219571D01*
X151023357Y-112276714D01*
X151137642Y-112333857D01*
X151309071Y-112333857D01*
X151423357Y-112276714D01*
X150909071Y-111876714D02*
X151023357Y-111933857D01*
X151251928Y-111933857D01*
X151366214Y-111876714D01*
X151423357Y-111819571D01*
X151480500Y-111705285D01*
X151480500Y-111362428D01*
X151423357Y-111248142D01*
X151366214Y-111191000D01*
X151251928Y-111133857D01*
X151023357Y-111133857D01*
X150909071Y-111191000D01*
X150337642Y-111133857D02*
X150337642Y-111933857D01*
X150337642Y-111248142D02*
X150280500Y-111191000D01*
X150166214Y-111133857D01*
X149994785Y-111133857D01*
X149880500Y-111191000D01*
X149823357Y-111305285D01*
X149823357Y-111933857D01*
X148794785Y-111876714D02*
X148909071Y-111933857D01*
X149137642Y-111933857D01*
X149251928Y-111876714D01*
X149309071Y-111762428D01*
X149309071Y-111305285D01*
X149251928Y-111191000D01*
X149137642Y-111133857D01*
X148909071Y-111133857D01*
X148794785Y-111191000D01*
X148737642Y-111305285D01*
X148737642Y-111419571D01*
X149309071Y-111533857D01*
X148223357Y-111933857D02*
X148223357Y-111133857D01*
X148223357Y-111362428D02*
X148166214Y-111248142D01*
X148109071Y-111191000D01*
X147994785Y-111133857D01*
X147880500Y-111133857D01*
X147480500Y-111819571D02*
X147423357Y-111876714D01*
X147480500Y-111933857D01*
X147537642Y-111876714D01*
X147480500Y-111819571D01*
X147480500Y-111933857D01*
X147480500Y-111191000D02*
X147423357Y-111248142D01*
X147480500Y-111305285D01*
X147537642Y-111248142D01*
X147480500Y-111191000D01*
X147480500Y-111305285D01*
X155194785Y-113883857D02*
X155194785Y-112683857D01*
X154909071Y-112683857D01*
X154737642Y-112741000D01*
X154623357Y-112855285D01*
X154566214Y-112969571D01*
X154509071Y-113198142D01*
X154509071Y-113369571D01*
X154566214Y-113598142D01*
X154623357Y-113712428D01*
X154737642Y-113826714D01*
X154909071Y-113883857D01*
X155194785Y-113883857D01*
X153480500Y-113883857D02*
X153480500Y-113255285D01*
X153537642Y-113141000D01*
X153651928Y-113083857D01*
X153880500Y-113083857D01*
X153994785Y-113141000D01*
X153480500Y-113826714D02*
X153594785Y-113883857D01*
X153880500Y-113883857D01*
X153994785Y-113826714D01*
X154051928Y-113712428D01*
X154051928Y-113598142D01*
X153994785Y-113483857D01*
X153880500Y-113426714D01*
X153594785Y-113426714D01*
X153480500Y-113369571D01*
X153023357Y-113083857D02*
X152737642Y-113883857D01*
X152451928Y-113083857D01*
X151537642Y-113826714D02*
X151651928Y-113883857D01*
X151880500Y-113883857D01*
X151994785Y-113826714D01*
X152051928Y-113712428D01*
X152051928Y-113255285D01*
X151994785Y-113141000D01*
X151880500Y-113083857D01*
X151651928Y-113083857D01*
X151537642Y-113141000D01*
X151480500Y-113255285D01*
X151480500Y-113369571D01*
X152051928Y-113483857D01*
X150051928Y-113883857D02*
X150051928Y-112683857D01*
X149651928Y-113541000D01*
X149251928Y-112683857D01*
X149251928Y-113883857D01*
X148680500Y-113883857D02*
X148680500Y-113083857D01*
X148680500Y-112683857D02*
X148737642Y-112741000D01*
X148680500Y-112798142D01*
X148623357Y-112741000D01*
X148680500Y-112683857D01*
X148680500Y-112798142D01*
X147937642Y-113883857D02*
X148051928Y-113826714D01*
X148109071Y-113712428D01*
X148109071Y-112683857D01*
X147309071Y-113883857D02*
X147423357Y-113826714D01*
X147480500Y-113712428D01*
X147480500Y-112683857D01*
X146394785Y-113826714D02*
X146509071Y-113883857D01*
X146737642Y-113883857D01*
X146851928Y-113826714D01*
X146909071Y-113712428D01*
X146909071Y-113255285D01*
X146851928Y-113141000D01*
X146737642Y-113083857D01*
X146509071Y-113083857D01*
X146394785Y-113141000D01*
X146337642Y-113255285D01*
X146337642Y-113369571D01*
X146909071Y-113483857D01*
X145823357Y-113883857D02*
X145823357Y-113083857D01*
X145823357Y-113312428D02*
X145766214Y-113198142D01*
X145709071Y-113141000D01*
X145594785Y-113083857D01*
X145480500Y-113083857D01*
X159853142Y-53157380D02*
X160186476Y-52681190D01*
X160424571Y-53157380D02*
X160424571Y-52157380D01*
X160043619Y-52157380D01*
X159948380Y-52205000D01*
X159900761Y-52252619D01*
X159853142Y-52347857D01*
X159853142Y-52490714D01*
X159900761Y-52585952D01*
X159948380Y-52633571D01*
X160043619Y-52681190D01*
X160424571Y-52681190D01*
X159043619Y-53109761D02*
X159138857Y-53157380D01*
X159329333Y-53157380D01*
X159424571Y-53109761D01*
X159472190Y-53014523D01*
X159472190Y-52633571D01*
X159424571Y-52538333D01*
X159329333Y-52490714D01*
X159138857Y-52490714D01*
X159043619Y-52538333D01*
X158996000Y-52633571D01*
X158996000Y-52728809D01*
X159472190Y-52824047D01*
X158662666Y-52490714D02*
X158424571Y-53157380D01*
X158186476Y-52490714D01*
X156853142Y-52157380D02*
X156757904Y-52157380D01*
X156662666Y-52205000D01*
X156615047Y-52252619D01*
X156567428Y-52347857D01*
X156519809Y-52538333D01*
X156519809Y-52776428D01*
X156567428Y-52966904D01*
X156615047Y-53062142D01*
X156662666Y-53109761D01*
X156757904Y-53157380D01*
X156853142Y-53157380D01*
X156948380Y-53109761D01*
X156996000Y-53062142D01*
X157043619Y-52966904D01*
X157091238Y-52776428D01*
X157091238Y-52538333D01*
X157043619Y-52347857D01*
X156996000Y-52252619D01*
X156948380Y-52205000D01*
X156853142Y-52157380D01*
D11*
X174876142Y-50634571D02*
X175733285Y-50634571D01*
X175304714Y-50634571D02*
X175304714Y-49134571D01*
X175447571Y-49348857D01*
X175590428Y-49491714D01*
X175733285Y-49563142D01*
X174304714Y-49277428D02*
X174233285Y-49206000D01*
X174090428Y-49134571D01*
X173733285Y-49134571D01*
X173590428Y-49206000D01*
X173519000Y-49277428D01*
X173447571Y-49420285D01*
X173447571Y-49563142D01*
X173519000Y-49777428D01*
X174376142Y-50634571D01*
X173447571Y-50634571D01*
X173019000Y-49134571D02*
X172519000Y-50634571D01*
X172019000Y-49134571D01*
X169876142Y-49848857D02*
X170376142Y-49848857D01*
X170376142Y-50634571D02*
X170376142Y-49134571D01*
X169661857Y-49134571D01*
X169161857Y-50206000D02*
X168447571Y-50206000D01*
X169304714Y-50634571D02*
X168804714Y-49134571D01*
X168304714Y-50634571D01*
X167804714Y-50634571D02*
X167804714Y-49134571D01*
X166947571Y-50634571D01*
X166947571Y-49134571D01*
X165161857Y-50563142D02*
X164947571Y-50634571D01*
X164590428Y-50634571D01*
X164447571Y-50563142D01*
X164376142Y-50491714D01*
X164304714Y-50348857D01*
X164304714Y-50206000D01*
X164376142Y-50063142D01*
X164447571Y-49991714D01*
X164590428Y-49920285D01*
X164876142Y-49848857D01*
X165019000Y-49777428D01*
X165090428Y-49706000D01*
X165161857Y-49563142D01*
X165161857Y-49420285D01*
X165090428Y-49277428D01*
X165019000Y-49206000D01*
X164876142Y-49134571D01*
X164519000Y-49134571D01*
X164304714Y-49206000D01*
X163876142Y-49134571D02*
X163019000Y-49134571D01*
X163447571Y-50634571D02*
X163447571Y-49134571D01*
X162519000Y-49848857D02*
X162019000Y-49848857D01*
X161804714Y-50634571D02*
X162519000Y-50634571D01*
X162519000Y-49134571D01*
X161804714Y-49134571D01*
X161161857Y-50634571D02*
X161161857Y-49134571D01*
X160590428Y-49134571D01*
X160447571Y-49206000D01*
X160376142Y-49277428D01*
X160304714Y-49420285D01*
X160304714Y-49634571D01*
X160376142Y-49777428D01*
X160447571Y-49848857D01*
X160590428Y-49920285D01*
X161161857Y-49920285D01*
X175661857Y-53084571D02*
X175661857Y-51584571D01*
X175304714Y-51584571D01*
X175090428Y-51656000D01*
X174947571Y-51798857D01*
X174876142Y-51941714D01*
X174804714Y-52227428D01*
X174804714Y-52441714D01*
X174876142Y-52727428D01*
X174947571Y-52870285D01*
X175090428Y-53013142D01*
X175304714Y-53084571D01*
X175661857Y-53084571D01*
X173876142Y-51584571D02*
X173590428Y-51584571D01*
X173447571Y-51656000D01*
X173304714Y-51798857D01*
X173233285Y-52084571D01*
X173233285Y-52584571D01*
X173304714Y-52870285D01*
X173447571Y-53013142D01*
X173590428Y-53084571D01*
X173876142Y-53084571D01*
X174019000Y-53013142D01*
X174161857Y-52870285D01*
X174233285Y-52584571D01*
X174233285Y-52084571D01*
X174161857Y-51798857D01*
X174019000Y-51656000D01*
X173876142Y-51584571D01*
X172733285Y-51584571D02*
X172376142Y-53084571D01*
X172090428Y-52013142D01*
X171804714Y-53084571D01*
X171447571Y-51584571D01*
X170876142Y-53084571D02*
X170876142Y-51584571D01*
X170019000Y-53084571D01*
X170019000Y-51584571D01*
X167661857Y-52298857D02*
X167447571Y-52370285D01*
X167376142Y-52441714D01*
X167304714Y-52584571D01*
X167304714Y-52798857D01*
X167376142Y-52941714D01*
X167447571Y-53013142D01*
X167590428Y-53084571D01*
X168161857Y-53084571D01*
X168161857Y-51584571D01*
X167661857Y-51584571D01*
X167519000Y-51656000D01*
X167447571Y-51727428D01*
X167376142Y-51870285D01*
X167376142Y-52013142D01*
X167447571Y-52156000D01*
X167519000Y-52227428D01*
X167661857Y-52298857D01*
X168161857Y-52298857D01*
X166376142Y-51584571D02*
X166090428Y-51584571D01*
X165947571Y-51656000D01*
X165804714Y-51798857D01*
X165733285Y-52084571D01*
X165733285Y-52584571D01*
X165804714Y-52870285D01*
X165947571Y-53013142D01*
X166090428Y-53084571D01*
X166376142Y-53084571D01*
X166519000Y-53013142D01*
X166661857Y-52870285D01*
X166733285Y-52584571D01*
X166733285Y-52084571D01*
X166661857Y-51798857D01*
X166519000Y-51656000D01*
X166376142Y-51584571D01*
X165161857Y-52656000D02*
X164447571Y-52656000D01*
X165304714Y-53084571D02*
X164804714Y-51584571D01*
X164304714Y-53084571D01*
X162947571Y-53084571D02*
X163447571Y-52370285D01*
X163804714Y-53084571D02*
X163804714Y-51584571D01*
X163233285Y-51584571D01*
X163090428Y-51656000D01*
X163019000Y-51727428D01*
X162947571Y-51870285D01*
X162947571Y-52084571D01*
X163019000Y-52227428D01*
X163090428Y-52298857D01*
X163233285Y-52370285D01*
X163804714Y-52370285D01*
X162304714Y-53084571D02*
X162304714Y-51584571D01*
X161947571Y-51584571D01*
X161733285Y-51656000D01*
X161590428Y-51798857D01*
X161519000Y-51941714D01*
X161447571Y-52227428D01*
X161447571Y-52441714D01*
X161519000Y-52727428D01*
X161590428Y-52870285D01*
X161733285Y-53013142D01*
X161947571Y-53084571D01*
X162304714Y-53084571D01*
D12*
X121324742Y-32677142D02*
X121267600Y-32734285D01*
X121210457Y-32848571D01*
X121210457Y-33134285D01*
X121267600Y-33248571D01*
X121324742Y-33305714D01*
X121439028Y-33362857D01*
X121553314Y-33362857D01*
X121724742Y-33305714D01*
X122410457Y-32620000D01*
X122410457Y-33362857D01*
X121662857Y-28168571D02*
X122462857Y-28168571D01*
X121205714Y-27882857D02*
X122062857Y-27597142D01*
X122062857Y-28340000D01*
X111071657Y-27546200D02*
X111071657Y-28346200D01*
X112271657Y-27831914D01*
X112271657Y-32797628D02*
X112271657Y-33026200D01*
X112214514Y-33140485D01*
X112157371Y-33197628D01*
X111985942Y-33311914D01*
X111757371Y-33369057D01*
X111300228Y-33369057D01*
X111185942Y-33311914D01*
X111128800Y-33254771D01*
X111071657Y-33140485D01*
X111071657Y-32911914D01*
X111128800Y-32797628D01*
X111185942Y-32740485D01*
X111300228Y-32683342D01*
X111585942Y-32683342D01*
X111700228Y-32740485D01*
X111757371Y-32797628D01*
X111814514Y-32911914D01*
X111814514Y-33140485D01*
X111757371Y-33254771D01*
X111700228Y-33311914D01*
X111585942Y-33369057D01*
X108461657Y-35337628D02*
X108461657Y-34651914D01*
X108461657Y-34994771D02*
X107261657Y-34994771D01*
X107433085Y-34880485D01*
X107547371Y-34766200D01*
X107604514Y-34651914D01*
X107261657Y-36080485D02*
X107261657Y-36194771D01*
X107318800Y-36309057D01*
X107375942Y-36366200D01*
X107490228Y-36423342D01*
X107718800Y-36480485D01*
X108004514Y-36480485D01*
X108233085Y-36423342D01*
X108347371Y-36366200D01*
X108404514Y-36309057D01*
X108461657Y-36194771D01*
X108461657Y-36080485D01*
X108404514Y-35966200D01*
X108347371Y-35909057D01*
X108233085Y-35851914D01*
X108004514Y-35794771D01*
X107718800Y-35794771D01*
X107490228Y-35851914D01*
X107375942Y-35909057D01*
X107318800Y-35966200D01*
X107261657Y-36080485D01*
X107775942Y-30371914D02*
X107718800Y-30257628D01*
X107661657Y-30200485D01*
X107547371Y-30143342D01*
X107490228Y-30143342D01*
X107375942Y-30200485D01*
X107318800Y-30257628D01*
X107261657Y-30371914D01*
X107261657Y-30600485D01*
X107318800Y-30714771D01*
X107375942Y-30771914D01*
X107490228Y-30829057D01*
X107547371Y-30829057D01*
X107661657Y-30771914D01*
X107718800Y-30714771D01*
X107775942Y-30600485D01*
X107775942Y-30371914D01*
X107833085Y-30257628D01*
X107890228Y-30200485D01*
X108004514Y-30143342D01*
X108233085Y-30143342D01*
X108347371Y-30200485D01*
X108404514Y-30257628D01*
X108461657Y-30371914D01*
X108461657Y-30600485D01*
X108404514Y-30714771D01*
X108347371Y-30771914D01*
X108233085Y-30829057D01*
X108004514Y-30829057D01*
X107890228Y-30771914D01*
X107833085Y-30714771D01*
X107775942Y-30600485D01*
X107261657Y-25634771D02*
X107261657Y-25406200D01*
X107318800Y-25291914D01*
X107375942Y-25234771D01*
X107547371Y-25120485D01*
X107775942Y-25063342D01*
X108233085Y-25063342D01*
X108347371Y-25120485D01*
X108404514Y-25177628D01*
X108461657Y-25291914D01*
X108461657Y-25520485D01*
X108404514Y-25634771D01*
X108347371Y-25691914D01*
X108233085Y-25749057D01*
X107947371Y-25749057D01*
X107833085Y-25691914D01*
X107775942Y-25634771D01*
X107718800Y-25520485D01*
X107718800Y-25291914D01*
X107775942Y-25177628D01*
X107833085Y-25120485D01*
X107947371Y-25063342D01*
X117400457Y-25685714D02*
X117400457Y-25114285D01*
X117971885Y-25057142D01*
X117914742Y-25114285D01*
X117857600Y-25228571D01*
X117857600Y-25514285D01*
X117914742Y-25628571D01*
X117971885Y-25685714D01*
X118086171Y-25742857D01*
X118371885Y-25742857D01*
X118486171Y-25685714D01*
X118543314Y-25628571D01*
X118600457Y-25514285D01*
X118600457Y-25228571D01*
X118543314Y-25114285D01*
X118486171Y-25057142D01*
X117400457Y-30083000D02*
X117400457Y-30825857D01*
X117857600Y-30425857D01*
X117857600Y-30597285D01*
X117914742Y-30711571D01*
X117971885Y-30768714D01*
X118086171Y-30825857D01*
X118371885Y-30825857D01*
X118486171Y-30768714D01*
X118543314Y-30711571D01*
X118600457Y-30597285D01*
X118600457Y-30254428D01*
X118543314Y-30140142D01*
X118486171Y-30083000D01*
X118600457Y-35902857D02*
X118600457Y-35217142D01*
X118600457Y-35560000D02*
X117400457Y-35560000D01*
X117571885Y-35445714D01*
X117686171Y-35331428D01*
X117743314Y-35217142D01*
D11*
%TO.C,J13*%
X95292678Y-104312700D02*
X90792678Y-96518472D01*
X101265625Y-103058149D02*
X99706779Y-103958149D01*
X101265625Y-103058149D02*
X100515625Y-101759110D01*
X100515625Y-101759110D02*
X102680688Y-100509110D01*
X102130688Y-99556483D02*
X102680688Y-100509110D01*
X101264663Y-100056483D02*
X102130688Y-99556483D01*
X101264663Y-100056483D02*
X101064663Y-99710072D01*
X100064663Y-97978022D02*
X99864663Y-97631611D01*
X98864663Y-95899561D02*
X98664663Y-95553150D01*
X97464663Y-93474689D02*
X98330688Y-92974689D01*
X97664663Y-93821100D02*
X97464663Y-93474689D01*
X95615625Y-93272062D02*
X94865625Y-91973023D01*
X94865625Y-91973023D02*
X93306779Y-92873023D01*
X97780688Y-92022062D02*
X98330688Y-92974689D01*
X95615625Y-93272062D02*
X97780688Y-92022062D01*
%TO.C,J12*%
X89196999Y-88683136D02*
X89196999Y-79683136D01*
X94996999Y-90583136D02*
X93196999Y-90583136D01*
X94996999Y-90583136D02*
X94996999Y-89083136D01*
X94996999Y-89083136D02*
X97496999Y-89083136D01*
X97496999Y-87983136D02*
X97496999Y-89083136D01*
X96496999Y-87983136D02*
X97496999Y-87983136D01*
X96496999Y-87983136D02*
X96496999Y-87583136D01*
X96496999Y-85583136D02*
X96496999Y-85183136D01*
X96496999Y-83183136D02*
X96496999Y-82783136D01*
X96496999Y-80383136D02*
X97496999Y-80383136D01*
X96496999Y-80783136D02*
X96496999Y-80383136D01*
X94996999Y-79283136D02*
X94996999Y-77783136D01*
X94996999Y-77783136D02*
X93196999Y-77783136D01*
X97496999Y-79283136D02*
X97496999Y-80383136D01*
X94996999Y-79283136D02*
X97496999Y-79283136D01*
D13*
%TO.C,R3*%
X160755000Y-41047936D02*
X160755000Y-41502064D01*
X159285000Y-41047936D02*
X159285000Y-41502064D01*
%TO.C,R6*%
X169645000Y-44857936D02*
X169645000Y-45312064D01*
X168175000Y-44857936D02*
X168175000Y-45312064D01*
%TO.C,R5*%
X169645000Y-41047936D02*
X169645000Y-41502064D01*
X168175000Y-41047936D02*
X168175000Y-41502064D01*
%TO.C,R4*%
X160755000Y-44857936D02*
X160755000Y-45312064D01*
X159285000Y-44857936D02*
X159285000Y-45312064D01*
%TO.C,R2*%
X151865000Y-44857936D02*
X151865000Y-45312064D01*
X150395000Y-44857936D02*
X150395000Y-45312064D01*
%TO.C,R1*%
X151865000Y-41047936D02*
X151865000Y-41502064D01*
X150395000Y-41047936D02*
X150395000Y-41502064D01*
D11*
%TO.C,Q3*%
X174725000Y-42873000D02*
X174525000Y-42873000D01*
X174525000Y-42873000D02*
X174525000Y-45773000D01*
X174525000Y-45773000D02*
X174725000Y-45773000D01*
X174725000Y-45773000D02*
X174725000Y-42873000D01*
X176275000Y-42788000D02*
X175075000Y-42788000D01*
%TO.C,Q2*%
X165581000Y-42873000D02*
X165381000Y-42873000D01*
X165381000Y-42873000D02*
X165381000Y-45773000D01*
X165381000Y-45773000D02*
X165581000Y-45773000D01*
X165581000Y-45773000D02*
X165581000Y-42873000D01*
X167131000Y-42788000D02*
X165931000Y-42788000D01*
%TO.C,Q1*%
X156437000Y-42873000D02*
X156237000Y-42873000D01*
X156237000Y-42873000D02*
X156237000Y-45773000D01*
X156237000Y-45773000D02*
X156437000Y-45773000D01*
X156437000Y-45773000D02*
X156437000Y-42873000D01*
X157987000Y-42788000D02*
X156787000Y-42788000D01*
%TO.C,ax16*%
X119355000Y-51040000D02*
G75*
G03*
X119355000Y-51040000I-50000J0D01*
G01*
D14*
X123305000Y-59490000D02*
X123305000Y-54090000D01*
X106305000Y-59490000D02*
X123305000Y-59490000D01*
X106305000Y-54090000D02*
X106305000Y-59490000D01*
%TO.C,J13*%
D12*
X97520026Y-98765344D02*
X96901437Y-99122487D01*
X96801528Y-99235155D01*
X96766669Y-99365253D01*
X96796858Y-99512780D01*
X96844477Y-99595259D01*
X96154001Y-98399319D02*
X96439715Y-98894190D01*
X96296858Y-98646755D02*
X97162884Y-98146755D01*
X97086785Y-98300662D01*
X97051925Y-98430759D01*
X97058305Y-98537048D01*
X96853360Y-97610644D02*
X96543836Y-97074533D01*
X96380588Y-97553684D01*
X96309160Y-97429966D01*
X96220301Y-97371297D01*
X96155252Y-97353867D01*
X96048964Y-97360247D01*
X95842768Y-97479295D01*
X95784099Y-97568153D01*
X95766669Y-97633202D01*
X95773049Y-97739490D01*
X95915906Y-97986926D01*
X96004764Y-98045595D01*
X96069813Y-98063025D01*
%TO.C,J12*%
X92804379Y-83373612D02*
X93518665Y-83373612D01*
X93661522Y-83325993D01*
X93756760Y-83230755D01*
X93804379Y-83087897D01*
X93804379Y-82992659D01*
X93804379Y-84373612D02*
X93804379Y-83802183D01*
X93804379Y-84087897D02*
X92804379Y-84087897D01*
X92947237Y-83992659D01*
X93042475Y-83897421D01*
X93090094Y-83802183D01*
X92899618Y-84754564D02*
X92851999Y-84802183D01*
X92804379Y-84897421D01*
X92804379Y-85135516D01*
X92851999Y-85230755D01*
X92899618Y-85278374D01*
X92994856Y-85325993D01*
X93090094Y-85325993D01*
X93232951Y-85278374D01*
X93804379Y-84706945D01*
X93804379Y-85325993D01*
%TO.C,R3*%
X160186666Y-39187380D02*
X160520000Y-38711190D01*
X160758095Y-39187380D02*
X160758095Y-38187380D01*
X160377142Y-38187380D01*
X160281904Y-38235000D01*
X160234285Y-38282619D01*
X160186666Y-38377857D01*
X160186666Y-38520714D01*
X160234285Y-38615952D01*
X160281904Y-38663571D01*
X160377142Y-38711190D01*
X160758095Y-38711190D01*
X159853333Y-38187380D02*
X159234285Y-38187380D01*
X159567619Y-38568333D01*
X159424761Y-38568333D01*
X159329523Y-38615952D01*
X159281904Y-38663571D01*
X159234285Y-38758809D01*
X159234285Y-38996904D01*
X159281904Y-39092142D01*
X159329523Y-39139761D01*
X159424761Y-39187380D01*
X159710476Y-39187380D01*
X159805714Y-39139761D01*
X159853333Y-39092142D01*
%TO.C,R6*%
X169076666Y-48077380D02*
X169410000Y-47601190D01*
X169648095Y-48077380D02*
X169648095Y-47077380D01*
X169267142Y-47077380D01*
X169171904Y-47125000D01*
X169124285Y-47172619D01*
X169076666Y-47267857D01*
X169076666Y-47410714D01*
X169124285Y-47505952D01*
X169171904Y-47553571D01*
X169267142Y-47601190D01*
X169648095Y-47601190D01*
X168219523Y-47077380D02*
X168410000Y-47077380D01*
X168505238Y-47125000D01*
X168552857Y-47172619D01*
X168648095Y-47315476D01*
X168695714Y-47505952D01*
X168695714Y-47886904D01*
X168648095Y-47982142D01*
X168600476Y-48029761D01*
X168505238Y-48077380D01*
X168314761Y-48077380D01*
X168219523Y-48029761D01*
X168171904Y-47982142D01*
X168124285Y-47886904D01*
X168124285Y-47648809D01*
X168171904Y-47553571D01*
X168219523Y-47505952D01*
X168314761Y-47458333D01*
X168505238Y-47458333D01*
X168600476Y-47505952D01*
X168648095Y-47553571D01*
X168695714Y-47648809D01*
%TO.C,R5*%
X169076666Y-39187380D02*
X169410000Y-38711190D01*
X169648095Y-39187380D02*
X169648095Y-38187380D01*
X169267142Y-38187380D01*
X169171904Y-38235000D01*
X169124285Y-38282619D01*
X169076666Y-38377857D01*
X169076666Y-38520714D01*
X169124285Y-38615952D01*
X169171904Y-38663571D01*
X169267142Y-38711190D01*
X169648095Y-38711190D01*
X168171904Y-38187380D02*
X168648095Y-38187380D01*
X168695714Y-38663571D01*
X168648095Y-38615952D01*
X168552857Y-38568333D01*
X168314761Y-38568333D01*
X168219523Y-38615952D01*
X168171904Y-38663571D01*
X168124285Y-38758809D01*
X168124285Y-38996904D01*
X168171904Y-39092142D01*
X168219523Y-39139761D01*
X168314761Y-39187380D01*
X168552857Y-39187380D01*
X168648095Y-39139761D01*
X168695714Y-39092142D01*
%TO.C,R4*%
X160186666Y-48077380D02*
X160520000Y-47601190D01*
X160758095Y-48077380D02*
X160758095Y-47077380D01*
X160377142Y-47077380D01*
X160281904Y-47125000D01*
X160234285Y-47172619D01*
X160186666Y-47267857D01*
X160186666Y-47410714D01*
X160234285Y-47505952D01*
X160281904Y-47553571D01*
X160377142Y-47601190D01*
X160758095Y-47601190D01*
X159329523Y-47410714D02*
X159329523Y-48077380D01*
X159567619Y-47029761D02*
X159805714Y-47744047D01*
X159186666Y-47744047D01*
%TO.C,R2*%
X151296666Y-48077380D02*
X151630000Y-47601190D01*
X151868095Y-48077380D02*
X151868095Y-47077380D01*
X151487142Y-47077380D01*
X151391904Y-47125000D01*
X151344285Y-47172619D01*
X151296666Y-47267857D01*
X151296666Y-47410714D01*
X151344285Y-47505952D01*
X151391904Y-47553571D01*
X151487142Y-47601190D01*
X151868095Y-47601190D01*
X150915714Y-47172619D02*
X150868095Y-47125000D01*
X150772857Y-47077380D01*
X150534761Y-47077380D01*
X150439523Y-47125000D01*
X150391904Y-47172619D01*
X150344285Y-47267857D01*
X150344285Y-47363095D01*
X150391904Y-47505952D01*
X150963333Y-48077380D01*
X150344285Y-48077380D01*
%TO.C,R1*%
X151296666Y-39187380D02*
X151630000Y-38711190D01*
X151868095Y-39187380D02*
X151868095Y-38187380D01*
X151487142Y-38187380D01*
X151391904Y-38235000D01*
X151344285Y-38282619D01*
X151296666Y-38377857D01*
X151296666Y-38520714D01*
X151344285Y-38615952D01*
X151391904Y-38663571D01*
X151487142Y-38711190D01*
X151868095Y-38711190D01*
X150344285Y-39187380D02*
X150915714Y-39187380D01*
X150630000Y-39187380D02*
X150630000Y-38187380D01*
X150725238Y-38330238D01*
X150820476Y-38425476D01*
X150915714Y-38473095D01*
%TO.C,Q3*%
X171564285Y-45107142D02*
X171678571Y-45050000D01*
X171792857Y-44935714D01*
X171964285Y-44764285D01*
X172078571Y-44707142D01*
X172192857Y-44707142D01*
X172135714Y-44992857D02*
X172250000Y-44935714D01*
X172364285Y-44821428D01*
X172421428Y-44592857D01*
X172421428Y-44192857D01*
X172364285Y-43964285D01*
X172250000Y-43850000D01*
X172135714Y-43792857D01*
X171907142Y-43792857D01*
X171792857Y-43850000D01*
X171678571Y-43964285D01*
X171621428Y-44192857D01*
X171621428Y-44592857D01*
X171678571Y-44821428D01*
X171792857Y-44935714D01*
X171907142Y-44992857D01*
X172135714Y-44992857D01*
X171221428Y-43792857D02*
X170478571Y-43792857D01*
X170878571Y-44250000D01*
X170707142Y-44250000D01*
X170592857Y-44307142D01*
X170535714Y-44364285D01*
X170478571Y-44478571D01*
X170478571Y-44764285D01*
X170535714Y-44878571D01*
X170592857Y-44935714D01*
X170707142Y-44992857D01*
X171050000Y-44992857D01*
X171164285Y-44935714D01*
X171221428Y-44878571D01*
%TO.C,Q2*%
X162674285Y-45107142D02*
X162788571Y-45050000D01*
X162902857Y-44935714D01*
X163074285Y-44764285D01*
X163188571Y-44707142D01*
X163302857Y-44707142D01*
X163245714Y-44992857D02*
X163360000Y-44935714D01*
X163474285Y-44821428D01*
X163531428Y-44592857D01*
X163531428Y-44192857D01*
X163474285Y-43964285D01*
X163360000Y-43850000D01*
X163245714Y-43792857D01*
X163017142Y-43792857D01*
X162902857Y-43850000D01*
X162788571Y-43964285D01*
X162731428Y-44192857D01*
X162731428Y-44592857D01*
X162788571Y-44821428D01*
X162902857Y-44935714D01*
X163017142Y-44992857D01*
X163245714Y-44992857D01*
X162274285Y-43907142D02*
X162217142Y-43850000D01*
X162102857Y-43792857D01*
X161817142Y-43792857D01*
X161702857Y-43850000D01*
X161645714Y-43907142D01*
X161588571Y-44021428D01*
X161588571Y-44135714D01*
X161645714Y-44307142D01*
X162331428Y-44992857D01*
X161588571Y-44992857D01*
%TO.C,Q1*%
X153403285Y-45107142D02*
X153517571Y-45050000D01*
X153631857Y-44935714D01*
X153803285Y-44764285D01*
X153917571Y-44707142D01*
X154031857Y-44707142D01*
X153974714Y-44992857D02*
X154089000Y-44935714D01*
X154203285Y-44821428D01*
X154260428Y-44592857D01*
X154260428Y-44192857D01*
X154203285Y-43964285D01*
X154089000Y-43850000D01*
X153974714Y-43792857D01*
X153746142Y-43792857D01*
X153631857Y-43850000D01*
X153517571Y-43964285D01*
X153460428Y-44192857D01*
X153460428Y-44592857D01*
X153517571Y-44821428D01*
X153631857Y-44935714D01*
X153746142Y-44992857D01*
X153974714Y-44992857D01*
X152317571Y-44992857D02*
X153003285Y-44992857D01*
X152660428Y-44992857D02*
X152660428Y-43792857D01*
X152774714Y-43964285D01*
X152889000Y-44078571D01*
X153003285Y-44135714D01*
%TO.C,ax16*%
D15*
X114109523Y-27274761D02*
X114109523Y-28121428D01*
X115379523Y-27274761D01*
X115379523Y-28121428D01*
X114714285Y-29028571D02*
X114714285Y-28605238D01*
X115379523Y-28605238D02*
X114109523Y-28605238D01*
X114109523Y-29210000D01*
X115379523Y-30359047D02*
X115379523Y-29633333D01*
X115379523Y-29996190D02*
X114109523Y-29996190D01*
X114290952Y-29875238D01*
X114411904Y-29754285D01*
X114472380Y-29633333D01*
X114895714Y-30903333D02*
X114895714Y-31870952D01*
X115379523Y-33140952D02*
X115379523Y-32415238D01*
X115379523Y-32778095D02*
X114109523Y-32778095D01*
X114290952Y-32657142D01*
X114411904Y-32536190D01*
X114472380Y-32415238D01*
X114109523Y-33927142D02*
X114109523Y-34048095D01*
X114170000Y-34169047D01*
X114230476Y-34229523D01*
X114351428Y-34290000D01*
X114593333Y-34350476D01*
X114895714Y-34350476D01*
X115137619Y-34290000D01*
X115258571Y-34229523D01*
X115319047Y-34169047D01*
X115379523Y-34048095D01*
X115379523Y-33927142D01*
X115319047Y-33806190D01*
X115258571Y-33745714D01*
X115137619Y-33685238D01*
X114895714Y-33624761D01*
X114593333Y-33624761D01*
X114351428Y-33685238D01*
X114230476Y-33745714D01*
X114170000Y-33806190D01*
X114109523Y-33927142D01*
X114895714Y-34894761D02*
X114895714Y-35862380D01*
X114109523Y-36346190D02*
X115379523Y-37192857D01*
X114109523Y-37192857D02*
X115379523Y-36346190D01*
X114109523Y-37555714D02*
X115379523Y-38402380D01*
X114109523Y-38402380D02*
X115379523Y-37555714D01*
X114895714Y-38886190D02*
X114895714Y-39853809D01*
X114109523Y-40337619D02*
X114109523Y-41184285D01*
X115379523Y-40337619D01*
X115379523Y-41184285D01*
X114109523Y-41547142D02*
X114109523Y-42393809D01*
X115379523Y-41547142D01*
X115379523Y-42393809D01*
X114895714Y-42877619D02*
X114895714Y-43845238D01*
X114109523Y-44329047D02*
X115379523Y-44631428D01*
X114472380Y-44873333D01*
X115379523Y-45115238D01*
X114109523Y-45417619D01*
X114109523Y-45720000D02*
X114109523Y-46445714D01*
X115379523Y-46082857D02*
X114109523Y-46082857D01*
D12*
X120019285Y-53242380D02*
X120590714Y-53242380D01*
X120305000Y-53242380D02*
X120305000Y-52242380D01*
X120400238Y-52385238D01*
X120495476Y-52480476D01*
X120590714Y-52528095D01*
X108995476Y-53242380D02*
X109566904Y-53242380D01*
X109281190Y-53242380D02*
X109281190Y-52242380D01*
X109376428Y-52385238D01*
X109471666Y-52480476D01*
X109566904Y-52528095D01*
X108376428Y-52242380D02*
X108281190Y-52242380D01*
X108185952Y-52290000D01*
X108138333Y-52337619D01*
X108090714Y-52432857D01*
X108043095Y-52623333D01*
X108043095Y-52861428D01*
X108090714Y-53051904D01*
X108138333Y-53147142D01*
X108185952Y-53194761D01*
X108281190Y-53242380D01*
X108376428Y-53242380D01*
X108471666Y-53194761D01*
X108519285Y-53147142D01*
X108566904Y-53051904D01*
X108614523Y-52861428D01*
X108614523Y-52623333D01*
X108566904Y-52432857D01*
X108519285Y-52337619D01*
X108471666Y-52290000D01*
X108376428Y-52242380D01*
%TD*%
%LPC*%
D10*
X175353952Y-113080285D02*
X175449190Y-113175523D01*
X175734904Y-113270761D01*
X175925380Y-113270761D01*
X176211095Y-113175523D01*
X176401571Y-112985047D01*
X176496809Y-112794571D01*
X176592047Y-112413619D01*
X176592047Y-112127904D01*
X176496809Y-111746952D01*
X176401571Y-111556476D01*
X176211095Y-111366000D01*
X175925380Y-111270761D01*
X175734904Y-111270761D01*
X175449190Y-111366000D01*
X175353952Y-111461238D01*
X174496809Y-111270761D02*
X174496809Y-112889809D01*
X174401571Y-113080285D01*
X174306333Y-113175523D01*
X174115857Y-113270761D01*
X173734904Y-113270761D01*
X173544428Y-113175523D01*
X173449190Y-113080285D01*
X173353952Y-112889809D01*
X173353952Y-111270761D01*
X171734904Y-112223142D02*
X171449190Y-112318380D01*
X171353952Y-112413619D01*
X171258714Y-112604095D01*
X171258714Y-112889809D01*
X171353952Y-113080285D01*
X171449190Y-113175523D01*
X171639666Y-113270761D01*
X172401571Y-113270761D01*
X172401571Y-111270761D01*
X171734904Y-111270761D01*
X171544428Y-111366000D01*
X171449190Y-111461238D01*
X171353952Y-111651714D01*
X171353952Y-111842190D01*
X171449190Y-112032666D01*
X171544428Y-112127904D01*
X171734904Y-112223142D01*
X172401571Y-112223142D01*
X170401571Y-112223142D02*
X169734904Y-112223142D01*
X169449190Y-113270761D02*
X170401571Y-113270761D01*
X170401571Y-111270761D01*
X169449190Y-111270761D01*
X167258714Y-111270761D02*
X165925380Y-111270761D01*
X167258714Y-113270761D01*
X165925380Y-113270761D01*
X165163476Y-112223142D02*
X164496809Y-112223142D01*
X164211095Y-113270761D02*
X165163476Y-113270761D01*
X165163476Y-111270761D01*
X164211095Y-111270761D01*
X162211095Y-113270761D02*
X162877761Y-112318380D01*
X163353952Y-113270761D02*
X163353952Y-111270761D01*
X162592047Y-111270761D01*
X162401571Y-111366000D01*
X162306333Y-111461238D01*
X162211095Y-111651714D01*
X162211095Y-111937428D01*
X162306333Y-112127904D01*
X162401571Y-112223142D01*
X162592047Y-112318380D01*
X163353952Y-112318380D01*
X160973000Y-111270761D02*
X160592047Y-111270761D01*
X160401571Y-111366000D01*
X160211095Y-111556476D01*
X160115857Y-111937428D01*
X160115857Y-112604095D01*
X160211095Y-112985047D01*
X160401571Y-113175523D01*
X160592047Y-113270761D01*
X160973000Y-113270761D01*
X161163476Y-113175523D01*
X161353952Y-112985047D01*
X161449190Y-112604095D01*
X161449190Y-111937428D01*
X161353952Y-111556476D01*
X161163476Y-111366000D01*
X160973000Y-111270761D01*
D16*
X183943333Y-46714285D02*
X184038571Y-46809523D01*
X184324285Y-46904761D01*
X184514761Y-46904761D01*
X184800476Y-46809523D01*
X184990952Y-46619047D01*
X185086190Y-46428571D01*
X185181428Y-46047619D01*
X185181428Y-45761904D01*
X185086190Y-45380952D01*
X184990952Y-45190476D01*
X184800476Y-45000000D01*
X184514761Y-44904761D01*
X184324285Y-44904761D01*
X184038571Y-45000000D01*
X183943333Y-45095238D01*
X183086190Y-44904761D02*
X183086190Y-46523809D01*
X182990952Y-46714285D01*
X182895714Y-46809523D01*
X182705238Y-46904761D01*
X182324285Y-46904761D01*
X182133809Y-46809523D01*
X182038571Y-46714285D01*
X181943333Y-46523809D01*
X181943333Y-44904761D01*
X180324285Y-45857142D02*
X180038571Y-45952380D01*
X179943333Y-46047619D01*
X179848095Y-46238095D01*
X179848095Y-46523809D01*
X179943333Y-46714285D01*
X180038571Y-46809523D01*
X180229047Y-46904761D01*
X180990952Y-46904761D01*
X180990952Y-44904761D01*
X180324285Y-44904761D01*
X180133809Y-45000000D01*
X180038571Y-45095238D01*
X179943333Y-45285714D01*
X179943333Y-45476190D01*
X180038571Y-45666666D01*
X180133809Y-45761904D01*
X180324285Y-45857142D01*
X180990952Y-45857142D01*
X178990952Y-45857142D02*
X178324285Y-45857142D01*
X178038571Y-46904761D02*
X178990952Y-46904761D01*
X178990952Y-44904761D01*
X178038571Y-44904761D01*
X185229047Y-48154761D02*
X183895714Y-48154761D01*
X185229047Y-50154761D01*
X183895714Y-50154761D01*
X183133809Y-49107142D02*
X182467142Y-49107142D01*
X182181428Y-50154761D02*
X183133809Y-50154761D01*
X183133809Y-48154761D01*
X182181428Y-48154761D01*
X180181428Y-50154761D02*
X180848095Y-49202380D01*
X181324285Y-50154761D02*
X181324285Y-48154761D01*
X180562380Y-48154761D01*
X180371904Y-48250000D01*
X180276666Y-48345238D01*
X180181428Y-48535714D01*
X180181428Y-48821428D01*
X180276666Y-49011904D01*
X180371904Y-49107142D01*
X180562380Y-49202380D01*
X181324285Y-49202380D01*
X178943333Y-48154761D02*
X178562380Y-48154761D01*
X178371904Y-48250000D01*
X178181428Y-48440476D01*
X178086190Y-48821428D01*
X178086190Y-49488095D01*
X178181428Y-49869047D01*
X178371904Y-50059523D01*
X178562380Y-50154761D01*
X178943333Y-50154761D01*
X179133809Y-50059523D01*
X179324285Y-49869047D01*
X179419523Y-49488095D01*
X179419523Y-48821428D01*
X179324285Y-48440476D01*
X179133809Y-48250000D01*
X178943333Y-48154761D01*
D17*
%TO.C,J1*%
X174155000Y-71408500D03*
X149955000Y-71408500D03*
%TD*%
%TO.C,J11*%
X117997000Y-76693136D03*
X93797000Y-76693136D03*
%TD*%
D18*
%TO.C,J0*%
X177295000Y-101161500D03*
X177295000Y-76961500D03*
%TD*%
D14*
%TO.C,J13*%
G36*
X104014053Y-97718567D02*
G01*
X100116939Y-99968567D01*
X99466939Y-98842733D01*
X103364053Y-96592733D01*
X104014053Y-97718567D01*
G37*
G36*
X102764053Y-95553503D02*
G01*
X98866939Y-97803503D01*
X98216939Y-96677669D01*
X102114053Y-94427669D01*
X102764053Y-95553503D01*
G37*
G36*
X101514053Y-93388439D02*
G01*
X97616939Y-95638439D01*
X96966939Y-94512605D01*
X100864053Y-92262605D01*
X101514053Y-93388439D01*
G37*
G36*
X99590273Y-104256354D02*
G01*
X96212773Y-106206354D01*
X95312773Y-104647508D01*
X98690273Y-102697508D01*
X99590273Y-104256354D01*
G37*
G36*
X93890273Y-94383664D02*
G01*
X90512773Y-96333664D01*
X89612773Y-94774818D01*
X92990273Y-92824818D01*
X93890273Y-94383664D01*
G37*
%TD*%
D19*
%TO.C,J12*%
X97796999Y-86683136D03*
X97796999Y-84183136D03*
X97796999Y-81683136D03*
D20*
X90996999Y-89883136D03*
X90996999Y-78483136D03*
%TD*%
D21*
%TO.C,J14*%
X109039058Y-97629771D03*
X110309058Y-95430066D03*
X111579058Y-93230362D03*
X112849058Y-91030657D03*
X114119058Y-88830953D03*
X106839353Y-96359771D03*
X108109353Y-94160066D03*
X109379353Y-91960362D03*
X110649353Y-89760657D03*
X111919353Y-87560953D03*
D14*
G36*
X112823328Y-83995223D02*
G01*
X114555378Y-84995223D01*
X113555378Y-86727273D01*
X111823328Y-85727273D01*
X112823328Y-83995223D01*
G37*
D21*
X115389058Y-86631248D03*
%TD*%
D22*
%TO.C,H8*%
X168978000Y-25023000D03*
%TD*%
D23*
%TO.C,J2*%
X136020000Y-82060000D03*
X136020000Y-79560000D03*
G36*
G01*
X135295000Y-76210000D02*
X136745000Y-76210000D01*
G75*
G02*
X136995000Y-76460000I0J-250000D01*
G01*
X136995000Y-77660000D01*
G75*
G02*
X136745000Y-77910000I-250000J0D01*
G01*
X135295000Y-77910000D01*
G75*
G02*
X135045000Y-77660000I0J250000D01*
G01*
X135045000Y-76460000D01*
G75*
G02*
X135295000Y-76210000I250000J0D01*
G01*
G37*
%TD*%
D24*
%TO.C,J6*%
X173151000Y-106651000D03*
X170651000Y-106651000D03*
G36*
G01*
X167301000Y-107376000D02*
X167301000Y-105926000D01*
G75*
G02*
X167551000Y-105676000I250000J0D01*
G01*
X168751000Y-105676000D01*
G75*
G02*
X169001000Y-105926000I0J-250000D01*
G01*
X169001000Y-107376000D01*
G75*
G02*
X168751000Y-107626000I-250000J0D01*
G01*
X167551000Y-107626000D01*
G75*
G02*
X167301000Y-107376000I0J250000D01*
G01*
G37*
%TD*%
%TO.C,J5*%
X161721000Y-106651000D03*
X159221000Y-106651000D03*
G36*
G01*
X155871000Y-107376000D02*
X155871000Y-105926000D01*
G75*
G02*
X156121000Y-105676000I250000J0D01*
G01*
X157321000Y-105676000D01*
G75*
G02*
X157571000Y-105926000I0J-250000D01*
G01*
X157571000Y-107376000D01*
G75*
G02*
X157321000Y-107626000I-250000J0D01*
G01*
X156121000Y-107626000D01*
G75*
G02*
X155871000Y-107376000I0J250000D01*
G01*
G37*
%TD*%
%TO.C,J4*%
X150291000Y-106651000D03*
X147791000Y-106651000D03*
G36*
G01*
X144441000Y-107376000D02*
X144441000Y-105926000D01*
G75*
G02*
X144691000Y-105676000I250000J0D01*
G01*
X145891000Y-105676000D01*
G75*
G02*
X146141000Y-105926000I0J-250000D01*
G01*
X146141000Y-107376000D01*
G75*
G02*
X145891000Y-107626000I-250000J0D01*
G01*
X144691000Y-107626000D01*
G75*
G02*
X144441000Y-107376000I0J250000D01*
G01*
G37*
%TD*%
D22*
%TO.C,H1*%
X100921400Y-105295612D03*
%TD*%
%TO.C,H3*%
X106897000Y-69033136D03*
%TD*%
%TO.C,H2*%
X117897000Y-69033136D03*
%TD*%
%TO.C,H5*%
X139830000Y-111985000D03*
%TD*%
%TO.C,H4*%
X130186002Y-69536000D03*
%TD*%
D25*
%TO.C,JP0*%
X143640000Y-87220000D03*
D26*
X143640000Y-89760000D03*
X143640000Y-92300000D03*
%TD*%
D22*
%TO.C,H7*%
X183186000Y-111985000D03*
%TD*%
D26*
%TO.C,PCB0*%
X134750000Y-92300000D03*
X132210000Y-92300000D03*
X137290000Y-92300000D03*
X139830000Y-92300000D03*
X129670000Y-92300000D03*
X129670000Y-89760000D03*
X132210000Y-89760000D03*
X134750000Y-89760000D03*
X137290000Y-89760000D03*
X139830000Y-89760000D03*
X129670000Y-87220000D03*
X132210000Y-87220000D03*
X134750000Y-87220000D03*
X137290000Y-87220000D03*
D25*
X139830000Y-87220000D03*
%TD*%
D22*
%TO.C,H6*%
X183186000Y-69536000D03*
%TD*%
D27*
%TO.C,J1*%
X147955000Y-39497000D03*
G36*
G01*
X149505000Y-44207000D02*
X146405000Y-44207000D01*
G75*
G02*
X146155000Y-43957000I0J250000D01*
G01*
X146155000Y-42657000D01*
G75*
G02*
X146405000Y-42407000I250000J0D01*
G01*
X149505000Y-42407000D01*
G75*
G02*
X149755000Y-42657000I0J-250000D01*
G01*
X149755000Y-43957000D01*
G75*
G02*
X149505000Y-44207000I-250000J0D01*
G01*
G37*
%TD*%
D28*
%TO.C,H4*%
X182245000Y-55245000D03*
%TD*%
%TO.C,H3*%
X182245000Y-40005000D03*
%TD*%
%TO.C,H2*%
X139065000Y-55245000D03*
%TD*%
%TO.C,H1*%
X139065000Y-40005000D03*
%TD*%
%TO.C,R3*%
G36*
G01*
X159569999Y-39675000D02*
X160470001Y-39675000D01*
G75*
G02*
X160720000Y-39924999I0J-249999D01*
G01*
X160720000Y-40625001D01*
G75*
G02*
X160470001Y-40875000I-249999J0D01*
G01*
X159569999Y-40875000D01*
G75*
G02*
X159320000Y-40625001I0J249999D01*
G01*
X159320000Y-39924999D01*
G75*
G02*
X159569999Y-39675000I249999J0D01*
G01*
G37*
G36*
G01*
X159569999Y-41675000D02*
X160470001Y-41675000D01*
G75*
G02*
X160720000Y-41924999I0J-249999D01*
G01*
X160720000Y-42625001D01*
G75*
G02*
X160470001Y-42875000I-249999J0D01*
G01*
X159569999Y-42875000D01*
G75*
G02*
X159320000Y-42625001I0J249999D01*
G01*
X159320000Y-41924999D01*
G75*
G02*
X159569999Y-41675000I249999J0D01*
G01*
G37*
%TD*%
D29*
%TO.C,J10*%
X175220000Y-47625000D03*
G36*
G01*
X171870000Y-48375000D02*
X171870000Y-46875000D01*
G75*
G02*
X172120000Y-46625000I250000J0D01*
G01*
X173320000Y-46625000D01*
G75*
G02*
X173570000Y-46875000I0J-250000D01*
G01*
X173570000Y-48375000D01*
G75*
G02*
X173320000Y-48625000I-250000J0D01*
G01*
X172120000Y-48625000D01*
G75*
G02*
X171870000Y-48375000I0J250000D01*
G01*
G37*
%TD*%
%TO.C,J7*%
X166330000Y-47625000D03*
G36*
G01*
X162980000Y-48375000D02*
X162980000Y-46875000D01*
G75*
G02*
X163230000Y-46625000I250000J0D01*
G01*
X164430000Y-46625000D01*
G75*
G02*
X164680000Y-46875000I0J-250000D01*
G01*
X164680000Y-48375000D01*
G75*
G02*
X164430000Y-48625000I-250000J0D01*
G01*
X163230000Y-48625000D01*
G75*
G02*
X162980000Y-48375000I0J250000D01*
G01*
G37*
%TD*%
%TO.C,J4*%
X157440000Y-54610000D03*
G36*
G01*
X154090000Y-55360000D02*
X154090000Y-53860000D01*
G75*
G02*
X154340000Y-53610000I250000J0D01*
G01*
X155540000Y-53610000D01*
G75*
G02*
X155790000Y-53860000I0J-250000D01*
G01*
X155790000Y-55360000D01*
G75*
G02*
X155540000Y-55610000I-250000J0D01*
G01*
X154340000Y-55610000D01*
G75*
G02*
X154090000Y-55360000I0J250000D01*
G01*
G37*
%TD*%
D30*
%TO.C,C3*%
X149820000Y-55880000D03*
D31*
X147320000Y-55880000D03*
%TD*%
D30*
%TO.C,C2*%
X146010000Y-50165000D03*
D31*
X143510000Y-50165000D03*
%TD*%
D30*
%TO.C,C1*%
X139660000Y-46990000D03*
D31*
X137160000Y-46990000D03*
%TD*%
%TO.C,R6*%
G36*
G01*
X168459999Y-43485000D02*
X169360001Y-43485000D01*
G75*
G02*
X169610000Y-43734999I0J-249999D01*
G01*
X169610000Y-44435001D01*
G75*
G02*
X169360001Y-44685000I-249999J0D01*
G01*
X168459999Y-44685000D01*
G75*
G02*
X168210000Y-44435001I0J249999D01*
G01*
X168210000Y-43734999D01*
G75*
G02*
X168459999Y-43485000I249999J0D01*
G01*
G37*
G36*
G01*
X168459999Y-45485000D02*
X169360001Y-45485000D01*
G75*
G02*
X169610000Y-45734999I0J-249999D01*
G01*
X169610000Y-46435001D01*
G75*
G02*
X169360001Y-46685000I-249999J0D01*
G01*
X168459999Y-46685000D01*
G75*
G02*
X168210000Y-46435001I0J249999D01*
G01*
X168210000Y-45734999D01*
G75*
G02*
X168459999Y-45485000I249999J0D01*
G01*
G37*
%TD*%
%TO.C,R5*%
G36*
G01*
X168459999Y-39675000D02*
X169360001Y-39675000D01*
G75*
G02*
X169610000Y-39924999I0J-249999D01*
G01*
X169610000Y-40625001D01*
G75*
G02*
X169360001Y-40875000I-249999J0D01*
G01*
X168459999Y-40875000D01*
G75*
G02*
X168210000Y-40625001I0J249999D01*
G01*
X168210000Y-39924999D01*
G75*
G02*
X168459999Y-39675000I249999J0D01*
G01*
G37*
G36*
G01*
X168459999Y-41675000D02*
X169360001Y-41675000D01*
G75*
G02*
X169610000Y-41924999I0J-249999D01*
G01*
X169610000Y-42625001D01*
G75*
G02*
X169360001Y-42875000I-249999J0D01*
G01*
X168459999Y-42875000D01*
G75*
G02*
X168210000Y-42625001I0J249999D01*
G01*
X168210000Y-41924999D01*
G75*
G02*
X168459999Y-41675000I249999J0D01*
G01*
G37*
%TD*%
%TO.C,R4*%
G36*
G01*
X159569999Y-43485000D02*
X160470001Y-43485000D01*
G75*
G02*
X160720000Y-43734999I0J-249999D01*
G01*
X160720000Y-44435001D01*
G75*
G02*
X160470001Y-44685000I-249999J0D01*
G01*
X159569999Y-44685000D01*
G75*
G02*
X159320000Y-44435001I0J249999D01*
G01*
X159320000Y-43734999D01*
G75*
G02*
X159569999Y-43485000I249999J0D01*
G01*
G37*
G36*
G01*
X159569999Y-45485000D02*
X160470001Y-45485000D01*
G75*
G02*
X160720000Y-45734999I0J-249999D01*
G01*
X160720000Y-46435001D01*
G75*
G02*
X160470001Y-46685000I-249999J0D01*
G01*
X159569999Y-46685000D01*
G75*
G02*
X159320000Y-46435001I0J249999D01*
G01*
X159320000Y-45734999D01*
G75*
G02*
X159569999Y-45485000I249999J0D01*
G01*
G37*
%TD*%
%TO.C,R2*%
G36*
G01*
X150679999Y-43485000D02*
X151580001Y-43485000D01*
G75*
G02*
X151830000Y-43734999I0J-249999D01*
G01*
X151830000Y-44435001D01*
G75*
G02*
X151580001Y-44685000I-249999J0D01*
G01*
X150679999Y-44685000D01*
G75*
G02*
X150430000Y-44435001I0J249999D01*
G01*
X150430000Y-43734999D01*
G75*
G02*
X150679999Y-43485000I249999J0D01*
G01*
G37*
G36*
G01*
X150679999Y-45485000D02*
X151580001Y-45485000D01*
G75*
G02*
X151830000Y-45734999I0J-249999D01*
G01*
X151830000Y-46435001D01*
G75*
G02*
X151580001Y-46685000I-249999J0D01*
G01*
X150679999Y-46685000D01*
G75*
G02*
X150430000Y-46435001I0J249999D01*
G01*
X150430000Y-45734999D01*
G75*
G02*
X150679999Y-45485000I249999J0D01*
G01*
G37*
%TD*%
%TO.C,R1*%
G36*
G01*
X150679999Y-39675000D02*
X151580001Y-39675000D01*
G75*
G02*
X151830000Y-39924999I0J-249999D01*
G01*
X151830000Y-40625001D01*
G75*
G02*
X151580001Y-40875000I-249999J0D01*
G01*
X150679999Y-40875000D01*
G75*
G02*
X150430000Y-40625001I0J249999D01*
G01*
X150430000Y-39924999D01*
G75*
G02*
X150679999Y-39675000I249999J0D01*
G01*
G37*
G36*
G01*
X150679999Y-41675000D02*
X151580001Y-41675000D01*
G75*
G02*
X151830000Y-41924999I0J-249999D01*
G01*
X151830000Y-42625001D01*
G75*
G02*
X151580001Y-42875000I-249999J0D01*
G01*
X150679999Y-42875000D01*
G75*
G02*
X150430000Y-42625001I0J249999D01*
G01*
X150430000Y-41924999D01*
G75*
G02*
X150679999Y-41675000I249999J0D01*
G01*
G37*
%TD*%
D32*
%TO.C,Q3*%
X173575000Y-44323000D03*
X175675000Y-45283000D03*
X175675000Y-43363000D03*
%TD*%
%TO.C,Q2*%
X164431000Y-44323000D03*
X166531000Y-45283000D03*
X166531000Y-43363000D03*
%TD*%
%TO.C,Q1*%
X155287000Y-44323000D03*
X157387000Y-45283000D03*
X157387000Y-43363000D03*
%TD*%
D29*
%TO.C,J9*%
X175220000Y-54610000D03*
G36*
G01*
X171870000Y-55360000D02*
X171870000Y-53860000D01*
G75*
G02*
X172120000Y-53610000I250000J0D01*
G01*
X173320000Y-53610000D01*
G75*
G02*
X173570000Y-53860000I0J-250000D01*
G01*
X173570000Y-55360000D01*
G75*
G02*
X173320000Y-55610000I-250000J0D01*
G01*
X172120000Y-55610000D01*
G75*
G02*
X171870000Y-55360000I0J250000D01*
G01*
G37*
%TD*%
%TO.C,J8*%
X172760000Y-41275000D03*
G36*
G01*
X176110000Y-40525000D02*
X176110000Y-42025000D01*
G75*
G02*
X175860000Y-42275000I-250000J0D01*
G01*
X174660000Y-42275000D01*
G75*
G02*
X174410000Y-42025000I0J250000D01*
G01*
X174410000Y-40525000D01*
G75*
G02*
X174660000Y-40275000I250000J0D01*
G01*
X175860000Y-40275000D01*
G75*
G02*
X176110000Y-40525000I0J-250000D01*
G01*
G37*
%TD*%
%TO.C,J6*%
X166330000Y-54610000D03*
G36*
G01*
X162980000Y-55360000D02*
X162980000Y-53860000D01*
G75*
G02*
X163230000Y-53610000I250000J0D01*
G01*
X164430000Y-53610000D01*
G75*
G02*
X164680000Y-53860000I0J-250000D01*
G01*
X164680000Y-55360000D01*
G75*
G02*
X164430000Y-55610000I-250000J0D01*
G01*
X163230000Y-55610000D01*
G75*
G02*
X162980000Y-55360000I0J250000D01*
G01*
G37*
%TD*%
%TO.C,J5*%
X163870000Y-41275000D03*
G36*
G01*
X167220000Y-40525000D02*
X167220000Y-42025000D01*
G75*
G02*
X166970000Y-42275000I-250000J0D01*
G01*
X165770000Y-42275000D01*
G75*
G02*
X165520000Y-42025000I0J250000D01*
G01*
X165520000Y-40525000D01*
G75*
G02*
X165770000Y-40275000I250000J0D01*
G01*
X166970000Y-40275000D01*
G75*
G02*
X167220000Y-40525000I0J-250000D01*
G01*
G37*
%TD*%
%TO.C,J3*%
X157440000Y-47625000D03*
G36*
G01*
X154090000Y-48375000D02*
X154090000Y-46875000D01*
G75*
G02*
X154340000Y-46625000I250000J0D01*
G01*
X155540000Y-46625000D01*
G75*
G02*
X155790000Y-46875000I0J-250000D01*
G01*
X155790000Y-48375000D01*
G75*
G02*
X155540000Y-48625000I-250000J0D01*
G01*
X154340000Y-48625000D01*
G75*
G02*
X154090000Y-48375000I0J250000D01*
G01*
G37*
%TD*%
%TO.C,J2*%
X154980000Y-41275000D03*
G36*
G01*
X158330000Y-40525000D02*
X158330000Y-42025000D01*
G75*
G02*
X158080000Y-42275000I-250000J0D01*
G01*
X156880000Y-42275000D01*
G75*
G02*
X156630000Y-42025000I0J250000D01*
G01*
X156630000Y-40525000D01*
G75*
G02*
X156880000Y-40275000I250000J0D01*
G01*
X158080000Y-40275000D01*
G75*
G02*
X158330000Y-40525000I0J-250000D01*
G01*
G37*
%TD*%
D26*
%TO.C,ax17*%
X109773000Y-48317000D03*
X109773000Y-45777000D03*
X109773000Y-43237000D03*
X109773000Y-40697000D03*
X109773000Y-38157000D03*
X109773000Y-35617000D03*
X109773000Y-33077000D03*
X109773000Y-30537000D03*
X109773000Y-27997000D03*
D25*
X109773000Y-25457000D03*
%TD*%
D26*
%TO.C,ax13*%
X119933000Y-48317000D03*
X119933000Y-45777000D03*
X119933000Y-43237000D03*
X119933000Y-40697000D03*
X119933000Y-38157000D03*
X119933000Y-35617000D03*
X119933000Y-33077000D03*
X119933000Y-30537000D03*
X119933000Y-27997000D03*
D25*
X119933000Y-25457000D03*
%TD*%
D33*
%TO.C,ax16*%
X119305000Y-52790000D03*
X118305000Y-52790000D03*
X117305000Y-52790000D03*
X116305000Y-52790000D03*
X115305000Y-52790000D03*
X114305000Y-52790000D03*
X113305000Y-52790000D03*
X112305000Y-52790000D03*
X111305000Y-52790000D03*
X110305000Y-52790000D03*
D17*
X121905000Y-55330000D03*
X107705000Y-55330000D03*
%TD*%
%TO.C,ax15*%
X102705000Y-55330000D03*
X126905000Y-55330000D03*
%TD*%
M02*
